G04 EAGLE Gerber RS-274X export*
G75*
%MOMM*%
%FSLAX34Y34*%
%LPD*%
%INInner Layer 2*%
%IPPOS*%
%AMOC8*
5,1,8,0,0,1.08239X$1,22.5*%
G01*
%ADD10C,0.279400*%
%ADD11C,1.524000*%
%ADD12C,0.558800*%
%ADD13C,0.254000*%
%ADD14C,0.762000*%

G36*
X166621Y2810D02*
X166621Y2810D01*
X166740Y2817D01*
X166778Y2830D01*
X166819Y2835D01*
X166929Y2878D01*
X167042Y2915D01*
X167077Y2937D01*
X167114Y2952D01*
X167210Y3021D01*
X167311Y3085D01*
X167339Y3115D01*
X167372Y3138D01*
X167448Y3230D01*
X167529Y3317D01*
X167549Y3352D01*
X167574Y3383D01*
X167625Y3491D01*
X167683Y3595D01*
X167693Y3635D01*
X167710Y3671D01*
X167732Y3788D01*
X167762Y3903D01*
X167766Y3963D01*
X167770Y3983D01*
X167768Y4004D01*
X167772Y4064D01*
X167772Y20553D01*
X167847Y20628D01*
X177953Y20628D01*
X178028Y20553D01*
X178028Y4064D01*
X178043Y3946D01*
X178050Y3827D01*
X178063Y3789D01*
X178068Y3748D01*
X178111Y3638D01*
X178148Y3525D01*
X178170Y3490D01*
X178185Y3453D01*
X178254Y3357D01*
X178318Y3256D01*
X178348Y3228D01*
X178371Y3195D01*
X178463Y3119D01*
X178550Y3038D01*
X178585Y3018D01*
X178616Y2993D01*
X178724Y2942D01*
X178828Y2884D01*
X178868Y2874D01*
X178904Y2857D01*
X179021Y2835D01*
X179136Y2805D01*
X179196Y2801D01*
X179216Y2797D01*
X179237Y2799D01*
X179297Y2795D01*
X252503Y2795D01*
X252621Y2810D01*
X252740Y2817D01*
X252778Y2830D01*
X252819Y2835D01*
X252929Y2878D01*
X253042Y2915D01*
X253077Y2937D01*
X253114Y2952D01*
X253210Y3021D01*
X253311Y3085D01*
X253339Y3115D01*
X253372Y3138D01*
X253448Y3230D01*
X253529Y3317D01*
X253549Y3352D01*
X253574Y3383D01*
X253625Y3491D01*
X253683Y3595D01*
X253693Y3635D01*
X253710Y3671D01*
X253732Y3788D01*
X253762Y3903D01*
X253766Y3963D01*
X253770Y3983D01*
X253768Y4004D01*
X253772Y4064D01*
X253772Y20553D01*
X253847Y20628D01*
X263953Y20628D01*
X264028Y20553D01*
X264028Y4064D01*
X264043Y3946D01*
X264050Y3827D01*
X264063Y3789D01*
X264068Y3748D01*
X264111Y3638D01*
X264148Y3525D01*
X264170Y3490D01*
X264185Y3453D01*
X264254Y3357D01*
X264318Y3256D01*
X264348Y3228D01*
X264371Y3195D01*
X264463Y3119D01*
X264550Y3038D01*
X264585Y3018D01*
X264616Y2993D01*
X264724Y2942D01*
X264828Y2884D01*
X264868Y2874D01*
X264904Y2857D01*
X265021Y2835D01*
X265136Y2805D01*
X265196Y2801D01*
X265216Y2797D01*
X265237Y2799D01*
X265297Y2795D01*
X293503Y2795D01*
X293621Y2810D01*
X293740Y2817D01*
X293778Y2830D01*
X293819Y2835D01*
X293929Y2878D01*
X294042Y2915D01*
X294077Y2937D01*
X294114Y2952D01*
X294210Y3021D01*
X294311Y3085D01*
X294339Y3115D01*
X294372Y3138D01*
X294448Y3230D01*
X294529Y3317D01*
X294549Y3352D01*
X294574Y3383D01*
X294625Y3491D01*
X294683Y3595D01*
X294693Y3635D01*
X294710Y3671D01*
X294732Y3788D01*
X294762Y3903D01*
X294766Y3963D01*
X294770Y3983D01*
X294768Y4004D01*
X294772Y4064D01*
X294772Y20553D01*
X294847Y20628D01*
X304953Y20628D01*
X305028Y20553D01*
X305028Y4064D01*
X305043Y3946D01*
X305050Y3827D01*
X305063Y3789D01*
X305068Y3748D01*
X305111Y3638D01*
X305148Y3525D01*
X305170Y3490D01*
X305185Y3453D01*
X305254Y3357D01*
X305318Y3256D01*
X305348Y3228D01*
X305371Y3195D01*
X305463Y3119D01*
X305550Y3038D01*
X305585Y3018D01*
X305616Y2993D01*
X305724Y2942D01*
X305828Y2884D01*
X305868Y2874D01*
X305904Y2857D01*
X306021Y2835D01*
X306136Y2805D01*
X306196Y2801D01*
X306216Y2797D01*
X306237Y2799D01*
X306297Y2795D01*
X379503Y2795D01*
X379621Y2810D01*
X379740Y2817D01*
X379778Y2830D01*
X379819Y2835D01*
X379929Y2878D01*
X380042Y2915D01*
X380077Y2937D01*
X380114Y2952D01*
X380210Y3021D01*
X380311Y3085D01*
X380339Y3115D01*
X380372Y3138D01*
X380448Y3230D01*
X380529Y3317D01*
X380549Y3352D01*
X380574Y3383D01*
X380625Y3491D01*
X380683Y3595D01*
X380693Y3635D01*
X380710Y3671D01*
X380732Y3788D01*
X380762Y3903D01*
X380766Y3963D01*
X380770Y3983D01*
X380768Y4004D01*
X380772Y4064D01*
X380772Y20553D01*
X380847Y20628D01*
X390953Y20628D01*
X391028Y20553D01*
X391028Y4064D01*
X391043Y3946D01*
X391050Y3827D01*
X391063Y3789D01*
X391068Y3748D01*
X391111Y3638D01*
X391148Y3525D01*
X391170Y3490D01*
X391185Y3453D01*
X391254Y3357D01*
X391318Y3256D01*
X391348Y3228D01*
X391371Y3195D01*
X391463Y3119D01*
X391550Y3038D01*
X391585Y3018D01*
X391616Y2993D01*
X391724Y2942D01*
X391828Y2884D01*
X391868Y2874D01*
X391904Y2857D01*
X392021Y2835D01*
X392136Y2805D01*
X392196Y2801D01*
X392216Y2797D01*
X392237Y2799D01*
X392297Y2795D01*
X506317Y2795D01*
X506415Y2807D01*
X506514Y2810D01*
X506572Y2827D01*
X506632Y2835D01*
X506724Y2871D01*
X506819Y2899D01*
X506872Y2929D01*
X506928Y2952D01*
X507008Y3010D01*
X507093Y3060D01*
X507169Y3126D01*
X507185Y3138D01*
X507193Y3148D01*
X507214Y3166D01*
X530234Y26186D01*
X530294Y26264D01*
X530362Y26336D01*
X530391Y26389D01*
X530428Y26437D01*
X530468Y26528D01*
X530516Y26615D01*
X530531Y26673D01*
X530555Y26729D01*
X530570Y26827D01*
X530595Y26923D01*
X530601Y27023D01*
X530605Y27043D01*
X530603Y27055D01*
X530605Y27083D01*
X530605Y106757D01*
X530588Y106895D01*
X530575Y107033D01*
X530568Y107052D01*
X530565Y107072D01*
X530514Y107201D01*
X530467Y107332D01*
X530456Y107349D01*
X530448Y107368D01*
X530367Y107480D01*
X530289Y107595D01*
X530273Y107609D01*
X530262Y107625D01*
X530154Y107714D01*
X530050Y107806D01*
X530032Y107815D01*
X530017Y107828D01*
X529891Y107887D01*
X529767Y107950D01*
X529747Y107955D01*
X529729Y107964D01*
X529592Y107990D01*
X529457Y108020D01*
X529436Y108020D01*
X529417Y108023D01*
X529278Y108015D01*
X529139Y108010D01*
X529119Y108005D01*
X529099Y108004D01*
X528967Y107961D01*
X528833Y107922D01*
X528816Y107912D01*
X528797Y107906D01*
X528679Y107831D01*
X528559Y107761D01*
X528538Y107742D01*
X528528Y107735D01*
X528514Y107720D01*
X528439Y107654D01*
X527464Y106679D01*
X524096Y106679D01*
X521715Y109060D01*
X521715Y112428D01*
X524096Y114809D01*
X527464Y114809D01*
X528439Y113834D01*
X528548Y113749D01*
X528655Y113660D01*
X528674Y113651D01*
X528690Y113639D01*
X528817Y113584D01*
X528943Y113524D01*
X528963Y113521D01*
X528982Y113513D01*
X529120Y113491D01*
X529256Y113465D01*
X529276Y113466D01*
X529296Y113463D01*
X529435Y113476D01*
X529573Y113484D01*
X529592Y113491D01*
X529612Y113493D01*
X529744Y113540D01*
X529875Y113582D01*
X529893Y113593D01*
X529912Y113600D01*
X530027Y113678D01*
X530144Y113753D01*
X530158Y113767D01*
X530175Y113779D01*
X530267Y113883D01*
X530362Y113984D01*
X530372Y114002D01*
X530385Y114017D01*
X530449Y114141D01*
X530516Y114263D01*
X530521Y114282D01*
X530530Y114300D01*
X530560Y114436D01*
X530595Y114571D01*
X530597Y114599D01*
X530600Y114611D01*
X530599Y114631D01*
X530605Y114731D01*
X530605Y132919D01*
X530588Y133056D01*
X530575Y133195D01*
X530568Y133214D01*
X530565Y133234D01*
X530514Y133363D01*
X530467Y133494D01*
X530456Y133511D01*
X530448Y133530D01*
X530367Y133642D01*
X530289Y133757D01*
X530273Y133771D01*
X530262Y133787D01*
X530154Y133876D01*
X530050Y133968D01*
X530032Y133977D01*
X530017Y133990D01*
X529891Y134049D01*
X529767Y134112D01*
X529747Y134117D01*
X529729Y134126D01*
X529593Y134152D01*
X529457Y134182D01*
X529436Y134182D01*
X529417Y134185D01*
X529278Y134177D01*
X529139Y134172D01*
X529119Y134167D01*
X529099Y134166D01*
X528967Y134123D01*
X528833Y134084D01*
X528816Y134074D01*
X528797Y134068D01*
X528679Y133993D01*
X528559Y133923D01*
X528538Y133904D01*
X528528Y133897D01*
X528514Y133882D01*
X528439Y133816D01*
X526448Y131825D01*
X523080Y131825D01*
X520699Y134206D01*
X520699Y137574D01*
X523080Y139955D01*
X526448Y139955D01*
X528439Y137964D01*
X528548Y137879D01*
X528655Y137790D01*
X528674Y137781D01*
X528690Y137769D01*
X528818Y137713D01*
X528943Y137654D01*
X528963Y137651D01*
X528982Y137643D01*
X529120Y137621D01*
X529256Y137595D01*
X529276Y137596D01*
X529296Y137593D01*
X529435Y137606D01*
X529573Y137614D01*
X529592Y137621D01*
X529612Y137623D01*
X529744Y137670D01*
X529875Y137712D01*
X529893Y137723D01*
X529912Y137730D01*
X530027Y137808D01*
X530144Y137883D01*
X530158Y137897D01*
X530175Y137909D01*
X530267Y138013D01*
X530362Y138114D01*
X530372Y138132D01*
X530385Y138147D01*
X530449Y138271D01*
X530516Y138393D01*
X530521Y138412D01*
X530530Y138430D01*
X530560Y138566D01*
X530595Y138701D01*
X530597Y138729D01*
X530600Y138741D01*
X530599Y138761D01*
X530605Y138861D01*
X530605Y504190D01*
X530590Y504308D01*
X530583Y504427D01*
X530570Y504465D01*
X530565Y504506D01*
X530522Y504616D01*
X530485Y504729D01*
X530463Y504764D01*
X530448Y504801D01*
X530379Y504897D01*
X530315Y504998D01*
X530285Y505026D01*
X530262Y505059D01*
X530170Y505135D01*
X530083Y505216D01*
X530048Y505236D01*
X530017Y505261D01*
X529909Y505312D01*
X529805Y505370D01*
X529765Y505380D01*
X529729Y505397D01*
X529612Y505419D01*
X529497Y505449D01*
X529437Y505453D01*
X529417Y505457D01*
X529396Y505455D01*
X529336Y505459D01*
X513087Y505459D01*
X513018Y505451D01*
X512948Y505452D01*
X512861Y505431D01*
X512771Y505419D01*
X512706Y505394D01*
X512639Y505377D01*
X512559Y505335D01*
X512476Y505302D01*
X512419Y505261D01*
X512358Y505229D01*
X512291Y505168D01*
X512218Y505116D01*
X512174Y505062D01*
X512122Y505015D01*
X512073Y504940D01*
X512016Y504871D01*
X511986Y504807D01*
X511947Y504749D01*
X511918Y504664D01*
X511880Y504583D01*
X511867Y504514D01*
X511844Y504448D01*
X511837Y504359D01*
X511820Y504271D01*
X511825Y504201D01*
X511819Y504131D01*
X511834Y504043D01*
X511840Y503953D01*
X511861Y503887D01*
X511873Y503818D01*
X511910Y503736D01*
X511938Y503651D01*
X511975Y503592D01*
X512004Y503528D01*
X512060Y503458D01*
X512108Y503382D01*
X512159Y503334D01*
X512203Y503280D01*
X512274Y503225D01*
X512340Y503164D01*
X512401Y503130D01*
X512457Y503088D01*
X512601Y503017D01*
X513036Y502837D01*
X515537Y500336D01*
X516891Y497069D01*
X516891Y493531D01*
X515537Y490264D01*
X513036Y487763D01*
X509769Y486409D01*
X506231Y486409D01*
X502964Y487763D01*
X500463Y490264D01*
X499109Y493531D01*
X499109Y497069D01*
X500463Y500336D01*
X502964Y502837D01*
X503399Y503017D01*
X503459Y503052D01*
X503524Y503078D01*
X503597Y503130D01*
X503675Y503175D01*
X503725Y503223D01*
X503782Y503264D01*
X503839Y503334D01*
X503903Y503396D01*
X503940Y503456D01*
X503984Y503509D01*
X504023Y503591D01*
X504070Y503667D01*
X504090Y503734D01*
X504120Y503797D01*
X504137Y503885D01*
X504163Y503971D01*
X504167Y504041D01*
X504180Y504110D01*
X504174Y504199D01*
X504178Y504289D01*
X504164Y504357D01*
X504160Y504427D01*
X504132Y504512D01*
X504114Y504600D01*
X504083Y504663D01*
X504062Y504729D01*
X504014Y504805D01*
X503974Y504886D01*
X503929Y504939D01*
X503892Y504998D01*
X503826Y505060D01*
X503768Y505128D01*
X503711Y505168D01*
X503660Y505216D01*
X503582Y505259D01*
X503508Y505311D01*
X503443Y505336D01*
X503382Y505370D01*
X503295Y505392D01*
X503211Y505424D01*
X503141Y505432D01*
X503074Y505449D01*
X502913Y505459D01*
X347987Y505459D01*
X347918Y505451D01*
X347848Y505452D01*
X347761Y505431D01*
X347671Y505419D01*
X347606Y505394D01*
X347539Y505377D01*
X347459Y505335D01*
X347376Y505302D01*
X347319Y505261D01*
X347258Y505229D01*
X347191Y505168D01*
X347118Y505116D01*
X347074Y505062D01*
X347022Y505015D01*
X346973Y504940D01*
X346916Y504871D01*
X346886Y504807D01*
X346847Y504749D01*
X346818Y504664D01*
X346780Y504583D01*
X346767Y504514D01*
X346744Y504448D01*
X346737Y504359D01*
X346720Y504271D01*
X346725Y504201D01*
X346719Y504131D01*
X346734Y504043D01*
X346740Y503953D01*
X346761Y503887D01*
X346773Y503818D01*
X346810Y503736D01*
X346838Y503651D01*
X346875Y503592D01*
X346904Y503528D01*
X346960Y503458D01*
X347008Y503382D01*
X347059Y503334D01*
X347103Y503280D01*
X347174Y503225D01*
X347240Y503164D01*
X347301Y503130D01*
X347357Y503088D01*
X347501Y503017D01*
X347936Y502837D01*
X350437Y500336D01*
X351791Y497069D01*
X351791Y493531D01*
X350437Y490264D01*
X347936Y487763D01*
X344669Y486409D01*
X341131Y486409D01*
X337864Y487763D01*
X335363Y490264D01*
X334009Y493531D01*
X334009Y497069D01*
X335363Y500336D01*
X337864Y502837D01*
X338299Y503017D01*
X338359Y503052D01*
X338424Y503078D01*
X338497Y503130D01*
X338575Y503175D01*
X338625Y503223D01*
X338682Y503264D01*
X338739Y503334D01*
X338803Y503396D01*
X338840Y503456D01*
X338884Y503509D01*
X338923Y503591D01*
X338970Y503667D01*
X338990Y503734D01*
X339020Y503797D01*
X339037Y503885D01*
X339063Y503971D01*
X339067Y504041D01*
X339080Y504110D01*
X339074Y504199D01*
X339078Y504289D01*
X339064Y504357D01*
X339060Y504427D01*
X339032Y504512D01*
X339014Y504600D01*
X338983Y504663D01*
X338962Y504729D01*
X338914Y504805D01*
X338874Y504886D01*
X338829Y504939D01*
X338792Y504998D01*
X338726Y505060D01*
X338668Y505128D01*
X338611Y505168D01*
X338560Y505216D01*
X338482Y505259D01*
X338408Y505311D01*
X338343Y505336D01*
X338282Y505370D01*
X338195Y505392D01*
X338111Y505424D01*
X338041Y505432D01*
X337974Y505449D01*
X337813Y505459D01*
X220987Y505459D01*
X220918Y505451D01*
X220848Y505452D01*
X220761Y505431D01*
X220671Y505419D01*
X220606Y505394D01*
X220539Y505377D01*
X220459Y505335D01*
X220376Y505302D01*
X220319Y505261D01*
X220258Y505229D01*
X220191Y505168D01*
X220118Y505116D01*
X220074Y505062D01*
X220022Y505015D01*
X219973Y504940D01*
X219916Y504871D01*
X219886Y504807D01*
X219847Y504749D01*
X219818Y504664D01*
X219780Y504583D01*
X219767Y504514D01*
X219744Y504448D01*
X219737Y504359D01*
X219720Y504271D01*
X219725Y504201D01*
X219719Y504131D01*
X219734Y504043D01*
X219740Y503953D01*
X219761Y503887D01*
X219773Y503818D01*
X219810Y503736D01*
X219838Y503651D01*
X219875Y503592D01*
X219904Y503528D01*
X219960Y503458D01*
X220008Y503382D01*
X220059Y503334D01*
X220103Y503280D01*
X220174Y503225D01*
X220240Y503164D01*
X220301Y503130D01*
X220357Y503088D01*
X220501Y503017D01*
X220936Y502837D01*
X223437Y500336D01*
X224791Y497069D01*
X224791Y493531D01*
X223437Y490264D01*
X220936Y487763D01*
X217669Y486409D01*
X214131Y486409D01*
X210864Y487763D01*
X208363Y490264D01*
X207009Y493531D01*
X207009Y497069D01*
X208363Y500336D01*
X210864Y502837D01*
X211299Y503017D01*
X211359Y503052D01*
X211424Y503078D01*
X211497Y503130D01*
X211575Y503175D01*
X211625Y503223D01*
X211682Y503264D01*
X211739Y503334D01*
X211803Y503396D01*
X211840Y503456D01*
X211884Y503509D01*
X211923Y503591D01*
X211970Y503667D01*
X211990Y503734D01*
X212020Y503797D01*
X212037Y503885D01*
X212063Y503971D01*
X212067Y504041D01*
X212080Y504110D01*
X212074Y504199D01*
X212078Y504289D01*
X212064Y504357D01*
X212060Y504427D01*
X212032Y504512D01*
X212014Y504600D01*
X211983Y504663D01*
X211962Y504729D01*
X211914Y504805D01*
X211874Y504886D01*
X211829Y504939D01*
X211792Y504998D01*
X211726Y505060D01*
X211668Y505128D01*
X211611Y505168D01*
X211560Y505216D01*
X211482Y505259D01*
X211408Y505311D01*
X211343Y505336D01*
X211282Y505370D01*
X211195Y505392D01*
X211111Y505424D01*
X211041Y505432D01*
X210974Y505449D01*
X210813Y505459D01*
X30487Y505459D01*
X30418Y505451D01*
X30348Y505452D01*
X30261Y505431D01*
X30171Y505419D01*
X30106Y505394D01*
X30039Y505377D01*
X29959Y505335D01*
X29876Y505302D01*
X29819Y505261D01*
X29758Y505229D01*
X29691Y505168D01*
X29618Y505116D01*
X29574Y505062D01*
X29522Y505015D01*
X29473Y504940D01*
X29416Y504871D01*
X29386Y504807D01*
X29347Y504749D01*
X29318Y504664D01*
X29280Y504583D01*
X29267Y504514D01*
X29244Y504448D01*
X29237Y504359D01*
X29220Y504271D01*
X29225Y504201D01*
X29219Y504131D01*
X29234Y504043D01*
X29240Y503953D01*
X29261Y503887D01*
X29273Y503818D01*
X29310Y503736D01*
X29338Y503651D01*
X29375Y503592D01*
X29404Y503528D01*
X29460Y503458D01*
X29508Y503382D01*
X29559Y503334D01*
X29603Y503280D01*
X29674Y503225D01*
X29740Y503164D01*
X29801Y503130D01*
X29857Y503088D01*
X30001Y503017D01*
X30436Y502837D01*
X32937Y500336D01*
X34291Y497069D01*
X34291Y493531D01*
X32937Y490264D01*
X30436Y487763D01*
X27169Y486409D01*
X23631Y486409D01*
X20364Y487763D01*
X17863Y490264D01*
X16509Y493531D01*
X16509Y497069D01*
X17863Y500336D01*
X20364Y502837D01*
X20799Y503017D01*
X20859Y503052D01*
X20924Y503078D01*
X20997Y503130D01*
X21075Y503175D01*
X21125Y503223D01*
X21182Y503264D01*
X21239Y503334D01*
X21303Y503396D01*
X21340Y503456D01*
X21384Y503509D01*
X21423Y503591D01*
X21470Y503667D01*
X21490Y503734D01*
X21520Y503797D01*
X21537Y503885D01*
X21563Y503971D01*
X21567Y504041D01*
X21580Y504110D01*
X21574Y504199D01*
X21578Y504289D01*
X21564Y504357D01*
X21560Y504427D01*
X21532Y504512D01*
X21514Y504600D01*
X21483Y504663D01*
X21462Y504729D01*
X21414Y504805D01*
X21374Y504886D01*
X21329Y504939D01*
X21292Y504998D01*
X21226Y505060D01*
X21168Y505128D01*
X21111Y505168D01*
X21060Y505216D01*
X20982Y505259D01*
X20908Y505311D01*
X20843Y505336D01*
X20782Y505370D01*
X20695Y505392D01*
X20611Y505424D01*
X20541Y505432D01*
X20474Y505449D01*
X20313Y505459D01*
X4064Y505459D01*
X3946Y505444D01*
X3827Y505437D01*
X3789Y505424D01*
X3748Y505419D01*
X3638Y505376D01*
X3525Y505339D01*
X3490Y505317D01*
X3453Y505302D01*
X3357Y505233D01*
X3256Y505169D01*
X3228Y505139D01*
X3195Y505116D01*
X3119Y505024D01*
X3038Y504937D01*
X3018Y504902D01*
X2993Y504871D01*
X2942Y504763D01*
X2884Y504659D01*
X2874Y504619D01*
X2857Y504583D01*
X2835Y504466D01*
X2805Y504351D01*
X2801Y504291D01*
X2797Y504271D01*
X2799Y504250D01*
X2795Y504190D01*
X2795Y27083D01*
X2807Y26985D01*
X2810Y26886D01*
X2827Y26828D01*
X2835Y26768D01*
X2871Y26676D01*
X2899Y26581D01*
X2929Y26528D01*
X2952Y26472D01*
X3010Y26392D01*
X3060Y26307D01*
X3126Y26231D01*
X3138Y26215D01*
X3148Y26207D01*
X3166Y26186D01*
X26186Y3166D01*
X26264Y3106D01*
X26336Y3038D01*
X26389Y3009D01*
X26437Y2972D01*
X26528Y2932D01*
X26615Y2884D01*
X26673Y2869D01*
X26729Y2845D01*
X26827Y2830D01*
X26923Y2805D01*
X27023Y2799D01*
X27043Y2795D01*
X27055Y2797D01*
X27083Y2795D01*
X166503Y2795D01*
X166621Y2810D01*
G37*
%LPC*%
G36*
X442816Y110235D02*
X442816Y110235D01*
X440435Y112616D01*
X440435Y115984D01*
X441588Y117136D01*
X441648Y117214D01*
X441716Y117286D01*
X441745Y117339D01*
X441782Y117387D01*
X441822Y117478D01*
X441870Y117565D01*
X441885Y117623D01*
X441909Y117679D01*
X441924Y117777D01*
X441949Y117873D01*
X441955Y117973D01*
X441959Y117993D01*
X441957Y118005D01*
X441959Y118033D01*
X441959Y415290D01*
X441944Y415408D01*
X441937Y415527D01*
X441924Y415565D01*
X441919Y415606D01*
X441876Y415716D01*
X441839Y415829D01*
X441817Y415864D01*
X441802Y415901D01*
X441733Y415997D01*
X441669Y416098D01*
X441639Y416126D01*
X441616Y416159D01*
X441524Y416235D01*
X441437Y416316D01*
X441402Y416336D01*
X441371Y416361D01*
X441263Y416412D01*
X441159Y416470D01*
X441119Y416480D01*
X441083Y416497D01*
X440966Y416519D01*
X440851Y416549D01*
X440791Y416553D01*
X440771Y416557D01*
X440750Y416555D01*
X440690Y416559D01*
X437482Y416559D01*
X435101Y418940D01*
X435101Y422308D01*
X437482Y424689D01*
X440690Y424689D01*
X440808Y424704D01*
X440927Y424711D01*
X440965Y424724D01*
X441006Y424729D01*
X441116Y424772D01*
X441229Y424809D01*
X441264Y424831D01*
X441301Y424846D01*
X441397Y424915D01*
X441498Y424979D01*
X441526Y425009D01*
X441559Y425032D01*
X441635Y425124D01*
X441716Y425211D01*
X441736Y425246D01*
X441761Y425277D01*
X441812Y425385D01*
X441870Y425489D01*
X441880Y425529D01*
X441897Y425565D01*
X441919Y425682D01*
X441949Y425797D01*
X441953Y425857D01*
X441957Y425877D01*
X441955Y425898D01*
X441959Y425958D01*
X441959Y451380D01*
X441947Y451479D01*
X441944Y451578D01*
X441927Y451636D01*
X441919Y451696D01*
X441883Y451788D01*
X441855Y451883D01*
X441825Y451935D01*
X441802Y451992D01*
X441744Y452072D01*
X441694Y452157D01*
X441628Y452232D01*
X441616Y452249D01*
X441606Y452257D01*
X441588Y452278D01*
X439444Y454422D01*
X439366Y454482D01*
X439294Y454550D01*
X439241Y454579D01*
X439193Y454616D01*
X439102Y454656D01*
X439015Y454704D01*
X438956Y454719D01*
X438901Y454743D01*
X438803Y454758D01*
X438707Y454783D01*
X438607Y454789D01*
X438587Y454793D01*
X438574Y454791D01*
X438546Y454793D01*
X432936Y454793D01*
X432838Y454781D01*
X432739Y454778D01*
X432681Y454761D01*
X432620Y454753D01*
X432528Y454717D01*
X432433Y454689D01*
X432381Y454659D01*
X432325Y454636D01*
X432245Y454578D01*
X432159Y454528D01*
X432084Y454462D01*
X432067Y454450D01*
X432060Y454440D01*
X432038Y454422D01*
X430886Y453269D01*
X427519Y453269D01*
X425138Y455650D01*
X425138Y459018D01*
X427519Y461399D01*
X430886Y461399D01*
X432038Y460246D01*
X432117Y460186D01*
X432189Y460118D01*
X432242Y460089D01*
X432290Y460052D01*
X432381Y460012D01*
X432467Y459964D01*
X432526Y459949D01*
X432582Y459925D01*
X432680Y459910D01*
X432775Y459885D01*
X432875Y459879D01*
X432896Y459875D01*
X432908Y459877D01*
X432936Y459875D01*
X441177Y459875D01*
X447041Y454011D01*
X447041Y335011D01*
X447047Y334962D01*
X447045Y334912D01*
X447067Y334805D01*
X447081Y334696D01*
X447099Y334649D01*
X447109Y334601D01*
X447157Y334502D01*
X447198Y334400D01*
X447227Y334360D01*
X447249Y334315D01*
X447320Y334231D01*
X447384Y334143D01*
X447423Y334111D01*
X447455Y334073D01*
X447545Y334010D01*
X447629Y333940D01*
X447674Y333919D01*
X447715Y333890D01*
X447818Y333851D01*
X447917Y333804D01*
X447966Y333795D01*
X448012Y333777D01*
X448122Y333765D01*
X448229Y333744D01*
X448279Y333748D01*
X448328Y333742D01*
X448437Y333757D01*
X448547Y333764D01*
X448594Y333779D01*
X448643Y333786D01*
X448796Y333838D01*
X450921Y334719D01*
X453319Y334719D01*
X455698Y333733D01*
X455746Y333720D01*
X455791Y333699D01*
X455899Y333678D01*
X456005Y333649D01*
X456055Y333649D01*
X456104Y333639D01*
X456213Y333646D01*
X456323Y333644D01*
X456371Y333656D01*
X456421Y333659D01*
X456525Y333693D01*
X456632Y333718D01*
X456676Y333742D01*
X456723Y333757D01*
X456816Y333816D01*
X456913Y333867D01*
X456950Y333901D01*
X456992Y333927D01*
X457067Y334007D01*
X457149Y334081D01*
X457176Y334123D01*
X457210Y334159D01*
X457263Y334255D01*
X457323Y334347D01*
X457340Y334394D01*
X457364Y334437D01*
X457391Y334544D01*
X457427Y334648D01*
X457431Y334697D01*
X457443Y334745D01*
X457453Y334906D01*
X457453Y335357D01*
X457441Y335455D01*
X457438Y335554D01*
X457421Y335612D01*
X457413Y335672D01*
X457377Y335764D01*
X457349Y335859D01*
X457319Y335911D01*
X457296Y335968D01*
X457238Y336048D01*
X457188Y336133D01*
X457122Y336209D01*
X457110Y336225D01*
X457100Y336233D01*
X457082Y336254D01*
X455929Y337406D01*
X455929Y340774D01*
X458310Y343155D01*
X461678Y343155D01*
X464059Y340774D01*
X464059Y337406D01*
X462906Y336254D01*
X462846Y336176D01*
X462778Y336104D01*
X462749Y336051D01*
X462712Y336003D01*
X462672Y335912D01*
X462624Y335825D01*
X462609Y335767D01*
X462585Y335711D01*
X462570Y335613D01*
X462545Y335517D01*
X462539Y335430D01*
X462537Y335419D01*
X462538Y335412D01*
X462535Y335397D01*
X462537Y335385D01*
X462535Y335357D01*
X462535Y278053D01*
X462547Y277955D01*
X462550Y277856D01*
X462567Y277798D01*
X462575Y277738D01*
X462611Y277646D01*
X462639Y277551D01*
X462669Y277499D01*
X462692Y277442D01*
X462750Y277362D01*
X462800Y277277D01*
X462866Y277201D01*
X462878Y277185D01*
X462888Y277177D01*
X462906Y277156D01*
X464313Y275750D01*
X464313Y272382D01*
X461932Y270001D01*
X458564Y270001D01*
X456183Y272382D01*
X456183Y275750D01*
X457082Y276648D01*
X457142Y276726D01*
X457210Y276798D01*
X457239Y276851D01*
X457276Y276899D01*
X457316Y276990D01*
X457364Y277077D01*
X457379Y277135D01*
X457403Y277191D01*
X457418Y277289D01*
X457443Y277385D01*
X457449Y277485D01*
X457453Y277505D01*
X457451Y277517D01*
X457453Y277545D01*
X457453Y292474D01*
X457447Y292523D01*
X457449Y292573D01*
X457427Y292680D01*
X457413Y292790D01*
X457395Y292836D01*
X457385Y292884D01*
X457337Y292983D01*
X457296Y293085D01*
X457267Y293126D01*
X457245Y293170D01*
X457174Y293254D01*
X457110Y293343D01*
X457071Y293374D01*
X457039Y293412D01*
X456949Y293475D01*
X456865Y293545D01*
X456820Y293567D01*
X456779Y293595D01*
X456676Y293634D01*
X456577Y293681D01*
X456528Y293690D01*
X456482Y293708D01*
X456372Y293720D01*
X456265Y293741D01*
X456215Y293738D01*
X456166Y293743D01*
X456057Y293728D01*
X455947Y293721D01*
X455900Y293706D01*
X455851Y293699D01*
X455698Y293647D01*
X453319Y292661D01*
X450921Y292661D01*
X448796Y293542D01*
X448748Y293555D01*
X448703Y293576D01*
X448595Y293596D01*
X448489Y293625D01*
X448439Y293626D01*
X448390Y293636D01*
X448281Y293629D01*
X448171Y293631D01*
X448123Y293619D01*
X448073Y293616D01*
X447969Y293582D01*
X447862Y293556D01*
X447818Y293533D01*
X447771Y293518D01*
X447678Y293459D01*
X447581Y293408D01*
X447544Y293374D01*
X447502Y293348D01*
X447427Y293268D01*
X447345Y293194D01*
X447318Y293152D01*
X447284Y293116D01*
X447231Y293020D01*
X447171Y292928D01*
X447154Y292881D01*
X447130Y292838D01*
X447103Y292731D01*
X447067Y292627D01*
X447063Y292578D01*
X447051Y292530D01*
X447041Y292369D01*
X447041Y238491D01*
X447047Y238442D01*
X447045Y238392D01*
X447067Y238285D01*
X447081Y238176D01*
X447099Y238129D01*
X447109Y238081D01*
X447157Y237982D01*
X447198Y237880D01*
X447227Y237840D01*
X447249Y237795D01*
X447320Y237711D01*
X447384Y237623D01*
X447423Y237591D01*
X447455Y237553D01*
X447545Y237490D01*
X447629Y237420D01*
X447674Y237399D01*
X447715Y237370D01*
X447818Y237331D01*
X447917Y237284D01*
X447966Y237275D01*
X448012Y237257D01*
X448122Y237245D01*
X448229Y237224D01*
X448279Y237228D01*
X448328Y237222D01*
X448437Y237237D01*
X448547Y237244D01*
X448594Y237259D01*
X448643Y237266D01*
X448796Y237318D01*
X450921Y238199D01*
X453319Y238199D01*
X455535Y237281D01*
X456301Y236515D01*
X456395Y236442D01*
X456485Y236363D01*
X456521Y236345D01*
X456553Y236320D01*
X456662Y236272D01*
X456768Y236218D01*
X456807Y236209D01*
X456844Y236193D01*
X456962Y236175D01*
X457078Y236149D01*
X457118Y236150D01*
X457158Y236144D01*
X457277Y236155D01*
X457396Y236158D01*
X457435Y236170D01*
X457475Y236173D01*
X457587Y236214D01*
X457702Y236247D01*
X457736Y236267D01*
X457774Y236281D01*
X457873Y236348D01*
X457975Y236408D01*
X458021Y236448D01*
X458038Y236460D01*
X458051Y236475D01*
X458096Y236515D01*
X459326Y237745D01*
X462694Y237745D01*
X465075Y235364D01*
X465075Y231996D01*
X462694Y229615D01*
X459297Y229615D01*
X459275Y229629D01*
X459189Y229697D01*
X459143Y229717D01*
X459101Y229744D01*
X458998Y229779D01*
X458897Y229823D01*
X458848Y229831D01*
X458801Y229847D01*
X458691Y229856D01*
X458583Y229873D01*
X458533Y229868D01*
X458484Y229872D01*
X458376Y229853D01*
X458266Y229843D01*
X458219Y229826D01*
X458170Y229818D01*
X458070Y229773D01*
X457967Y229736D01*
X457926Y229708D01*
X457880Y229687D01*
X457794Y229619D01*
X457704Y229557D01*
X457671Y229520D01*
X457632Y229489D01*
X457566Y229401D01*
X457493Y229318D01*
X457470Y229274D01*
X457441Y229235D01*
X457370Y229090D01*
X457231Y228755D01*
X455535Y227059D01*
X453319Y226141D01*
X450921Y226141D01*
X448796Y227022D01*
X448748Y227035D01*
X448703Y227056D01*
X448595Y227076D01*
X448489Y227105D01*
X448439Y227106D01*
X448390Y227116D01*
X448281Y227109D01*
X448171Y227111D01*
X448123Y227099D01*
X448073Y227096D01*
X447969Y227062D01*
X447862Y227036D01*
X447818Y227013D01*
X447771Y226998D01*
X447678Y226939D01*
X447581Y226888D01*
X447544Y226854D01*
X447502Y226828D01*
X447427Y226748D01*
X447345Y226674D01*
X447318Y226632D01*
X447284Y226596D01*
X447231Y226500D01*
X447171Y226408D01*
X447154Y226361D01*
X447130Y226318D01*
X447103Y226211D01*
X447067Y226107D01*
X447063Y226058D01*
X447051Y226010D01*
X447041Y225849D01*
X447041Y208491D01*
X447047Y208442D01*
X447045Y208392D01*
X447067Y208285D01*
X447081Y208176D01*
X447099Y208129D01*
X447109Y208081D01*
X447157Y207982D01*
X447198Y207880D01*
X447227Y207840D01*
X447249Y207795D01*
X447320Y207711D01*
X447384Y207623D01*
X447423Y207591D01*
X447455Y207553D01*
X447545Y207490D01*
X447629Y207420D01*
X447674Y207399D01*
X447715Y207370D01*
X447818Y207331D01*
X447917Y207284D01*
X447966Y207275D01*
X448012Y207257D01*
X448122Y207245D01*
X448229Y207224D01*
X448279Y207228D01*
X448328Y207222D01*
X448437Y207237D01*
X448547Y207244D01*
X448594Y207259D01*
X448643Y207266D01*
X448796Y207318D01*
X450921Y208199D01*
X453319Y208199D01*
X455535Y207281D01*
X457231Y205585D01*
X458149Y203369D01*
X458149Y200971D01*
X457231Y198755D01*
X455535Y197059D01*
X453319Y196141D01*
X450921Y196141D01*
X448796Y197022D01*
X448748Y197035D01*
X448703Y197056D01*
X448595Y197076D01*
X448489Y197105D01*
X448439Y197106D01*
X448390Y197116D01*
X448281Y197109D01*
X448171Y197111D01*
X448123Y197099D01*
X448073Y197096D01*
X447969Y197062D01*
X447862Y197036D01*
X447818Y197013D01*
X447771Y196998D01*
X447678Y196939D01*
X447581Y196888D01*
X447544Y196854D01*
X447502Y196828D01*
X447427Y196748D01*
X447345Y196674D01*
X447318Y196632D01*
X447284Y196596D01*
X447231Y196500D01*
X447171Y196408D01*
X447154Y196361D01*
X447130Y196318D01*
X447103Y196211D01*
X447067Y196107D01*
X447063Y196058D01*
X447051Y196010D01*
X447041Y195849D01*
X447041Y118033D01*
X447053Y117935D01*
X447056Y117836D01*
X447073Y117778D01*
X447081Y117718D01*
X447117Y117626D01*
X447145Y117531D01*
X447175Y117479D01*
X447198Y117422D01*
X447256Y117342D01*
X447306Y117257D01*
X447372Y117181D01*
X447384Y117165D01*
X447394Y117157D01*
X447412Y117136D01*
X448565Y115984D01*
X448565Y112616D01*
X446184Y110235D01*
X442816Y110235D01*
G37*
%LPD*%
%LPC*%
G36*
X407002Y128523D02*
X407002Y128523D01*
X404621Y130904D01*
X404621Y132534D01*
X404609Y132632D01*
X404606Y132731D01*
X404589Y132789D01*
X404581Y132849D01*
X404545Y132941D01*
X404517Y133037D01*
X404487Y133089D01*
X404464Y133145D01*
X404406Y133225D01*
X404356Y133310D01*
X404290Y133386D01*
X404278Y133402D01*
X404268Y133410D01*
X404250Y133431D01*
X403859Y133822D01*
X403859Y252676D01*
X403847Y252774D01*
X403844Y252873D01*
X403827Y252931D01*
X403819Y252991D01*
X403783Y253083D01*
X403755Y253179D01*
X403725Y253231D01*
X403702Y253287D01*
X403644Y253367D01*
X403594Y253452D01*
X403528Y253528D01*
X403516Y253544D01*
X403506Y253552D01*
X403488Y253573D01*
X371937Y285124D01*
X370721Y286339D01*
X370612Y286424D01*
X370505Y286513D01*
X370486Y286522D01*
X370470Y286534D01*
X370343Y286590D01*
X370217Y286649D01*
X370197Y286653D01*
X370178Y286661D01*
X370040Y286683D01*
X369904Y286709D01*
X369884Y286707D01*
X369864Y286711D01*
X369725Y286697D01*
X369587Y286689D01*
X369568Y286683D01*
X369548Y286681D01*
X369416Y286634D01*
X369285Y286591D01*
X369267Y286580D01*
X369248Y286573D01*
X369133Y286495D01*
X369016Y286421D01*
X369002Y286406D01*
X368985Y286395D01*
X368893Y286290D01*
X368798Y286189D01*
X368788Y286171D01*
X368775Y286156D01*
X368712Y286032D01*
X368644Y285911D01*
X368639Y285891D01*
X368630Y285873D01*
X368600Y285737D01*
X368565Y285603D01*
X368563Y285575D01*
X368560Y285563D01*
X368561Y285542D01*
X368555Y285442D01*
X368555Y252948D01*
X349114Y233507D01*
X349054Y233429D01*
X348986Y233357D01*
X348957Y233304D01*
X348920Y233256D01*
X348880Y233165D01*
X348832Y233078D01*
X348817Y233020D01*
X348793Y232964D01*
X348778Y232866D01*
X348753Y232771D01*
X348747Y232670D01*
X348743Y232650D01*
X348745Y232638D01*
X348743Y232610D01*
X348743Y209981D01*
X348755Y209883D01*
X348758Y209784D01*
X348775Y209726D01*
X348783Y209666D01*
X348819Y209574D01*
X348847Y209479D01*
X348877Y209427D01*
X348900Y209370D01*
X348958Y209290D01*
X349008Y209205D01*
X349074Y209129D01*
X349086Y209113D01*
X349096Y209105D01*
X349114Y209084D01*
X350267Y207932D01*
X350267Y204564D01*
X347886Y202183D01*
X344518Y202183D01*
X342137Y204564D01*
X342137Y207932D01*
X343290Y209084D01*
X343350Y209162D01*
X343418Y209234D01*
X343447Y209287D01*
X343484Y209335D01*
X343524Y209426D01*
X343572Y209513D01*
X343587Y209571D01*
X343611Y209627D01*
X343626Y209725D01*
X343651Y209821D01*
X343657Y209921D01*
X343661Y209941D01*
X343659Y209953D01*
X343661Y209981D01*
X343661Y235240D01*
X363102Y254681D01*
X363162Y254759D01*
X363230Y254831D01*
X363259Y254884D01*
X363296Y254932D01*
X363336Y255023D01*
X363384Y255110D01*
X363399Y255168D01*
X363423Y255224D01*
X363438Y255322D01*
X363463Y255417D01*
X363469Y255518D01*
X363473Y255538D01*
X363471Y255550D01*
X363473Y255578D01*
X363473Y283918D01*
X363461Y284016D01*
X363458Y284115D01*
X363441Y284173D01*
X363433Y284233D01*
X363397Y284325D01*
X363369Y284421D01*
X363339Y284473D01*
X363316Y284529D01*
X363258Y284609D01*
X363208Y284694D01*
X363142Y284770D01*
X363130Y284786D01*
X363120Y284794D01*
X363102Y284815D01*
X358729Y289188D01*
X358651Y289248D01*
X358579Y289316D01*
X358526Y289345D01*
X358478Y289382D01*
X358387Y289422D01*
X358300Y289470D01*
X358242Y289485D01*
X358186Y289509D01*
X358088Y289524D01*
X357993Y289549D01*
X357892Y289555D01*
X357872Y289559D01*
X357860Y289557D01*
X357832Y289559D01*
X352319Y289559D01*
X352290Y289556D01*
X352260Y289558D01*
X352132Y289536D01*
X352003Y289519D01*
X351976Y289509D01*
X351947Y289504D01*
X351828Y289450D01*
X351708Y289402D01*
X351684Y289385D01*
X351657Y289373D01*
X351555Y289292D01*
X351450Y289216D01*
X351432Y289193D01*
X351408Y289174D01*
X351330Y289071D01*
X351248Y288971D01*
X351235Y288944D01*
X351217Y288920D01*
X351146Y288776D01*
X350437Y287064D01*
X347936Y284563D01*
X344669Y283209D01*
X341131Y283209D01*
X337864Y284563D01*
X335363Y287064D01*
X334009Y290331D01*
X334009Y293869D01*
X335363Y297136D01*
X337864Y299637D01*
X341131Y300991D01*
X344669Y300991D01*
X347936Y299637D01*
X350437Y297136D01*
X351146Y295424D01*
X351161Y295399D01*
X351170Y295371D01*
X351239Y295261D01*
X351304Y295148D01*
X351324Y295127D01*
X351340Y295102D01*
X351435Y295013D01*
X351525Y294920D01*
X351550Y294904D01*
X351572Y294884D01*
X351686Y294821D01*
X351796Y294753D01*
X351824Y294745D01*
X351850Y294730D01*
X351976Y294698D01*
X352100Y294660D01*
X352130Y294658D01*
X352158Y294651D01*
X352319Y294641D01*
X360462Y294641D01*
X362322Y292781D01*
X367911Y287193D01*
X368020Y287107D01*
X368127Y287019D01*
X368146Y287010D01*
X368162Y286998D01*
X368290Y286942D01*
X368415Y286883D01*
X368435Y286879D01*
X368454Y286871D01*
X368592Y286849D01*
X368728Y286823D01*
X368748Y286825D01*
X368768Y286821D01*
X368907Y286835D01*
X369045Y286843D01*
X369064Y286849D01*
X369084Y286851D01*
X369216Y286898D01*
X369347Y286941D01*
X369365Y286952D01*
X369384Y286959D01*
X369499Y287037D01*
X369616Y287111D01*
X369630Y287126D01*
X369647Y287137D01*
X369739Y287242D01*
X369834Y287343D01*
X369844Y287361D01*
X369857Y287376D01*
X369920Y287500D01*
X369988Y287621D01*
X369993Y287641D01*
X370002Y287659D01*
X370032Y287795D01*
X370067Y287929D01*
X370069Y287957D01*
X370072Y287969D01*
X370071Y287990D01*
X370077Y288090D01*
X370077Y355038D01*
X370065Y355136D01*
X370062Y355235D01*
X370045Y355293D01*
X370037Y355353D01*
X370001Y355445D01*
X369973Y355541D01*
X369943Y355593D01*
X369920Y355649D01*
X369862Y355729D01*
X369812Y355814D01*
X369746Y355890D01*
X369734Y355906D01*
X369724Y355914D01*
X369706Y355935D01*
X360253Y365388D01*
X360175Y365448D01*
X360103Y365516D01*
X360050Y365545D01*
X360002Y365582D01*
X359911Y365622D01*
X359824Y365670D01*
X359766Y365685D01*
X359710Y365709D01*
X359612Y365724D01*
X359517Y365749D01*
X359416Y365755D01*
X359396Y365759D01*
X359384Y365757D01*
X359356Y365759D01*
X352319Y365759D01*
X352290Y365756D01*
X352260Y365758D01*
X352132Y365736D01*
X352003Y365719D01*
X351976Y365709D01*
X351947Y365704D01*
X351828Y365650D01*
X351708Y365602D01*
X351684Y365585D01*
X351657Y365573D01*
X351556Y365492D01*
X351450Y365416D01*
X351432Y365393D01*
X351408Y365374D01*
X351330Y365271D01*
X351248Y365171D01*
X351235Y365144D01*
X351217Y365120D01*
X351146Y364976D01*
X350437Y363264D01*
X347936Y360763D01*
X344669Y359409D01*
X341131Y359409D01*
X337864Y360763D01*
X335363Y363264D01*
X334009Y366531D01*
X334009Y370069D01*
X335363Y373336D01*
X337864Y375837D01*
X341131Y377191D01*
X344669Y377191D01*
X347936Y375837D01*
X350437Y373336D01*
X351146Y371624D01*
X351153Y371612D01*
X351155Y371607D01*
X351162Y371596D01*
X351170Y371571D01*
X351240Y371461D01*
X351304Y371348D01*
X351324Y371327D01*
X351340Y371302D01*
X351435Y371213D01*
X351525Y371120D01*
X351550Y371104D01*
X351572Y371084D01*
X351685Y371021D01*
X351796Y370953D01*
X351824Y370945D01*
X351850Y370930D01*
X351976Y370898D01*
X352100Y370860D01*
X352130Y370858D01*
X352158Y370851D01*
X352319Y370841D01*
X361986Y370841D01*
X375159Y357668D01*
X375159Y295071D01*
X375176Y294933D01*
X375189Y294795D01*
X375196Y294776D01*
X375199Y294756D01*
X375250Y294626D01*
X375297Y294496D01*
X375308Y294479D01*
X375316Y294460D01*
X375397Y294348D01*
X375475Y294233D01*
X375491Y294219D01*
X375502Y294203D01*
X375610Y294114D01*
X375714Y294022D01*
X375732Y294013D01*
X375747Y294000D01*
X375873Y293941D01*
X375997Y293878D01*
X376017Y293873D01*
X376035Y293864D01*
X376172Y293838D01*
X376307Y293808D01*
X376328Y293808D01*
X376347Y293805D01*
X376486Y293813D01*
X376625Y293818D01*
X376645Y293823D01*
X376665Y293824D01*
X376797Y293867D01*
X376931Y293906D01*
X376948Y293916D01*
X376967Y293922D01*
X377085Y293997D01*
X377205Y294067D01*
X377226Y294086D01*
X377236Y294093D01*
X377250Y294108D01*
X377325Y294174D01*
X378088Y294936D01*
X378148Y295014D01*
X378216Y295086D01*
X378245Y295139D01*
X378282Y295187D01*
X378322Y295278D01*
X378370Y295365D01*
X378385Y295423D01*
X378409Y295479D01*
X378424Y295577D01*
X378449Y295673D01*
X378455Y295773D01*
X378459Y295793D01*
X378457Y295805D01*
X378459Y295833D01*
X378459Y382347D01*
X378447Y382445D01*
X378444Y382544D01*
X378427Y382602D01*
X378419Y382662D01*
X378383Y382754D01*
X378355Y382849D01*
X378325Y382901D01*
X378302Y382958D01*
X378244Y383038D01*
X378194Y383123D01*
X378128Y383199D01*
X378116Y383215D01*
X378106Y383223D01*
X378088Y383244D01*
X376935Y384396D01*
X376935Y387764D01*
X379316Y390145D01*
X382684Y390145D01*
X385065Y387764D01*
X385065Y384396D01*
X383912Y383244D01*
X383852Y383166D01*
X383784Y383094D01*
X383755Y383041D01*
X383718Y382993D01*
X383678Y382902D01*
X383630Y382815D01*
X383615Y382757D01*
X383591Y382701D01*
X383576Y382603D01*
X383551Y382507D01*
X383545Y382407D01*
X383541Y382387D01*
X383543Y382375D01*
X383541Y382347D01*
X383541Y295833D01*
X383553Y295735D01*
X383556Y295636D01*
X383573Y295578D01*
X383581Y295518D01*
X383617Y295426D01*
X383645Y295331D01*
X383675Y295279D01*
X383698Y295222D01*
X383756Y295142D01*
X383806Y295057D01*
X383872Y294981D01*
X383884Y294965D01*
X383894Y294957D01*
X383912Y294936D01*
X385065Y293784D01*
X385065Y290416D01*
X382684Y288035D01*
X379276Y288035D01*
X379139Y288018D01*
X379000Y288005D01*
X378981Y287998D01*
X378961Y287995D01*
X378832Y287944D01*
X378700Y287897D01*
X378684Y287886D01*
X378665Y287878D01*
X378553Y287797D01*
X378437Y287719D01*
X378424Y287703D01*
X378408Y287692D01*
X378319Y287584D01*
X378227Y287480D01*
X378218Y287462D01*
X378205Y287447D01*
X378146Y287321D01*
X378082Y287197D01*
X378078Y287177D01*
X378069Y287159D01*
X378043Y287023D01*
X378013Y286887D01*
X378013Y286866D01*
X378009Y286847D01*
X378018Y286708D01*
X378022Y286569D01*
X378028Y286549D01*
X378029Y286529D01*
X378072Y286397D01*
X378111Y286263D01*
X378121Y286246D01*
X378127Y286227D01*
X378202Y286109D01*
X378272Y285989D01*
X378291Y285968D01*
X378297Y285958D01*
X378312Y285944D01*
X378379Y285869D01*
X408941Y255306D01*
X408941Y137922D01*
X408956Y137804D01*
X408963Y137685D01*
X408976Y137647D01*
X408981Y137606D01*
X409024Y137496D01*
X409061Y137383D01*
X409083Y137348D01*
X409098Y137311D01*
X409167Y137215D01*
X409231Y137114D01*
X409261Y137086D01*
X409284Y137053D01*
X409376Y136977D01*
X409463Y136896D01*
X409498Y136876D01*
X409529Y136851D01*
X409637Y136800D01*
X409741Y136742D01*
X409781Y136732D01*
X409817Y136715D01*
X409934Y136693D01*
X410049Y136663D01*
X410109Y136659D01*
X410129Y136655D01*
X410150Y136657D01*
X410210Y136653D01*
X410370Y136653D01*
X412751Y134272D01*
X412751Y130904D01*
X410370Y128523D01*
X407002Y128523D01*
G37*
%LPD*%
%LPC*%
G36*
X417416Y97535D02*
X417416Y97535D01*
X415035Y99916D01*
X415035Y103284D01*
X416188Y104436D01*
X416248Y104514D01*
X416316Y104586D01*
X416345Y104639D01*
X416382Y104687D01*
X416422Y104778D01*
X416470Y104865D01*
X416485Y104923D01*
X416509Y104979D01*
X416524Y105077D01*
X416549Y105173D01*
X416555Y105273D01*
X416559Y105293D01*
X416557Y105305D01*
X416559Y105333D01*
X416559Y313890D01*
X416547Y313988D01*
X416544Y314087D01*
X416527Y314145D01*
X416519Y314205D01*
X416483Y314297D01*
X416455Y314393D01*
X416425Y314445D01*
X416402Y314501D01*
X416344Y314581D01*
X416294Y314666D01*
X416228Y314742D01*
X416216Y314758D01*
X416206Y314766D01*
X416188Y314787D01*
X413847Y317128D01*
X413769Y317188D01*
X413697Y317256D01*
X413644Y317285D01*
X413596Y317322D01*
X413505Y317362D01*
X413418Y317410D01*
X413360Y317425D01*
X413304Y317449D01*
X413206Y317464D01*
X413111Y317489D01*
X413010Y317495D01*
X412990Y317499D01*
X412978Y317497D01*
X412950Y317499D01*
X411226Y317499D01*
X411108Y317484D01*
X410989Y317477D01*
X410951Y317464D01*
X410910Y317459D01*
X410800Y317416D01*
X410687Y317379D01*
X410652Y317357D01*
X410615Y317342D01*
X410519Y317273D01*
X410418Y317209D01*
X410390Y317179D01*
X410357Y317156D01*
X410281Y317064D01*
X410200Y316977D01*
X410180Y316942D01*
X410155Y316911D01*
X410104Y316803D01*
X410046Y316699D01*
X410036Y316659D01*
X410019Y316623D01*
X409997Y316506D01*
X409967Y316391D01*
X409963Y316331D01*
X409959Y316311D01*
X409961Y316290D01*
X409957Y316230D01*
X409957Y294680D01*
X399182Y283906D01*
X399122Y283828D01*
X399054Y283756D01*
X399025Y283703D01*
X398988Y283655D01*
X398948Y283564D01*
X398900Y283477D01*
X398885Y283418D01*
X398861Y283363D01*
X398846Y283265D01*
X398821Y283169D01*
X398815Y283069D01*
X398811Y283049D01*
X398813Y283036D01*
X398811Y283008D01*
X398811Y281526D01*
X396430Y279145D01*
X393062Y279145D01*
X390681Y281526D01*
X390681Y284894D01*
X393062Y287275D01*
X394839Y287275D01*
X394937Y287287D01*
X395036Y287290D01*
X395095Y287307D01*
X395155Y287315D01*
X395247Y287351D01*
X395342Y287379D01*
X395394Y287409D01*
X395450Y287432D01*
X395531Y287490D01*
X395616Y287540D01*
X395691Y287606D01*
X395708Y287618D01*
X395716Y287628D01*
X395737Y287646D01*
X404504Y296413D01*
X404564Y296492D01*
X404632Y296564D01*
X404661Y296617D01*
X404698Y296665D01*
X404738Y296755D01*
X404786Y296842D01*
X404801Y296901D01*
X404825Y296956D01*
X404840Y297054D01*
X404865Y297150D01*
X404871Y297250D01*
X404875Y297270D01*
X404873Y297283D01*
X404875Y297311D01*
X404875Y357378D01*
X404860Y357496D01*
X404853Y357615D01*
X404840Y357653D01*
X404835Y357694D01*
X404792Y357804D01*
X404755Y357917D01*
X404733Y357952D01*
X404718Y357989D01*
X404649Y358085D01*
X404585Y358186D01*
X404555Y358214D01*
X404532Y358247D01*
X404440Y358323D01*
X404353Y358404D01*
X404318Y358424D01*
X404287Y358449D01*
X404179Y358500D01*
X404075Y358558D01*
X404035Y358568D01*
X403999Y358585D01*
X403882Y358607D01*
X403767Y358637D01*
X403707Y358641D01*
X403687Y358645D01*
X403666Y358643D01*
X403606Y358647D01*
X400144Y358647D01*
X397763Y361028D01*
X397763Y364396D01*
X398916Y365548D01*
X398976Y365626D01*
X399044Y365698D01*
X399073Y365751D01*
X399110Y365799D01*
X399150Y365890D01*
X399198Y365977D01*
X399213Y366035D01*
X399237Y366091D01*
X399252Y366189D01*
X399277Y366285D01*
X399283Y366385D01*
X399287Y366405D01*
X399285Y366417D01*
X399287Y366445D01*
X399287Y382560D01*
X418474Y401747D01*
X418534Y401825D01*
X418602Y401897D01*
X418631Y401950D01*
X418668Y401998D01*
X418708Y402089D01*
X418756Y402176D01*
X418771Y402234D01*
X418795Y402290D01*
X418810Y402388D01*
X418835Y402483D01*
X418841Y402584D01*
X418845Y402604D01*
X418843Y402616D01*
X418845Y402644D01*
X418845Y402750D01*
X421226Y405131D01*
X424594Y405131D01*
X426330Y403394D01*
X426425Y403321D01*
X426514Y403242D01*
X426550Y403224D01*
X426582Y403199D01*
X426691Y403152D01*
X426797Y403098D01*
X426836Y403089D01*
X426874Y403073D01*
X426991Y403054D01*
X427107Y403028D01*
X427148Y403029D01*
X427188Y403023D01*
X427306Y403034D01*
X427425Y403038D01*
X427464Y403049D01*
X427504Y403053D01*
X427617Y403093D01*
X427731Y403126D01*
X427765Y403146D01*
X427804Y403160D01*
X427902Y403227D01*
X428005Y403287D01*
X428050Y403327D01*
X428067Y403339D01*
X428080Y403354D01*
X428125Y403394D01*
X428846Y404115D01*
X432214Y404115D01*
X434595Y401734D01*
X434595Y398366D01*
X433442Y397214D01*
X433382Y397136D01*
X433314Y397064D01*
X433285Y397011D01*
X433248Y396963D01*
X433208Y396872D01*
X433160Y396785D01*
X433145Y396727D01*
X433121Y396671D01*
X433106Y396573D01*
X433081Y396477D01*
X433075Y396377D01*
X433071Y396357D01*
X433073Y396345D01*
X433071Y396317D01*
X433071Y393410D01*
X431211Y391550D01*
X427401Y387739D01*
X427315Y387630D01*
X427227Y387523D01*
X427218Y387504D01*
X427206Y387488D01*
X427150Y387360D01*
X427091Y387235D01*
X427087Y387215D01*
X427079Y387196D01*
X427057Y387058D01*
X427031Y386922D01*
X427033Y386902D01*
X427029Y386882D01*
X427043Y386743D01*
X427051Y386605D01*
X427057Y386586D01*
X427059Y386566D01*
X427106Y386434D01*
X427149Y386303D01*
X427160Y386285D01*
X427167Y386266D01*
X427245Y386151D01*
X427319Y386034D01*
X427334Y386020D01*
X427345Y386003D01*
X427450Y385911D01*
X427551Y385816D01*
X427569Y385806D01*
X427584Y385793D01*
X427708Y385729D01*
X427829Y385662D01*
X427849Y385657D01*
X427867Y385648D01*
X428003Y385618D01*
X428137Y385583D01*
X428165Y385581D01*
X428177Y385578D01*
X428198Y385579D01*
X428298Y385573D01*
X428493Y385573D01*
X430360Y384799D01*
X431789Y383370D01*
X432563Y381503D01*
X432563Y350779D01*
X431789Y348912D01*
X428074Y345197D01*
X426207Y344423D01*
X424185Y344423D01*
X422318Y345197D01*
X420889Y346626D01*
X420115Y348493D01*
X420115Y350515D01*
X420889Y352382D01*
X422030Y353523D01*
X422090Y353601D01*
X422158Y353673D01*
X422187Y353726D01*
X422224Y353774D01*
X422264Y353865D01*
X422312Y353952D01*
X422327Y354010D01*
X422351Y354066D01*
X422366Y354164D01*
X422391Y354260D01*
X422397Y354360D01*
X422401Y354380D01*
X422399Y354392D01*
X422401Y354420D01*
X422401Y379676D01*
X422384Y379813D01*
X422371Y379952D01*
X422364Y379971D01*
X422361Y379991D01*
X422310Y380120D01*
X422263Y380252D01*
X422252Y380268D01*
X422244Y380287D01*
X422163Y380399D01*
X422085Y380515D01*
X422069Y380528D01*
X422058Y380544D01*
X421950Y380633D01*
X421846Y380725D01*
X421828Y380734D01*
X421813Y380747D01*
X421687Y380806D01*
X421563Y380870D01*
X421543Y380874D01*
X421525Y380883D01*
X421389Y380909D01*
X421253Y380939D01*
X421232Y380939D01*
X421213Y380943D01*
X421074Y380934D01*
X420935Y380930D01*
X420915Y380924D01*
X420895Y380923D01*
X420763Y380880D01*
X420629Y380841D01*
X420612Y380831D01*
X420593Y380825D01*
X420475Y380750D01*
X420355Y380680D01*
X420334Y380661D01*
X420324Y380655D01*
X420310Y380640D01*
X420235Y380573D01*
X410328Y370667D01*
X410268Y370589D01*
X410200Y370517D01*
X410171Y370464D01*
X410134Y370416D01*
X410094Y370325D01*
X410046Y370238D01*
X410031Y370180D01*
X410007Y370124D01*
X409992Y370026D01*
X409967Y369931D01*
X409961Y369831D01*
X409957Y369810D01*
X409959Y369798D01*
X409957Y369770D01*
X409957Y326898D01*
X409972Y326780D01*
X409979Y326661D01*
X409992Y326623D01*
X409997Y326582D01*
X410040Y326472D01*
X410077Y326359D01*
X410099Y326324D01*
X410114Y326287D01*
X410184Y326190D01*
X410247Y326090D01*
X410277Y326062D01*
X410300Y326029D01*
X410392Y325953D01*
X410479Y325872D01*
X410514Y325852D01*
X410545Y325827D01*
X410653Y325776D01*
X410757Y325718D01*
X410797Y325708D01*
X410833Y325691D01*
X410950Y325669D01*
X411065Y325639D01*
X411125Y325635D01*
X411145Y325631D01*
X411166Y325633D01*
X411226Y325629D01*
X414688Y325629D01*
X417069Y323248D01*
X417069Y321618D01*
X417081Y321520D01*
X417084Y321421D01*
X417101Y321363D01*
X417109Y321303D01*
X417145Y321211D01*
X417173Y321115D01*
X417203Y321063D01*
X417226Y321007D01*
X417284Y320927D01*
X417334Y320842D01*
X417400Y320766D01*
X417412Y320750D01*
X417422Y320742D01*
X417440Y320721D01*
X421641Y316520D01*
X421641Y105333D01*
X421653Y105235D01*
X421656Y105136D01*
X421673Y105078D01*
X421681Y105018D01*
X421717Y104926D01*
X421745Y104831D01*
X421775Y104778D01*
X421798Y104722D01*
X421856Y104642D01*
X421906Y104557D01*
X421972Y104481D01*
X421984Y104465D01*
X421994Y104457D01*
X422012Y104436D01*
X423165Y103284D01*
X423165Y99916D01*
X420784Y97535D01*
X417416Y97535D01*
G37*
%LPD*%
%LPC*%
G36*
X469232Y176275D02*
X469232Y176275D01*
X466851Y178656D01*
X466851Y182024D01*
X468004Y183176D01*
X468064Y183254D01*
X468132Y183326D01*
X468161Y183379D01*
X468198Y183427D01*
X468238Y183518D01*
X468286Y183605D01*
X468301Y183663D01*
X468325Y183719D01*
X468340Y183817D01*
X468365Y183913D01*
X468371Y184013D01*
X468375Y184033D01*
X468373Y184045D01*
X468375Y184073D01*
X468375Y472219D01*
X468363Y472317D01*
X468360Y472416D01*
X468343Y472474D01*
X468335Y472535D01*
X468299Y472627D01*
X468271Y472722D01*
X468241Y472774D01*
X468218Y472830D01*
X468160Y472910D01*
X468110Y472996D01*
X468044Y473071D01*
X468032Y473088D01*
X468022Y473095D01*
X468004Y473117D01*
X463973Y477148D01*
X463894Y477208D01*
X463822Y477276D01*
X463769Y477305D01*
X463721Y477342D01*
X463630Y477382D01*
X463544Y477430D01*
X463485Y477445D01*
X463429Y477469D01*
X463331Y477484D01*
X463236Y477509D01*
X463136Y477515D01*
X463115Y477519D01*
X463103Y477517D01*
X463075Y477519D01*
X450743Y477519D01*
X450645Y477507D01*
X450546Y477504D01*
X450488Y477487D01*
X450428Y477479D01*
X450336Y477443D01*
X450241Y477415D01*
X450188Y477385D01*
X450132Y477362D01*
X450052Y477304D01*
X449967Y477254D01*
X449891Y477188D01*
X449875Y477176D01*
X449867Y477166D01*
X449846Y477148D01*
X448694Y475995D01*
X445326Y475995D01*
X442945Y478376D01*
X442945Y481744D01*
X445326Y484125D01*
X448694Y484125D01*
X449846Y482972D01*
X449924Y482912D01*
X449996Y482844D01*
X450049Y482815D01*
X450097Y482778D01*
X450188Y482738D01*
X450275Y482690D01*
X450333Y482675D01*
X450389Y482651D01*
X450487Y482636D01*
X450583Y482611D01*
X450683Y482605D01*
X450703Y482601D01*
X450715Y482603D01*
X450743Y482601D01*
X465706Y482601D01*
X473473Y474833D01*
X473479Y474743D01*
X473492Y474705D01*
X473497Y474664D01*
X473540Y474554D01*
X473577Y474441D01*
X473599Y474406D01*
X473614Y474369D01*
X473683Y474273D01*
X473747Y474172D01*
X473777Y474144D01*
X473800Y474111D01*
X473892Y474035D01*
X473979Y473954D01*
X474014Y473934D01*
X474045Y473909D01*
X474153Y473858D01*
X474257Y473800D01*
X474297Y473790D01*
X474333Y473773D01*
X474450Y473751D01*
X474565Y473721D01*
X474625Y473717D01*
X474645Y473713D01*
X474666Y473715D01*
X474726Y473711D01*
X478154Y473711D01*
X480535Y471330D01*
X480535Y467962D01*
X478154Y465581D01*
X474726Y465581D01*
X474608Y465566D01*
X474489Y465559D01*
X474451Y465546D01*
X474410Y465541D01*
X474300Y465498D01*
X474187Y465461D01*
X474152Y465439D01*
X474115Y465424D01*
X474019Y465355D01*
X473918Y465291D01*
X473890Y465261D01*
X473857Y465238D01*
X473781Y465146D01*
X473700Y465059D01*
X473680Y465024D01*
X473655Y464993D01*
X473604Y464885D01*
X473546Y464781D01*
X473536Y464741D01*
X473519Y464705D01*
X473497Y464588D01*
X473467Y464473D01*
X473463Y464413D01*
X473459Y464393D01*
X473461Y464372D01*
X473457Y464312D01*
X473457Y184073D01*
X473469Y183975D01*
X473472Y183876D01*
X473489Y183818D01*
X473497Y183758D01*
X473533Y183666D01*
X473561Y183571D01*
X473591Y183518D01*
X473614Y183462D01*
X473672Y183382D01*
X473722Y183297D01*
X473788Y183221D01*
X473800Y183205D01*
X473810Y183197D01*
X473828Y183176D01*
X474981Y182024D01*
X474981Y178656D01*
X472600Y176275D01*
X469232Y176275D01*
G37*
%LPD*%
%LPC*%
G36*
X246220Y155447D02*
X246220Y155447D01*
X243839Y157828D01*
X243839Y161196D01*
X246220Y163577D01*
X249588Y163577D01*
X250740Y162424D01*
X250818Y162364D01*
X250890Y162296D01*
X250943Y162267D01*
X250991Y162230D01*
X251082Y162190D01*
X251169Y162142D01*
X251227Y162127D01*
X251283Y162103D01*
X251381Y162088D01*
X251477Y162063D01*
X251577Y162057D01*
X251597Y162053D01*
X251609Y162055D01*
X251637Y162053D01*
X269186Y162053D01*
X269284Y162065D01*
X269383Y162068D01*
X269441Y162085D01*
X269501Y162093D01*
X269593Y162129D01*
X269689Y162157D01*
X269741Y162187D01*
X269797Y162210D01*
X269877Y162268D01*
X269962Y162318D01*
X270038Y162384D01*
X270054Y162396D01*
X270062Y162406D01*
X270083Y162424D01*
X276488Y168829D01*
X276548Y168907D01*
X276616Y168979D01*
X276645Y169032D01*
X276682Y169080D01*
X276722Y169171D01*
X276770Y169258D01*
X276785Y169316D01*
X276809Y169372D01*
X276824Y169470D01*
X276849Y169565D01*
X276855Y169666D01*
X276859Y169686D01*
X276857Y169698D01*
X276859Y169726D01*
X276859Y246457D01*
X276847Y246555D01*
X276844Y246654D01*
X276827Y246712D01*
X276819Y246772D01*
X276783Y246864D01*
X276755Y246959D01*
X276725Y247012D01*
X276702Y247068D01*
X276644Y247148D01*
X276594Y247233D01*
X276528Y247309D01*
X276516Y247325D01*
X276506Y247333D01*
X276488Y247354D01*
X275335Y248506D01*
X275335Y251874D01*
X277716Y254255D01*
X281084Y254255D01*
X283465Y251874D01*
X283465Y248506D01*
X282312Y247354D01*
X282252Y247276D01*
X282184Y247204D01*
X282155Y247151D01*
X282118Y247103D01*
X282078Y247012D01*
X282030Y246925D01*
X282015Y246867D01*
X281991Y246811D01*
X281976Y246713D01*
X281951Y246617D01*
X281945Y246517D01*
X281941Y246497D01*
X281943Y246485D01*
X281941Y246457D01*
X281941Y167096D01*
X271816Y156971D01*
X251637Y156971D01*
X251539Y156959D01*
X251440Y156956D01*
X251382Y156939D01*
X251322Y156931D01*
X251230Y156895D01*
X251135Y156867D01*
X251082Y156837D01*
X251026Y156814D01*
X250946Y156756D01*
X250861Y156706D01*
X250785Y156640D01*
X250769Y156628D01*
X250761Y156618D01*
X250740Y156600D01*
X249588Y155447D01*
X246220Y155447D01*
G37*
%LPD*%
%LPC*%
G36*
X391000Y328035D02*
X391000Y328035D01*
X388619Y330416D01*
X388619Y333784D01*
X389772Y334936D01*
X389832Y335014D01*
X389900Y335086D01*
X389929Y335139D01*
X389966Y335187D01*
X390006Y335278D01*
X390054Y335365D01*
X390069Y335423D01*
X390093Y335479D01*
X390108Y335577D01*
X390133Y335673D01*
X390139Y335773D01*
X390143Y335793D01*
X390141Y335805D01*
X390143Y335833D01*
X390143Y392974D01*
X412206Y415037D01*
X423241Y415037D01*
X423339Y415049D01*
X423438Y415052D01*
X423496Y415069D01*
X423556Y415077D01*
X423648Y415113D01*
X423743Y415141D01*
X423795Y415171D01*
X423852Y415194D01*
X423932Y415252D01*
X424017Y415302D01*
X424093Y415368D01*
X424109Y415380D01*
X424117Y415390D01*
X424138Y415408D01*
X425290Y416561D01*
X428658Y416561D01*
X431039Y414180D01*
X431039Y410812D01*
X428658Y408431D01*
X425290Y408431D01*
X424138Y409584D01*
X424060Y409644D01*
X423988Y409712D01*
X423935Y409741D01*
X423887Y409778D01*
X423796Y409818D01*
X423709Y409866D01*
X423651Y409881D01*
X423595Y409905D01*
X423497Y409920D01*
X423401Y409945D01*
X423301Y409951D01*
X423281Y409955D01*
X423269Y409953D01*
X423241Y409955D01*
X414836Y409955D01*
X414738Y409943D01*
X414639Y409940D01*
X414581Y409923D01*
X414521Y409915D01*
X414429Y409879D01*
X414333Y409851D01*
X414281Y409821D01*
X414225Y409798D01*
X414145Y409740D01*
X414060Y409690D01*
X413984Y409624D01*
X413968Y409612D01*
X413960Y409602D01*
X413939Y409584D01*
X395596Y391241D01*
X395536Y391163D01*
X395468Y391091D01*
X395439Y391038D01*
X395402Y390990D01*
X395362Y390899D01*
X395314Y390812D01*
X395299Y390754D01*
X395275Y390698D01*
X395260Y390600D01*
X395235Y390505D01*
X395229Y390404D01*
X395225Y390384D01*
X395227Y390372D01*
X395225Y390344D01*
X395225Y335833D01*
X395237Y335735D01*
X395240Y335636D01*
X395257Y335578D01*
X395265Y335518D01*
X395301Y335426D01*
X395329Y335331D01*
X395359Y335279D01*
X395382Y335222D01*
X395440Y335142D01*
X395490Y335057D01*
X395556Y334981D01*
X395568Y334965D01*
X395578Y334957D01*
X395596Y334936D01*
X396749Y333784D01*
X396749Y330416D01*
X394368Y328035D01*
X391000Y328035D01*
G37*
%LPD*%
%LPC*%
G36*
X23631Y143509D02*
X23631Y143509D01*
X20364Y144863D01*
X17863Y147364D01*
X16509Y150631D01*
X16509Y154169D01*
X17863Y157436D01*
X20364Y159937D01*
X23631Y161291D01*
X27169Y161291D01*
X30436Y159937D01*
X32937Y157436D01*
X34291Y154169D01*
X34291Y150631D01*
X32937Y147364D01*
X30436Y144863D01*
X27169Y143509D01*
X23631Y143509D01*
G37*
%LPD*%
%LPC*%
G36*
X506231Y461009D02*
X506231Y461009D01*
X502964Y462363D01*
X500463Y464864D01*
X499109Y468131D01*
X499109Y471669D01*
X500463Y474936D01*
X502964Y477437D01*
X506231Y478791D01*
X509769Y478791D01*
X513036Y477437D01*
X515537Y474936D01*
X516891Y471669D01*
X516891Y468131D01*
X515537Y464864D01*
X513036Y462363D01*
X509769Y461009D01*
X506231Y461009D01*
G37*
%LPD*%
%LPC*%
G36*
X341131Y461009D02*
X341131Y461009D01*
X337864Y462363D01*
X335363Y464864D01*
X334009Y468131D01*
X334009Y471669D01*
X335363Y474936D01*
X337864Y477437D01*
X341131Y478791D01*
X344669Y478791D01*
X347936Y477437D01*
X350437Y474936D01*
X351791Y471669D01*
X351791Y468131D01*
X350437Y464864D01*
X347936Y462363D01*
X344669Y461009D01*
X341131Y461009D01*
G37*
%LPD*%
%LPC*%
G36*
X214131Y461009D02*
X214131Y461009D01*
X210864Y462363D01*
X208363Y464864D01*
X207009Y468131D01*
X207009Y471669D01*
X208363Y474936D01*
X210864Y477437D01*
X214131Y478791D01*
X217669Y478791D01*
X220936Y477437D01*
X223437Y474936D01*
X224791Y471669D01*
X224791Y468131D01*
X223437Y464864D01*
X220936Y462363D01*
X217669Y461009D01*
X214131Y461009D01*
G37*
%LPD*%
%LPC*%
G36*
X23631Y461009D02*
X23631Y461009D01*
X20364Y462363D01*
X17863Y464864D01*
X16509Y468131D01*
X16509Y471669D01*
X17863Y474936D01*
X20364Y477437D01*
X23631Y478791D01*
X27169Y478791D01*
X30436Y477437D01*
X32937Y474936D01*
X34291Y471669D01*
X34291Y468131D01*
X32937Y464864D01*
X30436Y462363D01*
X27169Y461009D01*
X23631Y461009D01*
G37*
%LPD*%
%LPC*%
G36*
X506231Y283209D02*
X506231Y283209D01*
X502964Y284563D01*
X500463Y287064D01*
X499109Y290331D01*
X499109Y293869D01*
X500463Y297136D01*
X502964Y299637D01*
X506231Y300991D01*
X509769Y300991D01*
X513036Y299637D01*
X515537Y297136D01*
X516891Y293869D01*
X516891Y290331D01*
X515537Y287064D01*
X513036Y284563D01*
X509769Y283209D01*
X506231Y283209D01*
G37*
%LPD*%
%LPC*%
G36*
X23631Y118109D02*
X23631Y118109D01*
X20364Y119463D01*
X17863Y121964D01*
X16509Y125231D01*
X16509Y128769D01*
X17863Y132036D01*
X20364Y134537D01*
X23631Y135891D01*
X27169Y135891D01*
X30436Y134537D01*
X32937Y132036D01*
X34291Y128769D01*
X34291Y125231D01*
X32937Y121964D01*
X30436Y119463D01*
X27169Y118109D01*
X23631Y118109D01*
G37*
%LPD*%
%LPC*%
G36*
X23631Y92709D02*
X23631Y92709D01*
X20364Y94063D01*
X17863Y96564D01*
X16509Y99831D01*
X16509Y103369D01*
X17863Y106636D01*
X20364Y109137D01*
X23631Y110491D01*
X27169Y110491D01*
X30436Y109137D01*
X32937Y106636D01*
X34291Y103369D01*
X34291Y99831D01*
X32937Y96564D01*
X30436Y94063D01*
X27169Y92709D01*
X23631Y92709D01*
G37*
%LPD*%
%LPC*%
G36*
X506231Y207009D02*
X506231Y207009D01*
X502964Y208363D01*
X500463Y210864D01*
X499109Y214131D01*
X499109Y217669D01*
X500463Y220936D01*
X502964Y223437D01*
X506231Y224791D01*
X509769Y224791D01*
X513036Y223437D01*
X515537Y220936D01*
X516891Y217669D01*
X516891Y214131D01*
X515537Y210864D01*
X513036Y208363D01*
X509769Y207009D01*
X506231Y207009D01*
G37*
%LPD*%
%LPC*%
G36*
X506231Y435609D02*
X506231Y435609D01*
X502964Y436963D01*
X500463Y439464D01*
X499109Y442731D01*
X499109Y446269D01*
X500463Y449536D01*
X502964Y452037D01*
X506231Y453391D01*
X509769Y453391D01*
X513036Y452037D01*
X515537Y449536D01*
X516891Y446269D01*
X516891Y442731D01*
X515537Y439464D01*
X513036Y436963D01*
X509769Y435609D01*
X506231Y435609D01*
G37*
%LPD*%
%LPC*%
G36*
X214131Y435609D02*
X214131Y435609D01*
X210864Y436963D01*
X208363Y439464D01*
X207009Y442731D01*
X207009Y446269D01*
X208363Y449536D01*
X210864Y452037D01*
X214131Y453391D01*
X217669Y453391D01*
X220936Y452037D01*
X223437Y449536D01*
X224791Y446269D01*
X224791Y442731D01*
X223437Y439464D01*
X220936Y436963D01*
X217669Y435609D01*
X214131Y435609D01*
G37*
%LPD*%
%LPC*%
G36*
X23631Y435609D02*
X23631Y435609D01*
X20364Y436963D01*
X17863Y439464D01*
X16509Y442731D01*
X16509Y446269D01*
X17863Y449536D01*
X20364Y452037D01*
X23631Y453391D01*
X27169Y453391D01*
X30436Y452037D01*
X32937Y449536D01*
X34291Y446269D01*
X34291Y442731D01*
X32937Y439464D01*
X30436Y436963D01*
X27169Y435609D01*
X23631Y435609D01*
G37*
%LPD*%
%LPC*%
G36*
X341131Y435609D02*
X341131Y435609D01*
X337864Y436963D01*
X335363Y439464D01*
X334009Y442731D01*
X334009Y446269D01*
X335363Y449536D01*
X337864Y452037D01*
X341131Y453391D01*
X344669Y453391D01*
X347936Y452037D01*
X350437Y449536D01*
X351791Y446269D01*
X351791Y442731D01*
X350437Y439464D01*
X347936Y436963D01*
X344669Y435609D01*
X341131Y435609D01*
G37*
%LPD*%
%LPC*%
G36*
X23631Y384809D02*
X23631Y384809D01*
X20364Y386163D01*
X17863Y388664D01*
X16509Y391931D01*
X16509Y395469D01*
X17863Y398736D01*
X20364Y401237D01*
X23631Y402591D01*
X27169Y402591D01*
X30436Y401237D01*
X32937Y398736D01*
X34291Y395469D01*
X34291Y391931D01*
X32937Y388664D01*
X30436Y386163D01*
X27169Y384809D01*
X23631Y384809D01*
G37*
%LPD*%
%LPC*%
G36*
X23631Y219709D02*
X23631Y219709D01*
X20364Y221063D01*
X17863Y223564D01*
X16509Y226831D01*
X16509Y230369D01*
X17863Y233636D01*
X20364Y236137D01*
X23631Y237491D01*
X27169Y237491D01*
X30436Y236137D01*
X32937Y233636D01*
X34291Y230369D01*
X34291Y226831D01*
X32937Y223564D01*
X30436Y221063D01*
X27169Y219709D01*
X23631Y219709D01*
G37*
%LPD*%
%LPC*%
G36*
X506231Y232409D02*
X506231Y232409D01*
X502964Y233763D01*
X500463Y236264D01*
X499109Y239531D01*
X499109Y243069D01*
X500463Y246336D01*
X502964Y248837D01*
X506231Y250191D01*
X509769Y250191D01*
X513036Y248837D01*
X515537Y246336D01*
X516891Y243069D01*
X516891Y239531D01*
X515537Y236264D01*
X513036Y233763D01*
X509769Y232409D01*
X506231Y232409D01*
G37*
%LPD*%
%LPC*%
G36*
X341131Y410209D02*
X341131Y410209D01*
X337864Y411563D01*
X335363Y414064D01*
X334009Y417331D01*
X334009Y420869D01*
X335363Y424136D01*
X337864Y426637D01*
X341131Y427991D01*
X344669Y427991D01*
X347936Y426637D01*
X350437Y424136D01*
X351791Y420869D01*
X351791Y417331D01*
X350437Y414064D01*
X347936Y411563D01*
X344669Y410209D01*
X341131Y410209D01*
G37*
%LPD*%
%LPC*%
G36*
X23631Y410209D02*
X23631Y410209D01*
X20364Y411563D01*
X17863Y414064D01*
X16509Y417331D01*
X16509Y420869D01*
X17863Y424136D01*
X20364Y426637D01*
X23631Y427991D01*
X27169Y427991D01*
X30436Y426637D01*
X32937Y424136D01*
X34291Y420869D01*
X34291Y417331D01*
X32937Y414064D01*
X30436Y411563D01*
X27169Y410209D01*
X23631Y410209D01*
G37*
%LPD*%
%LPC*%
G36*
X214131Y410209D02*
X214131Y410209D01*
X210864Y411563D01*
X208363Y414064D01*
X207009Y417331D01*
X207009Y420869D01*
X208363Y424136D01*
X210864Y426637D01*
X214131Y427991D01*
X217669Y427991D01*
X220936Y426637D01*
X223437Y424136D01*
X224791Y420869D01*
X224791Y417331D01*
X223437Y414064D01*
X220936Y411563D01*
X217669Y410209D01*
X214131Y410209D01*
G37*
%LPD*%
%LPC*%
G36*
X506231Y410209D02*
X506231Y410209D01*
X502964Y411563D01*
X500463Y414064D01*
X499109Y417331D01*
X499109Y420869D01*
X500463Y424136D01*
X502964Y426637D01*
X506231Y427991D01*
X509769Y427991D01*
X513036Y426637D01*
X515537Y424136D01*
X516891Y420869D01*
X516891Y417331D01*
X515537Y414064D01*
X513036Y411563D01*
X509769Y410209D01*
X506231Y410209D01*
G37*
%LPD*%
%LPC*%
G36*
X23631Y321309D02*
X23631Y321309D01*
X20364Y322663D01*
X17863Y325164D01*
X16509Y328431D01*
X16509Y331969D01*
X17863Y335236D01*
X20364Y337737D01*
X23631Y339091D01*
X27169Y339091D01*
X30436Y337737D01*
X32937Y335236D01*
X34291Y331969D01*
X34291Y328431D01*
X32937Y325164D01*
X30436Y322663D01*
X27169Y321309D01*
X23631Y321309D01*
G37*
%LPD*%
%LPC*%
G36*
X23631Y295909D02*
X23631Y295909D01*
X20364Y297263D01*
X17863Y299764D01*
X16509Y303031D01*
X16509Y306569D01*
X17863Y309836D01*
X20364Y312337D01*
X23631Y313691D01*
X27169Y313691D01*
X30436Y312337D01*
X32937Y309836D01*
X34291Y306569D01*
X34291Y303031D01*
X32937Y299764D01*
X30436Y297263D01*
X27169Y295909D01*
X23631Y295909D01*
G37*
%LPD*%
%LPC*%
G36*
X23631Y245109D02*
X23631Y245109D01*
X20364Y246463D01*
X17863Y248964D01*
X16509Y252231D01*
X16509Y255769D01*
X17863Y259036D01*
X20364Y261537D01*
X23631Y262891D01*
X27169Y262891D01*
X30436Y261537D01*
X32937Y259036D01*
X34291Y255769D01*
X34291Y252231D01*
X32937Y248964D01*
X30436Y246463D01*
X27169Y245109D01*
X23631Y245109D01*
G37*
%LPD*%
%LPC*%
G36*
X214131Y384809D02*
X214131Y384809D01*
X210864Y386163D01*
X208363Y388664D01*
X207009Y391931D01*
X207009Y395469D01*
X208363Y398736D01*
X210864Y401237D01*
X214131Y402591D01*
X217669Y402591D01*
X220936Y401237D01*
X223437Y398736D01*
X224791Y395469D01*
X224791Y391931D01*
X223437Y388664D01*
X220936Y386163D01*
X217669Y384809D01*
X214131Y384809D01*
G37*
%LPD*%
%LPC*%
G36*
X341131Y384809D02*
X341131Y384809D01*
X337864Y386163D01*
X335363Y388664D01*
X334009Y391931D01*
X334009Y395469D01*
X335363Y398736D01*
X337864Y401237D01*
X341131Y402591D01*
X344669Y402591D01*
X347936Y401237D01*
X350437Y398736D01*
X351791Y395469D01*
X351791Y391931D01*
X350437Y388664D01*
X347936Y386163D01*
X344669Y384809D01*
X341131Y384809D01*
G37*
%LPD*%
%LPC*%
G36*
X214131Y308609D02*
X214131Y308609D01*
X210864Y309963D01*
X208363Y312464D01*
X207009Y315731D01*
X207009Y319269D01*
X208363Y322536D01*
X210864Y325037D01*
X214131Y326391D01*
X217669Y326391D01*
X220936Y325037D01*
X223437Y322536D01*
X224791Y319269D01*
X224791Y315731D01*
X223437Y312464D01*
X220936Y309963D01*
X217669Y308609D01*
X214131Y308609D01*
G37*
%LPD*%
%LPC*%
G36*
X341131Y308609D02*
X341131Y308609D01*
X337864Y309963D01*
X335363Y312464D01*
X334009Y315731D01*
X334009Y319269D01*
X335363Y322536D01*
X337864Y325037D01*
X341131Y326391D01*
X344669Y326391D01*
X347936Y325037D01*
X350437Y322536D01*
X351791Y319269D01*
X351791Y315731D01*
X350437Y312464D01*
X347936Y309963D01*
X344669Y308609D01*
X341131Y308609D01*
G37*
%LPD*%
%LPC*%
G36*
X506231Y359409D02*
X506231Y359409D01*
X502964Y360763D01*
X500463Y363264D01*
X499109Y366531D01*
X499109Y370069D01*
X500463Y373336D01*
X502964Y375837D01*
X506231Y377191D01*
X509769Y377191D01*
X513036Y375837D01*
X515537Y373336D01*
X516891Y370069D01*
X516891Y366531D01*
X515537Y363264D01*
X513036Y360763D01*
X509769Y359409D01*
X506231Y359409D01*
G37*
%LPD*%
%LPC*%
G36*
X23631Y359409D02*
X23631Y359409D01*
X20364Y360763D01*
X17863Y363264D01*
X16509Y366531D01*
X16509Y370069D01*
X17863Y373336D01*
X20364Y375837D01*
X23631Y377191D01*
X27169Y377191D01*
X30436Y375837D01*
X32937Y373336D01*
X34291Y370069D01*
X34291Y366531D01*
X32937Y363264D01*
X30436Y360763D01*
X27169Y359409D01*
X23631Y359409D01*
G37*
%LPD*%
%LPC*%
G36*
X214131Y359409D02*
X214131Y359409D01*
X210864Y360763D01*
X208363Y363264D01*
X207009Y366531D01*
X207009Y370069D01*
X208363Y373336D01*
X210864Y375837D01*
X214131Y377191D01*
X217669Y377191D01*
X220936Y375837D01*
X223437Y373336D01*
X224791Y370069D01*
X224791Y366531D01*
X223437Y363264D01*
X220936Y360763D01*
X217669Y359409D01*
X214131Y359409D01*
G37*
%LPD*%
%LPC*%
G36*
X214131Y283209D02*
X214131Y283209D01*
X210864Y284563D01*
X208363Y287064D01*
X207009Y290331D01*
X207009Y293869D01*
X208363Y297136D01*
X210864Y299637D01*
X214131Y300991D01*
X217669Y300991D01*
X220936Y299637D01*
X223437Y297136D01*
X224791Y293869D01*
X224791Y290331D01*
X223437Y287064D01*
X220936Y284563D01*
X217669Y283209D01*
X214131Y283209D01*
G37*
%LPD*%
%LPC*%
G36*
X341131Y257809D02*
X341131Y257809D01*
X337864Y259163D01*
X335363Y261664D01*
X334009Y264931D01*
X334009Y268469D01*
X335363Y271736D01*
X337864Y274237D01*
X341131Y275591D01*
X344669Y275591D01*
X347936Y274237D01*
X350437Y271736D01*
X351791Y268469D01*
X351791Y264931D01*
X350437Y261664D01*
X347936Y259163D01*
X344669Y257809D01*
X341131Y257809D01*
G37*
%LPD*%
%LPC*%
G36*
X506231Y257809D02*
X506231Y257809D01*
X502964Y259163D01*
X500463Y261664D01*
X499109Y264931D01*
X499109Y268469D01*
X500463Y271736D01*
X502964Y274237D01*
X506231Y275591D01*
X509769Y275591D01*
X513036Y274237D01*
X515537Y271736D01*
X516891Y268469D01*
X516891Y264931D01*
X515537Y261664D01*
X513036Y259163D01*
X509769Y257809D01*
X506231Y257809D01*
G37*
%LPD*%
%LPC*%
G36*
X23631Y270509D02*
X23631Y270509D01*
X20364Y271863D01*
X17863Y274364D01*
X16509Y277631D01*
X16509Y281169D01*
X17863Y284436D01*
X20364Y286937D01*
X23631Y288291D01*
X27169Y288291D01*
X30436Y286937D01*
X32937Y284436D01*
X34291Y281169D01*
X34291Y277631D01*
X32937Y274364D01*
X30436Y271863D01*
X27169Y270509D01*
X23631Y270509D01*
G37*
%LPD*%
%LPC*%
G36*
X23631Y194309D02*
X23631Y194309D01*
X20364Y195663D01*
X17863Y198164D01*
X16509Y201431D01*
X16509Y204969D01*
X17863Y208236D01*
X20364Y210737D01*
X23631Y212091D01*
X27169Y212091D01*
X30436Y210737D01*
X32937Y208236D01*
X34291Y204969D01*
X34291Y201431D01*
X32937Y198164D01*
X30436Y195663D01*
X27169Y194309D01*
X23631Y194309D01*
G37*
%LPD*%
%LPC*%
G36*
X214131Y334009D02*
X214131Y334009D01*
X210864Y335363D01*
X208363Y337864D01*
X207009Y341131D01*
X207009Y344669D01*
X208363Y347936D01*
X210864Y350437D01*
X214131Y351791D01*
X217669Y351791D01*
X220936Y350437D01*
X223437Y347936D01*
X224791Y344669D01*
X224791Y341131D01*
X223437Y337864D01*
X220936Y335363D01*
X217669Y334009D01*
X214131Y334009D01*
G37*
%LPD*%
%LPC*%
G36*
X341131Y334009D02*
X341131Y334009D01*
X337864Y335363D01*
X335363Y337864D01*
X334009Y341131D01*
X334009Y344669D01*
X335363Y347936D01*
X337864Y350437D01*
X341131Y351791D01*
X344669Y351791D01*
X347936Y350437D01*
X350437Y347936D01*
X351791Y344669D01*
X351791Y341131D01*
X350437Y337864D01*
X347936Y335363D01*
X344669Y334009D01*
X341131Y334009D01*
G37*
%LPD*%
%LPC*%
G36*
X506231Y181609D02*
X506231Y181609D01*
X502964Y182963D01*
X500463Y185464D01*
X499109Y188731D01*
X499109Y192269D01*
X500463Y195536D01*
X502964Y198037D01*
X506231Y199391D01*
X509769Y199391D01*
X513036Y198037D01*
X515537Y195536D01*
X516891Y192269D01*
X516891Y188731D01*
X515537Y185464D01*
X513036Y182963D01*
X509769Y181609D01*
X506231Y181609D01*
G37*
%LPD*%
%LPC*%
G36*
X372966Y416559D02*
X372966Y416559D01*
X370585Y418940D01*
X370585Y422308D01*
X371738Y423460D01*
X371798Y423538D01*
X371866Y423610D01*
X371895Y423663D01*
X371932Y423711D01*
X371972Y423802D01*
X372020Y423889D01*
X372035Y423947D01*
X372059Y424003D01*
X372074Y424101D01*
X372099Y424197D01*
X372105Y424297D01*
X372109Y424317D01*
X372107Y424329D01*
X372109Y424357D01*
X372109Y439202D01*
X382914Y450007D01*
X382974Y450085D01*
X383042Y450157D01*
X383071Y450210D01*
X383108Y450258D01*
X383148Y450349D01*
X383196Y450436D01*
X383211Y450494D01*
X383235Y450550D01*
X383250Y450648D01*
X383275Y450743D01*
X383281Y450844D01*
X383285Y450864D01*
X383283Y450876D01*
X383285Y450904D01*
X383285Y452534D01*
X385666Y454915D01*
X389034Y454915D01*
X391415Y452534D01*
X391415Y449166D01*
X389034Y446785D01*
X387404Y446785D01*
X387306Y446773D01*
X387207Y446770D01*
X387149Y446753D01*
X387089Y446745D01*
X386997Y446709D01*
X386901Y446681D01*
X386849Y446651D01*
X386793Y446628D01*
X386713Y446570D01*
X386628Y446520D01*
X386552Y446454D01*
X386536Y446442D01*
X386528Y446432D01*
X386507Y446414D01*
X377562Y437469D01*
X377502Y437391D01*
X377434Y437319D01*
X377405Y437266D01*
X377368Y437218D01*
X377328Y437127D01*
X377280Y437040D01*
X377265Y436982D01*
X377241Y436926D01*
X377226Y436828D01*
X377201Y436733D01*
X377195Y436632D01*
X377191Y436612D01*
X377193Y436600D01*
X377191Y436572D01*
X377191Y424357D01*
X377203Y424259D01*
X377206Y424160D01*
X377223Y424102D01*
X377231Y424042D01*
X377267Y423950D01*
X377295Y423855D01*
X377325Y423803D01*
X377348Y423746D01*
X377406Y423666D01*
X377456Y423581D01*
X377522Y423505D01*
X377534Y423489D01*
X377544Y423481D01*
X377562Y423460D01*
X378715Y422308D01*
X378715Y418940D01*
X376334Y416559D01*
X372966Y416559D01*
G37*
%LPD*%
%LPC*%
G36*
X380847Y43372D02*
X380847Y43372D01*
X380772Y43447D01*
X380772Y64553D01*
X380847Y64628D01*
X390953Y64628D01*
X391028Y64553D01*
X391028Y43447D01*
X390953Y43372D01*
X380847Y43372D01*
G37*
%LPD*%
%LPC*%
G36*
X294847Y43372D02*
X294847Y43372D01*
X294772Y43447D01*
X294772Y64553D01*
X294847Y64628D01*
X304953Y64628D01*
X305028Y64553D01*
X305028Y43447D01*
X304953Y43372D01*
X294847Y43372D01*
G37*
%LPD*%
%LPC*%
G36*
X253847Y43372D02*
X253847Y43372D01*
X253772Y43447D01*
X253772Y64553D01*
X253847Y64628D01*
X263953Y64628D01*
X264028Y64553D01*
X264028Y43447D01*
X263953Y43372D01*
X253847Y43372D01*
G37*
%LPD*%
%LPC*%
G36*
X167847Y43372D02*
X167847Y43372D01*
X167772Y43447D01*
X167772Y64553D01*
X167847Y64628D01*
X177953Y64628D01*
X178028Y64553D01*
X178028Y43447D01*
X177953Y43372D01*
X167847Y43372D01*
G37*
%LPD*%
%LPC*%
G36*
X60839Y394362D02*
X60839Y394362D01*
X60093Y395108D01*
X60076Y395121D01*
X60018Y395178D01*
X59223Y395853D01*
X59199Y395893D01*
X59199Y396948D01*
X59197Y396969D01*
X59195Y397050D01*
X59111Y398090D01*
X59122Y398135D01*
X59868Y398881D01*
X59881Y398898D01*
X59938Y398956D01*
X64571Y404407D01*
X64608Y404465D01*
X64654Y404516D01*
X64695Y404597D01*
X64745Y404673D01*
X64767Y404738D01*
X64798Y404800D01*
X64818Y404888D01*
X64847Y404974D01*
X64852Y405043D01*
X64867Y405110D01*
X64864Y405201D01*
X64871Y405291D01*
X64859Y405359D01*
X64857Y405428D01*
X64832Y405515D01*
X64816Y405605D01*
X64788Y405667D01*
X64768Y405733D01*
X64722Y405812D01*
X64685Y405894D01*
X64642Y405948D01*
X64606Y406007D01*
X64542Y406071D01*
X64485Y406142D01*
X64430Y406183D01*
X64381Y406232D01*
X64303Y406278D01*
X64231Y406333D01*
X64167Y406359D01*
X64108Y406394D01*
X64021Y406419D01*
X63937Y406454D01*
X63868Y406463D01*
X63802Y406483D01*
X63712Y406485D01*
X63622Y406498D01*
X63553Y406490D01*
X63484Y406493D01*
X63396Y406473D01*
X63306Y406463D01*
X63241Y406438D01*
X63174Y406423D01*
X63026Y406359D01*
X62096Y405884D01*
X59994Y406565D01*
X58989Y408533D01*
X59329Y409585D01*
X59819Y411099D01*
X61947Y413465D01*
X64855Y414761D01*
X68165Y414761D01*
X71142Y413042D01*
X72860Y410065D01*
X72860Y406973D01*
X71778Y404448D01*
X70934Y403644D01*
X70923Y403630D01*
X70842Y403547D01*
X69413Y401866D01*
X69365Y401792D01*
X69309Y401725D01*
X69279Y401660D01*
X69239Y401600D01*
X69211Y401516D01*
X69174Y401437D01*
X69160Y401367D01*
X69137Y401299D01*
X69130Y401211D01*
X69114Y401124D01*
X69118Y401053D01*
X69113Y400982D01*
X69128Y400895D01*
X69134Y400807D01*
X69156Y400739D01*
X69168Y400668D01*
X69204Y400588D01*
X69232Y400505D01*
X69270Y400444D01*
X69299Y400379D01*
X69355Y400310D01*
X69402Y400236D01*
X69454Y400187D01*
X69499Y400131D01*
X69569Y400078D01*
X69633Y400018D01*
X69696Y399983D01*
X69753Y399940D01*
X69835Y399907D01*
X69912Y399864D01*
X69981Y399847D01*
X70047Y399819D01*
X70135Y399807D01*
X70220Y399785D01*
X70349Y399777D01*
X70362Y399775D01*
X70368Y399776D01*
X70380Y399775D01*
X71298Y399775D01*
X72860Y398212D01*
X72860Y396002D01*
X71298Y394439D01*
X62026Y394439D01*
X62005Y394437D01*
X61924Y394435D01*
X60884Y394351D01*
X60839Y394362D01*
G37*
%LPD*%
%LPC*%
G36*
X295496Y290575D02*
X295496Y290575D01*
X293115Y292956D01*
X293115Y296324D01*
X294344Y297552D01*
X294417Y297647D01*
X294496Y297736D01*
X294514Y297772D01*
X294539Y297804D01*
X294586Y297913D01*
X294640Y298019D01*
X294649Y298058D01*
X294665Y298096D01*
X294684Y298213D01*
X294710Y298329D01*
X294709Y298370D01*
X294715Y298410D01*
X294704Y298528D01*
X294700Y298647D01*
X294689Y298686D01*
X294685Y298726D01*
X294645Y298839D01*
X294612Y298953D01*
X294592Y298987D01*
X294578Y299026D01*
X294511Y299124D01*
X294451Y299227D01*
X294411Y299272D01*
X294399Y299289D01*
X294384Y299302D01*
X294344Y299347D01*
X293115Y300576D01*
X293115Y303944D01*
X294344Y305172D01*
X294417Y305267D01*
X294496Y305356D01*
X294514Y305392D01*
X294539Y305424D01*
X294586Y305533D01*
X294640Y305639D01*
X294649Y305678D01*
X294665Y305716D01*
X294684Y305833D01*
X294710Y305949D01*
X294709Y305990D01*
X294715Y306030D01*
X294704Y306148D01*
X294700Y306267D01*
X294689Y306306D01*
X294685Y306346D01*
X294645Y306459D01*
X294612Y306573D01*
X294592Y306607D01*
X294578Y306646D01*
X294511Y306744D01*
X294451Y306847D01*
X294411Y306892D01*
X294399Y306909D01*
X294384Y306922D01*
X294344Y306967D01*
X293115Y308196D01*
X293115Y311564D01*
X295496Y313945D01*
X298864Y313945D01*
X301245Y311564D01*
X301245Y308196D01*
X300016Y306967D01*
X299943Y306873D01*
X299864Y306784D01*
X299846Y306748D01*
X299821Y306716D01*
X299774Y306607D01*
X299720Y306501D01*
X299711Y306462D01*
X299695Y306424D01*
X299676Y306307D01*
X299650Y306191D01*
X299651Y306150D01*
X299645Y306110D01*
X299656Y305992D01*
X299660Y305873D01*
X299671Y305834D01*
X299675Y305794D01*
X299715Y305681D01*
X299748Y305567D01*
X299768Y305532D01*
X299782Y305494D01*
X299849Y305396D01*
X299910Y305293D01*
X299949Y305248D01*
X299961Y305231D01*
X299976Y305218D01*
X300016Y305172D01*
X301245Y303944D01*
X301245Y300576D01*
X300016Y299347D01*
X299943Y299253D01*
X299864Y299164D01*
X299846Y299128D01*
X299821Y299096D01*
X299774Y298987D01*
X299720Y298881D01*
X299711Y298842D01*
X299695Y298804D01*
X299676Y298687D01*
X299650Y298571D01*
X299651Y298530D01*
X299645Y298490D01*
X299656Y298372D01*
X299660Y298253D01*
X299671Y298214D01*
X299675Y298174D01*
X299715Y298062D01*
X299748Y297947D01*
X299768Y297912D01*
X299782Y297874D01*
X299849Y297776D01*
X299910Y297673D01*
X299949Y297628D01*
X299961Y297611D01*
X299976Y297598D01*
X300016Y297552D01*
X301245Y296324D01*
X301245Y292956D01*
X298864Y290575D01*
X295496Y290575D01*
G37*
%LPD*%
%LPC*%
G36*
X100401Y199471D02*
X100401Y199471D01*
X98185Y200389D01*
X96489Y202085D01*
X95571Y204301D01*
X95571Y206699D01*
X96489Y208915D01*
X98185Y210611D01*
X100401Y211529D01*
X102799Y211529D01*
X105015Y210611D01*
X106711Y208915D01*
X107629Y206699D01*
X107629Y204301D01*
X106711Y202085D01*
X105015Y200389D01*
X102799Y199471D01*
X100401Y199471D01*
G37*
%LPD*%
%LPC*%
G36*
X100401Y169471D02*
X100401Y169471D01*
X98185Y170389D01*
X96489Y172085D01*
X95571Y174301D01*
X95571Y176699D01*
X96489Y178915D01*
X98185Y180611D01*
X100401Y181529D01*
X102799Y181529D01*
X105015Y180611D01*
X106711Y178915D01*
X107629Y176699D01*
X107629Y174301D01*
X106711Y172085D01*
X105015Y170389D01*
X102799Y169471D01*
X100401Y169471D01*
G37*
%LPD*%
%LPC*%
G36*
X284066Y131825D02*
X284066Y131825D01*
X281685Y134206D01*
X281685Y137574D01*
X284066Y139955D01*
X284734Y139955D01*
X284852Y139970D01*
X284971Y139977D01*
X285009Y139990D01*
X285050Y139995D01*
X285160Y140038D01*
X285273Y140075D01*
X285308Y140097D01*
X285345Y140112D01*
X285441Y140181D01*
X285542Y140245D01*
X285570Y140275D01*
X285603Y140298D01*
X285679Y140390D01*
X285760Y140477D01*
X285780Y140512D01*
X285805Y140543D01*
X285856Y140651D01*
X285914Y140755D01*
X285924Y140795D01*
X285941Y140831D01*
X285963Y140948D01*
X285993Y141063D01*
X285997Y141123D01*
X286001Y141143D01*
X285999Y141164D01*
X286003Y141224D01*
X286003Y144178D01*
X288384Y146559D01*
X291752Y146559D01*
X294133Y144178D01*
X294133Y140810D01*
X291752Y138429D01*
X291084Y138429D01*
X290966Y138414D01*
X290847Y138407D01*
X290809Y138394D01*
X290768Y138389D01*
X290658Y138346D01*
X290545Y138309D01*
X290510Y138287D01*
X290473Y138272D01*
X290377Y138203D01*
X290276Y138139D01*
X290248Y138109D01*
X290215Y138086D01*
X290139Y137994D01*
X290058Y137907D01*
X290038Y137872D01*
X290013Y137841D01*
X289962Y137733D01*
X289904Y137629D01*
X289894Y137589D01*
X289877Y137553D01*
X289855Y137436D01*
X289825Y137321D01*
X289821Y137261D01*
X289817Y137241D01*
X289819Y137220D01*
X289815Y137160D01*
X289815Y134206D01*
X287434Y131825D01*
X284066Y131825D01*
G37*
%LPD*%
%LPC*%
G36*
X58006Y483615D02*
X58006Y483615D01*
X55625Y485996D01*
X55625Y489364D01*
X56600Y490339D01*
X56673Y490433D01*
X56752Y490522D01*
X56770Y490558D01*
X56795Y490590D01*
X56842Y490699D01*
X56896Y490805D01*
X56905Y490844D01*
X56921Y490882D01*
X56940Y490999D01*
X56966Y491115D01*
X56965Y491156D01*
X56971Y491196D01*
X56960Y491314D01*
X56956Y491433D01*
X56945Y491472D01*
X56941Y491512D01*
X56901Y491624D01*
X56868Y491739D01*
X56848Y491774D01*
X56834Y491812D01*
X56767Y491910D01*
X56706Y492013D01*
X56667Y492058D01*
X56655Y492075D01*
X56640Y492088D01*
X56600Y492134D01*
X55625Y493108D01*
X55625Y496476D01*
X58006Y498857D01*
X61374Y498857D01*
X63755Y496476D01*
X63755Y493108D01*
X62780Y492134D01*
X62707Y492039D01*
X62628Y491950D01*
X62610Y491914D01*
X62585Y491882D01*
X62538Y491773D01*
X62484Y491667D01*
X62475Y491628D01*
X62459Y491590D01*
X62440Y491473D01*
X62414Y491357D01*
X62415Y491316D01*
X62409Y491276D01*
X62420Y491158D01*
X62424Y491039D01*
X62435Y491000D01*
X62439Y490960D01*
X62479Y490847D01*
X62512Y490733D01*
X62532Y490699D01*
X62546Y490660D01*
X62613Y490562D01*
X62673Y490459D01*
X62713Y490414D01*
X62725Y490397D01*
X62740Y490384D01*
X62780Y490339D01*
X63755Y489364D01*
X63755Y485996D01*
X61374Y483615D01*
X58006Y483615D01*
G37*
%LPD*%
%LPC*%
G36*
X370800Y44021D02*
X370800Y44021D01*
X368951Y44787D01*
X367537Y46201D01*
X366771Y48050D01*
X366771Y50050D01*
X367537Y51899D01*
X368951Y53313D01*
X370800Y54079D01*
X372800Y54079D01*
X374649Y53313D01*
X376063Y51899D01*
X376829Y50050D01*
X376829Y48050D01*
X376063Y46201D01*
X374649Y44787D01*
X372800Y44021D01*
X370800Y44021D01*
G37*
%LPD*%
%LPC*%
G36*
X313000Y44021D02*
X313000Y44021D01*
X311151Y44787D01*
X309737Y46201D01*
X308971Y48050D01*
X308971Y50050D01*
X309737Y51899D01*
X311151Y53313D01*
X313000Y54079D01*
X315000Y54079D01*
X316849Y53313D01*
X318263Y51899D01*
X319029Y50050D01*
X319029Y48050D01*
X318263Y46201D01*
X316849Y44787D01*
X315000Y44021D01*
X313000Y44021D01*
G37*
%LPD*%
%LPC*%
G36*
X243800Y44021D02*
X243800Y44021D01*
X241951Y44787D01*
X240537Y46201D01*
X239771Y48050D01*
X239771Y50050D01*
X240537Y51899D01*
X241951Y53313D01*
X243800Y54079D01*
X245800Y54079D01*
X247649Y53313D01*
X249063Y51899D01*
X249829Y50050D01*
X249829Y48050D01*
X249063Y46201D01*
X247649Y44787D01*
X245800Y44021D01*
X243800Y44021D01*
G37*
%LPD*%
%LPC*%
G36*
X186000Y44021D02*
X186000Y44021D01*
X184151Y44787D01*
X182737Y46201D01*
X181971Y48050D01*
X181971Y50050D01*
X182737Y51899D01*
X184151Y53313D01*
X186000Y54079D01*
X188000Y54079D01*
X189849Y53313D01*
X191263Y51899D01*
X192029Y50050D01*
X192029Y48050D01*
X191263Y46201D01*
X189849Y44787D01*
X188000Y44021D01*
X186000Y44021D01*
G37*
%LPD*%
%LPC*%
G36*
X478376Y345185D02*
X478376Y345185D01*
X475995Y347566D01*
X475995Y350934D01*
X478376Y353315D01*
X481744Y353315D01*
X484125Y350934D01*
X484125Y347566D01*
X481744Y345185D01*
X478376Y345185D01*
G37*
%LPD*%
%LPC*%
G36*
X185006Y338835D02*
X185006Y338835D01*
X182625Y341216D01*
X182625Y344584D01*
X185006Y346965D01*
X188374Y346965D01*
X190755Y344584D01*
X190755Y341216D01*
X188374Y338835D01*
X185006Y338835D01*
G37*
%LPD*%
%LPC*%
G36*
X118966Y336255D02*
X118966Y336255D01*
X116585Y338636D01*
X116585Y342004D01*
X118966Y344385D01*
X122334Y344385D01*
X124715Y342004D01*
X124715Y338636D01*
X122334Y336255D01*
X118966Y336255D01*
G37*
%LPD*%
%LPC*%
G36*
X129634Y319277D02*
X129634Y319277D01*
X127253Y321658D01*
X127253Y325026D01*
X129634Y327407D01*
X133002Y327407D01*
X135383Y325026D01*
X135383Y321658D01*
X133002Y319277D01*
X129634Y319277D01*
G37*
%LPD*%
%LPC*%
G36*
X151732Y313943D02*
X151732Y313943D01*
X149351Y316324D01*
X149351Y319692D01*
X151732Y322073D01*
X155100Y322073D01*
X157481Y319692D01*
X157481Y316324D01*
X155100Y313943D01*
X151732Y313943D01*
G37*
%LPD*%
%LPC*%
G36*
X101821Y306196D02*
X101821Y306196D01*
X99440Y308577D01*
X99440Y311945D01*
X101821Y314326D01*
X105189Y314326D01*
X107570Y311945D01*
X107570Y308577D01*
X105189Y306196D01*
X101821Y306196D01*
G37*
%LPD*%
%LPC*%
G36*
X396334Y296163D02*
X396334Y296163D01*
X393953Y298544D01*
X393953Y301912D01*
X396334Y304293D01*
X399702Y304293D01*
X402083Y301912D01*
X402083Y298544D01*
X399702Y296163D01*
X396334Y296163D01*
G37*
%LPD*%
%LPC*%
G36*
X87978Y290321D02*
X87978Y290321D01*
X85597Y292702D01*
X85597Y296070D01*
X87978Y298451D01*
X91346Y298451D01*
X93727Y296070D01*
X93727Y292702D01*
X91346Y290321D01*
X87978Y290321D01*
G37*
%LPD*%
%LPC*%
G36*
X265016Y282955D02*
X265016Y282955D01*
X262635Y285336D01*
X262635Y288704D01*
X265016Y291085D01*
X268384Y291085D01*
X270765Y288704D01*
X270765Y285336D01*
X268384Y282955D01*
X265016Y282955D01*
G37*
%LPD*%
%LPC*%
G36*
X127856Y257555D02*
X127856Y257555D01*
X125475Y259936D01*
X125475Y263304D01*
X127856Y265685D01*
X131224Y265685D01*
X133605Y263304D01*
X133605Y259936D01*
X131224Y257555D01*
X127856Y257555D01*
G37*
%LPD*%
%LPC*%
G36*
X69436Y242315D02*
X69436Y242315D01*
X67055Y244696D01*
X67055Y248064D01*
X69436Y250445D01*
X72804Y250445D01*
X75185Y248064D01*
X75185Y244696D01*
X72804Y242315D01*
X69436Y242315D01*
G37*
%LPD*%
%LPC*%
G36*
X383126Y218439D02*
X383126Y218439D01*
X380745Y220820D01*
X380745Y224188D01*
X383126Y226569D01*
X386494Y226569D01*
X388875Y224188D01*
X388875Y220820D01*
X386494Y218439D01*
X383126Y218439D01*
G37*
%LPD*%
%LPC*%
G36*
X82136Y211835D02*
X82136Y211835D01*
X79755Y214216D01*
X79755Y217584D01*
X82136Y219965D01*
X85504Y219965D01*
X87885Y217584D01*
X87885Y214216D01*
X85504Y211835D01*
X82136Y211835D01*
G37*
%LPD*%
%LPC*%
G36*
X138886Y211435D02*
X138886Y211435D01*
X136505Y213816D01*
X136505Y217184D01*
X138886Y219565D01*
X142254Y219565D01*
X144635Y217184D01*
X144635Y213816D01*
X142254Y211435D01*
X138886Y211435D01*
G37*
%LPD*%
%LPC*%
G36*
X436466Y468375D02*
X436466Y468375D01*
X434085Y470756D01*
X434085Y474124D01*
X436466Y476505D01*
X439834Y476505D01*
X442215Y474124D01*
X442215Y470756D01*
X439834Y468375D01*
X436466Y468375D01*
G37*
%LPD*%
%LPC*%
G36*
X82136Y186435D02*
X82136Y186435D01*
X79755Y188816D01*
X79755Y192184D01*
X82136Y194565D01*
X85504Y194565D01*
X87885Y192184D01*
X87885Y188816D01*
X85504Y186435D01*
X82136Y186435D01*
G37*
%LPD*%
%LPC*%
G36*
X138016Y186435D02*
X138016Y186435D01*
X135635Y188816D01*
X135635Y192184D01*
X138016Y194565D01*
X141384Y194565D01*
X143765Y192184D01*
X143765Y188816D01*
X141384Y186435D01*
X138016Y186435D01*
G37*
%LPD*%
%LPC*%
G36*
X216248Y177545D02*
X216248Y177545D01*
X213867Y179926D01*
X213867Y183294D01*
X216248Y185675D01*
X219616Y185675D01*
X221997Y183294D01*
X221997Y179926D01*
X219616Y177545D01*
X216248Y177545D01*
G37*
%LPD*%
%LPC*%
G36*
X357726Y455675D02*
X357726Y455675D01*
X355345Y458056D01*
X355345Y461424D01*
X357726Y463805D01*
X361094Y463805D01*
X363475Y461424D01*
X363475Y458056D01*
X361094Y455675D01*
X357726Y455675D01*
G37*
%LPD*%
%LPC*%
G36*
X522198Y157867D02*
X522198Y157867D01*
X519817Y160248D01*
X519817Y163616D01*
X522198Y165997D01*
X525566Y165997D01*
X527947Y163616D01*
X527947Y160248D01*
X525566Y157867D01*
X522198Y157867D01*
G37*
%LPD*%
%LPC*%
G36*
X208468Y156369D02*
X208468Y156369D01*
X206087Y158750D01*
X206087Y162118D01*
X208468Y164499D01*
X211836Y164499D01*
X214217Y162118D01*
X214217Y158750D01*
X211836Y156369D01*
X208468Y156369D01*
G37*
%LPD*%
%LPC*%
G36*
X72230Y446785D02*
X72230Y446785D01*
X69849Y449166D01*
X69849Y452534D01*
X72230Y454915D01*
X75598Y454915D01*
X77979Y452534D01*
X77979Y449166D01*
X75598Y446785D01*
X72230Y446785D01*
G37*
%LPD*%
%LPC*%
G36*
X112362Y143509D02*
X112362Y143509D01*
X109981Y145890D01*
X109981Y149258D01*
X112362Y151639D01*
X115730Y151639D01*
X118111Y149258D01*
X118111Y145890D01*
X115730Y143509D01*
X112362Y143509D01*
G37*
%LPD*%
%LPC*%
G36*
X487266Y426331D02*
X487266Y426331D01*
X484885Y428712D01*
X484885Y432080D01*
X487266Y434461D01*
X490634Y434461D01*
X493015Y432080D01*
X493015Y428712D01*
X490634Y426331D01*
X487266Y426331D01*
G37*
%LPD*%
%LPC*%
G36*
X71468Y421893D02*
X71468Y421893D01*
X69087Y424274D01*
X69087Y427642D01*
X71468Y430023D01*
X74836Y430023D01*
X77217Y427642D01*
X77217Y424274D01*
X74836Y421893D01*
X71468Y421893D01*
G37*
%LPD*%
%LPC*%
G36*
X427322Y119633D02*
X427322Y119633D01*
X424941Y122014D01*
X424941Y125382D01*
X427322Y127763D01*
X430690Y127763D01*
X433071Y125382D01*
X433071Y122014D01*
X430690Y119633D01*
X427322Y119633D01*
G37*
%LPD*%
%LPC*%
G36*
X127856Y113029D02*
X127856Y113029D01*
X125475Y115410D01*
X125475Y118778D01*
X127856Y121159D01*
X131224Y121159D01*
X133605Y118778D01*
X133605Y115410D01*
X131224Y113029D01*
X127856Y113029D01*
G37*
%LPD*%
%LPC*%
G36*
X481932Y413257D02*
X481932Y413257D01*
X479551Y415638D01*
X479551Y419006D01*
X481932Y421387D01*
X485300Y421387D01*
X487681Y419006D01*
X487681Y415638D01*
X485300Y413257D01*
X481932Y413257D01*
G37*
%LPD*%
%LPC*%
G36*
X113378Y98551D02*
X113378Y98551D01*
X110997Y100932D01*
X110997Y104300D01*
X113378Y106681D01*
X116746Y106681D01*
X119127Y104300D01*
X119127Y100932D01*
X116746Y98551D01*
X113378Y98551D01*
G37*
%LPD*%
%LPC*%
G36*
X147414Y93217D02*
X147414Y93217D01*
X145033Y95598D01*
X145033Y98966D01*
X147414Y101347D01*
X150782Y101347D01*
X153163Y98966D01*
X153163Y95598D01*
X150782Y93217D01*
X147414Y93217D01*
G37*
%LPD*%
%LPC*%
G36*
X367886Y92455D02*
X367886Y92455D01*
X365505Y94836D01*
X365505Y98204D01*
X367886Y100585D01*
X371254Y100585D01*
X373635Y98204D01*
X373635Y94836D01*
X371254Y92455D01*
X367886Y92455D01*
G37*
%LPD*%
%LPC*%
G36*
X392016Y81025D02*
X392016Y81025D01*
X389635Y83406D01*
X389635Y86774D01*
X392016Y89155D01*
X395384Y89155D01*
X397765Y86774D01*
X397765Y83406D01*
X395384Y81025D01*
X392016Y81025D01*
G37*
%LPD*%
%LPC*%
G36*
X341470Y72643D02*
X341470Y72643D01*
X339089Y75024D01*
X339089Y78392D01*
X341470Y80773D01*
X344838Y80773D01*
X347219Y78392D01*
X347219Y75024D01*
X344838Y72643D01*
X341470Y72643D01*
G37*
%LPD*%
%LPC*%
G36*
X313022Y72135D02*
X313022Y72135D01*
X310641Y74516D01*
X310641Y77884D01*
X313022Y80265D01*
X316390Y80265D01*
X318771Y77884D01*
X318771Y74516D01*
X316390Y72135D01*
X313022Y72135D01*
G37*
%LPD*%
%LPC*%
G36*
X214216Y72135D02*
X214216Y72135D01*
X211835Y74516D01*
X211835Y77884D01*
X214216Y80265D01*
X217584Y80265D01*
X219965Y77884D01*
X219965Y74516D01*
X217584Y72135D01*
X214216Y72135D01*
G37*
%LPD*%
%LPC*%
G36*
X242918Y71627D02*
X242918Y71627D01*
X240537Y74008D01*
X240537Y77376D01*
X242918Y79757D01*
X246286Y79757D01*
X248667Y77376D01*
X248667Y74008D01*
X246286Y71627D01*
X242918Y71627D01*
G37*
%LPD*%
%LPC*%
G36*
X328692Y66546D02*
X328692Y66546D01*
X326311Y68927D01*
X326311Y72294D01*
X328692Y74675D01*
X332060Y74675D01*
X334441Y72294D01*
X334441Y68927D01*
X332060Y66546D01*
X328692Y66546D01*
G37*
%LPD*%
%LPC*%
G36*
X67404Y61975D02*
X67404Y61975D01*
X65023Y64356D01*
X65023Y67724D01*
X67404Y70105D01*
X70772Y70105D01*
X73153Y67724D01*
X73153Y64356D01*
X70772Y61975D01*
X67404Y61975D01*
G37*
%LPD*%
%LPC*%
G36*
X452468Y411479D02*
X452468Y411479D01*
X450087Y413860D01*
X450087Y417228D01*
X452468Y419609D01*
X455836Y419609D01*
X458217Y417228D01*
X458217Y413860D01*
X455836Y411479D01*
X452468Y411479D01*
G37*
%LPD*%
%LPC*%
G36*
X168496Y408035D02*
X168496Y408035D01*
X166115Y410416D01*
X166115Y413784D01*
X168496Y416165D01*
X171864Y416165D01*
X174245Y413784D01*
X174245Y410416D01*
X171864Y408035D01*
X168496Y408035D01*
G37*
%LPD*%
%LPC*%
G36*
X87216Y402335D02*
X87216Y402335D01*
X84835Y404716D01*
X84835Y408084D01*
X87216Y410465D01*
X90584Y410465D01*
X92965Y408084D01*
X92965Y404716D01*
X90584Y402335D01*
X87216Y402335D01*
G37*
%LPD*%
%LPC*%
G36*
X246474Y429005D02*
X246474Y429005D01*
X244093Y431386D01*
X244093Y434754D01*
X246474Y437135D01*
X249842Y437135D01*
X252223Y434754D01*
X252223Y431386D01*
X249842Y429005D01*
X246474Y429005D01*
G37*
%LPD*%
%LPC*%
G36*
X156050Y391921D02*
X156050Y391921D01*
X153669Y394302D01*
X153669Y397670D01*
X156050Y400051D01*
X159418Y400051D01*
X161799Y397670D01*
X161799Y394302D01*
X159418Y391921D01*
X156050Y391921D01*
G37*
%LPD*%
%LPC*%
G36*
X104996Y368045D02*
X104996Y368045D01*
X102615Y370426D01*
X102615Y373794D01*
X104996Y376175D01*
X108364Y376175D01*
X110745Y373794D01*
X110745Y370426D01*
X108364Y368045D01*
X104996Y368045D01*
G37*
%LPD*%
%LPC*%
G36*
X168496Y352805D02*
X168496Y352805D01*
X166115Y355186D01*
X166115Y358554D01*
X168496Y360935D01*
X171864Y360935D01*
X174245Y358554D01*
X174245Y355186D01*
X171864Y352805D01*
X168496Y352805D01*
G37*
%LPD*%
%LPC*%
G36*
X122522Y348995D02*
X122522Y348995D01*
X120141Y351376D01*
X120141Y354744D01*
X122522Y357125D01*
X125890Y357125D01*
X128271Y354744D01*
X128271Y351376D01*
X125890Y348995D01*
X122522Y348995D01*
G37*
%LPD*%
%LPC*%
G36*
X404716Y39115D02*
X404716Y39115D01*
X402335Y41496D01*
X402335Y44864D01*
X404716Y47245D01*
X408084Y47245D01*
X410465Y44864D01*
X410465Y41496D01*
X408084Y39115D01*
X404716Y39115D01*
G37*
%LPD*%
%LPC*%
G36*
X120490Y35559D02*
X120490Y35559D01*
X118109Y37940D01*
X118109Y41308D01*
X120490Y43689D01*
X123858Y43689D01*
X126239Y41308D01*
X126239Y37940D01*
X123858Y35559D01*
X120490Y35559D01*
G37*
%LPD*%
%LPC*%
G36*
X68166Y33019D02*
X68166Y33019D01*
X65785Y35400D01*
X65785Y38768D01*
X68166Y41149D01*
X71534Y41149D01*
X73915Y38768D01*
X73915Y35400D01*
X71534Y33019D01*
X68166Y33019D01*
G37*
%LPD*%
%LPC*%
G36*
X366616Y8635D02*
X366616Y8635D01*
X364235Y11016D01*
X364235Y14384D01*
X366616Y16765D01*
X369984Y16765D01*
X372365Y14384D01*
X372365Y11016D01*
X369984Y8635D01*
X366616Y8635D01*
G37*
%LPD*%
%LPC*%
G36*
X315816Y8635D02*
X315816Y8635D01*
X313435Y11016D01*
X313435Y14384D01*
X315816Y16765D01*
X319184Y16765D01*
X321565Y14384D01*
X321565Y11016D01*
X319184Y8635D01*
X315816Y8635D01*
G37*
%LPD*%
%LPC*%
G36*
X239616Y8635D02*
X239616Y8635D01*
X237235Y11016D01*
X237235Y14384D01*
X239616Y16765D01*
X242984Y16765D01*
X245365Y14384D01*
X245365Y11016D01*
X242984Y8635D01*
X239616Y8635D01*
G37*
%LPD*%
%LPC*%
G36*
X188816Y8635D02*
X188816Y8635D01*
X186435Y11016D01*
X186435Y14384D01*
X188816Y16765D01*
X192184Y16765D01*
X194565Y14384D01*
X194565Y11016D01*
X192184Y8635D01*
X188816Y8635D01*
G37*
%LPD*%
%LPC*%
G36*
X428846Y7365D02*
X428846Y7365D01*
X426465Y9746D01*
X426465Y13114D01*
X428846Y15495D01*
X432214Y15495D01*
X434595Y13114D01*
X434595Y9746D01*
X432214Y7365D01*
X428846Y7365D01*
G37*
%LPD*%
%LPC*%
G36*
X218439Y269239D02*
X218439Y269239D01*
X218439Y276559D01*
X219800Y276116D01*
X221225Y275390D01*
X222234Y274657D01*
X222519Y274450D01*
X223650Y273319D01*
X224590Y272025D01*
X225316Y270600D01*
X225759Y269239D01*
X218439Y269239D01*
G37*
%LPD*%
%LPC*%
G36*
X510539Y345439D02*
X510539Y345439D01*
X510539Y352759D01*
X511900Y352316D01*
X513325Y351590D01*
X514396Y350812D01*
X514619Y350650D01*
X515750Y349519D01*
X516690Y348225D01*
X517416Y346800D01*
X517859Y345439D01*
X510539Y345439D01*
G37*
%LPD*%
%LPC*%
G36*
X510539Y320039D02*
X510539Y320039D01*
X510539Y327359D01*
X511900Y326916D01*
X513325Y326190D01*
X514619Y325250D01*
X515750Y324119D01*
X516690Y322825D01*
X517416Y321400D01*
X517859Y320039D01*
X510539Y320039D01*
G37*
%LPD*%
%LPC*%
G36*
X27939Y180339D02*
X27939Y180339D01*
X27939Y187659D01*
X29300Y187216D01*
X30725Y186490D01*
X32019Y185550D01*
X33150Y184419D01*
X34090Y183125D01*
X34816Y181700D01*
X35259Y180339D01*
X27939Y180339D01*
G37*
%LPD*%
%LPC*%
G36*
X27939Y175261D02*
X27939Y175261D01*
X35259Y175261D01*
X34816Y173900D01*
X34090Y172475D01*
X33150Y171181D01*
X32019Y170050D01*
X30725Y169110D01*
X29300Y168384D01*
X27939Y167941D01*
X27939Y175261D01*
G37*
%LPD*%
%LPC*%
G36*
X498141Y320039D02*
X498141Y320039D01*
X498584Y321400D01*
X499310Y322825D01*
X500250Y324119D01*
X501381Y325250D01*
X502675Y326190D01*
X504100Y326916D01*
X505461Y327359D01*
X505461Y320039D01*
X498141Y320039D01*
G37*
%LPD*%
%LPC*%
G36*
X206041Y269239D02*
X206041Y269239D01*
X206484Y270600D01*
X207210Y272025D01*
X208150Y273319D01*
X209281Y274450D01*
X210575Y275390D01*
X212000Y276116D01*
X213361Y276559D01*
X213361Y269239D01*
X206041Y269239D01*
G37*
%LPD*%
%LPC*%
G36*
X510539Y340361D02*
X510539Y340361D01*
X517859Y340361D01*
X517416Y339000D01*
X516690Y337575D01*
X515750Y336281D01*
X514619Y335150D01*
X513325Y334210D01*
X511900Y333484D01*
X510539Y333041D01*
X510539Y340361D01*
G37*
%LPD*%
%LPC*%
G36*
X498141Y345439D02*
X498141Y345439D01*
X498584Y346800D01*
X499310Y348225D01*
X500250Y349519D01*
X501381Y350650D01*
X502675Y351590D01*
X504100Y352316D01*
X505461Y352759D01*
X505461Y345439D01*
X498141Y345439D01*
G37*
%LPD*%
%LPC*%
G36*
X218439Y264161D02*
X218439Y264161D01*
X225759Y264161D01*
X225316Y262800D01*
X224590Y261375D01*
X223650Y260081D01*
X222519Y258950D01*
X221225Y258010D01*
X219800Y257284D01*
X218439Y256841D01*
X218439Y264161D01*
G37*
%LPD*%
%LPC*%
G36*
X15541Y180339D02*
X15541Y180339D01*
X15984Y181700D01*
X16710Y183125D01*
X17650Y184419D01*
X18781Y185550D01*
X20075Y186490D01*
X21500Y187216D01*
X22861Y187659D01*
X22861Y180339D01*
X15541Y180339D01*
G37*
%LPD*%
%LPC*%
G36*
X510539Y314961D02*
X510539Y314961D01*
X517859Y314961D01*
X517416Y313600D01*
X516690Y312175D01*
X515750Y310881D01*
X514619Y309750D01*
X513325Y308810D01*
X511900Y308084D01*
X510539Y307641D01*
X510539Y314961D01*
G37*
%LPD*%
%LPC*%
G36*
X212000Y257284D02*
X212000Y257284D01*
X210575Y258010D01*
X209281Y258950D01*
X208150Y260081D01*
X207210Y261375D01*
X206484Y262800D01*
X206041Y264161D01*
X213361Y264161D01*
X213361Y256841D01*
X212000Y257284D01*
G37*
%LPD*%
%LPC*%
G36*
X21500Y168384D02*
X21500Y168384D01*
X20075Y169110D01*
X18781Y170050D01*
X17650Y171181D01*
X16710Y172475D01*
X15984Y173900D01*
X15541Y175261D01*
X22861Y175261D01*
X22861Y167941D01*
X21500Y168384D01*
G37*
%LPD*%
%LPC*%
G36*
X504100Y333484D02*
X504100Y333484D01*
X502675Y334210D01*
X501381Y335150D01*
X500250Y336281D01*
X499310Y337575D01*
X498584Y339000D01*
X498141Y340361D01*
X505461Y340361D01*
X505461Y333041D01*
X504100Y333484D01*
G37*
%LPD*%
%LPC*%
G36*
X504100Y308084D02*
X504100Y308084D01*
X502675Y308810D01*
X501381Y309750D01*
X500250Y310881D01*
X499310Y312175D01*
X498584Y313600D01*
X498141Y314961D01*
X505461Y314961D01*
X505461Y307641D01*
X504100Y308084D01*
G37*
%LPD*%
%LPC*%
G36*
X25399Y177799D02*
X25399Y177799D01*
X25399Y177801D01*
X25401Y177801D01*
X25401Y177799D01*
X25399Y177799D01*
G37*
%LPD*%
%LPC*%
G36*
X507999Y342899D02*
X507999Y342899D01*
X507999Y342901D01*
X508001Y342901D01*
X508001Y342899D01*
X507999Y342899D01*
G37*
%LPD*%
%LPC*%
G36*
X507999Y317499D02*
X507999Y317499D01*
X507999Y317501D01*
X508001Y317501D01*
X508001Y317499D01*
X507999Y317499D01*
G37*
%LPD*%
%LPC*%
G36*
X215899Y266699D02*
X215899Y266699D01*
X215899Y266701D01*
X215901Y266701D01*
X215901Y266699D01*
X215899Y266699D01*
G37*
%LPD*%
D10*
X70193Y408347D02*
X70191Y408467D01*
X70185Y408587D01*
X70176Y408707D01*
X70162Y408826D01*
X70145Y408945D01*
X70124Y409063D01*
X70099Y409181D01*
X70070Y409297D01*
X70038Y409413D01*
X70002Y409528D01*
X69962Y409641D01*
X69919Y409753D01*
X69872Y409864D01*
X69822Y409973D01*
X69768Y410080D01*
X69711Y410186D01*
X69650Y410289D01*
X69586Y410391D01*
X69519Y410491D01*
X69449Y410588D01*
X69376Y410683D01*
X69299Y410776D01*
X69220Y410866D01*
X69138Y410954D01*
X69053Y411039D01*
X68965Y411121D01*
X68875Y411200D01*
X68782Y411277D01*
X68687Y411350D01*
X68590Y411420D01*
X68490Y411487D01*
X68388Y411551D01*
X68285Y411612D01*
X68179Y411669D01*
X68072Y411723D01*
X67963Y411773D01*
X67852Y411820D01*
X67740Y411863D01*
X67627Y411903D01*
X67512Y411939D01*
X67396Y411971D01*
X67280Y412000D01*
X67162Y412025D01*
X67044Y412046D01*
X66925Y412063D01*
X66806Y412077D01*
X66686Y412086D01*
X66566Y412092D01*
X66446Y412094D01*
X66446Y412093D02*
X66308Y412091D01*
X66171Y412085D01*
X66034Y412075D01*
X65897Y412062D01*
X65761Y412044D01*
X65625Y412022D01*
X65489Y411997D01*
X65355Y411968D01*
X65222Y411935D01*
X65089Y411898D01*
X64958Y411857D01*
X64827Y411813D01*
X64699Y411765D01*
X64571Y411713D01*
X64445Y411657D01*
X64321Y411598D01*
X64198Y411536D01*
X64078Y411470D01*
X63959Y411401D01*
X63842Y411328D01*
X63728Y411252D01*
X63615Y411172D01*
X63505Y411090D01*
X63397Y411004D01*
X63292Y410916D01*
X63190Y410824D01*
X63090Y410730D01*
X62992Y410632D01*
X62898Y410532D01*
X62807Y410429D01*
X62718Y410324D01*
X62633Y410216D01*
X62550Y410106D01*
X62471Y409994D01*
X62395Y409879D01*
X62322Y409762D01*
X62253Y409643D01*
X62187Y409523D01*
X62125Y409400D01*
X62066Y409276D01*
X62011Y409150D01*
X61959Y409022D01*
X61911Y408893D01*
X61867Y408763D01*
X68943Y405433D02*
X69033Y405521D01*
X69119Y405612D01*
X69203Y405705D01*
X69284Y405801D01*
X69362Y405899D01*
X69436Y405999D01*
X69508Y406102D01*
X69576Y406207D01*
X69641Y406315D01*
X69703Y406424D01*
X69761Y406535D01*
X69816Y406648D01*
X69867Y406762D01*
X69914Y406878D01*
X69958Y406995D01*
X69998Y407114D01*
X70035Y407234D01*
X70068Y407355D01*
X70097Y407477D01*
X70122Y407599D01*
X70143Y407723D01*
X70161Y407847D01*
X70174Y407972D01*
X70184Y408097D01*
X70190Y408222D01*
X70192Y408347D01*
X68944Y405433D02*
X61867Y397107D01*
X70193Y397107D01*
D11*
X342900Y495300D03*
X342900Y469900D03*
X342900Y444500D03*
X342900Y419100D03*
X342900Y393700D03*
X342900Y368300D03*
X342900Y342900D03*
X342900Y317500D03*
X342900Y292100D03*
X342900Y266700D03*
X215900Y495300D03*
X215900Y469900D03*
X215900Y444500D03*
X215900Y419100D03*
X215900Y393700D03*
X215900Y368300D03*
X215900Y342900D03*
X215900Y317500D03*
X215900Y292100D03*
X215900Y266700D03*
X508000Y241300D03*
X508000Y266700D03*
X508000Y292100D03*
X508000Y317500D03*
X508000Y342900D03*
X508000Y368300D03*
X508000Y419100D03*
X508000Y444500D03*
X508000Y469900D03*
X508000Y495300D03*
X508000Y520700D03*
X508000Y546100D03*
X25400Y546100D03*
X25400Y520700D03*
X25400Y495300D03*
X25400Y469900D03*
X25400Y444500D03*
X25400Y419100D03*
X25400Y393700D03*
X25400Y368300D03*
X25400Y330200D03*
X25400Y304800D03*
X25400Y279400D03*
X25400Y254000D03*
X25400Y228600D03*
X25400Y203200D03*
X25400Y177800D03*
X25400Y152400D03*
X25400Y127000D03*
X25400Y101600D03*
X508000Y215900D03*
X508000Y190500D03*
D12*
X114046Y147574D03*
X186690Y342900D03*
X210152Y160434D03*
X106680Y372110D03*
X103505Y310261D03*
X311150Y195580D03*
X328930Y195580D03*
X170180Y312420D03*
X287020Y179070D03*
X399288Y121920D03*
X84328Y461264D03*
X99568Y461010D03*
X114808Y460756D03*
X157734Y32258D03*
X112014Y39624D03*
X111506Y62992D03*
X172466Y458724D03*
X279400Y495300D03*
X482600Y12700D03*
X403860Y30734D03*
X279400Y12700D03*
X50800Y12700D03*
X247396Y144272D03*
X200660Y182118D03*
X218948Y150622D03*
X317500Y127000D03*
X241300Y127000D03*
X215900Y127000D03*
X182880Y123190D03*
X31750Y41910D03*
X183642Y70104D03*
X508000Y50800D03*
X138938Y149352D03*
X69596Y461518D03*
X311150Y205740D03*
X328930Y205740D03*
X127762Y461010D03*
X41656Y357124D03*
X180800Y362558D03*
X344424Y240538D03*
X488442Y85598D03*
X237236Y168402D03*
X243586Y214122D03*
X217932Y198374D03*
X394970Y292608D03*
X201930Y490220D03*
X457200Y495300D03*
X392430Y444500D03*
X386842Y360426D03*
X389890Y321310D03*
X392430Y401320D03*
X133350Y379730D03*
X68580Y381000D03*
X279400Y463550D03*
X525780Y384810D03*
X474726Y495300D03*
X491490Y500380D03*
X499110Y482600D03*
X231140Y476250D03*
X144526Y359918D03*
X172720Y335280D03*
X146958Y321156D03*
X71120Y237490D03*
X50800Y245110D03*
X45720Y264160D03*
X40132Y286512D03*
X50292Y193548D03*
X64770Y203200D03*
X64770Y177800D03*
X156210Y147320D03*
X146050Y481330D03*
X413766Y331470D03*
X359918Y321056D03*
X399542Y106426D03*
X361442Y498602D03*
X527050Y486918D03*
X306832Y71374D03*
X253492Y71120D03*
X100330Y165100D03*
X101600Y235204D03*
X204470Y284734D03*
X227584Y284988D03*
X204724Y335280D03*
X204470Y350266D03*
X317500Y449072D03*
X491490Y230886D03*
X356108Y285496D03*
X356870Y272034D03*
X178054Y235204D03*
X177800Y254000D03*
X97282Y293878D03*
X32512Y317754D03*
X38354Y209296D03*
X31750Y64770D03*
X62230Y66040D03*
X62230Y36830D03*
X170180Y164338D03*
X130810Y358394D03*
X115462Y291692D03*
X376428Y70612D03*
X322580Y304292D03*
X374650Y226568D03*
X342900Y127254D03*
X361188Y81788D03*
X372618Y150368D03*
X435610Y84582D03*
X435864Y69850D03*
X304546Y166878D03*
X322580Y178816D03*
X249936Y298704D03*
X489712Y423164D03*
X332994Y140970D03*
X365506Y180086D03*
X341884Y181610D03*
X452628Y140462D03*
X451612Y108458D03*
X488696Y109220D03*
X478282Y175260D03*
X490220Y258572D03*
X413766Y270002D03*
X108712Y444754D03*
X461264Y412242D03*
X439674Y480060D03*
X135636Y423926D03*
X263652Y258064D03*
X308864Y302260D03*
X233680Y346964D03*
X438150Y400558D03*
X230632Y373888D03*
X327660Y471170D03*
X366776Y465582D03*
X353314Y215392D03*
X416306Y493522D03*
X129540Y117094D03*
X122174Y39624D03*
X384810Y222504D03*
X59690Y494792D03*
X59690Y487680D03*
X129540Y261620D03*
X131318Y323342D03*
X297180Y294640D03*
X297180Y302260D03*
X297180Y309880D03*
X266700Y287020D03*
X438150Y472440D03*
X369570Y96520D03*
X406400Y43180D03*
X461010Y233680D03*
X429006Y123698D03*
X115062Y102616D03*
X149098Y97282D03*
X157734Y395986D03*
X89662Y294386D03*
X170180Y412100D03*
X69088Y66040D03*
X69850Y37084D03*
X359410Y459740D03*
X444500Y114300D03*
D13*
X444500Y406400D01*
X444500Y452959D01*
X440125Y457334D01*
X429203Y457334D01*
D12*
X429203Y457334D03*
X153416Y318008D03*
X394746Y283210D03*
X430530Y400050D03*
D13*
X394893Y283210D02*
X394746Y283210D01*
X394893Y283210D02*
X407416Y295733D01*
X430530Y394462D02*
X430530Y400050D01*
X430530Y394462D02*
X407416Y371348D01*
X407416Y295733D01*
D12*
X120650Y340320D03*
X419100Y101600D03*
X413004Y321564D03*
D13*
X419100Y315468D01*
X419100Y101600D01*
X366014Y254000D02*
X366014Y285496D01*
X359410Y292100D01*
X342900Y292100D01*
D12*
X392684Y332100D03*
D13*
X392684Y391922D02*
X406781Y406019D01*
X413258Y412496D01*
X392684Y391922D02*
X392684Y332100D01*
X413258Y412496D02*
X426974Y412496D01*
D12*
X426974Y412496D03*
X346202Y206248D03*
D13*
X346202Y234188D01*
X366014Y254000D01*
D12*
X401828Y362712D03*
D13*
X401828Y381508D01*
D12*
X422910Y401066D03*
D13*
X421386Y401066D01*
X401828Y381508D01*
D12*
X408686Y132588D03*
D13*
X406400Y134874D01*
X406400Y254254D01*
X372618Y356616D02*
X360934Y368300D01*
X342900Y368300D01*
X372618Y288036D02*
X406400Y254254D01*
X372618Y288036D02*
X372618Y356616D01*
D12*
X398018Y300228D03*
X374650Y420624D03*
D13*
X374650Y438150D01*
X387350Y450850D01*
D12*
X387350Y450850D03*
X124206Y353060D03*
X170180Y356870D03*
X470916Y180340D03*
X447010Y480060D03*
D13*
X470916Y473797D02*
X470916Y180340D01*
X464653Y480060D02*
X447010Y480060D01*
X464653Y480060D02*
X470916Y473797D01*
D12*
X290068Y142494D03*
X480060Y349250D03*
X285750Y135890D03*
X427482Y380492D03*
D14*
X427482Y351790D01*
X425196Y349504D01*
D12*
X425196Y349504D03*
X523882Y161932D03*
X430530Y11430D03*
X439166Y420624D03*
X248158Y433070D03*
X524764Y135890D03*
X343154Y76708D03*
X314706Y76200D03*
X330376Y70611D03*
X393700Y85090D03*
X317500Y12700D03*
X368300Y12700D03*
X217932Y181610D03*
X83820Y190500D03*
X139700Y190500D03*
X140570Y215500D03*
X83820Y215900D03*
X190500Y12700D03*
X241300Y12700D03*
X215900Y76200D03*
X244602Y75692D03*
X71120Y246380D03*
X476470Y469646D03*
X488950Y430396D03*
X247904Y159512D03*
X279400Y250190D03*
D13*
X270764Y159512D02*
X247904Y159512D01*
X270764Y159512D02*
X279400Y168148D01*
X279400Y250190D01*
D12*
X73914Y450850D03*
X73152Y425958D03*
X88900Y406400D03*
X454152Y415544D03*
X525780Y110744D03*
X459994Y339090D03*
D13*
X459994Y274320D01*
X460248Y274066D01*
D12*
X460248Y274066D03*
X381000Y292100D03*
D13*
X381000Y386080D01*
D12*
X381000Y386080D03*
X483616Y417322D03*
M02*
