G04 EAGLE Gerber RS-274X export*
G75*
%MOMM*%
%FSLAX34Y34*%
%LPD*%
%INSoldermask Top*%
%IPPOS*%
%AMOC8*
5,1,8,0,0,1.08239X$1,22.5*%
G01*
%ADD10C,0.225588*%
%ADD11C,0.225369*%
%ADD12C,0.225400*%
%ADD13C,1.127000*%
%ADD14C,0.222250*%
%ADD15C,2.006600*%
%ADD16C,0.428259*%
%ADD17C,0.223409*%
%ADD18C,0.224509*%
%ADD19C,0.223519*%
%ADD20C,0.224709*%
%ADD21C,0.230578*%
%ADD22C,0.777000*%
%ADD23R,1.100000X0.400000*%
%ADD24C,0.977000*%
%ADD25C,0.227100*%
%ADD26C,0.228600*%
%ADD27C,0.239469*%
%ADD28C,0.231750*%
%ADD29C,0.226609*%

G36*
X300984Y42883D02*
X300984Y42883D01*
X300990Y42889D01*
X300995Y42885D01*
X302225Y43250D01*
X302230Y43257D01*
X302235Y43255D01*
X303354Y43885D01*
X303357Y43892D01*
X303363Y43891D01*
X304313Y44754D01*
X304314Y44762D01*
X304320Y44762D01*
X305054Y45815D01*
X305054Y45823D01*
X305059Y45825D01*
X305541Y47015D01*
X305539Y47020D01*
X305543Y47023D01*
X305542Y47024D01*
X305544Y47025D01*
X305749Y48292D01*
X305746Y48297D01*
X305749Y48300D01*
X305749Y60300D01*
X305746Y60304D01*
X305749Y60307D01*
X305594Y61429D01*
X305589Y61434D01*
X305592Y61438D01*
X305221Y62509D01*
X305215Y62513D01*
X305217Y62518D01*
X304644Y63495D01*
X304638Y63498D01*
X304639Y63503D01*
X303886Y64350D01*
X303879Y64352D01*
X303879Y64357D01*
X302976Y65041D01*
X302969Y65041D01*
X302968Y65046D01*
X301949Y65541D01*
X301942Y65539D01*
X301940Y65544D01*
X300843Y65831D01*
X300837Y65828D01*
X300834Y65832D01*
X299703Y65899D01*
X299697Y65899D01*
X298566Y65832D01*
X298561Y65827D01*
X298557Y65831D01*
X297460Y65544D01*
X297456Y65538D01*
X297451Y65541D01*
X296432Y65046D01*
X296429Y65040D01*
X296424Y65041D01*
X295521Y64357D01*
X295519Y64350D01*
X295514Y64350D01*
X294761Y63503D01*
X294761Y63496D01*
X294756Y63495D01*
X294183Y62518D01*
X294184Y62515D01*
X294183Y62514D01*
X294184Y62513D01*
X294184Y62511D01*
X294179Y62509D01*
X293808Y61438D01*
X293810Y61433D01*
X293807Y61431D01*
X293807Y61430D01*
X293806Y61429D01*
X293651Y60307D01*
X293654Y60302D01*
X293651Y60300D01*
X293651Y48300D01*
X293654Y48295D01*
X293651Y48292D01*
X293856Y47025D01*
X293862Y47019D01*
X293859Y47015D01*
X294341Y45825D01*
X294348Y45821D01*
X294346Y45815D01*
X295080Y44762D01*
X295088Y44760D01*
X295087Y44754D01*
X296037Y43891D01*
X296046Y43890D01*
X296046Y43885D01*
X297165Y43255D01*
X297173Y43256D01*
X297175Y43250D01*
X298405Y42885D01*
X298413Y42888D01*
X298416Y42883D01*
X299697Y42801D01*
X299701Y42804D01*
X299703Y42801D01*
X300984Y42883D01*
G37*
G36*
X387384Y42883D02*
X387384Y42883D01*
X387390Y42889D01*
X387395Y42885D01*
X388625Y43250D01*
X388630Y43257D01*
X388635Y43255D01*
X389754Y43885D01*
X389757Y43892D01*
X389763Y43891D01*
X390713Y44754D01*
X390714Y44762D01*
X390720Y44762D01*
X391454Y45815D01*
X391454Y45823D01*
X391459Y45825D01*
X391941Y47015D01*
X391939Y47020D01*
X391943Y47023D01*
X391942Y47024D01*
X391944Y47025D01*
X392149Y48292D01*
X392146Y48297D01*
X392149Y48300D01*
X392149Y60300D01*
X392146Y60304D01*
X392149Y60307D01*
X391994Y61429D01*
X391989Y61434D01*
X391992Y61438D01*
X391621Y62509D01*
X391615Y62513D01*
X391617Y62518D01*
X391044Y63495D01*
X391038Y63498D01*
X391039Y63503D01*
X390286Y64350D01*
X390279Y64352D01*
X390279Y64357D01*
X389376Y65041D01*
X389369Y65041D01*
X389368Y65046D01*
X388349Y65541D01*
X388342Y65539D01*
X388340Y65544D01*
X387243Y65831D01*
X387237Y65828D01*
X387234Y65832D01*
X386103Y65899D01*
X386097Y65899D01*
X384966Y65832D01*
X384961Y65827D01*
X384957Y65831D01*
X383860Y65544D01*
X383856Y65538D01*
X383851Y65541D01*
X382832Y65046D01*
X382829Y65040D01*
X382824Y65041D01*
X381921Y64357D01*
X381919Y64350D01*
X381914Y64350D01*
X381161Y63503D01*
X381161Y63496D01*
X381156Y63495D01*
X380583Y62518D01*
X380584Y62515D01*
X380583Y62514D01*
X380584Y62513D01*
X380584Y62511D01*
X380579Y62509D01*
X380208Y61438D01*
X380210Y61433D01*
X380207Y61431D01*
X380207Y61430D01*
X380206Y61429D01*
X380051Y60307D01*
X380054Y60302D01*
X380051Y60300D01*
X380051Y48300D01*
X380054Y48295D01*
X380051Y48292D01*
X380256Y47025D01*
X380262Y47019D01*
X380259Y47015D01*
X380741Y45825D01*
X380748Y45821D01*
X380746Y45815D01*
X381480Y44762D01*
X381488Y44760D01*
X381487Y44754D01*
X382437Y43891D01*
X382446Y43890D01*
X382446Y43885D01*
X383565Y43255D01*
X383573Y43256D01*
X383575Y43250D01*
X384805Y42885D01*
X384813Y42888D01*
X384816Y42883D01*
X386097Y42801D01*
X386101Y42804D01*
X386103Y42801D01*
X387384Y42883D01*
G37*
G36*
X173984Y42883D02*
X173984Y42883D01*
X173990Y42889D01*
X173995Y42885D01*
X175225Y43250D01*
X175230Y43257D01*
X175235Y43255D01*
X176354Y43885D01*
X176357Y43892D01*
X176363Y43891D01*
X177313Y44754D01*
X177314Y44762D01*
X177320Y44762D01*
X178054Y45815D01*
X178054Y45823D01*
X178059Y45825D01*
X178541Y47015D01*
X178539Y47020D01*
X178543Y47023D01*
X178542Y47024D01*
X178544Y47025D01*
X178749Y48292D01*
X178746Y48297D01*
X178749Y48300D01*
X178749Y60300D01*
X178746Y60304D01*
X178749Y60307D01*
X178594Y61429D01*
X178589Y61434D01*
X178592Y61438D01*
X178221Y62509D01*
X178215Y62513D01*
X178217Y62518D01*
X177644Y63495D01*
X177638Y63498D01*
X177639Y63503D01*
X176886Y64350D01*
X176879Y64352D01*
X176879Y64357D01*
X175976Y65041D01*
X175969Y65041D01*
X175968Y65046D01*
X174949Y65541D01*
X174942Y65539D01*
X174940Y65544D01*
X173843Y65831D01*
X173837Y65828D01*
X173834Y65832D01*
X172703Y65899D01*
X172697Y65899D01*
X171566Y65832D01*
X171561Y65827D01*
X171557Y65831D01*
X170460Y65544D01*
X170456Y65538D01*
X170451Y65541D01*
X169432Y65046D01*
X169429Y65040D01*
X169424Y65041D01*
X168521Y64357D01*
X168519Y64350D01*
X168514Y64350D01*
X167761Y63503D01*
X167761Y63496D01*
X167756Y63495D01*
X167183Y62518D01*
X167184Y62515D01*
X167183Y62514D01*
X167184Y62513D01*
X167184Y62511D01*
X167179Y62509D01*
X166808Y61438D01*
X166810Y61433D01*
X166807Y61431D01*
X166807Y61430D01*
X166806Y61429D01*
X166651Y60307D01*
X166654Y60302D01*
X166651Y60300D01*
X166651Y48300D01*
X166654Y48295D01*
X166651Y48292D01*
X166856Y47025D01*
X166862Y47019D01*
X166859Y47015D01*
X167341Y45825D01*
X167348Y45821D01*
X167346Y45815D01*
X168080Y44762D01*
X168088Y44760D01*
X168087Y44754D01*
X169037Y43891D01*
X169046Y43890D01*
X169046Y43885D01*
X170165Y43255D01*
X170173Y43256D01*
X170175Y43250D01*
X171405Y42885D01*
X171413Y42888D01*
X171416Y42883D01*
X172697Y42801D01*
X172701Y42804D01*
X172703Y42801D01*
X173984Y42883D01*
G37*
G36*
X260384Y42883D02*
X260384Y42883D01*
X260390Y42889D01*
X260395Y42885D01*
X261625Y43250D01*
X261630Y43257D01*
X261635Y43255D01*
X262754Y43885D01*
X262757Y43892D01*
X262763Y43891D01*
X263713Y44754D01*
X263714Y44762D01*
X263720Y44762D01*
X264454Y45815D01*
X264454Y45823D01*
X264459Y45825D01*
X264941Y47015D01*
X264939Y47020D01*
X264943Y47023D01*
X264942Y47024D01*
X264944Y47025D01*
X265149Y48292D01*
X265146Y48297D01*
X265149Y48300D01*
X265149Y60300D01*
X265146Y60304D01*
X265149Y60307D01*
X264994Y61429D01*
X264989Y61434D01*
X264992Y61438D01*
X264621Y62509D01*
X264615Y62513D01*
X264617Y62518D01*
X264044Y63495D01*
X264038Y63498D01*
X264039Y63503D01*
X263286Y64350D01*
X263279Y64352D01*
X263279Y64357D01*
X262376Y65041D01*
X262369Y65041D01*
X262368Y65046D01*
X261349Y65541D01*
X261342Y65539D01*
X261340Y65544D01*
X260243Y65831D01*
X260237Y65828D01*
X260234Y65832D01*
X259103Y65899D01*
X259097Y65899D01*
X257966Y65832D01*
X257961Y65827D01*
X257957Y65831D01*
X256860Y65544D01*
X256856Y65538D01*
X256851Y65541D01*
X255832Y65046D01*
X255829Y65040D01*
X255824Y65041D01*
X254921Y64357D01*
X254919Y64350D01*
X254914Y64350D01*
X254161Y63503D01*
X254161Y63496D01*
X254156Y63495D01*
X253583Y62518D01*
X253584Y62515D01*
X253583Y62514D01*
X253584Y62513D01*
X253584Y62511D01*
X253579Y62509D01*
X253208Y61438D01*
X253210Y61433D01*
X253207Y61431D01*
X253207Y61430D01*
X253206Y61429D01*
X253051Y60307D01*
X253054Y60302D01*
X253051Y60300D01*
X253051Y48300D01*
X253054Y48295D01*
X253051Y48292D01*
X253256Y47025D01*
X253262Y47019D01*
X253259Y47015D01*
X253741Y45825D01*
X253748Y45821D01*
X253746Y45815D01*
X254480Y44762D01*
X254488Y44760D01*
X254487Y44754D01*
X255437Y43891D01*
X255446Y43890D01*
X255446Y43885D01*
X256565Y43255D01*
X256573Y43256D01*
X256575Y43250D01*
X257805Y42885D01*
X257813Y42888D01*
X257816Y42883D01*
X259097Y42801D01*
X259101Y42804D01*
X259103Y42801D01*
X260384Y42883D01*
G37*
G36*
X260271Y3611D02*
X260271Y3611D01*
X260276Y3616D01*
X260280Y3613D01*
X261403Y3948D01*
X261407Y3954D01*
X261411Y3952D01*
X262447Y4500D01*
X262450Y4506D01*
X262455Y4505D01*
X263363Y5244D01*
X263365Y5251D01*
X263370Y5251D01*
X264117Y6153D01*
X264117Y6161D01*
X264123Y6161D01*
X264679Y7192D01*
X264678Y7199D01*
X264683Y7201D01*
X265027Y8320D01*
X265025Y8327D01*
X265029Y8330D01*
X265149Y9495D01*
X265147Y9498D01*
X265149Y9500D01*
X265149Y15500D01*
X265147Y15503D01*
X265149Y15505D01*
X265038Y16681D01*
X265033Y16686D01*
X265036Y16690D01*
X264698Y17822D01*
X264692Y17826D01*
X264694Y17831D01*
X264142Y18875D01*
X264135Y18878D01*
X264137Y18883D01*
X263391Y19799D01*
X263384Y19800D01*
X263384Y19806D01*
X262475Y20559D01*
X262467Y20559D01*
X262467Y20564D01*
X261427Y21125D01*
X261420Y21124D01*
X261418Y21129D01*
X260289Y21476D01*
X260283Y21474D01*
X260280Y21478D01*
X259105Y21599D01*
X259098Y21595D01*
X259094Y21599D01*
X257754Y21442D01*
X257748Y21437D01*
X257743Y21440D01*
X256472Y20989D01*
X256467Y20982D01*
X256462Y20984D01*
X255323Y20262D01*
X255320Y20254D01*
X255314Y20255D01*
X254364Y19297D01*
X254363Y19289D01*
X254357Y19288D01*
X253644Y18143D01*
X253645Y18135D01*
X253639Y18133D01*
X253199Y16857D01*
X253201Y16850D01*
X253197Y16847D01*
X253051Y15505D01*
X253053Y15502D01*
X253051Y15500D01*
X253051Y9500D01*
X253053Y9497D01*
X253051Y9494D01*
X253206Y8165D01*
X253212Y8159D01*
X253209Y8155D01*
X253656Y6894D01*
X253663Y6889D01*
X253661Y6884D01*
X254378Y5754D01*
X254385Y5751D01*
X254384Y5745D01*
X255335Y4803D01*
X255343Y4802D01*
X255343Y4796D01*
X256479Y4089D01*
X256487Y4090D01*
X256489Y4084D01*
X257754Y3648D01*
X257759Y3649D01*
X257760Y3649D01*
X257763Y3649D01*
X257765Y3645D01*
X259095Y3501D01*
X259101Y3505D01*
X259105Y3501D01*
X260271Y3611D01*
G37*
G36*
X300871Y3611D02*
X300871Y3611D01*
X300876Y3616D01*
X300880Y3613D01*
X302003Y3948D01*
X302007Y3954D01*
X302011Y3952D01*
X303047Y4500D01*
X303050Y4506D01*
X303055Y4505D01*
X303963Y5244D01*
X303965Y5251D01*
X303970Y5251D01*
X304717Y6153D01*
X304717Y6161D01*
X304723Y6161D01*
X305279Y7192D01*
X305278Y7199D01*
X305283Y7201D01*
X305627Y8320D01*
X305625Y8327D01*
X305629Y8330D01*
X305749Y9495D01*
X305747Y9498D01*
X305749Y9500D01*
X305749Y15500D01*
X305747Y15503D01*
X305749Y15505D01*
X305638Y16681D01*
X305633Y16686D01*
X305636Y16690D01*
X305298Y17822D01*
X305292Y17826D01*
X305294Y17831D01*
X304742Y18875D01*
X304735Y18878D01*
X304737Y18883D01*
X303991Y19799D01*
X303984Y19800D01*
X303984Y19806D01*
X303075Y20559D01*
X303067Y20559D01*
X303067Y20564D01*
X302027Y21125D01*
X302020Y21124D01*
X302018Y21129D01*
X300889Y21476D01*
X300883Y21474D01*
X300880Y21478D01*
X299705Y21599D01*
X299698Y21595D01*
X299694Y21599D01*
X298354Y21442D01*
X298348Y21437D01*
X298343Y21440D01*
X297072Y20989D01*
X297067Y20982D01*
X297062Y20984D01*
X295923Y20262D01*
X295920Y20254D01*
X295914Y20255D01*
X294964Y19297D01*
X294963Y19289D01*
X294957Y19288D01*
X294244Y18143D01*
X294245Y18135D01*
X294239Y18133D01*
X293799Y16857D01*
X293801Y16850D01*
X293797Y16847D01*
X293651Y15505D01*
X293653Y15502D01*
X293651Y15500D01*
X293651Y9500D01*
X293653Y9497D01*
X293651Y9494D01*
X293806Y8165D01*
X293812Y8159D01*
X293809Y8155D01*
X294256Y6894D01*
X294263Y6889D01*
X294261Y6884D01*
X294978Y5754D01*
X294985Y5751D01*
X294984Y5745D01*
X295935Y4803D01*
X295943Y4802D01*
X295943Y4796D01*
X297079Y4089D01*
X297087Y4090D01*
X297089Y4084D01*
X298354Y3648D01*
X298359Y3649D01*
X298360Y3649D01*
X298363Y3649D01*
X298365Y3645D01*
X299695Y3501D01*
X299701Y3505D01*
X299705Y3501D01*
X300871Y3611D01*
G37*
G36*
X173871Y3611D02*
X173871Y3611D01*
X173876Y3616D01*
X173880Y3613D01*
X175003Y3948D01*
X175007Y3954D01*
X175011Y3952D01*
X176047Y4500D01*
X176050Y4506D01*
X176055Y4505D01*
X176963Y5244D01*
X176965Y5251D01*
X176970Y5251D01*
X177717Y6153D01*
X177717Y6161D01*
X177723Y6161D01*
X178279Y7192D01*
X178278Y7199D01*
X178283Y7201D01*
X178627Y8320D01*
X178625Y8327D01*
X178629Y8330D01*
X178749Y9495D01*
X178747Y9498D01*
X178749Y9500D01*
X178749Y15500D01*
X178747Y15503D01*
X178749Y15505D01*
X178638Y16681D01*
X178633Y16686D01*
X178636Y16690D01*
X178298Y17822D01*
X178292Y17826D01*
X178294Y17831D01*
X177742Y18875D01*
X177735Y18878D01*
X177737Y18883D01*
X176991Y19799D01*
X176984Y19800D01*
X176984Y19806D01*
X176075Y20559D01*
X176067Y20559D01*
X176067Y20564D01*
X175027Y21125D01*
X175020Y21124D01*
X175018Y21129D01*
X173889Y21476D01*
X173883Y21474D01*
X173880Y21478D01*
X172705Y21599D01*
X172698Y21595D01*
X172694Y21599D01*
X171354Y21442D01*
X171348Y21437D01*
X171343Y21440D01*
X170072Y20989D01*
X170067Y20982D01*
X170062Y20984D01*
X168923Y20262D01*
X168920Y20254D01*
X168914Y20255D01*
X167964Y19297D01*
X167963Y19289D01*
X167957Y19288D01*
X167244Y18143D01*
X167245Y18135D01*
X167239Y18133D01*
X166799Y16857D01*
X166801Y16850D01*
X166797Y16847D01*
X166651Y15505D01*
X166653Y15502D01*
X166651Y15500D01*
X166651Y9500D01*
X166653Y9497D01*
X166651Y9494D01*
X166806Y8165D01*
X166812Y8159D01*
X166809Y8155D01*
X167256Y6894D01*
X167263Y6889D01*
X167261Y6884D01*
X167978Y5754D01*
X167985Y5751D01*
X167984Y5745D01*
X168935Y4803D01*
X168943Y4802D01*
X168943Y4796D01*
X170079Y4089D01*
X170087Y4090D01*
X170089Y4084D01*
X171354Y3648D01*
X171359Y3649D01*
X171360Y3649D01*
X171363Y3649D01*
X171365Y3645D01*
X172695Y3501D01*
X172701Y3505D01*
X172705Y3501D01*
X173871Y3611D01*
G37*
G36*
X387271Y3611D02*
X387271Y3611D01*
X387276Y3616D01*
X387280Y3613D01*
X388403Y3948D01*
X388407Y3954D01*
X388411Y3952D01*
X389447Y4500D01*
X389450Y4506D01*
X389455Y4505D01*
X390363Y5244D01*
X390365Y5251D01*
X390370Y5251D01*
X391117Y6153D01*
X391117Y6161D01*
X391123Y6161D01*
X391679Y7192D01*
X391678Y7199D01*
X391683Y7201D01*
X392027Y8320D01*
X392025Y8327D01*
X392029Y8330D01*
X392149Y9495D01*
X392147Y9498D01*
X392149Y9500D01*
X392149Y15500D01*
X392147Y15503D01*
X392149Y15505D01*
X392038Y16681D01*
X392033Y16686D01*
X392036Y16690D01*
X391698Y17822D01*
X391692Y17826D01*
X391694Y17831D01*
X391142Y18875D01*
X391135Y18878D01*
X391137Y18883D01*
X390391Y19799D01*
X390384Y19800D01*
X390384Y19806D01*
X389475Y20559D01*
X389467Y20559D01*
X389467Y20564D01*
X388427Y21125D01*
X388420Y21124D01*
X388418Y21129D01*
X387289Y21476D01*
X387283Y21474D01*
X387280Y21478D01*
X386105Y21599D01*
X386098Y21595D01*
X386094Y21599D01*
X384754Y21442D01*
X384748Y21437D01*
X384743Y21440D01*
X383472Y20989D01*
X383467Y20982D01*
X383462Y20984D01*
X382323Y20262D01*
X382320Y20254D01*
X382314Y20255D01*
X381364Y19297D01*
X381363Y19289D01*
X381357Y19288D01*
X380644Y18143D01*
X380645Y18135D01*
X380639Y18133D01*
X380199Y16857D01*
X380201Y16850D01*
X380197Y16847D01*
X380051Y15505D01*
X380053Y15502D01*
X380051Y15500D01*
X380051Y9500D01*
X380053Y9497D01*
X380051Y9494D01*
X380206Y8165D01*
X380212Y8159D01*
X380209Y8155D01*
X380656Y6894D01*
X380663Y6889D01*
X380661Y6884D01*
X381378Y5754D01*
X381385Y5751D01*
X381384Y5745D01*
X382335Y4803D01*
X382343Y4802D01*
X382343Y4796D01*
X383479Y4089D01*
X383487Y4090D01*
X383489Y4084D01*
X384754Y3648D01*
X384759Y3649D01*
X384760Y3649D01*
X384763Y3649D01*
X384765Y3645D01*
X386095Y3501D01*
X386101Y3505D01*
X386105Y3501D01*
X387271Y3611D01*
G37*
G36*
X74504Y323254D02*
X74504Y323254D01*
X74507Y323251D01*
X75043Y323328D01*
X75050Y323335D01*
X75056Y323332D01*
X75554Y323545D01*
X75558Y323553D01*
X75565Y323552D01*
X75990Y323887D01*
X75993Y323896D01*
X75999Y323896D01*
X76324Y324330D01*
X76324Y324339D01*
X76330Y324341D01*
X76532Y324844D01*
X76529Y324853D01*
X76535Y324856D01*
X76599Y325394D01*
X76595Y325402D01*
X76599Y325406D01*
X76535Y325944D01*
X76528Y325951D01*
X76532Y325956D01*
X76330Y326459D01*
X76322Y326464D01*
X76324Y326470D01*
X75999Y326904D01*
X75990Y326907D01*
X75990Y326913D01*
X75565Y327248D01*
X75555Y327248D01*
X75554Y327255D01*
X75056Y327468D01*
X75046Y327466D01*
X75043Y327472D01*
X74507Y327549D01*
X74502Y327546D01*
X74500Y327549D01*
X66750Y327499D01*
X66703Y327463D01*
X66708Y327456D01*
X66701Y327450D01*
X66701Y323300D01*
X66737Y323253D01*
X66744Y323258D01*
X66750Y323251D01*
X74500Y323251D01*
X74504Y323254D01*
G37*
G36*
X479350Y459901D02*
X479350Y459901D01*
X479398Y459937D01*
X479392Y459944D01*
X479399Y459950D01*
X479399Y464100D01*
X479363Y464147D01*
X479356Y464142D01*
X479350Y464149D01*
X471600Y464149D01*
X471596Y464146D01*
X471593Y464149D01*
X471057Y464072D01*
X471050Y464065D01*
X471044Y464068D01*
X470546Y463855D01*
X470542Y463847D01*
X470535Y463848D01*
X470110Y463513D01*
X470107Y463504D01*
X470101Y463504D01*
X469776Y463070D01*
X469776Y463061D01*
X469770Y463059D01*
X469569Y462556D01*
X469571Y462547D01*
X469565Y462544D01*
X469501Y462006D01*
X469505Y461998D01*
X469501Y461994D01*
X469565Y461456D01*
X469572Y461449D01*
X469569Y461444D01*
X469770Y460941D01*
X469778Y460936D01*
X469776Y460930D01*
X470101Y460496D01*
X470110Y460493D01*
X470110Y460487D01*
X470535Y460152D01*
X470545Y460152D01*
X470546Y460145D01*
X471044Y459932D01*
X471054Y459934D01*
X471057Y459928D01*
X471593Y459851D01*
X471598Y459854D01*
X471600Y459851D01*
X479350Y459901D01*
G37*
G36*
X479397Y454937D02*
X479397Y454937D01*
X479392Y454944D01*
X479399Y454950D01*
X479399Y459050D01*
X479363Y459097D01*
X479356Y459092D01*
X479350Y459099D01*
X471600Y459149D01*
X471596Y459146D01*
X471593Y459149D01*
X471057Y459072D01*
X471050Y459065D01*
X471044Y459068D01*
X470546Y458855D01*
X470542Y458847D01*
X470535Y458848D01*
X470110Y458513D01*
X470107Y458504D01*
X470101Y458504D01*
X469776Y458070D01*
X469776Y458061D01*
X469770Y458059D01*
X469569Y457556D01*
X469571Y457547D01*
X469565Y457544D01*
X469501Y457006D01*
X469506Y456998D01*
X469501Y456994D01*
X469571Y456463D01*
X469578Y456456D01*
X469574Y456451D01*
X469779Y455956D01*
X469787Y455951D01*
X469786Y455945D01*
X470111Y455520D01*
X470121Y455518D01*
X470120Y455511D01*
X470545Y455186D01*
X470555Y455186D01*
X470556Y455179D01*
X471051Y454974D01*
X471060Y454977D01*
X471063Y454971D01*
X471594Y454901D01*
X471598Y454904D01*
X471600Y454901D01*
X479350Y454901D01*
X479397Y454937D01*
G37*
G36*
X74504Y328254D02*
X74504Y328254D01*
X74507Y328251D01*
X75043Y328328D01*
X75050Y328335D01*
X75056Y328332D01*
X75554Y328545D01*
X75558Y328553D01*
X75565Y328552D01*
X75990Y328887D01*
X75993Y328896D01*
X75999Y328896D01*
X76324Y329330D01*
X76324Y329339D01*
X76330Y329341D01*
X76532Y329844D01*
X76529Y329853D01*
X76535Y329856D01*
X76599Y330394D01*
X76594Y330402D01*
X76599Y330406D01*
X76529Y330937D01*
X76522Y330944D01*
X76526Y330949D01*
X76321Y331444D01*
X76313Y331449D01*
X76314Y331455D01*
X75989Y331880D01*
X75980Y331882D01*
X75980Y331889D01*
X75555Y332214D01*
X75546Y332214D01*
X75544Y332221D01*
X75049Y332426D01*
X75040Y332423D01*
X75037Y332429D01*
X74506Y332499D01*
X74502Y332496D01*
X74500Y332499D01*
X66750Y332499D01*
X66703Y332463D01*
X66708Y332456D01*
X66701Y332450D01*
X66701Y328350D01*
X66737Y328303D01*
X66744Y328308D01*
X66750Y328301D01*
X74500Y328251D01*
X74504Y328254D01*
G37*
G36*
X442854Y449904D02*
X442854Y449904D01*
X442857Y449901D01*
X443380Y449977D01*
X443387Y449983D01*
X443393Y449980D01*
X443879Y450189D01*
X443883Y450197D01*
X443890Y450195D01*
X444305Y450522D01*
X444307Y450531D01*
X444314Y450531D01*
X444631Y450955D01*
X444631Y450964D01*
X444637Y450966D01*
X444833Y451457D01*
X444832Y451461D01*
X444835Y451463D01*
X444832Y451467D01*
X444836Y451469D01*
X444899Y451994D01*
X444894Y452002D01*
X444899Y452006D01*
X444829Y452537D01*
X444822Y452544D01*
X444826Y452549D01*
X444621Y453044D01*
X444613Y453049D01*
X444614Y453055D01*
X444289Y453480D01*
X444280Y453482D01*
X444280Y453489D01*
X443855Y453814D01*
X443846Y453814D01*
X443844Y453821D01*
X443349Y454026D01*
X443340Y454023D01*
X443337Y454029D01*
X442806Y454099D01*
X442802Y454096D01*
X442800Y454099D01*
X435050Y454099D01*
X435003Y454063D01*
X435008Y454056D01*
X435001Y454050D01*
X435001Y449950D01*
X435037Y449903D01*
X435044Y449908D01*
X435050Y449901D01*
X442850Y449901D01*
X442854Y449904D01*
G37*
G36*
X111097Y333337D02*
X111097Y333337D01*
X111092Y333344D01*
X111099Y333350D01*
X111099Y337450D01*
X111063Y337497D01*
X111056Y337492D01*
X111050Y337499D01*
X103250Y337499D01*
X103246Y337496D01*
X103243Y337499D01*
X102720Y337423D01*
X102713Y337417D01*
X102707Y337420D01*
X102221Y337211D01*
X102217Y337203D01*
X102210Y337205D01*
X101795Y336878D01*
X101793Y336869D01*
X101786Y336869D01*
X101469Y336445D01*
X101469Y336436D01*
X101463Y336434D01*
X101267Y335943D01*
X101269Y335934D01*
X101264Y335931D01*
X101201Y335406D01*
X101206Y335398D01*
X101201Y335394D01*
X101271Y334863D01*
X101278Y334856D01*
X101274Y334851D01*
X101479Y334356D01*
X101487Y334351D01*
X101486Y334345D01*
X101811Y333920D01*
X101821Y333918D01*
X101820Y333911D01*
X102245Y333586D01*
X102255Y333586D01*
X102256Y333579D01*
X102751Y333374D01*
X102760Y333377D01*
X102763Y333371D01*
X103294Y333301D01*
X103298Y333304D01*
X103300Y333301D01*
X111050Y333301D01*
X111097Y333337D01*
G37*
G36*
X466797Y417337D02*
X466797Y417337D01*
X466792Y417344D01*
X466799Y417350D01*
X466799Y425100D01*
X466796Y425104D01*
X466799Y425106D01*
X466729Y425637D01*
X466722Y425644D01*
X466726Y425649D01*
X466521Y426144D01*
X466513Y426149D01*
X466514Y426155D01*
X466189Y426580D01*
X466180Y426582D01*
X466180Y426589D01*
X465755Y426914D01*
X465746Y426914D01*
X465744Y426921D01*
X465249Y427126D01*
X465240Y427123D01*
X465237Y427129D01*
X464706Y427199D01*
X464698Y427194D01*
X464694Y427199D01*
X464163Y427129D01*
X464156Y427122D01*
X464151Y427126D01*
X463656Y426921D01*
X463651Y426913D01*
X463645Y426914D01*
X463220Y426589D01*
X463218Y426580D01*
X463211Y426580D01*
X462886Y426155D01*
X462886Y426146D01*
X462879Y426144D01*
X462674Y425649D01*
X462677Y425641D01*
X462672Y425637D01*
X462671Y425637D01*
X462601Y425106D01*
X462604Y425102D01*
X462601Y425100D01*
X462601Y417350D01*
X462637Y417303D01*
X462644Y417308D01*
X462650Y417301D01*
X466750Y417301D01*
X466797Y417337D01*
G37*
G36*
X451797Y417337D02*
X451797Y417337D01*
X451792Y417344D01*
X451799Y417350D01*
X451799Y425100D01*
X451796Y425104D01*
X451799Y425106D01*
X451729Y425637D01*
X451722Y425644D01*
X451726Y425649D01*
X451521Y426144D01*
X451513Y426149D01*
X451514Y426155D01*
X451189Y426580D01*
X451180Y426582D01*
X451180Y426589D01*
X450755Y426914D01*
X450746Y426914D01*
X450744Y426921D01*
X450249Y427126D01*
X450240Y427123D01*
X450237Y427129D01*
X449706Y427199D01*
X449698Y427194D01*
X449694Y427199D01*
X449163Y427129D01*
X449156Y427122D01*
X449151Y427126D01*
X448656Y426921D01*
X448651Y426913D01*
X448645Y426914D01*
X448220Y426589D01*
X448218Y426580D01*
X448211Y426580D01*
X447886Y426155D01*
X447886Y426146D01*
X447879Y426144D01*
X447674Y425649D01*
X447677Y425641D01*
X447672Y425637D01*
X447671Y425637D01*
X447601Y425106D01*
X447604Y425102D01*
X447601Y425100D01*
X447601Y417350D01*
X447637Y417303D01*
X447644Y417308D01*
X447650Y417301D01*
X451750Y417301D01*
X451797Y417337D01*
G37*
G36*
X98497Y315737D02*
X98497Y315737D01*
X98492Y315744D01*
X98499Y315750D01*
X98499Y323500D01*
X98496Y323504D01*
X98499Y323506D01*
X98429Y324037D01*
X98422Y324044D01*
X98426Y324049D01*
X98221Y324544D01*
X98213Y324549D01*
X98214Y324555D01*
X97889Y324980D01*
X97880Y324982D01*
X97880Y324989D01*
X97455Y325314D01*
X97446Y325314D01*
X97444Y325321D01*
X96949Y325526D01*
X96940Y325523D01*
X96937Y325529D01*
X96406Y325599D01*
X96398Y325594D01*
X96394Y325599D01*
X95863Y325529D01*
X95856Y325522D01*
X95851Y325526D01*
X95356Y325321D01*
X95351Y325313D01*
X95345Y325314D01*
X94920Y324989D01*
X94918Y324980D01*
X94911Y324980D01*
X94586Y324555D01*
X94586Y324546D01*
X94579Y324544D01*
X94374Y324049D01*
X94377Y324041D01*
X94372Y324037D01*
X94371Y324037D01*
X94301Y323506D01*
X94304Y323502D01*
X94301Y323500D01*
X94301Y315750D01*
X94337Y315703D01*
X94344Y315708D01*
X94350Y315701D01*
X98450Y315701D01*
X98497Y315737D01*
G37*
G36*
X83497Y315737D02*
X83497Y315737D01*
X83492Y315744D01*
X83499Y315750D01*
X83499Y323500D01*
X83496Y323504D01*
X83499Y323506D01*
X83429Y324037D01*
X83422Y324044D01*
X83426Y324049D01*
X83221Y324544D01*
X83213Y324549D01*
X83214Y324555D01*
X82889Y324980D01*
X82880Y324982D01*
X82880Y324989D01*
X82455Y325314D01*
X82446Y325314D01*
X82444Y325321D01*
X81949Y325526D01*
X81940Y325523D01*
X81937Y325529D01*
X81406Y325599D01*
X81398Y325594D01*
X81394Y325599D01*
X80863Y325529D01*
X80856Y325522D01*
X80851Y325526D01*
X80356Y325321D01*
X80351Y325313D01*
X80345Y325314D01*
X79920Y324989D01*
X79918Y324980D01*
X79911Y324980D01*
X79586Y324555D01*
X79586Y324546D01*
X79579Y324544D01*
X79374Y324049D01*
X79377Y324041D01*
X79372Y324037D01*
X79371Y324037D01*
X79301Y323506D01*
X79304Y323502D01*
X79301Y323500D01*
X79301Y315750D01*
X79337Y315703D01*
X79344Y315708D01*
X79350Y315701D01*
X83450Y315701D01*
X83497Y315737D01*
G37*
G36*
X442804Y439904D02*
X442804Y439904D01*
X442806Y439901D01*
X443337Y439971D01*
X443344Y439978D01*
X443349Y439974D01*
X443844Y440179D01*
X443849Y440187D01*
X443855Y440186D01*
X444280Y440511D01*
X444282Y440521D01*
X444289Y440520D01*
X444614Y440945D01*
X444614Y440955D01*
X444621Y440956D01*
X444826Y441451D01*
X444823Y441460D01*
X444825Y441460D01*
X444829Y441463D01*
X444899Y441994D01*
X444894Y442002D01*
X444899Y442006D01*
X444829Y442537D01*
X444822Y442544D01*
X444826Y442549D01*
X444621Y443044D01*
X444613Y443049D01*
X444614Y443055D01*
X444289Y443480D01*
X444280Y443482D01*
X444280Y443489D01*
X443855Y443814D01*
X443846Y443814D01*
X443844Y443821D01*
X443349Y444026D01*
X443340Y444023D01*
X443337Y444029D01*
X442806Y444099D01*
X442802Y444096D01*
X442800Y444099D01*
X435050Y444099D01*
X435003Y444063D01*
X435008Y444056D01*
X435001Y444050D01*
X435001Y439950D01*
X435037Y439903D01*
X435044Y439908D01*
X435050Y439901D01*
X442800Y439901D01*
X442804Y439904D01*
G37*
G36*
X442804Y429904D02*
X442804Y429904D01*
X442806Y429901D01*
X443337Y429971D01*
X443344Y429978D01*
X443349Y429974D01*
X443844Y430179D01*
X443849Y430187D01*
X443855Y430186D01*
X444280Y430511D01*
X444282Y430521D01*
X444289Y430520D01*
X444614Y430945D01*
X444614Y430955D01*
X444621Y430956D01*
X444826Y431451D01*
X444823Y431460D01*
X444825Y431460D01*
X444829Y431463D01*
X444899Y431994D01*
X444894Y432002D01*
X444899Y432006D01*
X444829Y432537D01*
X444822Y432544D01*
X444826Y432549D01*
X444621Y433044D01*
X444613Y433049D01*
X444614Y433055D01*
X444289Y433480D01*
X444280Y433482D01*
X444280Y433489D01*
X443855Y433814D01*
X443846Y433814D01*
X443844Y433821D01*
X443349Y434026D01*
X443340Y434023D01*
X443337Y434029D01*
X442806Y434099D01*
X442802Y434096D01*
X442800Y434099D01*
X435050Y434099D01*
X435003Y434063D01*
X435008Y434056D01*
X435001Y434050D01*
X435001Y429950D01*
X435037Y429903D01*
X435044Y429908D01*
X435050Y429901D01*
X442800Y429901D01*
X442804Y429904D01*
G37*
G36*
X442804Y424904D02*
X442804Y424904D01*
X442806Y424901D01*
X443337Y424971D01*
X443344Y424978D01*
X443349Y424974D01*
X443844Y425179D01*
X443849Y425187D01*
X443855Y425186D01*
X444280Y425511D01*
X444282Y425521D01*
X444289Y425520D01*
X444614Y425945D01*
X444614Y425955D01*
X444621Y425956D01*
X444826Y426451D01*
X444823Y426460D01*
X444825Y426460D01*
X444829Y426463D01*
X444899Y426994D01*
X444894Y427002D01*
X444899Y427006D01*
X444829Y427537D01*
X444822Y427544D01*
X444826Y427549D01*
X444621Y428044D01*
X444613Y428049D01*
X444614Y428055D01*
X444289Y428480D01*
X444280Y428482D01*
X444280Y428489D01*
X443855Y428814D01*
X443846Y428814D01*
X443844Y428821D01*
X443349Y429026D01*
X443340Y429023D01*
X443337Y429029D01*
X442806Y429099D01*
X442802Y429096D01*
X442800Y429099D01*
X435050Y429099D01*
X435003Y429063D01*
X435008Y429056D01*
X435001Y429050D01*
X435001Y424950D01*
X435037Y424903D01*
X435044Y424908D01*
X435050Y424901D01*
X442800Y424901D01*
X442804Y424904D01*
G37*
G36*
X81937Y360271D02*
X81937Y360271D01*
X81944Y360278D01*
X81949Y360274D01*
X82444Y360479D01*
X82449Y360487D01*
X82455Y360486D01*
X82880Y360811D01*
X82882Y360821D01*
X82889Y360820D01*
X83214Y361245D01*
X83214Y361255D01*
X83221Y361256D01*
X83426Y361751D01*
X83423Y361760D01*
X83425Y361760D01*
X83429Y361763D01*
X83499Y362294D01*
X83496Y362298D01*
X83499Y362300D01*
X83499Y370050D01*
X83463Y370097D01*
X83456Y370092D01*
X83450Y370099D01*
X79350Y370099D01*
X79303Y370063D01*
X79308Y370056D01*
X79301Y370050D01*
X79301Y362300D01*
X79304Y362296D01*
X79301Y362294D01*
X79371Y361763D01*
X79378Y361756D01*
X79374Y361751D01*
X79579Y361256D01*
X79587Y361251D01*
X79586Y361245D01*
X79911Y360820D01*
X79921Y360818D01*
X79920Y360811D01*
X80345Y360486D01*
X80355Y360486D01*
X80356Y360479D01*
X80851Y360274D01*
X80860Y360277D01*
X80863Y360271D01*
X81394Y360201D01*
X81402Y360206D01*
X81406Y360201D01*
X81937Y360271D01*
G37*
G36*
X96937Y360271D02*
X96937Y360271D01*
X96944Y360278D01*
X96949Y360274D01*
X97444Y360479D01*
X97449Y360487D01*
X97455Y360486D01*
X97880Y360811D01*
X97882Y360821D01*
X97889Y360820D01*
X98214Y361245D01*
X98214Y361255D01*
X98221Y361256D01*
X98426Y361751D01*
X98423Y361760D01*
X98425Y361760D01*
X98429Y361763D01*
X98499Y362294D01*
X98496Y362298D01*
X98499Y362300D01*
X98499Y370050D01*
X98463Y370097D01*
X98456Y370092D01*
X98450Y370099D01*
X94350Y370099D01*
X94303Y370063D01*
X94308Y370056D01*
X94301Y370050D01*
X94301Y362300D01*
X94304Y362296D01*
X94301Y362294D01*
X94371Y361763D01*
X94378Y361756D01*
X94374Y361751D01*
X94579Y361256D01*
X94587Y361251D01*
X94586Y361245D01*
X94911Y360820D01*
X94921Y360818D01*
X94920Y360811D01*
X95345Y360486D01*
X95355Y360486D01*
X95356Y360479D01*
X95851Y360274D01*
X95860Y360277D01*
X95863Y360271D01*
X96394Y360201D01*
X96402Y360206D01*
X96406Y360201D01*
X96937Y360271D01*
G37*
G36*
X74504Y358304D02*
X74504Y358304D01*
X74506Y358301D01*
X75037Y358371D01*
X75044Y358378D01*
X75049Y358374D01*
X75544Y358579D01*
X75549Y358587D01*
X75555Y358586D01*
X75980Y358911D01*
X75982Y358921D01*
X75989Y358920D01*
X76314Y359345D01*
X76314Y359355D01*
X76321Y359356D01*
X76526Y359851D01*
X76523Y359860D01*
X76525Y359860D01*
X76529Y359863D01*
X76599Y360394D01*
X76594Y360402D01*
X76599Y360406D01*
X76529Y360937D01*
X76522Y360944D01*
X76526Y360949D01*
X76321Y361444D01*
X76313Y361449D01*
X76314Y361455D01*
X75989Y361880D01*
X75980Y361882D01*
X75980Y361889D01*
X75555Y362214D01*
X75546Y362214D01*
X75544Y362221D01*
X75049Y362426D01*
X75040Y362423D01*
X75037Y362429D01*
X74506Y362499D01*
X74502Y362496D01*
X74500Y362499D01*
X66750Y362499D01*
X66703Y362463D01*
X66708Y362456D01*
X66701Y362450D01*
X66701Y358350D01*
X66737Y358303D01*
X66744Y358308D01*
X66750Y358301D01*
X74500Y358301D01*
X74504Y358304D01*
G37*
G36*
X442804Y434904D02*
X442804Y434904D01*
X442806Y434901D01*
X443337Y434971D01*
X443344Y434978D01*
X443349Y434974D01*
X443844Y435179D01*
X443849Y435187D01*
X443855Y435186D01*
X444280Y435511D01*
X444282Y435521D01*
X444289Y435520D01*
X444614Y435945D01*
X444614Y435955D01*
X444621Y435956D01*
X444826Y436451D01*
X444823Y436460D01*
X444825Y436460D01*
X444829Y436463D01*
X444899Y436994D01*
X444894Y437002D01*
X444899Y437006D01*
X444829Y437537D01*
X444822Y437544D01*
X444826Y437549D01*
X444621Y438044D01*
X444613Y438049D01*
X444614Y438055D01*
X444289Y438480D01*
X444280Y438482D01*
X444280Y438489D01*
X443855Y438814D01*
X443846Y438814D01*
X443844Y438821D01*
X443349Y439026D01*
X443340Y439023D01*
X443337Y439029D01*
X442806Y439099D01*
X442802Y439096D01*
X442800Y439099D01*
X435050Y439099D01*
X435003Y439063D01*
X435008Y439056D01*
X435001Y439050D01*
X435001Y434950D01*
X435037Y434903D01*
X435044Y434908D01*
X435050Y434901D01*
X442800Y434901D01*
X442804Y434904D01*
G37*
G36*
X74504Y348304D02*
X74504Y348304D01*
X74506Y348301D01*
X75037Y348371D01*
X75044Y348378D01*
X75049Y348374D01*
X75544Y348579D01*
X75549Y348587D01*
X75555Y348586D01*
X75980Y348911D01*
X75982Y348921D01*
X75989Y348920D01*
X76314Y349345D01*
X76314Y349355D01*
X76321Y349356D01*
X76526Y349851D01*
X76523Y349860D01*
X76525Y349860D01*
X76529Y349863D01*
X76599Y350394D01*
X76594Y350402D01*
X76599Y350406D01*
X76529Y350937D01*
X76522Y350944D01*
X76526Y350949D01*
X76321Y351444D01*
X76313Y351449D01*
X76314Y351455D01*
X75989Y351880D01*
X75980Y351882D01*
X75980Y351889D01*
X75555Y352214D01*
X75546Y352214D01*
X75544Y352221D01*
X75049Y352426D01*
X75040Y352423D01*
X75037Y352429D01*
X74506Y352499D01*
X74502Y352496D01*
X74500Y352499D01*
X66750Y352499D01*
X66703Y352463D01*
X66708Y352456D01*
X66701Y352450D01*
X66701Y348350D01*
X66737Y348303D01*
X66744Y348308D01*
X66750Y348301D01*
X74500Y348301D01*
X74504Y348304D01*
G37*
G36*
X74504Y343304D02*
X74504Y343304D01*
X74506Y343301D01*
X75037Y343371D01*
X75044Y343378D01*
X75049Y343374D01*
X75544Y343579D01*
X75549Y343587D01*
X75555Y343586D01*
X75980Y343911D01*
X75982Y343921D01*
X75989Y343920D01*
X76314Y344345D01*
X76314Y344355D01*
X76321Y344356D01*
X76526Y344851D01*
X76523Y344860D01*
X76525Y344860D01*
X76529Y344863D01*
X76599Y345394D01*
X76594Y345402D01*
X76599Y345406D01*
X76529Y345937D01*
X76522Y345944D01*
X76526Y345949D01*
X76321Y346444D01*
X76313Y346449D01*
X76314Y346455D01*
X75989Y346880D01*
X75980Y346882D01*
X75980Y346889D01*
X75555Y347214D01*
X75546Y347214D01*
X75544Y347221D01*
X75049Y347426D01*
X75040Y347423D01*
X75037Y347429D01*
X74506Y347499D01*
X74502Y347496D01*
X74500Y347499D01*
X66750Y347499D01*
X66703Y347463D01*
X66708Y347456D01*
X66701Y347450D01*
X66701Y343350D01*
X66737Y343303D01*
X66744Y343308D01*
X66750Y343301D01*
X74500Y343301D01*
X74504Y343304D01*
G37*
G36*
X74504Y338304D02*
X74504Y338304D01*
X74506Y338301D01*
X75037Y338371D01*
X75044Y338378D01*
X75049Y338374D01*
X75544Y338579D01*
X75549Y338587D01*
X75555Y338586D01*
X75980Y338911D01*
X75982Y338921D01*
X75989Y338920D01*
X76314Y339345D01*
X76314Y339355D01*
X76321Y339356D01*
X76526Y339851D01*
X76523Y339860D01*
X76525Y339860D01*
X76529Y339863D01*
X76599Y340394D01*
X76594Y340402D01*
X76599Y340406D01*
X76529Y340937D01*
X76522Y340944D01*
X76526Y340949D01*
X76321Y341444D01*
X76313Y341449D01*
X76314Y341455D01*
X75989Y341880D01*
X75980Y341882D01*
X75980Y341889D01*
X75555Y342214D01*
X75546Y342214D01*
X75544Y342221D01*
X75049Y342426D01*
X75040Y342423D01*
X75037Y342429D01*
X74506Y342499D01*
X74502Y342496D01*
X74500Y342499D01*
X66750Y342499D01*
X66703Y342463D01*
X66708Y342456D01*
X66701Y342450D01*
X66701Y338350D01*
X66737Y338303D01*
X66744Y338308D01*
X66750Y338301D01*
X74500Y338301D01*
X74504Y338304D01*
G37*
G36*
X74504Y333304D02*
X74504Y333304D01*
X74506Y333301D01*
X75037Y333371D01*
X75044Y333378D01*
X75049Y333374D01*
X75544Y333579D01*
X75549Y333587D01*
X75555Y333586D01*
X75980Y333911D01*
X75982Y333921D01*
X75989Y333920D01*
X76314Y334345D01*
X76314Y334355D01*
X76321Y334356D01*
X76526Y334851D01*
X76523Y334860D01*
X76525Y334860D01*
X76529Y334863D01*
X76599Y335394D01*
X76594Y335402D01*
X76599Y335406D01*
X76529Y335937D01*
X76522Y335944D01*
X76526Y335949D01*
X76321Y336444D01*
X76313Y336449D01*
X76314Y336455D01*
X75989Y336880D01*
X75980Y336882D01*
X75980Y336889D01*
X75555Y337214D01*
X75546Y337214D01*
X75544Y337221D01*
X75049Y337426D01*
X75040Y337423D01*
X75037Y337429D01*
X74506Y337499D01*
X74502Y337496D01*
X74500Y337499D01*
X66750Y337499D01*
X66703Y337463D01*
X66708Y337456D01*
X66701Y337450D01*
X66701Y333350D01*
X66737Y333303D01*
X66744Y333308D01*
X66750Y333301D01*
X74500Y333301D01*
X74504Y333304D01*
G37*
G36*
X74504Y353304D02*
X74504Y353304D01*
X74506Y353301D01*
X75037Y353371D01*
X75044Y353378D01*
X75049Y353374D01*
X75544Y353579D01*
X75549Y353587D01*
X75555Y353586D01*
X75980Y353911D01*
X75982Y353921D01*
X75989Y353920D01*
X76314Y354345D01*
X76314Y354355D01*
X76321Y354356D01*
X76526Y354851D01*
X76523Y354860D01*
X76525Y354860D01*
X76529Y354863D01*
X76599Y355394D01*
X76594Y355402D01*
X76599Y355406D01*
X76529Y355937D01*
X76522Y355944D01*
X76526Y355949D01*
X76321Y356444D01*
X76313Y356449D01*
X76314Y356455D01*
X75989Y356880D01*
X75980Y356882D01*
X75980Y356889D01*
X75555Y357214D01*
X75546Y357214D01*
X75544Y357221D01*
X75049Y357426D01*
X75040Y357423D01*
X75037Y357429D01*
X74506Y357499D01*
X74502Y357496D01*
X74500Y357499D01*
X66750Y357499D01*
X66703Y357463D01*
X66708Y357456D01*
X66701Y357450D01*
X66701Y353350D01*
X66737Y353303D01*
X66744Y353308D01*
X66750Y353301D01*
X74500Y353301D01*
X74504Y353304D01*
G37*
G36*
X450237Y461871D02*
X450237Y461871D01*
X450244Y461878D01*
X450249Y461874D01*
X450744Y462079D01*
X450749Y462087D01*
X450755Y462086D01*
X451180Y462411D01*
X451182Y462421D01*
X451189Y462420D01*
X451514Y462845D01*
X451514Y462855D01*
X451521Y462856D01*
X451726Y463351D01*
X451723Y463360D01*
X451725Y463360D01*
X451729Y463363D01*
X451799Y463894D01*
X451796Y463898D01*
X451799Y463900D01*
X451799Y471650D01*
X451763Y471697D01*
X451756Y471692D01*
X451750Y471699D01*
X447650Y471699D01*
X447603Y471663D01*
X447608Y471656D01*
X447601Y471650D01*
X447601Y463900D01*
X447604Y463896D01*
X447601Y463894D01*
X447671Y463363D01*
X447678Y463356D01*
X447674Y463351D01*
X447879Y462856D01*
X447887Y462851D01*
X447886Y462845D01*
X448211Y462420D01*
X448221Y462418D01*
X448220Y462411D01*
X448645Y462086D01*
X448655Y462086D01*
X448656Y462079D01*
X449151Y461874D01*
X449160Y461877D01*
X449163Y461871D01*
X449694Y461801D01*
X449702Y461806D01*
X449706Y461801D01*
X450237Y461871D01*
G37*
G36*
X465237Y461871D02*
X465237Y461871D01*
X465244Y461878D01*
X465249Y461874D01*
X465744Y462079D01*
X465749Y462087D01*
X465755Y462086D01*
X466180Y462411D01*
X466182Y462421D01*
X466189Y462420D01*
X466514Y462845D01*
X466514Y462855D01*
X466521Y462856D01*
X466726Y463351D01*
X466723Y463360D01*
X466725Y463360D01*
X466729Y463363D01*
X466799Y463894D01*
X466796Y463898D01*
X466799Y463900D01*
X466799Y471650D01*
X466763Y471697D01*
X466756Y471692D01*
X466750Y471699D01*
X462650Y471699D01*
X462603Y471663D01*
X462608Y471656D01*
X462601Y471650D01*
X462601Y463900D01*
X462604Y463896D01*
X462601Y463894D01*
X462671Y463363D01*
X462678Y463356D01*
X462674Y463351D01*
X462879Y462856D01*
X462887Y462851D01*
X462886Y462845D01*
X463211Y462420D01*
X463221Y462418D01*
X463220Y462411D01*
X463645Y462086D01*
X463655Y462086D01*
X463656Y462079D01*
X464151Y461874D01*
X464160Y461877D01*
X464163Y461871D01*
X464694Y461801D01*
X464702Y461806D01*
X464706Y461801D01*
X465237Y461871D01*
G37*
G36*
X442804Y454904D02*
X442804Y454904D01*
X442806Y454901D01*
X443337Y454971D01*
X443344Y454978D01*
X443349Y454974D01*
X443844Y455179D01*
X443849Y455187D01*
X443855Y455186D01*
X444280Y455511D01*
X444282Y455521D01*
X444289Y455520D01*
X444614Y455945D01*
X444614Y455955D01*
X444621Y455956D01*
X444826Y456451D01*
X444823Y456460D01*
X444825Y456460D01*
X444829Y456463D01*
X444899Y456994D01*
X444894Y457002D01*
X444899Y457006D01*
X444829Y457537D01*
X444822Y457544D01*
X444826Y457549D01*
X444621Y458044D01*
X444613Y458049D01*
X444614Y458055D01*
X444289Y458480D01*
X444280Y458482D01*
X444280Y458489D01*
X443855Y458814D01*
X443846Y458814D01*
X443844Y458821D01*
X443349Y459026D01*
X443340Y459023D01*
X443337Y459029D01*
X442806Y459099D01*
X442802Y459096D01*
X442800Y459099D01*
X435050Y459099D01*
X435003Y459063D01*
X435008Y459056D01*
X435001Y459050D01*
X435001Y454950D01*
X435037Y454903D01*
X435044Y454908D01*
X435050Y454901D01*
X442800Y454901D01*
X442804Y454904D01*
G37*
G36*
X442804Y444904D02*
X442804Y444904D01*
X442806Y444901D01*
X443337Y444971D01*
X443344Y444978D01*
X443349Y444974D01*
X443844Y445179D01*
X443849Y445187D01*
X443855Y445186D01*
X444280Y445511D01*
X444282Y445521D01*
X444289Y445520D01*
X444614Y445945D01*
X444614Y445955D01*
X444621Y445956D01*
X444826Y446451D01*
X444823Y446460D01*
X444825Y446460D01*
X444829Y446463D01*
X444899Y446994D01*
X444894Y447002D01*
X444899Y447006D01*
X444829Y447537D01*
X444822Y447544D01*
X444826Y447549D01*
X444621Y448044D01*
X444613Y448049D01*
X444614Y448055D01*
X444289Y448480D01*
X444280Y448482D01*
X444280Y448489D01*
X443855Y448814D01*
X443846Y448814D01*
X443844Y448821D01*
X443349Y449026D01*
X443340Y449023D01*
X443337Y449029D01*
X442806Y449099D01*
X442802Y449096D01*
X442800Y449099D01*
X435050Y449099D01*
X435003Y449063D01*
X435008Y449056D01*
X435001Y449050D01*
X435001Y444950D01*
X435037Y444903D01*
X435044Y444908D01*
X435050Y444901D01*
X442800Y444901D01*
X442804Y444904D01*
G37*
G36*
X111097Y328337D02*
X111097Y328337D01*
X111092Y328344D01*
X111099Y328350D01*
X111099Y332450D01*
X111063Y332497D01*
X111056Y332492D01*
X111050Y332499D01*
X103300Y332499D01*
X103296Y332496D01*
X103294Y332499D01*
X102763Y332429D01*
X102756Y332422D01*
X102751Y332426D01*
X102256Y332221D01*
X102251Y332213D01*
X102245Y332214D01*
X101820Y331889D01*
X101818Y331880D01*
X101811Y331880D01*
X101486Y331455D01*
X101486Y331446D01*
X101479Y331444D01*
X101274Y330949D01*
X101277Y330940D01*
X101271Y330937D01*
X101201Y330406D01*
X101206Y330398D01*
X101201Y330394D01*
X101271Y329863D01*
X101278Y329856D01*
X101274Y329851D01*
X101479Y329356D01*
X101487Y329351D01*
X101486Y329345D01*
X101811Y328920D01*
X101821Y328918D01*
X101820Y328911D01*
X102245Y328586D01*
X102255Y328586D01*
X102256Y328579D01*
X102751Y328374D01*
X102760Y328377D01*
X102763Y328371D01*
X103294Y328301D01*
X103298Y328304D01*
X103300Y328301D01*
X111050Y328301D01*
X111097Y328337D01*
G37*
G36*
X479397Y424937D02*
X479397Y424937D01*
X479392Y424944D01*
X479399Y424950D01*
X479399Y429050D01*
X479363Y429097D01*
X479356Y429092D01*
X479350Y429099D01*
X471600Y429099D01*
X471596Y429096D01*
X471594Y429099D01*
X471063Y429029D01*
X471056Y429022D01*
X471051Y429026D01*
X470556Y428821D01*
X470551Y428813D01*
X470545Y428814D01*
X470120Y428489D01*
X470118Y428480D01*
X470111Y428480D01*
X469786Y428055D01*
X469786Y428046D01*
X469779Y428044D01*
X469574Y427549D01*
X469577Y427540D01*
X469571Y427537D01*
X469501Y427006D01*
X469506Y426998D01*
X469501Y426994D01*
X469571Y426463D01*
X469578Y426456D01*
X469574Y426451D01*
X469779Y425956D01*
X469787Y425951D01*
X469786Y425945D01*
X470111Y425520D01*
X470121Y425518D01*
X470120Y425511D01*
X470545Y425186D01*
X470555Y425186D01*
X470556Y425179D01*
X471051Y424974D01*
X471060Y424977D01*
X471063Y424971D01*
X471594Y424901D01*
X471598Y424904D01*
X471600Y424901D01*
X479350Y424901D01*
X479397Y424937D01*
G37*
G36*
X479397Y429937D02*
X479397Y429937D01*
X479392Y429944D01*
X479399Y429950D01*
X479399Y434050D01*
X479363Y434097D01*
X479356Y434092D01*
X479350Y434099D01*
X471600Y434099D01*
X471596Y434096D01*
X471594Y434099D01*
X471063Y434029D01*
X471056Y434022D01*
X471051Y434026D01*
X470556Y433821D01*
X470551Y433813D01*
X470545Y433814D01*
X470120Y433489D01*
X470118Y433480D01*
X470111Y433480D01*
X469786Y433055D01*
X469786Y433046D01*
X469779Y433044D01*
X469574Y432549D01*
X469577Y432540D01*
X469571Y432537D01*
X469501Y432006D01*
X469506Y431998D01*
X469501Y431994D01*
X469571Y431463D01*
X469578Y431456D01*
X469574Y431451D01*
X469779Y430956D01*
X469787Y430951D01*
X469786Y430945D01*
X470111Y430520D01*
X470121Y430518D01*
X470120Y430511D01*
X470545Y430186D01*
X470555Y430186D01*
X470556Y430179D01*
X471051Y429974D01*
X471060Y429977D01*
X471063Y429971D01*
X471594Y429901D01*
X471598Y429904D01*
X471600Y429901D01*
X479350Y429901D01*
X479397Y429937D01*
G37*
G36*
X479397Y434937D02*
X479397Y434937D01*
X479392Y434944D01*
X479399Y434950D01*
X479399Y439050D01*
X479363Y439097D01*
X479356Y439092D01*
X479350Y439099D01*
X471600Y439099D01*
X471596Y439096D01*
X471594Y439099D01*
X471063Y439029D01*
X471056Y439022D01*
X471051Y439026D01*
X470556Y438821D01*
X470551Y438813D01*
X470545Y438814D01*
X470120Y438489D01*
X470118Y438480D01*
X470111Y438480D01*
X469786Y438055D01*
X469786Y438046D01*
X469779Y438044D01*
X469574Y437549D01*
X469577Y437540D01*
X469571Y437537D01*
X469501Y437006D01*
X469506Y436998D01*
X469501Y436994D01*
X469571Y436463D01*
X469578Y436456D01*
X469574Y436451D01*
X469779Y435956D01*
X469787Y435951D01*
X469786Y435945D01*
X470111Y435520D01*
X470121Y435518D01*
X470120Y435511D01*
X470545Y435186D01*
X470555Y435186D01*
X470556Y435179D01*
X471051Y434974D01*
X471060Y434977D01*
X471063Y434971D01*
X471594Y434901D01*
X471598Y434904D01*
X471600Y434901D01*
X479350Y434901D01*
X479397Y434937D01*
G37*
G36*
X479397Y449937D02*
X479397Y449937D01*
X479392Y449944D01*
X479399Y449950D01*
X479399Y454050D01*
X479363Y454097D01*
X479356Y454092D01*
X479350Y454099D01*
X471600Y454099D01*
X471596Y454096D01*
X471594Y454099D01*
X471063Y454029D01*
X471056Y454022D01*
X471051Y454026D01*
X470556Y453821D01*
X470551Y453813D01*
X470545Y453814D01*
X470120Y453489D01*
X470118Y453480D01*
X470111Y453480D01*
X469786Y453055D01*
X469786Y453046D01*
X469779Y453044D01*
X469574Y452549D01*
X469577Y452540D01*
X469571Y452537D01*
X469501Y452006D01*
X469506Y451998D01*
X469501Y451994D01*
X469571Y451463D01*
X469578Y451456D01*
X469574Y451451D01*
X469779Y450956D01*
X469787Y450951D01*
X469786Y450945D01*
X470111Y450520D01*
X470121Y450518D01*
X470120Y450511D01*
X470545Y450186D01*
X470555Y450186D01*
X470556Y450179D01*
X471051Y449974D01*
X471060Y449977D01*
X471063Y449971D01*
X471594Y449901D01*
X471598Y449904D01*
X471600Y449901D01*
X479350Y449901D01*
X479397Y449937D01*
G37*
G36*
X479397Y439937D02*
X479397Y439937D01*
X479392Y439944D01*
X479399Y439950D01*
X479399Y444050D01*
X479363Y444097D01*
X479356Y444092D01*
X479350Y444099D01*
X471600Y444099D01*
X471596Y444096D01*
X471594Y444099D01*
X471063Y444029D01*
X471056Y444022D01*
X471051Y444026D01*
X470556Y443821D01*
X470551Y443813D01*
X470545Y443814D01*
X470120Y443489D01*
X470118Y443480D01*
X470111Y443480D01*
X469786Y443055D01*
X469786Y443046D01*
X469779Y443044D01*
X469574Y442549D01*
X469577Y442540D01*
X469571Y442537D01*
X469501Y442006D01*
X469506Y441998D01*
X469501Y441994D01*
X469571Y441463D01*
X469578Y441456D01*
X469574Y441451D01*
X469779Y440956D01*
X469787Y440951D01*
X469786Y440945D01*
X470111Y440520D01*
X470121Y440518D01*
X470120Y440511D01*
X470545Y440186D01*
X470555Y440186D01*
X470556Y440179D01*
X471051Y439974D01*
X471060Y439977D01*
X471063Y439971D01*
X471594Y439901D01*
X471598Y439904D01*
X471600Y439901D01*
X479350Y439901D01*
X479397Y439937D01*
G37*
G36*
X111097Y343337D02*
X111097Y343337D01*
X111092Y343344D01*
X111099Y343350D01*
X111099Y347450D01*
X111063Y347497D01*
X111056Y347492D01*
X111050Y347499D01*
X103300Y347499D01*
X103296Y347496D01*
X103294Y347499D01*
X102763Y347429D01*
X102756Y347422D01*
X102751Y347426D01*
X102256Y347221D01*
X102251Y347213D01*
X102245Y347214D01*
X101820Y346889D01*
X101818Y346880D01*
X101811Y346880D01*
X101486Y346455D01*
X101486Y346446D01*
X101479Y346444D01*
X101274Y345949D01*
X101277Y345940D01*
X101271Y345937D01*
X101201Y345406D01*
X101206Y345398D01*
X101201Y345394D01*
X101271Y344863D01*
X101278Y344856D01*
X101274Y344851D01*
X101479Y344356D01*
X101487Y344351D01*
X101486Y344345D01*
X101811Y343920D01*
X101821Y343918D01*
X101820Y343911D01*
X102245Y343586D01*
X102255Y343586D01*
X102256Y343579D01*
X102751Y343374D01*
X102760Y343377D01*
X102763Y343371D01*
X103294Y343301D01*
X103298Y343304D01*
X103300Y343301D01*
X111050Y343301D01*
X111097Y343337D01*
G37*
G36*
X479397Y444937D02*
X479397Y444937D01*
X479392Y444944D01*
X479399Y444950D01*
X479399Y449050D01*
X479363Y449097D01*
X479356Y449092D01*
X479350Y449099D01*
X471600Y449099D01*
X471596Y449096D01*
X471594Y449099D01*
X471063Y449029D01*
X471056Y449022D01*
X471051Y449026D01*
X470556Y448821D01*
X470551Y448813D01*
X470545Y448814D01*
X470120Y448489D01*
X470118Y448480D01*
X470111Y448480D01*
X469786Y448055D01*
X469786Y448046D01*
X469779Y448044D01*
X469574Y447549D01*
X469577Y447540D01*
X469571Y447537D01*
X469501Y447006D01*
X469506Y446998D01*
X469501Y446994D01*
X469571Y446463D01*
X469578Y446456D01*
X469574Y446451D01*
X469779Y445956D01*
X469787Y445951D01*
X469786Y445945D01*
X470111Y445520D01*
X470121Y445518D01*
X470120Y445511D01*
X470545Y445186D01*
X470555Y445186D01*
X470556Y445179D01*
X471051Y444974D01*
X471060Y444977D01*
X471063Y444971D01*
X471594Y444901D01*
X471598Y444904D01*
X471600Y444901D01*
X479350Y444901D01*
X479397Y444937D01*
G37*
G36*
X111097Y338337D02*
X111097Y338337D01*
X111092Y338344D01*
X111099Y338350D01*
X111099Y342450D01*
X111063Y342497D01*
X111056Y342492D01*
X111050Y342499D01*
X103300Y342499D01*
X103296Y342496D01*
X103294Y342499D01*
X102763Y342429D01*
X102756Y342422D01*
X102751Y342426D01*
X102256Y342221D01*
X102251Y342213D01*
X102245Y342214D01*
X101820Y341889D01*
X101818Y341880D01*
X101811Y341880D01*
X101486Y341455D01*
X101486Y341446D01*
X101479Y341444D01*
X101274Y340949D01*
X101277Y340940D01*
X101271Y340937D01*
X101201Y340406D01*
X101206Y340398D01*
X101201Y340394D01*
X101271Y339863D01*
X101278Y339856D01*
X101274Y339851D01*
X101479Y339356D01*
X101487Y339351D01*
X101486Y339345D01*
X101811Y338920D01*
X101821Y338918D01*
X101820Y338911D01*
X102245Y338586D01*
X102255Y338586D01*
X102256Y338579D01*
X102751Y338374D01*
X102760Y338377D01*
X102763Y338371D01*
X103294Y338301D01*
X103298Y338304D01*
X103300Y338301D01*
X111050Y338301D01*
X111097Y338337D01*
G37*
G36*
X111097Y348337D02*
X111097Y348337D01*
X111092Y348344D01*
X111099Y348350D01*
X111099Y352450D01*
X111063Y352497D01*
X111056Y352492D01*
X111050Y352499D01*
X103300Y352499D01*
X103296Y352496D01*
X103294Y352499D01*
X102763Y352429D01*
X102756Y352422D01*
X102751Y352426D01*
X102256Y352221D01*
X102251Y352213D01*
X102245Y352214D01*
X101820Y351889D01*
X101818Y351880D01*
X101811Y351880D01*
X101486Y351455D01*
X101486Y351446D01*
X101479Y351444D01*
X101274Y350949D01*
X101277Y350940D01*
X101271Y350937D01*
X101201Y350406D01*
X101206Y350398D01*
X101201Y350394D01*
X101271Y349863D01*
X101278Y349856D01*
X101274Y349851D01*
X101479Y349356D01*
X101487Y349351D01*
X101486Y349345D01*
X101811Y348920D01*
X101821Y348918D01*
X101820Y348911D01*
X102245Y348586D01*
X102255Y348586D01*
X102256Y348579D01*
X102751Y348374D01*
X102760Y348377D01*
X102763Y348371D01*
X103294Y348301D01*
X103298Y348304D01*
X103300Y348301D01*
X111050Y348301D01*
X111097Y348337D01*
G37*
G36*
X111097Y353337D02*
X111097Y353337D01*
X111092Y353344D01*
X111099Y353350D01*
X111099Y357450D01*
X111063Y357497D01*
X111056Y357492D01*
X111050Y357499D01*
X103300Y357499D01*
X103296Y357496D01*
X103294Y357499D01*
X102763Y357429D01*
X102756Y357422D01*
X102751Y357426D01*
X102256Y357221D01*
X102251Y357213D01*
X102245Y357214D01*
X101820Y356889D01*
X101818Y356880D01*
X101811Y356880D01*
X101486Y356455D01*
X101486Y356446D01*
X101479Y356444D01*
X101274Y355949D01*
X101277Y355940D01*
X101271Y355937D01*
X101201Y355406D01*
X101206Y355398D01*
X101201Y355394D01*
X101271Y354863D01*
X101278Y354856D01*
X101274Y354851D01*
X101479Y354356D01*
X101487Y354351D01*
X101486Y354345D01*
X101811Y353920D01*
X101821Y353918D01*
X101820Y353911D01*
X102245Y353586D01*
X102255Y353586D01*
X102256Y353579D01*
X102751Y353374D01*
X102760Y353377D01*
X102763Y353371D01*
X103294Y353301D01*
X103298Y353304D01*
X103300Y353301D01*
X111050Y353301D01*
X111097Y353337D01*
G37*
G36*
X111097Y358337D02*
X111097Y358337D01*
X111092Y358344D01*
X111099Y358350D01*
X111099Y362450D01*
X111063Y362497D01*
X111056Y362492D01*
X111050Y362499D01*
X103300Y362499D01*
X103296Y362496D01*
X103294Y362499D01*
X102763Y362429D01*
X102756Y362422D01*
X102751Y362426D01*
X102256Y362221D01*
X102251Y362213D01*
X102245Y362214D01*
X101820Y361889D01*
X101818Y361880D01*
X101811Y361880D01*
X101486Y361455D01*
X101486Y361446D01*
X101479Y361444D01*
X101274Y360949D01*
X101277Y360940D01*
X101271Y360937D01*
X101201Y360406D01*
X101206Y360398D01*
X101201Y360394D01*
X101271Y359863D01*
X101278Y359856D01*
X101274Y359851D01*
X101479Y359356D01*
X101487Y359351D01*
X101486Y359345D01*
X101811Y358920D01*
X101821Y358918D01*
X101820Y358911D01*
X102245Y358586D01*
X102255Y358586D01*
X102256Y358579D01*
X102751Y358374D01*
X102760Y358377D01*
X102763Y358371D01*
X103294Y358301D01*
X103298Y358304D01*
X103300Y358301D01*
X111050Y358301D01*
X111097Y358337D01*
G37*
G36*
X442804Y459904D02*
X442804Y459904D01*
X442806Y459901D01*
X443337Y459971D01*
X443344Y459978D01*
X443349Y459974D01*
X443844Y460179D01*
X443849Y460187D01*
X443855Y460186D01*
X444280Y460511D01*
X444282Y460521D01*
X444289Y460520D01*
X444614Y460945D01*
X444614Y460955D01*
X444621Y460956D01*
X444826Y461451D01*
X444823Y461460D01*
X444825Y461460D01*
X444829Y461463D01*
X444899Y461994D01*
X444894Y462002D01*
X444899Y462006D01*
X444829Y462537D01*
X444822Y462544D01*
X444826Y462549D01*
X444621Y463044D01*
X444613Y463049D01*
X444614Y463055D01*
X444289Y463480D01*
X444280Y463482D01*
X444280Y463489D01*
X443855Y463814D01*
X443846Y463814D01*
X443844Y463821D01*
X443349Y464026D01*
X443340Y464023D01*
X443337Y464029D01*
X442806Y464099D01*
X442802Y464096D01*
X442800Y464099D01*
X435100Y464099D01*
X435053Y464063D01*
X435058Y464056D01*
X435051Y464050D01*
X435051Y459950D01*
X435087Y459903D01*
X435094Y459908D01*
X435100Y459901D01*
X442800Y459901D01*
X442804Y459904D01*
G37*
G36*
X111047Y323337D02*
X111047Y323337D01*
X111042Y323344D01*
X111049Y323350D01*
X111049Y327450D01*
X111013Y327497D01*
X111006Y327492D01*
X111000Y327499D01*
X103300Y327499D01*
X103296Y327496D01*
X103294Y327499D01*
X102763Y327429D01*
X102756Y327422D01*
X102751Y327426D01*
X102256Y327221D01*
X102251Y327213D01*
X102245Y327214D01*
X101820Y326889D01*
X101818Y326880D01*
X101811Y326880D01*
X101486Y326455D01*
X101486Y326446D01*
X101479Y326444D01*
X101274Y325949D01*
X101277Y325940D01*
X101271Y325937D01*
X101201Y325406D01*
X101206Y325398D01*
X101201Y325394D01*
X101271Y324863D01*
X101278Y324856D01*
X101274Y324851D01*
X101479Y324356D01*
X101487Y324351D01*
X101486Y324345D01*
X101811Y323920D01*
X101821Y323918D01*
X101820Y323911D01*
X102245Y323586D01*
X102255Y323586D01*
X102256Y323579D01*
X102751Y323374D01*
X102760Y323377D01*
X102763Y323371D01*
X103294Y323301D01*
X103298Y323304D01*
X103300Y323301D01*
X111000Y323301D01*
X111047Y323337D01*
G37*
D10*
X104507Y4543D02*
X93493Y4543D01*
X93493Y23557D01*
X104507Y23557D01*
X104507Y4543D01*
X104507Y6686D02*
X93493Y6686D01*
X93493Y8829D02*
X104507Y8829D01*
X104507Y10972D02*
X93493Y10972D01*
X93493Y13115D02*
X104507Y13115D01*
X104507Y15258D02*
X93493Y15258D01*
X93493Y17401D02*
X104507Y17401D01*
X104507Y19544D02*
X93493Y19544D01*
X93493Y21687D02*
X104507Y21687D01*
X149493Y4543D02*
X160507Y4543D01*
X149493Y4543D02*
X149493Y23557D01*
X160507Y23557D01*
X160507Y4543D01*
X160507Y6686D02*
X149493Y6686D01*
X149493Y8829D02*
X160507Y8829D01*
X160507Y10972D02*
X149493Y10972D01*
X149493Y13115D02*
X160507Y13115D01*
X160507Y15258D02*
X149493Y15258D01*
X149493Y17401D02*
X160507Y17401D01*
X160507Y19544D02*
X149493Y19544D01*
X149493Y21687D02*
X160507Y21687D01*
D11*
X114508Y44542D02*
X109492Y44542D01*
X109492Y57058D01*
X114508Y57058D01*
X114508Y44542D01*
X114508Y46683D02*
X109492Y46683D01*
X109492Y48824D02*
X114508Y48824D01*
X114508Y50965D02*
X109492Y50965D01*
X109492Y53106D02*
X114508Y53106D01*
X114508Y55247D02*
X109492Y55247D01*
X119492Y44542D02*
X124508Y44542D01*
X119492Y44542D02*
X119492Y57058D01*
X124508Y57058D01*
X124508Y44542D01*
X124508Y46683D02*
X119492Y46683D01*
X119492Y48824D02*
X124508Y48824D01*
X124508Y50965D02*
X119492Y50965D01*
X119492Y53106D02*
X124508Y53106D01*
X124508Y55247D02*
X119492Y55247D01*
X129492Y44542D02*
X134508Y44542D01*
X129492Y44542D02*
X129492Y57058D01*
X134508Y57058D01*
X134508Y44542D01*
X134508Y46683D02*
X129492Y46683D01*
X129492Y48824D02*
X134508Y48824D01*
X134508Y50965D02*
X129492Y50965D01*
X129492Y53106D02*
X134508Y53106D01*
X134508Y55247D02*
X129492Y55247D01*
X139492Y44542D02*
X144508Y44542D01*
X139492Y44542D02*
X139492Y57058D01*
X144508Y57058D01*
X144508Y44542D01*
X144508Y46683D02*
X139492Y46683D01*
X139492Y48824D02*
X144508Y48824D01*
X144508Y50965D02*
X139492Y50965D01*
X139492Y53106D02*
X144508Y53106D01*
X144508Y55247D02*
X139492Y55247D01*
D12*
X128968Y75392D02*
X128968Y85408D01*
X128968Y75392D02*
X119952Y75392D01*
X119952Y85408D01*
X128968Y85408D01*
X128968Y77533D02*
X119952Y77533D01*
X119952Y79674D02*
X128968Y79674D01*
X128968Y81815D02*
X119952Y81815D01*
X119952Y83956D02*
X128968Y83956D01*
X128968Y92392D02*
X128968Y102408D01*
X128968Y92392D02*
X119952Y92392D01*
X119952Y102408D01*
X128968Y102408D01*
X128968Y94533D02*
X119952Y94533D01*
X119952Y96674D02*
X128968Y96674D01*
X128968Y98815D02*
X119952Y98815D01*
X119952Y100956D02*
X128968Y100956D01*
X144208Y85408D02*
X144208Y75392D01*
X135192Y75392D01*
X135192Y85408D01*
X144208Y85408D01*
X144208Y77533D02*
X135192Y77533D01*
X135192Y79674D02*
X144208Y79674D01*
X144208Y81815D02*
X135192Y81815D01*
X135192Y83956D02*
X144208Y83956D01*
X144208Y92392D02*
X144208Y102408D01*
X144208Y92392D02*
X135192Y92392D01*
X135192Y102408D01*
X144208Y102408D01*
X144208Y94533D02*
X135192Y94533D01*
X135192Y96674D02*
X144208Y96674D01*
X144208Y98815D02*
X135192Y98815D01*
X135192Y100956D02*
X144208Y100956D01*
D13*
X50800Y558800D03*
X444500Y15240D03*
D14*
X73184Y71596D02*
X66516Y71596D01*
X66516Y85884D01*
X73184Y85884D01*
X73184Y71596D01*
X73184Y73708D02*
X66516Y73708D01*
X66516Y75820D02*
X73184Y75820D01*
X73184Y77932D02*
X66516Y77932D01*
X66516Y80044D02*
X73184Y80044D01*
X73184Y82156D02*
X66516Y82156D01*
X66516Y84268D02*
X73184Y84268D01*
X73184Y15716D02*
X66516Y15716D01*
X66516Y30004D01*
X73184Y30004D01*
X73184Y15716D01*
X73184Y17828D02*
X66516Y17828D01*
X66516Y19940D02*
X73184Y19940D01*
X73184Y22052D02*
X66516Y22052D01*
X66516Y24164D02*
X73184Y24164D01*
X73184Y26276D02*
X66516Y26276D01*
X66516Y28388D02*
X73184Y28388D01*
X35084Y71596D02*
X28416Y71596D01*
X28416Y85884D01*
X35084Y85884D01*
X35084Y71596D01*
X35084Y73708D02*
X28416Y73708D01*
X28416Y75820D02*
X35084Y75820D01*
X35084Y77932D02*
X28416Y77932D01*
X28416Y80044D02*
X35084Y80044D01*
X35084Y82156D02*
X28416Y82156D01*
X28416Y84268D02*
X35084Y84268D01*
X35084Y15716D02*
X28416Y15716D01*
X28416Y30004D01*
X35084Y30004D01*
X35084Y15716D01*
X35084Y17828D02*
X28416Y17828D01*
X28416Y19940D02*
X35084Y19940D01*
X35084Y22052D02*
X28416Y22052D01*
X28416Y24164D02*
X35084Y24164D01*
X35084Y26276D02*
X28416Y26276D01*
X28416Y28388D02*
X35084Y28388D01*
X460216Y30004D02*
X466884Y30004D01*
X466884Y15716D01*
X460216Y15716D01*
X460216Y30004D01*
X460216Y17828D02*
X466884Y17828D01*
X466884Y19940D02*
X460216Y19940D01*
X460216Y22052D02*
X466884Y22052D01*
X466884Y24164D02*
X460216Y24164D01*
X460216Y26276D02*
X466884Y26276D01*
X466884Y28388D02*
X460216Y28388D01*
X460216Y85884D02*
X466884Y85884D01*
X466884Y71596D01*
X460216Y71596D01*
X460216Y85884D01*
X460216Y73708D02*
X466884Y73708D01*
X466884Y75820D02*
X460216Y75820D01*
X460216Y77932D02*
X466884Y77932D01*
X466884Y80044D02*
X460216Y80044D01*
X460216Y82156D02*
X466884Y82156D01*
X466884Y84268D02*
X460216Y84268D01*
X498316Y30004D02*
X504984Y30004D01*
X504984Y15716D01*
X498316Y15716D01*
X498316Y30004D01*
X498316Y17828D02*
X504984Y17828D01*
X504984Y19940D02*
X498316Y19940D01*
X498316Y22052D02*
X504984Y22052D01*
X504984Y24164D02*
X498316Y24164D01*
X498316Y26276D02*
X504984Y26276D01*
X504984Y28388D02*
X498316Y28388D01*
X498316Y85884D02*
X504984Y85884D01*
X504984Y71596D01*
X498316Y71596D01*
X498316Y85884D01*
X498316Y73708D02*
X504984Y73708D01*
X504984Y75820D02*
X498316Y75820D01*
X498316Y77932D02*
X504984Y77932D01*
X504984Y80044D02*
X498316Y80044D01*
X498316Y82156D02*
X504984Y82156D01*
X504984Y84268D02*
X498316Y84268D01*
D15*
X342900Y495300D03*
X342900Y469900D03*
X342900Y444500D03*
X342900Y419100D03*
X342900Y393700D03*
X342900Y368300D03*
X342900Y342900D03*
X342900Y317500D03*
X342900Y292100D03*
X342900Y266700D03*
X215900Y495300D03*
X215900Y469900D03*
X215900Y444500D03*
X215900Y419100D03*
X215900Y393700D03*
X215900Y368300D03*
X215900Y342900D03*
X215900Y317500D03*
X215900Y292100D03*
X215900Y266700D03*
D12*
X400512Y50102D02*
X410528Y50102D01*
X400512Y50102D02*
X400512Y59118D01*
X410528Y59118D01*
X410528Y50102D01*
X410528Y52243D02*
X400512Y52243D01*
X400512Y54384D02*
X410528Y54384D01*
X410528Y56525D02*
X400512Y56525D01*
X400512Y58666D02*
X410528Y58666D01*
X417512Y50102D02*
X427528Y50102D01*
X417512Y50102D02*
X417512Y59118D01*
X427528Y59118D01*
X427528Y50102D01*
X427528Y52243D02*
X417512Y52243D01*
X417512Y54384D02*
X427528Y54384D01*
X427528Y56525D02*
X417512Y56525D01*
X417512Y58666D02*
X427528Y58666D01*
D16*
X423864Y20124D02*
X416876Y20124D01*
X423864Y20124D02*
X423864Y13136D01*
X416876Y13136D01*
X416876Y20124D01*
X416876Y17205D02*
X423864Y17205D01*
X423864Y37664D02*
X416876Y37664D01*
X423864Y37664D02*
X423864Y30676D01*
X416876Y30676D01*
X416876Y37664D01*
X416876Y34745D02*
X423864Y34745D01*
X513276Y148906D02*
X513276Y155894D01*
X520264Y155894D01*
X520264Y148906D01*
X513276Y148906D01*
X513276Y152975D02*
X520264Y152975D01*
X495736Y155894D02*
X495736Y148906D01*
X495736Y155894D02*
X502724Y155894D01*
X502724Y148906D01*
X495736Y148906D01*
X495736Y152975D02*
X502724Y152975D01*
D12*
X466916Y128080D02*
X456900Y128080D01*
X456900Y137096D01*
X466916Y137096D01*
X466916Y128080D01*
X466916Y130221D02*
X456900Y130221D01*
X456900Y132362D02*
X466916Y132362D01*
X466916Y134503D02*
X456900Y134503D01*
X456900Y136644D02*
X466916Y136644D01*
X473900Y128080D02*
X483916Y128080D01*
X473900Y128080D02*
X473900Y137096D01*
X483916Y137096D01*
X483916Y128080D01*
X483916Y130221D02*
X473900Y130221D01*
X473900Y132362D02*
X483916Y132362D01*
X483916Y134503D02*
X473900Y134503D01*
X473900Y136644D02*
X483916Y136644D01*
D17*
X259468Y145081D02*
X254932Y145081D01*
X254932Y157617D01*
X259468Y157617D01*
X259468Y145081D01*
X259468Y147203D02*
X254932Y147203D01*
X254932Y149325D02*
X259468Y149325D01*
X259468Y151447D02*
X254932Y151447D01*
X254932Y153569D02*
X259468Y153569D01*
X259468Y155691D02*
X254932Y155691D01*
X264432Y145081D02*
X268968Y145081D01*
X264432Y145081D02*
X264432Y157617D01*
X268968Y157617D01*
X268968Y145081D01*
X268968Y147203D02*
X264432Y147203D01*
X264432Y149325D02*
X268968Y149325D01*
X268968Y151447D02*
X264432Y151447D01*
X264432Y153569D02*
X268968Y153569D01*
X268968Y155691D02*
X264432Y155691D01*
X273932Y145081D02*
X278468Y145081D01*
X273932Y145081D02*
X273932Y157617D01*
X278468Y157617D01*
X278468Y145081D01*
X278468Y147203D02*
X273932Y147203D01*
X273932Y149325D02*
X278468Y149325D01*
X278468Y151447D02*
X273932Y151447D01*
X273932Y153569D02*
X278468Y153569D01*
X278468Y155691D02*
X273932Y155691D01*
X273932Y172583D02*
X278468Y172583D01*
X273932Y172583D02*
X273932Y185119D01*
X278468Y185119D01*
X278468Y172583D01*
X278468Y174705D02*
X273932Y174705D01*
X273932Y176827D02*
X278468Y176827D01*
X278468Y178949D02*
X273932Y178949D01*
X273932Y181071D02*
X278468Y181071D01*
X278468Y183193D02*
X273932Y183193D01*
X268968Y172583D02*
X264432Y172583D01*
X264432Y185119D01*
X268968Y185119D01*
X268968Y172583D01*
X268968Y174705D02*
X264432Y174705D01*
X264432Y176827D02*
X268968Y176827D01*
X268968Y178949D02*
X264432Y178949D01*
X264432Y181071D02*
X268968Y181071D01*
X268968Y183193D02*
X264432Y183193D01*
X259468Y172583D02*
X254932Y172583D01*
X254932Y185119D01*
X259468Y185119D01*
X259468Y172583D01*
X259468Y174705D02*
X254932Y174705D01*
X254932Y176827D02*
X259468Y176827D01*
X259468Y178949D02*
X254932Y178949D01*
X254932Y181071D02*
X259468Y181071D01*
X259468Y183193D02*
X254932Y183193D01*
D18*
X259887Y190927D02*
X298913Y190927D01*
X259887Y190927D02*
X259887Y205953D01*
X298913Y205953D01*
X298913Y190927D01*
X298913Y193060D02*
X259887Y193060D01*
X259887Y195193D02*
X298913Y195193D01*
X298913Y197326D02*
X259887Y197326D01*
X259887Y199459D02*
X298913Y199459D01*
X298913Y201592D02*
X259887Y201592D01*
X259887Y203725D02*
X298913Y203725D01*
X298913Y205858D02*
X259887Y205858D01*
X259887Y229927D02*
X298913Y229927D01*
X259887Y229927D02*
X259887Y244953D01*
X298913Y244953D01*
X298913Y229927D01*
X298913Y232060D02*
X259887Y232060D01*
X259887Y234193D02*
X298913Y234193D01*
X298913Y236326D02*
X259887Y236326D01*
X259887Y238459D02*
X298913Y238459D01*
X298913Y240592D02*
X259887Y240592D01*
X259887Y242725D02*
X298913Y242725D01*
X298913Y244858D02*
X259887Y244858D01*
D12*
X247078Y184468D02*
X247078Y174452D01*
X238062Y174452D01*
X238062Y184468D01*
X247078Y184468D01*
X247078Y176593D02*
X238062Y176593D01*
X238062Y178734D02*
X247078Y178734D01*
X247078Y180875D02*
X238062Y180875D01*
X238062Y183016D02*
X247078Y183016D01*
X247078Y191452D02*
X247078Y201468D01*
X247078Y191452D02*
X238062Y191452D01*
X238062Y201468D01*
X247078Y201468D01*
X247078Y193593D02*
X238062Y193593D01*
X238062Y195734D02*
X247078Y195734D01*
X247078Y197875D02*
X238062Y197875D01*
X238062Y200016D02*
X247078Y200016D01*
X324422Y229552D02*
X324422Y239568D01*
X333438Y239568D01*
X333438Y229552D01*
X324422Y229552D01*
X324422Y231693D02*
X333438Y231693D01*
X333438Y233834D02*
X324422Y233834D01*
X324422Y235975D02*
X333438Y235975D01*
X333438Y238116D02*
X324422Y238116D01*
X324422Y222568D02*
X324422Y212552D01*
X324422Y222568D02*
X333438Y222568D01*
X333438Y212552D01*
X324422Y212552D01*
X324422Y214693D02*
X333438Y214693D01*
X333438Y216834D02*
X324422Y216834D01*
X324422Y218975D02*
X333438Y218975D01*
X333438Y221116D02*
X324422Y221116D01*
X309182Y229552D02*
X309182Y239568D01*
X318198Y239568D01*
X318198Y229552D01*
X309182Y229552D01*
X309182Y231693D02*
X318198Y231693D01*
X318198Y233834D02*
X309182Y233834D01*
X309182Y235975D02*
X318198Y235975D01*
X318198Y238116D02*
X309182Y238116D01*
X309182Y222568D02*
X309182Y212552D01*
X309182Y222568D02*
X318198Y222568D01*
X318198Y212552D01*
X309182Y212552D01*
X309182Y214693D02*
X318198Y214693D01*
X318198Y216834D02*
X309182Y216834D01*
X309182Y218975D02*
X318198Y218975D01*
X318198Y221116D02*
X309182Y221116D01*
D19*
X314618Y150878D02*
X314618Y139142D01*
X294982Y139142D01*
X294982Y150878D01*
X314618Y150878D01*
X314618Y141265D02*
X294982Y141265D01*
X294982Y143388D02*
X314618Y143388D01*
X314618Y145511D02*
X294982Y145511D01*
X294982Y147634D02*
X314618Y147634D01*
X314618Y149757D02*
X294982Y149757D01*
X314618Y174242D02*
X314618Y185978D01*
X314618Y174242D02*
X294982Y174242D01*
X294982Y185978D01*
X314618Y185978D01*
X314618Y176365D02*
X294982Y176365D01*
X294982Y178488D02*
X314618Y178488D01*
X314618Y180611D02*
X294982Y180611D01*
X294982Y182734D02*
X314618Y182734D01*
X314618Y184857D02*
X294982Y184857D01*
D12*
X263208Y130112D02*
X253192Y130112D01*
X253192Y139128D01*
X263208Y139128D01*
X263208Y130112D01*
X263208Y132253D02*
X253192Y132253D01*
X253192Y134394D02*
X263208Y134394D01*
X263208Y136535D02*
X253192Y136535D01*
X253192Y138676D02*
X263208Y138676D01*
X270192Y130112D02*
X280208Y130112D01*
X270192Y130112D02*
X270192Y139128D01*
X280208Y139128D01*
X280208Y130112D01*
X280208Y132253D02*
X270192Y132253D01*
X270192Y134394D02*
X280208Y134394D01*
X280208Y136535D02*
X270192Y136535D01*
X270192Y138676D02*
X280208Y138676D01*
D20*
X162412Y488338D02*
X162412Y495862D01*
X162412Y488338D02*
X146388Y488338D01*
X146388Y495862D01*
X162412Y495862D01*
X162412Y490473D02*
X146388Y490473D01*
X146388Y492608D02*
X162412Y492608D01*
X162412Y494743D02*
X146388Y494743D01*
X192412Y475862D02*
X192412Y468338D01*
X176388Y468338D01*
X176388Y475862D01*
X192412Y475862D01*
X192412Y470473D02*
X176388Y470473D01*
X176388Y472608D02*
X192412Y472608D01*
X192412Y474743D02*
X176388Y474743D01*
X162412Y455862D02*
X162412Y448338D01*
X146388Y448338D01*
X146388Y455862D01*
X162412Y455862D01*
X162412Y450473D02*
X146388Y450473D01*
X146388Y452608D02*
X162412Y452608D01*
X162412Y454743D02*
X146388Y454743D01*
X192412Y435862D02*
X192412Y428338D01*
X176388Y428338D01*
X176388Y435862D01*
X192412Y435862D01*
X192412Y430473D02*
X176388Y430473D01*
X176388Y432608D02*
X192412Y432608D01*
X192412Y434743D02*
X176388Y434743D01*
X162412Y415862D02*
X162412Y408338D01*
X146388Y408338D01*
X146388Y415862D01*
X162412Y415862D01*
X162412Y410473D02*
X146388Y410473D01*
X146388Y412608D02*
X162412Y412608D01*
X162412Y414743D02*
X146388Y414743D01*
X192412Y395862D02*
X192412Y388338D01*
X176388Y388338D01*
X176388Y395862D01*
X192412Y395862D01*
X192412Y390473D02*
X176388Y390473D01*
X176388Y392608D02*
X192412Y392608D01*
X192412Y394743D02*
X176388Y394743D01*
X162412Y375862D02*
X162412Y368338D01*
X146388Y368338D01*
X146388Y375862D01*
X162412Y375862D01*
X162412Y370473D02*
X146388Y370473D01*
X146388Y372608D02*
X162412Y372608D01*
X162412Y374743D02*
X146388Y374743D01*
X192412Y355862D02*
X192412Y348338D01*
X176388Y348338D01*
X176388Y355862D01*
X192412Y355862D01*
X192412Y350473D02*
X176388Y350473D01*
X176388Y352608D02*
X192412Y352608D01*
X192412Y354743D02*
X176388Y354743D01*
X162412Y335862D02*
X162412Y328338D01*
X146388Y328338D01*
X146388Y335862D01*
X162412Y335862D01*
X162412Y330473D02*
X146388Y330473D01*
X146388Y332608D02*
X162412Y332608D01*
X162412Y334743D02*
X146388Y334743D01*
X192412Y315862D02*
X192412Y308338D01*
X176388Y308338D01*
X176388Y315862D01*
X192412Y315862D01*
X192412Y310473D02*
X176388Y310473D01*
X176388Y312608D02*
X192412Y312608D01*
X192412Y314743D02*
X176388Y314743D01*
X412412Y315862D02*
X412412Y308338D01*
X396388Y308338D01*
X396388Y315862D01*
X412412Y315862D01*
X412412Y310473D02*
X396388Y310473D01*
X396388Y312608D02*
X412412Y312608D01*
X412412Y314743D02*
X396388Y314743D01*
X382412Y328338D02*
X382412Y335862D01*
X382412Y328338D02*
X366388Y328338D01*
X366388Y335862D01*
X382412Y335862D01*
X382412Y330473D02*
X366388Y330473D01*
X366388Y332608D02*
X382412Y332608D01*
X382412Y334743D02*
X366388Y334743D01*
X412412Y348338D02*
X412412Y355862D01*
X412412Y348338D02*
X396388Y348338D01*
X396388Y355862D01*
X412412Y355862D01*
X412412Y350473D02*
X396388Y350473D01*
X396388Y352608D02*
X412412Y352608D01*
X412412Y354743D02*
X396388Y354743D01*
X382412Y368338D02*
X382412Y375862D01*
X382412Y368338D02*
X366388Y368338D01*
X366388Y375862D01*
X382412Y375862D01*
X382412Y370473D02*
X366388Y370473D01*
X366388Y372608D02*
X382412Y372608D01*
X382412Y374743D02*
X366388Y374743D01*
X412412Y388338D02*
X412412Y395862D01*
X412412Y388338D02*
X396388Y388338D01*
X396388Y395862D01*
X412412Y395862D01*
X412412Y390473D02*
X396388Y390473D01*
X396388Y392608D02*
X412412Y392608D01*
X412412Y394743D02*
X396388Y394743D01*
X382412Y408338D02*
X382412Y415862D01*
X382412Y408338D02*
X366388Y408338D01*
X366388Y415862D01*
X382412Y415862D01*
X382412Y410473D02*
X366388Y410473D01*
X366388Y412608D02*
X382412Y412608D01*
X382412Y414743D02*
X366388Y414743D01*
X412412Y428338D02*
X412412Y435862D01*
X412412Y428338D02*
X396388Y428338D01*
X396388Y435862D01*
X412412Y435862D01*
X412412Y430473D02*
X396388Y430473D01*
X396388Y432608D02*
X412412Y432608D01*
X412412Y434743D02*
X396388Y434743D01*
X382412Y448338D02*
X382412Y455862D01*
X382412Y448338D02*
X366388Y448338D01*
X366388Y455862D01*
X382412Y455862D01*
X382412Y450473D02*
X366388Y450473D01*
X366388Y452608D02*
X382412Y452608D01*
X382412Y454743D02*
X366388Y454743D01*
X412412Y468338D02*
X412412Y475862D01*
X412412Y468338D02*
X396388Y468338D01*
X396388Y475862D01*
X412412Y475862D01*
X412412Y470473D02*
X396388Y470473D01*
X396388Y472608D02*
X412412Y472608D01*
X412412Y474743D02*
X396388Y474743D01*
X382412Y488338D02*
X382412Y495862D01*
X382412Y488338D02*
X366388Y488338D01*
X366388Y495862D01*
X382412Y495862D01*
X382412Y490473D02*
X366388Y490473D01*
X366388Y492608D02*
X382412Y492608D01*
X382412Y494743D02*
X366388Y494743D01*
D12*
X131382Y417368D02*
X131382Y407352D01*
X131382Y417368D02*
X140398Y417368D01*
X140398Y407352D01*
X131382Y407352D01*
X131382Y409493D02*
X140398Y409493D01*
X140398Y411634D02*
X131382Y411634D01*
X131382Y413775D02*
X140398Y413775D01*
X140398Y415916D02*
X131382Y415916D01*
X131382Y400368D02*
X131382Y390352D01*
X131382Y400368D02*
X140398Y400368D01*
X140398Y390352D01*
X131382Y390352D01*
X131382Y392493D02*
X140398Y392493D01*
X140398Y394634D02*
X131382Y394634D01*
X131382Y396775D02*
X140398Y396775D01*
X140398Y398916D02*
X131382Y398916D01*
X95314Y486092D02*
X95314Y496108D01*
X104330Y496108D01*
X104330Y486092D01*
X95314Y486092D01*
X95314Y488233D02*
X104330Y488233D01*
X104330Y490374D02*
X95314Y490374D01*
X95314Y492515D02*
X104330Y492515D01*
X104330Y494656D02*
X95314Y494656D01*
X95314Y479108D02*
X95314Y469092D01*
X95314Y479108D02*
X104330Y479108D01*
X104330Y469092D01*
X95314Y469092D01*
X95314Y471233D02*
X104330Y471233D01*
X104330Y473374D02*
X95314Y473374D01*
X95314Y475515D02*
X104330Y475515D01*
X104330Y477656D02*
X95314Y477656D01*
X110300Y486092D02*
X110300Y496108D01*
X119316Y496108D01*
X119316Y486092D01*
X110300Y486092D01*
X110300Y488233D02*
X119316Y488233D01*
X119316Y490374D02*
X110300Y490374D01*
X110300Y492515D02*
X119316Y492515D01*
X119316Y494656D02*
X110300Y494656D01*
X110300Y479108D02*
X110300Y469092D01*
X110300Y479108D02*
X119316Y479108D01*
X119316Y469092D01*
X110300Y469092D01*
X110300Y471233D02*
X119316Y471233D01*
X119316Y473374D02*
X110300Y473374D01*
X110300Y475515D02*
X119316Y475515D01*
X119316Y477656D02*
X110300Y477656D01*
X125032Y486092D02*
X125032Y496108D01*
X134048Y496108D01*
X134048Y486092D01*
X125032Y486092D01*
X125032Y488233D02*
X134048Y488233D01*
X134048Y490374D02*
X125032Y490374D01*
X125032Y492515D02*
X134048Y492515D01*
X134048Y494656D02*
X125032Y494656D01*
X125032Y479108D02*
X125032Y469092D01*
X125032Y479108D02*
X134048Y479108D01*
X134048Y469092D01*
X125032Y469092D01*
X125032Y471233D02*
X134048Y471233D01*
X134048Y473374D02*
X125032Y473374D01*
X125032Y475515D02*
X134048Y475515D01*
X134048Y477656D02*
X125032Y477656D01*
D16*
X513276Y130494D02*
X513276Y123506D01*
X513276Y130494D02*
X520264Y130494D01*
X520264Y123506D01*
X513276Y123506D01*
X513276Y127575D02*
X520264Y127575D01*
X495736Y130494D02*
X495736Y123506D01*
X495736Y130494D02*
X502724Y130494D01*
X502724Y123506D01*
X495736Y123506D01*
X495736Y127575D02*
X502724Y127575D01*
D12*
X466916Y112332D02*
X456900Y112332D01*
X456900Y121348D01*
X466916Y121348D01*
X466916Y112332D01*
X466916Y114473D02*
X456900Y114473D01*
X456900Y116614D02*
X466916Y116614D01*
X466916Y118755D02*
X456900Y118755D01*
X456900Y120896D02*
X466916Y120896D01*
X473900Y112332D02*
X483916Y112332D01*
X473900Y112332D02*
X473900Y121348D01*
X483916Y121348D01*
X483916Y112332D01*
X483916Y114473D02*
X473900Y114473D01*
X473900Y116614D02*
X483916Y116614D01*
X483916Y118755D02*
X473900Y118755D01*
X473900Y120896D02*
X483916Y120896D01*
D21*
X351382Y55618D02*
X349418Y55618D01*
X349418Y64582D01*
X351382Y64582D01*
X351382Y55618D01*
X351382Y57809D02*
X349418Y57809D01*
X349418Y60000D02*
X351382Y60000D01*
X351382Y62191D02*
X349418Y62191D01*
X349418Y64382D02*
X351382Y64382D01*
X346382Y55618D02*
X344418Y55618D01*
X344418Y64582D01*
X346382Y64582D01*
X346382Y55618D01*
X346382Y57809D02*
X344418Y57809D01*
X344418Y60000D02*
X346382Y60000D01*
X346382Y62191D02*
X344418Y62191D01*
X344418Y64382D02*
X346382Y64382D01*
D11*
X372642Y55592D02*
X377658Y55592D01*
X372642Y55592D02*
X372642Y64608D01*
X377658Y64608D01*
X377658Y55592D01*
X377658Y57733D02*
X372642Y57733D01*
X372642Y59874D02*
X377658Y59874D01*
X377658Y62015D02*
X372642Y62015D01*
X372642Y64156D02*
X377658Y64156D01*
X369908Y55592D02*
X364892Y55592D01*
X364892Y64608D01*
X369908Y64608D01*
X369908Y55592D01*
X369908Y57733D02*
X364892Y57733D01*
X364892Y59874D02*
X369908Y59874D01*
X369908Y62015D02*
X364892Y62015D01*
X364892Y64156D02*
X369908Y64156D01*
D21*
X361382Y55618D02*
X359418Y55618D01*
X359418Y64582D01*
X361382Y64582D01*
X361382Y55618D01*
X361382Y57809D02*
X359418Y57809D01*
X359418Y60000D02*
X361382Y60000D01*
X361382Y62191D02*
X359418Y62191D01*
X359418Y64382D02*
X361382Y64382D01*
X356382Y55618D02*
X354418Y55618D01*
X354418Y64582D01*
X356382Y64582D01*
X356382Y55618D01*
X356382Y57809D02*
X354418Y57809D01*
X354418Y60000D02*
X356382Y60000D01*
X356382Y62191D02*
X354418Y62191D01*
X354418Y64382D02*
X356382Y64382D01*
X336382Y64582D02*
X334418Y64582D01*
X336382Y64582D02*
X336382Y55618D01*
X334418Y55618D01*
X334418Y64582D01*
X334418Y57809D02*
X336382Y57809D01*
X336382Y60000D02*
X334418Y60000D01*
X334418Y62191D02*
X336382Y62191D01*
X336382Y64382D02*
X334418Y64382D01*
X339418Y64582D02*
X341382Y64582D01*
X341382Y55618D01*
X339418Y55618D01*
X339418Y64582D01*
X339418Y57809D02*
X341382Y57809D01*
X341382Y60000D02*
X339418Y60000D01*
X339418Y62191D02*
X341382Y62191D01*
X341382Y64382D02*
X339418Y64382D01*
D11*
X313158Y64608D02*
X308142Y64608D01*
X313158Y64608D02*
X313158Y55592D01*
X308142Y55592D01*
X308142Y64608D01*
X308142Y57733D02*
X313158Y57733D01*
X313158Y59874D02*
X308142Y59874D01*
X308142Y62015D02*
X313158Y62015D01*
X313158Y64156D02*
X308142Y64156D01*
X315892Y64608D02*
X320908Y64608D01*
X320908Y55592D01*
X315892Y55592D01*
X315892Y64608D01*
X315892Y57733D02*
X320908Y57733D01*
X320908Y59874D02*
X315892Y59874D01*
X315892Y62015D02*
X320908Y62015D01*
X320908Y64156D02*
X315892Y64156D01*
D21*
X324418Y64582D02*
X326382Y64582D01*
X326382Y55618D01*
X324418Y55618D01*
X324418Y64582D01*
X324418Y57809D02*
X326382Y57809D01*
X326382Y60000D02*
X324418Y60000D01*
X324418Y62191D02*
X326382Y62191D01*
X326382Y64382D02*
X324418Y64382D01*
X329418Y64582D02*
X331382Y64582D01*
X331382Y55618D01*
X329418Y55618D01*
X329418Y64582D01*
X329418Y57809D02*
X331382Y57809D01*
X331382Y60000D02*
X329418Y60000D01*
X329418Y62191D02*
X331382Y62191D01*
X331382Y64382D02*
X329418Y64382D01*
D22*
X314000Y49050D03*
X371800Y49050D03*
D12*
X417512Y89598D02*
X427528Y89598D01*
X427528Y80582D01*
X417512Y80582D01*
X417512Y89598D01*
X417512Y82723D02*
X427528Y82723D01*
X427528Y84864D02*
X417512Y84864D01*
X417512Y87005D02*
X427528Y87005D01*
X427528Y89146D02*
X417512Y89146D01*
X410528Y89598D02*
X400512Y89598D01*
X410528Y89598D02*
X410528Y80582D01*
X400512Y80582D01*
X400512Y89598D01*
X400512Y82723D02*
X410528Y82723D01*
X410528Y84864D02*
X400512Y84864D01*
X400512Y87005D02*
X410528Y87005D01*
X410528Y89146D02*
X400512Y89146D01*
X417512Y74358D02*
X427528Y74358D01*
X427528Y65342D01*
X417512Y65342D01*
X417512Y74358D01*
X417512Y67483D02*
X427528Y67483D01*
X427528Y69624D02*
X417512Y69624D01*
X417512Y71765D02*
X427528Y71765D01*
X427528Y73906D02*
X417512Y73906D01*
X410528Y74358D02*
X400512Y74358D01*
X410528Y74358D02*
X410528Y65342D01*
X400512Y65342D01*
X400512Y74358D01*
X400512Y67483D02*
X410528Y67483D01*
X410528Y69624D02*
X400512Y69624D01*
X400512Y71765D02*
X410528Y71765D01*
X410528Y73906D02*
X400512Y73906D01*
D17*
X354668Y121619D02*
X350132Y121619D01*
X354668Y121619D02*
X354668Y109083D01*
X350132Y109083D01*
X350132Y121619D01*
X350132Y111205D02*
X354668Y111205D01*
X354668Y113327D02*
X350132Y113327D01*
X350132Y115449D02*
X354668Y115449D01*
X354668Y117571D02*
X350132Y117571D01*
X350132Y119693D02*
X354668Y119693D01*
X345168Y121619D02*
X340632Y121619D01*
X345168Y121619D02*
X345168Y109083D01*
X340632Y109083D01*
X340632Y121619D01*
X340632Y111205D02*
X345168Y111205D01*
X345168Y113327D02*
X340632Y113327D01*
X340632Y115449D02*
X345168Y115449D01*
X345168Y117571D02*
X340632Y117571D01*
X340632Y119693D02*
X345168Y119693D01*
X335668Y121619D02*
X331132Y121619D01*
X335668Y121619D02*
X335668Y109083D01*
X331132Y109083D01*
X331132Y121619D01*
X331132Y111205D02*
X335668Y111205D01*
X335668Y113327D02*
X331132Y113327D01*
X331132Y115449D02*
X335668Y115449D01*
X335668Y117571D02*
X331132Y117571D01*
X331132Y119693D02*
X335668Y119693D01*
X335668Y94117D02*
X331132Y94117D01*
X335668Y94117D02*
X335668Y81581D01*
X331132Y81581D01*
X331132Y94117D01*
X331132Y83703D02*
X335668Y83703D01*
X335668Y85825D02*
X331132Y85825D01*
X331132Y87947D02*
X335668Y87947D01*
X335668Y90069D02*
X331132Y90069D01*
X331132Y92191D02*
X335668Y92191D01*
X340632Y94117D02*
X345168Y94117D01*
X345168Y81581D01*
X340632Y81581D01*
X340632Y94117D01*
X340632Y83703D02*
X345168Y83703D01*
X345168Y85825D02*
X340632Y85825D01*
X340632Y87947D02*
X345168Y87947D01*
X345168Y90069D02*
X340632Y90069D01*
X340632Y92191D02*
X345168Y92191D01*
X350132Y94117D02*
X354668Y94117D01*
X354668Y81581D01*
X350132Y81581D01*
X350132Y94117D01*
X350132Y83703D02*
X354668Y83703D01*
X354668Y85825D02*
X350132Y85825D01*
X350132Y87947D02*
X354668Y87947D01*
X354668Y90069D02*
X350132Y90069D01*
X350132Y92191D02*
X354668Y92191D01*
D15*
X508000Y241300D03*
X508000Y266700D03*
X508000Y292100D03*
X508000Y317500D03*
X508000Y342900D03*
X508000Y368300D03*
X508000Y419100D03*
X508000Y444500D03*
X508000Y469900D03*
X508000Y495300D03*
X508000Y520700D03*
X508000Y546100D03*
X25400Y546100D03*
X25400Y520700D03*
X25400Y495300D03*
X25400Y469900D03*
X25400Y444500D03*
X25400Y419100D03*
X25400Y393700D03*
X25400Y368300D03*
X25400Y330200D03*
X25400Y304800D03*
X25400Y279400D03*
X25400Y254000D03*
X25400Y228600D03*
X25400Y203200D03*
X25400Y177800D03*
X25400Y152400D03*
X25400Y127000D03*
X25400Y101600D03*
X508000Y215900D03*
X508000Y190500D03*
D23*
X200300Y155100D03*
X200300Y160100D03*
X200300Y165100D03*
X200300Y170100D03*
X200300Y175100D03*
X155300Y175100D03*
X155300Y170100D03*
X155300Y165100D03*
X155300Y160100D03*
X155300Y155100D03*
D12*
X124592Y160992D02*
X124592Y170008D01*
X135108Y170008D01*
X135108Y160992D01*
X124592Y160992D01*
X124592Y163133D02*
X135108Y163133D01*
X135108Y165274D02*
X124592Y165274D01*
X124592Y167415D02*
X135108Y167415D01*
X135108Y169556D02*
X124592Y169556D01*
X124592Y185992D02*
X124592Y195008D01*
X135108Y195008D01*
X135108Y185992D01*
X124592Y185992D01*
X124592Y188133D02*
X135108Y188133D01*
X135108Y190274D02*
X124592Y190274D01*
X124592Y192415D02*
X135108Y192415D01*
X135108Y194556D02*
X124592Y194556D01*
X124592Y210992D02*
X124592Y220008D01*
X135108Y220008D01*
X135108Y210992D01*
X124592Y210992D01*
X124592Y213133D02*
X135108Y213133D01*
X135108Y215274D02*
X124592Y215274D01*
X124592Y217415D02*
X135108Y217415D01*
X135108Y219556D02*
X124592Y219556D01*
X68092Y170008D02*
X68092Y160992D01*
X68092Y170008D02*
X78608Y170008D01*
X78608Y160992D01*
X68092Y160992D01*
X68092Y163133D02*
X78608Y163133D01*
X78608Y165274D02*
X68092Y165274D01*
X68092Y167415D02*
X78608Y167415D01*
X78608Y169556D02*
X68092Y169556D01*
X68092Y185992D02*
X68092Y195008D01*
X78608Y195008D01*
X78608Y185992D01*
X68092Y185992D01*
X68092Y188133D02*
X78608Y188133D01*
X78608Y190274D02*
X68092Y190274D01*
X68092Y192415D02*
X78608Y192415D01*
X78608Y194556D02*
X68092Y194556D01*
X68092Y210992D02*
X68092Y220008D01*
X78608Y220008D01*
X78608Y210992D01*
X68092Y210992D01*
X68092Y213133D02*
X78608Y213133D01*
X78608Y215274D02*
X68092Y215274D01*
X68092Y217415D02*
X78608Y217415D01*
X78608Y219556D02*
X68092Y219556D01*
D24*
X101600Y175500D03*
X101600Y205500D03*
D12*
X124778Y245046D02*
X124778Y255062D01*
X133794Y255062D01*
X133794Y245046D01*
X124778Y245046D01*
X124778Y247187D02*
X133794Y247187D01*
X133794Y249328D02*
X124778Y249328D01*
X124778Y251469D02*
X133794Y251469D01*
X133794Y253610D02*
X124778Y253610D01*
X124778Y238062D02*
X124778Y228046D01*
X124778Y238062D02*
X133794Y238062D01*
X133794Y228046D01*
X124778Y228046D01*
X124778Y230187D02*
X133794Y230187D01*
X133794Y232328D02*
X124778Y232328D01*
X124778Y234469D02*
X133794Y234469D01*
X133794Y236610D02*
X124778Y236610D01*
D21*
X222418Y55618D02*
X224382Y55618D01*
X222418Y55618D02*
X222418Y64582D01*
X224382Y64582D01*
X224382Y55618D01*
X224382Y57809D02*
X222418Y57809D01*
X222418Y60000D02*
X224382Y60000D01*
X224382Y62191D02*
X222418Y62191D01*
X222418Y64382D02*
X224382Y64382D01*
X219382Y55618D02*
X217418Y55618D01*
X217418Y64582D01*
X219382Y64582D01*
X219382Y55618D01*
X219382Y57809D02*
X217418Y57809D01*
X217418Y60000D02*
X219382Y60000D01*
X219382Y62191D02*
X217418Y62191D01*
X217418Y64382D02*
X219382Y64382D01*
D11*
X245642Y55592D02*
X250658Y55592D01*
X245642Y55592D02*
X245642Y64608D01*
X250658Y64608D01*
X250658Y55592D01*
X250658Y57733D02*
X245642Y57733D01*
X245642Y59874D02*
X250658Y59874D01*
X250658Y62015D02*
X245642Y62015D01*
X245642Y64156D02*
X250658Y64156D01*
X242908Y55592D02*
X237892Y55592D01*
X237892Y64608D01*
X242908Y64608D01*
X242908Y55592D01*
X242908Y57733D02*
X237892Y57733D01*
X237892Y59874D02*
X242908Y59874D01*
X242908Y62015D02*
X237892Y62015D01*
X237892Y64156D02*
X242908Y64156D01*
D21*
X234382Y55618D02*
X232418Y55618D01*
X232418Y64582D01*
X234382Y64582D01*
X234382Y55618D01*
X234382Y57809D02*
X232418Y57809D01*
X232418Y60000D02*
X234382Y60000D01*
X234382Y62191D02*
X232418Y62191D01*
X232418Y64382D02*
X234382Y64382D01*
X229382Y55618D02*
X227418Y55618D01*
X227418Y64582D01*
X229382Y64582D01*
X229382Y55618D01*
X229382Y57809D02*
X227418Y57809D01*
X227418Y60000D02*
X229382Y60000D01*
X229382Y62191D02*
X227418Y62191D01*
X227418Y64382D02*
X229382Y64382D01*
X209382Y64582D02*
X207418Y64582D01*
X209382Y64582D02*
X209382Y55618D01*
X207418Y55618D01*
X207418Y64582D01*
X207418Y57809D02*
X209382Y57809D01*
X209382Y60000D02*
X207418Y60000D01*
X207418Y62191D02*
X209382Y62191D01*
X209382Y64382D02*
X207418Y64382D01*
X212418Y64582D02*
X214382Y64582D01*
X214382Y55618D01*
X212418Y55618D01*
X212418Y64582D01*
X212418Y57809D02*
X214382Y57809D01*
X214382Y60000D02*
X212418Y60000D01*
X212418Y62191D02*
X214382Y62191D01*
X214382Y64382D02*
X212418Y64382D01*
D11*
X186158Y64608D02*
X181142Y64608D01*
X186158Y64608D02*
X186158Y55592D01*
X181142Y55592D01*
X181142Y64608D01*
X181142Y57733D02*
X186158Y57733D01*
X186158Y59874D02*
X181142Y59874D01*
X181142Y62015D02*
X186158Y62015D01*
X186158Y64156D02*
X181142Y64156D01*
X188892Y64608D02*
X193908Y64608D01*
X193908Y55592D01*
X188892Y55592D01*
X188892Y64608D01*
X188892Y57733D02*
X193908Y57733D01*
X193908Y59874D02*
X188892Y59874D01*
X188892Y62015D02*
X193908Y62015D01*
X193908Y64156D02*
X188892Y64156D01*
D21*
X197418Y64582D02*
X199382Y64582D01*
X199382Y55618D01*
X197418Y55618D01*
X197418Y64582D01*
X197418Y57809D02*
X199382Y57809D01*
X199382Y60000D02*
X197418Y60000D01*
X197418Y62191D02*
X199382Y62191D01*
X199382Y64382D02*
X197418Y64382D01*
X202418Y64582D02*
X204382Y64582D01*
X204382Y55618D01*
X202418Y55618D01*
X202418Y64582D01*
X202418Y57809D02*
X204382Y57809D01*
X204382Y60000D02*
X202418Y60000D01*
X202418Y62191D02*
X204382Y62191D01*
X204382Y64382D02*
X202418Y64382D01*
D22*
X187000Y49050D03*
X244800Y49050D03*
D12*
X177102Y105092D02*
X177102Y115108D01*
X186118Y115108D01*
X186118Y105092D01*
X177102Y105092D01*
X177102Y107233D02*
X186118Y107233D01*
X186118Y109374D02*
X177102Y109374D01*
X177102Y111515D02*
X186118Y111515D01*
X186118Y113656D02*
X177102Y113656D01*
X177102Y98108D02*
X177102Y88092D01*
X177102Y98108D02*
X186118Y98108D01*
X186118Y88092D01*
X177102Y88092D01*
X177102Y90233D02*
X186118Y90233D01*
X186118Y92374D02*
X177102Y92374D01*
X177102Y94515D02*
X186118Y94515D01*
X186118Y96656D02*
X177102Y96656D01*
X236792Y105092D02*
X236792Y115108D01*
X245808Y115108D01*
X245808Y105092D01*
X236792Y105092D01*
X236792Y107233D02*
X245808Y107233D01*
X245808Y109374D02*
X236792Y109374D01*
X236792Y111515D02*
X245808Y111515D01*
X245808Y113656D02*
X236792Y113656D01*
X236792Y98108D02*
X236792Y88092D01*
X236792Y98108D02*
X245808Y98108D01*
X245808Y88092D01*
X236792Y88092D01*
X236792Y90233D02*
X245808Y90233D01*
X245808Y92374D02*
X236792Y92374D01*
X236792Y94515D02*
X245808Y94515D01*
X245808Y96656D02*
X236792Y96656D01*
D17*
X227668Y121619D02*
X223132Y121619D01*
X227668Y121619D02*
X227668Y109083D01*
X223132Y109083D01*
X223132Y121619D01*
X223132Y111205D02*
X227668Y111205D01*
X227668Y113327D02*
X223132Y113327D01*
X223132Y115449D02*
X227668Y115449D01*
X227668Y117571D02*
X223132Y117571D01*
X223132Y119693D02*
X227668Y119693D01*
X218168Y121619D02*
X213632Y121619D01*
X218168Y121619D02*
X218168Y109083D01*
X213632Y109083D01*
X213632Y121619D01*
X213632Y111205D02*
X218168Y111205D01*
X218168Y113327D02*
X213632Y113327D01*
X213632Y115449D02*
X218168Y115449D01*
X218168Y117571D02*
X213632Y117571D01*
X213632Y119693D02*
X218168Y119693D01*
X208668Y121619D02*
X204132Y121619D01*
X208668Y121619D02*
X208668Y109083D01*
X204132Y109083D01*
X204132Y121619D01*
X204132Y111205D02*
X208668Y111205D01*
X208668Y113327D02*
X204132Y113327D01*
X204132Y115449D02*
X208668Y115449D01*
X208668Y117571D02*
X204132Y117571D01*
X204132Y119693D02*
X208668Y119693D01*
X208668Y94117D02*
X204132Y94117D01*
X208668Y94117D02*
X208668Y81581D01*
X204132Y81581D01*
X204132Y94117D01*
X204132Y83703D02*
X208668Y83703D01*
X208668Y85825D02*
X204132Y85825D01*
X204132Y87947D02*
X208668Y87947D01*
X208668Y90069D02*
X204132Y90069D01*
X204132Y92191D02*
X208668Y92191D01*
X213632Y94117D02*
X218168Y94117D01*
X218168Y81581D01*
X213632Y81581D01*
X213632Y94117D01*
X213632Y83703D02*
X218168Y83703D01*
X218168Y85825D02*
X213632Y85825D01*
X213632Y87947D02*
X218168Y87947D01*
X218168Y90069D02*
X213632Y90069D01*
X213632Y92191D02*
X218168Y92191D01*
X223132Y94117D02*
X227668Y94117D01*
X227668Y81581D01*
X223132Y81581D01*
X223132Y94117D01*
X223132Y83703D02*
X227668Y83703D01*
X227668Y85825D02*
X223132Y85825D01*
X223132Y87947D02*
X227668Y87947D01*
X227668Y90069D02*
X223132Y90069D01*
X223132Y92191D02*
X227668Y92191D01*
D25*
X263050Y110450D02*
X263050Y115750D01*
X270350Y115750D01*
X270350Y110450D01*
X263050Y110450D01*
X263050Y112607D02*
X270350Y112607D01*
X270350Y114764D02*
X263050Y114764D01*
X263050Y92750D02*
X263050Y87450D01*
X263050Y92750D02*
X270350Y92750D01*
X270350Y87450D01*
X263050Y87450D01*
X263050Y89607D02*
X270350Y89607D01*
X270350Y91764D02*
X263050Y91764D01*
X288450Y110450D02*
X288450Y115750D01*
X295750Y115750D01*
X295750Y110450D01*
X288450Y110450D01*
X288450Y112607D02*
X295750Y112607D01*
X295750Y114764D02*
X288450Y114764D01*
X288450Y92750D02*
X288450Y87450D01*
X288450Y92750D02*
X295750Y92750D01*
X295750Y87450D01*
X288450Y87450D01*
X288450Y89607D02*
X295750Y89607D01*
X295750Y91764D02*
X288450Y91764D01*
D26*
X370078Y143510D02*
X372872Y143510D01*
X372872Y133096D01*
X370078Y133096D01*
X370078Y143510D01*
X370078Y135268D02*
X372872Y135268D01*
X372872Y137440D02*
X370078Y137440D01*
X370078Y139612D02*
X372872Y139612D01*
X372872Y141784D02*
X370078Y141784D01*
X366522Y143510D02*
X363728Y143510D01*
X366522Y143510D02*
X366522Y133096D01*
X363728Y133096D01*
X363728Y143510D01*
X363728Y135268D02*
X366522Y135268D01*
X366522Y137440D02*
X363728Y137440D01*
X363728Y139612D02*
X366522Y139612D01*
X366522Y141784D02*
X363728Y141784D01*
X360172Y143510D02*
X357378Y143510D01*
X360172Y143510D02*
X360172Y133096D01*
X357378Y133096D01*
X357378Y143510D01*
X357378Y135268D02*
X360172Y135268D01*
X360172Y137440D02*
X357378Y137440D01*
X357378Y139612D02*
X360172Y139612D01*
X360172Y141784D02*
X357378Y141784D01*
X353822Y143510D02*
X351028Y143510D01*
X353822Y143510D02*
X353822Y133096D01*
X351028Y133096D01*
X351028Y143510D01*
X351028Y135268D02*
X353822Y135268D01*
X353822Y137440D02*
X351028Y137440D01*
X351028Y139612D02*
X353822Y139612D01*
X353822Y141784D02*
X351028Y141784D01*
X347472Y143510D02*
X344678Y143510D01*
X347472Y143510D02*
X347472Y133096D01*
X344678Y133096D01*
X344678Y143510D01*
X344678Y135268D02*
X347472Y135268D01*
X347472Y137440D02*
X344678Y137440D01*
X344678Y139612D02*
X347472Y139612D01*
X347472Y141784D02*
X344678Y141784D01*
X341122Y143510D02*
X338328Y143510D01*
X341122Y143510D02*
X341122Y133096D01*
X338328Y133096D01*
X338328Y143510D01*
X338328Y135268D02*
X341122Y135268D01*
X341122Y137440D02*
X338328Y137440D01*
X338328Y139612D02*
X341122Y139612D01*
X341122Y141784D02*
X338328Y141784D01*
X376428Y143510D02*
X379222Y143510D01*
X379222Y133096D01*
X376428Y133096D01*
X376428Y143510D01*
X376428Y135268D02*
X379222Y135268D01*
X379222Y137440D02*
X376428Y137440D01*
X376428Y139612D02*
X379222Y139612D01*
X379222Y141784D02*
X376428Y141784D01*
X382778Y143510D02*
X385572Y143510D01*
X385572Y133096D01*
X382778Y133096D01*
X382778Y143510D01*
X382778Y135268D02*
X385572Y135268D01*
X385572Y137440D02*
X382778Y137440D01*
X382778Y139612D02*
X385572Y139612D01*
X385572Y141784D02*
X382778Y141784D01*
X389128Y143510D02*
X391922Y143510D01*
X391922Y133096D01*
X389128Y133096D01*
X389128Y143510D01*
X389128Y135268D02*
X391922Y135268D01*
X391922Y137440D02*
X389128Y137440D01*
X389128Y139612D02*
X391922Y139612D01*
X391922Y141784D02*
X389128Y141784D01*
X395478Y143510D02*
X398272Y143510D01*
X398272Y133096D01*
X395478Y133096D01*
X395478Y143510D01*
X395478Y135268D02*
X398272Y135268D01*
X398272Y137440D02*
X395478Y137440D01*
X395478Y139612D02*
X398272Y139612D01*
X398272Y141784D02*
X395478Y141784D01*
X366522Y186690D02*
X363728Y186690D01*
X363728Y197104D01*
X366522Y197104D01*
X366522Y186690D01*
X366522Y188862D02*
X363728Y188862D01*
X363728Y191034D02*
X366522Y191034D01*
X366522Y193206D02*
X363728Y193206D01*
X363728Y195378D02*
X366522Y195378D01*
X370078Y186690D02*
X372872Y186690D01*
X370078Y186690D02*
X370078Y197104D01*
X372872Y197104D01*
X372872Y186690D01*
X372872Y188862D02*
X370078Y188862D01*
X370078Y191034D02*
X372872Y191034D01*
X372872Y193206D02*
X370078Y193206D01*
X370078Y195378D02*
X372872Y195378D01*
X376428Y186690D02*
X379222Y186690D01*
X376428Y186690D02*
X376428Y197104D01*
X379222Y197104D01*
X379222Y186690D01*
X379222Y188862D02*
X376428Y188862D01*
X376428Y191034D02*
X379222Y191034D01*
X379222Y193206D02*
X376428Y193206D01*
X376428Y195378D02*
X379222Y195378D01*
X382778Y186690D02*
X385572Y186690D01*
X382778Y186690D02*
X382778Y197104D01*
X385572Y197104D01*
X385572Y186690D01*
X385572Y188862D02*
X382778Y188862D01*
X382778Y191034D02*
X385572Y191034D01*
X385572Y193206D02*
X382778Y193206D01*
X382778Y195378D02*
X385572Y195378D01*
X389128Y186690D02*
X391922Y186690D01*
X389128Y186690D02*
X389128Y197104D01*
X391922Y197104D01*
X391922Y186690D01*
X391922Y188862D02*
X389128Y188862D01*
X389128Y191034D02*
X391922Y191034D01*
X391922Y193206D02*
X389128Y193206D01*
X389128Y195378D02*
X391922Y195378D01*
X395478Y186690D02*
X398272Y186690D01*
X395478Y186690D02*
X395478Y197104D01*
X398272Y197104D01*
X398272Y186690D01*
X398272Y188862D02*
X395478Y188862D01*
X395478Y191034D02*
X398272Y191034D01*
X398272Y193206D02*
X395478Y193206D01*
X395478Y195378D02*
X398272Y195378D01*
X360172Y186690D02*
X357378Y186690D01*
X357378Y197104D01*
X360172Y197104D01*
X360172Y186690D01*
X360172Y188862D02*
X357378Y188862D01*
X357378Y191034D02*
X360172Y191034D01*
X360172Y193206D02*
X357378Y193206D01*
X357378Y195378D02*
X360172Y195378D01*
X353822Y186690D02*
X351028Y186690D01*
X351028Y197104D01*
X353822Y197104D01*
X353822Y186690D01*
X353822Y188862D02*
X351028Y188862D01*
X351028Y191034D02*
X353822Y191034D01*
X353822Y193206D02*
X351028Y193206D01*
X351028Y195378D02*
X353822Y195378D01*
X347472Y186690D02*
X344678Y186690D01*
X344678Y197104D01*
X347472Y197104D01*
X347472Y186690D01*
X347472Y188862D02*
X344678Y188862D01*
X344678Y191034D02*
X347472Y191034D01*
X347472Y193206D02*
X344678Y193206D01*
X344678Y195378D02*
X347472Y195378D01*
X341122Y186690D02*
X338328Y186690D01*
X338328Y197104D01*
X341122Y197104D01*
X341122Y186690D01*
X341122Y188862D02*
X338328Y188862D01*
X338328Y191034D02*
X341122Y191034D01*
X341122Y193206D02*
X338328Y193206D01*
X338328Y195378D02*
X341122Y195378D01*
D12*
X364952Y117412D02*
X374968Y117412D01*
X364952Y117412D02*
X364952Y126428D01*
X374968Y126428D01*
X374968Y117412D01*
X374968Y119553D02*
X364952Y119553D01*
X364952Y121694D02*
X374968Y121694D01*
X374968Y123835D02*
X364952Y123835D01*
X364952Y125976D02*
X374968Y125976D01*
X381952Y117412D02*
X391968Y117412D01*
X381952Y117412D02*
X381952Y126428D01*
X391968Y126428D01*
X391968Y117412D01*
X391968Y119553D02*
X381952Y119553D01*
X381952Y121694D02*
X391968Y121694D01*
X391968Y123835D02*
X381952Y123835D01*
X381952Y125976D02*
X391968Y125976D01*
X390952Y213804D02*
X380936Y213804D01*
X390952Y213804D02*
X390952Y204788D01*
X380936Y204788D01*
X380936Y213804D01*
X380936Y206929D02*
X390952Y206929D01*
X390952Y209070D02*
X380936Y209070D01*
X380936Y211211D02*
X390952Y211211D01*
X390952Y213352D02*
X380936Y213352D01*
X373952Y213804D02*
X363936Y213804D01*
X373952Y213804D02*
X373952Y204788D01*
X363936Y204788D01*
X363936Y213804D01*
X363936Y206929D02*
X373952Y206929D01*
X373952Y209070D02*
X363936Y209070D01*
X363936Y211211D02*
X373952Y211211D01*
X373952Y213352D02*
X363936Y213352D01*
X65342Y486092D02*
X65342Y496108D01*
X74358Y496108D01*
X74358Y486092D01*
X65342Y486092D01*
X65342Y488233D02*
X74358Y488233D01*
X74358Y490374D02*
X65342Y490374D01*
X65342Y492515D02*
X74358Y492515D01*
X74358Y494656D02*
X65342Y494656D01*
X65342Y479108D02*
X65342Y469092D01*
X65342Y479108D02*
X74358Y479108D01*
X74358Y469092D01*
X65342Y469092D01*
X65342Y471233D02*
X74358Y471233D01*
X74358Y473374D02*
X65342Y473374D01*
X65342Y475515D02*
X74358Y475515D01*
X74358Y477656D02*
X65342Y477656D01*
X80074Y486092D02*
X80074Y496108D01*
X89090Y496108D01*
X89090Y486092D01*
X80074Y486092D01*
X80074Y488233D02*
X89090Y488233D01*
X89090Y490374D02*
X80074Y490374D01*
X80074Y492515D02*
X89090Y492515D01*
X89090Y494656D02*
X80074Y494656D01*
X80074Y479108D02*
X80074Y469092D01*
X80074Y479108D02*
X89090Y479108D01*
X89090Y469092D01*
X80074Y469092D01*
X80074Y471233D02*
X89090Y471233D01*
X89090Y473374D02*
X80074Y473374D01*
X80074Y475515D02*
X89090Y475515D01*
X89090Y477656D02*
X80074Y477656D01*
X144208Y124778D02*
X144208Y114762D01*
X135192Y114762D01*
X135192Y124778D01*
X144208Y124778D01*
X144208Y116903D02*
X135192Y116903D01*
X135192Y119044D02*
X144208Y119044D01*
X144208Y121185D02*
X135192Y121185D01*
X135192Y123326D02*
X144208Y123326D01*
X144208Y131762D02*
X144208Y141778D01*
X144208Y131762D02*
X135192Y131762D01*
X135192Y141778D01*
X144208Y141778D01*
X144208Y133903D02*
X135192Y133903D01*
X135192Y136044D02*
X144208Y136044D01*
X144208Y138185D02*
X135192Y138185D01*
X135192Y140326D02*
X144208Y140326D01*
X150432Y141778D02*
X150432Y131762D01*
X150432Y141778D02*
X159448Y141778D01*
X159448Y131762D01*
X150432Y131762D01*
X150432Y133903D02*
X159448Y133903D01*
X159448Y136044D02*
X150432Y136044D01*
X150432Y138185D02*
X159448Y138185D01*
X159448Y140326D02*
X150432Y140326D01*
X150432Y124778D02*
X150432Y114762D01*
X150432Y124778D02*
X159448Y124778D01*
X159448Y114762D01*
X150432Y114762D01*
X150432Y116903D02*
X159448Y116903D01*
X159448Y119044D02*
X150432Y119044D01*
X150432Y121185D02*
X159448Y121185D01*
X159448Y123326D02*
X150432Y123326D01*
X364952Y102172D02*
X374968Y102172D01*
X364952Y102172D02*
X364952Y111188D01*
X374968Y111188D01*
X374968Y102172D01*
X374968Y104313D02*
X364952Y104313D01*
X364952Y106454D02*
X374968Y106454D01*
X374968Y108595D02*
X364952Y108595D01*
X364952Y110736D02*
X374968Y110736D01*
X381952Y102172D02*
X391968Y102172D01*
X381952Y102172D02*
X381952Y111188D01*
X391968Y111188D01*
X391968Y102172D01*
X391968Y104313D02*
X381952Y104313D01*
X381952Y106454D02*
X391968Y106454D01*
X391968Y108595D02*
X381952Y108595D01*
X381952Y110736D02*
X391968Y110736D01*
D27*
X98588Y328212D02*
X98588Y357588D01*
X98588Y328212D02*
X79212Y328212D01*
X79212Y357588D01*
X98588Y357588D01*
X98588Y330487D02*
X79212Y330487D01*
X79212Y332762D02*
X98588Y332762D01*
X98588Y335037D02*
X79212Y335037D01*
X79212Y337312D02*
X98588Y337312D01*
X98588Y339587D02*
X79212Y339587D01*
X79212Y341862D02*
X98588Y341862D01*
X98588Y344137D02*
X79212Y344137D01*
X79212Y346412D02*
X98588Y346412D01*
X98588Y348687D02*
X79212Y348687D01*
X79212Y350962D02*
X98588Y350962D01*
X98588Y353237D02*
X79212Y353237D01*
X79212Y355512D02*
X98588Y355512D01*
X447512Y429812D02*
X447512Y459188D01*
X466888Y459188D01*
X466888Y429812D01*
X447512Y429812D01*
X447512Y432087D02*
X466888Y432087D01*
X466888Y434362D02*
X447512Y434362D01*
X447512Y436637D02*
X466888Y436637D01*
X466888Y438912D02*
X447512Y438912D01*
X447512Y441187D02*
X466888Y441187D01*
X466888Y443462D02*
X447512Y443462D01*
X447512Y445737D02*
X466888Y445737D01*
X466888Y448012D02*
X447512Y448012D01*
X447512Y450287D02*
X466888Y450287D01*
X466888Y452562D02*
X447512Y452562D01*
X447512Y454837D02*
X466888Y454837D01*
X466888Y457112D02*
X447512Y457112D01*
D12*
X433514Y467314D02*
X433514Y477330D01*
X433514Y467314D02*
X424498Y467314D01*
X424498Y477330D01*
X433514Y477330D01*
X433514Y469455D02*
X424498Y469455D01*
X424498Y471596D02*
X433514Y471596D01*
X433514Y473737D02*
X424498Y473737D01*
X424498Y475878D02*
X433514Y475878D01*
X433514Y484314D02*
X433514Y494330D01*
X433514Y484314D02*
X424498Y484314D01*
X424498Y494330D01*
X433514Y494330D01*
X433514Y486455D02*
X424498Y486455D01*
X424498Y488596D02*
X433514Y488596D01*
X433514Y490737D02*
X424498Y490737D01*
X424498Y492878D02*
X433514Y492878D01*
X468566Y485076D02*
X478582Y485076D01*
X478582Y476060D01*
X468566Y476060D01*
X468566Y485076D01*
X468566Y478201D02*
X478582Y478201D01*
X478582Y480342D02*
X468566Y480342D01*
X468566Y482483D02*
X478582Y482483D01*
X478582Y484624D02*
X468566Y484624D01*
X461582Y485076D02*
X451566Y485076D01*
X461582Y485076D02*
X461582Y476060D01*
X451566Y476060D01*
X451566Y485076D01*
X451566Y478201D02*
X461582Y478201D01*
X461582Y480342D02*
X451566Y480342D01*
X451566Y482483D02*
X461582Y482483D01*
X461582Y484624D02*
X451566Y484624D01*
X114364Y326690D02*
X114364Y316674D01*
X114364Y326690D02*
X123380Y326690D01*
X123380Y316674D01*
X114364Y316674D01*
X114364Y318815D02*
X123380Y318815D01*
X123380Y320956D02*
X114364Y320956D01*
X114364Y323097D02*
X123380Y323097D01*
X123380Y325238D02*
X114364Y325238D01*
X114364Y309690D02*
X114364Y299674D01*
X114364Y309690D02*
X123380Y309690D01*
X123380Y299674D01*
X114364Y299674D01*
X114364Y301815D02*
X123380Y301815D01*
X123380Y303956D02*
X114364Y303956D01*
X114364Y306097D02*
X123380Y306097D01*
X123380Y308238D02*
X114364Y308238D01*
X78042Y301308D02*
X68026Y301308D01*
X68026Y310324D01*
X78042Y310324D01*
X78042Y301308D01*
X78042Y303449D02*
X68026Y303449D01*
X68026Y305590D02*
X78042Y305590D01*
X78042Y307731D02*
X68026Y307731D01*
X68026Y309872D02*
X78042Y309872D01*
X85026Y301308D02*
X95042Y301308D01*
X85026Y301308D02*
X85026Y310324D01*
X95042Y310324D01*
X95042Y301308D01*
X95042Y303449D02*
X85026Y303449D01*
X85026Y305590D02*
X95042Y305590D01*
X95042Y307731D02*
X85026Y307731D01*
X85026Y309872D02*
X95042Y309872D01*
D28*
X312094Y289566D02*
X319046Y289566D01*
X319046Y281614D01*
X312094Y281614D01*
X312094Y289566D01*
X312094Y283816D02*
X319046Y283816D01*
X319046Y286018D02*
X312094Y286018D01*
X312094Y288220D02*
X319046Y288220D01*
X300046Y289566D02*
X293094Y289566D01*
X300046Y289566D02*
X300046Y281614D01*
X293094Y281614D01*
X293094Y289566D01*
X293094Y283816D02*
X300046Y283816D01*
X300046Y286018D02*
X293094Y286018D01*
X293094Y288220D02*
X300046Y288220D01*
X302594Y268566D02*
X309546Y268566D01*
X309546Y260614D01*
X302594Y260614D01*
X302594Y268566D01*
X302594Y262816D02*
X309546Y262816D01*
X309546Y265018D02*
X302594Y265018D01*
X302594Y267220D02*
X309546Y267220D01*
D12*
X245682Y275272D02*
X245682Y285288D01*
X254698Y285288D01*
X254698Y275272D01*
X245682Y275272D01*
X245682Y277413D02*
X254698Y277413D01*
X254698Y279554D02*
X245682Y279554D01*
X245682Y281695D02*
X254698Y281695D01*
X254698Y283836D02*
X245682Y283836D01*
X245682Y268288D02*
X245682Y258272D01*
X245682Y268288D02*
X254698Y268288D01*
X254698Y258272D01*
X245682Y258272D01*
X245682Y260413D02*
X254698Y260413D01*
X254698Y262554D02*
X245682Y262554D01*
X245682Y264695D02*
X254698Y264695D01*
X254698Y266836D02*
X245682Y266836D01*
X261066Y293942D02*
X271082Y293942D01*
X261066Y293942D02*
X261066Y302958D01*
X271082Y302958D01*
X271082Y293942D01*
X271082Y296083D02*
X261066Y296083D01*
X261066Y298224D02*
X271082Y298224D01*
X271082Y300365D02*
X261066Y300365D01*
X261066Y302506D02*
X271082Y302506D01*
X278066Y293942D02*
X288082Y293942D01*
X278066Y293942D02*
X278066Y302958D01*
X288082Y302958D01*
X288082Y293942D01*
X288082Y296083D02*
X278066Y296083D01*
X278066Y298224D02*
X288082Y298224D01*
X288082Y300365D02*
X278066Y300365D01*
X278066Y302506D02*
X288082Y302506D01*
D29*
X287092Y266782D02*
X287092Y263778D01*
X280088Y263778D01*
X280088Y266782D01*
X287092Y266782D01*
X287092Y265931D02*
X280088Y265931D01*
X287092Y270278D02*
X287092Y273282D01*
X287092Y270278D02*
X280088Y270278D01*
X280088Y273282D01*
X287092Y273282D01*
X287092Y272431D02*
X280088Y272431D01*
X287092Y276778D02*
X287092Y279782D01*
X287092Y276778D02*
X280088Y276778D01*
X280088Y279782D01*
X287092Y279782D01*
X287092Y278931D02*
X280088Y278931D01*
X271092Y279782D02*
X271092Y276778D01*
X264088Y276778D01*
X264088Y279782D01*
X271092Y279782D01*
X271092Y278931D02*
X264088Y278931D01*
X271092Y273282D02*
X271092Y270278D01*
X264088Y270278D01*
X264088Y273282D01*
X271092Y273282D01*
X271092Y272431D02*
X264088Y272431D01*
X271092Y266782D02*
X271092Y263778D01*
X264088Y263778D01*
X264088Y266782D01*
X271092Y266782D01*
X271092Y265931D02*
X264088Y265931D01*
D12*
X93282Y437832D02*
X93282Y447848D01*
X102298Y447848D01*
X102298Y437832D01*
X93282Y437832D01*
X93282Y439973D02*
X102298Y439973D01*
X102298Y442114D02*
X93282Y442114D01*
X93282Y444255D02*
X102298Y444255D01*
X102298Y446396D02*
X93282Y446396D01*
X93282Y430848D02*
X93282Y420832D01*
X93282Y430848D02*
X102298Y430848D01*
X102298Y420832D01*
X93282Y420832D01*
X93282Y422973D02*
X102298Y422973D01*
X102298Y425114D02*
X93282Y425114D01*
X93282Y427255D02*
X102298Y427255D01*
X102298Y429396D02*
X93282Y429396D01*
X78042Y437832D02*
X78042Y447848D01*
X87058Y447848D01*
X87058Y437832D01*
X78042Y437832D01*
X78042Y439973D02*
X87058Y439973D01*
X87058Y442114D02*
X78042Y442114D01*
X78042Y444255D02*
X87058Y444255D01*
X87058Y446396D02*
X78042Y446396D01*
X78042Y430848D02*
X78042Y420832D01*
X78042Y430848D02*
X87058Y430848D01*
X87058Y420832D01*
X78042Y420832D01*
X78042Y422973D02*
X87058Y422973D01*
X87058Y425114D02*
X78042Y425114D01*
X78042Y427255D02*
X87058Y427255D01*
X87058Y429396D02*
X78042Y429396D01*
D16*
X513276Y105094D02*
X513276Y98106D01*
X513276Y105094D02*
X520264Y105094D01*
X520264Y98106D01*
X513276Y98106D01*
X513276Y102175D02*
X520264Y102175D01*
X495736Y105094D02*
X495736Y98106D01*
X495736Y105094D02*
X502724Y105094D01*
X502724Y98106D01*
X495736Y98106D01*
X495736Y102175D02*
X502724Y102175D01*
D12*
X466916Y97092D02*
X456900Y97092D01*
X456900Y106108D01*
X466916Y106108D01*
X466916Y97092D01*
X466916Y99233D02*
X456900Y99233D01*
X456900Y101374D02*
X466916Y101374D01*
X466916Y103515D02*
X456900Y103515D01*
X456900Y105656D02*
X466916Y105656D01*
X473900Y97092D02*
X483916Y97092D01*
X473900Y97092D02*
X473900Y106108D01*
X483916Y106108D01*
X483916Y97092D01*
X483916Y99233D02*
X473900Y99233D01*
X473900Y101374D02*
X483916Y101374D01*
X483916Y103515D02*
X473900Y103515D01*
X473900Y105656D02*
X483916Y105656D01*
X475112Y284182D02*
X475112Y293198D01*
X485628Y293198D01*
X485628Y284182D01*
X475112Y284182D01*
X475112Y286323D02*
X485628Y286323D01*
X485628Y288464D02*
X475112Y288464D01*
X475112Y290605D02*
X485628Y290605D01*
X485628Y292746D02*
X475112Y292746D01*
X475112Y309182D02*
X475112Y318198D01*
X485628Y318198D01*
X485628Y309182D01*
X475112Y309182D01*
X475112Y311323D02*
X485628Y311323D01*
X485628Y313464D02*
X475112Y313464D01*
X475112Y315605D02*
X485628Y315605D01*
X485628Y317746D02*
X475112Y317746D01*
X475112Y334182D02*
X475112Y343198D01*
X485628Y343198D01*
X485628Y334182D01*
X475112Y334182D01*
X475112Y336323D02*
X485628Y336323D01*
X485628Y338464D02*
X475112Y338464D01*
X475112Y340605D02*
X485628Y340605D01*
X485628Y342746D02*
X475112Y342746D01*
X418612Y293198D02*
X418612Y284182D01*
X418612Y293198D02*
X429128Y293198D01*
X429128Y284182D01*
X418612Y284182D01*
X418612Y286323D02*
X429128Y286323D01*
X429128Y288464D02*
X418612Y288464D01*
X418612Y290605D02*
X429128Y290605D01*
X429128Y292746D02*
X418612Y292746D01*
X418612Y309182D02*
X418612Y318198D01*
X429128Y318198D01*
X429128Y309182D01*
X418612Y309182D01*
X418612Y311323D02*
X429128Y311323D01*
X429128Y313464D02*
X418612Y313464D01*
X418612Y315605D02*
X429128Y315605D01*
X429128Y317746D02*
X418612Y317746D01*
X418612Y334182D02*
X418612Y343198D01*
X429128Y343198D01*
X429128Y334182D01*
X418612Y334182D01*
X418612Y336323D02*
X429128Y336323D01*
X429128Y338464D02*
X418612Y338464D01*
X418612Y340605D02*
X429128Y340605D01*
X429128Y342746D02*
X418612Y342746D01*
D24*
X452120Y298690D03*
X452120Y328690D03*
D12*
X484568Y261938D02*
X484568Y251922D01*
X475552Y251922D01*
X475552Y261938D01*
X484568Y261938D01*
X484568Y254063D02*
X475552Y254063D01*
X475552Y256204D02*
X484568Y256204D01*
X484568Y258345D02*
X475552Y258345D01*
X475552Y260486D02*
X484568Y260486D01*
X484568Y268922D02*
X484568Y278938D01*
X484568Y268922D02*
X475552Y268922D01*
X475552Y278938D01*
X484568Y278938D01*
X484568Y271063D02*
X475552Y271063D01*
X475552Y273204D02*
X484568Y273204D01*
X484568Y275345D02*
X475552Y275345D01*
X475552Y277486D02*
X484568Y277486D01*
X429128Y246678D02*
X429128Y237662D01*
X418612Y237662D01*
X418612Y246678D01*
X429128Y246678D01*
X429128Y239803D02*
X418612Y239803D01*
X418612Y241944D02*
X429128Y241944D01*
X429128Y244085D02*
X418612Y244085D01*
X418612Y246226D02*
X429128Y246226D01*
X429128Y221678D02*
X429128Y212662D01*
X418612Y212662D01*
X418612Y221678D01*
X429128Y221678D01*
X429128Y214803D02*
X418612Y214803D01*
X418612Y216944D02*
X429128Y216944D01*
X429128Y219085D02*
X418612Y219085D01*
X418612Y221226D02*
X429128Y221226D01*
X429128Y196678D02*
X429128Y187662D01*
X418612Y187662D01*
X418612Y196678D01*
X429128Y196678D01*
X429128Y189803D02*
X418612Y189803D01*
X418612Y191944D02*
X429128Y191944D01*
X429128Y194085D02*
X418612Y194085D01*
X418612Y196226D02*
X429128Y196226D01*
X485628Y237662D02*
X485628Y246678D01*
X485628Y237662D02*
X475112Y237662D01*
X475112Y246678D01*
X485628Y246678D01*
X485628Y239803D02*
X475112Y239803D01*
X475112Y241944D02*
X485628Y241944D01*
X485628Y244085D02*
X475112Y244085D01*
X475112Y246226D02*
X485628Y246226D01*
X485628Y221678D02*
X485628Y212662D01*
X475112Y212662D01*
X475112Y221678D01*
X485628Y221678D01*
X485628Y214803D02*
X475112Y214803D01*
X475112Y216944D02*
X485628Y216944D01*
X485628Y219085D02*
X475112Y219085D01*
X475112Y221226D02*
X485628Y221226D01*
X485628Y196678D02*
X485628Y187662D01*
X475112Y187662D01*
X475112Y196678D01*
X485628Y196678D01*
X485628Y189803D02*
X475112Y189803D01*
X475112Y191944D02*
X485628Y191944D01*
X485628Y194085D02*
X475112Y194085D01*
X475112Y196226D02*
X485628Y196226D01*
D24*
X452120Y232170D03*
X452120Y202170D03*
D28*
X442236Y175266D02*
X435284Y175266D01*
X442236Y175266D02*
X442236Y167314D01*
X435284Y167314D01*
X435284Y175266D01*
X435284Y169516D02*
X442236Y169516D01*
X442236Y171718D02*
X435284Y171718D01*
X435284Y173920D02*
X442236Y173920D01*
X423236Y175266D02*
X416284Y175266D01*
X423236Y175266D02*
X423236Y167314D01*
X416284Y167314D01*
X416284Y175266D01*
X416284Y169516D02*
X423236Y169516D01*
X423236Y171718D02*
X416284Y171718D01*
X416284Y173920D02*
X423236Y173920D01*
X425784Y154266D02*
X432736Y154266D01*
X432736Y146314D01*
X425784Y146314D01*
X425784Y154266D01*
X425784Y148516D02*
X432736Y148516D01*
X432736Y150718D02*
X425784Y150718D01*
X425784Y152920D02*
X432736Y152920D01*
D12*
X473900Y169608D02*
X483916Y169608D01*
X483916Y160592D01*
X473900Y160592D01*
X473900Y169608D01*
X473900Y162733D02*
X483916Y162733D01*
X483916Y164874D02*
X473900Y164874D01*
X473900Y167015D02*
X483916Y167015D01*
X483916Y169156D02*
X473900Y169156D01*
X466916Y169608D02*
X456900Y169608D01*
X466916Y169608D02*
X466916Y160592D01*
X456900Y160592D01*
X456900Y169608D01*
X456900Y162733D02*
X466916Y162733D01*
X466916Y164874D02*
X456900Y164874D01*
X456900Y167015D02*
X466916Y167015D01*
X466916Y169156D02*
X456900Y169156D01*
D28*
X415792Y386516D02*
X415792Y393468D01*
X423744Y393468D01*
X423744Y386516D01*
X415792Y386516D01*
X415792Y388718D02*
X423744Y388718D01*
X423744Y390920D02*
X415792Y390920D01*
X415792Y393122D02*
X423744Y393122D01*
X415792Y374468D02*
X415792Y367516D01*
X415792Y374468D02*
X423744Y374468D01*
X423744Y367516D01*
X415792Y367516D01*
X415792Y369718D02*
X423744Y369718D01*
X423744Y371920D02*
X415792Y371920D01*
X415792Y374122D02*
X423744Y374122D01*
X436792Y377016D02*
X436792Y383968D01*
X444744Y383968D01*
X444744Y377016D01*
X436792Y377016D01*
X436792Y379218D02*
X444744Y379218D01*
X444744Y381420D02*
X436792Y381420D01*
X436792Y383622D02*
X444744Y383622D01*
X463544Y386262D02*
X463544Y393214D01*
X471496Y393214D01*
X471496Y386262D01*
X463544Y386262D01*
X463544Y388464D02*
X471496Y388464D01*
X471496Y390666D02*
X463544Y390666D01*
X463544Y392868D02*
X471496Y392868D01*
X463544Y374214D02*
X463544Y367262D01*
X463544Y374214D02*
X471496Y374214D01*
X471496Y367262D01*
X463544Y367262D01*
X463544Y369464D02*
X471496Y369464D01*
X471496Y371666D02*
X463544Y371666D01*
X463544Y373868D02*
X471496Y373868D01*
X484544Y376762D02*
X484544Y383714D01*
X492496Y383714D01*
X492496Y376762D01*
X484544Y376762D01*
X484544Y378964D02*
X492496Y378964D01*
X492496Y381166D02*
X484544Y381166D01*
X484544Y383368D02*
X492496Y383368D01*
X406406Y260676D02*
X406406Y253724D01*
X398454Y253724D01*
X398454Y260676D01*
X406406Y260676D01*
X406406Y255926D02*
X398454Y255926D01*
X398454Y258128D02*
X406406Y258128D01*
X406406Y260330D02*
X398454Y260330D01*
X406406Y272724D02*
X406406Y279676D01*
X406406Y272724D02*
X398454Y272724D01*
X398454Y279676D01*
X406406Y279676D01*
X406406Y274926D02*
X398454Y274926D01*
X398454Y277128D02*
X406406Y277128D01*
X406406Y279330D02*
X398454Y279330D01*
X385406Y270176D02*
X385406Y263224D01*
X377454Y263224D01*
X377454Y270176D01*
X385406Y270176D01*
X385406Y265426D02*
X377454Y265426D01*
X377454Y267628D02*
X385406Y267628D01*
X385406Y269830D02*
X377454Y269830D01*
D12*
X428688Y261938D02*
X428688Y251922D01*
X419672Y251922D01*
X419672Y261938D01*
X428688Y261938D01*
X428688Y254063D02*
X419672Y254063D01*
X419672Y256204D02*
X428688Y256204D01*
X428688Y258345D02*
X419672Y258345D01*
X419672Y260486D02*
X428688Y260486D01*
X428688Y268922D02*
X428688Y278938D01*
X428688Y268922D02*
X419672Y268922D01*
X419672Y278938D01*
X428688Y278938D01*
X428688Y271063D02*
X419672Y271063D01*
X419672Y273204D02*
X428688Y273204D01*
X428688Y275345D02*
X419672Y275345D01*
X419672Y277486D02*
X428688Y277486D01*
X456900Y144082D02*
X466916Y144082D01*
X456900Y144082D02*
X456900Y153098D01*
X466916Y153098D01*
X466916Y144082D01*
X466916Y146223D02*
X456900Y146223D01*
X456900Y148364D02*
X466916Y148364D01*
X466916Y150505D02*
X456900Y150505D01*
X456900Y152646D02*
X466916Y152646D01*
X473900Y144082D02*
X483916Y144082D01*
X473900Y144082D02*
X473900Y153098D01*
X483916Y153098D01*
X483916Y144082D01*
X483916Y146223D02*
X473900Y146223D01*
X473900Y148364D02*
X483916Y148364D01*
X483916Y150505D02*
X473900Y150505D01*
X473900Y152646D02*
X483916Y152646D01*
X457644Y366984D02*
X457644Y377000D01*
X457644Y366984D02*
X448628Y366984D01*
X448628Y377000D01*
X457644Y377000D01*
X457644Y369125D02*
X448628Y369125D01*
X448628Y371266D02*
X457644Y371266D01*
X457644Y373407D02*
X448628Y373407D01*
X448628Y375548D02*
X457644Y375548D01*
X457644Y383984D02*
X457644Y394000D01*
X457644Y383984D02*
X448628Y383984D01*
X448628Y394000D01*
X457644Y394000D01*
X457644Y386125D02*
X448628Y386125D01*
X448628Y388266D02*
X457644Y388266D01*
X457644Y390407D02*
X448628Y390407D01*
X448628Y392548D02*
X457644Y392548D01*
D25*
X432656Y118150D02*
X432656Y112850D01*
X425356Y112850D01*
X425356Y118150D01*
X432656Y118150D01*
X432656Y115007D02*
X425356Y115007D01*
X425356Y117164D02*
X432656Y117164D01*
X432656Y135850D02*
X432656Y141150D01*
X432656Y135850D02*
X425356Y135850D01*
X425356Y141150D01*
X432656Y141150D01*
X432656Y138007D02*
X425356Y138007D01*
X425356Y140164D02*
X432656Y140164D01*
M02*
