G04 EAGLE Gerber RS-274X export*
G75*
%MOMM*%
%FSLAX34Y34*%
%LPD*%
%INSolderpaste Top*%
%IPPOS*%
%AMOC8*
5,1,8,0,0,1.08239X$1,22.5*%
G01*
%ADD10C,0.096000*%
%ADD11C,0.102000*%
%ADD12C,0.100000*%
%ADD13C,0.099059*%
%ADD14C,0.300000*%
%ADD15C,0.099000*%
%ADD16C,0.101600*%
%ADD17R,0.875000X0.250000*%
%ADD18C,0.100800*%
%ADD19C,0.102869*%
%ADD20R,0.920000X1.330000*%
%ADD21C,0.104000*%

G36*
X385900Y43951D02*
X385900Y43951D01*
X385901Y43951D01*
X386969Y43970D01*
X386976Y43975D01*
X386980Y43971D01*
X388017Y44227D01*
X388022Y44234D01*
X388028Y44231D01*
X388982Y44712D01*
X388986Y44719D01*
X388991Y44718D01*
X389815Y45399D01*
X389816Y45407D01*
X389822Y45407D01*
X390473Y46254D01*
X390473Y46262D01*
X390479Y46263D01*
X390926Y47234D01*
X390924Y47242D01*
X390929Y47244D01*
X391148Y48290D01*
X391145Y48297D01*
X391149Y48300D01*
X391149Y60300D01*
X391146Y60305D01*
X391149Y60308D01*
X390969Y61403D01*
X390963Y61409D01*
X390966Y61414D01*
X390547Y62442D01*
X390540Y62446D01*
X390542Y62451D01*
X389905Y63360D01*
X389897Y63363D01*
X389897Y63368D01*
X389074Y64112D01*
X389066Y64113D01*
X389065Y64119D01*
X388097Y64661D01*
X388088Y64660D01*
X388086Y64666D01*
X387022Y64979D01*
X387017Y64977D01*
X387013Y64977D01*
X387011Y64981D01*
X385903Y65049D01*
X385897Y65045D01*
X385893Y65049D01*
X384785Y64879D01*
X384779Y64873D01*
X384774Y64876D01*
X383732Y64464D01*
X383728Y64457D01*
X383723Y64459D01*
X382798Y63825D01*
X382796Y63817D01*
X382790Y63818D01*
X382030Y62995D01*
X382029Y62986D01*
X382023Y62986D01*
X381466Y62014D01*
X381467Y62006D01*
X381461Y62004D01*
X381134Y60932D01*
X381137Y60924D01*
X381132Y60921D01*
X381051Y59804D01*
X381052Y59801D01*
X381051Y59800D01*
X381051Y47800D01*
X381056Y47793D01*
X381052Y47789D01*
X381271Y46845D01*
X381277Y46839D01*
X381275Y46834D01*
X381699Y45962D01*
X381706Y45959D01*
X381704Y45953D01*
X382311Y45197D01*
X382319Y45195D01*
X382319Y45189D01*
X383079Y44588D01*
X383088Y44588D01*
X383089Y44582D01*
X383964Y44164D01*
X383972Y44166D01*
X383974Y44161D01*
X384920Y43949D01*
X384927Y43952D01*
X384931Y43947D01*
X385900Y43951D01*
G37*
G36*
X258900Y43951D02*
X258900Y43951D01*
X258901Y43951D01*
X259969Y43970D01*
X259976Y43975D01*
X259980Y43971D01*
X261017Y44227D01*
X261022Y44234D01*
X261028Y44231D01*
X261982Y44712D01*
X261986Y44719D01*
X261991Y44718D01*
X262815Y45399D01*
X262816Y45407D01*
X262822Y45407D01*
X263473Y46254D01*
X263473Y46262D01*
X263479Y46263D01*
X263926Y47234D01*
X263924Y47242D01*
X263929Y47244D01*
X264148Y48290D01*
X264145Y48297D01*
X264149Y48300D01*
X264149Y60300D01*
X264146Y60305D01*
X264149Y60308D01*
X263969Y61403D01*
X263963Y61409D01*
X263966Y61414D01*
X263547Y62442D01*
X263540Y62446D01*
X263542Y62451D01*
X262905Y63360D01*
X262897Y63363D01*
X262897Y63368D01*
X262074Y64112D01*
X262066Y64113D01*
X262065Y64119D01*
X261097Y64661D01*
X261088Y64660D01*
X261086Y64666D01*
X260022Y64979D01*
X260017Y64977D01*
X260013Y64977D01*
X260011Y64981D01*
X258903Y65049D01*
X258897Y65045D01*
X258893Y65049D01*
X257785Y64879D01*
X257779Y64873D01*
X257774Y64876D01*
X256732Y64464D01*
X256728Y64457D01*
X256723Y64459D01*
X255798Y63825D01*
X255796Y63817D01*
X255790Y63818D01*
X255030Y62995D01*
X255029Y62986D01*
X255023Y62986D01*
X254466Y62014D01*
X254467Y62006D01*
X254461Y62004D01*
X254134Y60932D01*
X254137Y60924D01*
X254132Y60921D01*
X254051Y59804D01*
X254052Y59801D01*
X254051Y59800D01*
X254051Y47800D01*
X254056Y47793D01*
X254052Y47789D01*
X254271Y46845D01*
X254277Y46839D01*
X254275Y46834D01*
X254699Y45962D01*
X254706Y45959D01*
X254704Y45953D01*
X255311Y45197D01*
X255319Y45195D01*
X255319Y45189D01*
X256079Y44588D01*
X256088Y44588D01*
X256089Y44582D01*
X256964Y44164D01*
X256972Y44166D01*
X256974Y44161D01*
X257920Y43949D01*
X257927Y43952D01*
X257931Y43947D01*
X258900Y43951D01*
G37*
G36*
X173481Y43960D02*
X173481Y43960D01*
X173488Y43965D01*
X173492Y43961D01*
X174544Y44211D01*
X174549Y44217D01*
X174554Y44214D01*
X175524Y44691D01*
X175527Y44699D01*
X175533Y44697D01*
X176372Y45378D01*
X176374Y45386D01*
X176380Y45386D01*
X177046Y46237D01*
X177047Y46245D01*
X177052Y46246D01*
X177513Y47223D01*
X177511Y47231D01*
X177517Y47234D01*
X177748Y48289D01*
X177745Y48297D01*
X177749Y48300D01*
X177749Y60300D01*
X177745Y60305D01*
X177749Y60308D01*
X177556Y61414D01*
X177550Y61419D01*
X177553Y61424D01*
X177120Y62459D01*
X177113Y62463D01*
X177115Y62468D01*
X176462Y63381D01*
X176454Y63383D01*
X176455Y63389D01*
X175616Y64133D01*
X175607Y64134D01*
X175607Y64139D01*
X174623Y64678D01*
X174615Y64677D01*
X174613Y64682D01*
X173534Y64989D01*
X173526Y64986D01*
X173523Y64991D01*
X172403Y65049D01*
X172398Y65046D01*
X172395Y65049D01*
X171349Y64931D01*
X171343Y64925D01*
X171338Y64929D01*
X170344Y64581D01*
X170340Y64574D01*
X170335Y64576D01*
X169443Y64016D01*
X169441Y64009D01*
X169435Y64009D01*
X168691Y63265D01*
X168689Y63257D01*
X168684Y63257D01*
X168124Y62365D01*
X168124Y62357D01*
X168119Y62356D01*
X167771Y61362D01*
X167774Y61354D01*
X167769Y61351D01*
X167651Y60306D01*
X167653Y60302D01*
X167651Y60300D01*
X167651Y48300D01*
X167654Y48295D01*
X167651Y48292D01*
X167809Y47296D01*
X167815Y47290D01*
X167812Y47285D01*
X168187Y46349D01*
X168194Y46345D01*
X168192Y46339D01*
X168766Y45510D01*
X168774Y45507D01*
X168773Y45502D01*
X169517Y44821D01*
X169526Y44820D01*
X169526Y44814D01*
X170403Y44316D01*
X170412Y44317D01*
X170414Y44312D01*
X171379Y44021D01*
X171387Y44024D01*
X171390Y44019D01*
X172397Y43951D01*
X172399Y43952D01*
X172400Y43951D01*
X173481Y43960D01*
G37*
G36*
X300481Y43960D02*
X300481Y43960D01*
X300488Y43965D01*
X300492Y43961D01*
X301544Y44211D01*
X301549Y44217D01*
X301554Y44214D01*
X302524Y44691D01*
X302527Y44699D01*
X302533Y44697D01*
X303372Y45378D01*
X303374Y45386D01*
X303380Y45386D01*
X304046Y46237D01*
X304047Y46245D01*
X304052Y46246D01*
X304513Y47223D01*
X304511Y47231D01*
X304517Y47234D01*
X304748Y48289D01*
X304745Y48297D01*
X304749Y48300D01*
X304749Y60300D01*
X304745Y60305D01*
X304749Y60308D01*
X304556Y61414D01*
X304550Y61419D01*
X304553Y61424D01*
X304120Y62459D01*
X304113Y62463D01*
X304115Y62468D01*
X303462Y63381D01*
X303454Y63383D01*
X303455Y63389D01*
X302616Y64133D01*
X302607Y64134D01*
X302607Y64139D01*
X301623Y64678D01*
X301615Y64677D01*
X301613Y64682D01*
X300534Y64989D01*
X300526Y64986D01*
X300523Y64991D01*
X299403Y65049D01*
X299398Y65046D01*
X299395Y65049D01*
X298349Y64931D01*
X298343Y64925D01*
X298338Y64929D01*
X297344Y64581D01*
X297340Y64574D01*
X297335Y64576D01*
X296443Y64016D01*
X296441Y64009D01*
X296435Y64009D01*
X295691Y63265D01*
X295689Y63257D01*
X295684Y63257D01*
X295124Y62365D01*
X295124Y62357D01*
X295119Y62356D01*
X294771Y61362D01*
X294774Y61354D01*
X294769Y61351D01*
X294651Y60306D01*
X294653Y60302D01*
X294651Y60300D01*
X294651Y48300D01*
X294654Y48295D01*
X294651Y48292D01*
X294809Y47296D01*
X294815Y47290D01*
X294812Y47285D01*
X295187Y46349D01*
X295194Y46345D01*
X295192Y46339D01*
X295766Y45510D01*
X295774Y45507D01*
X295773Y45502D01*
X296517Y44821D01*
X296526Y44820D01*
X296526Y44814D01*
X297403Y44316D01*
X297412Y44317D01*
X297414Y44312D01*
X298379Y44021D01*
X298387Y44024D01*
X298390Y44019D01*
X299397Y43951D01*
X299399Y43952D01*
X299400Y43951D01*
X300481Y43960D01*
G37*
G36*
X386404Y4455D02*
X386404Y4455D01*
X386407Y4451D01*
X387483Y4606D01*
X387488Y4612D01*
X387493Y4609D01*
X388507Y4999D01*
X388511Y5006D01*
X388517Y5005D01*
X389419Y5611D01*
X389421Y5619D01*
X389427Y5618D01*
X390171Y6410D01*
X390172Y6418D01*
X390178Y6418D01*
X390727Y7356D01*
X390726Y7364D01*
X390732Y7366D01*
X391059Y8402D01*
X391056Y8410D01*
X391061Y8413D01*
X391149Y9496D01*
X391147Y9499D01*
X391149Y9500D01*
X391149Y15500D01*
X391146Y15504D01*
X391149Y15506D01*
X390999Y16639D01*
X390993Y16645D01*
X390996Y16650D01*
X390598Y17720D01*
X390591Y17724D01*
X390593Y17730D01*
X389966Y18685D01*
X389958Y18688D01*
X389959Y18693D01*
X389136Y19485D01*
X389128Y19486D01*
X389127Y19492D01*
X388148Y20081D01*
X388140Y20080D01*
X388138Y20085D01*
X387053Y20441D01*
X387045Y20439D01*
X387042Y20443D01*
X385905Y20549D01*
X385896Y20544D01*
X385891Y20548D01*
X384754Y20341D01*
X384748Y20335D01*
X384743Y20338D01*
X383681Y19883D01*
X383677Y19876D01*
X383671Y19878D01*
X382736Y19198D01*
X382734Y19190D01*
X382728Y19191D01*
X381968Y18320D01*
X381968Y18312D01*
X381962Y18311D01*
X381415Y17292D01*
X381416Y17284D01*
X381411Y17282D01*
X381407Y17269D01*
X381394Y17220D01*
X381393Y17220D01*
X381394Y17220D01*
X381380Y17171D01*
X381366Y17121D01*
X381353Y17072D01*
X381339Y17023D01*
X381326Y16974D01*
X381312Y16924D01*
X381299Y16875D01*
X381285Y16826D01*
X381271Y16777D01*
X381258Y16727D01*
X381244Y16678D01*
X381231Y16629D01*
X381217Y16580D01*
X381204Y16530D01*
X381190Y16481D01*
X381177Y16432D01*
X381176Y16432D01*
X381163Y16383D01*
X381149Y16333D01*
X381104Y16168D01*
X381107Y16160D01*
X381102Y16157D01*
X381051Y15002D01*
X381052Y15001D01*
X381051Y15000D01*
X381051Y9000D01*
X381055Y8994D01*
X381052Y8991D01*
X381264Y7910D01*
X381270Y7905D01*
X381267Y7900D01*
X381714Y6894D01*
X381721Y6890D01*
X381719Y6884D01*
X382379Y6003D01*
X382387Y6000D01*
X382387Y5995D01*
X383226Y5282D01*
X383234Y5282D01*
X383235Y5276D01*
X384212Y4768D01*
X384220Y4769D01*
X384222Y4764D01*
X385287Y4486D01*
X385295Y4489D01*
X385298Y4485D01*
X386399Y4451D01*
X386404Y4455D01*
G37*
G36*
X259404Y4455D02*
X259404Y4455D01*
X259407Y4451D01*
X260483Y4606D01*
X260488Y4612D01*
X260493Y4609D01*
X261507Y4999D01*
X261511Y5006D01*
X261517Y5005D01*
X262419Y5611D01*
X262421Y5619D01*
X262427Y5618D01*
X263171Y6410D01*
X263172Y6418D01*
X263178Y6418D01*
X263727Y7356D01*
X263726Y7364D01*
X263732Y7366D01*
X264059Y8402D01*
X264056Y8410D01*
X264061Y8413D01*
X264149Y9496D01*
X264147Y9499D01*
X264149Y9500D01*
X264149Y15500D01*
X264146Y15504D01*
X264149Y15506D01*
X263999Y16639D01*
X263993Y16645D01*
X263996Y16650D01*
X263598Y17720D01*
X263591Y17724D01*
X263593Y17730D01*
X262966Y18685D01*
X262958Y18688D01*
X262959Y18693D01*
X262136Y19485D01*
X262128Y19486D01*
X262127Y19492D01*
X261148Y20081D01*
X261140Y20080D01*
X261138Y20085D01*
X260053Y20441D01*
X260045Y20439D01*
X260042Y20443D01*
X258905Y20549D01*
X258896Y20544D01*
X258891Y20548D01*
X257754Y20341D01*
X257748Y20335D01*
X257743Y20338D01*
X256681Y19883D01*
X256677Y19876D01*
X256671Y19878D01*
X255736Y19198D01*
X255734Y19190D01*
X255728Y19191D01*
X254968Y18320D01*
X254968Y18312D01*
X254962Y18311D01*
X254415Y17292D01*
X254416Y17284D01*
X254411Y17282D01*
X254407Y17269D01*
X254394Y17220D01*
X254393Y17220D01*
X254394Y17220D01*
X254380Y17171D01*
X254366Y17121D01*
X254353Y17072D01*
X254339Y17023D01*
X254326Y16974D01*
X254312Y16924D01*
X254299Y16875D01*
X254285Y16826D01*
X254271Y16777D01*
X254258Y16727D01*
X254244Y16678D01*
X254231Y16629D01*
X254217Y16580D01*
X254204Y16530D01*
X254190Y16481D01*
X254177Y16432D01*
X254176Y16432D01*
X254163Y16383D01*
X254149Y16333D01*
X254104Y16168D01*
X254107Y16160D01*
X254102Y16157D01*
X254051Y15002D01*
X254052Y15001D01*
X254051Y15000D01*
X254051Y9000D01*
X254055Y8994D01*
X254052Y8991D01*
X254264Y7910D01*
X254270Y7905D01*
X254267Y7900D01*
X254714Y6894D01*
X254721Y6890D01*
X254719Y6884D01*
X255379Y6003D01*
X255387Y6000D01*
X255387Y5995D01*
X256226Y5282D01*
X256234Y5282D01*
X256235Y5276D01*
X257212Y4768D01*
X257220Y4769D01*
X257222Y4764D01*
X258287Y4486D01*
X258295Y4489D01*
X258298Y4485D01*
X259399Y4451D01*
X259404Y4455D01*
G37*
G36*
X172902Y4455D02*
X172902Y4455D01*
X172907Y4451D01*
X173994Y4596D01*
X174000Y4602D01*
X174005Y4599D01*
X175033Y4983D01*
X175038Y4989D01*
X175043Y4988D01*
X175960Y5590D01*
X175963Y5598D01*
X175969Y5597D01*
X176729Y6389D01*
X176730Y6397D01*
X176736Y6398D01*
X177300Y7339D01*
X177300Y7342D01*
X177301Y7343D01*
X177300Y7345D01*
X177299Y7347D01*
X177305Y7349D01*
X177646Y8392D01*
X177644Y8400D01*
X177648Y8403D01*
X177749Y9496D01*
X177747Y9498D01*
X177749Y9500D01*
X177749Y15500D01*
X177747Y15503D01*
X177749Y15505D01*
X177648Y16597D01*
X177643Y16603D01*
X177646Y16608D01*
X177305Y17651D01*
X177298Y17656D01*
X177300Y17661D01*
X176736Y18602D01*
X176728Y18605D01*
X176729Y18611D01*
X175969Y19403D01*
X175961Y19404D01*
X175960Y19410D01*
X175043Y20013D01*
X175035Y20012D01*
X175033Y20018D01*
X174005Y20401D01*
X173997Y20399D01*
X173994Y20404D01*
X172907Y20549D01*
X172899Y20545D01*
X172895Y20549D01*
X171758Y20443D01*
X171752Y20438D01*
X171747Y20441D01*
X170662Y20085D01*
X170657Y20078D01*
X170652Y20081D01*
X169673Y19492D01*
X169670Y19484D01*
X169664Y19485D01*
X168841Y18693D01*
X168840Y18685D01*
X168834Y18685D01*
X168207Y17730D01*
X168208Y17722D01*
X168202Y17720D01*
X167804Y16650D01*
X167806Y16642D01*
X167801Y16639D01*
X167651Y15506D01*
X167654Y15502D01*
X167651Y15500D01*
X167651Y9500D01*
X167654Y9496D01*
X167651Y9494D01*
X167801Y8361D01*
X167807Y8355D01*
X167804Y8350D01*
X168202Y7280D01*
X168209Y7276D01*
X168207Y7270D01*
X168834Y6315D01*
X168842Y6312D01*
X168841Y6307D01*
X169664Y5515D01*
X169672Y5514D01*
X169673Y5508D01*
X170652Y4919D01*
X170660Y4920D01*
X170662Y4915D01*
X171747Y4559D01*
X171755Y4562D01*
X171758Y4557D01*
X172895Y4451D01*
X172902Y4455D01*
G37*
G36*
X299902Y4455D02*
X299902Y4455D01*
X299907Y4451D01*
X300994Y4596D01*
X301000Y4602D01*
X301005Y4599D01*
X302033Y4983D01*
X302038Y4989D01*
X302043Y4988D01*
X302960Y5590D01*
X302963Y5598D01*
X302969Y5597D01*
X303729Y6389D01*
X303730Y6397D01*
X303736Y6398D01*
X304300Y7339D01*
X304300Y7342D01*
X304301Y7343D01*
X304300Y7345D01*
X304299Y7347D01*
X304305Y7349D01*
X304646Y8392D01*
X304644Y8400D01*
X304648Y8403D01*
X304749Y9496D01*
X304747Y9498D01*
X304749Y9500D01*
X304749Y15500D01*
X304747Y15503D01*
X304749Y15505D01*
X304648Y16597D01*
X304643Y16603D01*
X304646Y16608D01*
X304305Y17651D01*
X304298Y17656D01*
X304300Y17661D01*
X303736Y18602D01*
X303728Y18605D01*
X303729Y18611D01*
X302969Y19403D01*
X302961Y19404D01*
X302960Y19410D01*
X302043Y20013D01*
X302035Y20012D01*
X302033Y20018D01*
X301005Y20401D01*
X300997Y20399D01*
X300994Y20404D01*
X299907Y20549D01*
X299899Y20545D01*
X299895Y20549D01*
X298758Y20443D01*
X298752Y20438D01*
X298747Y20441D01*
X297662Y20085D01*
X297657Y20078D01*
X297652Y20081D01*
X296673Y19492D01*
X296670Y19484D01*
X296664Y19485D01*
X295841Y18693D01*
X295840Y18685D01*
X295834Y18685D01*
X295207Y17730D01*
X295208Y17722D01*
X295202Y17720D01*
X294804Y16650D01*
X294806Y16642D01*
X294801Y16639D01*
X294651Y15506D01*
X294654Y15502D01*
X294651Y15500D01*
X294651Y9500D01*
X294654Y9496D01*
X294651Y9494D01*
X294801Y8361D01*
X294807Y8355D01*
X294804Y8350D01*
X295202Y7280D01*
X295209Y7276D01*
X295207Y7270D01*
X295834Y6315D01*
X295842Y6312D01*
X295841Y6307D01*
X296664Y5515D01*
X296672Y5514D01*
X296673Y5508D01*
X297652Y4919D01*
X297660Y4920D01*
X297662Y4915D01*
X298747Y4559D01*
X298755Y4562D01*
X298758Y4557D01*
X299895Y4451D01*
X299902Y4455D01*
G37*
G36*
X442705Y450954D02*
X442705Y450954D01*
X442708Y450951D01*
X443017Y451000D01*
X443025Y451008D01*
X443031Y451005D01*
X443310Y451147D01*
X443315Y451157D01*
X443323Y451156D01*
X443544Y451377D01*
X443545Y451389D01*
X443553Y451390D01*
X443695Y451669D01*
X443694Y451673D01*
X443698Y451676D01*
X443695Y451680D01*
X443700Y451683D01*
X443749Y451992D01*
X443743Y452002D01*
X443749Y452008D01*
X443700Y452317D01*
X443692Y452325D01*
X443695Y452331D01*
X443553Y452610D01*
X443543Y452615D01*
X443544Y452623D01*
X443323Y452844D01*
X443311Y452845D01*
X443310Y452853D01*
X443031Y452995D01*
X443020Y452993D01*
X443017Y453000D01*
X442708Y453049D01*
X442703Y453046D01*
X442700Y453049D01*
X437200Y453049D01*
X437195Y453046D01*
X437192Y453049D01*
X436883Y453000D01*
X436875Y452992D01*
X436869Y452995D01*
X436590Y452853D01*
X436585Y452843D01*
X436577Y452844D01*
X436356Y452623D01*
X436355Y452611D01*
X436347Y452610D01*
X436205Y452331D01*
X436207Y452320D01*
X436200Y452317D01*
X436151Y452008D01*
X436156Y451999D01*
X436155Y451998D01*
X436156Y451997D01*
X436151Y451992D01*
X436200Y451683D01*
X436208Y451675D01*
X436205Y451669D01*
X436347Y451390D01*
X436357Y451385D01*
X436356Y451377D01*
X436577Y451156D01*
X436589Y451155D01*
X436590Y451147D01*
X436869Y451005D01*
X436880Y451007D01*
X436883Y451000D01*
X437192Y450951D01*
X437197Y450954D01*
X437200Y450951D01*
X442700Y450951D01*
X442705Y450954D01*
G37*
G36*
X442705Y460954D02*
X442705Y460954D01*
X442708Y460951D01*
X443017Y461000D01*
X443025Y461008D01*
X443031Y461005D01*
X443310Y461147D01*
X443315Y461157D01*
X443323Y461156D01*
X443544Y461377D01*
X443545Y461389D01*
X443553Y461390D01*
X443695Y461669D01*
X443694Y461673D01*
X443698Y461676D01*
X443695Y461680D01*
X443700Y461683D01*
X443749Y461992D01*
X443743Y462002D01*
X443749Y462008D01*
X443700Y462317D01*
X443692Y462325D01*
X443695Y462331D01*
X443553Y462610D01*
X443543Y462615D01*
X443544Y462623D01*
X443323Y462844D01*
X443311Y462845D01*
X443310Y462853D01*
X443031Y462995D01*
X443020Y462993D01*
X443017Y463000D01*
X442708Y463049D01*
X442703Y463046D01*
X442700Y463049D01*
X437200Y463049D01*
X437195Y463046D01*
X437192Y463049D01*
X436883Y463000D01*
X436875Y462992D01*
X436869Y462995D01*
X436590Y462853D01*
X436585Y462843D01*
X436577Y462844D01*
X436356Y462623D01*
X436355Y462611D01*
X436347Y462610D01*
X436205Y462331D01*
X436207Y462320D01*
X436200Y462317D01*
X436151Y462008D01*
X436156Y461999D01*
X436155Y461998D01*
X436156Y461997D01*
X436151Y461992D01*
X436200Y461683D01*
X436208Y461675D01*
X436205Y461669D01*
X436347Y461390D01*
X436357Y461385D01*
X436356Y461377D01*
X436577Y461156D01*
X436589Y461155D01*
X436590Y461147D01*
X436869Y461005D01*
X436880Y461007D01*
X436883Y461000D01*
X437192Y460951D01*
X437197Y460954D01*
X437200Y460951D01*
X442700Y460951D01*
X442705Y460954D01*
G37*
G36*
X477205Y460954D02*
X477205Y460954D01*
X477208Y460951D01*
X477517Y461000D01*
X477525Y461008D01*
X477531Y461005D01*
X477810Y461147D01*
X477815Y461157D01*
X477823Y461156D01*
X478044Y461377D01*
X478045Y461389D01*
X478053Y461390D01*
X478195Y461669D01*
X478194Y461673D01*
X478198Y461676D01*
X478195Y461680D01*
X478200Y461683D01*
X478249Y461992D01*
X478243Y462002D01*
X478249Y462008D01*
X478200Y462317D01*
X478192Y462325D01*
X478195Y462331D01*
X478053Y462610D01*
X478043Y462615D01*
X478044Y462623D01*
X477823Y462844D01*
X477811Y462845D01*
X477810Y462853D01*
X477531Y462995D01*
X477520Y462993D01*
X477517Y463000D01*
X477208Y463049D01*
X477203Y463046D01*
X477200Y463049D01*
X471700Y463049D01*
X471695Y463046D01*
X471692Y463049D01*
X471383Y463000D01*
X471375Y462992D01*
X471369Y462995D01*
X471090Y462853D01*
X471085Y462843D01*
X471077Y462844D01*
X470856Y462623D01*
X470855Y462611D01*
X470847Y462610D01*
X470705Y462331D01*
X470707Y462320D01*
X470700Y462317D01*
X470651Y462008D01*
X470656Y461999D01*
X470655Y461998D01*
X470656Y461997D01*
X470651Y461992D01*
X470700Y461683D01*
X470708Y461675D01*
X470705Y461669D01*
X470847Y461390D01*
X470857Y461385D01*
X470856Y461377D01*
X471077Y461156D01*
X471089Y461155D01*
X471090Y461147D01*
X471369Y461005D01*
X471380Y461007D01*
X471383Y461000D01*
X471692Y460951D01*
X471697Y460954D01*
X471700Y460951D01*
X477200Y460951D01*
X477205Y460954D01*
G37*
G36*
X477205Y455954D02*
X477205Y455954D01*
X477208Y455951D01*
X477517Y456000D01*
X477525Y456008D01*
X477531Y456005D01*
X477810Y456147D01*
X477815Y456157D01*
X477823Y456156D01*
X478044Y456377D01*
X478045Y456389D01*
X478053Y456390D01*
X478195Y456669D01*
X478194Y456673D01*
X478198Y456676D01*
X478195Y456680D01*
X478200Y456683D01*
X478249Y456992D01*
X478243Y457002D01*
X478249Y457008D01*
X478200Y457317D01*
X478192Y457325D01*
X478195Y457331D01*
X478053Y457610D01*
X478043Y457615D01*
X478044Y457623D01*
X477823Y457844D01*
X477811Y457845D01*
X477810Y457853D01*
X477531Y457995D01*
X477520Y457993D01*
X477517Y458000D01*
X477208Y458049D01*
X477203Y458046D01*
X477200Y458049D01*
X471700Y458049D01*
X471695Y458046D01*
X471692Y458049D01*
X471383Y458000D01*
X471375Y457992D01*
X471369Y457995D01*
X471090Y457853D01*
X471085Y457843D01*
X471077Y457844D01*
X470856Y457623D01*
X470855Y457611D01*
X470847Y457610D01*
X470705Y457331D01*
X470707Y457320D01*
X470700Y457317D01*
X470651Y457008D01*
X470656Y456999D01*
X470655Y456998D01*
X470656Y456997D01*
X470651Y456992D01*
X470700Y456683D01*
X470708Y456675D01*
X470705Y456669D01*
X470847Y456390D01*
X470857Y456385D01*
X470856Y456377D01*
X471077Y456156D01*
X471089Y456155D01*
X471090Y456147D01*
X471369Y456005D01*
X471380Y456007D01*
X471383Y456000D01*
X471692Y455951D01*
X471697Y455954D01*
X471700Y455951D01*
X477200Y455951D01*
X477205Y455954D01*
G37*
G36*
X442705Y455954D02*
X442705Y455954D01*
X442708Y455951D01*
X443017Y456000D01*
X443025Y456008D01*
X443031Y456005D01*
X443310Y456147D01*
X443315Y456157D01*
X443323Y456156D01*
X443544Y456377D01*
X443545Y456389D01*
X443553Y456390D01*
X443695Y456669D01*
X443694Y456673D01*
X443698Y456676D01*
X443695Y456680D01*
X443700Y456683D01*
X443749Y456992D01*
X443743Y457002D01*
X443749Y457008D01*
X443700Y457317D01*
X443692Y457325D01*
X443695Y457331D01*
X443553Y457610D01*
X443543Y457615D01*
X443544Y457623D01*
X443323Y457844D01*
X443311Y457845D01*
X443310Y457853D01*
X443031Y457995D01*
X443020Y457993D01*
X443017Y458000D01*
X442708Y458049D01*
X442703Y458046D01*
X442700Y458049D01*
X437200Y458049D01*
X437195Y458046D01*
X437192Y458049D01*
X436883Y458000D01*
X436875Y457992D01*
X436869Y457995D01*
X436590Y457853D01*
X436585Y457843D01*
X436577Y457844D01*
X436356Y457623D01*
X436355Y457611D01*
X436347Y457610D01*
X436205Y457331D01*
X436207Y457320D01*
X436200Y457317D01*
X436151Y457008D01*
X436156Y456999D01*
X436155Y456998D01*
X436156Y456997D01*
X436151Y456992D01*
X436200Y456683D01*
X436208Y456675D01*
X436205Y456669D01*
X436347Y456390D01*
X436357Y456385D01*
X436356Y456377D01*
X436577Y456156D01*
X436589Y456155D01*
X436590Y456147D01*
X436869Y456005D01*
X436880Y456007D01*
X436883Y456000D01*
X437192Y455951D01*
X437197Y455954D01*
X437200Y455951D01*
X442700Y455951D01*
X442705Y455954D01*
G37*
G36*
X477205Y450954D02*
X477205Y450954D01*
X477208Y450951D01*
X477517Y451000D01*
X477525Y451008D01*
X477531Y451005D01*
X477810Y451147D01*
X477815Y451157D01*
X477823Y451156D01*
X478044Y451377D01*
X478045Y451389D01*
X478053Y451390D01*
X478195Y451669D01*
X478194Y451673D01*
X478198Y451676D01*
X478195Y451680D01*
X478200Y451683D01*
X478249Y451992D01*
X478243Y452002D01*
X478249Y452008D01*
X478200Y452317D01*
X478192Y452325D01*
X478195Y452331D01*
X478053Y452610D01*
X478043Y452615D01*
X478044Y452623D01*
X477823Y452844D01*
X477811Y452845D01*
X477810Y452853D01*
X477531Y452995D01*
X477520Y452993D01*
X477517Y453000D01*
X477208Y453049D01*
X477203Y453046D01*
X477200Y453049D01*
X471700Y453049D01*
X471695Y453046D01*
X471692Y453049D01*
X471383Y453000D01*
X471375Y452992D01*
X471369Y452995D01*
X471090Y452853D01*
X471085Y452843D01*
X471077Y452844D01*
X470856Y452623D01*
X470855Y452611D01*
X470847Y452610D01*
X470705Y452331D01*
X470707Y452320D01*
X470700Y452317D01*
X470651Y452008D01*
X470656Y451999D01*
X470655Y451998D01*
X470656Y451997D01*
X470651Y451992D01*
X470700Y451683D01*
X470708Y451675D01*
X470705Y451669D01*
X470847Y451390D01*
X470857Y451385D01*
X470856Y451377D01*
X471077Y451156D01*
X471089Y451155D01*
X471090Y451147D01*
X471369Y451005D01*
X471380Y451007D01*
X471383Y451000D01*
X471692Y450951D01*
X471697Y450954D01*
X471700Y450951D01*
X477200Y450951D01*
X477205Y450954D01*
G37*
G36*
X442705Y445954D02*
X442705Y445954D01*
X442708Y445951D01*
X443017Y446000D01*
X443025Y446008D01*
X443031Y446005D01*
X443310Y446147D01*
X443315Y446157D01*
X443323Y446156D01*
X443544Y446377D01*
X443545Y446389D01*
X443553Y446390D01*
X443695Y446669D01*
X443694Y446673D01*
X443698Y446676D01*
X443695Y446680D01*
X443700Y446683D01*
X443749Y446992D01*
X443743Y447002D01*
X443749Y447008D01*
X443700Y447317D01*
X443692Y447325D01*
X443695Y447331D01*
X443553Y447610D01*
X443543Y447615D01*
X443544Y447623D01*
X443323Y447844D01*
X443311Y447845D01*
X443310Y447853D01*
X443031Y447995D01*
X443020Y447993D01*
X443017Y448000D01*
X442708Y448049D01*
X442703Y448046D01*
X442700Y448049D01*
X437200Y448049D01*
X437195Y448046D01*
X437192Y448049D01*
X436883Y448000D01*
X436875Y447992D01*
X436869Y447995D01*
X436590Y447853D01*
X436585Y447843D01*
X436577Y447844D01*
X436356Y447623D01*
X436355Y447611D01*
X436347Y447610D01*
X436205Y447331D01*
X436207Y447320D01*
X436200Y447317D01*
X436151Y447008D01*
X436156Y446999D01*
X436155Y446998D01*
X436156Y446997D01*
X436151Y446992D01*
X436200Y446683D01*
X436208Y446675D01*
X436205Y446669D01*
X436347Y446390D01*
X436357Y446385D01*
X436356Y446377D01*
X436577Y446156D01*
X436589Y446155D01*
X436590Y446147D01*
X436869Y446005D01*
X436880Y446007D01*
X436883Y446000D01*
X437192Y445951D01*
X437197Y445954D01*
X437200Y445951D01*
X442700Y445951D01*
X442705Y445954D01*
G37*
G36*
X477205Y445954D02*
X477205Y445954D01*
X477208Y445951D01*
X477517Y446000D01*
X477525Y446008D01*
X477531Y446005D01*
X477810Y446147D01*
X477815Y446157D01*
X477823Y446156D01*
X478044Y446377D01*
X478045Y446389D01*
X478053Y446390D01*
X478195Y446669D01*
X478194Y446673D01*
X478198Y446676D01*
X478195Y446680D01*
X478200Y446683D01*
X478249Y446992D01*
X478243Y447002D01*
X478249Y447008D01*
X478200Y447317D01*
X478192Y447325D01*
X478195Y447331D01*
X478053Y447610D01*
X478043Y447615D01*
X478044Y447623D01*
X477823Y447844D01*
X477811Y447845D01*
X477810Y447853D01*
X477531Y447995D01*
X477520Y447993D01*
X477517Y448000D01*
X477208Y448049D01*
X477203Y448046D01*
X477200Y448049D01*
X471700Y448049D01*
X471695Y448046D01*
X471692Y448049D01*
X471383Y448000D01*
X471375Y447992D01*
X471369Y447995D01*
X471090Y447853D01*
X471085Y447843D01*
X471077Y447844D01*
X470856Y447623D01*
X470855Y447611D01*
X470847Y447610D01*
X470705Y447331D01*
X470707Y447320D01*
X470700Y447317D01*
X470651Y447008D01*
X470656Y446999D01*
X470655Y446998D01*
X470656Y446997D01*
X470651Y446992D01*
X470700Y446683D01*
X470708Y446675D01*
X470705Y446669D01*
X470847Y446390D01*
X470857Y446385D01*
X470856Y446377D01*
X471077Y446156D01*
X471089Y446155D01*
X471090Y446147D01*
X471369Y446005D01*
X471380Y446007D01*
X471383Y446000D01*
X471692Y445951D01*
X471697Y445954D01*
X471700Y445951D01*
X477200Y445951D01*
X477205Y445954D01*
G37*
G36*
X442705Y440954D02*
X442705Y440954D01*
X442708Y440951D01*
X443017Y441000D01*
X443025Y441008D01*
X443031Y441005D01*
X443310Y441147D01*
X443315Y441157D01*
X443323Y441156D01*
X443544Y441377D01*
X443545Y441389D01*
X443553Y441390D01*
X443695Y441669D01*
X443694Y441673D01*
X443698Y441676D01*
X443695Y441680D01*
X443700Y441683D01*
X443749Y441992D01*
X443743Y442002D01*
X443749Y442008D01*
X443700Y442317D01*
X443692Y442325D01*
X443695Y442331D01*
X443553Y442610D01*
X443543Y442615D01*
X443544Y442623D01*
X443323Y442844D01*
X443311Y442845D01*
X443310Y442853D01*
X443031Y442995D01*
X443020Y442993D01*
X443017Y443000D01*
X442708Y443049D01*
X442703Y443046D01*
X442700Y443049D01*
X437200Y443049D01*
X437195Y443046D01*
X437192Y443049D01*
X436883Y443000D01*
X436875Y442992D01*
X436869Y442995D01*
X436590Y442853D01*
X436585Y442843D01*
X436577Y442844D01*
X436356Y442623D01*
X436355Y442611D01*
X436347Y442610D01*
X436205Y442331D01*
X436207Y442320D01*
X436200Y442317D01*
X436151Y442008D01*
X436156Y441999D01*
X436155Y441998D01*
X436156Y441997D01*
X436151Y441992D01*
X436200Y441683D01*
X436208Y441675D01*
X436205Y441669D01*
X436347Y441390D01*
X436357Y441385D01*
X436356Y441377D01*
X436577Y441156D01*
X436589Y441155D01*
X436590Y441147D01*
X436869Y441005D01*
X436880Y441007D01*
X436883Y441000D01*
X437192Y440951D01*
X437197Y440954D01*
X437200Y440951D01*
X442700Y440951D01*
X442705Y440954D01*
G37*
G36*
X477205Y440954D02*
X477205Y440954D01*
X477208Y440951D01*
X477517Y441000D01*
X477525Y441008D01*
X477531Y441005D01*
X477810Y441147D01*
X477815Y441157D01*
X477823Y441156D01*
X478044Y441377D01*
X478045Y441389D01*
X478053Y441390D01*
X478195Y441669D01*
X478194Y441673D01*
X478198Y441676D01*
X478195Y441680D01*
X478200Y441683D01*
X478249Y441992D01*
X478243Y442002D01*
X478249Y442008D01*
X478200Y442317D01*
X478192Y442325D01*
X478195Y442331D01*
X478053Y442610D01*
X478043Y442615D01*
X478044Y442623D01*
X477823Y442844D01*
X477811Y442845D01*
X477810Y442853D01*
X477531Y442995D01*
X477520Y442993D01*
X477517Y443000D01*
X477208Y443049D01*
X477203Y443046D01*
X477200Y443049D01*
X471700Y443049D01*
X471695Y443046D01*
X471692Y443049D01*
X471383Y443000D01*
X471375Y442992D01*
X471369Y442995D01*
X471090Y442853D01*
X471085Y442843D01*
X471077Y442844D01*
X470856Y442623D01*
X470855Y442611D01*
X470847Y442610D01*
X470705Y442331D01*
X470707Y442320D01*
X470700Y442317D01*
X470651Y442008D01*
X470656Y441999D01*
X470655Y441998D01*
X470656Y441997D01*
X470651Y441992D01*
X470700Y441683D01*
X470708Y441675D01*
X470705Y441669D01*
X470847Y441390D01*
X470857Y441385D01*
X470856Y441377D01*
X471077Y441156D01*
X471089Y441155D01*
X471090Y441147D01*
X471369Y441005D01*
X471380Y441007D01*
X471383Y441000D01*
X471692Y440951D01*
X471697Y440954D01*
X471700Y440951D01*
X477200Y440951D01*
X477205Y440954D01*
G37*
G36*
X477205Y435954D02*
X477205Y435954D01*
X477208Y435951D01*
X477517Y436000D01*
X477525Y436008D01*
X477531Y436005D01*
X477810Y436147D01*
X477815Y436157D01*
X477823Y436156D01*
X478044Y436377D01*
X478045Y436389D01*
X478053Y436390D01*
X478195Y436669D01*
X478194Y436673D01*
X478198Y436676D01*
X478195Y436680D01*
X478200Y436683D01*
X478249Y436992D01*
X478243Y437002D01*
X478249Y437008D01*
X478200Y437317D01*
X478192Y437325D01*
X478195Y437331D01*
X478053Y437610D01*
X478043Y437615D01*
X478044Y437623D01*
X477823Y437844D01*
X477811Y437845D01*
X477810Y437853D01*
X477531Y437995D01*
X477520Y437993D01*
X477517Y438000D01*
X477208Y438049D01*
X477203Y438046D01*
X477200Y438049D01*
X471700Y438049D01*
X471695Y438046D01*
X471692Y438049D01*
X471383Y438000D01*
X471375Y437992D01*
X471369Y437995D01*
X471090Y437853D01*
X471085Y437843D01*
X471077Y437844D01*
X470856Y437623D01*
X470855Y437611D01*
X470847Y437610D01*
X470705Y437331D01*
X470707Y437320D01*
X470700Y437317D01*
X470651Y437008D01*
X470656Y436999D01*
X470655Y436998D01*
X470656Y436997D01*
X470651Y436992D01*
X470700Y436683D01*
X470708Y436675D01*
X470705Y436669D01*
X470847Y436390D01*
X470857Y436385D01*
X470856Y436377D01*
X471077Y436156D01*
X471089Y436155D01*
X471090Y436147D01*
X471369Y436005D01*
X471380Y436007D01*
X471383Y436000D01*
X471692Y435951D01*
X471697Y435954D01*
X471700Y435951D01*
X477200Y435951D01*
X477205Y435954D01*
G37*
G36*
X442705Y425954D02*
X442705Y425954D01*
X442708Y425951D01*
X443017Y426000D01*
X443025Y426008D01*
X443031Y426005D01*
X443310Y426147D01*
X443315Y426157D01*
X443323Y426156D01*
X443544Y426377D01*
X443545Y426389D01*
X443553Y426390D01*
X443695Y426669D01*
X443694Y426673D01*
X443698Y426676D01*
X443695Y426680D01*
X443700Y426683D01*
X443749Y426992D01*
X443743Y427002D01*
X443749Y427008D01*
X443700Y427317D01*
X443692Y427325D01*
X443695Y427331D01*
X443553Y427610D01*
X443543Y427615D01*
X443544Y427623D01*
X443323Y427844D01*
X443311Y427845D01*
X443310Y427853D01*
X443031Y427995D01*
X443020Y427993D01*
X443017Y428000D01*
X442708Y428049D01*
X442703Y428046D01*
X442700Y428049D01*
X437200Y428049D01*
X437195Y428046D01*
X437192Y428049D01*
X436883Y428000D01*
X436875Y427992D01*
X436869Y427995D01*
X436590Y427853D01*
X436585Y427843D01*
X436577Y427844D01*
X436356Y427623D01*
X436355Y427611D01*
X436347Y427610D01*
X436205Y427331D01*
X436207Y427320D01*
X436200Y427317D01*
X436151Y427008D01*
X436156Y426999D01*
X436155Y426998D01*
X436156Y426997D01*
X436151Y426992D01*
X436200Y426683D01*
X436208Y426675D01*
X436205Y426669D01*
X436347Y426390D01*
X436357Y426385D01*
X436356Y426377D01*
X436577Y426156D01*
X436589Y426155D01*
X436590Y426147D01*
X436869Y426005D01*
X436880Y426007D01*
X436883Y426000D01*
X437192Y425951D01*
X437197Y425954D01*
X437200Y425951D01*
X442700Y425951D01*
X442705Y425954D01*
G37*
G36*
X477205Y425954D02*
X477205Y425954D01*
X477208Y425951D01*
X477517Y426000D01*
X477525Y426008D01*
X477531Y426005D01*
X477810Y426147D01*
X477815Y426157D01*
X477823Y426156D01*
X478044Y426377D01*
X478045Y426389D01*
X478053Y426390D01*
X478195Y426669D01*
X478194Y426673D01*
X478198Y426676D01*
X478195Y426680D01*
X478200Y426683D01*
X478249Y426992D01*
X478243Y427002D01*
X478249Y427008D01*
X478200Y427317D01*
X478192Y427325D01*
X478195Y427331D01*
X478053Y427610D01*
X478043Y427615D01*
X478044Y427623D01*
X477823Y427844D01*
X477811Y427845D01*
X477810Y427853D01*
X477531Y427995D01*
X477520Y427993D01*
X477517Y428000D01*
X477208Y428049D01*
X477203Y428046D01*
X477200Y428049D01*
X471700Y428049D01*
X471695Y428046D01*
X471692Y428049D01*
X471383Y428000D01*
X471375Y427992D01*
X471369Y427995D01*
X471090Y427853D01*
X471085Y427843D01*
X471077Y427844D01*
X470856Y427623D01*
X470855Y427611D01*
X470847Y427610D01*
X470705Y427331D01*
X470707Y427320D01*
X470700Y427317D01*
X470651Y427008D01*
X470656Y426999D01*
X470655Y426998D01*
X470656Y426997D01*
X470651Y426992D01*
X470700Y426683D01*
X470708Y426675D01*
X470705Y426669D01*
X470847Y426390D01*
X470857Y426385D01*
X470856Y426377D01*
X471077Y426156D01*
X471089Y426155D01*
X471090Y426147D01*
X471369Y426005D01*
X471380Y426007D01*
X471383Y426000D01*
X471692Y425951D01*
X471697Y425954D01*
X471700Y425951D01*
X477200Y425951D01*
X477205Y425954D01*
G37*
G36*
X74405Y354354D02*
X74405Y354354D01*
X74408Y354351D01*
X74717Y354400D01*
X74725Y354408D01*
X74731Y354405D01*
X75010Y354547D01*
X75015Y354557D01*
X75023Y354556D01*
X75244Y354777D01*
X75245Y354789D01*
X75253Y354790D01*
X75395Y355069D01*
X75394Y355073D01*
X75398Y355076D01*
X75395Y355080D01*
X75400Y355083D01*
X75449Y355392D01*
X75443Y355402D01*
X75449Y355408D01*
X75400Y355717D01*
X75392Y355725D01*
X75395Y355731D01*
X75253Y356010D01*
X75243Y356015D01*
X75244Y356023D01*
X75023Y356244D01*
X75011Y356245D01*
X75010Y356253D01*
X74731Y356395D01*
X74720Y356393D01*
X74717Y356400D01*
X74408Y356449D01*
X74403Y356446D01*
X74400Y356449D01*
X68900Y356449D01*
X68895Y356446D01*
X68892Y356449D01*
X68583Y356400D01*
X68575Y356392D01*
X68569Y356395D01*
X68290Y356253D01*
X68285Y356243D01*
X68277Y356244D01*
X68056Y356023D01*
X68055Y356011D01*
X68047Y356010D01*
X67905Y355731D01*
X67907Y355720D01*
X67900Y355717D01*
X67851Y355408D01*
X67856Y355399D01*
X67855Y355398D01*
X67856Y355397D01*
X67851Y355392D01*
X67900Y355083D01*
X67908Y355075D01*
X67905Y355069D01*
X68047Y354790D01*
X68057Y354785D01*
X68056Y354777D01*
X68277Y354556D01*
X68289Y354555D01*
X68290Y354547D01*
X68569Y354405D01*
X68580Y354407D01*
X68583Y354400D01*
X68892Y354351D01*
X68897Y354354D01*
X68900Y354351D01*
X74400Y354351D01*
X74405Y354354D01*
G37*
G36*
X108905Y359354D02*
X108905Y359354D01*
X108908Y359351D01*
X109217Y359400D01*
X109225Y359408D01*
X109231Y359405D01*
X109510Y359547D01*
X109515Y359557D01*
X109523Y359556D01*
X109744Y359777D01*
X109745Y359789D01*
X109753Y359790D01*
X109895Y360069D01*
X109894Y360073D01*
X109898Y360076D01*
X109895Y360080D01*
X109900Y360083D01*
X109949Y360392D01*
X109943Y360402D01*
X109949Y360408D01*
X109900Y360717D01*
X109892Y360725D01*
X109895Y360731D01*
X109753Y361010D01*
X109743Y361015D01*
X109744Y361023D01*
X109523Y361244D01*
X109511Y361245D01*
X109510Y361253D01*
X109231Y361395D01*
X109220Y361393D01*
X109217Y361400D01*
X108908Y361449D01*
X108903Y361446D01*
X108900Y361449D01*
X103400Y361449D01*
X103395Y361446D01*
X103392Y361449D01*
X103083Y361400D01*
X103075Y361392D01*
X103069Y361395D01*
X102790Y361253D01*
X102785Y361243D01*
X102777Y361244D01*
X102556Y361023D01*
X102555Y361011D01*
X102547Y361010D01*
X102405Y360731D01*
X102407Y360720D01*
X102400Y360717D01*
X102351Y360408D01*
X102356Y360399D01*
X102355Y360398D01*
X102356Y360397D01*
X102351Y360392D01*
X102400Y360083D01*
X102408Y360075D01*
X102405Y360069D01*
X102547Y359790D01*
X102557Y359785D01*
X102556Y359777D01*
X102777Y359556D01*
X102789Y359555D01*
X102790Y359547D01*
X103069Y359405D01*
X103080Y359407D01*
X103083Y359400D01*
X103392Y359351D01*
X103397Y359354D01*
X103400Y359351D01*
X108900Y359351D01*
X108905Y359354D01*
G37*
G36*
X74405Y359354D02*
X74405Y359354D01*
X74408Y359351D01*
X74717Y359400D01*
X74725Y359408D01*
X74731Y359405D01*
X75010Y359547D01*
X75015Y359557D01*
X75023Y359556D01*
X75244Y359777D01*
X75245Y359789D01*
X75253Y359790D01*
X75395Y360069D01*
X75394Y360073D01*
X75398Y360076D01*
X75395Y360080D01*
X75400Y360083D01*
X75449Y360392D01*
X75443Y360402D01*
X75449Y360408D01*
X75400Y360717D01*
X75392Y360725D01*
X75395Y360731D01*
X75253Y361010D01*
X75243Y361015D01*
X75244Y361023D01*
X75023Y361244D01*
X75011Y361245D01*
X75010Y361253D01*
X74731Y361395D01*
X74720Y361393D01*
X74717Y361400D01*
X74408Y361449D01*
X74403Y361446D01*
X74400Y361449D01*
X68900Y361449D01*
X68895Y361446D01*
X68892Y361449D01*
X68583Y361400D01*
X68575Y361392D01*
X68569Y361395D01*
X68290Y361253D01*
X68285Y361243D01*
X68277Y361244D01*
X68056Y361023D01*
X68055Y361011D01*
X68047Y361010D01*
X67905Y360731D01*
X67907Y360720D01*
X67900Y360717D01*
X67851Y360408D01*
X67856Y360399D01*
X67855Y360398D01*
X67856Y360397D01*
X67851Y360392D01*
X67900Y360083D01*
X67908Y360075D01*
X67905Y360069D01*
X68047Y359790D01*
X68057Y359785D01*
X68056Y359777D01*
X68277Y359556D01*
X68289Y359555D01*
X68290Y359547D01*
X68569Y359405D01*
X68580Y359407D01*
X68583Y359400D01*
X68892Y359351D01*
X68897Y359354D01*
X68900Y359351D01*
X74400Y359351D01*
X74405Y359354D01*
G37*
G36*
X442705Y435954D02*
X442705Y435954D01*
X442708Y435951D01*
X443017Y436000D01*
X443025Y436008D01*
X443031Y436005D01*
X443310Y436147D01*
X443315Y436157D01*
X443323Y436156D01*
X443544Y436377D01*
X443545Y436389D01*
X443553Y436390D01*
X443695Y436669D01*
X443694Y436673D01*
X443698Y436676D01*
X443695Y436680D01*
X443700Y436683D01*
X443749Y436992D01*
X443743Y437002D01*
X443749Y437008D01*
X443700Y437317D01*
X443692Y437325D01*
X443695Y437331D01*
X443553Y437610D01*
X443543Y437615D01*
X443544Y437623D01*
X443323Y437844D01*
X443311Y437845D01*
X443310Y437853D01*
X443031Y437995D01*
X443020Y437993D01*
X443017Y438000D01*
X442708Y438049D01*
X442703Y438046D01*
X442700Y438049D01*
X437200Y438049D01*
X437195Y438046D01*
X437192Y438049D01*
X436883Y438000D01*
X436875Y437992D01*
X436869Y437995D01*
X436590Y437853D01*
X436585Y437843D01*
X436577Y437844D01*
X436356Y437623D01*
X436355Y437611D01*
X436347Y437610D01*
X436205Y437331D01*
X436207Y437320D01*
X436200Y437317D01*
X436151Y437008D01*
X436156Y436999D01*
X436155Y436998D01*
X436156Y436997D01*
X436151Y436992D01*
X436200Y436683D01*
X436208Y436675D01*
X436205Y436669D01*
X436347Y436390D01*
X436357Y436385D01*
X436356Y436377D01*
X436577Y436156D01*
X436589Y436155D01*
X436590Y436147D01*
X436869Y436005D01*
X436880Y436007D01*
X436883Y436000D01*
X437192Y435951D01*
X437197Y435954D01*
X437200Y435951D01*
X442700Y435951D01*
X442705Y435954D01*
G37*
G36*
X108905Y354354D02*
X108905Y354354D01*
X108908Y354351D01*
X109217Y354400D01*
X109225Y354408D01*
X109231Y354405D01*
X109510Y354547D01*
X109515Y354557D01*
X109523Y354556D01*
X109744Y354777D01*
X109745Y354789D01*
X109753Y354790D01*
X109895Y355069D01*
X109894Y355073D01*
X109898Y355076D01*
X109895Y355080D01*
X109900Y355083D01*
X109949Y355392D01*
X109943Y355402D01*
X109949Y355408D01*
X109900Y355717D01*
X109892Y355725D01*
X109895Y355731D01*
X109753Y356010D01*
X109743Y356015D01*
X109744Y356023D01*
X109523Y356244D01*
X109511Y356245D01*
X109510Y356253D01*
X109231Y356395D01*
X109220Y356393D01*
X109217Y356400D01*
X108908Y356449D01*
X108903Y356446D01*
X108900Y356449D01*
X103400Y356449D01*
X103395Y356446D01*
X103392Y356449D01*
X103083Y356400D01*
X103075Y356392D01*
X103069Y356395D01*
X102790Y356253D01*
X102785Y356243D01*
X102777Y356244D01*
X102556Y356023D01*
X102555Y356011D01*
X102547Y356010D01*
X102405Y355731D01*
X102407Y355720D01*
X102400Y355717D01*
X102351Y355408D01*
X102356Y355399D01*
X102355Y355398D01*
X102356Y355397D01*
X102351Y355392D01*
X102400Y355083D01*
X102408Y355075D01*
X102405Y355069D01*
X102547Y354790D01*
X102557Y354785D01*
X102556Y354777D01*
X102777Y354556D01*
X102789Y354555D01*
X102790Y354547D01*
X103069Y354405D01*
X103080Y354407D01*
X103083Y354400D01*
X103392Y354351D01*
X103397Y354354D01*
X103400Y354351D01*
X108900Y354351D01*
X108905Y354354D01*
G37*
G36*
X108905Y349354D02*
X108905Y349354D01*
X108908Y349351D01*
X109217Y349400D01*
X109225Y349408D01*
X109231Y349405D01*
X109510Y349547D01*
X109515Y349557D01*
X109523Y349556D01*
X109744Y349777D01*
X109745Y349789D01*
X109753Y349790D01*
X109895Y350069D01*
X109894Y350073D01*
X109898Y350076D01*
X109895Y350080D01*
X109900Y350083D01*
X109949Y350392D01*
X109943Y350402D01*
X109949Y350408D01*
X109900Y350717D01*
X109892Y350725D01*
X109895Y350731D01*
X109753Y351010D01*
X109743Y351015D01*
X109744Y351023D01*
X109523Y351244D01*
X109511Y351245D01*
X109510Y351253D01*
X109231Y351395D01*
X109220Y351393D01*
X109217Y351400D01*
X108908Y351449D01*
X108903Y351446D01*
X108900Y351449D01*
X103400Y351449D01*
X103395Y351446D01*
X103392Y351449D01*
X103083Y351400D01*
X103075Y351392D01*
X103069Y351395D01*
X102790Y351253D01*
X102785Y351243D01*
X102777Y351244D01*
X102556Y351023D01*
X102555Y351011D01*
X102547Y351010D01*
X102405Y350731D01*
X102407Y350720D01*
X102400Y350717D01*
X102351Y350408D01*
X102356Y350399D01*
X102355Y350398D01*
X102356Y350397D01*
X102351Y350392D01*
X102400Y350083D01*
X102408Y350075D01*
X102405Y350069D01*
X102547Y349790D01*
X102557Y349785D01*
X102556Y349777D01*
X102777Y349556D01*
X102789Y349555D01*
X102790Y349547D01*
X103069Y349405D01*
X103080Y349407D01*
X103083Y349400D01*
X103392Y349351D01*
X103397Y349354D01*
X103400Y349351D01*
X108900Y349351D01*
X108905Y349354D01*
G37*
G36*
X74405Y349354D02*
X74405Y349354D01*
X74408Y349351D01*
X74717Y349400D01*
X74725Y349408D01*
X74731Y349405D01*
X75010Y349547D01*
X75015Y349557D01*
X75023Y349556D01*
X75244Y349777D01*
X75245Y349789D01*
X75253Y349790D01*
X75395Y350069D01*
X75394Y350073D01*
X75398Y350076D01*
X75395Y350080D01*
X75400Y350083D01*
X75449Y350392D01*
X75443Y350402D01*
X75449Y350408D01*
X75400Y350717D01*
X75392Y350725D01*
X75395Y350731D01*
X75253Y351010D01*
X75243Y351015D01*
X75244Y351023D01*
X75023Y351244D01*
X75011Y351245D01*
X75010Y351253D01*
X74731Y351395D01*
X74720Y351393D01*
X74717Y351400D01*
X74408Y351449D01*
X74403Y351446D01*
X74400Y351449D01*
X68900Y351449D01*
X68895Y351446D01*
X68892Y351449D01*
X68583Y351400D01*
X68575Y351392D01*
X68569Y351395D01*
X68290Y351253D01*
X68285Y351243D01*
X68277Y351244D01*
X68056Y351023D01*
X68055Y351011D01*
X68047Y351010D01*
X67905Y350731D01*
X67907Y350720D01*
X67900Y350717D01*
X67851Y350408D01*
X67856Y350399D01*
X67855Y350398D01*
X67856Y350397D01*
X67851Y350392D01*
X67900Y350083D01*
X67908Y350075D01*
X67905Y350069D01*
X68047Y349790D01*
X68057Y349785D01*
X68056Y349777D01*
X68277Y349556D01*
X68289Y349555D01*
X68290Y349547D01*
X68569Y349405D01*
X68580Y349407D01*
X68583Y349400D01*
X68892Y349351D01*
X68897Y349354D01*
X68900Y349351D01*
X74400Y349351D01*
X74405Y349354D01*
G37*
G36*
X74405Y344354D02*
X74405Y344354D01*
X74408Y344351D01*
X74717Y344400D01*
X74725Y344408D01*
X74731Y344405D01*
X75010Y344547D01*
X75015Y344557D01*
X75023Y344556D01*
X75244Y344777D01*
X75245Y344789D01*
X75253Y344790D01*
X75395Y345069D01*
X75394Y345073D01*
X75398Y345076D01*
X75395Y345080D01*
X75400Y345083D01*
X75449Y345392D01*
X75443Y345402D01*
X75449Y345408D01*
X75400Y345717D01*
X75392Y345725D01*
X75395Y345731D01*
X75253Y346010D01*
X75243Y346015D01*
X75244Y346023D01*
X75023Y346244D01*
X75011Y346245D01*
X75010Y346253D01*
X74731Y346395D01*
X74720Y346393D01*
X74717Y346400D01*
X74408Y346449D01*
X74403Y346446D01*
X74400Y346449D01*
X68900Y346449D01*
X68895Y346446D01*
X68892Y346449D01*
X68583Y346400D01*
X68575Y346392D01*
X68569Y346395D01*
X68290Y346253D01*
X68285Y346243D01*
X68277Y346244D01*
X68056Y346023D01*
X68055Y346011D01*
X68047Y346010D01*
X67905Y345731D01*
X67907Y345720D01*
X67900Y345717D01*
X67851Y345408D01*
X67856Y345399D01*
X67855Y345398D01*
X67856Y345397D01*
X67851Y345392D01*
X67900Y345083D01*
X67908Y345075D01*
X67905Y345069D01*
X68047Y344790D01*
X68057Y344785D01*
X68056Y344777D01*
X68277Y344556D01*
X68289Y344555D01*
X68290Y344547D01*
X68569Y344405D01*
X68580Y344407D01*
X68583Y344400D01*
X68892Y344351D01*
X68897Y344354D01*
X68900Y344351D01*
X74400Y344351D01*
X74405Y344354D01*
G37*
G36*
X108905Y344354D02*
X108905Y344354D01*
X108908Y344351D01*
X109217Y344400D01*
X109225Y344408D01*
X109231Y344405D01*
X109510Y344547D01*
X109515Y344557D01*
X109523Y344556D01*
X109744Y344777D01*
X109745Y344789D01*
X109753Y344790D01*
X109895Y345069D01*
X109894Y345073D01*
X109898Y345076D01*
X109895Y345080D01*
X109900Y345083D01*
X109949Y345392D01*
X109943Y345402D01*
X109949Y345408D01*
X109900Y345717D01*
X109892Y345725D01*
X109895Y345731D01*
X109753Y346010D01*
X109743Y346015D01*
X109744Y346023D01*
X109523Y346244D01*
X109511Y346245D01*
X109510Y346253D01*
X109231Y346395D01*
X109220Y346393D01*
X109217Y346400D01*
X108908Y346449D01*
X108903Y346446D01*
X108900Y346449D01*
X103400Y346449D01*
X103395Y346446D01*
X103392Y346449D01*
X103083Y346400D01*
X103075Y346392D01*
X103069Y346395D01*
X102790Y346253D01*
X102785Y346243D01*
X102777Y346244D01*
X102556Y346023D01*
X102555Y346011D01*
X102547Y346010D01*
X102405Y345731D01*
X102407Y345720D01*
X102400Y345717D01*
X102351Y345408D01*
X102356Y345399D01*
X102355Y345398D01*
X102356Y345397D01*
X102351Y345392D01*
X102400Y345083D01*
X102408Y345075D01*
X102405Y345069D01*
X102547Y344790D01*
X102557Y344785D01*
X102556Y344777D01*
X102777Y344556D01*
X102789Y344555D01*
X102790Y344547D01*
X103069Y344405D01*
X103080Y344407D01*
X103083Y344400D01*
X103392Y344351D01*
X103397Y344354D01*
X103400Y344351D01*
X108900Y344351D01*
X108905Y344354D01*
G37*
G36*
X108905Y339354D02*
X108905Y339354D01*
X108908Y339351D01*
X109217Y339400D01*
X109225Y339408D01*
X109231Y339405D01*
X109510Y339547D01*
X109515Y339557D01*
X109523Y339556D01*
X109744Y339777D01*
X109745Y339789D01*
X109753Y339790D01*
X109895Y340069D01*
X109894Y340073D01*
X109898Y340076D01*
X109895Y340080D01*
X109900Y340083D01*
X109949Y340392D01*
X109943Y340402D01*
X109949Y340408D01*
X109900Y340717D01*
X109892Y340725D01*
X109895Y340731D01*
X109753Y341010D01*
X109743Y341015D01*
X109744Y341023D01*
X109523Y341244D01*
X109511Y341245D01*
X109510Y341253D01*
X109231Y341395D01*
X109220Y341393D01*
X109217Y341400D01*
X108908Y341449D01*
X108903Y341446D01*
X108900Y341449D01*
X103400Y341449D01*
X103395Y341446D01*
X103392Y341449D01*
X103083Y341400D01*
X103075Y341392D01*
X103069Y341395D01*
X102790Y341253D01*
X102785Y341243D01*
X102777Y341244D01*
X102556Y341023D01*
X102555Y341011D01*
X102547Y341010D01*
X102405Y340731D01*
X102407Y340720D01*
X102400Y340717D01*
X102351Y340408D01*
X102356Y340399D01*
X102355Y340398D01*
X102356Y340397D01*
X102351Y340392D01*
X102400Y340083D01*
X102408Y340075D01*
X102405Y340069D01*
X102547Y339790D01*
X102557Y339785D01*
X102556Y339777D01*
X102777Y339556D01*
X102789Y339555D01*
X102790Y339547D01*
X103069Y339405D01*
X103080Y339407D01*
X103083Y339400D01*
X103392Y339351D01*
X103397Y339354D01*
X103400Y339351D01*
X108900Y339351D01*
X108905Y339354D01*
G37*
G36*
X74405Y334354D02*
X74405Y334354D01*
X74408Y334351D01*
X74717Y334400D01*
X74725Y334408D01*
X74731Y334405D01*
X75010Y334547D01*
X75015Y334557D01*
X75023Y334556D01*
X75244Y334777D01*
X75245Y334789D01*
X75253Y334790D01*
X75395Y335069D01*
X75394Y335073D01*
X75398Y335076D01*
X75395Y335080D01*
X75400Y335083D01*
X75449Y335392D01*
X75443Y335402D01*
X75449Y335408D01*
X75400Y335717D01*
X75392Y335725D01*
X75395Y335731D01*
X75253Y336010D01*
X75243Y336015D01*
X75244Y336023D01*
X75023Y336244D01*
X75011Y336245D01*
X75010Y336253D01*
X74731Y336395D01*
X74720Y336393D01*
X74717Y336400D01*
X74408Y336449D01*
X74403Y336446D01*
X74400Y336449D01*
X68900Y336449D01*
X68895Y336446D01*
X68892Y336449D01*
X68583Y336400D01*
X68575Y336392D01*
X68569Y336395D01*
X68290Y336253D01*
X68285Y336243D01*
X68277Y336244D01*
X68056Y336023D01*
X68055Y336011D01*
X68047Y336010D01*
X67905Y335731D01*
X67907Y335720D01*
X67900Y335717D01*
X67851Y335408D01*
X67856Y335399D01*
X67855Y335398D01*
X67856Y335397D01*
X67851Y335392D01*
X67900Y335083D01*
X67908Y335075D01*
X67905Y335069D01*
X68047Y334790D01*
X68057Y334785D01*
X68056Y334777D01*
X68277Y334556D01*
X68289Y334555D01*
X68290Y334547D01*
X68569Y334405D01*
X68580Y334407D01*
X68583Y334400D01*
X68892Y334351D01*
X68897Y334354D01*
X68900Y334351D01*
X74400Y334351D01*
X74405Y334354D01*
G37*
G36*
X108905Y334354D02*
X108905Y334354D01*
X108908Y334351D01*
X109217Y334400D01*
X109225Y334408D01*
X109231Y334405D01*
X109510Y334547D01*
X109515Y334557D01*
X109523Y334556D01*
X109744Y334777D01*
X109745Y334789D01*
X109753Y334790D01*
X109895Y335069D01*
X109894Y335073D01*
X109898Y335076D01*
X109895Y335080D01*
X109900Y335083D01*
X109949Y335392D01*
X109943Y335402D01*
X109949Y335408D01*
X109900Y335717D01*
X109892Y335725D01*
X109895Y335731D01*
X109753Y336010D01*
X109743Y336015D01*
X109744Y336023D01*
X109523Y336244D01*
X109511Y336245D01*
X109510Y336253D01*
X109231Y336395D01*
X109220Y336393D01*
X109217Y336400D01*
X108908Y336449D01*
X108903Y336446D01*
X108900Y336449D01*
X103400Y336449D01*
X103395Y336446D01*
X103392Y336449D01*
X103083Y336400D01*
X103075Y336392D01*
X103069Y336395D01*
X102790Y336253D01*
X102785Y336243D01*
X102777Y336244D01*
X102556Y336023D01*
X102555Y336011D01*
X102547Y336010D01*
X102405Y335731D01*
X102407Y335720D01*
X102400Y335717D01*
X102351Y335408D01*
X102356Y335399D01*
X102355Y335398D01*
X102356Y335397D01*
X102351Y335392D01*
X102400Y335083D01*
X102408Y335075D01*
X102405Y335069D01*
X102547Y334790D01*
X102557Y334785D01*
X102556Y334777D01*
X102777Y334556D01*
X102789Y334555D01*
X102790Y334547D01*
X103069Y334405D01*
X103080Y334407D01*
X103083Y334400D01*
X103392Y334351D01*
X103397Y334354D01*
X103400Y334351D01*
X108900Y334351D01*
X108905Y334354D01*
G37*
G36*
X74405Y329354D02*
X74405Y329354D01*
X74408Y329351D01*
X74717Y329400D01*
X74725Y329408D01*
X74731Y329405D01*
X75010Y329547D01*
X75015Y329557D01*
X75023Y329556D01*
X75244Y329777D01*
X75245Y329789D01*
X75253Y329790D01*
X75395Y330069D01*
X75394Y330073D01*
X75398Y330076D01*
X75395Y330080D01*
X75400Y330083D01*
X75449Y330392D01*
X75443Y330402D01*
X75449Y330408D01*
X75400Y330717D01*
X75392Y330725D01*
X75395Y330731D01*
X75253Y331010D01*
X75243Y331015D01*
X75244Y331023D01*
X75023Y331244D01*
X75011Y331245D01*
X75010Y331253D01*
X74731Y331395D01*
X74720Y331393D01*
X74717Y331400D01*
X74408Y331449D01*
X74403Y331446D01*
X74400Y331449D01*
X68900Y331449D01*
X68895Y331446D01*
X68892Y331449D01*
X68583Y331400D01*
X68575Y331392D01*
X68569Y331395D01*
X68290Y331253D01*
X68285Y331243D01*
X68277Y331244D01*
X68056Y331023D01*
X68055Y331011D01*
X68047Y331010D01*
X67905Y330731D01*
X67907Y330720D01*
X67900Y330717D01*
X67851Y330408D01*
X67856Y330399D01*
X67855Y330398D01*
X67856Y330397D01*
X67851Y330392D01*
X67900Y330083D01*
X67908Y330075D01*
X67905Y330069D01*
X68047Y329790D01*
X68057Y329785D01*
X68056Y329777D01*
X68277Y329556D01*
X68289Y329555D01*
X68290Y329547D01*
X68569Y329405D01*
X68580Y329407D01*
X68583Y329400D01*
X68892Y329351D01*
X68897Y329354D01*
X68900Y329351D01*
X74400Y329351D01*
X74405Y329354D01*
G37*
G36*
X108905Y324354D02*
X108905Y324354D01*
X108908Y324351D01*
X109217Y324400D01*
X109225Y324408D01*
X109231Y324405D01*
X109510Y324547D01*
X109515Y324557D01*
X109523Y324556D01*
X109744Y324777D01*
X109745Y324789D01*
X109753Y324790D01*
X109895Y325069D01*
X109894Y325073D01*
X109898Y325076D01*
X109895Y325080D01*
X109900Y325083D01*
X109949Y325392D01*
X109943Y325402D01*
X109949Y325408D01*
X109900Y325717D01*
X109892Y325725D01*
X109895Y325731D01*
X109753Y326010D01*
X109743Y326015D01*
X109744Y326023D01*
X109523Y326244D01*
X109511Y326245D01*
X109510Y326253D01*
X109231Y326395D01*
X109220Y326393D01*
X109217Y326400D01*
X108908Y326449D01*
X108903Y326446D01*
X108900Y326449D01*
X103400Y326449D01*
X103395Y326446D01*
X103392Y326449D01*
X103083Y326400D01*
X103075Y326392D01*
X103069Y326395D01*
X102790Y326253D01*
X102785Y326243D01*
X102777Y326244D01*
X102556Y326023D01*
X102555Y326011D01*
X102547Y326010D01*
X102405Y325731D01*
X102407Y325720D01*
X102400Y325717D01*
X102351Y325408D01*
X102356Y325399D01*
X102355Y325398D01*
X102356Y325397D01*
X102351Y325392D01*
X102400Y325083D01*
X102408Y325075D01*
X102405Y325069D01*
X102547Y324790D01*
X102557Y324785D01*
X102556Y324777D01*
X102777Y324556D01*
X102789Y324555D01*
X102790Y324547D01*
X103069Y324405D01*
X103080Y324407D01*
X103083Y324400D01*
X103392Y324351D01*
X103397Y324354D01*
X103400Y324351D01*
X108900Y324351D01*
X108905Y324354D01*
G37*
G36*
X74405Y324354D02*
X74405Y324354D01*
X74408Y324351D01*
X74717Y324400D01*
X74725Y324408D01*
X74731Y324405D01*
X75010Y324547D01*
X75015Y324557D01*
X75023Y324556D01*
X75244Y324777D01*
X75245Y324789D01*
X75253Y324790D01*
X75395Y325069D01*
X75394Y325073D01*
X75398Y325076D01*
X75395Y325080D01*
X75400Y325083D01*
X75449Y325392D01*
X75443Y325402D01*
X75449Y325408D01*
X75400Y325717D01*
X75392Y325725D01*
X75395Y325731D01*
X75253Y326010D01*
X75243Y326015D01*
X75244Y326023D01*
X75023Y326244D01*
X75011Y326245D01*
X75010Y326253D01*
X74731Y326395D01*
X74720Y326393D01*
X74717Y326400D01*
X74408Y326449D01*
X74403Y326446D01*
X74400Y326449D01*
X68900Y326449D01*
X68895Y326446D01*
X68892Y326449D01*
X68583Y326400D01*
X68575Y326392D01*
X68569Y326395D01*
X68290Y326253D01*
X68285Y326243D01*
X68277Y326244D01*
X68056Y326023D01*
X68055Y326011D01*
X68047Y326010D01*
X67905Y325731D01*
X67907Y325720D01*
X67900Y325717D01*
X67851Y325408D01*
X67856Y325399D01*
X67855Y325398D01*
X67856Y325397D01*
X67851Y325392D01*
X67900Y325083D01*
X67908Y325075D01*
X67905Y325069D01*
X68047Y324790D01*
X68057Y324785D01*
X68056Y324777D01*
X68277Y324556D01*
X68289Y324555D01*
X68290Y324547D01*
X68569Y324405D01*
X68580Y324407D01*
X68583Y324400D01*
X68892Y324351D01*
X68897Y324354D01*
X68900Y324351D01*
X74400Y324351D01*
X74405Y324354D01*
G37*
G36*
X74405Y339354D02*
X74405Y339354D01*
X74408Y339351D01*
X74717Y339400D01*
X74725Y339408D01*
X74731Y339405D01*
X75010Y339547D01*
X75015Y339557D01*
X75023Y339556D01*
X75244Y339777D01*
X75245Y339789D01*
X75253Y339790D01*
X75395Y340069D01*
X75394Y340073D01*
X75398Y340076D01*
X75395Y340080D01*
X75400Y340083D01*
X75449Y340392D01*
X75443Y340402D01*
X75449Y340408D01*
X75400Y340717D01*
X75392Y340725D01*
X75395Y340731D01*
X75253Y341010D01*
X75243Y341015D01*
X75244Y341023D01*
X75023Y341244D01*
X75011Y341245D01*
X75010Y341253D01*
X74731Y341395D01*
X74720Y341393D01*
X74717Y341400D01*
X74408Y341449D01*
X74403Y341446D01*
X74400Y341449D01*
X68900Y341449D01*
X68895Y341446D01*
X68892Y341449D01*
X68583Y341400D01*
X68575Y341392D01*
X68569Y341395D01*
X68290Y341253D01*
X68285Y341243D01*
X68277Y341244D01*
X68056Y341023D01*
X68055Y341011D01*
X68047Y341010D01*
X67905Y340731D01*
X67907Y340720D01*
X67900Y340717D01*
X67851Y340408D01*
X67856Y340399D01*
X67855Y340398D01*
X67856Y340397D01*
X67851Y340392D01*
X67900Y340083D01*
X67908Y340075D01*
X67905Y340069D01*
X68047Y339790D01*
X68057Y339785D01*
X68056Y339777D01*
X68277Y339556D01*
X68289Y339555D01*
X68290Y339547D01*
X68569Y339405D01*
X68580Y339407D01*
X68583Y339400D01*
X68892Y339351D01*
X68897Y339354D01*
X68900Y339351D01*
X74400Y339351D01*
X74405Y339354D01*
G37*
G36*
X108905Y329354D02*
X108905Y329354D01*
X108908Y329351D01*
X109217Y329400D01*
X109225Y329408D01*
X109231Y329405D01*
X109510Y329547D01*
X109515Y329557D01*
X109523Y329556D01*
X109744Y329777D01*
X109745Y329789D01*
X109753Y329790D01*
X109895Y330069D01*
X109894Y330073D01*
X109898Y330076D01*
X109895Y330080D01*
X109900Y330083D01*
X109949Y330392D01*
X109943Y330402D01*
X109949Y330408D01*
X109900Y330717D01*
X109892Y330725D01*
X109895Y330731D01*
X109753Y331010D01*
X109743Y331015D01*
X109744Y331023D01*
X109523Y331244D01*
X109511Y331245D01*
X109510Y331253D01*
X109231Y331395D01*
X109220Y331393D01*
X109217Y331400D01*
X108908Y331449D01*
X108903Y331446D01*
X108900Y331449D01*
X103400Y331449D01*
X103395Y331446D01*
X103392Y331449D01*
X103083Y331400D01*
X103075Y331392D01*
X103069Y331395D01*
X102790Y331253D01*
X102785Y331243D01*
X102777Y331244D01*
X102556Y331023D01*
X102555Y331011D01*
X102547Y331010D01*
X102405Y330731D01*
X102407Y330720D01*
X102400Y330717D01*
X102351Y330408D01*
X102356Y330399D01*
X102355Y330398D01*
X102356Y330397D01*
X102351Y330392D01*
X102400Y330083D01*
X102408Y330075D01*
X102405Y330069D01*
X102547Y329790D01*
X102557Y329785D01*
X102556Y329777D01*
X102777Y329556D01*
X102789Y329555D01*
X102790Y329547D01*
X103069Y329405D01*
X103080Y329407D01*
X103083Y329400D01*
X103392Y329351D01*
X103397Y329354D01*
X103400Y329351D01*
X108900Y329351D01*
X108905Y329354D01*
G37*
G36*
X477205Y430954D02*
X477205Y430954D01*
X477208Y430951D01*
X477517Y431000D01*
X477525Y431008D01*
X477531Y431005D01*
X477810Y431147D01*
X477815Y431157D01*
X477823Y431156D01*
X478044Y431377D01*
X478045Y431389D01*
X478053Y431390D01*
X478195Y431669D01*
X478194Y431673D01*
X478198Y431676D01*
X478194Y431680D01*
X478200Y431683D01*
X478249Y431992D01*
X478243Y432002D01*
X478249Y432008D01*
X478200Y432317D01*
X478192Y432325D01*
X478195Y432331D01*
X478053Y432610D01*
X478043Y432615D01*
X478044Y432623D01*
X477823Y432844D01*
X477811Y432845D01*
X477810Y432853D01*
X477531Y432995D01*
X477520Y432993D01*
X477517Y433000D01*
X477208Y433049D01*
X477203Y433046D01*
X477200Y433049D01*
X471700Y433049D01*
X471695Y433046D01*
X471692Y433049D01*
X471383Y433000D01*
X471375Y432992D01*
X471369Y432995D01*
X471090Y432853D01*
X471085Y432843D01*
X471077Y432844D01*
X470856Y432623D01*
X470855Y432611D01*
X470847Y432610D01*
X470705Y432331D01*
X470707Y432320D01*
X470700Y432317D01*
X470651Y432008D01*
X470656Y431999D01*
X470655Y431998D01*
X470656Y431997D01*
X470651Y431992D01*
X470700Y431683D01*
X470708Y431675D01*
X470705Y431669D01*
X470847Y431390D01*
X470857Y431385D01*
X470856Y431377D01*
X471077Y431156D01*
X471089Y431155D01*
X471090Y431147D01*
X471369Y431005D01*
X471380Y431007D01*
X471383Y431000D01*
X471692Y430951D01*
X471697Y430954D01*
X471700Y430951D01*
X477200Y430951D01*
X477205Y430954D01*
G37*
G36*
X442705Y430954D02*
X442705Y430954D01*
X442708Y430951D01*
X443017Y431000D01*
X443025Y431008D01*
X443031Y431005D01*
X443310Y431147D01*
X443315Y431157D01*
X443323Y431156D01*
X443544Y431377D01*
X443545Y431389D01*
X443553Y431390D01*
X443695Y431669D01*
X443694Y431673D01*
X443698Y431676D01*
X443694Y431680D01*
X443700Y431683D01*
X443749Y431992D01*
X443743Y432002D01*
X443749Y432008D01*
X443700Y432317D01*
X443692Y432325D01*
X443695Y432331D01*
X443553Y432610D01*
X443543Y432615D01*
X443544Y432623D01*
X443323Y432844D01*
X443311Y432845D01*
X443310Y432853D01*
X443031Y432995D01*
X443020Y432993D01*
X443017Y433000D01*
X442708Y433049D01*
X442703Y433046D01*
X442700Y433049D01*
X437200Y433049D01*
X437195Y433046D01*
X437192Y433049D01*
X436883Y433000D01*
X436875Y432992D01*
X436869Y432995D01*
X436590Y432853D01*
X436585Y432843D01*
X436577Y432844D01*
X436356Y432623D01*
X436355Y432611D01*
X436347Y432610D01*
X436205Y432331D01*
X436207Y432320D01*
X436200Y432317D01*
X436151Y432008D01*
X436156Y431999D01*
X436155Y431998D01*
X436156Y431997D01*
X436151Y431992D01*
X436200Y431683D01*
X436208Y431675D01*
X436205Y431669D01*
X436347Y431390D01*
X436357Y431385D01*
X436356Y431377D01*
X436577Y431156D01*
X436589Y431155D01*
X436590Y431147D01*
X436869Y431005D01*
X436880Y431007D01*
X436883Y431000D01*
X437192Y430951D01*
X437197Y430954D01*
X437200Y430951D01*
X442700Y430951D01*
X442705Y430954D01*
G37*
G36*
X96717Y316900D02*
X96717Y316900D01*
X96725Y316908D01*
X96731Y316905D01*
X97010Y317047D01*
X97015Y317057D01*
X97023Y317056D01*
X97244Y317277D01*
X97245Y317289D01*
X97253Y317290D01*
X97395Y317569D01*
X97394Y317573D01*
X97398Y317576D01*
X97395Y317580D01*
X97400Y317583D01*
X97449Y317892D01*
X97446Y317897D01*
X97449Y317900D01*
X97449Y323400D01*
X97446Y323405D01*
X97449Y323408D01*
X97400Y323717D01*
X97392Y323725D01*
X97395Y323731D01*
X97253Y324010D01*
X97243Y324015D01*
X97244Y324023D01*
X97023Y324244D01*
X97011Y324245D01*
X97010Y324253D01*
X96731Y324395D01*
X96720Y324393D01*
X96717Y324400D01*
X96408Y324449D01*
X96398Y324443D01*
X96392Y324449D01*
X96083Y324400D01*
X96075Y324392D01*
X96069Y324395D01*
X95790Y324253D01*
X95785Y324243D01*
X95777Y324244D01*
X95556Y324023D01*
X95555Y324011D01*
X95547Y324010D01*
X95405Y323731D01*
X95407Y323720D01*
X95400Y323717D01*
X95351Y323408D01*
X95354Y323403D01*
X95351Y323400D01*
X95351Y317900D01*
X95354Y317895D01*
X95351Y317892D01*
X95400Y317583D01*
X95408Y317575D01*
X95405Y317569D01*
X95547Y317290D01*
X95557Y317285D01*
X95556Y317277D01*
X95777Y317056D01*
X95789Y317055D01*
X95790Y317047D01*
X96069Y316905D01*
X96080Y316907D01*
X96083Y316900D01*
X96392Y316851D01*
X96402Y316857D01*
X96408Y316851D01*
X96717Y316900D01*
G37*
G36*
X81717Y316900D02*
X81717Y316900D01*
X81725Y316908D01*
X81731Y316905D01*
X82010Y317047D01*
X82015Y317057D01*
X82023Y317056D01*
X82244Y317277D01*
X82245Y317289D01*
X82253Y317290D01*
X82395Y317569D01*
X82394Y317573D01*
X82398Y317576D01*
X82395Y317580D01*
X82400Y317583D01*
X82449Y317892D01*
X82446Y317897D01*
X82449Y317900D01*
X82449Y323400D01*
X82446Y323405D01*
X82449Y323408D01*
X82400Y323717D01*
X82392Y323725D01*
X82395Y323731D01*
X82253Y324010D01*
X82243Y324015D01*
X82244Y324023D01*
X82023Y324244D01*
X82011Y324245D01*
X82010Y324253D01*
X81731Y324395D01*
X81720Y324393D01*
X81717Y324400D01*
X81408Y324449D01*
X81398Y324443D01*
X81392Y324449D01*
X81083Y324400D01*
X81075Y324392D01*
X81069Y324395D01*
X80790Y324253D01*
X80785Y324243D01*
X80777Y324244D01*
X80556Y324023D01*
X80555Y324011D01*
X80547Y324010D01*
X80405Y323731D01*
X80407Y323720D01*
X80400Y323717D01*
X80351Y323408D01*
X80354Y323403D01*
X80351Y323400D01*
X80351Y317900D01*
X80354Y317895D01*
X80351Y317892D01*
X80400Y317583D01*
X80408Y317575D01*
X80405Y317569D01*
X80547Y317290D01*
X80557Y317285D01*
X80556Y317277D01*
X80777Y317056D01*
X80789Y317055D01*
X80790Y317047D01*
X81069Y316905D01*
X81080Y316907D01*
X81083Y316900D01*
X81392Y316851D01*
X81402Y316857D01*
X81408Y316851D01*
X81717Y316900D01*
G37*
G36*
X96717Y361400D02*
X96717Y361400D01*
X96725Y361408D01*
X96731Y361405D01*
X97010Y361547D01*
X97015Y361557D01*
X97023Y361556D01*
X97244Y361777D01*
X97245Y361789D01*
X97253Y361790D01*
X97395Y362069D01*
X97394Y362073D01*
X97398Y362076D01*
X97395Y362080D01*
X97400Y362083D01*
X97449Y362392D01*
X97446Y362397D01*
X97449Y362400D01*
X97449Y367900D01*
X97446Y367905D01*
X97449Y367908D01*
X97400Y368217D01*
X97392Y368225D01*
X97395Y368231D01*
X97253Y368510D01*
X97243Y368515D01*
X97244Y368523D01*
X97023Y368744D01*
X97011Y368745D01*
X97010Y368753D01*
X96731Y368895D01*
X96720Y368893D01*
X96717Y368900D01*
X96408Y368949D01*
X96398Y368943D01*
X96392Y368949D01*
X96083Y368900D01*
X96075Y368892D01*
X96069Y368895D01*
X95790Y368753D01*
X95785Y368743D01*
X95777Y368744D01*
X95556Y368523D01*
X95555Y368511D01*
X95547Y368510D01*
X95405Y368231D01*
X95407Y368220D01*
X95400Y368217D01*
X95351Y367908D01*
X95354Y367903D01*
X95351Y367900D01*
X95351Y362400D01*
X95354Y362395D01*
X95351Y362392D01*
X95400Y362083D01*
X95408Y362075D01*
X95405Y362069D01*
X95547Y361790D01*
X95557Y361785D01*
X95556Y361777D01*
X95777Y361556D01*
X95789Y361555D01*
X95790Y361547D01*
X96069Y361405D01*
X96080Y361407D01*
X96083Y361400D01*
X96392Y361351D01*
X96402Y361357D01*
X96408Y361351D01*
X96717Y361400D01*
G37*
G36*
X465017Y418500D02*
X465017Y418500D01*
X465025Y418508D01*
X465031Y418505D01*
X465310Y418647D01*
X465315Y418657D01*
X465323Y418656D01*
X465544Y418877D01*
X465545Y418889D01*
X465553Y418890D01*
X465695Y419169D01*
X465694Y419173D01*
X465698Y419176D01*
X465695Y419180D01*
X465700Y419183D01*
X465749Y419492D01*
X465746Y419497D01*
X465749Y419500D01*
X465749Y425000D01*
X465746Y425005D01*
X465749Y425008D01*
X465700Y425317D01*
X465692Y425325D01*
X465695Y425331D01*
X465553Y425610D01*
X465543Y425615D01*
X465544Y425623D01*
X465323Y425844D01*
X465311Y425845D01*
X465310Y425853D01*
X465031Y425995D01*
X465020Y425993D01*
X465017Y426000D01*
X464708Y426049D01*
X464698Y426043D01*
X464692Y426049D01*
X464383Y426000D01*
X464375Y425992D01*
X464369Y425995D01*
X464090Y425853D01*
X464085Y425843D01*
X464077Y425844D01*
X463856Y425623D01*
X463855Y425611D01*
X463847Y425610D01*
X463705Y425331D01*
X463707Y425320D01*
X463700Y425317D01*
X463651Y425008D01*
X463654Y425003D01*
X463651Y425000D01*
X463651Y419500D01*
X463654Y419495D01*
X463651Y419492D01*
X463700Y419183D01*
X463708Y419175D01*
X463705Y419169D01*
X463847Y418890D01*
X463857Y418885D01*
X463856Y418877D01*
X464077Y418656D01*
X464089Y418655D01*
X464090Y418647D01*
X464369Y418505D01*
X464380Y418507D01*
X464383Y418500D01*
X464692Y418451D01*
X464702Y418457D01*
X464708Y418451D01*
X465017Y418500D01*
G37*
G36*
X450017Y418500D02*
X450017Y418500D01*
X450025Y418508D01*
X450031Y418505D01*
X450310Y418647D01*
X450315Y418657D01*
X450323Y418656D01*
X450544Y418877D01*
X450545Y418889D01*
X450553Y418890D01*
X450695Y419169D01*
X450694Y419173D01*
X450698Y419176D01*
X450695Y419180D01*
X450700Y419183D01*
X450749Y419492D01*
X450746Y419497D01*
X450749Y419500D01*
X450749Y425000D01*
X450746Y425005D01*
X450749Y425008D01*
X450700Y425317D01*
X450692Y425325D01*
X450695Y425331D01*
X450553Y425610D01*
X450543Y425615D01*
X450544Y425623D01*
X450323Y425844D01*
X450311Y425845D01*
X450310Y425853D01*
X450031Y425995D01*
X450020Y425993D01*
X450017Y426000D01*
X449708Y426049D01*
X449698Y426043D01*
X449692Y426049D01*
X449383Y426000D01*
X449375Y425992D01*
X449369Y425995D01*
X449090Y425853D01*
X449085Y425843D01*
X449077Y425844D01*
X448856Y425623D01*
X448855Y425611D01*
X448847Y425610D01*
X448705Y425331D01*
X448707Y425320D01*
X448700Y425317D01*
X448651Y425008D01*
X448654Y425003D01*
X448651Y425000D01*
X448651Y419500D01*
X448654Y419495D01*
X448651Y419492D01*
X448700Y419183D01*
X448708Y419175D01*
X448705Y419169D01*
X448847Y418890D01*
X448857Y418885D01*
X448856Y418877D01*
X449077Y418656D01*
X449089Y418655D01*
X449090Y418647D01*
X449369Y418505D01*
X449380Y418507D01*
X449383Y418500D01*
X449692Y418451D01*
X449702Y418457D01*
X449708Y418451D01*
X450017Y418500D01*
G37*
G36*
X465017Y463000D02*
X465017Y463000D01*
X465025Y463008D01*
X465031Y463005D01*
X465310Y463147D01*
X465315Y463157D01*
X465323Y463156D01*
X465544Y463377D01*
X465545Y463389D01*
X465553Y463390D01*
X465695Y463669D01*
X465694Y463673D01*
X465698Y463676D01*
X465695Y463680D01*
X465700Y463683D01*
X465749Y463992D01*
X465746Y463997D01*
X465749Y464000D01*
X465749Y469500D01*
X465746Y469505D01*
X465749Y469508D01*
X465700Y469817D01*
X465692Y469825D01*
X465695Y469831D01*
X465553Y470110D01*
X465543Y470115D01*
X465544Y470123D01*
X465323Y470344D01*
X465311Y470345D01*
X465310Y470353D01*
X465031Y470495D01*
X465020Y470493D01*
X465017Y470500D01*
X464708Y470549D01*
X464698Y470543D01*
X464692Y470549D01*
X464383Y470500D01*
X464375Y470492D01*
X464369Y470495D01*
X464090Y470353D01*
X464085Y470343D01*
X464077Y470344D01*
X463856Y470123D01*
X463855Y470111D01*
X463847Y470110D01*
X463705Y469831D01*
X463707Y469820D01*
X463700Y469817D01*
X463651Y469508D01*
X463654Y469503D01*
X463651Y469500D01*
X463651Y464000D01*
X463654Y463995D01*
X463651Y463992D01*
X463700Y463683D01*
X463708Y463675D01*
X463705Y463669D01*
X463847Y463390D01*
X463857Y463385D01*
X463856Y463377D01*
X464077Y463156D01*
X464089Y463155D01*
X464090Y463147D01*
X464369Y463005D01*
X464380Y463007D01*
X464383Y463000D01*
X464692Y462951D01*
X464702Y462957D01*
X464708Y462951D01*
X465017Y463000D01*
G37*
G36*
X450017Y463000D02*
X450017Y463000D01*
X450025Y463008D01*
X450031Y463005D01*
X450310Y463147D01*
X450315Y463157D01*
X450323Y463156D01*
X450544Y463377D01*
X450545Y463389D01*
X450553Y463390D01*
X450695Y463669D01*
X450694Y463673D01*
X450698Y463676D01*
X450695Y463680D01*
X450700Y463683D01*
X450749Y463992D01*
X450746Y463997D01*
X450749Y464000D01*
X450749Y469500D01*
X450746Y469505D01*
X450749Y469508D01*
X450700Y469817D01*
X450692Y469825D01*
X450695Y469831D01*
X450553Y470110D01*
X450543Y470115D01*
X450544Y470123D01*
X450323Y470344D01*
X450311Y470345D01*
X450310Y470353D01*
X450031Y470495D01*
X450020Y470493D01*
X450017Y470500D01*
X449708Y470549D01*
X449698Y470543D01*
X449692Y470549D01*
X449383Y470500D01*
X449375Y470492D01*
X449369Y470495D01*
X449090Y470353D01*
X449085Y470343D01*
X449077Y470344D01*
X448856Y470123D01*
X448855Y470111D01*
X448847Y470110D01*
X448705Y469831D01*
X448707Y469820D01*
X448700Y469817D01*
X448651Y469508D01*
X448654Y469503D01*
X448651Y469500D01*
X448651Y464000D01*
X448654Y463995D01*
X448651Y463992D01*
X448700Y463683D01*
X448708Y463675D01*
X448705Y463669D01*
X448847Y463390D01*
X448857Y463385D01*
X448856Y463377D01*
X449077Y463156D01*
X449089Y463155D01*
X449090Y463147D01*
X449369Y463005D01*
X449380Y463007D01*
X449383Y463000D01*
X449692Y462951D01*
X449702Y462957D01*
X449708Y462951D01*
X450017Y463000D01*
G37*
G36*
X81717Y361400D02*
X81717Y361400D01*
X81725Y361408D01*
X81731Y361405D01*
X82010Y361547D01*
X82015Y361557D01*
X82023Y361556D01*
X82244Y361777D01*
X82245Y361789D01*
X82253Y361790D01*
X82395Y362069D01*
X82394Y362073D01*
X82398Y362076D01*
X82395Y362080D01*
X82400Y362083D01*
X82449Y362392D01*
X82446Y362397D01*
X82449Y362400D01*
X82449Y367900D01*
X82446Y367905D01*
X82449Y367908D01*
X82400Y368217D01*
X82392Y368225D01*
X82395Y368231D01*
X82253Y368510D01*
X82243Y368515D01*
X82244Y368523D01*
X82023Y368744D01*
X82011Y368745D01*
X82010Y368753D01*
X81731Y368895D01*
X81720Y368893D01*
X81717Y368900D01*
X81408Y368949D01*
X81398Y368943D01*
X81392Y368949D01*
X81083Y368900D01*
X81075Y368892D01*
X81069Y368895D01*
X80790Y368753D01*
X80785Y368743D01*
X80777Y368744D01*
X80556Y368523D01*
X80555Y368511D01*
X80547Y368510D01*
X80405Y368231D01*
X80407Y368220D01*
X80400Y368217D01*
X80351Y367908D01*
X80354Y367903D01*
X80351Y367900D01*
X80351Y362400D01*
X80354Y362395D01*
X80351Y362392D01*
X80400Y362083D01*
X80408Y362075D01*
X80405Y362069D01*
X80547Y361790D01*
X80557Y361785D01*
X80556Y361777D01*
X80777Y361556D01*
X80789Y361555D01*
X80790Y361547D01*
X81069Y361405D01*
X81080Y361407D01*
X81083Y361400D01*
X81392Y361351D01*
X81402Y361357D01*
X81408Y361351D01*
X81717Y361400D01*
G37*
D10*
X104520Y4530D02*
X93480Y4530D01*
X93480Y23570D01*
X104520Y23570D01*
X104520Y4530D01*
X104520Y5442D02*
X93480Y5442D01*
X93480Y6354D02*
X104520Y6354D01*
X104520Y7266D02*
X93480Y7266D01*
X93480Y8178D02*
X104520Y8178D01*
X104520Y9090D02*
X93480Y9090D01*
X93480Y10002D02*
X104520Y10002D01*
X104520Y10914D02*
X93480Y10914D01*
X93480Y11826D02*
X104520Y11826D01*
X104520Y12738D02*
X93480Y12738D01*
X93480Y13650D02*
X104520Y13650D01*
X104520Y14562D02*
X93480Y14562D01*
X93480Y15474D02*
X104520Y15474D01*
X104520Y16386D02*
X93480Y16386D01*
X93480Y17298D02*
X104520Y17298D01*
X104520Y18210D02*
X93480Y18210D01*
X93480Y19122D02*
X104520Y19122D01*
X104520Y20034D02*
X93480Y20034D01*
X93480Y20946D02*
X104520Y20946D01*
X104520Y21858D02*
X93480Y21858D01*
X93480Y22770D02*
X104520Y22770D01*
X149480Y4530D02*
X160520Y4530D01*
X149480Y4530D02*
X149480Y23570D01*
X160520Y23570D01*
X160520Y4530D01*
X160520Y5442D02*
X149480Y5442D01*
X149480Y6354D02*
X160520Y6354D01*
X160520Y7266D02*
X149480Y7266D01*
X149480Y8178D02*
X160520Y8178D01*
X160520Y9090D02*
X149480Y9090D01*
X149480Y10002D02*
X160520Y10002D01*
X160520Y10914D02*
X149480Y10914D01*
X149480Y11826D02*
X160520Y11826D01*
X160520Y12738D02*
X149480Y12738D01*
X149480Y13650D02*
X160520Y13650D01*
X160520Y14562D02*
X149480Y14562D01*
X149480Y15474D02*
X160520Y15474D01*
X160520Y16386D02*
X149480Y16386D01*
X149480Y17298D02*
X160520Y17298D01*
X160520Y18210D02*
X149480Y18210D01*
X149480Y19122D02*
X160520Y19122D01*
X160520Y20034D02*
X149480Y20034D01*
X149480Y20946D02*
X160520Y20946D01*
X160520Y21858D02*
X149480Y21858D01*
X149480Y22770D02*
X160520Y22770D01*
D11*
X114490Y44560D02*
X109510Y44560D01*
X109510Y57040D01*
X114490Y57040D01*
X114490Y44560D01*
X114490Y45529D02*
X109510Y45529D01*
X109510Y46498D02*
X114490Y46498D01*
X114490Y47467D02*
X109510Y47467D01*
X109510Y48436D02*
X114490Y48436D01*
X114490Y49405D02*
X109510Y49405D01*
X109510Y50374D02*
X114490Y50374D01*
X114490Y51343D02*
X109510Y51343D01*
X109510Y52312D02*
X114490Y52312D01*
X114490Y53281D02*
X109510Y53281D01*
X109510Y54250D02*
X114490Y54250D01*
X114490Y55219D02*
X109510Y55219D01*
X109510Y56188D02*
X114490Y56188D01*
X119510Y44560D02*
X124490Y44560D01*
X119510Y44560D02*
X119510Y57040D01*
X124490Y57040D01*
X124490Y44560D01*
X124490Y45529D02*
X119510Y45529D01*
X119510Y46498D02*
X124490Y46498D01*
X124490Y47467D02*
X119510Y47467D01*
X119510Y48436D02*
X124490Y48436D01*
X124490Y49405D02*
X119510Y49405D01*
X119510Y50374D02*
X124490Y50374D01*
X124490Y51343D02*
X119510Y51343D01*
X119510Y52312D02*
X124490Y52312D01*
X124490Y53281D02*
X119510Y53281D01*
X119510Y54250D02*
X124490Y54250D01*
X124490Y55219D02*
X119510Y55219D01*
X119510Y56188D02*
X124490Y56188D01*
X129510Y44560D02*
X134490Y44560D01*
X129510Y44560D02*
X129510Y57040D01*
X134490Y57040D01*
X134490Y44560D01*
X134490Y45529D02*
X129510Y45529D01*
X129510Y46498D02*
X134490Y46498D01*
X134490Y47467D02*
X129510Y47467D01*
X129510Y48436D02*
X134490Y48436D01*
X134490Y49405D02*
X129510Y49405D01*
X129510Y50374D02*
X134490Y50374D01*
X134490Y51343D02*
X129510Y51343D01*
X129510Y52312D02*
X134490Y52312D01*
X134490Y53281D02*
X129510Y53281D01*
X129510Y54250D02*
X134490Y54250D01*
X134490Y55219D02*
X129510Y55219D01*
X129510Y56188D02*
X134490Y56188D01*
X139510Y44560D02*
X144490Y44560D01*
X139510Y44560D02*
X139510Y57040D01*
X144490Y57040D01*
X144490Y44560D01*
X144490Y45529D02*
X139510Y45529D01*
X139510Y46498D02*
X144490Y46498D01*
X144490Y47467D02*
X139510Y47467D01*
X139510Y48436D02*
X144490Y48436D01*
X144490Y49405D02*
X139510Y49405D01*
X139510Y50374D02*
X144490Y50374D01*
X144490Y51343D02*
X139510Y51343D01*
X139510Y52312D02*
X144490Y52312D01*
X144490Y53281D02*
X139510Y53281D01*
X139510Y54250D02*
X144490Y54250D01*
X144490Y55219D02*
X139510Y55219D01*
X139510Y56188D02*
X144490Y56188D01*
D12*
X128960Y75400D02*
X128960Y85400D01*
X128960Y75400D02*
X119960Y75400D01*
X119960Y85400D01*
X128960Y85400D01*
X128960Y76350D02*
X119960Y76350D01*
X119960Y77300D02*
X128960Y77300D01*
X128960Y78250D02*
X119960Y78250D01*
X119960Y79200D02*
X128960Y79200D01*
X128960Y80150D02*
X119960Y80150D01*
X119960Y81100D02*
X128960Y81100D01*
X128960Y82050D02*
X119960Y82050D01*
X119960Y83000D02*
X128960Y83000D01*
X128960Y83950D02*
X119960Y83950D01*
X119960Y84900D02*
X128960Y84900D01*
X128960Y92400D02*
X128960Y102400D01*
X128960Y92400D02*
X119960Y92400D01*
X119960Y102400D01*
X128960Y102400D01*
X128960Y93350D02*
X119960Y93350D01*
X119960Y94300D02*
X128960Y94300D01*
X128960Y95250D02*
X119960Y95250D01*
X119960Y96200D02*
X128960Y96200D01*
X128960Y97150D02*
X119960Y97150D01*
X119960Y98100D02*
X128960Y98100D01*
X128960Y99050D02*
X119960Y99050D01*
X119960Y100000D02*
X128960Y100000D01*
X128960Y100950D02*
X119960Y100950D01*
X119960Y101900D02*
X128960Y101900D01*
X144200Y85400D02*
X144200Y75400D01*
X135200Y75400D01*
X135200Y85400D01*
X144200Y85400D01*
X144200Y76350D02*
X135200Y76350D01*
X135200Y77300D02*
X144200Y77300D01*
X144200Y78250D02*
X135200Y78250D01*
X135200Y79200D02*
X144200Y79200D01*
X144200Y80150D02*
X135200Y80150D01*
X135200Y81100D02*
X144200Y81100D01*
X144200Y82050D02*
X135200Y82050D01*
X135200Y83000D02*
X144200Y83000D01*
X144200Y83950D02*
X135200Y83950D01*
X135200Y84900D02*
X144200Y84900D01*
X144200Y92400D02*
X144200Y102400D01*
X144200Y92400D02*
X135200Y92400D01*
X135200Y102400D01*
X144200Y102400D01*
X144200Y93350D02*
X135200Y93350D01*
X135200Y94300D02*
X144200Y94300D01*
X144200Y95250D02*
X135200Y95250D01*
X135200Y96200D02*
X144200Y96200D01*
X144200Y97150D02*
X135200Y97150D01*
X135200Y98100D02*
X144200Y98100D01*
X144200Y99050D02*
X135200Y99050D01*
X135200Y100000D02*
X144200Y100000D01*
X144200Y100950D02*
X135200Y100950D01*
X135200Y101900D02*
X144200Y101900D01*
D13*
X73165Y71615D02*
X66535Y71615D01*
X66535Y85865D01*
X73165Y85865D01*
X73165Y71615D01*
X73165Y72556D02*
X66535Y72556D01*
X66535Y73497D02*
X73165Y73497D01*
X73165Y74438D02*
X66535Y74438D01*
X66535Y75379D02*
X73165Y75379D01*
X73165Y76320D02*
X66535Y76320D01*
X66535Y77261D02*
X73165Y77261D01*
X73165Y78202D02*
X66535Y78202D01*
X66535Y79143D02*
X73165Y79143D01*
X73165Y80084D02*
X66535Y80084D01*
X66535Y81025D02*
X73165Y81025D01*
X73165Y81966D02*
X66535Y81966D01*
X66535Y82907D02*
X73165Y82907D01*
X73165Y83848D02*
X66535Y83848D01*
X66535Y84789D02*
X73165Y84789D01*
X73165Y85730D02*
X66535Y85730D01*
X66535Y15735D02*
X73165Y15735D01*
X66535Y15735D02*
X66535Y29985D01*
X73165Y29985D01*
X73165Y15735D01*
X73165Y16676D02*
X66535Y16676D01*
X66535Y17617D02*
X73165Y17617D01*
X73165Y18558D02*
X66535Y18558D01*
X66535Y19499D02*
X73165Y19499D01*
X73165Y20440D02*
X66535Y20440D01*
X66535Y21381D02*
X73165Y21381D01*
X73165Y22322D02*
X66535Y22322D01*
X66535Y23263D02*
X73165Y23263D01*
X73165Y24204D02*
X66535Y24204D01*
X66535Y25145D02*
X73165Y25145D01*
X73165Y26086D02*
X66535Y26086D01*
X66535Y27027D02*
X73165Y27027D01*
X73165Y27968D02*
X66535Y27968D01*
X66535Y28909D02*
X73165Y28909D01*
X73165Y29850D02*
X66535Y29850D01*
X35065Y71615D02*
X28435Y71615D01*
X28435Y85865D01*
X35065Y85865D01*
X35065Y71615D01*
X35065Y72556D02*
X28435Y72556D01*
X28435Y73497D02*
X35065Y73497D01*
X35065Y74438D02*
X28435Y74438D01*
X28435Y75379D02*
X35065Y75379D01*
X35065Y76320D02*
X28435Y76320D01*
X28435Y77261D02*
X35065Y77261D01*
X35065Y78202D02*
X28435Y78202D01*
X28435Y79143D02*
X35065Y79143D01*
X35065Y80084D02*
X28435Y80084D01*
X28435Y81025D02*
X35065Y81025D01*
X35065Y81966D02*
X28435Y81966D01*
X28435Y82907D02*
X35065Y82907D01*
X35065Y83848D02*
X28435Y83848D01*
X28435Y84789D02*
X35065Y84789D01*
X35065Y85730D02*
X28435Y85730D01*
X28435Y15735D02*
X35065Y15735D01*
X28435Y15735D02*
X28435Y29985D01*
X35065Y29985D01*
X35065Y15735D01*
X35065Y16676D02*
X28435Y16676D01*
X28435Y17617D02*
X35065Y17617D01*
X35065Y18558D02*
X28435Y18558D01*
X28435Y19499D02*
X35065Y19499D01*
X35065Y20440D02*
X28435Y20440D01*
X28435Y21381D02*
X35065Y21381D01*
X35065Y22322D02*
X28435Y22322D01*
X28435Y23263D02*
X35065Y23263D01*
X35065Y24204D02*
X28435Y24204D01*
X28435Y25145D02*
X35065Y25145D01*
X35065Y26086D02*
X28435Y26086D01*
X28435Y27027D02*
X35065Y27027D01*
X35065Y27968D02*
X28435Y27968D01*
X28435Y28909D02*
X35065Y28909D01*
X35065Y29850D02*
X28435Y29850D01*
X460235Y29985D02*
X466865Y29985D01*
X466865Y15735D01*
X460235Y15735D01*
X460235Y29985D01*
X460235Y16676D02*
X466865Y16676D01*
X466865Y17617D02*
X460235Y17617D01*
X460235Y18558D02*
X466865Y18558D01*
X466865Y19499D02*
X460235Y19499D01*
X460235Y20440D02*
X466865Y20440D01*
X466865Y21381D02*
X460235Y21381D01*
X460235Y22322D02*
X466865Y22322D01*
X466865Y23263D02*
X460235Y23263D01*
X460235Y24204D02*
X466865Y24204D01*
X466865Y25145D02*
X460235Y25145D01*
X460235Y26086D02*
X466865Y26086D01*
X466865Y27027D02*
X460235Y27027D01*
X460235Y27968D02*
X466865Y27968D01*
X466865Y28909D02*
X460235Y28909D01*
X460235Y29850D02*
X466865Y29850D01*
X466865Y85865D02*
X460235Y85865D01*
X466865Y85865D02*
X466865Y71615D01*
X460235Y71615D01*
X460235Y85865D01*
X460235Y72556D02*
X466865Y72556D01*
X466865Y73497D02*
X460235Y73497D01*
X460235Y74438D02*
X466865Y74438D01*
X466865Y75379D02*
X460235Y75379D01*
X460235Y76320D02*
X466865Y76320D01*
X466865Y77261D02*
X460235Y77261D01*
X460235Y78202D02*
X466865Y78202D01*
X466865Y79143D02*
X460235Y79143D01*
X460235Y80084D02*
X466865Y80084D01*
X466865Y81025D02*
X460235Y81025D01*
X460235Y81966D02*
X466865Y81966D01*
X466865Y82907D02*
X460235Y82907D01*
X460235Y83848D02*
X466865Y83848D01*
X466865Y84789D02*
X460235Y84789D01*
X460235Y85730D02*
X466865Y85730D01*
X498335Y29985D02*
X504965Y29985D01*
X504965Y15735D01*
X498335Y15735D01*
X498335Y29985D01*
X498335Y16676D02*
X504965Y16676D01*
X504965Y17617D02*
X498335Y17617D01*
X498335Y18558D02*
X504965Y18558D01*
X504965Y19499D02*
X498335Y19499D01*
X498335Y20440D02*
X504965Y20440D01*
X504965Y21381D02*
X498335Y21381D01*
X498335Y22322D02*
X504965Y22322D01*
X504965Y23263D02*
X498335Y23263D01*
X498335Y24204D02*
X504965Y24204D01*
X504965Y25145D02*
X498335Y25145D01*
X498335Y26086D02*
X504965Y26086D01*
X504965Y27027D02*
X498335Y27027D01*
X498335Y27968D02*
X504965Y27968D01*
X504965Y28909D02*
X498335Y28909D01*
X498335Y29850D02*
X504965Y29850D01*
X504965Y85865D02*
X498335Y85865D01*
X504965Y85865D02*
X504965Y71615D01*
X498335Y71615D01*
X498335Y85865D01*
X498335Y72556D02*
X504965Y72556D01*
X504965Y73497D02*
X498335Y73497D01*
X498335Y74438D02*
X504965Y74438D01*
X504965Y75379D02*
X498335Y75379D01*
X498335Y76320D02*
X504965Y76320D01*
X504965Y77261D02*
X498335Y77261D01*
X498335Y78202D02*
X504965Y78202D01*
X504965Y79143D02*
X498335Y79143D01*
X498335Y80084D02*
X504965Y80084D01*
X504965Y81025D02*
X498335Y81025D01*
X498335Y81966D02*
X504965Y81966D01*
X504965Y82907D02*
X498335Y82907D01*
X498335Y83848D02*
X504965Y83848D01*
X504965Y84789D02*
X498335Y84789D01*
X498335Y85730D02*
X504965Y85730D01*
D12*
X410520Y50110D02*
X400520Y50110D01*
X400520Y59110D01*
X410520Y59110D01*
X410520Y50110D01*
X410520Y51060D02*
X400520Y51060D01*
X400520Y52010D02*
X410520Y52010D01*
X410520Y52960D02*
X400520Y52960D01*
X400520Y53910D02*
X410520Y53910D01*
X410520Y54860D02*
X400520Y54860D01*
X400520Y55810D02*
X410520Y55810D01*
X410520Y56760D02*
X400520Y56760D01*
X400520Y57710D02*
X410520Y57710D01*
X410520Y58660D02*
X400520Y58660D01*
X417520Y50110D02*
X427520Y50110D01*
X417520Y50110D02*
X417520Y59110D01*
X427520Y59110D01*
X427520Y50110D01*
X427520Y51060D02*
X417520Y51060D01*
X417520Y52010D02*
X427520Y52010D01*
X427520Y52960D02*
X417520Y52960D01*
X417520Y53910D02*
X427520Y53910D01*
X427520Y54860D02*
X417520Y54860D01*
X417520Y55810D02*
X427520Y55810D01*
X427520Y56760D02*
X417520Y56760D01*
X417520Y57710D02*
X427520Y57710D01*
X427520Y58660D02*
X417520Y58660D01*
D14*
X416870Y20130D02*
X423870Y20130D01*
X423870Y13130D01*
X416870Y13130D01*
X416870Y20130D01*
X416870Y15980D02*
X423870Y15980D01*
X423870Y18830D02*
X416870Y18830D01*
X416870Y37670D02*
X423870Y37670D01*
X423870Y30670D01*
X416870Y30670D01*
X416870Y37670D01*
X416870Y33520D02*
X423870Y33520D01*
X423870Y36370D02*
X416870Y36370D01*
X513270Y148900D02*
X513270Y155900D01*
X520270Y155900D01*
X520270Y148900D01*
X513270Y148900D01*
X513270Y151750D02*
X520270Y151750D01*
X520270Y154600D02*
X513270Y154600D01*
X495730Y155900D02*
X495730Y148900D01*
X495730Y155900D02*
X502730Y155900D01*
X502730Y148900D01*
X495730Y148900D01*
X495730Y151750D02*
X502730Y151750D01*
X502730Y154600D02*
X495730Y154600D01*
D12*
X466908Y128088D02*
X456908Y128088D01*
X456908Y137088D01*
X466908Y137088D01*
X466908Y128088D01*
X466908Y129038D02*
X456908Y129038D01*
X456908Y129988D02*
X466908Y129988D01*
X466908Y130938D02*
X456908Y130938D01*
X456908Y131888D02*
X466908Y131888D01*
X466908Y132838D02*
X456908Y132838D01*
X456908Y133788D02*
X466908Y133788D01*
X466908Y134738D02*
X456908Y134738D01*
X456908Y135688D02*
X466908Y135688D01*
X466908Y136638D02*
X456908Y136638D01*
X473908Y128088D02*
X483908Y128088D01*
X473908Y128088D02*
X473908Y137088D01*
X483908Y137088D01*
X483908Y128088D01*
X483908Y129038D02*
X473908Y129038D01*
X473908Y129988D02*
X483908Y129988D01*
X483908Y130938D02*
X473908Y130938D01*
X473908Y131888D02*
X483908Y131888D01*
X483908Y132838D02*
X473908Y132838D01*
X473908Y133788D02*
X483908Y133788D01*
X483908Y134738D02*
X473908Y134738D01*
X473908Y135688D02*
X483908Y135688D01*
X483908Y136638D02*
X473908Y136638D01*
D15*
X259455Y145094D02*
X254945Y145094D01*
X254945Y157604D01*
X259455Y157604D01*
X259455Y145094D01*
X259455Y146034D02*
X254945Y146034D01*
X254945Y146974D02*
X259455Y146974D01*
X259455Y147914D02*
X254945Y147914D01*
X254945Y148854D02*
X259455Y148854D01*
X259455Y149794D02*
X254945Y149794D01*
X254945Y150734D02*
X259455Y150734D01*
X259455Y151674D02*
X254945Y151674D01*
X254945Y152614D02*
X259455Y152614D01*
X259455Y153554D02*
X254945Y153554D01*
X254945Y154494D02*
X259455Y154494D01*
X259455Y155434D02*
X254945Y155434D01*
X254945Y156374D02*
X259455Y156374D01*
X259455Y157314D02*
X254945Y157314D01*
X264445Y145094D02*
X268955Y145094D01*
X264445Y145094D02*
X264445Y157604D01*
X268955Y157604D01*
X268955Y145094D01*
X268955Y146034D02*
X264445Y146034D01*
X264445Y146974D02*
X268955Y146974D01*
X268955Y147914D02*
X264445Y147914D01*
X264445Y148854D02*
X268955Y148854D01*
X268955Y149794D02*
X264445Y149794D01*
X264445Y150734D02*
X268955Y150734D01*
X268955Y151674D02*
X264445Y151674D01*
X264445Y152614D02*
X268955Y152614D01*
X268955Y153554D02*
X264445Y153554D01*
X264445Y154494D02*
X268955Y154494D01*
X268955Y155434D02*
X264445Y155434D01*
X264445Y156374D02*
X268955Y156374D01*
X268955Y157314D02*
X264445Y157314D01*
X273945Y145094D02*
X278455Y145094D01*
X273945Y145094D02*
X273945Y157604D01*
X278455Y157604D01*
X278455Y145094D01*
X278455Y146034D02*
X273945Y146034D01*
X273945Y146974D02*
X278455Y146974D01*
X278455Y147914D02*
X273945Y147914D01*
X273945Y148854D02*
X278455Y148854D01*
X278455Y149794D02*
X273945Y149794D01*
X273945Y150734D02*
X278455Y150734D01*
X278455Y151674D02*
X273945Y151674D01*
X273945Y152614D02*
X278455Y152614D01*
X278455Y153554D02*
X273945Y153554D01*
X273945Y154494D02*
X278455Y154494D01*
X278455Y155434D02*
X273945Y155434D01*
X273945Y156374D02*
X278455Y156374D01*
X278455Y157314D02*
X273945Y157314D01*
X273945Y172596D02*
X278455Y172596D01*
X273945Y172596D02*
X273945Y185106D01*
X278455Y185106D01*
X278455Y172596D01*
X278455Y173536D02*
X273945Y173536D01*
X273945Y174476D02*
X278455Y174476D01*
X278455Y175416D02*
X273945Y175416D01*
X273945Y176356D02*
X278455Y176356D01*
X278455Y177296D02*
X273945Y177296D01*
X273945Y178236D02*
X278455Y178236D01*
X278455Y179176D02*
X273945Y179176D01*
X273945Y180116D02*
X278455Y180116D01*
X278455Y181056D02*
X273945Y181056D01*
X273945Y181996D02*
X278455Y181996D01*
X278455Y182936D02*
X273945Y182936D01*
X273945Y183876D02*
X278455Y183876D01*
X278455Y184816D02*
X273945Y184816D01*
X268955Y172596D02*
X264445Y172596D01*
X264445Y185106D01*
X268955Y185106D01*
X268955Y172596D01*
X268955Y173536D02*
X264445Y173536D01*
X264445Y174476D02*
X268955Y174476D01*
X268955Y175416D02*
X264445Y175416D01*
X264445Y176356D02*
X268955Y176356D01*
X268955Y177296D02*
X264445Y177296D01*
X264445Y178236D02*
X268955Y178236D01*
X268955Y179176D02*
X264445Y179176D01*
X264445Y180116D02*
X268955Y180116D01*
X268955Y181056D02*
X264445Y181056D01*
X264445Y181996D02*
X268955Y181996D01*
X268955Y182936D02*
X264445Y182936D01*
X264445Y183876D02*
X268955Y183876D01*
X268955Y184816D02*
X264445Y184816D01*
X259455Y172596D02*
X254945Y172596D01*
X254945Y185106D01*
X259455Y185106D01*
X259455Y172596D01*
X259455Y173536D02*
X254945Y173536D01*
X254945Y174476D02*
X259455Y174476D01*
X259455Y175416D02*
X254945Y175416D01*
X254945Y176356D02*
X259455Y176356D01*
X259455Y177296D02*
X254945Y177296D01*
X254945Y178236D02*
X259455Y178236D01*
X259455Y179176D02*
X254945Y179176D01*
X254945Y180116D02*
X259455Y180116D01*
X259455Y181056D02*
X254945Y181056D01*
X254945Y181996D02*
X259455Y181996D01*
X259455Y182936D02*
X254945Y182936D01*
X254945Y183876D02*
X259455Y183876D01*
X259455Y184816D02*
X254945Y184816D01*
D10*
X259880Y190920D02*
X298920Y190920D01*
X259880Y190920D02*
X259880Y205960D01*
X298920Y205960D01*
X298920Y190920D01*
X298920Y191832D02*
X259880Y191832D01*
X259880Y192744D02*
X298920Y192744D01*
X298920Y193656D02*
X259880Y193656D01*
X259880Y194568D02*
X298920Y194568D01*
X298920Y195480D02*
X259880Y195480D01*
X259880Y196392D02*
X298920Y196392D01*
X298920Y197304D02*
X259880Y197304D01*
X259880Y198216D02*
X298920Y198216D01*
X298920Y199128D02*
X259880Y199128D01*
X259880Y200040D02*
X298920Y200040D01*
X298920Y200952D02*
X259880Y200952D01*
X259880Y201864D02*
X298920Y201864D01*
X298920Y202776D02*
X259880Y202776D01*
X259880Y203688D02*
X298920Y203688D01*
X298920Y204600D02*
X259880Y204600D01*
X259880Y205512D02*
X298920Y205512D01*
X298920Y229920D02*
X259880Y229920D01*
X259880Y244960D01*
X298920Y244960D01*
X298920Y229920D01*
X298920Y230832D02*
X259880Y230832D01*
X259880Y231744D02*
X298920Y231744D01*
X298920Y232656D02*
X259880Y232656D01*
X259880Y233568D02*
X298920Y233568D01*
X298920Y234480D02*
X259880Y234480D01*
X259880Y235392D02*
X298920Y235392D01*
X298920Y236304D02*
X259880Y236304D01*
X259880Y237216D02*
X298920Y237216D01*
X298920Y238128D02*
X259880Y238128D01*
X259880Y239040D02*
X298920Y239040D01*
X298920Y239952D02*
X259880Y239952D01*
X259880Y240864D02*
X298920Y240864D01*
X298920Y241776D02*
X259880Y241776D01*
X259880Y242688D02*
X298920Y242688D01*
X298920Y243600D02*
X259880Y243600D01*
X259880Y244512D02*
X298920Y244512D01*
D12*
X247070Y184460D02*
X247070Y174460D01*
X238070Y174460D01*
X238070Y184460D01*
X247070Y184460D01*
X247070Y175410D02*
X238070Y175410D01*
X238070Y176360D02*
X247070Y176360D01*
X247070Y177310D02*
X238070Y177310D01*
X238070Y178260D02*
X247070Y178260D01*
X247070Y179210D02*
X238070Y179210D01*
X238070Y180160D02*
X247070Y180160D01*
X247070Y181110D02*
X238070Y181110D01*
X238070Y182060D02*
X247070Y182060D01*
X247070Y183010D02*
X238070Y183010D01*
X238070Y183960D02*
X247070Y183960D01*
X247070Y191460D02*
X247070Y201460D01*
X247070Y191460D02*
X238070Y191460D01*
X238070Y201460D01*
X247070Y201460D01*
X247070Y192410D02*
X238070Y192410D01*
X238070Y193360D02*
X247070Y193360D01*
X247070Y194310D02*
X238070Y194310D01*
X238070Y195260D02*
X247070Y195260D01*
X247070Y196210D02*
X238070Y196210D01*
X238070Y197160D02*
X247070Y197160D01*
X247070Y198110D02*
X238070Y198110D01*
X238070Y199060D02*
X247070Y199060D01*
X247070Y200010D02*
X238070Y200010D01*
X238070Y200960D02*
X247070Y200960D01*
X324430Y229560D02*
X324430Y239560D01*
X333430Y239560D01*
X333430Y229560D01*
X324430Y229560D01*
X324430Y230510D02*
X333430Y230510D01*
X333430Y231460D02*
X324430Y231460D01*
X324430Y232410D02*
X333430Y232410D01*
X333430Y233360D02*
X324430Y233360D01*
X324430Y234310D02*
X333430Y234310D01*
X333430Y235260D02*
X324430Y235260D01*
X324430Y236210D02*
X333430Y236210D01*
X333430Y237160D02*
X324430Y237160D01*
X324430Y238110D02*
X333430Y238110D01*
X333430Y239060D02*
X324430Y239060D01*
X324430Y222560D02*
X324430Y212560D01*
X324430Y222560D02*
X333430Y222560D01*
X333430Y212560D01*
X324430Y212560D01*
X324430Y213510D02*
X333430Y213510D01*
X333430Y214460D02*
X324430Y214460D01*
X324430Y215410D02*
X333430Y215410D01*
X333430Y216360D02*
X324430Y216360D01*
X324430Y217310D02*
X333430Y217310D01*
X333430Y218260D02*
X324430Y218260D01*
X324430Y219210D02*
X333430Y219210D01*
X333430Y220160D02*
X324430Y220160D01*
X324430Y221110D02*
X333430Y221110D01*
X333430Y222060D02*
X324430Y222060D01*
X309190Y229560D02*
X309190Y239560D01*
X318190Y239560D01*
X318190Y229560D01*
X309190Y229560D01*
X309190Y230510D02*
X318190Y230510D01*
X318190Y231460D02*
X309190Y231460D01*
X309190Y232410D02*
X318190Y232410D01*
X318190Y233360D02*
X309190Y233360D01*
X309190Y234310D02*
X318190Y234310D01*
X318190Y235260D02*
X309190Y235260D01*
X309190Y236210D02*
X318190Y236210D01*
X318190Y237160D02*
X309190Y237160D01*
X309190Y238110D02*
X318190Y238110D01*
X318190Y239060D02*
X309190Y239060D01*
X309190Y222560D02*
X309190Y212560D01*
X309190Y222560D02*
X318190Y222560D01*
X318190Y212560D01*
X309190Y212560D01*
X309190Y213510D02*
X318190Y213510D01*
X318190Y214460D02*
X309190Y214460D01*
X309190Y215410D02*
X318190Y215410D01*
X318190Y216360D02*
X309190Y216360D01*
X309190Y217310D02*
X318190Y217310D01*
X318190Y218260D02*
X309190Y218260D01*
X309190Y219210D02*
X318190Y219210D01*
X318190Y220160D02*
X309190Y220160D01*
X309190Y221110D02*
X318190Y221110D01*
X318190Y222060D02*
X309190Y222060D01*
D16*
X314592Y150852D02*
X314592Y139168D01*
X295008Y139168D01*
X295008Y150852D01*
X314592Y150852D01*
X314592Y140133D02*
X295008Y140133D01*
X295008Y141098D02*
X314592Y141098D01*
X314592Y142063D02*
X295008Y142063D01*
X295008Y143028D02*
X314592Y143028D01*
X314592Y143993D02*
X295008Y143993D01*
X295008Y144958D02*
X314592Y144958D01*
X314592Y145923D02*
X295008Y145923D01*
X295008Y146888D02*
X314592Y146888D01*
X314592Y147853D02*
X295008Y147853D01*
X295008Y148818D02*
X314592Y148818D01*
X314592Y149783D02*
X295008Y149783D01*
X295008Y150748D02*
X314592Y150748D01*
X314592Y174268D02*
X314592Y185952D01*
X314592Y174268D02*
X295008Y174268D01*
X295008Y185952D01*
X314592Y185952D01*
X314592Y175233D02*
X295008Y175233D01*
X295008Y176198D02*
X314592Y176198D01*
X314592Y177163D02*
X295008Y177163D01*
X295008Y178128D02*
X314592Y178128D01*
X314592Y179093D02*
X295008Y179093D01*
X295008Y180058D02*
X314592Y180058D01*
X314592Y181023D02*
X295008Y181023D01*
X295008Y181988D02*
X314592Y181988D01*
X314592Y182953D02*
X295008Y182953D01*
X295008Y183918D02*
X314592Y183918D01*
X314592Y184883D02*
X295008Y184883D01*
X295008Y185848D02*
X314592Y185848D01*
D12*
X263200Y130120D02*
X253200Y130120D01*
X253200Y139120D01*
X263200Y139120D01*
X263200Y130120D01*
X263200Y131070D02*
X253200Y131070D01*
X253200Y132020D02*
X263200Y132020D01*
X263200Y132970D02*
X253200Y132970D01*
X253200Y133920D02*
X263200Y133920D01*
X263200Y134870D02*
X253200Y134870D01*
X253200Y135820D02*
X263200Y135820D01*
X263200Y136770D02*
X253200Y136770D01*
X253200Y137720D02*
X263200Y137720D01*
X263200Y138670D02*
X253200Y138670D01*
X270200Y130120D02*
X280200Y130120D01*
X270200Y130120D02*
X270200Y139120D01*
X280200Y139120D01*
X280200Y130120D01*
X280200Y131070D02*
X270200Y131070D01*
X270200Y132020D02*
X280200Y132020D01*
X280200Y132970D02*
X270200Y132970D01*
X270200Y133920D02*
X280200Y133920D01*
X280200Y134870D02*
X270200Y134870D01*
X270200Y135820D02*
X280200Y135820D01*
X280200Y136770D02*
X270200Y136770D01*
X270200Y137720D02*
X280200Y137720D01*
X280200Y138670D02*
X270200Y138670D01*
D11*
X162390Y488360D02*
X162390Y495840D01*
X162390Y488360D02*
X146410Y488360D01*
X146410Y495840D01*
X162390Y495840D01*
X162390Y489329D02*
X146410Y489329D01*
X146410Y490298D02*
X162390Y490298D01*
X162390Y491267D02*
X146410Y491267D01*
X146410Y492236D02*
X162390Y492236D01*
X162390Y493205D02*
X146410Y493205D01*
X146410Y494174D02*
X162390Y494174D01*
X162390Y495143D02*
X146410Y495143D01*
X192390Y475840D02*
X192390Y468360D01*
X176410Y468360D01*
X176410Y475840D01*
X192390Y475840D01*
X192390Y469329D02*
X176410Y469329D01*
X176410Y470298D02*
X192390Y470298D01*
X192390Y471267D02*
X176410Y471267D01*
X176410Y472236D02*
X192390Y472236D01*
X192390Y473205D02*
X176410Y473205D01*
X176410Y474174D02*
X192390Y474174D01*
X192390Y475143D02*
X176410Y475143D01*
X162390Y455840D02*
X162390Y448360D01*
X146410Y448360D01*
X146410Y455840D01*
X162390Y455840D01*
X162390Y449329D02*
X146410Y449329D01*
X146410Y450298D02*
X162390Y450298D01*
X162390Y451267D02*
X146410Y451267D01*
X146410Y452236D02*
X162390Y452236D01*
X162390Y453205D02*
X146410Y453205D01*
X146410Y454174D02*
X162390Y454174D01*
X162390Y455143D02*
X146410Y455143D01*
X192390Y435840D02*
X192390Y428360D01*
X176410Y428360D01*
X176410Y435840D01*
X192390Y435840D01*
X192390Y429329D02*
X176410Y429329D01*
X176410Y430298D02*
X192390Y430298D01*
X192390Y431267D02*
X176410Y431267D01*
X176410Y432236D02*
X192390Y432236D01*
X192390Y433205D02*
X176410Y433205D01*
X176410Y434174D02*
X192390Y434174D01*
X192390Y435143D02*
X176410Y435143D01*
X162390Y415840D02*
X162390Y408360D01*
X146410Y408360D01*
X146410Y415840D01*
X162390Y415840D01*
X162390Y409329D02*
X146410Y409329D01*
X146410Y410298D02*
X162390Y410298D01*
X162390Y411267D02*
X146410Y411267D01*
X146410Y412236D02*
X162390Y412236D01*
X162390Y413205D02*
X146410Y413205D01*
X146410Y414174D02*
X162390Y414174D01*
X162390Y415143D02*
X146410Y415143D01*
X192390Y395840D02*
X192390Y388360D01*
X176410Y388360D01*
X176410Y395840D01*
X192390Y395840D01*
X192390Y389329D02*
X176410Y389329D01*
X176410Y390298D02*
X192390Y390298D01*
X192390Y391267D02*
X176410Y391267D01*
X176410Y392236D02*
X192390Y392236D01*
X192390Y393205D02*
X176410Y393205D01*
X176410Y394174D02*
X192390Y394174D01*
X192390Y395143D02*
X176410Y395143D01*
X162390Y375840D02*
X162390Y368360D01*
X146410Y368360D01*
X146410Y375840D01*
X162390Y375840D01*
X162390Y369329D02*
X146410Y369329D01*
X146410Y370298D02*
X162390Y370298D01*
X162390Y371267D02*
X146410Y371267D01*
X146410Y372236D02*
X162390Y372236D01*
X162390Y373205D02*
X146410Y373205D01*
X146410Y374174D02*
X162390Y374174D01*
X162390Y375143D02*
X146410Y375143D01*
X192390Y355840D02*
X192390Y348360D01*
X176410Y348360D01*
X176410Y355840D01*
X192390Y355840D01*
X192390Y349329D02*
X176410Y349329D01*
X176410Y350298D02*
X192390Y350298D01*
X192390Y351267D02*
X176410Y351267D01*
X176410Y352236D02*
X192390Y352236D01*
X192390Y353205D02*
X176410Y353205D01*
X176410Y354174D02*
X192390Y354174D01*
X192390Y355143D02*
X176410Y355143D01*
X162390Y335840D02*
X162390Y328360D01*
X146410Y328360D01*
X146410Y335840D01*
X162390Y335840D01*
X162390Y329329D02*
X146410Y329329D01*
X146410Y330298D02*
X162390Y330298D01*
X162390Y331267D02*
X146410Y331267D01*
X146410Y332236D02*
X162390Y332236D01*
X162390Y333205D02*
X146410Y333205D01*
X146410Y334174D02*
X162390Y334174D01*
X162390Y335143D02*
X146410Y335143D01*
X192390Y315840D02*
X192390Y308360D01*
X176410Y308360D01*
X176410Y315840D01*
X192390Y315840D01*
X192390Y309329D02*
X176410Y309329D01*
X176410Y310298D02*
X192390Y310298D01*
X192390Y311267D02*
X176410Y311267D01*
X176410Y312236D02*
X192390Y312236D01*
X192390Y313205D02*
X176410Y313205D01*
X176410Y314174D02*
X192390Y314174D01*
X192390Y315143D02*
X176410Y315143D01*
X412390Y315840D02*
X412390Y308360D01*
X396410Y308360D01*
X396410Y315840D01*
X412390Y315840D01*
X412390Y309329D02*
X396410Y309329D01*
X396410Y310298D02*
X412390Y310298D01*
X412390Y311267D02*
X396410Y311267D01*
X396410Y312236D02*
X412390Y312236D01*
X412390Y313205D02*
X396410Y313205D01*
X396410Y314174D02*
X412390Y314174D01*
X412390Y315143D02*
X396410Y315143D01*
X382390Y328360D02*
X382390Y335840D01*
X382390Y328360D02*
X366410Y328360D01*
X366410Y335840D01*
X382390Y335840D01*
X382390Y329329D02*
X366410Y329329D01*
X366410Y330298D02*
X382390Y330298D01*
X382390Y331267D02*
X366410Y331267D01*
X366410Y332236D02*
X382390Y332236D01*
X382390Y333205D02*
X366410Y333205D01*
X366410Y334174D02*
X382390Y334174D01*
X382390Y335143D02*
X366410Y335143D01*
X412390Y348360D02*
X412390Y355840D01*
X412390Y348360D02*
X396410Y348360D01*
X396410Y355840D01*
X412390Y355840D01*
X412390Y349329D02*
X396410Y349329D01*
X396410Y350298D02*
X412390Y350298D01*
X412390Y351267D02*
X396410Y351267D01*
X396410Y352236D02*
X412390Y352236D01*
X412390Y353205D02*
X396410Y353205D01*
X396410Y354174D02*
X412390Y354174D01*
X412390Y355143D02*
X396410Y355143D01*
X382390Y368360D02*
X382390Y375840D01*
X382390Y368360D02*
X366410Y368360D01*
X366410Y375840D01*
X382390Y375840D01*
X382390Y369329D02*
X366410Y369329D01*
X366410Y370298D02*
X382390Y370298D01*
X382390Y371267D02*
X366410Y371267D01*
X366410Y372236D02*
X382390Y372236D01*
X382390Y373205D02*
X366410Y373205D01*
X366410Y374174D02*
X382390Y374174D01*
X382390Y375143D02*
X366410Y375143D01*
X412390Y388360D02*
X412390Y395840D01*
X412390Y388360D02*
X396410Y388360D01*
X396410Y395840D01*
X412390Y395840D01*
X412390Y389329D02*
X396410Y389329D01*
X396410Y390298D02*
X412390Y390298D01*
X412390Y391267D02*
X396410Y391267D01*
X396410Y392236D02*
X412390Y392236D01*
X412390Y393205D02*
X396410Y393205D01*
X396410Y394174D02*
X412390Y394174D01*
X412390Y395143D02*
X396410Y395143D01*
X382390Y408360D02*
X382390Y415840D01*
X382390Y408360D02*
X366410Y408360D01*
X366410Y415840D01*
X382390Y415840D01*
X382390Y409329D02*
X366410Y409329D01*
X366410Y410298D02*
X382390Y410298D01*
X382390Y411267D02*
X366410Y411267D01*
X366410Y412236D02*
X382390Y412236D01*
X382390Y413205D02*
X366410Y413205D01*
X366410Y414174D02*
X382390Y414174D01*
X382390Y415143D02*
X366410Y415143D01*
X412390Y428360D02*
X412390Y435840D01*
X412390Y428360D02*
X396410Y428360D01*
X396410Y435840D01*
X412390Y435840D01*
X412390Y429329D02*
X396410Y429329D01*
X396410Y430298D02*
X412390Y430298D01*
X412390Y431267D02*
X396410Y431267D01*
X396410Y432236D02*
X412390Y432236D01*
X412390Y433205D02*
X396410Y433205D01*
X396410Y434174D02*
X412390Y434174D01*
X412390Y435143D02*
X396410Y435143D01*
X382390Y448360D02*
X382390Y455840D01*
X382390Y448360D02*
X366410Y448360D01*
X366410Y455840D01*
X382390Y455840D01*
X382390Y449329D02*
X366410Y449329D01*
X366410Y450298D02*
X382390Y450298D01*
X382390Y451267D02*
X366410Y451267D01*
X366410Y452236D02*
X382390Y452236D01*
X382390Y453205D02*
X366410Y453205D01*
X366410Y454174D02*
X382390Y454174D01*
X382390Y455143D02*
X366410Y455143D01*
X412390Y468360D02*
X412390Y475840D01*
X412390Y468360D02*
X396410Y468360D01*
X396410Y475840D01*
X412390Y475840D01*
X412390Y469329D02*
X396410Y469329D01*
X396410Y470298D02*
X412390Y470298D01*
X412390Y471267D02*
X396410Y471267D01*
X396410Y472236D02*
X412390Y472236D01*
X412390Y473205D02*
X396410Y473205D01*
X396410Y474174D02*
X412390Y474174D01*
X412390Y475143D02*
X396410Y475143D01*
X382390Y488360D02*
X382390Y495840D01*
X382390Y488360D02*
X366410Y488360D01*
X366410Y495840D01*
X382390Y495840D01*
X382390Y489329D02*
X366410Y489329D01*
X366410Y490298D02*
X382390Y490298D01*
X382390Y491267D02*
X366410Y491267D01*
X366410Y492236D02*
X382390Y492236D01*
X382390Y493205D02*
X366410Y493205D01*
X366410Y494174D02*
X382390Y494174D01*
X382390Y495143D02*
X366410Y495143D01*
D12*
X131390Y417360D02*
X131390Y407360D01*
X131390Y417360D02*
X140390Y417360D01*
X140390Y407360D01*
X131390Y407360D01*
X131390Y408310D02*
X140390Y408310D01*
X140390Y409260D02*
X131390Y409260D01*
X131390Y410210D02*
X140390Y410210D01*
X140390Y411160D02*
X131390Y411160D01*
X131390Y412110D02*
X140390Y412110D01*
X140390Y413060D02*
X131390Y413060D01*
X131390Y414010D02*
X140390Y414010D01*
X140390Y414960D02*
X131390Y414960D01*
X131390Y415910D02*
X140390Y415910D01*
X140390Y416860D02*
X131390Y416860D01*
X131390Y400360D02*
X131390Y390360D01*
X131390Y400360D02*
X140390Y400360D01*
X140390Y390360D01*
X131390Y390360D01*
X131390Y391310D02*
X140390Y391310D01*
X140390Y392260D02*
X131390Y392260D01*
X131390Y393210D02*
X140390Y393210D01*
X140390Y394160D02*
X131390Y394160D01*
X131390Y395110D02*
X140390Y395110D01*
X140390Y396060D02*
X131390Y396060D01*
X131390Y397010D02*
X140390Y397010D01*
X140390Y397960D02*
X131390Y397960D01*
X131390Y398910D02*
X140390Y398910D01*
X140390Y399860D02*
X131390Y399860D01*
X95322Y486100D02*
X95322Y496100D01*
X104322Y496100D01*
X104322Y486100D01*
X95322Y486100D01*
X95322Y487050D02*
X104322Y487050D01*
X104322Y488000D02*
X95322Y488000D01*
X95322Y488950D02*
X104322Y488950D01*
X104322Y489900D02*
X95322Y489900D01*
X95322Y490850D02*
X104322Y490850D01*
X104322Y491800D02*
X95322Y491800D01*
X95322Y492750D02*
X104322Y492750D01*
X104322Y493700D02*
X95322Y493700D01*
X95322Y494650D02*
X104322Y494650D01*
X104322Y495600D02*
X95322Y495600D01*
X95322Y479100D02*
X95322Y469100D01*
X95322Y479100D02*
X104322Y479100D01*
X104322Y469100D01*
X95322Y469100D01*
X95322Y470050D02*
X104322Y470050D01*
X104322Y471000D02*
X95322Y471000D01*
X95322Y471950D02*
X104322Y471950D01*
X104322Y472900D02*
X95322Y472900D01*
X95322Y473850D02*
X104322Y473850D01*
X104322Y474800D02*
X95322Y474800D01*
X95322Y475750D02*
X104322Y475750D01*
X104322Y476700D02*
X95322Y476700D01*
X95322Y477650D02*
X104322Y477650D01*
X104322Y478600D02*
X95322Y478600D01*
X110308Y486100D02*
X110308Y496100D01*
X119308Y496100D01*
X119308Y486100D01*
X110308Y486100D01*
X110308Y487050D02*
X119308Y487050D01*
X119308Y488000D02*
X110308Y488000D01*
X110308Y488950D02*
X119308Y488950D01*
X119308Y489900D02*
X110308Y489900D01*
X110308Y490850D02*
X119308Y490850D01*
X119308Y491800D02*
X110308Y491800D01*
X110308Y492750D02*
X119308Y492750D01*
X119308Y493700D02*
X110308Y493700D01*
X110308Y494650D02*
X119308Y494650D01*
X119308Y495600D02*
X110308Y495600D01*
X110308Y479100D02*
X110308Y469100D01*
X110308Y479100D02*
X119308Y479100D01*
X119308Y469100D01*
X110308Y469100D01*
X110308Y470050D02*
X119308Y470050D01*
X119308Y471000D02*
X110308Y471000D01*
X110308Y471950D02*
X119308Y471950D01*
X119308Y472900D02*
X110308Y472900D01*
X110308Y473850D02*
X119308Y473850D01*
X119308Y474800D02*
X110308Y474800D01*
X110308Y475750D02*
X119308Y475750D01*
X119308Y476700D02*
X110308Y476700D01*
X110308Y477650D02*
X119308Y477650D01*
X119308Y478600D02*
X110308Y478600D01*
X125040Y486100D02*
X125040Y496100D01*
X134040Y496100D01*
X134040Y486100D01*
X125040Y486100D01*
X125040Y487050D02*
X134040Y487050D01*
X134040Y488000D02*
X125040Y488000D01*
X125040Y488950D02*
X134040Y488950D01*
X134040Y489900D02*
X125040Y489900D01*
X125040Y490850D02*
X134040Y490850D01*
X134040Y491800D02*
X125040Y491800D01*
X125040Y492750D02*
X134040Y492750D01*
X134040Y493700D02*
X125040Y493700D01*
X125040Y494650D02*
X134040Y494650D01*
X134040Y495600D02*
X125040Y495600D01*
X125040Y479100D02*
X125040Y469100D01*
X125040Y479100D02*
X134040Y479100D01*
X134040Y469100D01*
X125040Y469100D01*
X125040Y470050D02*
X134040Y470050D01*
X134040Y471000D02*
X125040Y471000D01*
X125040Y471950D02*
X134040Y471950D01*
X134040Y472900D02*
X125040Y472900D01*
X125040Y473850D02*
X134040Y473850D01*
X134040Y474800D02*
X125040Y474800D01*
X125040Y475750D02*
X134040Y475750D01*
X134040Y476700D02*
X125040Y476700D01*
X125040Y477650D02*
X134040Y477650D01*
X134040Y478600D02*
X125040Y478600D01*
D14*
X513270Y130500D02*
X513270Y123500D01*
X513270Y130500D02*
X520270Y130500D01*
X520270Y123500D01*
X513270Y123500D01*
X513270Y126350D02*
X520270Y126350D01*
X520270Y129200D02*
X513270Y129200D01*
X495730Y130500D02*
X495730Y123500D01*
X495730Y130500D02*
X502730Y130500D01*
X502730Y123500D01*
X495730Y123500D01*
X495730Y126350D02*
X502730Y126350D01*
X502730Y129200D02*
X495730Y129200D01*
D12*
X466908Y112340D02*
X456908Y112340D01*
X456908Y121340D01*
X466908Y121340D01*
X466908Y112340D01*
X466908Y113290D02*
X456908Y113290D01*
X456908Y114240D02*
X466908Y114240D01*
X466908Y115190D02*
X456908Y115190D01*
X456908Y116140D02*
X466908Y116140D01*
X466908Y117090D02*
X456908Y117090D01*
X456908Y118040D02*
X466908Y118040D01*
X466908Y118990D02*
X456908Y118990D01*
X456908Y119940D02*
X466908Y119940D01*
X466908Y120890D02*
X456908Y120890D01*
X473908Y112340D02*
X483908Y112340D01*
X473908Y112340D02*
X473908Y121340D01*
X483908Y121340D01*
X483908Y112340D01*
X483908Y113290D02*
X473908Y113290D01*
X473908Y114240D02*
X483908Y114240D01*
X483908Y115190D02*
X473908Y115190D01*
X473908Y116140D02*
X483908Y116140D01*
X483908Y117090D02*
X473908Y117090D01*
X473908Y118040D02*
X483908Y118040D01*
X483908Y118990D02*
X473908Y118990D01*
X473908Y119940D02*
X483908Y119940D01*
X483908Y120890D02*
X473908Y120890D01*
D11*
X351390Y55610D02*
X349410Y55610D01*
X349410Y64590D01*
X351390Y64590D01*
X351390Y55610D01*
X351390Y56579D02*
X349410Y56579D01*
X349410Y57548D02*
X351390Y57548D01*
X351390Y58517D02*
X349410Y58517D01*
X349410Y59486D02*
X351390Y59486D01*
X351390Y60455D02*
X349410Y60455D01*
X349410Y61424D02*
X351390Y61424D01*
X351390Y62393D02*
X349410Y62393D01*
X349410Y63362D02*
X351390Y63362D01*
X351390Y64331D02*
X349410Y64331D01*
X346390Y55610D02*
X344410Y55610D01*
X344410Y64590D01*
X346390Y64590D01*
X346390Y55610D01*
X346390Y56579D02*
X344410Y56579D01*
X344410Y57548D02*
X346390Y57548D01*
X346390Y58517D02*
X344410Y58517D01*
X344410Y59486D02*
X346390Y59486D01*
X346390Y60455D02*
X344410Y60455D01*
X344410Y61424D02*
X346390Y61424D01*
X346390Y62393D02*
X344410Y62393D01*
X344410Y63362D02*
X346390Y63362D01*
X346390Y64331D02*
X344410Y64331D01*
X372660Y55610D02*
X377640Y55610D01*
X372660Y55610D02*
X372660Y64590D01*
X377640Y64590D01*
X377640Y55610D01*
X377640Y56579D02*
X372660Y56579D01*
X372660Y57548D02*
X377640Y57548D01*
X377640Y58517D02*
X372660Y58517D01*
X372660Y59486D02*
X377640Y59486D01*
X377640Y60455D02*
X372660Y60455D01*
X372660Y61424D02*
X377640Y61424D01*
X377640Y62393D02*
X372660Y62393D01*
X372660Y63362D02*
X377640Y63362D01*
X377640Y64331D02*
X372660Y64331D01*
X369890Y55610D02*
X364910Y55610D01*
X364910Y64590D01*
X369890Y64590D01*
X369890Y55610D01*
X369890Y56579D02*
X364910Y56579D01*
X364910Y57548D02*
X369890Y57548D01*
X369890Y58517D02*
X364910Y58517D01*
X364910Y59486D02*
X369890Y59486D01*
X369890Y60455D02*
X364910Y60455D01*
X364910Y61424D02*
X369890Y61424D01*
X369890Y62393D02*
X364910Y62393D01*
X364910Y63362D02*
X369890Y63362D01*
X369890Y64331D02*
X364910Y64331D01*
X361390Y55610D02*
X359410Y55610D01*
X359410Y64590D01*
X361390Y64590D01*
X361390Y55610D01*
X361390Y56579D02*
X359410Y56579D01*
X359410Y57548D02*
X361390Y57548D01*
X361390Y58517D02*
X359410Y58517D01*
X359410Y59486D02*
X361390Y59486D01*
X361390Y60455D02*
X359410Y60455D01*
X359410Y61424D02*
X361390Y61424D01*
X361390Y62393D02*
X359410Y62393D01*
X359410Y63362D02*
X361390Y63362D01*
X361390Y64331D02*
X359410Y64331D01*
X356390Y55610D02*
X354410Y55610D01*
X354410Y64590D01*
X356390Y64590D01*
X356390Y55610D01*
X356390Y56579D02*
X354410Y56579D01*
X354410Y57548D02*
X356390Y57548D01*
X356390Y58517D02*
X354410Y58517D01*
X354410Y59486D02*
X356390Y59486D01*
X356390Y60455D02*
X354410Y60455D01*
X354410Y61424D02*
X356390Y61424D01*
X356390Y62393D02*
X354410Y62393D01*
X354410Y63362D02*
X356390Y63362D01*
X356390Y64331D02*
X354410Y64331D01*
X336390Y64590D02*
X334410Y64590D01*
X336390Y64590D02*
X336390Y55610D01*
X334410Y55610D01*
X334410Y64590D01*
X334410Y56579D02*
X336390Y56579D01*
X336390Y57548D02*
X334410Y57548D01*
X334410Y58517D02*
X336390Y58517D01*
X336390Y59486D02*
X334410Y59486D01*
X334410Y60455D02*
X336390Y60455D01*
X336390Y61424D02*
X334410Y61424D01*
X334410Y62393D02*
X336390Y62393D01*
X336390Y63362D02*
X334410Y63362D01*
X334410Y64331D02*
X336390Y64331D01*
X339410Y64590D02*
X341390Y64590D01*
X341390Y55610D01*
X339410Y55610D01*
X339410Y64590D01*
X339410Y56579D02*
X341390Y56579D01*
X341390Y57548D02*
X339410Y57548D01*
X339410Y58517D02*
X341390Y58517D01*
X341390Y59486D02*
X339410Y59486D01*
X339410Y60455D02*
X341390Y60455D01*
X341390Y61424D02*
X339410Y61424D01*
X339410Y62393D02*
X341390Y62393D01*
X341390Y63362D02*
X339410Y63362D01*
X339410Y64331D02*
X341390Y64331D01*
X313140Y64590D02*
X308160Y64590D01*
X313140Y64590D02*
X313140Y55610D01*
X308160Y55610D01*
X308160Y64590D01*
X308160Y56579D02*
X313140Y56579D01*
X313140Y57548D02*
X308160Y57548D01*
X308160Y58517D02*
X313140Y58517D01*
X313140Y59486D02*
X308160Y59486D01*
X308160Y60455D02*
X313140Y60455D01*
X313140Y61424D02*
X308160Y61424D01*
X308160Y62393D02*
X313140Y62393D01*
X313140Y63362D02*
X308160Y63362D01*
X308160Y64331D02*
X313140Y64331D01*
X315910Y64590D02*
X320890Y64590D01*
X320890Y55610D01*
X315910Y55610D01*
X315910Y64590D01*
X315910Y56579D02*
X320890Y56579D01*
X320890Y57548D02*
X315910Y57548D01*
X315910Y58517D02*
X320890Y58517D01*
X320890Y59486D02*
X315910Y59486D01*
X315910Y60455D02*
X320890Y60455D01*
X320890Y61424D02*
X315910Y61424D01*
X315910Y62393D02*
X320890Y62393D01*
X320890Y63362D02*
X315910Y63362D01*
X315910Y64331D02*
X320890Y64331D01*
X324410Y64590D02*
X326390Y64590D01*
X326390Y55610D01*
X324410Y55610D01*
X324410Y64590D01*
X324410Y56579D02*
X326390Y56579D01*
X326390Y57548D02*
X324410Y57548D01*
X324410Y58517D02*
X326390Y58517D01*
X326390Y59486D02*
X324410Y59486D01*
X324410Y60455D02*
X326390Y60455D01*
X326390Y61424D02*
X324410Y61424D01*
X324410Y62393D02*
X326390Y62393D01*
X326390Y63362D02*
X324410Y63362D01*
X324410Y64331D02*
X326390Y64331D01*
X329410Y64590D02*
X331390Y64590D01*
X331390Y55610D01*
X329410Y55610D01*
X329410Y64590D01*
X329410Y56579D02*
X331390Y56579D01*
X331390Y57548D02*
X329410Y57548D01*
X329410Y58517D02*
X331390Y58517D01*
X331390Y59486D02*
X329410Y59486D01*
X329410Y60455D02*
X331390Y60455D01*
X331390Y61424D02*
X329410Y61424D01*
X329410Y62393D02*
X331390Y62393D01*
X331390Y63362D02*
X329410Y63362D01*
X329410Y64331D02*
X331390Y64331D01*
D12*
X417520Y89590D02*
X427520Y89590D01*
X427520Y80590D01*
X417520Y80590D01*
X417520Y89590D01*
X417520Y81540D02*
X427520Y81540D01*
X427520Y82490D02*
X417520Y82490D01*
X417520Y83440D02*
X427520Y83440D01*
X427520Y84390D02*
X417520Y84390D01*
X417520Y85340D02*
X427520Y85340D01*
X427520Y86290D02*
X417520Y86290D01*
X417520Y87240D02*
X427520Y87240D01*
X427520Y88190D02*
X417520Y88190D01*
X417520Y89140D02*
X427520Y89140D01*
X410520Y89590D02*
X400520Y89590D01*
X410520Y89590D02*
X410520Y80590D01*
X400520Y80590D01*
X400520Y89590D01*
X400520Y81540D02*
X410520Y81540D01*
X410520Y82490D02*
X400520Y82490D01*
X400520Y83440D02*
X410520Y83440D01*
X410520Y84390D02*
X400520Y84390D01*
X400520Y85340D02*
X410520Y85340D01*
X410520Y86290D02*
X400520Y86290D01*
X400520Y87240D02*
X410520Y87240D01*
X410520Y88190D02*
X400520Y88190D01*
X400520Y89140D02*
X410520Y89140D01*
X417520Y74350D02*
X427520Y74350D01*
X427520Y65350D01*
X417520Y65350D01*
X417520Y74350D01*
X417520Y66300D02*
X427520Y66300D01*
X427520Y67250D02*
X417520Y67250D01*
X417520Y68200D02*
X427520Y68200D01*
X427520Y69150D02*
X417520Y69150D01*
X417520Y70100D02*
X427520Y70100D01*
X427520Y71050D02*
X417520Y71050D01*
X417520Y72000D02*
X427520Y72000D01*
X427520Y72950D02*
X417520Y72950D01*
X417520Y73900D02*
X427520Y73900D01*
X410520Y74350D02*
X400520Y74350D01*
X410520Y74350D02*
X410520Y65350D01*
X400520Y65350D01*
X400520Y74350D01*
X400520Y66300D02*
X410520Y66300D01*
X410520Y67250D02*
X400520Y67250D01*
X400520Y68200D02*
X410520Y68200D01*
X410520Y69150D02*
X400520Y69150D01*
X400520Y70100D02*
X410520Y70100D01*
X410520Y71050D02*
X400520Y71050D01*
X400520Y72000D02*
X410520Y72000D01*
X410520Y72950D02*
X400520Y72950D01*
X400520Y73900D02*
X410520Y73900D01*
D15*
X354655Y121606D02*
X350145Y121606D01*
X354655Y121606D02*
X354655Y109096D01*
X350145Y109096D01*
X350145Y121606D01*
X350145Y110036D02*
X354655Y110036D01*
X354655Y110976D02*
X350145Y110976D01*
X350145Y111916D02*
X354655Y111916D01*
X354655Y112856D02*
X350145Y112856D01*
X350145Y113796D02*
X354655Y113796D01*
X354655Y114736D02*
X350145Y114736D01*
X350145Y115676D02*
X354655Y115676D01*
X354655Y116616D02*
X350145Y116616D01*
X350145Y117556D02*
X354655Y117556D01*
X354655Y118496D02*
X350145Y118496D01*
X350145Y119436D02*
X354655Y119436D01*
X354655Y120376D02*
X350145Y120376D01*
X350145Y121316D02*
X354655Y121316D01*
X345155Y121606D02*
X340645Y121606D01*
X345155Y121606D02*
X345155Y109096D01*
X340645Y109096D01*
X340645Y121606D01*
X340645Y110036D02*
X345155Y110036D01*
X345155Y110976D02*
X340645Y110976D01*
X340645Y111916D02*
X345155Y111916D01*
X345155Y112856D02*
X340645Y112856D01*
X340645Y113796D02*
X345155Y113796D01*
X345155Y114736D02*
X340645Y114736D01*
X340645Y115676D02*
X345155Y115676D01*
X345155Y116616D02*
X340645Y116616D01*
X340645Y117556D02*
X345155Y117556D01*
X345155Y118496D02*
X340645Y118496D01*
X340645Y119436D02*
X345155Y119436D01*
X345155Y120376D02*
X340645Y120376D01*
X340645Y121316D02*
X345155Y121316D01*
X335655Y121606D02*
X331145Y121606D01*
X335655Y121606D02*
X335655Y109096D01*
X331145Y109096D01*
X331145Y121606D01*
X331145Y110036D02*
X335655Y110036D01*
X335655Y110976D02*
X331145Y110976D01*
X331145Y111916D02*
X335655Y111916D01*
X335655Y112856D02*
X331145Y112856D01*
X331145Y113796D02*
X335655Y113796D01*
X335655Y114736D02*
X331145Y114736D01*
X331145Y115676D02*
X335655Y115676D01*
X335655Y116616D02*
X331145Y116616D01*
X331145Y117556D02*
X335655Y117556D01*
X335655Y118496D02*
X331145Y118496D01*
X331145Y119436D02*
X335655Y119436D01*
X335655Y120376D02*
X331145Y120376D01*
X331145Y121316D02*
X335655Y121316D01*
X335655Y94104D02*
X331145Y94104D01*
X335655Y94104D02*
X335655Y81594D01*
X331145Y81594D01*
X331145Y94104D01*
X331145Y82534D02*
X335655Y82534D01*
X335655Y83474D02*
X331145Y83474D01*
X331145Y84414D02*
X335655Y84414D01*
X335655Y85354D02*
X331145Y85354D01*
X331145Y86294D02*
X335655Y86294D01*
X335655Y87234D02*
X331145Y87234D01*
X331145Y88174D02*
X335655Y88174D01*
X335655Y89114D02*
X331145Y89114D01*
X331145Y90054D02*
X335655Y90054D01*
X335655Y90994D02*
X331145Y90994D01*
X331145Y91934D02*
X335655Y91934D01*
X335655Y92874D02*
X331145Y92874D01*
X331145Y93814D02*
X335655Y93814D01*
X340645Y94104D02*
X345155Y94104D01*
X345155Y81594D01*
X340645Y81594D01*
X340645Y94104D01*
X340645Y82534D02*
X345155Y82534D01*
X345155Y83474D02*
X340645Y83474D01*
X340645Y84414D02*
X345155Y84414D01*
X345155Y85354D02*
X340645Y85354D01*
X340645Y86294D02*
X345155Y86294D01*
X345155Y87234D02*
X340645Y87234D01*
X340645Y88174D02*
X345155Y88174D01*
X345155Y89114D02*
X340645Y89114D01*
X340645Y90054D02*
X345155Y90054D01*
X345155Y90994D02*
X340645Y90994D01*
X340645Y91934D02*
X345155Y91934D01*
X345155Y92874D02*
X340645Y92874D01*
X340645Y93814D02*
X345155Y93814D01*
X350145Y94104D02*
X354655Y94104D01*
X354655Y81594D01*
X350145Y81594D01*
X350145Y94104D01*
X350145Y82534D02*
X354655Y82534D01*
X354655Y83474D02*
X350145Y83474D01*
X350145Y84414D02*
X354655Y84414D01*
X354655Y85354D02*
X350145Y85354D01*
X350145Y86294D02*
X354655Y86294D01*
X354655Y87234D02*
X350145Y87234D01*
X350145Y88174D02*
X354655Y88174D01*
X354655Y89114D02*
X350145Y89114D01*
X350145Y90054D02*
X354655Y90054D01*
X354655Y90994D02*
X350145Y90994D01*
X350145Y91934D02*
X354655Y91934D01*
X354655Y92874D02*
X350145Y92874D01*
X350145Y93814D02*
X354655Y93814D01*
D17*
X200425Y155100D03*
X200425Y160100D03*
X200425Y165100D03*
X200425Y170100D03*
X200425Y175100D03*
X155175Y175100D03*
X155175Y170100D03*
X155175Y165100D03*
X155175Y160100D03*
X155175Y155100D03*
D12*
X124600Y161000D02*
X124600Y170000D01*
X135100Y170000D01*
X135100Y161000D01*
X124600Y161000D01*
X124600Y161950D02*
X135100Y161950D01*
X135100Y162900D02*
X124600Y162900D01*
X124600Y163850D02*
X135100Y163850D01*
X135100Y164800D02*
X124600Y164800D01*
X124600Y165750D02*
X135100Y165750D01*
X135100Y166700D02*
X124600Y166700D01*
X124600Y167650D02*
X135100Y167650D01*
X135100Y168600D02*
X124600Y168600D01*
X124600Y169550D02*
X135100Y169550D01*
X124600Y186000D02*
X124600Y195000D01*
X135100Y195000D01*
X135100Y186000D01*
X124600Y186000D01*
X124600Y186950D02*
X135100Y186950D01*
X135100Y187900D02*
X124600Y187900D01*
X124600Y188850D02*
X135100Y188850D01*
X135100Y189800D02*
X124600Y189800D01*
X124600Y190750D02*
X135100Y190750D01*
X135100Y191700D02*
X124600Y191700D01*
X124600Y192650D02*
X135100Y192650D01*
X135100Y193600D02*
X124600Y193600D01*
X124600Y194550D02*
X135100Y194550D01*
X124600Y211000D02*
X124600Y220000D01*
X135100Y220000D01*
X135100Y211000D01*
X124600Y211000D01*
X124600Y211950D02*
X135100Y211950D01*
X135100Y212900D02*
X124600Y212900D01*
X124600Y213850D02*
X135100Y213850D01*
X135100Y214800D02*
X124600Y214800D01*
X124600Y215750D02*
X135100Y215750D01*
X135100Y216700D02*
X124600Y216700D01*
X124600Y217650D02*
X135100Y217650D01*
X135100Y218600D02*
X124600Y218600D01*
X124600Y219550D02*
X135100Y219550D01*
X68100Y170000D02*
X68100Y161000D01*
X68100Y170000D02*
X78600Y170000D01*
X78600Y161000D01*
X68100Y161000D01*
X68100Y161950D02*
X78600Y161950D01*
X78600Y162900D02*
X68100Y162900D01*
X68100Y163850D02*
X78600Y163850D01*
X78600Y164800D02*
X68100Y164800D01*
X68100Y165750D02*
X78600Y165750D01*
X78600Y166700D02*
X68100Y166700D01*
X68100Y167650D02*
X78600Y167650D01*
X78600Y168600D02*
X68100Y168600D01*
X68100Y169550D02*
X78600Y169550D01*
X68100Y186000D02*
X68100Y195000D01*
X78600Y195000D01*
X78600Y186000D01*
X68100Y186000D01*
X68100Y186950D02*
X78600Y186950D01*
X78600Y187900D02*
X68100Y187900D01*
X68100Y188850D02*
X78600Y188850D01*
X78600Y189800D02*
X68100Y189800D01*
X68100Y190750D02*
X78600Y190750D01*
X78600Y191700D02*
X68100Y191700D01*
X68100Y192650D02*
X78600Y192650D01*
X78600Y193600D02*
X68100Y193600D01*
X68100Y194550D02*
X78600Y194550D01*
X68100Y211000D02*
X68100Y220000D01*
X78600Y220000D01*
X78600Y211000D01*
X68100Y211000D01*
X68100Y211950D02*
X78600Y211950D01*
X78600Y212900D02*
X68100Y212900D01*
X68100Y213850D02*
X78600Y213850D01*
X78600Y214800D02*
X68100Y214800D01*
X68100Y215750D02*
X78600Y215750D01*
X78600Y216700D02*
X68100Y216700D01*
X68100Y217650D02*
X78600Y217650D01*
X78600Y218600D02*
X68100Y218600D01*
X68100Y219550D02*
X78600Y219550D01*
X124786Y245054D02*
X124786Y255054D01*
X133786Y255054D01*
X133786Y245054D01*
X124786Y245054D01*
X124786Y246004D02*
X133786Y246004D01*
X133786Y246954D02*
X124786Y246954D01*
X124786Y247904D02*
X133786Y247904D01*
X133786Y248854D02*
X124786Y248854D01*
X124786Y249804D02*
X133786Y249804D01*
X133786Y250754D02*
X124786Y250754D01*
X124786Y251704D02*
X133786Y251704D01*
X133786Y252654D02*
X124786Y252654D01*
X124786Y253604D02*
X133786Y253604D01*
X133786Y254554D02*
X124786Y254554D01*
X124786Y238054D02*
X124786Y228054D01*
X124786Y238054D02*
X133786Y238054D01*
X133786Y228054D01*
X124786Y228054D01*
X124786Y229004D02*
X133786Y229004D01*
X133786Y229954D02*
X124786Y229954D01*
X124786Y230904D02*
X133786Y230904D01*
X133786Y231854D02*
X124786Y231854D01*
X124786Y232804D02*
X133786Y232804D01*
X133786Y233754D02*
X124786Y233754D01*
X124786Y234704D02*
X133786Y234704D01*
X133786Y235654D02*
X124786Y235654D01*
X124786Y236604D02*
X133786Y236604D01*
X133786Y237554D02*
X124786Y237554D01*
D11*
X222410Y55610D02*
X224390Y55610D01*
X222410Y55610D02*
X222410Y64590D01*
X224390Y64590D01*
X224390Y55610D01*
X224390Y56579D02*
X222410Y56579D01*
X222410Y57548D02*
X224390Y57548D01*
X224390Y58517D02*
X222410Y58517D01*
X222410Y59486D02*
X224390Y59486D01*
X224390Y60455D02*
X222410Y60455D01*
X222410Y61424D02*
X224390Y61424D01*
X224390Y62393D02*
X222410Y62393D01*
X222410Y63362D02*
X224390Y63362D01*
X224390Y64331D02*
X222410Y64331D01*
X219390Y55610D02*
X217410Y55610D01*
X217410Y64590D01*
X219390Y64590D01*
X219390Y55610D01*
X219390Y56579D02*
X217410Y56579D01*
X217410Y57548D02*
X219390Y57548D01*
X219390Y58517D02*
X217410Y58517D01*
X217410Y59486D02*
X219390Y59486D01*
X219390Y60455D02*
X217410Y60455D01*
X217410Y61424D02*
X219390Y61424D01*
X219390Y62393D02*
X217410Y62393D01*
X217410Y63362D02*
X219390Y63362D01*
X219390Y64331D02*
X217410Y64331D01*
X245660Y55610D02*
X250640Y55610D01*
X245660Y55610D02*
X245660Y64590D01*
X250640Y64590D01*
X250640Y55610D01*
X250640Y56579D02*
X245660Y56579D01*
X245660Y57548D02*
X250640Y57548D01*
X250640Y58517D02*
X245660Y58517D01*
X245660Y59486D02*
X250640Y59486D01*
X250640Y60455D02*
X245660Y60455D01*
X245660Y61424D02*
X250640Y61424D01*
X250640Y62393D02*
X245660Y62393D01*
X245660Y63362D02*
X250640Y63362D01*
X250640Y64331D02*
X245660Y64331D01*
X242890Y55610D02*
X237910Y55610D01*
X237910Y64590D01*
X242890Y64590D01*
X242890Y55610D01*
X242890Y56579D02*
X237910Y56579D01*
X237910Y57548D02*
X242890Y57548D01*
X242890Y58517D02*
X237910Y58517D01*
X237910Y59486D02*
X242890Y59486D01*
X242890Y60455D02*
X237910Y60455D01*
X237910Y61424D02*
X242890Y61424D01*
X242890Y62393D02*
X237910Y62393D01*
X237910Y63362D02*
X242890Y63362D01*
X242890Y64331D02*
X237910Y64331D01*
X234390Y55610D02*
X232410Y55610D01*
X232410Y64590D01*
X234390Y64590D01*
X234390Y55610D01*
X234390Y56579D02*
X232410Y56579D01*
X232410Y57548D02*
X234390Y57548D01*
X234390Y58517D02*
X232410Y58517D01*
X232410Y59486D02*
X234390Y59486D01*
X234390Y60455D02*
X232410Y60455D01*
X232410Y61424D02*
X234390Y61424D01*
X234390Y62393D02*
X232410Y62393D01*
X232410Y63362D02*
X234390Y63362D01*
X234390Y64331D02*
X232410Y64331D01*
X229390Y55610D02*
X227410Y55610D01*
X227410Y64590D01*
X229390Y64590D01*
X229390Y55610D01*
X229390Y56579D02*
X227410Y56579D01*
X227410Y57548D02*
X229390Y57548D01*
X229390Y58517D02*
X227410Y58517D01*
X227410Y59486D02*
X229390Y59486D01*
X229390Y60455D02*
X227410Y60455D01*
X227410Y61424D02*
X229390Y61424D01*
X229390Y62393D02*
X227410Y62393D01*
X227410Y63362D02*
X229390Y63362D01*
X229390Y64331D02*
X227410Y64331D01*
X209390Y64590D02*
X207410Y64590D01*
X209390Y64590D02*
X209390Y55610D01*
X207410Y55610D01*
X207410Y64590D01*
X207410Y56579D02*
X209390Y56579D01*
X209390Y57548D02*
X207410Y57548D01*
X207410Y58517D02*
X209390Y58517D01*
X209390Y59486D02*
X207410Y59486D01*
X207410Y60455D02*
X209390Y60455D01*
X209390Y61424D02*
X207410Y61424D01*
X207410Y62393D02*
X209390Y62393D01*
X209390Y63362D02*
X207410Y63362D01*
X207410Y64331D02*
X209390Y64331D01*
X212410Y64590D02*
X214390Y64590D01*
X214390Y55610D01*
X212410Y55610D01*
X212410Y64590D01*
X212410Y56579D02*
X214390Y56579D01*
X214390Y57548D02*
X212410Y57548D01*
X212410Y58517D02*
X214390Y58517D01*
X214390Y59486D02*
X212410Y59486D01*
X212410Y60455D02*
X214390Y60455D01*
X214390Y61424D02*
X212410Y61424D01*
X212410Y62393D02*
X214390Y62393D01*
X214390Y63362D02*
X212410Y63362D01*
X212410Y64331D02*
X214390Y64331D01*
X186140Y64590D02*
X181160Y64590D01*
X186140Y64590D02*
X186140Y55610D01*
X181160Y55610D01*
X181160Y64590D01*
X181160Y56579D02*
X186140Y56579D01*
X186140Y57548D02*
X181160Y57548D01*
X181160Y58517D02*
X186140Y58517D01*
X186140Y59486D02*
X181160Y59486D01*
X181160Y60455D02*
X186140Y60455D01*
X186140Y61424D02*
X181160Y61424D01*
X181160Y62393D02*
X186140Y62393D01*
X186140Y63362D02*
X181160Y63362D01*
X181160Y64331D02*
X186140Y64331D01*
X188910Y64590D02*
X193890Y64590D01*
X193890Y55610D01*
X188910Y55610D01*
X188910Y64590D01*
X188910Y56579D02*
X193890Y56579D01*
X193890Y57548D02*
X188910Y57548D01*
X188910Y58517D02*
X193890Y58517D01*
X193890Y59486D02*
X188910Y59486D01*
X188910Y60455D02*
X193890Y60455D01*
X193890Y61424D02*
X188910Y61424D01*
X188910Y62393D02*
X193890Y62393D01*
X193890Y63362D02*
X188910Y63362D01*
X188910Y64331D02*
X193890Y64331D01*
X197410Y64590D02*
X199390Y64590D01*
X199390Y55610D01*
X197410Y55610D01*
X197410Y64590D01*
X197410Y56579D02*
X199390Y56579D01*
X199390Y57548D02*
X197410Y57548D01*
X197410Y58517D02*
X199390Y58517D01*
X199390Y59486D02*
X197410Y59486D01*
X197410Y60455D02*
X199390Y60455D01*
X199390Y61424D02*
X197410Y61424D01*
X197410Y62393D02*
X199390Y62393D01*
X199390Y63362D02*
X197410Y63362D01*
X197410Y64331D02*
X199390Y64331D01*
X202410Y64590D02*
X204390Y64590D01*
X204390Y55610D01*
X202410Y55610D01*
X202410Y64590D01*
X202410Y56579D02*
X204390Y56579D01*
X204390Y57548D02*
X202410Y57548D01*
X202410Y58517D02*
X204390Y58517D01*
X204390Y59486D02*
X202410Y59486D01*
X202410Y60455D02*
X204390Y60455D01*
X204390Y61424D02*
X202410Y61424D01*
X202410Y62393D02*
X204390Y62393D01*
X204390Y63362D02*
X202410Y63362D01*
X202410Y64331D02*
X204390Y64331D01*
D12*
X177110Y105100D02*
X177110Y115100D01*
X186110Y115100D01*
X186110Y105100D01*
X177110Y105100D01*
X177110Y106050D02*
X186110Y106050D01*
X186110Y107000D02*
X177110Y107000D01*
X177110Y107950D02*
X186110Y107950D01*
X186110Y108900D02*
X177110Y108900D01*
X177110Y109850D02*
X186110Y109850D01*
X186110Y110800D02*
X177110Y110800D01*
X177110Y111750D02*
X186110Y111750D01*
X186110Y112700D02*
X177110Y112700D01*
X177110Y113650D02*
X186110Y113650D01*
X186110Y114600D02*
X177110Y114600D01*
X177110Y98100D02*
X177110Y88100D01*
X177110Y98100D02*
X186110Y98100D01*
X186110Y88100D01*
X177110Y88100D01*
X177110Y89050D02*
X186110Y89050D01*
X186110Y90000D02*
X177110Y90000D01*
X177110Y90950D02*
X186110Y90950D01*
X186110Y91900D02*
X177110Y91900D01*
X177110Y92850D02*
X186110Y92850D01*
X186110Y93800D02*
X177110Y93800D01*
X177110Y94750D02*
X186110Y94750D01*
X186110Y95700D02*
X177110Y95700D01*
X177110Y96650D02*
X186110Y96650D01*
X186110Y97600D02*
X177110Y97600D01*
X236800Y105100D02*
X236800Y115100D01*
X245800Y115100D01*
X245800Y105100D01*
X236800Y105100D01*
X236800Y106050D02*
X245800Y106050D01*
X245800Y107000D02*
X236800Y107000D01*
X236800Y107950D02*
X245800Y107950D01*
X245800Y108900D02*
X236800Y108900D01*
X236800Y109850D02*
X245800Y109850D01*
X245800Y110800D02*
X236800Y110800D01*
X236800Y111750D02*
X245800Y111750D01*
X245800Y112700D02*
X236800Y112700D01*
X236800Y113650D02*
X245800Y113650D01*
X245800Y114600D02*
X236800Y114600D01*
X236800Y98100D02*
X236800Y88100D01*
X236800Y98100D02*
X245800Y98100D01*
X245800Y88100D01*
X236800Y88100D01*
X236800Y89050D02*
X245800Y89050D01*
X245800Y90000D02*
X236800Y90000D01*
X236800Y90950D02*
X245800Y90950D01*
X245800Y91900D02*
X236800Y91900D01*
X236800Y92850D02*
X245800Y92850D01*
X245800Y93800D02*
X236800Y93800D01*
X236800Y94750D02*
X245800Y94750D01*
X245800Y95700D02*
X236800Y95700D01*
X236800Y96650D02*
X245800Y96650D01*
X245800Y97600D02*
X236800Y97600D01*
D15*
X227655Y121606D02*
X223145Y121606D01*
X227655Y121606D02*
X227655Y109096D01*
X223145Y109096D01*
X223145Y121606D01*
X223145Y110036D02*
X227655Y110036D01*
X227655Y110976D02*
X223145Y110976D01*
X223145Y111916D02*
X227655Y111916D01*
X227655Y112856D02*
X223145Y112856D01*
X223145Y113796D02*
X227655Y113796D01*
X227655Y114736D02*
X223145Y114736D01*
X223145Y115676D02*
X227655Y115676D01*
X227655Y116616D02*
X223145Y116616D01*
X223145Y117556D02*
X227655Y117556D01*
X227655Y118496D02*
X223145Y118496D01*
X223145Y119436D02*
X227655Y119436D01*
X227655Y120376D02*
X223145Y120376D01*
X223145Y121316D02*
X227655Y121316D01*
X218155Y121606D02*
X213645Y121606D01*
X218155Y121606D02*
X218155Y109096D01*
X213645Y109096D01*
X213645Y121606D01*
X213645Y110036D02*
X218155Y110036D01*
X218155Y110976D02*
X213645Y110976D01*
X213645Y111916D02*
X218155Y111916D01*
X218155Y112856D02*
X213645Y112856D01*
X213645Y113796D02*
X218155Y113796D01*
X218155Y114736D02*
X213645Y114736D01*
X213645Y115676D02*
X218155Y115676D01*
X218155Y116616D02*
X213645Y116616D01*
X213645Y117556D02*
X218155Y117556D01*
X218155Y118496D02*
X213645Y118496D01*
X213645Y119436D02*
X218155Y119436D01*
X218155Y120376D02*
X213645Y120376D01*
X213645Y121316D02*
X218155Y121316D01*
X208655Y121606D02*
X204145Y121606D01*
X208655Y121606D02*
X208655Y109096D01*
X204145Y109096D01*
X204145Y121606D01*
X204145Y110036D02*
X208655Y110036D01*
X208655Y110976D02*
X204145Y110976D01*
X204145Y111916D02*
X208655Y111916D01*
X208655Y112856D02*
X204145Y112856D01*
X204145Y113796D02*
X208655Y113796D01*
X208655Y114736D02*
X204145Y114736D01*
X204145Y115676D02*
X208655Y115676D01*
X208655Y116616D02*
X204145Y116616D01*
X204145Y117556D02*
X208655Y117556D01*
X208655Y118496D02*
X204145Y118496D01*
X204145Y119436D02*
X208655Y119436D01*
X208655Y120376D02*
X204145Y120376D01*
X204145Y121316D02*
X208655Y121316D01*
X208655Y94104D02*
X204145Y94104D01*
X208655Y94104D02*
X208655Y81594D01*
X204145Y81594D01*
X204145Y94104D01*
X204145Y82534D02*
X208655Y82534D01*
X208655Y83474D02*
X204145Y83474D01*
X204145Y84414D02*
X208655Y84414D01*
X208655Y85354D02*
X204145Y85354D01*
X204145Y86294D02*
X208655Y86294D01*
X208655Y87234D02*
X204145Y87234D01*
X204145Y88174D02*
X208655Y88174D01*
X208655Y89114D02*
X204145Y89114D01*
X204145Y90054D02*
X208655Y90054D01*
X208655Y90994D02*
X204145Y90994D01*
X204145Y91934D02*
X208655Y91934D01*
X208655Y92874D02*
X204145Y92874D01*
X204145Y93814D02*
X208655Y93814D01*
X213645Y94104D02*
X218155Y94104D01*
X218155Y81594D01*
X213645Y81594D01*
X213645Y94104D01*
X213645Y82534D02*
X218155Y82534D01*
X218155Y83474D02*
X213645Y83474D01*
X213645Y84414D02*
X218155Y84414D01*
X218155Y85354D02*
X213645Y85354D01*
X213645Y86294D02*
X218155Y86294D01*
X218155Y87234D02*
X213645Y87234D01*
X213645Y88174D02*
X218155Y88174D01*
X218155Y89114D02*
X213645Y89114D01*
X213645Y90054D02*
X218155Y90054D01*
X218155Y90994D02*
X213645Y90994D01*
X213645Y91934D02*
X218155Y91934D01*
X218155Y92874D02*
X213645Y92874D01*
X213645Y93814D02*
X218155Y93814D01*
X223145Y94104D02*
X227655Y94104D01*
X227655Y81594D01*
X223145Y81594D01*
X223145Y94104D01*
X223145Y82534D02*
X227655Y82534D01*
X227655Y83474D02*
X223145Y83474D01*
X223145Y84414D02*
X227655Y84414D01*
X227655Y85354D02*
X223145Y85354D01*
X223145Y86294D02*
X227655Y86294D01*
X227655Y87234D02*
X223145Y87234D01*
X223145Y88174D02*
X227655Y88174D01*
X227655Y89114D02*
X223145Y89114D01*
X223145Y90054D02*
X227655Y90054D01*
X227655Y90994D02*
X223145Y90994D01*
X223145Y91934D02*
X227655Y91934D01*
X227655Y92874D02*
X223145Y92874D01*
X223145Y93814D02*
X227655Y93814D01*
D18*
X263054Y110454D02*
X263054Y115746D01*
X270346Y115746D01*
X270346Y110454D01*
X263054Y110454D01*
X263054Y111412D02*
X270346Y111412D01*
X270346Y112370D02*
X263054Y112370D01*
X263054Y113328D02*
X270346Y113328D01*
X270346Y114286D02*
X263054Y114286D01*
X263054Y115244D02*
X270346Y115244D01*
X263054Y92746D02*
X263054Y87454D01*
X263054Y92746D02*
X270346Y92746D01*
X270346Y87454D01*
X263054Y87454D01*
X263054Y88412D02*
X270346Y88412D01*
X270346Y89370D02*
X263054Y89370D01*
X263054Y90328D02*
X270346Y90328D01*
X270346Y91286D02*
X263054Y91286D01*
X263054Y92244D02*
X270346Y92244D01*
X288454Y110454D02*
X288454Y115746D01*
X295746Y115746D01*
X295746Y110454D01*
X288454Y110454D01*
X288454Y111412D02*
X295746Y111412D01*
X295746Y112370D02*
X288454Y112370D01*
X288454Y113328D02*
X295746Y113328D01*
X295746Y114286D02*
X288454Y114286D01*
X288454Y115244D02*
X295746Y115244D01*
X288454Y92746D02*
X288454Y87454D01*
X288454Y92746D02*
X295746Y92746D01*
X295746Y87454D01*
X288454Y87454D01*
X288454Y88412D02*
X295746Y88412D01*
X295746Y89370D02*
X288454Y89370D01*
X288454Y90328D02*
X295746Y90328D01*
X295746Y91286D02*
X288454Y91286D01*
X288454Y92244D02*
X295746Y92244D01*
D19*
X370084Y143504D02*
X372866Y143504D01*
X372866Y133102D01*
X370084Y133102D01*
X370084Y143504D01*
X370084Y134080D02*
X372866Y134080D01*
X372866Y135058D02*
X370084Y135058D01*
X370084Y136036D02*
X372866Y136036D01*
X372866Y137014D02*
X370084Y137014D01*
X370084Y137992D02*
X372866Y137992D01*
X372866Y138970D02*
X370084Y138970D01*
X370084Y139948D02*
X372866Y139948D01*
X372866Y140926D02*
X370084Y140926D01*
X370084Y141904D02*
X372866Y141904D01*
X372866Y142882D02*
X370084Y142882D01*
X366516Y143504D02*
X363734Y143504D01*
X366516Y143504D02*
X366516Y133102D01*
X363734Y133102D01*
X363734Y143504D01*
X363734Y134080D02*
X366516Y134080D01*
X366516Y135058D02*
X363734Y135058D01*
X363734Y136036D02*
X366516Y136036D01*
X366516Y137014D02*
X363734Y137014D01*
X363734Y137992D02*
X366516Y137992D01*
X366516Y138970D02*
X363734Y138970D01*
X363734Y139948D02*
X366516Y139948D01*
X366516Y140926D02*
X363734Y140926D01*
X363734Y141904D02*
X366516Y141904D01*
X366516Y142882D02*
X363734Y142882D01*
X360166Y143504D02*
X357384Y143504D01*
X360166Y143504D02*
X360166Y133102D01*
X357384Y133102D01*
X357384Y143504D01*
X357384Y134080D02*
X360166Y134080D01*
X360166Y135058D02*
X357384Y135058D01*
X357384Y136036D02*
X360166Y136036D01*
X360166Y137014D02*
X357384Y137014D01*
X357384Y137992D02*
X360166Y137992D01*
X360166Y138970D02*
X357384Y138970D01*
X357384Y139948D02*
X360166Y139948D01*
X360166Y140926D02*
X357384Y140926D01*
X357384Y141904D02*
X360166Y141904D01*
X360166Y142882D02*
X357384Y142882D01*
X353816Y143504D02*
X351034Y143504D01*
X353816Y143504D02*
X353816Y133102D01*
X351034Y133102D01*
X351034Y143504D01*
X351034Y134080D02*
X353816Y134080D01*
X353816Y135058D02*
X351034Y135058D01*
X351034Y136036D02*
X353816Y136036D01*
X353816Y137014D02*
X351034Y137014D01*
X351034Y137992D02*
X353816Y137992D01*
X353816Y138970D02*
X351034Y138970D01*
X351034Y139948D02*
X353816Y139948D01*
X353816Y140926D02*
X351034Y140926D01*
X351034Y141904D02*
X353816Y141904D01*
X353816Y142882D02*
X351034Y142882D01*
X347466Y143504D02*
X344684Y143504D01*
X347466Y143504D02*
X347466Y133102D01*
X344684Y133102D01*
X344684Y143504D01*
X344684Y134080D02*
X347466Y134080D01*
X347466Y135058D02*
X344684Y135058D01*
X344684Y136036D02*
X347466Y136036D01*
X347466Y137014D02*
X344684Y137014D01*
X344684Y137992D02*
X347466Y137992D01*
X347466Y138970D02*
X344684Y138970D01*
X344684Y139948D02*
X347466Y139948D01*
X347466Y140926D02*
X344684Y140926D01*
X344684Y141904D02*
X347466Y141904D01*
X347466Y142882D02*
X344684Y142882D01*
X341116Y143504D02*
X338334Y143504D01*
X341116Y143504D02*
X341116Y133102D01*
X338334Y133102D01*
X338334Y143504D01*
X338334Y134080D02*
X341116Y134080D01*
X341116Y135058D02*
X338334Y135058D01*
X338334Y136036D02*
X341116Y136036D01*
X341116Y137014D02*
X338334Y137014D01*
X338334Y137992D02*
X341116Y137992D01*
X341116Y138970D02*
X338334Y138970D01*
X338334Y139948D02*
X341116Y139948D01*
X341116Y140926D02*
X338334Y140926D01*
X338334Y141904D02*
X341116Y141904D01*
X341116Y142882D02*
X338334Y142882D01*
X376434Y143504D02*
X379216Y143504D01*
X379216Y133102D01*
X376434Y133102D01*
X376434Y143504D01*
X376434Y134080D02*
X379216Y134080D01*
X379216Y135058D02*
X376434Y135058D01*
X376434Y136036D02*
X379216Y136036D01*
X379216Y137014D02*
X376434Y137014D01*
X376434Y137992D02*
X379216Y137992D01*
X379216Y138970D02*
X376434Y138970D01*
X376434Y139948D02*
X379216Y139948D01*
X379216Y140926D02*
X376434Y140926D01*
X376434Y141904D02*
X379216Y141904D01*
X379216Y142882D02*
X376434Y142882D01*
X382784Y143504D02*
X385566Y143504D01*
X385566Y133102D01*
X382784Y133102D01*
X382784Y143504D01*
X382784Y134080D02*
X385566Y134080D01*
X385566Y135058D02*
X382784Y135058D01*
X382784Y136036D02*
X385566Y136036D01*
X385566Y137014D02*
X382784Y137014D01*
X382784Y137992D02*
X385566Y137992D01*
X385566Y138970D02*
X382784Y138970D01*
X382784Y139948D02*
X385566Y139948D01*
X385566Y140926D02*
X382784Y140926D01*
X382784Y141904D02*
X385566Y141904D01*
X385566Y142882D02*
X382784Y142882D01*
X389134Y143504D02*
X391916Y143504D01*
X391916Y133102D01*
X389134Y133102D01*
X389134Y143504D01*
X389134Y134080D02*
X391916Y134080D01*
X391916Y135058D02*
X389134Y135058D01*
X389134Y136036D02*
X391916Y136036D01*
X391916Y137014D02*
X389134Y137014D01*
X389134Y137992D02*
X391916Y137992D01*
X391916Y138970D02*
X389134Y138970D01*
X389134Y139948D02*
X391916Y139948D01*
X391916Y140926D02*
X389134Y140926D01*
X389134Y141904D02*
X391916Y141904D01*
X391916Y142882D02*
X389134Y142882D01*
X395484Y143504D02*
X398266Y143504D01*
X398266Y133102D01*
X395484Y133102D01*
X395484Y143504D01*
X395484Y134080D02*
X398266Y134080D01*
X398266Y135058D02*
X395484Y135058D01*
X395484Y136036D02*
X398266Y136036D01*
X398266Y137014D02*
X395484Y137014D01*
X395484Y137992D02*
X398266Y137992D01*
X398266Y138970D02*
X395484Y138970D01*
X395484Y139948D02*
X398266Y139948D01*
X398266Y140926D02*
X395484Y140926D01*
X395484Y141904D02*
X398266Y141904D01*
X398266Y142882D02*
X395484Y142882D01*
X366516Y186696D02*
X363734Y186696D01*
X363734Y197098D01*
X366516Y197098D01*
X366516Y186696D01*
X366516Y187674D02*
X363734Y187674D01*
X363734Y188652D02*
X366516Y188652D01*
X366516Y189630D02*
X363734Y189630D01*
X363734Y190608D02*
X366516Y190608D01*
X366516Y191586D02*
X363734Y191586D01*
X363734Y192564D02*
X366516Y192564D01*
X366516Y193542D02*
X363734Y193542D01*
X363734Y194520D02*
X366516Y194520D01*
X366516Y195498D02*
X363734Y195498D01*
X363734Y196476D02*
X366516Y196476D01*
X370084Y186696D02*
X372866Y186696D01*
X370084Y186696D02*
X370084Y197098D01*
X372866Y197098D01*
X372866Y186696D01*
X372866Y187674D02*
X370084Y187674D01*
X370084Y188652D02*
X372866Y188652D01*
X372866Y189630D02*
X370084Y189630D01*
X370084Y190608D02*
X372866Y190608D01*
X372866Y191586D02*
X370084Y191586D01*
X370084Y192564D02*
X372866Y192564D01*
X372866Y193542D02*
X370084Y193542D01*
X370084Y194520D02*
X372866Y194520D01*
X372866Y195498D02*
X370084Y195498D01*
X370084Y196476D02*
X372866Y196476D01*
X376434Y186696D02*
X379216Y186696D01*
X376434Y186696D02*
X376434Y197098D01*
X379216Y197098D01*
X379216Y186696D01*
X379216Y187674D02*
X376434Y187674D01*
X376434Y188652D02*
X379216Y188652D01*
X379216Y189630D02*
X376434Y189630D01*
X376434Y190608D02*
X379216Y190608D01*
X379216Y191586D02*
X376434Y191586D01*
X376434Y192564D02*
X379216Y192564D01*
X379216Y193542D02*
X376434Y193542D01*
X376434Y194520D02*
X379216Y194520D01*
X379216Y195498D02*
X376434Y195498D01*
X376434Y196476D02*
X379216Y196476D01*
X382784Y186696D02*
X385566Y186696D01*
X382784Y186696D02*
X382784Y197098D01*
X385566Y197098D01*
X385566Y186696D01*
X385566Y187674D02*
X382784Y187674D01*
X382784Y188652D02*
X385566Y188652D01*
X385566Y189630D02*
X382784Y189630D01*
X382784Y190608D02*
X385566Y190608D01*
X385566Y191586D02*
X382784Y191586D01*
X382784Y192564D02*
X385566Y192564D01*
X385566Y193542D02*
X382784Y193542D01*
X382784Y194520D02*
X385566Y194520D01*
X385566Y195498D02*
X382784Y195498D01*
X382784Y196476D02*
X385566Y196476D01*
X389134Y186696D02*
X391916Y186696D01*
X389134Y186696D02*
X389134Y197098D01*
X391916Y197098D01*
X391916Y186696D01*
X391916Y187674D02*
X389134Y187674D01*
X389134Y188652D02*
X391916Y188652D01*
X391916Y189630D02*
X389134Y189630D01*
X389134Y190608D02*
X391916Y190608D01*
X391916Y191586D02*
X389134Y191586D01*
X389134Y192564D02*
X391916Y192564D01*
X391916Y193542D02*
X389134Y193542D01*
X389134Y194520D02*
X391916Y194520D01*
X391916Y195498D02*
X389134Y195498D01*
X389134Y196476D02*
X391916Y196476D01*
X395484Y186696D02*
X398266Y186696D01*
X395484Y186696D02*
X395484Y197098D01*
X398266Y197098D01*
X398266Y186696D01*
X398266Y187674D02*
X395484Y187674D01*
X395484Y188652D02*
X398266Y188652D01*
X398266Y189630D02*
X395484Y189630D01*
X395484Y190608D02*
X398266Y190608D01*
X398266Y191586D02*
X395484Y191586D01*
X395484Y192564D02*
X398266Y192564D01*
X398266Y193542D02*
X395484Y193542D01*
X395484Y194520D02*
X398266Y194520D01*
X398266Y195498D02*
X395484Y195498D01*
X395484Y196476D02*
X398266Y196476D01*
X360166Y186696D02*
X357384Y186696D01*
X357384Y197098D01*
X360166Y197098D01*
X360166Y186696D01*
X360166Y187674D02*
X357384Y187674D01*
X357384Y188652D02*
X360166Y188652D01*
X360166Y189630D02*
X357384Y189630D01*
X357384Y190608D02*
X360166Y190608D01*
X360166Y191586D02*
X357384Y191586D01*
X357384Y192564D02*
X360166Y192564D01*
X360166Y193542D02*
X357384Y193542D01*
X357384Y194520D02*
X360166Y194520D01*
X360166Y195498D02*
X357384Y195498D01*
X357384Y196476D02*
X360166Y196476D01*
X353816Y186696D02*
X351034Y186696D01*
X351034Y197098D01*
X353816Y197098D01*
X353816Y186696D01*
X353816Y187674D02*
X351034Y187674D01*
X351034Y188652D02*
X353816Y188652D01*
X353816Y189630D02*
X351034Y189630D01*
X351034Y190608D02*
X353816Y190608D01*
X353816Y191586D02*
X351034Y191586D01*
X351034Y192564D02*
X353816Y192564D01*
X353816Y193542D02*
X351034Y193542D01*
X351034Y194520D02*
X353816Y194520D01*
X353816Y195498D02*
X351034Y195498D01*
X351034Y196476D02*
X353816Y196476D01*
X347466Y186696D02*
X344684Y186696D01*
X344684Y197098D01*
X347466Y197098D01*
X347466Y186696D01*
X347466Y187674D02*
X344684Y187674D01*
X344684Y188652D02*
X347466Y188652D01*
X347466Y189630D02*
X344684Y189630D01*
X344684Y190608D02*
X347466Y190608D01*
X347466Y191586D02*
X344684Y191586D01*
X344684Y192564D02*
X347466Y192564D01*
X347466Y193542D02*
X344684Y193542D01*
X344684Y194520D02*
X347466Y194520D01*
X347466Y195498D02*
X344684Y195498D01*
X344684Y196476D02*
X347466Y196476D01*
X341116Y186696D02*
X338334Y186696D01*
X338334Y197098D01*
X341116Y197098D01*
X341116Y186696D01*
X341116Y187674D02*
X338334Y187674D01*
X338334Y188652D02*
X341116Y188652D01*
X341116Y189630D02*
X338334Y189630D01*
X338334Y190608D02*
X341116Y190608D01*
X341116Y191586D02*
X338334Y191586D01*
X338334Y192564D02*
X341116Y192564D01*
X341116Y193542D02*
X338334Y193542D01*
X338334Y194520D02*
X341116Y194520D01*
X341116Y195498D02*
X338334Y195498D01*
X338334Y196476D02*
X341116Y196476D01*
D12*
X364960Y117420D02*
X374960Y117420D01*
X364960Y117420D02*
X364960Y126420D01*
X374960Y126420D01*
X374960Y117420D01*
X374960Y118370D02*
X364960Y118370D01*
X364960Y119320D02*
X374960Y119320D01*
X374960Y120270D02*
X364960Y120270D01*
X364960Y121220D02*
X374960Y121220D01*
X374960Y122170D02*
X364960Y122170D01*
X364960Y123120D02*
X374960Y123120D01*
X374960Y124070D02*
X364960Y124070D01*
X364960Y125020D02*
X374960Y125020D01*
X374960Y125970D02*
X364960Y125970D01*
X381960Y117420D02*
X391960Y117420D01*
X381960Y117420D02*
X381960Y126420D01*
X391960Y126420D01*
X391960Y117420D01*
X391960Y118370D02*
X381960Y118370D01*
X381960Y119320D02*
X391960Y119320D01*
X391960Y120270D02*
X381960Y120270D01*
X381960Y121220D02*
X391960Y121220D01*
X391960Y122170D02*
X381960Y122170D01*
X381960Y123120D02*
X391960Y123120D01*
X391960Y124070D02*
X381960Y124070D01*
X381960Y125020D02*
X391960Y125020D01*
X391960Y125970D02*
X381960Y125970D01*
X380944Y213796D02*
X390944Y213796D01*
X390944Y204796D01*
X380944Y204796D01*
X380944Y213796D01*
X380944Y205746D02*
X390944Y205746D01*
X390944Y206696D02*
X380944Y206696D01*
X380944Y207646D02*
X390944Y207646D01*
X390944Y208596D02*
X380944Y208596D01*
X380944Y209546D02*
X390944Y209546D01*
X390944Y210496D02*
X380944Y210496D01*
X380944Y211446D02*
X390944Y211446D01*
X390944Y212396D02*
X380944Y212396D01*
X380944Y213346D02*
X390944Y213346D01*
X373944Y213796D02*
X363944Y213796D01*
X373944Y213796D02*
X373944Y204796D01*
X363944Y204796D01*
X363944Y213796D01*
X363944Y205746D02*
X373944Y205746D01*
X373944Y206696D02*
X363944Y206696D01*
X363944Y207646D02*
X373944Y207646D01*
X373944Y208596D02*
X363944Y208596D01*
X363944Y209546D02*
X373944Y209546D01*
X373944Y210496D02*
X363944Y210496D01*
X363944Y211446D02*
X373944Y211446D01*
X373944Y212396D02*
X363944Y212396D01*
X363944Y213346D02*
X373944Y213346D01*
X65350Y486100D02*
X65350Y496100D01*
X74350Y496100D01*
X74350Y486100D01*
X65350Y486100D01*
X65350Y487050D02*
X74350Y487050D01*
X74350Y488000D02*
X65350Y488000D01*
X65350Y488950D02*
X74350Y488950D01*
X74350Y489900D02*
X65350Y489900D01*
X65350Y490850D02*
X74350Y490850D01*
X74350Y491800D02*
X65350Y491800D01*
X65350Y492750D02*
X74350Y492750D01*
X74350Y493700D02*
X65350Y493700D01*
X65350Y494650D02*
X74350Y494650D01*
X74350Y495600D02*
X65350Y495600D01*
X65350Y479100D02*
X65350Y469100D01*
X65350Y479100D02*
X74350Y479100D01*
X74350Y469100D01*
X65350Y469100D01*
X65350Y470050D02*
X74350Y470050D01*
X74350Y471000D02*
X65350Y471000D01*
X65350Y471950D02*
X74350Y471950D01*
X74350Y472900D02*
X65350Y472900D01*
X65350Y473850D02*
X74350Y473850D01*
X74350Y474800D02*
X65350Y474800D01*
X65350Y475750D02*
X74350Y475750D01*
X74350Y476700D02*
X65350Y476700D01*
X65350Y477650D02*
X74350Y477650D01*
X74350Y478600D02*
X65350Y478600D01*
X80082Y486100D02*
X80082Y496100D01*
X89082Y496100D01*
X89082Y486100D01*
X80082Y486100D01*
X80082Y487050D02*
X89082Y487050D01*
X89082Y488000D02*
X80082Y488000D01*
X80082Y488950D02*
X89082Y488950D01*
X89082Y489900D02*
X80082Y489900D01*
X80082Y490850D02*
X89082Y490850D01*
X89082Y491800D02*
X80082Y491800D01*
X80082Y492750D02*
X89082Y492750D01*
X89082Y493700D02*
X80082Y493700D01*
X80082Y494650D02*
X89082Y494650D01*
X89082Y495600D02*
X80082Y495600D01*
X80082Y479100D02*
X80082Y469100D01*
X80082Y479100D02*
X89082Y479100D01*
X89082Y469100D01*
X80082Y469100D01*
X80082Y470050D02*
X89082Y470050D01*
X89082Y471000D02*
X80082Y471000D01*
X80082Y471950D02*
X89082Y471950D01*
X89082Y472900D02*
X80082Y472900D01*
X80082Y473850D02*
X89082Y473850D01*
X89082Y474800D02*
X80082Y474800D01*
X80082Y475750D02*
X89082Y475750D01*
X89082Y476700D02*
X80082Y476700D01*
X80082Y477650D02*
X89082Y477650D01*
X89082Y478600D02*
X80082Y478600D01*
X144200Y124770D02*
X144200Y114770D01*
X135200Y114770D01*
X135200Y124770D01*
X144200Y124770D01*
X144200Y115720D02*
X135200Y115720D01*
X135200Y116670D02*
X144200Y116670D01*
X144200Y117620D02*
X135200Y117620D01*
X135200Y118570D02*
X144200Y118570D01*
X144200Y119520D02*
X135200Y119520D01*
X135200Y120470D02*
X144200Y120470D01*
X144200Y121420D02*
X135200Y121420D01*
X135200Y122370D02*
X144200Y122370D01*
X144200Y123320D02*
X135200Y123320D01*
X135200Y124270D02*
X144200Y124270D01*
X144200Y131770D02*
X144200Y141770D01*
X144200Y131770D02*
X135200Y131770D01*
X135200Y141770D01*
X144200Y141770D01*
X144200Y132720D02*
X135200Y132720D01*
X135200Y133670D02*
X144200Y133670D01*
X144200Y134620D02*
X135200Y134620D01*
X135200Y135570D02*
X144200Y135570D01*
X144200Y136520D02*
X135200Y136520D01*
X135200Y137470D02*
X144200Y137470D01*
X144200Y138420D02*
X135200Y138420D01*
X135200Y139370D02*
X144200Y139370D01*
X144200Y140320D02*
X135200Y140320D01*
X135200Y141270D02*
X144200Y141270D01*
X150440Y141770D02*
X150440Y131770D01*
X150440Y141770D02*
X159440Y141770D01*
X159440Y131770D01*
X150440Y131770D01*
X150440Y132720D02*
X159440Y132720D01*
X159440Y133670D02*
X150440Y133670D01*
X150440Y134620D02*
X159440Y134620D01*
X159440Y135570D02*
X150440Y135570D01*
X150440Y136520D02*
X159440Y136520D01*
X159440Y137470D02*
X150440Y137470D01*
X150440Y138420D02*
X159440Y138420D01*
X159440Y139370D02*
X150440Y139370D01*
X150440Y140320D02*
X159440Y140320D01*
X159440Y141270D02*
X150440Y141270D01*
X150440Y124770D02*
X150440Y114770D01*
X150440Y124770D02*
X159440Y124770D01*
X159440Y114770D01*
X150440Y114770D01*
X150440Y115720D02*
X159440Y115720D01*
X159440Y116670D02*
X150440Y116670D01*
X150440Y117620D02*
X159440Y117620D01*
X159440Y118570D02*
X150440Y118570D01*
X150440Y119520D02*
X159440Y119520D01*
X159440Y120470D02*
X150440Y120470D01*
X150440Y121420D02*
X159440Y121420D01*
X159440Y122370D02*
X150440Y122370D01*
X150440Y123320D02*
X159440Y123320D01*
X159440Y124270D02*
X150440Y124270D01*
X364960Y102180D02*
X374960Y102180D01*
X364960Y102180D02*
X364960Y111180D01*
X374960Y111180D01*
X374960Y102180D01*
X374960Y103130D02*
X364960Y103130D01*
X364960Y104080D02*
X374960Y104080D01*
X374960Y105030D02*
X364960Y105030D01*
X364960Y105980D02*
X374960Y105980D01*
X374960Y106930D02*
X364960Y106930D01*
X364960Y107880D02*
X374960Y107880D01*
X374960Y108830D02*
X364960Y108830D01*
X364960Y109780D02*
X374960Y109780D01*
X374960Y110730D02*
X364960Y110730D01*
X381960Y102180D02*
X391960Y102180D01*
X381960Y102180D02*
X381960Y111180D01*
X391960Y111180D01*
X391960Y102180D01*
X391960Y103130D02*
X381960Y103130D01*
X381960Y104080D02*
X391960Y104080D01*
X391960Y105030D02*
X381960Y105030D01*
X381960Y105980D02*
X391960Y105980D01*
X391960Y106930D02*
X381960Y106930D01*
X381960Y107880D02*
X391960Y107880D01*
X391960Y108830D02*
X381960Y108830D01*
X381960Y109780D02*
X391960Y109780D01*
X391960Y110730D02*
X381960Y110730D01*
D20*
X83300Y350600D03*
X83300Y335200D03*
X94500Y350600D03*
X94500Y335200D03*
X462800Y436800D03*
X462800Y452200D03*
X451600Y436800D03*
X451600Y452200D03*
D12*
X433506Y467322D02*
X433506Y477322D01*
X433506Y467322D02*
X424506Y467322D01*
X424506Y477322D01*
X433506Y477322D01*
X433506Y468272D02*
X424506Y468272D01*
X424506Y469222D02*
X433506Y469222D01*
X433506Y470172D02*
X424506Y470172D01*
X424506Y471122D02*
X433506Y471122D01*
X433506Y472072D02*
X424506Y472072D01*
X424506Y473022D02*
X433506Y473022D01*
X433506Y473972D02*
X424506Y473972D01*
X424506Y474922D02*
X433506Y474922D01*
X433506Y475872D02*
X424506Y475872D01*
X424506Y476822D02*
X433506Y476822D01*
X433506Y484322D02*
X433506Y494322D01*
X433506Y484322D02*
X424506Y484322D01*
X424506Y494322D01*
X433506Y494322D01*
X433506Y485272D02*
X424506Y485272D01*
X424506Y486222D02*
X433506Y486222D01*
X433506Y487172D02*
X424506Y487172D01*
X424506Y488122D02*
X433506Y488122D01*
X433506Y489072D02*
X424506Y489072D01*
X424506Y490022D02*
X433506Y490022D01*
X433506Y490972D02*
X424506Y490972D01*
X424506Y491922D02*
X433506Y491922D01*
X433506Y492872D02*
X424506Y492872D01*
X424506Y493822D02*
X433506Y493822D01*
X468574Y485068D02*
X478574Y485068D01*
X478574Y476068D01*
X468574Y476068D01*
X468574Y485068D01*
X468574Y477018D02*
X478574Y477018D01*
X478574Y477968D02*
X468574Y477968D01*
X468574Y478918D02*
X478574Y478918D01*
X478574Y479868D02*
X468574Y479868D01*
X468574Y480818D02*
X478574Y480818D01*
X478574Y481768D02*
X468574Y481768D01*
X468574Y482718D02*
X478574Y482718D01*
X478574Y483668D02*
X468574Y483668D01*
X468574Y484618D02*
X478574Y484618D01*
X461574Y485068D02*
X451574Y485068D01*
X461574Y485068D02*
X461574Y476068D01*
X451574Y476068D01*
X451574Y485068D01*
X451574Y477018D02*
X461574Y477018D01*
X461574Y477968D02*
X451574Y477968D01*
X451574Y478918D02*
X461574Y478918D01*
X461574Y479868D02*
X451574Y479868D01*
X451574Y480818D02*
X461574Y480818D01*
X461574Y481768D02*
X451574Y481768D01*
X451574Y482718D02*
X461574Y482718D01*
X461574Y483668D02*
X451574Y483668D01*
X451574Y484618D02*
X461574Y484618D01*
X114372Y326682D02*
X114372Y316682D01*
X114372Y326682D02*
X123372Y326682D01*
X123372Y316682D01*
X114372Y316682D01*
X114372Y317632D02*
X123372Y317632D01*
X123372Y318582D02*
X114372Y318582D01*
X114372Y319532D02*
X123372Y319532D01*
X123372Y320482D02*
X114372Y320482D01*
X114372Y321432D02*
X123372Y321432D01*
X123372Y322382D02*
X114372Y322382D01*
X114372Y323332D02*
X123372Y323332D01*
X123372Y324282D02*
X114372Y324282D01*
X114372Y325232D02*
X123372Y325232D01*
X123372Y326182D02*
X114372Y326182D01*
X114372Y309682D02*
X114372Y299682D01*
X114372Y309682D02*
X123372Y309682D01*
X123372Y299682D01*
X114372Y299682D01*
X114372Y300632D02*
X123372Y300632D01*
X123372Y301582D02*
X114372Y301582D01*
X114372Y302532D02*
X123372Y302532D01*
X123372Y303482D02*
X114372Y303482D01*
X114372Y304432D02*
X123372Y304432D01*
X123372Y305382D02*
X114372Y305382D01*
X114372Y306332D02*
X123372Y306332D01*
X123372Y307282D02*
X114372Y307282D01*
X114372Y308232D02*
X123372Y308232D01*
X123372Y309182D02*
X114372Y309182D01*
X78034Y301316D02*
X68034Y301316D01*
X68034Y310316D01*
X78034Y310316D01*
X78034Y301316D01*
X78034Y302266D02*
X68034Y302266D01*
X68034Y303216D02*
X78034Y303216D01*
X78034Y304166D02*
X68034Y304166D01*
X68034Y305116D02*
X78034Y305116D01*
X78034Y306066D02*
X68034Y306066D01*
X68034Y307016D02*
X78034Y307016D01*
X78034Y307966D02*
X68034Y307966D01*
X68034Y308916D02*
X78034Y308916D01*
X78034Y309866D02*
X68034Y309866D01*
X85034Y301316D02*
X95034Y301316D01*
X85034Y301316D02*
X85034Y310316D01*
X95034Y310316D01*
X95034Y301316D01*
X95034Y302266D02*
X85034Y302266D01*
X85034Y303216D02*
X95034Y303216D01*
X95034Y304166D02*
X85034Y304166D01*
X85034Y305116D02*
X95034Y305116D01*
X95034Y306066D02*
X85034Y306066D01*
X85034Y307016D02*
X95034Y307016D01*
X95034Y307966D02*
X85034Y307966D01*
X85034Y308916D02*
X95034Y308916D01*
X95034Y309866D02*
X85034Y309866D01*
D21*
X312090Y289570D02*
X319050Y289570D01*
X319050Y281610D01*
X312090Y281610D01*
X312090Y289570D01*
X312090Y282598D02*
X319050Y282598D01*
X319050Y283586D02*
X312090Y283586D01*
X312090Y284574D02*
X319050Y284574D01*
X319050Y285562D02*
X312090Y285562D01*
X312090Y286550D02*
X319050Y286550D01*
X319050Y287538D02*
X312090Y287538D01*
X312090Y288526D02*
X319050Y288526D01*
X319050Y289514D02*
X312090Y289514D01*
X300050Y289570D02*
X293090Y289570D01*
X300050Y289570D02*
X300050Y281610D01*
X293090Y281610D01*
X293090Y289570D01*
X293090Y282598D02*
X300050Y282598D01*
X300050Y283586D02*
X293090Y283586D01*
X293090Y284574D02*
X300050Y284574D01*
X300050Y285562D02*
X293090Y285562D01*
X293090Y286550D02*
X300050Y286550D01*
X300050Y287538D02*
X293090Y287538D01*
X293090Y288526D02*
X300050Y288526D01*
X300050Y289514D02*
X293090Y289514D01*
X302590Y268570D02*
X309550Y268570D01*
X309550Y260610D01*
X302590Y260610D01*
X302590Y268570D01*
X302590Y261598D02*
X309550Y261598D01*
X309550Y262586D02*
X302590Y262586D01*
X302590Y263574D02*
X309550Y263574D01*
X309550Y264562D02*
X302590Y264562D01*
X302590Y265550D02*
X309550Y265550D01*
X309550Y266538D02*
X302590Y266538D01*
X302590Y267526D02*
X309550Y267526D01*
X309550Y268514D02*
X302590Y268514D01*
D12*
X245690Y275280D02*
X245690Y285280D01*
X254690Y285280D01*
X254690Y275280D01*
X245690Y275280D01*
X245690Y276230D02*
X254690Y276230D01*
X254690Y277180D02*
X245690Y277180D01*
X245690Y278130D02*
X254690Y278130D01*
X254690Y279080D02*
X245690Y279080D01*
X245690Y280030D02*
X254690Y280030D01*
X254690Y280980D02*
X245690Y280980D01*
X245690Y281930D02*
X254690Y281930D01*
X254690Y282880D02*
X245690Y282880D01*
X245690Y283830D02*
X254690Y283830D01*
X254690Y284780D02*
X245690Y284780D01*
X245690Y268280D02*
X245690Y258280D01*
X245690Y268280D02*
X254690Y268280D01*
X254690Y258280D01*
X245690Y258280D01*
X245690Y259230D02*
X254690Y259230D01*
X254690Y260180D02*
X245690Y260180D01*
X245690Y261130D02*
X254690Y261130D01*
X254690Y262080D02*
X245690Y262080D01*
X245690Y263030D02*
X254690Y263030D01*
X254690Y263980D02*
X245690Y263980D01*
X245690Y264930D02*
X254690Y264930D01*
X254690Y265880D02*
X245690Y265880D01*
X245690Y266830D02*
X254690Y266830D01*
X254690Y267780D02*
X245690Y267780D01*
X261074Y293950D02*
X271074Y293950D01*
X261074Y293950D02*
X261074Y302950D01*
X271074Y302950D01*
X271074Y293950D01*
X271074Y294900D02*
X261074Y294900D01*
X261074Y295850D02*
X271074Y295850D01*
X271074Y296800D02*
X261074Y296800D01*
X261074Y297750D02*
X271074Y297750D01*
X271074Y298700D02*
X261074Y298700D01*
X261074Y299650D02*
X271074Y299650D01*
X271074Y300600D02*
X261074Y300600D01*
X261074Y301550D02*
X271074Y301550D01*
X271074Y302500D02*
X261074Y302500D01*
X278074Y293950D02*
X288074Y293950D01*
X278074Y293950D02*
X278074Y302950D01*
X288074Y302950D01*
X288074Y293950D01*
X288074Y294900D02*
X278074Y294900D01*
X278074Y295850D02*
X288074Y295850D01*
X288074Y296800D02*
X278074Y296800D01*
X278074Y297750D02*
X288074Y297750D01*
X288074Y298700D02*
X278074Y298700D01*
X278074Y299650D02*
X288074Y299650D01*
X288074Y300600D02*
X278074Y300600D01*
X278074Y301550D02*
X288074Y301550D01*
X288074Y302500D02*
X278074Y302500D01*
X287090Y266780D02*
X287090Y263780D01*
X280090Y263780D01*
X280090Y266780D01*
X287090Y266780D01*
X287090Y264730D02*
X280090Y264730D01*
X280090Y265680D02*
X287090Y265680D01*
X287090Y266630D02*
X280090Y266630D01*
X287090Y270280D02*
X287090Y273280D01*
X287090Y270280D02*
X280090Y270280D01*
X280090Y273280D01*
X287090Y273280D01*
X287090Y271230D02*
X280090Y271230D01*
X280090Y272180D02*
X287090Y272180D01*
X287090Y273130D02*
X280090Y273130D01*
X287090Y276780D02*
X287090Y279780D01*
X287090Y276780D02*
X280090Y276780D01*
X280090Y279780D01*
X287090Y279780D01*
X287090Y277730D02*
X280090Y277730D01*
X280090Y278680D02*
X287090Y278680D01*
X287090Y279630D02*
X280090Y279630D01*
X271090Y279780D02*
X271090Y276780D01*
X264090Y276780D01*
X264090Y279780D01*
X271090Y279780D01*
X271090Y277730D02*
X264090Y277730D01*
X264090Y278680D02*
X271090Y278680D01*
X271090Y279630D02*
X264090Y279630D01*
X271090Y273280D02*
X271090Y270280D01*
X264090Y270280D01*
X264090Y273280D01*
X271090Y273280D01*
X271090Y271230D02*
X264090Y271230D01*
X264090Y272180D02*
X271090Y272180D01*
X271090Y273130D02*
X264090Y273130D01*
X271090Y266780D02*
X271090Y263780D01*
X264090Y263780D01*
X264090Y266780D01*
X271090Y266780D01*
X271090Y264730D02*
X264090Y264730D01*
X264090Y265680D02*
X271090Y265680D01*
X271090Y266630D02*
X264090Y266630D01*
X93290Y437840D02*
X93290Y447840D01*
X102290Y447840D01*
X102290Y437840D01*
X93290Y437840D01*
X93290Y438790D02*
X102290Y438790D01*
X102290Y439740D02*
X93290Y439740D01*
X93290Y440690D02*
X102290Y440690D01*
X102290Y441640D02*
X93290Y441640D01*
X93290Y442590D02*
X102290Y442590D01*
X102290Y443540D02*
X93290Y443540D01*
X93290Y444490D02*
X102290Y444490D01*
X102290Y445440D02*
X93290Y445440D01*
X93290Y446390D02*
X102290Y446390D01*
X102290Y447340D02*
X93290Y447340D01*
X93290Y430840D02*
X93290Y420840D01*
X93290Y430840D02*
X102290Y430840D01*
X102290Y420840D01*
X93290Y420840D01*
X93290Y421790D02*
X102290Y421790D01*
X102290Y422740D02*
X93290Y422740D01*
X93290Y423690D02*
X102290Y423690D01*
X102290Y424640D02*
X93290Y424640D01*
X93290Y425590D02*
X102290Y425590D01*
X102290Y426540D02*
X93290Y426540D01*
X93290Y427490D02*
X102290Y427490D01*
X102290Y428440D02*
X93290Y428440D01*
X93290Y429390D02*
X102290Y429390D01*
X102290Y430340D02*
X93290Y430340D01*
X78050Y437840D02*
X78050Y447840D01*
X87050Y447840D01*
X87050Y437840D01*
X78050Y437840D01*
X78050Y438790D02*
X87050Y438790D01*
X87050Y439740D02*
X78050Y439740D01*
X78050Y440690D02*
X87050Y440690D01*
X87050Y441640D02*
X78050Y441640D01*
X78050Y442590D02*
X87050Y442590D01*
X87050Y443540D02*
X78050Y443540D01*
X78050Y444490D02*
X87050Y444490D01*
X87050Y445440D02*
X78050Y445440D01*
X78050Y446390D02*
X87050Y446390D01*
X87050Y447340D02*
X78050Y447340D01*
X78050Y430840D02*
X78050Y420840D01*
X78050Y430840D02*
X87050Y430840D01*
X87050Y420840D01*
X78050Y420840D01*
X78050Y421790D02*
X87050Y421790D01*
X87050Y422740D02*
X78050Y422740D01*
X78050Y423690D02*
X87050Y423690D01*
X87050Y424640D02*
X78050Y424640D01*
X78050Y425590D02*
X87050Y425590D01*
X87050Y426540D02*
X78050Y426540D01*
X78050Y427490D02*
X87050Y427490D01*
X87050Y428440D02*
X78050Y428440D01*
X78050Y429390D02*
X87050Y429390D01*
X87050Y430340D02*
X78050Y430340D01*
D14*
X513270Y105100D02*
X513270Y98100D01*
X513270Y105100D02*
X520270Y105100D01*
X520270Y98100D01*
X513270Y98100D01*
X513270Y100950D02*
X520270Y100950D01*
X520270Y103800D02*
X513270Y103800D01*
X495730Y105100D02*
X495730Y98100D01*
X495730Y105100D02*
X502730Y105100D01*
X502730Y98100D01*
X495730Y98100D01*
X495730Y100950D02*
X502730Y100950D01*
X502730Y103800D02*
X495730Y103800D01*
D12*
X466908Y97100D02*
X456908Y97100D01*
X456908Y106100D01*
X466908Y106100D01*
X466908Y97100D01*
X466908Y98050D02*
X456908Y98050D01*
X456908Y99000D02*
X466908Y99000D01*
X466908Y99950D02*
X456908Y99950D01*
X456908Y100900D02*
X466908Y100900D01*
X466908Y101850D02*
X456908Y101850D01*
X456908Y102800D02*
X466908Y102800D01*
X466908Y103750D02*
X456908Y103750D01*
X456908Y104700D02*
X466908Y104700D01*
X466908Y105650D02*
X456908Y105650D01*
X473908Y97100D02*
X483908Y97100D01*
X473908Y97100D02*
X473908Y106100D01*
X483908Y106100D01*
X483908Y97100D01*
X483908Y98050D02*
X473908Y98050D01*
X473908Y99000D02*
X483908Y99000D01*
X483908Y99950D02*
X473908Y99950D01*
X473908Y100900D02*
X483908Y100900D01*
X483908Y101850D02*
X473908Y101850D01*
X473908Y102800D02*
X483908Y102800D01*
X483908Y103750D02*
X473908Y103750D01*
X473908Y104700D02*
X483908Y104700D01*
X483908Y105650D02*
X473908Y105650D01*
X475120Y284190D02*
X475120Y293190D01*
X485620Y293190D01*
X485620Y284190D01*
X475120Y284190D01*
X475120Y285140D02*
X485620Y285140D01*
X485620Y286090D02*
X475120Y286090D01*
X475120Y287040D02*
X485620Y287040D01*
X485620Y287990D02*
X475120Y287990D01*
X475120Y288940D02*
X485620Y288940D01*
X485620Y289890D02*
X475120Y289890D01*
X475120Y290840D02*
X485620Y290840D01*
X485620Y291790D02*
X475120Y291790D01*
X475120Y292740D02*
X485620Y292740D01*
X475120Y309190D02*
X475120Y318190D01*
X485620Y318190D01*
X485620Y309190D01*
X475120Y309190D01*
X475120Y310140D02*
X485620Y310140D01*
X485620Y311090D02*
X475120Y311090D01*
X475120Y312040D02*
X485620Y312040D01*
X485620Y312990D02*
X475120Y312990D01*
X475120Y313940D02*
X485620Y313940D01*
X485620Y314890D02*
X475120Y314890D01*
X475120Y315840D02*
X485620Y315840D01*
X485620Y316790D02*
X475120Y316790D01*
X475120Y317740D02*
X485620Y317740D01*
X475120Y334190D02*
X475120Y343190D01*
X485620Y343190D01*
X485620Y334190D01*
X475120Y334190D01*
X475120Y335140D02*
X485620Y335140D01*
X485620Y336090D02*
X475120Y336090D01*
X475120Y337040D02*
X485620Y337040D01*
X485620Y337990D02*
X475120Y337990D01*
X475120Y338940D02*
X485620Y338940D01*
X485620Y339890D02*
X475120Y339890D01*
X475120Y340840D02*
X485620Y340840D01*
X485620Y341790D02*
X475120Y341790D01*
X475120Y342740D02*
X485620Y342740D01*
X418620Y293190D02*
X418620Y284190D01*
X418620Y293190D02*
X429120Y293190D01*
X429120Y284190D01*
X418620Y284190D01*
X418620Y285140D02*
X429120Y285140D01*
X429120Y286090D02*
X418620Y286090D01*
X418620Y287040D02*
X429120Y287040D01*
X429120Y287990D02*
X418620Y287990D01*
X418620Y288940D02*
X429120Y288940D01*
X429120Y289890D02*
X418620Y289890D01*
X418620Y290840D02*
X429120Y290840D01*
X429120Y291790D02*
X418620Y291790D01*
X418620Y292740D02*
X429120Y292740D01*
X418620Y309190D02*
X418620Y318190D01*
X429120Y318190D01*
X429120Y309190D01*
X418620Y309190D01*
X418620Y310140D02*
X429120Y310140D01*
X429120Y311090D02*
X418620Y311090D01*
X418620Y312040D02*
X429120Y312040D01*
X429120Y312990D02*
X418620Y312990D01*
X418620Y313940D02*
X429120Y313940D01*
X429120Y314890D02*
X418620Y314890D01*
X418620Y315840D02*
X429120Y315840D01*
X429120Y316790D02*
X418620Y316790D01*
X418620Y317740D02*
X429120Y317740D01*
X418620Y334190D02*
X418620Y343190D01*
X429120Y343190D01*
X429120Y334190D01*
X418620Y334190D01*
X418620Y335140D02*
X429120Y335140D01*
X429120Y336090D02*
X418620Y336090D01*
X418620Y337040D02*
X429120Y337040D01*
X429120Y337990D02*
X418620Y337990D01*
X418620Y338940D02*
X429120Y338940D01*
X429120Y339890D02*
X418620Y339890D01*
X418620Y340840D02*
X429120Y340840D01*
X429120Y341790D02*
X418620Y341790D01*
X418620Y342740D02*
X429120Y342740D01*
X484560Y261930D02*
X484560Y251930D01*
X475560Y251930D01*
X475560Y261930D01*
X484560Y261930D01*
X484560Y252880D02*
X475560Y252880D01*
X475560Y253830D02*
X484560Y253830D01*
X484560Y254780D02*
X475560Y254780D01*
X475560Y255730D02*
X484560Y255730D01*
X484560Y256680D02*
X475560Y256680D01*
X475560Y257630D02*
X484560Y257630D01*
X484560Y258580D02*
X475560Y258580D01*
X475560Y259530D02*
X484560Y259530D01*
X484560Y260480D02*
X475560Y260480D01*
X475560Y261430D02*
X484560Y261430D01*
X484560Y268930D02*
X484560Y278930D01*
X484560Y268930D02*
X475560Y268930D01*
X475560Y278930D01*
X484560Y278930D01*
X484560Y269880D02*
X475560Y269880D01*
X475560Y270830D02*
X484560Y270830D01*
X484560Y271780D02*
X475560Y271780D01*
X475560Y272730D02*
X484560Y272730D01*
X484560Y273680D02*
X475560Y273680D01*
X475560Y274630D02*
X484560Y274630D01*
X484560Y275580D02*
X475560Y275580D01*
X475560Y276530D02*
X484560Y276530D01*
X484560Y277480D02*
X475560Y277480D01*
X475560Y278430D02*
X484560Y278430D01*
X429120Y246670D02*
X429120Y237670D01*
X418620Y237670D01*
X418620Y246670D01*
X429120Y246670D01*
X429120Y238620D02*
X418620Y238620D01*
X418620Y239570D02*
X429120Y239570D01*
X429120Y240520D02*
X418620Y240520D01*
X418620Y241470D02*
X429120Y241470D01*
X429120Y242420D02*
X418620Y242420D01*
X418620Y243370D02*
X429120Y243370D01*
X429120Y244320D02*
X418620Y244320D01*
X418620Y245270D02*
X429120Y245270D01*
X429120Y246220D02*
X418620Y246220D01*
X429120Y221670D02*
X429120Y212670D01*
X418620Y212670D01*
X418620Y221670D01*
X429120Y221670D01*
X429120Y213620D02*
X418620Y213620D01*
X418620Y214570D02*
X429120Y214570D01*
X429120Y215520D02*
X418620Y215520D01*
X418620Y216470D02*
X429120Y216470D01*
X429120Y217420D02*
X418620Y217420D01*
X418620Y218370D02*
X429120Y218370D01*
X429120Y219320D02*
X418620Y219320D01*
X418620Y220270D02*
X429120Y220270D01*
X429120Y221220D02*
X418620Y221220D01*
X429120Y196670D02*
X429120Y187670D01*
X418620Y187670D01*
X418620Y196670D01*
X429120Y196670D01*
X429120Y188620D02*
X418620Y188620D01*
X418620Y189570D02*
X429120Y189570D01*
X429120Y190520D02*
X418620Y190520D01*
X418620Y191470D02*
X429120Y191470D01*
X429120Y192420D02*
X418620Y192420D01*
X418620Y193370D02*
X429120Y193370D01*
X429120Y194320D02*
X418620Y194320D01*
X418620Y195270D02*
X429120Y195270D01*
X429120Y196220D02*
X418620Y196220D01*
X485620Y237670D02*
X485620Y246670D01*
X485620Y237670D02*
X475120Y237670D01*
X475120Y246670D01*
X485620Y246670D01*
X485620Y238620D02*
X475120Y238620D01*
X475120Y239570D02*
X485620Y239570D01*
X485620Y240520D02*
X475120Y240520D01*
X475120Y241470D02*
X485620Y241470D01*
X485620Y242420D02*
X475120Y242420D01*
X475120Y243370D02*
X485620Y243370D01*
X485620Y244320D02*
X475120Y244320D01*
X475120Y245270D02*
X485620Y245270D01*
X485620Y246220D02*
X475120Y246220D01*
X485620Y221670D02*
X485620Y212670D01*
X475120Y212670D01*
X475120Y221670D01*
X485620Y221670D01*
X485620Y213620D02*
X475120Y213620D01*
X475120Y214570D02*
X485620Y214570D01*
X485620Y215520D02*
X475120Y215520D01*
X475120Y216470D02*
X485620Y216470D01*
X485620Y217420D02*
X475120Y217420D01*
X475120Y218370D02*
X485620Y218370D01*
X485620Y219320D02*
X475120Y219320D01*
X475120Y220270D02*
X485620Y220270D01*
X485620Y221220D02*
X475120Y221220D01*
X485620Y196670D02*
X485620Y187670D01*
X475120Y187670D01*
X475120Y196670D01*
X485620Y196670D01*
X485620Y188620D02*
X475120Y188620D01*
X475120Y189570D02*
X485620Y189570D01*
X485620Y190520D02*
X475120Y190520D01*
X475120Y191470D02*
X485620Y191470D01*
X485620Y192420D02*
X475120Y192420D01*
X475120Y193370D02*
X485620Y193370D01*
X485620Y194320D02*
X475120Y194320D01*
X475120Y195270D02*
X485620Y195270D01*
X485620Y196220D02*
X475120Y196220D01*
D21*
X442240Y175270D02*
X435280Y175270D01*
X442240Y175270D02*
X442240Y167310D01*
X435280Y167310D01*
X435280Y175270D01*
X435280Y168298D02*
X442240Y168298D01*
X442240Y169286D02*
X435280Y169286D01*
X435280Y170274D02*
X442240Y170274D01*
X442240Y171262D02*
X435280Y171262D01*
X435280Y172250D02*
X442240Y172250D01*
X442240Y173238D02*
X435280Y173238D01*
X435280Y174226D02*
X442240Y174226D01*
X442240Y175214D02*
X435280Y175214D01*
X423240Y175270D02*
X416280Y175270D01*
X423240Y175270D02*
X423240Y167310D01*
X416280Y167310D01*
X416280Y175270D01*
X416280Y168298D02*
X423240Y168298D01*
X423240Y169286D02*
X416280Y169286D01*
X416280Y170274D02*
X423240Y170274D01*
X423240Y171262D02*
X416280Y171262D01*
X416280Y172250D02*
X423240Y172250D01*
X423240Y173238D02*
X416280Y173238D01*
X416280Y174226D02*
X423240Y174226D01*
X423240Y175214D02*
X416280Y175214D01*
X425780Y154270D02*
X432740Y154270D01*
X432740Y146310D01*
X425780Y146310D01*
X425780Y154270D01*
X425780Y147298D02*
X432740Y147298D01*
X432740Y148286D02*
X425780Y148286D01*
X425780Y149274D02*
X432740Y149274D01*
X432740Y150262D02*
X425780Y150262D01*
X425780Y151250D02*
X432740Y151250D01*
X432740Y152238D02*
X425780Y152238D01*
X425780Y153226D02*
X432740Y153226D01*
X432740Y154214D02*
X425780Y154214D01*
D12*
X473908Y169600D02*
X483908Y169600D01*
X483908Y160600D01*
X473908Y160600D01*
X473908Y169600D01*
X473908Y161550D02*
X483908Y161550D01*
X483908Y162500D02*
X473908Y162500D01*
X473908Y163450D02*
X483908Y163450D01*
X483908Y164400D02*
X473908Y164400D01*
X473908Y165350D02*
X483908Y165350D01*
X483908Y166300D02*
X473908Y166300D01*
X473908Y167250D02*
X483908Y167250D01*
X483908Y168200D02*
X473908Y168200D01*
X473908Y169150D02*
X483908Y169150D01*
X466908Y169600D02*
X456908Y169600D01*
X466908Y169600D02*
X466908Y160600D01*
X456908Y160600D01*
X456908Y169600D01*
X456908Y161550D02*
X466908Y161550D01*
X466908Y162500D02*
X456908Y162500D01*
X456908Y163450D02*
X466908Y163450D01*
X466908Y164400D02*
X456908Y164400D01*
X456908Y165350D02*
X466908Y165350D01*
X466908Y166300D02*
X456908Y166300D01*
X456908Y167250D02*
X466908Y167250D01*
X466908Y168200D02*
X456908Y168200D01*
X456908Y169150D02*
X466908Y169150D01*
D21*
X415788Y386512D02*
X415788Y393472D01*
X423748Y393472D01*
X423748Y386512D01*
X415788Y386512D01*
X415788Y387500D02*
X423748Y387500D01*
X423748Y388488D02*
X415788Y388488D01*
X415788Y389476D02*
X423748Y389476D01*
X423748Y390464D02*
X415788Y390464D01*
X415788Y391452D02*
X423748Y391452D01*
X423748Y392440D02*
X415788Y392440D01*
X415788Y393428D02*
X423748Y393428D01*
X415788Y374472D02*
X415788Y367512D01*
X415788Y374472D02*
X423748Y374472D01*
X423748Y367512D01*
X415788Y367512D01*
X415788Y368500D02*
X423748Y368500D01*
X423748Y369488D02*
X415788Y369488D01*
X415788Y370476D02*
X423748Y370476D01*
X423748Y371464D02*
X415788Y371464D01*
X415788Y372452D02*
X423748Y372452D01*
X423748Y373440D02*
X415788Y373440D01*
X415788Y374428D02*
X423748Y374428D01*
X436788Y377012D02*
X436788Y383972D01*
X444748Y383972D01*
X444748Y377012D01*
X436788Y377012D01*
X436788Y378000D02*
X444748Y378000D01*
X444748Y378988D02*
X436788Y378988D01*
X436788Y379976D02*
X444748Y379976D01*
X444748Y380964D02*
X436788Y380964D01*
X436788Y381952D02*
X444748Y381952D01*
X444748Y382940D02*
X436788Y382940D01*
X436788Y383928D02*
X444748Y383928D01*
X463540Y386258D02*
X463540Y393218D01*
X471500Y393218D01*
X471500Y386258D01*
X463540Y386258D01*
X463540Y387246D02*
X471500Y387246D01*
X471500Y388234D02*
X463540Y388234D01*
X463540Y389222D02*
X471500Y389222D01*
X471500Y390210D02*
X463540Y390210D01*
X463540Y391198D02*
X471500Y391198D01*
X471500Y392186D02*
X463540Y392186D01*
X463540Y393174D02*
X471500Y393174D01*
X463540Y374218D02*
X463540Y367258D01*
X463540Y374218D02*
X471500Y374218D01*
X471500Y367258D01*
X463540Y367258D01*
X463540Y368246D02*
X471500Y368246D01*
X471500Y369234D02*
X463540Y369234D01*
X463540Y370222D02*
X471500Y370222D01*
X471500Y371210D02*
X463540Y371210D01*
X463540Y372198D02*
X471500Y372198D01*
X471500Y373186D02*
X463540Y373186D01*
X463540Y374174D02*
X471500Y374174D01*
X484540Y376758D02*
X484540Y383718D01*
X492500Y383718D01*
X492500Y376758D01*
X484540Y376758D01*
X484540Y377746D02*
X492500Y377746D01*
X492500Y378734D02*
X484540Y378734D01*
X484540Y379722D02*
X492500Y379722D01*
X492500Y380710D02*
X484540Y380710D01*
X484540Y381698D02*
X492500Y381698D01*
X492500Y382686D02*
X484540Y382686D01*
X484540Y383674D02*
X492500Y383674D01*
X406410Y260680D02*
X406410Y253720D01*
X398450Y253720D01*
X398450Y260680D01*
X406410Y260680D01*
X406410Y254708D02*
X398450Y254708D01*
X398450Y255696D02*
X406410Y255696D01*
X406410Y256684D02*
X398450Y256684D01*
X398450Y257672D02*
X406410Y257672D01*
X406410Y258660D02*
X398450Y258660D01*
X398450Y259648D02*
X406410Y259648D01*
X406410Y260636D02*
X398450Y260636D01*
X406410Y272720D02*
X406410Y279680D01*
X406410Y272720D02*
X398450Y272720D01*
X398450Y279680D01*
X406410Y279680D01*
X406410Y273708D02*
X398450Y273708D01*
X398450Y274696D02*
X406410Y274696D01*
X406410Y275684D02*
X398450Y275684D01*
X398450Y276672D02*
X406410Y276672D01*
X406410Y277660D02*
X398450Y277660D01*
X398450Y278648D02*
X406410Y278648D01*
X406410Y279636D02*
X398450Y279636D01*
X385410Y270180D02*
X385410Y263220D01*
X377450Y263220D01*
X377450Y270180D01*
X385410Y270180D01*
X385410Y264208D02*
X377450Y264208D01*
X377450Y265196D02*
X385410Y265196D01*
X385410Y266184D02*
X377450Y266184D01*
X377450Y267172D02*
X385410Y267172D01*
X385410Y268160D02*
X377450Y268160D01*
X377450Y269148D02*
X385410Y269148D01*
X385410Y270136D02*
X377450Y270136D01*
D12*
X428680Y261930D02*
X428680Y251930D01*
X419680Y251930D01*
X419680Y261930D01*
X428680Y261930D01*
X428680Y252880D02*
X419680Y252880D01*
X419680Y253830D02*
X428680Y253830D01*
X428680Y254780D02*
X419680Y254780D01*
X419680Y255730D02*
X428680Y255730D01*
X428680Y256680D02*
X419680Y256680D01*
X419680Y257630D02*
X428680Y257630D01*
X428680Y258580D02*
X419680Y258580D01*
X419680Y259530D02*
X428680Y259530D01*
X428680Y260480D02*
X419680Y260480D01*
X419680Y261430D02*
X428680Y261430D01*
X428680Y268930D02*
X428680Y278930D01*
X428680Y268930D02*
X419680Y268930D01*
X419680Y278930D01*
X428680Y278930D01*
X428680Y269880D02*
X419680Y269880D01*
X419680Y270830D02*
X428680Y270830D01*
X428680Y271780D02*
X419680Y271780D01*
X419680Y272730D02*
X428680Y272730D01*
X428680Y273680D02*
X419680Y273680D01*
X419680Y274630D02*
X428680Y274630D01*
X428680Y275580D02*
X419680Y275580D01*
X419680Y276530D02*
X428680Y276530D01*
X428680Y277480D02*
X419680Y277480D01*
X419680Y278430D02*
X428680Y278430D01*
X456908Y144090D02*
X466908Y144090D01*
X456908Y144090D02*
X456908Y153090D01*
X466908Y153090D01*
X466908Y144090D01*
X466908Y145040D02*
X456908Y145040D01*
X456908Y145990D02*
X466908Y145990D01*
X466908Y146940D02*
X456908Y146940D01*
X456908Y147890D02*
X466908Y147890D01*
X466908Y148840D02*
X456908Y148840D01*
X456908Y149790D02*
X466908Y149790D01*
X466908Y150740D02*
X456908Y150740D01*
X456908Y151690D02*
X466908Y151690D01*
X466908Y152640D02*
X456908Y152640D01*
X473908Y144090D02*
X483908Y144090D01*
X473908Y144090D02*
X473908Y153090D01*
X483908Y153090D01*
X483908Y144090D01*
X483908Y145040D02*
X473908Y145040D01*
X473908Y145990D02*
X483908Y145990D01*
X483908Y146940D02*
X473908Y146940D01*
X473908Y147890D02*
X483908Y147890D01*
X483908Y148840D02*
X473908Y148840D01*
X473908Y149790D02*
X483908Y149790D01*
X483908Y150740D02*
X473908Y150740D01*
X473908Y151690D02*
X483908Y151690D01*
X483908Y152640D02*
X473908Y152640D01*
X457636Y366992D02*
X457636Y376992D01*
X457636Y366992D02*
X448636Y366992D01*
X448636Y376992D01*
X457636Y376992D01*
X457636Y367942D02*
X448636Y367942D01*
X448636Y368892D02*
X457636Y368892D01*
X457636Y369842D02*
X448636Y369842D01*
X448636Y370792D02*
X457636Y370792D01*
X457636Y371742D02*
X448636Y371742D01*
X448636Y372692D02*
X457636Y372692D01*
X457636Y373642D02*
X448636Y373642D01*
X448636Y374592D02*
X457636Y374592D01*
X457636Y375542D02*
X448636Y375542D01*
X448636Y376492D02*
X457636Y376492D01*
X457636Y383992D02*
X457636Y393992D01*
X457636Y383992D02*
X448636Y383992D01*
X448636Y393992D01*
X457636Y393992D01*
X457636Y384942D02*
X448636Y384942D01*
X448636Y385892D02*
X457636Y385892D01*
X457636Y386842D02*
X448636Y386842D01*
X448636Y387792D02*
X457636Y387792D01*
X457636Y388742D02*
X448636Y388742D01*
X448636Y389692D02*
X457636Y389692D01*
X457636Y390642D02*
X448636Y390642D01*
X448636Y391592D02*
X457636Y391592D01*
X457636Y392542D02*
X448636Y392542D01*
X448636Y393492D02*
X457636Y393492D01*
D18*
X432652Y118146D02*
X432652Y112854D01*
X425360Y112854D01*
X425360Y118146D01*
X432652Y118146D01*
X432652Y113812D02*
X425360Y113812D01*
X425360Y114770D02*
X432652Y114770D01*
X432652Y115728D02*
X425360Y115728D01*
X425360Y116686D02*
X432652Y116686D01*
X432652Y117644D02*
X425360Y117644D01*
X432652Y135854D02*
X432652Y141146D01*
X432652Y135854D02*
X425360Y135854D01*
X425360Y141146D01*
X432652Y141146D01*
X432652Y136812D02*
X425360Y136812D01*
X425360Y137770D02*
X432652Y137770D01*
X432652Y138728D02*
X425360Y138728D01*
X425360Y139686D02*
X432652Y139686D01*
X432652Y140644D02*
X425360Y140644D01*
M02*
