M48
;GenerationSoftware,Autodesk,EAGLE,9.6.2*%
;CreationDate,2023-05-04T19:33:00Z*%
FMAT,2
ICI,OFF
METRIC,TZ,000.000
T4C0.305
T3C0.650
T2C0.850
T1C1.016
%
G90
M71
T1
X50800Y19050
X21590Y34290
X2540Y30480
X2540Y27940
X2540Y25400
X2540Y22860
X2540Y20320
X34290Y44450
X2540Y17780
X2540Y15240
X2540Y12700
X2540Y10160
X34290Y49530
X34290Y46990
X50800Y21590
X34290Y41910
X34290Y39370
X34290Y36830
X34290Y34290
X34290Y31750
X34290Y29210
X34290Y26670
X21590Y49530
X21590Y46990
X21590Y44450
X21590Y41910
X21590Y39370
X21590Y36830
X21590Y31750
X21590Y29210
X21590Y26670
X50800Y24130
X50800Y26670
X50800Y29210
X50800Y31750
X50800Y34290
X50800Y36830
X50800Y41910
X50800Y44450
X50800Y46990
X50800Y49530
X50800Y52070
X50800Y54610
X2540Y54610
X2540Y52070
X2540Y49530
X2540Y46990
X2540Y44450
X2540Y41910
X2540Y39370
X2540Y36830
X2540Y33020
T2
X10160Y17550
X10160Y20550
X45212Y29869
X45212Y32869
X45212Y23217
X45212Y20217
T3
X31400Y4905
X37180Y4905
X18700Y4905
X24480Y4905
T4
X7112Y23749
X5080Y24511
X4572Y26416
X4013Y28651
X5029Y19355
X6477Y20320
X6477Y17780
X15621Y14732
X14605Y48133
X41377Y33147
X35992Y32106
X39954Y10643
X36144Y49860
X52705Y48692
X30683Y7137
X25349Y7112
X10033Y16510
X10160Y23520
X20447Y28473
X22758Y28499
X20472Y33528
X20447Y35027
X31750Y44907
X49149Y23089
X35611Y28550
X35687Y27203
X17805Y23520
X17780Y25400
X9728Y29388
X3251Y31775
X3835Y20930
X3175Y6477
X6223Y6604
X6223Y3683
X17018Y16434
X13081Y35839
X11546Y29169
X37643Y7061
X32258Y30429
X37465Y22657
X34290Y12725
X36119Y8179
X37262Y15037
X43561Y8458
X43586Y6985
X30455Y16688
X32258Y17882
X24994Y29870
X48971Y42316
X33299Y14097
X36551Y18009
X34188Y18161
X45263Y14046
X45161Y10846
X48870Y10922
X47828Y17526
X49022Y25857
X41377Y27000
X10871Y44475
X46126Y41224
X43967Y48006
X13564Y42393
X26365Y25806
X30886Y30226
X23368Y34696
X43815Y40056
X23063Y37389
X32766Y47117
X36678Y46558
X35331Y21539
X41631Y49352
X12954Y11709
X12217Y3962
X38481Y22250
X5969Y49479
X5969Y48768
X12954Y26162
X13132Y32334
X32893Y20574
X29718Y30226
X29718Y30988
X26670Y28702
X43815Y47244
X36957Y9652
X40640Y4318
X46101Y23368
X42901Y12370
X11506Y10262
X14910Y9728
X15773Y39599
X8966Y29439
X17018Y41210
X6909Y6604
X6985Y3708
X35941Y45974
X44450Y11430
X42920Y45733
X15342Y31801
X39475Y28321
X43053Y40005
X12065Y34032
X41910Y10160
X41300Y32156
X39268Y33210
X42697Y41250
X34620Y20625
X40183Y36271
X42291Y40107
X40869Y13259
X39802Y30023
X37465Y42062
X38735Y45085
X12421Y35306
X17018Y35687
X47092Y18034
X44701Y48006
X29007Y14249
X48006Y34925
X28575Y13589
X42748Y38049
X42520Y34950
X52388Y16193
X43053Y1143
X43917Y42062
X24816Y43307
X52476Y13589
X34315Y7671
X31471Y7620
X33038Y7061
X39370Y8509
X31750Y1270
X36830Y1270
X21793Y18161
X8382Y19050
X13970Y19050
X14057Y21550
X8382Y21590
X19050Y1270
X24130Y1270
X21590Y7620
X24460Y7569
X7112Y24638
X47647Y46965
X48895Y43040
X24790Y15951
X27940Y25019
X7391Y45085
X11405Y14757
X8890Y40640
X45415Y41554
X52578Y11074
X45999Y33909
X46025Y27407
X38100Y29210
X38100Y38608
X48362Y41732
X18669Y34290
X21015Y16043
X10668Y37211
X10351Y31026
X31115Y19558
X32893Y19558
X17018Y31242
X28702Y17907
X39929Y12192
X8433Y46126
X9957Y46101
X11481Y46076
X15773Y3226
X11201Y3962
X11151Y6299
X17247Y45872
X27940Y49530
X48260Y1270
X40386Y3073
X27940Y1270
X5080Y1270
X24740Y14427
X20066Y18212
X21895Y15062
X31750Y12700
X24130Y12700
X29718Y29464
X21590Y12700
X18288Y12319
X3175Y4191
X18364Y7010
X50800Y5080
X13894Y14935
X6960Y46152
X31115Y20574
X12776Y46101
X4166Y35712
X18080Y36256
X34442Y24054
X48844Y8560
X23724Y16840
X24359Y21412
X21793Y19837
X39497Y29261
X20193Y49022
X45720Y49530
X39243Y44450
X38684Y36043
X38989Y32131
X39243Y40132
X13335Y37973
X6858Y38100
X27940Y46355
X52578Y38481
X47473Y49530
X49149Y50038
X49911Y48260
X23114Y47625
X14453Y35992
X17272Y33528
X14696Y32116
X7315Y42596
M30