G04 EAGLE Gerber RS-274X export*
G75*
%MOMM*%
%FSLAX34Y34*%
%LPD*%
%INSoldermask Bottom*%
%IPPOS*%
%AMOC8*
5,1,8,0,0,1.08239X$1,22.5*%
G01*
%ADD10C,0.228344*%
%ADD11C,1.127000*%
%ADD12C,2.006600*%
%ADD13C,0.777000*%
%ADD14C,0.977000*%
%ADD15C,0.228600*%

G36*
X509970Y150507D02*
X509970Y150507D01*
X510036Y150509D01*
X510079Y150527D01*
X510126Y150535D01*
X510183Y150569D01*
X510243Y150594D01*
X510278Y150625D01*
X510319Y150650D01*
X510361Y150701D01*
X510409Y150745D01*
X510431Y150787D01*
X510460Y150824D01*
X510481Y150886D01*
X510512Y150945D01*
X510520Y150999D01*
X510532Y151036D01*
X510531Y151076D01*
X510539Y151130D01*
X510539Y153670D01*
X510528Y153735D01*
X510526Y153801D01*
X510508Y153844D01*
X510500Y153891D01*
X510466Y153948D01*
X510441Y154008D01*
X510410Y154043D01*
X510385Y154084D01*
X510334Y154126D01*
X510290Y154174D01*
X510248Y154196D01*
X510211Y154225D01*
X510149Y154246D01*
X510090Y154277D01*
X510036Y154285D01*
X509999Y154297D01*
X509959Y154296D01*
X509905Y154304D01*
X506095Y154304D01*
X506030Y154293D01*
X505964Y154291D01*
X505921Y154273D01*
X505874Y154265D01*
X505817Y154231D01*
X505757Y154206D01*
X505722Y154175D01*
X505681Y154150D01*
X505640Y154099D01*
X505591Y154055D01*
X505569Y154013D01*
X505540Y153976D01*
X505519Y153914D01*
X505488Y153855D01*
X505480Y153801D01*
X505468Y153764D01*
X505468Y153761D01*
X505469Y153724D01*
X505461Y153670D01*
X505461Y151130D01*
X505472Y151065D01*
X505474Y150999D01*
X505492Y150956D01*
X505500Y150909D01*
X505534Y150852D01*
X505559Y150792D01*
X505590Y150757D01*
X505615Y150716D01*
X505666Y150675D01*
X505710Y150626D01*
X505752Y150604D01*
X505789Y150575D01*
X505851Y150554D01*
X505910Y150523D01*
X505964Y150515D01*
X506001Y150503D01*
X506041Y150504D01*
X506095Y150496D01*
X509905Y150496D01*
X509970Y150507D01*
G37*
G36*
X509970Y125107D02*
X509970Y125107D01*
X510036Y125109D01*
X510079Y125127D01*
X510126Y125135D01*
X510183Y125169D01*
X510243Y125194D01*
X510278Y125225D01*
X510319Y125250D01*
X510361Y125301D01*
X510409Y125345D01*
X510431Y125387D01*
X510460Y125424D01*
X510481Y125486D01*
X510512Y125545D01*
X510520Y125599D01*
X510532Y125636D01*
X510531Y125676D01*
X510539Y125730D01*
X510539Y128270D01*
X510528Y128335D01*
X510526Y128401D01*
X510508Y128444D01*
X510500Y128491D01*
X510466Y128548D01*
X510441Y128608D01*
X510410Y128643D01*
X510385Y128684D01*
X510334Y128726D01*
X510290Y128774D01*
X510248Y128796D01*
X510211Y128825D01*
X510149Y128846D01*
X510090Y128877D01*
X510036Y128885D01*
X509999Y128897D01*
X509959Y128896D01*
X509905Y128904D01*
X506095Y128904D01*
X506030Y128893D01*
X505964Y128891D01*
X505921Y128873D01*
X505874Y128865D01*
X505817Y128831D01*
X505757Y128806D01*
X505722Y128775D01*
X505681Y128750D01*
X505640Y128699D01*
X505591Y128655D01*
X505569Y128613D01*
X505540Y128576D01*
X505519Y128514D01*
X505488Y128455D01*
X505480Y128401D01*
X505468Y128364D01*
X505468Y128361D01*
X505469Y128324D01*
X505461Y128270D01*
X505461Y125730D01*
X505472Y125665D01*
X505474Y125599D01*
X505492Y125556D01*
X505500Y125509D01*
X505534Y125452D01*
X505559Y125392D01*
X505590Y125357D01*
X505615Y125316D01*
X505666Y125275D01*
X505710Y125226D01*
X505752Y125204D01*
X505789Y125175D01*
X505851Y125154D01*
X505910Y125123D01*
X505964Y125115D01*
X506001Y125103D01*
X506041Y125104D01*
X506095Y125096D01*
X509905Y125096D01*
X509970Y125107D01*
G37*
G36*
X509970Y99707D02*
X509970Y99707D01*
X510036Y99709D01*
X510079Y99727D01*
X510126Y99735D01*
X510183Y99769D01*
X510243Y99794D01*
X510278Y99825D01*
X510319Y99850D01*
X510361Y99901D01*
X510409Y99945D01*
X510431Y99987D01*
X510460Y100024D01*
X510481Y100086D01*
X510512Y100145D01*
X510520Y100199D01*
X510532Y100236D01*
X510531Y100276D01*
X510539Y100330D01*
X510539Y102870D01*
X510528Y102935D01*
X510526Y103001D01*
X510508Y103044D01*
X510500Y103091D01*
X510466Y103148D01*
X510441Y103208D01*
X510410Y103243D01*
X510385Y103284D01*
X510334Y103326D01*
X510290Y103374D01*
X510248Y103396D01*
X510211Y103425D01*
X510149Y103446D01*
X510090Y103477D01*
X510036Y103485D01*
X509999Y103497D01*
X509959Y103496D01*
X509905Y103504D01*
X506095Y103504D01*
X506030Y103493D01*
X505964Y103491D01*
X505921Y103473D01*
X505874Y103465D01*
X505817Y103431D01*
X505757Y103406D01*
X505722Y103375D01*
X505681Y103350D01*
X505640Y103299D01*
X505591Y103255D01*
X505569Y103213D01*
X505540Y103176D01*
X505519Y103114D01*
X505488Y103055D01*
X505480Y103001D01*
X505468Y102964D01*
X505468Y102961D01*
X505469Y102924D01*
X505461Y102870D01*
X505461Y100330D01*
X505472Y100265D01*
X505474Y100199D01*
X505492Y100156D01*
X505500Y100109D01*
X505534Y100052D01*
X505559Y99992D01*
X505590Y99957D01*
X505615Y99916D01*
X505666Y99875D01*
X505710Y99826D01*
X505752Y99804D01*
X505789Y99775D01*
X505851Y99754D01*
X505910Y99723D01*
X505964Y99715D01*
X506001Y99703D01*
X506041Y99704D01*
X506095Y99696D01*
X509905Y99696D01*
X509970Y99707D01*
G37*
G36*
X134050Y87007D02*
X134050Y87007D01*
X134116Y87009D01*
X134159Y87027D01*
X134206Y87035D01*
X134263Y87069D01*
X134323Y87094D01*
X134358Y87125D01*
X134399Y87150D01*
X134441Y87201D01*
X134489Y87245D01*
X134511Y87287D01*
X134540Y87324D01*
X134561Y87386D01*
X134592Y87445D01*
X134600Y87499D01*
X134612Y87536D01*
X134611Y87576D01*
X134619Y87630D01*
X134619Y90170D01*
X134608Y90235D01*
X134606Y90301D01*
X134588Y90344D01*
X134580Y90391D01*
X134546Y90448D01*
X134521Y90508D01*
X134490Y90543D01*
X134465Y90584D01*
X134414Y90626D01*
X134370Y90674D01*
X134328Y90696D01*
X134291Y90725D01*
X134229Y90746D01*
X134170Y90777D01*
X134116Y90785D01*
X134079Y90797D01*
X134039Y90796D01*
X133985Y90804D01*
X130175Y90804D01*
X130110Y90793D01*
X130044Y90791D01*
X130001Y90773D01*
X129954Y90765D01*
X129897Y90731D01*
X129837Y90706D01*
X129802Y90675D01*
X129761Y90650D01*
X129720Y90599D01*
X129671Y90555D01*
X129649Y90513D01*
X129620Y90476D01*
X129599Y90414D01*
X129568Y90355D01*
X129560Y90301D01*
X129548Y90264D01*
X129548Y90261D01*
X129549Y90224D01*
X129541Y90170D01*
X129541Y87630D01*
X129552Y87565D01*
X129554Y87499D01*
X129572Y87456D01*
X129580Y87409D01*
X129614Y87352D01*
X129639Y87292D01*
X129670Y87257D01*
X129695Y87216D01*
X129746Y87175D01*
X129790Y87126D01*
X129832Y87104D01*
X129869Y87075D01*
X129931Y87054D01*
X129990Y87023D01*
X130044Y87015D01*
X130081Y87003D01*
X130121Y87004D01*
X130175Y86996D01*
X133985Y86996D01*
X134050Y87007D01*
G37*
G36*
X123890Y87007D02*
X123890Y87007D01*
X123956Y87009D01*
X123999Y87027D01*
X124046Y87035D01*
X124103Y87069D01*
X124163Y87094D01*
X124198Y87125D01*
X124239Y87150D01*
X124281Y87201D01*
X124329Y87245D01*
X124351Y87287D01*
X124380Y87324D01*
X124401Y87386D01*
X124432Y87445D01*
X124440Y87499D01*
X124452Y87536D01*
X124451Y87576D01*
X124459Y87630D01*
X124459Y90170D01*
X124448Y90235D01*
X124446Y90301D01*
X124428Y90344D01*
X124420Y90391D01*
X124386Y90448D01*
X124361Y90508D01*
X124330Y90543D01*
X124305Y90584D01*
X124254Y90626D01*
X124210Y90674D01*
X124168Y90696D01*
X124131Y90725D01*
X124069Y90746D01*
X124010Y90777D01*
X123956Y90785D01*
X123919Y90797D01*
X123879Y90796D01*
X123825Y90804D01*
X120015Y90804D01*
X119950Y90793D01*
X119884Y90791D01*
X119841Y90773D01*
X119794Y90765D01*
X119737Y90731D01*
X119677Y90706D01*
X119642Y90675D01*
X119601Y90650D01*
X119560Y90599D01*
X119511Y90555D01*
X119489Y90513D01*
X119460Y90476D01*
X119439Y90414D01*
X119408Y90355D01*
X119400Y90301D01*
X119388Y90264D01*
X119388Y90261D01*
X119389Y90224D01*
X119381Y90170D01*
X119381Y87630D01*
X119392Y87565D01*
X119394Y87499D01*
X119412Y87456D01*
X119420Y87409D01*
X119454Y87352D01*
X119479Y87292D01*
X119510Y87257D01*
X119535Y87216D01*
X119586Y87175D01*
X119630Y87126D01*
X119672Y87104D01*
X119709Y87075D01*
X119771Y87054D01*
X119830Y87023D01*
X119884Y87015D01*
X119921Y87003D01*
X119961Y87004D01*
X120015Y86996D01*
X123825Y86996D01*
X123890Y87007D01*
G37*
G36*
X174436Y30619D02*
X174436Y30619D01*
X174502Y30621D01*
X174545Y30639D01*
X174592Y30647D01*
X174649Y30681D01*
X174709Y30706D01*
X174744Y30737D01*
X174785Y30762D01*
X174827Y30813D01*
X174875Y30857D01*
X174897Y30899D01*
X174926Y30936D01*
X174947Y30998D01*
X174978Y31057D01*
X174986Y31111D01*
X174998Y31148D01*
X174997Y31188D01*
X175005Y31242D01*
X175005Y33782D01*
X174994Y33847D01*
X174992Y33913D01*
X174974Y33956D01*
X174966Y34003D01*
X174932Y34060D01*
X174907Y34120D01*
X174876Y34155D01*
X174851Y34196D01*
X174800Y34238D01*
X174756Y34286D01*
X174714Y34308D01*
X174677Y34337D01*
X174615Y34358D01*
X174556Y34389D01*
X174502Y34397D01*
X174465Y34409D01*
X174425Y34408D01*
X174371Y34416D01*
X170561Y34416D01*
X170496Y34405D01*
X170430Y34403D01*
X170387Y34385D01*
X170340Y34377D01*
X170283Y34343D01*
X170223Y34318D01*
X170188Y34287D01*
X170147Y34262D01*
X170106Y34211D01*
X170057Y34167D01*
X170035Y34125D01*
X170006Y34088D01*
X169985Y34026D01*
X169954Y33967D01*
X169946Y33913D01*
X169934Y33876D01*
X169934Y33873D01*
X169935Y33836D01*
X169927Y33782D01*
X169927Y31242D01*
X169938Y31177D01*
X169940Y31111D01*
X169958Y31068D01*
X169966Y31021D01*
X170000Y30964D01*
X170025Y30904D01*
X170056Y30869D01*
X170081Y30828D01*
X170132Y30787D01*
X170176Y30738D01*
X170218Y30716D01*
X170255Y30687D01*
X170317Y30666D01*
X170376Y30635D01*
X170430Y30627D01*
X170467Y30615D01*
X170507Y30616D01*
X170561Y30608D01*
X174371Y30608D01*
X174436Y30619D01*
G37*
G36*
X389574Y28841D02*
X389574Y28841D01*
X389640Y28843D01*
X389683Y28861D01*
X389730Y28869D01*
X389787Y28903D01*
X389847Y28928D01*
X389882Y28959D01*
X389923Y28984D01*
X389965Y29035D01*
X390013Y29079D01*
X390035Y29121D01*
X390064Y29158D01*
X390085Y29220D01*
X390116Y29279D01*
X390124Y29333D01*
X390136Y29370D01*
X390135Y29410D01*
X390143Y29464D01*
X390143Y32004D01*
X390132Y32069D01*
X390130Y32135D01*
X390112Y32178D01*
X390104Y32225D01*
X390070Y32282D01*
X390045Y32342D01*
X390014Y32377D01*
X389989Y32418D01*
X389938Y32460D01*
X389894Y32508D01*
X389852Y32530D01*
X389815Y32559D01*
X389753Y32580D01*
X389694Y32611D01*
X389640Y32619D01*
X389603Y32631D01*
X389563Y32630D01*
X389509Y32638D01*
X385699Y32638D01*
X385634Y32627D01*
X385568Y32625D01*
X385525Y32607D01*
X385478Y32599D01*
X385421Y32565D01*
X385361Y32540D01*
X385326Y32509D01*
X385285Y32484D01*
X385244Y32433D01*
X385195Y32389D01*
X385173Y32347D01*
X385144Y32310D01*
X385123Y32248D01*
X385092Y32189D01*
X385084Y32135D01*
X385072Y32098D01*
X385072Y32095D01*
X385073Y32058D01*
X385065Y32004D01*
X385065Y29464D01*
X385076Y29399D01*
X385078Y29333D01*
X385096Y29290D01*
X385104Y29243D01*
X385138Y29186D01*
X385163Y29126D01*
X385194Y29091D01*
X385219Y29050D01*
X385270Y29009D01*
X385314Y28960D01*
X385356Y28938D01*
X385393Y28909D01*
X385455Y28888D01*
X385514Y28857D01*
X385568Y28849D01*
X385605Y28837D01*
X385645Y28838D01*
X385699Y28830D01*
X389509Y28830D01*
X389574Y28841D01*
G37*
G36*
X422594Y28587D02*
X422594Y28587D01*
X422660Y28589D01*
X422703Y28607D01*
X422750Y28615D01*
X422807Y28649D01*
X422867Y28674D01*
X422902Y28705D01*
X422943Y28730D01*
X422985Y28781D01*
X423033Y28825D01*
X423055Y28867D01*
X423084Y28904D01*
X423105Y28966D01*
X423136Y29025D01*
X423144Y29079D01*
X423156Y29116D01*
X423155Y29156D01*
X423163Y29210D01*
X423163Y31750D01*
X423152Y31815D01*
X423150Y31881D01*
X423132Y31924D01*
X423124Y31971D01*
X423090Y32028D01*
X423065Y32088D01*
X423034Y32123D01*
X423009Y32164D01*
X422958Y32206D01*
X422914Y32254D01*
X422872Y32276D01*
X422835Y32305D01*
X422773Y32326D01*
X422714Y32357D01*
X422660Y32365D01*
X422623Y32377D01*
X422583Y32376D01*
X422529Y32384D01*
X418719Y32384D01*
X418654Y32373D01*
X418588Y32371D01*
X418545Y32353D01*
X418498Y32345D01*
X418441Y32311D01*
X418381Y32286D01*
X418346Y32255D01*
X418305Y32230D01*
X418264Y32179D01*
X418215Y32135D01*
X418193Y32093D01*
X418164Y32056D01*
X418143Y31994D01*
X418112Y31935D01*
X418104Y31881D01*
X418092Y31844D01*
X418092Y31841D01*
X418093Y31804D01*
X418085Y31750D01*
X418085Y29210D01*
X418096Y29145D01*
X418098Y29079D01*
X418116Y29036D01*
X418124Y28989D01*
X418158Y28932D01*
X418183Y28872D01*
X418214Y28837D01*
X418239Y28796D01*
X418290Y28755D01*
X418334Y28706D01*
X418376Y28684D01*
X418413Y28655D01*
X418475Y28634D01*
X418534Y28603D01*
X418588Y28595D01*
X418625Y28583D01*
X418665Y28584D01*
X418719Y28576D01*
X422529Y28576D01*
X422594Y28587D01*
G37*
D10*
X134618Y94744D02*
X140210Y94744D01*
X140210Y83056D01*
X134618Y83056D01*
X134618Y94744D01*
X134618Y85225D02*
X140210Y85225D01*
X140210Y87394D02*
X134618Y87394D01*
X134618Y89563D02*
X140210Y89563D01*
X140210Y91732D02*
X134618Y91732D01*
X134618Y93901D02*
X140210Y93901D01*
X129796Y94744D02*
X124204Y94744D01*
X129796Y94744D02*
X129796Y83056D01*
X124204Y83056D01*
X124204Y94744D01*
X124204Y85225D02*
X129796Y85225D01*
X129796Y87394D02*
X124204Y87394D01*
X124204Y89563D02*
X129796Y89563D01*
X129796Y91732D02*
X124204Y91732D01*
X124204Y93901D02*
X129796Y93901D01*
X119382Y94744D02*
X113790Y94744D01*
X119382Y94744D02*
X119382Y83056D01*
X113790Y83056D01*
X113790Y94744D01*
X113790Y85225D02*
X119382Y85225D01*
X119382Y87394D02*
X113790Y87394D01*
X113790Y89563D02*
X119382Y89563D01*
X119382Y91732D02*
X113790Y91732D01*
X113790Y93901D02*
X119382Y93901D01*
D11*
X50800Y558800D03*
X444500Y15240D03*
D12*
X342900Y495300D03*
X342900Y469900D03*
X342900Y444500D03*
X342900Y419100D03*
X342900Y393700D03*
X342900Y368300D03*
X342900Y342900D03*
X342900Y317500D03*
X342900Y292100D03*
X342900Y266700D03*
X215900Y495300D03*
X215900Y469900D03*
X215900Y444500D03*
X215900Y419100D03*
X215900Y393700D03*
X215900Y368300D03*
X215900Y342900D03*
X215900Y317500D03*
X215900Y292100D03*
X215900Y266700D03*
D10*
X412621Y24636D02*
X418213Y24636D01*
X412621Y24636D02*
X412621Y36324D01*
X418213Y36324D01*
X418213Y24636D01*
X418213Y26805D02*
X412621Y26805D01*
X412621Y28974D02*
X418213Y28974D01*
X418213Y31143D02*
X412621Y31143D01*
X412621Y33312D02*
X418213Y33312D01*
X418213Y35481D02*
X412621Y35481D01*
X423035Y24636D02*
X428627Y24636D01*
X423035Y24636D02*
X423035Y36324D01*
X428627Y36324D01*
X428627Y24636D01*
X428627Y26805D02*
X423035Y26805D01*
X423035Y28974D02*
X428627Y28974D01*
X428627Y31143D02*
X423035Y31143D01*
X423035Y33312D02*
X428627Y33312D01*
X428627Y35481D02*
X423035Y35481D01*
X499997Y146556D02*
X505589Y146556D01*
X499997Y146556D02*
X499997Y158244D01*
X505589Y158244D01*
X505589Y146556D01*
X505589Y148725D02*
X499997Y148725D01*
X499997Y150894D02*
X505589Y150894D01*
X505589Y153063D02*
X499997Y153063D01*
X499997Y155232D02*
X505589Y155232D01*
X505589Y157401D02*
X499997Y157401D01*
X510411Y146556D02*
X516003Y146556D01*
X510411Y146556D02*
X510411Y158244D01*
X516003Y158244D01*
X516003Y146556D01*
X516003Y148725D02*
X510411Y148725D01*
X510411Y150894D02*
X516003Y150894D01*
X516003Y153063D02*
X510411Y153063D01*
X510411Y155232D02*
X516003Y155232D01*
X516003Y157401D02*
X510411Y157401D01*
X505589Y121156D02*
X499997Y121156D01*
X499997Y132844D01*
X505589Y132844D01*
X505589Y121156D01*
X505589Y123325D02*
X499997Y123325D01*
X499997Y125494D02*
X505589Y125494D01*
X505589Y127663D02*
X499997Y127663D01*
X499997Y129832D02*
X505589Y129832D01*
X505589Y132001D02*
X499997Y132001D01*
X510411Y121156D02*
X516003Y121156D01*
X510411Y121156D02*
X510411Y132844D01*
X516003Y132844D01*
X516003Y121156D01*
X516003Y123325D02*
X510411Y123325D01*
X510411Y125494D02*
X516003Y125494D01*
X516003Y127663D02*
X510411Y127663D01*
X510411Y129832D02*
X516003Y129832D01*
X516003Y132001D02*
X510411Y132001D01*
D13*
X314000Y49050D03*
X371800Y49050D03*
D10*
X390015Y36578D02*
X395607Y36578D01*
X395607Y24890D01*
X390015Y24890D01*
X390015Y36578D01*
X390015Y27059D02*
X395607Y27059D01*
X395607Y29228D02*
X390015Y29228D01*
X390015Y31397D02*
X395607Y31397D01*
X395607Y33566D02*
X390015Y33566D01*
X390015Y35735D02*
X395607Y35735D01*
X385193Y36578D02*
X379601Y36578D01*
X385193Y36578D02*
X385193Y24890D01*
X379601Y24890D01*
X379601Y36578D01*
X379601Y27059D02*
X385193Y27059D01*
X385193Y29228D02*
X379601Y29228D01*
X379601Y31397D02*
X385193Y31397D01*
X385193Y33566D02*
X379601Y33566D01*
X379601Y35735D02*
X385193Y35735D01*
D12*
X508000Y241300D03*
X508000Y266700D03*
X508000Y292100D03*
X508000Y317500D03*
X508000Y342900D03*
X508000Y368300D03*
X508000Y419100D03*
X508000Y444500D03*
X508000Y469900D03*
X508000Y495300D03*
X508000Y520700D03*
X508000Y546100D03*
X25400Y546100D03*
X25400Y520700D03*
X25400Y495300D03*
X25400Y469900D03*
X25400Y444500D03*
X25400Y419100D03*
X25400Y393700D03*
X25400Y368300D03*
X25400Y330200D03*
X25400Y304800D03*
X25400Y279400D03*
X25400Y254000D03*
X25400Y228600D03*
X25400Y203200D03*
X25400Y177800D03*
X25400Y152400D03*
X25400Y127000D03*
X25400Y101600D03*
X508000Y215900D03*
X508000Y190500D03*
D14*
X101600Y175500D03*
X101600Y205500D03*
D13*
X187000Y49050D03*
X244800Y49050D03*
D10*
X170055Y26668D02*
X164463Y26668D01*
X164463Y38356D01*
X170055Y38356D01*
X170055Y26668D01*
X170055Y28837D02*
X164463Y28837D01*
X164463Y31006D02*
X170055Y31006D01*
X170055Y33175D02*
X164463Y33175D01*
X164463Y35344D02*
X170055Y35344D01*
X170055Y37513D02*
X164463Y37513D01*
X174877Y26668D02*
X180469Y26668D01*
X174877Y26668D02*
X174877Y38356D01*
X180469Y38356D01*
X180469Y26668D01*
X180469Y28837D02*
X174877Y28837D01*
X174877Y31006D02*
X180469Y31006D01*
X180469Y33175D02*
X174877Y33175D01*
X174877Y35344D02*
X180469Y35344D01*
X180469Y37513D02*
X174877Y37513D01*
D15*
X457962Y243205D02*
X457962Y248539D01*
X457962Y243205D02*
X446278Y243205D01*
X446278Y248539D01*
X457962Y248539D01*
X457962Y245377D02*
X446278Y245377D01*
X446278Y247549D02*
X457962Y247549D01*
X457962Y251333D02*
X457962Y256667D01*
X457962Y251333D02*
X446278Y251333D01*
X446278Y256667D01*
X457962Y256667D01*
X457962Y253505D02*
X446278Y253505D01*
X446278Y255677D02*
X457962Y255677D01*
X457962Y259461D02*
X457962Y264795D01*
X457962Y259461D02*
X446278Y259461D01*
X446278Y264795D01*
X457962Y264795D01*
X457962Y261633D02*
X446278Y261633D01*
X446278Y263805D02*
X457962Y263805D01*
D10*
X499997Y95756D02*
X505589Y95756D01*
X499997Y95756D02*
X499997Y107444D01*
X505589Y107444D01*
X505589Y95756D01*
X505589Y97925D02*
X499997Y97925D01*
X499997Y100094D02*
X505589Y100094D01*
X505589Y102263D02*
X499997Y102263D01*
X499997Y104432D02*
X505589Y104432D01*
X505589Y106601D02*
X499997Y106601D01*
X510411Y95756D02*
X516003Y95756D01*
X510411Y95756D02*
X510411Y107444D01*
X516003Y107444D01*
X516003Y95756D01*
X516003Y97925D02*
X510411Y97925D01*
X510411Y100094D02*
X516003Y100094D01*
X516003Y102263D02*
X510411Y102263D01*
X510411Y104432D02*
X516003Y104432D01*
X516003Y106601D02*
X510411Y106601D01*
D14*
X452120Y298690D03*
X452120Y328690D03*
X452120Y232170D03*
X452120Y202170D03*
M02*
