G04 EAGLE Gerber RS-274X export*
G75*
%MOMM*%
%FSLAX34Y34*%
%LPD*%
%INInner Layer 15*%
%IPPOS*%
%AMOC8*
5,1,8,0,0,1.08239X$1,22.5*%
G01*
%ADD10C,0.279400*%
%ADD11C,1.524000*%
%ADD12C,0.558800*%
%ADD13C,0.254000*%
%ADD14C,0.762000*%

G36*
X166621Y2810D02*
X166621Y2810D01*
X166740Y2817D01*
X166778Y2830D01*
X166819Y2835D01*
X166929Y2878D01*
X167042Y2915D01*
X167077Y2937D01*
X167114Y2952D01*
X167210Y3021D01*
X167311Y3085D01*
X167339Y3115D01*
X167372Y3138D01*
X167448Y3230D01*
X167529Y3317D01*
X167549Y3352D01*
X167574Y3383D01*
X167625Y3491D01*
X167683Y3595D01*
X167693Y3635D01*
X167710Y3671D01*
X167732Y3788D01*
X167762Y3903D01*
X167766Y3963D01*
X167770Y3983D01*
X167768Y4004D01*
X167772Y4064D01*
X167772Y20553D01*
X167847Y20628D01*
X177953Y20628D01*
X178028Y20553D01*
X178028Y4064D01*
X178043Y3946D01*
X178050Y3827D01*
X178063Y3789D01*
X178068Y3748D01*
X178111Y3638D01*
X178148Y3525D01*
X178170Y3490D01*
X178185Y3453D01*
X178254Y3357D01*
X178318Y3256D01*
X178348Y3228D01*
X178371Y3195D01*
X178463Y3119D01*
X178550Y3038D01*
X178585Y3018D01*
X178616Y2993D01*
X178724Y2942D01*
X178828Y2884D01*
X178868Y2874D01*
X178904Y2857D01*
X179021Y2835D01*
X179136Y2805D01*
X179196Y2801D01*
X179216Y2797D01*
X179237Y2799D01*
X179297Y2795D01*
X252503Y2795D01*
X252621Y2810D01*
X252740Y2817D01*
X252778Y2830D01*
X252819Y2835D01*
X252929Y2878D01*
X253042Y2915D01*
X253077Y2937D01*
X253114Y2952D01*
X253210Y3021D01*
X253311Y3085D01*
X253339Y3115D01*
X253372Y3138D01*
X253448Y3230D01*
X253529Y3317D01*
X253549Y3352D01*
X253574Y3383D01*
X253625Y3491D01*
X253683Y3595D01*
X253693Y3635D01*
X253710Y3671D01*
X253732Y3788D01*
X253762Y3903D01*
X253766Y3963D01*
X253770Y3983D01*
X253768Y4004D01*
X253772Y4064D01*
X253772Y20553D01*
X253847Y20628D01*
X263953Y20628D01*
X264028Y20553D01*
X264028Y4064D01*
X264043Y3946D01*
X264050Y3827D01*
X264063Y3789D01*
X264068Y3748D01*
X264111Y3638D01*
X264148Y3525D01*
X264170Y3490D01*
X264185Y3453D01*
X264254Y3357D01*
X264318Y3256D01*
X264348Y3228D01*
X264371Y3195D01*
X264463Y3119D01*
X264550Y3038D01*
X264585Y3018D01*
X264616Y2993D01*
X264724Y2942D01*
X264828Y2884D01*
X264868Y2874D01*
X264904Y2857D01*
X265021Y2835D01*
X265136Y2805D01*
X265196Y2801D01*
X265216Y2797D01*
X265237Y2799D01*
X265297Y2795D01*
X293503Y2795D01*
X293621Y2810D01*
X293740Y2817D01*
X293778Y2830D01*
X293819Y2835D01*
X293929Y2878D01*
X294042Y2915D01*
X294077Y2937D01*
X294114Y2952D01*
X294210Y3021D01*
X294311Y3085D01*
X294339Y3115D01*
X294372Y3138D01*
X294448Y3230D01*
X294529Y3317D01*
X294549Y3352D01*
X294574Y3383D01*
X294625Y3491D01*
X294683Y3595D01*
X294693Y3635D01*
X294710Y3671D01*
X294732Y3788D01*
X294762Y3903D01*
X294766Y3963D01*
X294770Y3983D01*
X294768Y4004D01*
X294772Y4064D01*
X294772Y20553D01*
X294847Y20628D01*
X304953Y20628D01*
X305028Y20553D01*
X305028Y4064D01*
X305043Y3946D01*
X305050Y3827D01*
X305063Y3789D01*
X305068Y3748D01*
X305111Y3638D01*
X305148Y3525D01*
X305170Y3490D01*
X305185Y3453D01*
X305254Y3357D01*
X305318Y3256D01*
X305348Y3228D01*
X305371Y3195D01*
X305463Y3119D01*
X305550Y3038D01*
X305585Y3018D01*
X305616Y2993D01*
X305724Y2942D01*
X305828Y2884D01*
X305868Y2874D01*
X305904Y2857D01*
X306021Y2835D01*
X306136Y2805D01*
X306196Y2801D01*
X306216Y2797D01*
X306237Y2799D01*
X306297Y2795D01*
X379503Y2795D01*
X379621Y2810D01*
X379740Y2817D01*
X379778Y2830D01*
X379819Y2835D01*
X379929Y2878D01*
X380042Y2915D01*
X380077Y2937D01*
X380114Y2952D01*
X380210Y3021D01*
X380311Y3085D01*
X380339Y3115D01*
X380372Y3138D01*
X380448Y3230D01*
X380529Y3317D01*
X380549Y3352D01*
X380574Y3383D01*
X380625Y3491D01*
X380683Y3595D01*
X380693Y3635D01*
X380710Y3671D01*
X380732Y3788D01*
X380762Y3903D01*
X380766Y3963D01*
X380770Y3983D01*
X380768Y4004D01*
X380772Y4064D01*
X380772Y20553D01*
X380847Y20628D01*
X390953Y20628D01*
X391028Y20553D01*
X391028Y4064D01*
X391043Y3946D01*
X391050Y3827D01*
X391063Y3789D01*
X391068Y3748D01*
X391111Y3638D01*
X391148Y3525D01*
X391170Y3490D01*
X391185Y3453D01*
X391254Y3357D01*
X391318Y3256D01*
X391348Y3228D01*
X391371Y3195D01*
X391463Y3119D01*
X391550Y3038D01*
X391585Y3018D01*
X391616Y2993D01*
X391724Y2942D01*
X391828Y2884D01*
X391868Y2874D01*
X391904Y2857D01*
X392021Y2835D01*
X392136Y2805D01*
X392196Y2801D01*
X392216Y2797D01*
X392237Y2799D01*
X392297Y2795D01*
X506317Y2795D01*
X506415Y2807D01*
X506514Y2810D01*
X506572Y2827D01*
X506632Y2835D01*
X506724Y2871D01*
X506819Y2899D01*
X506872Y2929D01*
X506928Y2952D01*
X507008Y3010D01*
X507093Y3060D01*
X507169Y3126D01*
X507185Y3138D01*
X507193Y3148D01*
X507214Y3166D01*
X530234Y26186D01*
X530294Y26264D01*
X530362Y26336D01*
X530391Y26389D01*
X530428Y26437D01*
X530468Y26528D01*
X530516Y26615D01*
X530531Y26673D01*
X530555Y26729D01*
X530570Y26827D01*
X530595Y26923D01*
X530601Y27023D01*
X530605Y27043D01*
X530603Y27055D01*
X530605Y27083D01*
X530605Y106757D01*
X530588Y106895D01*
X530575Y107033D01*
X530568Y107052D01*
X530565Y107072D01*
X530514Y107201D01*
X530467Y107332D01*
X530456Y107349D01*
X530448Y107368D01*
X530367Y107480D01*
X530289Y107595D01*
X530273Y107609D01*
X530262Y107625D01*
X530154Y107714D01*
X530050Y107806D01*
X530032Y107815D01*
X530017Y107828D01*
X529891Y107887D01*
X529767Y107950D01*
X529747Y107955D01*
X529729Y107964D01*
X529592Y107990D01*
X529457Y108020D01*
X529436Y108020D01*
X529417Y108023D01*
X529278Y108015D01*
X529139Y108010D01*
X529119Y108005D01*
X529099Y108004D01*
X528967Y107961D01*
X528833Y107922D01*
X528816Y107912D01*
X528797Y107906D01*
X528679Y107831D01*
X528559Y107761D01*
X528538Y107742D01*
X528528Y107735D01*
X528514Y107720D01*
X528439Y107654D01*
X527464Y106679D01*
X524096Y106679D01*
X521715Y109060D01*
X521715Y112428D01*
X524096Y114809D01*
X527464Y114809D01*
X528439Y113834D01*
X528548Y113749D01*
X528655Y113660D01*
X528674Y113651D01*
X528690Y113639D01*
X528817Y113584D01*
X528943Y113524D01*
X528963Y113521D01*
X528982Y113513D01*
X529120Y113491D01*
X529256Y113465D01*
X529276Y113466D01*
X529296Y113463D01*
X529435Y113476D01*
X529573Y113484D01*
X529592Y113491D01*
X529612Y113493D01*
X529744Y113540D01*
X529875Y113582D01*
X529893Y113593D01*
X529912Y113600D01*
X530027Y113678D01*
X530144Y113753D01*
X530158Y113767D01*
X530175Y113779D01*
X530267Y113883D01*
X530362Y113984D01*
X530372Y114002D01*
X530385Y114017D01*
X530449Y114141D01*
X530516Y114263D01*
X530521Y114282D01*
X530530Y114300D01*
X530560Y114436D01*
X530595Y114571D01*
X530597Y114599D01*
X530600Y114611D01*
X530599Y114631D01*
X530605Y114731D01*
X530605Y132919D01*
X530588Y133056D01*
X530575Y133195D01*
X530568Y133214D01*
X530565Y133234D01*
X530514Y133363D01*
X530467Y133494D01*
X530456Y133511D01*
X530448Y133530D01*
X530367Y133642D01*
X530289Y133757D01*
X530273Y133771D01*
X530262Y133787D01*
X530154Y133876D01*
X530050Y133968D01*
X530032Y133977D01*
X530017Y133990D01*
X529891Y134049D01*
X529767Y134112D01*
X529747Y134117D01*
X529729Y134126D01*
X529593Y134152D01*
X529457Y134182D01*
X529436Y134182D01*
X529417Y134185D01*
X529278Y134177D01*
X529139Y134172D01*
X529119Y134167D01*
X529099Y134166D01*
X528967Y134123D01*
X528833Y134084D01*
X528816Y134074D01*
X528797Y134068D01*
X528679Y133993D01*
X528559Y133923D01*
X528538Y133904D01*
X528528Y133897D01*
X528514Y133882D01*
X528439Y133816D01*
X526448Y131825D01*
X523080Y131825D01*
X520699Y134206D01*
X520699Y137574D01*
X523080Y139955D01*
X526448Y139955D01*
X528439Y137964D01*
X528548Y137879D01*
X528655Y137790D01*
X528674Y137781D01*
X528690Y137769D01*
X528818Y137713D01*
X528943Y137654D01*
X528963Y137651D01*
X528982Y137643D01*
X529120Y137621D01*
X529256Y137595D01*
X529276Y137596D01*
X529296Y137593D01*
X529435Y137606D01*
X529573Y137614D01*
X529592Y137621D01*
X529612Y137623D01*
X529744Y137670D01*
X529875Y137712D01*
X529893Y137723D01*
X529912Y137730D01*
X530027Y137808D01*
X530144Y137883D01*
X530158Y137897D01*
X530175Y137909D01*
X530267Y138013D01*
X530362Y138114D01*
X530372Y138132D01*
X530385Y138147D01*
X530449Y138271D01*
X530516Y138393D01*
X530521Y138412D01*
X530530Y138430D01*
X530560Y138566D01*
X530595Y138701D01*
X530597Y138729D01*
X530600Y138741D01*
X530599Y138761D01*
X530605Y138861D01*
X530605Y380823D01*
X530588Y380961D01*
X530575Y381099D01*
X530568Y381118D01*
X530565Y381138D01*
X530514Y381267D01*
X530467Y381398D01*
X530456Y381415D01*
X530448Y381434D01*
X530367Y381546D01*
X530289Y381661D01*
X530273Y381675D01*
X530262Y381691D01*
X530154Y381780D01*
X530050Y381872D01*
X530032Y381881D01*
X530017Y381894D01*
X529891Y381953D01*
X529767Y382016D01*
X529747Y382021D01*
X529729Y382030D01*
X529592Y382056D01*
X529457Y382086D01*
X529436Y382086D01*
X529417Y382089D01*
X529278Y382081D01*
X529139Y382076D01*
X529119Y382071D01*
X529099Y382070D01*
X528967Y382027D01*
X528833Y381988D01*
X528816Y381978D01*
X528797Y381972D01*
X528679Y381897D01*
X528559Y381827D01*
X528538Y381808D01*
X528528Y381801D01*
X528514Y381786D01*
X528439Y381720D01*
X527464Y380745D01*
X524096Y380745D01*
X521715Y383126D01*
X521715Y386494D01*
X524096Y388875D01*
X527464Y388875D01*
X528439Y387900D01*
X528548Y387815D01*
X528655Y387726D01*
X528674Y387717D01*
X528690Y387705D01*
X528817Y387650D01*
X528943Y387590D01*
X528963Y387587D01*
X528982Y387579D01*
X529120Y387557D01*
X529256Y387531D01*
X529276Y387532D01*
X529296Y387529D01*
X529435Y387542D01*
X529573Y387550D01*
X529592Y387557D01*
X529612Y387559D01*
X529744Y387606D01*
X529875Y387648D01*
X529893Y387659D01*
X529912Y387666D01*
X530027Y387744D01*
X530144Y387819D01*
X530158Y387833D01*
X530175Y387845D01*
X530267Y387949D01*
X530362Y388050D01*
X530372Y388068D01*
X530385Y388083D01*
X530449Y388207D01*
X530516Y388329D01*
X530521Y388348D01*
X530530Y388366D01*
X530560Y388502D01*
X530595Y388637D01*
X530597Y388665D01*
X530600Y388677D01*
X530599Y388697D01*
X530605Y388797D01*
X530605Y481661D01*
X530588Y481799D01*
X530575Y481937D01*
X530568Y481956D01*
X530565Y481976D01*
X530514Y482105D01*
X530467Y482237D01*
X530456Y482253D01*
X530448Y482272D01*
X530367Y482384D01*
X530288Y482500D01*
X530273Y482513D01*
X530262Y482529D01*
X530154Y482618D01*
X530050Y482710D01*
X530032Y482719D01*
X530017Y482732D01*
X529891Y482791D01*
X529767Y482855D01*
X529747Y482859D01*
X529729Y482868D01*
X529593Y482894D01*
X529456Y482924D01*
X529436Y482924D01*
X529417Y482927D01*
X529278Y482919D01*
X529139Y482914D01*
X529119Y482909D01*
X529099Y482908D01*
X528967Y482865D01*
X528927Y482853D01*
X525366Y482853D01*
X522985Y485234D01*
X522985Y488602D01*
X525366Y490983D01*
X528913Y490983D01*
X528943Y490968D01*
X528963Y490965D01*
X528981Y490957D01*
X529119Y490935D01*
X529256Y490909D01*
X529276Y490910D01*
X529295Y490907D01*
X529434Y490920D01*
X529573Y490928D01*
X529592Y490935D01*
X529612Y490937D01*
X529743Y490984D01*
X529875Y491026D01*
X529892Y491037D01*
X529911Y491044D01*
X530027Y491122D01*
X530144Y491197D01*
X530158Y491211D01*
X530175Y491223D01*
X530266Y491327D01*
X530362Y491428D01*
X530372Y491446D01*
X530385Y491461D01*
X530448Y491585D01*
X530516Y491707D01*
X530521Y491726D01*
X530530Y491744D01*
X530560Y491880D01*
X530595Y492015D01*
X530597Y492043D01*
X530599Y492054D01*
X530599Y492075D01*
X530605Y492175D01*
X530605Y504190D01*
X530590Y504308D01*
X530583Y504427D01*
X530570Y504465D01*
X530565Y504506D01*
X530522Y504616D01*
X530485Y504729D01*
X530463Y504764D01*
X530448Y504801D01*
X530379Y504897D01*
X530315Y504998D01*
X530285Y505026D01*
X530262Y505059D01*
X530170Y505135D01*
X530083Y505216D01*
X530048Y505236D01*
X530017Y505261D01*
X529909Y505312D01*
X529805Y505370D01*
X529765Y505380D01*
X529729Y505397D01*
X529612Y505419D01*
X529497Y505449D01*
X529437Y505453D01*
X529417Y505457D01*
X529396Y505455D01*
X529336Y505459D01*
X513087Y505459D01*
X513018Y505451D01*
X512948Y505452D01*
X512861Y505431D01*
X512771Y505419D01*
X512706Y505394D01*
X512639Y505377D01*
X512559Y505335D01*
X512476Y505302D01*
X512419Y505261D01*
X512358Y505229D01*
X512291Y505168D01*
X512218Y505116D01*
X512174Y505062D01*
X512122Y505015D01*
X512073Y504940D01*
X512016Y504871D01*
X511986Y504807D01*
X511947Y504749D01*
X511918Y504664D01*
X511880Y504583D01*
X511867Y504514D01*
X511844Y504448D01*
X511837Y504359D01*
X511820Y504271D01*
X511825Y504201D01*
X511819Y504131D01*
X511834Y504043D01*
X511840Y503953D01*
X511861Y503887D01*
X511873Y503818D01*
X511910Y503736D01*
X511938Y503651D01*
X511975Y503592D01*
X512004Y503528D01*
X512060Y503458D01*
X512108Y503382D01*
X512159Y503334D01*
X512203Y503280D01*
X512274Y503225D01*
X512340Y503164D01*
X512401Y503130D01*
X512457Y503088D01*
X512601Y503017D01*
X513036Y502837D01*
X515537Y500336D01*
X516891Y497069D01*
X516891Y493531D01*
X515537Y490264D01*
X513036Y487763D01*
X509769Y486409D01*
X506231Y486409D01*
X503280Y487632D01*
X503213Y487650D01*
X503148Y487678D01*
X503060Y487692D01*
X502973Y487716D01*
X502903Y487717D01*
X502834Y487728D01*
X502745Y487719D01*
X502655Y487721D01*
X502587Y487705D01*
X502518Y487698D01*
X502433Y487668D01*
X502346Y487647D01*
X502284Y487614D01*
X502218Y487590D01*
X502213Y487587D01*
X502231Y487678D01*
X502261Y487813D01*
X502261Y487834D01*
X502264Y487853D01*
X502256Y487992D01*
X502251Y488131D01*
X502246Y488151D01*
X502245Y488171D01*
X502202Y488303D01*
X502163Y488437D01*
X502153Y488454D01*
X502147Y488473D01*
X502072Y488591D01*
X502002Y488711D01*
X501983Y488732D01*
X501976Y488742D01*
X501961Y488756D01*
X501895Y488831D01*
X500463Y490264D01*
X499109Y493531D01*
X499109Y497069D01*
X500463Y500336D01*
X502964Y502837D01*
X503399Y503017D01*
X503459Y503052D01*
X503524Y503078D01*
X503597Y503130D01*
X503675Y503175D01*
X503725Y503223D01*
X503782Y503264D01*
X503839Y503334D01*
X503903Y503396D01*
X503940Y503456D01*
X503984Y503509D01*
X504023Y503591D01*
X504070Y503667D01*
X504090Y503734D01*
X504120Y503797D01*
X504137Y503885D01*
X504163Y503971D01*
X504167Y504041D01*
X504180Y504110D01*
X504174Y504199D01*
X504178Y504289D01*
X504164Y504357D01*
X504160Y504427D01*
X504132Y504512D01*
X504114Y504600D01*
X504083Y504663D01*
X504062Y504729D01*
X504014Y504805D01*
X503974Y504886D01*
X503929Y504939D01*
X503892Y504998D01*
X503826Y505060D01*
X503768Y505128D01*
X503711Y505168D01*
X503660Y505216D01*
X503582Y505259D01*
X503508Y505311D01*
X503443Y505336D01*
X503382Y505370D01*
X503295Y505392D01*
X503211Y505424D01*
X503141Y505432D01*
X503074Y505449D01*
X502913Y505459D01*
X495223Y505459D01*
X495086Y505442D01*
X494947Y505429D01*
X494928Y505422D01*
X494908Y505419D01*
X494779Y505368D01*
X494648Y505321D01*
X494631Y505310D01*
X494612Y505302D01*
X494500Y505221D01*
X494385Y505143D01*
X494371Y505127D01*
X494355Y505116D01*
X494266Y505008D01*
X494174Y504904D01*
X494165Y504886D01*
X494152Y504871D01*
X494093Y504745D01*
X494030Y504621D01*
X494025Y504601D01*
X494016Y504583D01*
X493990Y504447D01*
X493960Y504311D01*
X493961Y504290D01*
X493957Y504271D01*
X493965Y504132D01*
X493970Y503993D01*
X493975Y503973D01*
X493976Y503953D01*
X494019Y503821D01*
X494058Y503687D01*
X494068Y503670D01*
X494074Y503651D01*
X494149Y503533D01*
X494219Y503413D01*
X494238Y503392D01*
X494245Y503382D01*
X494260Y503368D01*
X494326Y503293D01*
X495555Y502064D01*
X495555Y498696D01*
X493174Y496315D01*
X489806Y496315D01*
X487425Y498696D01*
X487425Y502064D01*
X488654Y503293D01*
X488739Y503402D01*
X488828Y503509D01*
X488837Y503528D01*
X488849Y503544D01*
X488904Y503672D01*
X488964Y503797D01*
X488967Y503817D01*
X488975Y503836D01*
X488997Y503974D01*
X489023Y504110D01*
X489022Y504130D01*
X489025Y504150D01*
X489012Y504289D01*
X489004Y504427D01*
X488997Y504446D01*
X488995Y504466D01*
X488948Y504598D01*
X488906Y504729D01*
X488895Y504747D01*
X488888Y504766D01*
X488810Y504881D01*
X488735Y504998D01*
X488721Y505012D01*
X488709Y505029D01*
X488605Y505121D01*
X488504Y505216D01*
X488486Y505226D01*
X488471Y505239D01*
X488347Y505302D01*
X488225Y505370D01*
X488206Y505375D01*
X488188Y505384D01*
X488052Y505414D01*
X487917Y505449D01*
X487889Y505451D01*
X487877Y505454D01*
X487857Y505453D01*
X487757Y505459D01*
X347987Y505459D01*
X347918Y505451D01*
X347848Y505452D01*
X347761Y505431D01*
X347671Y505419D01*
X347606Y505394D01*
X347539Y505377D01*
X347459Y505335D01*
X347376Y505302D01*
X347319Y505261D01*
X347258Y505229D01*
X347191Y505168D01*
X347118Y505116D01*
X347074Y505062D01*
X347022Y505015D01*
X346973Y504940D01*
X346916Y504871D01*
X346886Y504807D01*
X346847Y504749D01*
X346818Y504664D01*
X346780Y504583D01*
X346767Y504514D01*
X346744Y504448D01*
X346737Y504359D01*
X346720Y504271D01*
X346725Y504201D01*
X346719Y504131D01*
X346734Y504043D01*
X346740Y503953D01*
X346761Y503887D01*
X346773Y503818D01*
X346810Y503736D01*
X346838Y503651D01*
X346875Y503592D01*
X346904Y503528D01*
X346960Y503458D01*
X347008Y503382D01*
X347059Y503334D01*
X347103Y503280D01*
X347174Y503225D01*
X347240Y503164D01*
X347301Y503130D01*
X347357Y503088D01*
X347501Y503017D01*
X347936Y502837D01*
X350437Y500336D01*
X351791Y497069D01*
X351791Y493531D01*
X350437Y490264D01*
X347936Y487763D01*
X344669Y486409D01*
X341131Y486409D01*
X337864Y487763D01*
X335363Y490264D01*
X334009Y493531D01*
X334009Y497069D01*
X335363Y500336D01*
X337864Y502837D01*
X338299Y503017D01*
X338359Y503052D01*
X338424Y503078D01*
X338497Y503130D01*
X338575Y503175D01*
X338625Y503223D01*
X338682Y503264D01*
X338739Y503334D01*
X338803Y503396D01*
X338840Y503456D01*
X338884Y503509D01*
X338923Y503591D01*
X338970Y503667D01*
X338990Y503734D01*
X339020Y503797D01*
X339037Y503885D01*
X339063Y503971D01*
X339067Y504041D01*
X339080Y504110D01*
X339074Y504199D01*
X339078Y504289D01*
X339064Y504357D01*
X339060Y504427D01*
X339032Y504512D01*
X339014Y504600D01*
X338983Y504663D01*
X338962Y504729D01*
X338914Y504805D01*
X338874Y504886D01*
X338829Y504939D01*
X338792Y504998D01*
X338726Y505060D01*
X338668Y505128D01*
X338611Y505168D01*
X338560Y505216D01*
X338482Y505259D01*
X338408Y505311D01*
X338343Y505336D01*
X338282Y505370D01*
X338195Y505392D01*
X338111Y505424D01*
X338041Y505432D01*
X337974Y505449D01*
X337813Y505459D01*
X223110Y505459D01*
X223031Y505449D01*
X222951Y505449D01*
X222874Y505429D01*
X222794Y505419D01*
X222720Y505390D01*
X222643Y505370D01*
X222573Y505332D01*
X222499Y505302D01*
X222434Y505256D01*
X222364Y505217D01*
X222306Y505163D01*
X222241Y505116D01*
X222190Y505054D01*
X222132Y505000D01*
X222089Y504932D01*
X222038Y504871D01*
X222004Y504798D01*
X221962Y504731D01*
X221937Y504655D01*
X221903Y504583D01*
X221888Y504505D01*
X221863Y504429D01*
X221858Y504349D01*
X221843Y504271D01*
X221848Y504191D01*
X221843Y504111D01*
X221858Y504033D01*
X221863Y503953D01*
X221887Y503877D01*
X221902Y503799D01*
X221936Y503727D01*
X221961Y503651D01*
X222004Y503583D01*
X222037Y503511D01*
X222088Y503449D01*
X222131Y503382D01*
X222189Y503327D01*
X222240Y503266D01*
X222362Y503165D01*
X222363Y503164D01*
X222364Y503163D01*
X222519Y503050D01*
X223650Y501919D01*
X224590Y500625D01*
X225316Y499200D01*
X225759Y497839D01*
X217170Y497839D01*
X217052Y497824D01*
X216933Y497817D01*
X216895Y497804D01*
X216855Y497799D01*
X216744Y497756D01*
X216631Y497719D01*
X216597Y497697D01*
X216559Y497682D01*
X216463Y497612D01*
X216362Y497549D01*
X216334Y497519D01*
X216302Y497495D01*
X216226Y497404D01*
X216144Y497317D01*
X216125Y497282D01*
X216099Y497251D01*
X216048Y497143D01*
X215991Y497039D01*
X215980Y496999D01*
X215963Y496963D01*
X215941Y496846D01*
X215911Y496731D01*
X215907Y496670D01*
X215903Y496650D01*
X215905Y496630D01*
X215904Y496615D01*
X215903Y496613D01*
X215904Y496612D01*
X215901Y496570D01*
X215901Y495299D01*
X215899Y495299D01*
X215899Y496570D01*
X215884Y496688D01*
X215877Y496807D01*
X215864Y496845D01*
X215859Y496885D01*
X215815Y496996D01*
X215779Y497109D01*
X215757Y497144D01*
X215742Y497181D01*
X215672Y497277D01*
X215609Y497378D01*
X215579Y497406D01*
X215555Y497439D01*
X215464Y497514D01*
X215377Y497596D01*
X215342Y497616D01*
X215310Y497641D01*
X215203Y497692D01*
X215098Y497750D01*
X215059Y497760D01*
X215023Y497777D01*
X214906Y497799D01*
X214791Y497829D01*
X214730Y497833D01*
X214710Y497837D01*
X214690Y497835D01*
X214630Y497839D01*
X206041Y497839D01*
X206484Y499200D01*
X207210Y500625D01*
X208150Y501919D01*
X209281Y503050D01*
X209436Y503163D01*
X209494Y503217D01*
X209502Y503223D01*
X209559Y503264D01*
X209610Y503326D01*
X209668Y503381D01*
X209711Y503448D01*
X209762Y503509D01*
X209796Y503582D01*
X209839Y503649D01*
X209863Y503725D01*
X209897Y503797D01*
X209912Y503876D01*
X209937Y503952D01*
X209942Y504031D01*
X209957Y504110D01*
X209952Y504189D01*
X209957Y504269D01*
X209942Y504347D01*
X209937Y504427D01*
X209913Y504503D01*
X209898Y504582D01*
X209864Y504654D01*
X209839Y504729D01*
X209796Y504797D01*
X209762Y504869D01*
X209712Y504931D01*
X209669Y504998D01*
X209611Y505053D01*
X209560Y505115D01*
X209495Y505161D01*
X209437Y505216D01*
X209367Y505255D01*
X209303Y505302D01*
X209229Y505331D01*
X209159Y505370D01*
X209082Y505390D01*
X209007Y505419D01*
X208928Y505429D01*
X208851Y505449D01*
X208693Y505459D01*
X208692Y505459D01*
X208691Y505459D01*
X208690Y505459D01*
X30487Y505459D01*
X30418Y505451D01*
X30348Y505452D01*
X30261Y505431D01*
X30171Y505419D01*
X30106Y505394D01*
X30039Y505377D01*
X29959Y505335D01*
X29876Y505302D01*
X29819Y505261D01*
X29758Y505229D01*
X29691Y505168D01*
X29618Y505116D01*
X29574Y505062D01*
X29522Y505015D01*
X29473Y504940D01*
X29416Y504871D01*
X29386Y504807D01*
X29347Y504749D01*
X29318Y504664D01*
X29280Y504583D01*
X29267Y504514D01*
X29244Y504448D01*
X29237Y504359D01*
X29220Y504271D01*
X29225Y504201D01*
X29219Y504131D01*
X29234Y504043D01*
X29240Y503953D01*
X29261Y503887D01*
X29273Y503818D01*
X29310Y503736D01*
X29338Y503651D01*
X29375Y503592D01*
X29404Y503528D01*
X29460Y503458D01*
X29508Y503382D01*
X29559Y503334D01*
X29603Y503280D01*
X29674Y503225D01*
X29740Y503164D01*
X29801Y503130D01*
X29857Y503088D01*
X30001Y503017D01*
X30436Y502837D01*
X32937Y500336D01*
X34291Y497069D01*
X34291Y493531D01*
X32937Y490264D01*
X30436Y487763D01*
X27169Y486409D01*
X23631Y486409D01*
X20364Y487763D01*
X17863Y490264D01*
X16509Y493531D01*
X16509Y497069D01*
X17863Y500336D01*
X20364Y502837D01*
X20799Y503017D01*
X20859Y503052D01*
X20924Y503078D01*
X20997Y503130D01*
X21075Y503175D01*
X21125Y503223D01*
X21182Y503264D01*
X21239Y503334D01*
X21303Y503396D01*
X21340Y503456D01*
X21384Y503509D01*
X21423Y503591D01*
X21470Y503667D01*
X21490Y503734D01*
X21520Y503797D01*
X21537Y503885D01*
X21563Y503971D01*
X21567Y504041D01*
X21580Y504110D01*
X21574Y504199D01*
X21578Y504289D01*
X21564Y504357D01*
X21560Y504427D01*
X21532Y504512D01*
X21514Y504600D01*
X21483Y504663D01*
X21462Y504729D01*
X21414Y504805D01*
X21374Y504886D01*
X21329Y504939D01*
X21292Y504998D01*
X21226Y505060D01*
X21168Y505128D01*
X21111Y505168D01*
X21060Y505216D01*
X20982Y505259D01*
X20908Y505311D01*
X20843Y505336D01*
X20782Y505370D01*
X20695Y505392D01*
X20611Y505424D01*
X20541Y505432D01*
X20474Y505449D01*
X20313Y505459D01*
X4064Y505459D01*
X3946Y505444D01*
X3827Y505437D01*
X3789Y505424D01*
X3748Y505419D01*
X3638Y505376D01*
X3525Y505339D01*
X3490Y505317D01*
X3453Y505302D01*
X3357Y505233D01*
X3256Y505169D01*
X3228Y505139D01*
X3195Y505116D01*
X3119Y505024D01*
X3038Y504937D01*
X3018Y504902D01*
X2993Y504871D01*
X2942Y504763D01*
X2884Y504659D01*
X2874Y504619D01*
X2857Y504583D01*
X2835Y504466D01*
X2805Y504351D01*
X2801Y504291D01*
X2797Y504271D01*
X2799Y504250D01*
X2795Y504190D01*
X2795Y27083D01*
X2807Y26985D01*
X2810Y26886D01*
X2827Y26828D01*
X2835Y26768D01*
X2871Y26676D01*
X2899Y26581D01*
X2929Y26528D01*
X2952Y26472D01*
X3010Y26392D01*
X3060Y26307D01*
X3126Y26231D01*
X3138Y26215D01*
X3148Y26207D01*
X3166Y26186D01*
X26186Y3166D01*
X26264Y3106D01*
X26336Y3038D01*
X26389Y3009D01*
X26437Y2972D01*
X26528Y2932D01*
X26615Y2884D01*
X26673Y2869D01*
X26729Y2845D01*
X26827Y2830D01*
X26923Y2805D01*
X27023Y2799D01*
X27043Y2795D01*
X27055Y2797D01*
X27083Y2795D01*
X166503Y2795D01*
X166621Y2810D01*
G37*
%LPC*%
G36*
X202786Y280669D02*
X202786Y280669D01*
X200405Y283050D01*
X200405Y286418D01*
X202786Y288799D01*
X205745Y288799D01*
X205794Y288805D01*
X205845Y288803D01*
X205952Y288825D01*
X206060Y288839D01*
X206107Y288857D01*
X206156Y288867D01*
X206254Y288915D01*
X206356Y288956D01*
X206396Y288985D01*
X206442Y289007D01*
X206525Y289078D01*
X206613Y289142D01*
X206645Y289181D01*
X206683Y289214D01*
X206746Y289303D01*
X206816Y289387D01*
X206837Y289433D01*
X206866Y289474D01*
X206905Y289576D01*
X206952Y289675D01*
X206961Y289724D01*
X206979Y289771D01*
X206991Y289880D01*
X206995Y289904D01*
X206999Y289918D01*
X207000Y289926D01*
X207011Y289987D01*
X207008Y290038D01*
X207014Y290088D01*
X207009Y290119D01*
X207009Y293869D01*
X208363Y297136D01*
X210864Y299637D01*
X211299Y299817D01*
X211360Y299852D01*
X211424Y299878D01*
X211497Y299930D01*
X211575Y299975D01*
X211625Y300024D01*
X211682Y300064D01*
X211739Y300134D01*
X211803Y300196D01*
X211840Y300256D01*
X211884Y300309D01*
X211923Y300391D01*
X211970Y300467D01*
X211990Y300534D01*
X212020Y300597D01*
X212037Y300685D01*
X212063Y300771D01*
X212067Y300841D01*
X212080Y300910D01*
X212074Y300999D01*
X212079Y301089D01*
X212064Y301157D01*
X212060Y301227D01*
X212032Y301312D01*
X212014Y301400D01*
X211984Y301463D01*
X211962Y301529D01*
X211914Y301605D01*
X211875Y301686D01*
X211829Y301739D01*
X211792Y301798D01*
X211727Y301860D01*
X211668Y301928D01*
X211611Y301968D01*
X211560Y302016D01*
X211482Y302059D01*
X211408Y302111D01*
X211343Y302136D01*
X211282Y302170D01*
X211195Y302192D01*
X211111Y302224D01*
X211041Y302232D01*
X210974Y302249D01*
X210813Y302259D01*
X34819Y302259D01*
X34790Y302256D01*
X34760Y302258D01*
X34632Y302236D01*
X34503Y302219D01*
X34476Y302209D01*
X34447Y302204D01*
X34328Y302150D01*
X34208Y302102D01*
X34184Y302085D01*
X34157Y302073D01*
X34056Y301992D01*
X33950Y301916D01*
X33932Y301893D01*
X33908Y301874D01*
X33830Y301771D01*
X33748Y301671D01*
X33735Y301644D01*
X33717Y301620D01*
X33646Y301476D01*
X32937Y299764D01*
X30436Y297263D01*
X27169Y295909D01*
X23631Y295909D01*
X20364Y297263D01*
X17863Y299764D01*
X16509Y303031D01*
X16509Y306569D01*
X17863Y309836D01*
X20364Y312337D01*
X23631Y313691D01*
X27168Y313691D01*
X27519Y313546D01*
X27586Y313527D01*
X27650Y313500D01*
X27739Y313485D01*
X27825Y313462D01*
X27895Y313461D01*
X27964Y313450D01*
X28053Y313458D01*
X28143Y313457D01*
X28211Y313473D01*
X28281Y313480D01*
X28365Y313510D01*
X28453Y313531D01*
X28514Y313564D01*
X28580Y313587D01*
X28654Y313638D01*
X28734Y313680D01*
X28785Y313727D01*
X28843Y313766D01*
X28902Y313833D01*
X28969Y313894D01*
X29007Y313952D01*
X29054Y314004D01*
X29094Y314084D01*
X29144Y314159D01*
X29166Y314225D01*
X29198Y314287D01*
X29218Y314375D01*
X29247Y314460D01*
X29252Y314530D01*
X29268Y314598D01*
X29265Y314687D01*
X29272Y314777D01*
X29260Y314846D01*
X29258Y314916D01*
X29233Y315002D01*
X29218Y315090D01*
X29189Y315154D01*
X29170Y315221D01*
X29124Y315298D01*
X29087Y315380D01*
X29044Y315435D01*
X29008Y315495D01*
X28902Y315616D01*
X28447Y316070D01*
X28447Y319617D01*
X28462Y319647D01*
X28465Y319667D01*
X28473Y319685D01*
X28495Y319823D01*
X28521Y319960D01*
X28520Y319980D01*
X28523Y319999D01*
X28510Y320138D01*
X28502Y320277D01*
X28495Y320296D01*
X28493Y320316D01*
X28446Y320447D01*
X28404Y320579D01*
X28393Y320596D01*
X28386Y320615D01*
X28308Y320731D01*
X28233Y320848D01*
X28219Y320862D01*
X28207Y320879D01*
X28103Y320970D01*
X28002Y321066D01*
X27984Y321076D01*
X27969Y321089D01*
X27845Y321152D01*
X27723Y321220D01*
X27704Y321225D01*
X27686Y321234D01*
X27550Y321264D01*
X27415Y321299D01*
X27387Y321301D01*
X27376Y321303D01*
X27355Y321303D01*
X27255Y321309D01*
X23631Y321309D01*
X20364Y322663D01*
X17863Y325164D01*
X16509Y328431D01*
X16509Y331969D01*
X17863Y335236D01*
X20364Y337737D01*
X23631Y339091D01*
X27169Y339091D01*
X30436Y337737D01*
X32937Y335236D01*
X34291Y331969D01*
X34291Y328431D01*
X32937Y325164D01*
X31759Y323985D01*
X31674Y323876D01*
X31585Y323769D01*
X31576Y323750D01*
X31564Y323734D01*
X31509Y323607D01*
X31449Y323481D01*
X31446Y323461D01*
X31438Y323442D01*
X31416Y323304D01*
X31390Y323168D01*
X31391Y323148D01*
X31388Y323128D01*
X31401Y322989D01*
X31409Y322851D01*
X31416Y322832D01*
X31418Y322812D01*
X31465Y322680D01*
X31507Y322549D01*
X31518Y322531D01*
X31525Y322512D01*
X31603Y322397D01*
X31678Y322280D01*
X31692Y322266D01*
X31704Y322249D01*
X31808Y322157D01*
X31909Y322062D01*
X31927Y322052D01*
X31942Y322039D01*
X32066Y321975D01*
X32188Y321908D01*
X32207Y321903D01*
X32225Y321894D01*
X32361Y321864D01*
X32496Y321829D01*
X32524Y321827D01*
X32536Y321824D01*
X32556Y321825D01*
X32656Y321819D01*
X34196Y321819D01*
X36577Y319438D01*
X36577Y316070D01*
X34196Y313689D01*
X32148Y313689D01*
X32011Y313672D01*
X31872Y313659D01*
X31853Y313652D01*
X31833Y313649D01*
X31704Y313598D01*
X31573Y313551D01*
X31556Y313540D01*
X31537Y313532D01*
X31425Y313451D01*
X31310Y313373D01*
X31296Y313357D01*
X31280Y313346D01*
X31191Y313238D01*
X31099Y313134D01*
X31090Y313116D01*
X31077Y313101D01*
X31018Y312975D01*
X30955Y312851D01*
X30950Y312831D01*
X30941Y312813D01*
X30915Y312676D01*
X30885Y312541D01*
X30885Y312520D01*
X30882Y312501D01*
X30890Y312362D01*
X30895Y312223D01*
X30900Y312203D01*
X30901Y312183D01*
X30944Y312051D01*
X30983Y311917D01*
X30993Y311900D01*
X30999Y311881D01*
X31074Y311763D01*
X31144Y311643D01*
X31163Y311622D01*
X31170Y311612D01*
X31185Y311598D01*
X31251Y311523D01*
X32937Y309836D01*
X33646Y308124D01*
X33661Y308099D01*
X33670Y308071D01*
X33740Y307961D01*
X33804Y307848D01*
X33824Y307827D01*
X33840Y307802D01*
X33935Y307713D01*
X34025Y307620D01*
X34050Y307604D01*
X34072Y307584D01*
X34185Y307521D01*
X34296Y307453D01*
X34324Y307445D01*
X34350Y307430D01*
X34476Y307398D01*
X34600Y307360D01*
X34630Y307358D01*
X34658Y307351D01*
X34819Y307341D01*
X98171Y307341D01*
X98289Y307356D01*
X98408Y307363D01*
X98446Y307376D01*
X98487Y307381D01*
X98597Y307424D01*
X98710Y307461D01*
X98745Y307483D01*
X98782Y307498D01*
X98878Y307567D01*
X98979Y307631D01*
X99007Y307661D01*
X99040Y307684D01*
X99116Y307776D01*
X99197Y307863D01*
X99217Y307898D01*
X99242Y307929D01*
X99293Y308037D01*
X99351Y308141D01*
X99361Y308181D01*
X99378Y308217D01*
X99400Y308334D01*
X99430Y308449D01*
X99434Y308509D01*
X99438Y308529D01*
X99436Y308550D01*
X99440Y308610D01*
X99440Y311945D01*
X101821Y314326D01*
X105189Y314326D01*
X107570Y311945D01*
X107570Y308610D01*
X107585Y308492D01*
X107592Y308373D01*
X107605Y308335D01*
X107610Y308294D01*
X107653Y308184D01*
X107690Y308071D01*
X107712Y308036D01*
X107727Y307999D01*
X107796Y307903D01*
X107860Y307802D01*
X107890Y307774D01*
X107913Y307741D01*
X108005Y307665D01*
X108092Y307584D01*
X108127Y307564D01*
X108158Y307539D01*
X108266Y307488D01*
X108370Y307430D01*
X108410Y307420D01*
X108446Y307403D01*
X108563Y307381D01*
X108678Y307351D01*
X108738Y307347D01*
X108758Y307343D01*
X108779Y307345D01*
X108839Y307341D01*
X166447Y307341D01*
X166585Y307358D01*
X166723Y307371D01*
X166742Y307378D01*
X166762Y307381D01*
X166891Y307432D01*
X167022Y307479D01*
X167039Y307490D01*
X167058Y307498D01*
X167170Y307579D01*
X167285Y307657D01*
X167299Y307673D01*
X167315Y307684D01*
X167404Y307792D01*
X167496Y307896D01*
X167505Y307914D01*
X167518Y307929D01*
X167577Y308055D01*
X167640Y308179D01*
X167645Y308199D01*
X167654Y308217D01*
X167680Y308354D01*
X167710Y308489D01*
X167710Y308510D01*
X167713Y308529D01*
X167705Y308668D01*
X167700Y308807D01*
X167695Y308827D01*
X167694Y308847D01*
X167651Y308979D01*
X167612Y309113D01*
X167602Y309130D01*
X167596Y309149D01*
X167521Y309267D01*
X167451Y309387D01*
X167432Y309408D01*
X167425Y309418D01*
X167410Y309432D01*
X167344Y309507D01*
X166115Y310736D01*
X166115Y314104D01*
X168496Y316485D01*
X171864Y316485D01*
X174245Y314104D01*
X174245Y310736D01*
X173016Y309507D01*
X172931Y309398D01*
X172842Y309291D01*
X172833Y309272D01*
X172821Y309256D01*
X172765Y309128D01*
X172706Y309003D01*
X172703Y308983D01*
X172695Y308964D01*
X172673Y308826D01*
X172647Y308690D01*
X172648Y308670D01*
X172645Y308650D01*
X172658Y308511D01*
X172666Y308373D01*
X172673Y308354D01*
X172675Y308334D01*
X172722Y308202D01*
X172764Y308071D01*
X172775Y308053D01*
X172782Y308034D01*
X172860Y307919D01*
X172935Y307802D01*
X172949Y307788D01*
X172961Y307771D01*
X173065Y307679D01*
X173166Y307584D01*
X173184Y307574D01*
X173199Y307561D01*
X173323Y307497D01*
X173445Y307430D01*
X173464Y307425D01*
X173482Y307416D01*
X173618Y307386D01*
X173753Y307351D01*
X173781Y307349D01*
X173793Y307346D01*
X173813Y307347D01*
X173913Y307341D01*
X210813Y307341D01*
X210882Y307349D01*
X210952Y307348D01*
X211039Y307369D01*
X211129Y307381D01*
X211194Y307406D01*
X211261Y307423D01*
X211341Y307465D01*
X211424Y307498D01*
X211481Y307539D01*
X211543Y307571D01*
X211609Y307632D01*
X211682Y307684D01*
X211726Y307738D01*
X211778Y307785D01*
X211827Y307860D01*
X211884Y307929D01*
X211914Y307993D01*
X211953Y308051D01*
X211982Y308136D01*
X212020Y308217D01*
X212033Y308286D01*
X212056Y308352D01*
X212063Y308441D01*
X212080Y308529D01*
X212075Y308599D01*
X212081Y308669D01*
X212066Y308757D01*
X212060Y308847D01*
X212039Y308913D01*
X212027Y308982D01*
X211990Y309064D01*
X211962Y309149D01*
X211925Y309208D01*
X211896Y309272D01*
X211840Y309342D01*
X211792Y309418D01*
X211741Y309466D01*
X211697Y309520D01*
X211626Y309575D01*
X211560Y309636D01*
X211499Y309670D01*
X211443Y309712D01*
X211299Y309783D01*
X210864Y309963D01*
X208363Y312464D01*
X207009Y315731D01*
X207009Y319269D01*
X208363Y322536D01*
X210864Y325037D01*
X214131Y326391D01*
X217669Y326391D01*
X220936Y325037D01*
X223437Y322536D01*
X224791Y319269D01*
X224791Y315731D01*
X223437Y312464D01*
X220936Y309963D01*
X220501Y309783D01*
X220440Y309748D01*
X220376Y309722D01*
X220303Y309670D01*
X220225Y309625D01*
X220175Y309576D01*
X220118Y309536D01*
X220061Y309466D01*
X219997Y309404D01*
X219960Y309344D01*
X219916Y309291D01*
X219877Y309209D01*
X219830Y309133D01*
X219810Y309066D01*
X219780Y309003D01*
X219763Y308915D01*
X219737Y308829D01*
X219733Y308759D01*
X219720Y308690D01*
X219726Y308601D01*
X219721Y308511D01*
X219736Y308443D01*
X219740Y308373D01*
X219768Y308288D01*
X219786Y308200D01*
X219816Y308137D01*
X219838Y308071D01*
X219886Y307995D01*
X219925Y307914D01*
X219971Y307861D01*
X220008Y307802D01*
X220073Y307740D01*
X220132Y307672D01*
X220189Y307632D01*
X220240Y307584D01*
X220318Y307541D01*
X220392Y307489D01*
X220457Y307464D01*
X220518Y307430D01*
X220605Y307408D01*
X220689Y307376D01*
X220759Y307368D01*
X220826Y307351D01*
X220987Y307341D01*
X277822Y307341D01*
X277920Y307353D01*
X278019Y307356D01*
X278077Y307373D01*
X278137Y307381D01*
X278229Y307417D01*
X278325Y307445D01*
X278377Y307475D01*
X278433Y307498D01*
X278513Y307556D01*
X278598Y307606D01*
X278674Y307672D01*
X278690Y307684D01*
X278698Y307694D01*
X278719Y307712D01*
X329402Y358395D01*
X337200Y358395D01*
X337269Y358403D01*
X337339Y358402D01*
X337426Y358423D01*
X337515Y358435D01*
X337580Y358460D01*
X337648Y358477D01*
X337728Y358519D01*
X337811Y358552D01*
X337868Y358593D01*
X337929Y358625D01*
X337996Y358686D01*
X338068Y358738D01*
X338113Y358792D01*
X338165Y358839D01*
X338214Y358914D01*
X338271Y358983D01*
X338301Y359047D01*
X338339Y359105D01*
X338369Y359190D01*
X338407Y359271D01*
X338420Y359340D01*
X338443Y359406D01*
X338450Y359496D01*
X338467Y359583D01*
X338462Y359653D01*
X338468Y359723D01*
X338452Y359811D01*
X338447Y359901D01*
X338425Y359967D01*
X338413Y360036D01*
X338376Y360118D01*
X338349Y360203D01*
X338311Y360262D01*
X338283Y360326D01*
X338227Y360396D01*
X338179Y360472D01*
X338128Y360520D01*
X338084Y360575D01*
X338012Y360628D01*
X337947Y360690D01*
X337924Y360703D01*
X335363Y363264D01*
X334009Y366531D01*
X334009Y370069D01*
X335363Y373336D01*
X337864Y375837D01*
X341131Y377191D01*
X344669Y377191D01*
X346380Y376482D01*
X346409Y376474D01*
X346435Y376460D01*
X346562Y376432D01*
X346687Y376398D01*
X346717Y376397D01*
X346745Y376391D01*
X346875Y376395D01*
X347005Y376393D01*
X347034Y376400D01*
X347063Y376400D01*
X347188Y376436D01*
X347314Y376467D01*
X347341Y376481D01*
X347369Y376489D01*
X347480Y376555D01*
X347596Y376616D01*
X347617Y376635D01*
X347643Y376650D01*
X347764Y376757D01*
X353024Y382017D01*
X355128Y382017D01*
X356617Y380528D01*
X356617Y378424D01*
X351357Y373164D01*
X351339Y373140D01*
X351316Y373121D01*
X351241Y373015D01*
X351162Y372912D01*
X351150Y372885D01*
X351133Y372861D01*
X351087Y372740D01*
X351035Y372621D01*
X351031Y372591D01*
X351020Y372564D01*
X351006Y372435D01*
X350986Y372306D01*
X350988Y372277D01*
X350985Y372248D01*
X351003Y372119D01*
X351015Y371990D01*
X351025Y371962D01*
X351030Y371933D01*
X351082Y371780D01*
X351791Y370069D01*
X351791Y366531D01*
X350437Y363264D01*
X347872Y360698D01*
X347838Y360679D01*
X347788Y360631D01*
X347732Y360590D01*
X347674Y360520D01*
X347610Y360458D01*
X347573Y360398D01*
X347529Y360345D01*
X347491Y360263D01*
X347444Y360187D01*
X347423Y360120D01*
X347393Y360057D01*
X347376Y359969D01*
X347350Y359883D01*
X347347Y359813D01*
X347333Y359744D01*
X347339Y359655D01*
X347335Y359565D01*
X347349Y359497D01*
X347353Y359427D01*
X347381Y359342D01*
X347399Y359254D01*
X347430Y359191D01*
X347451Y359125D01*
X347499Y359049D01*
X347539Y358968D01*
X347584Y358915D01*
X347621Y358856D01*
X347687Y358794D01*
X347745Y358726D01*
X347802Y358686D01*
X347853Y358638D01*
X347932Y358595D01*
X348005Y358543D01*
X348070Y358518D01*
X348132Y358484D01*
X348218Y358462D01*
X348302Y358430D01*
X348372Y358422D01*
X348439Y358405D01*
X348600Y358395D01*
X367484Y358395D01*
X367582Y358407D01*
X367681Y358410D01*
X367739Y358427D01*
X367799Y358435D01*
X367891Y358471D01*
X367987Y358499D01*
X368039Y358529D01*
X368095Y358552D01*
X368175Y358610D01*
X368260Y358660D01*
X368336Y358726D01*
X368352Y358738D01*
X368360Y358748D01*
X368381Y358766D01*
X380456Y370841D01*
X467306Y370841D01*
X467404Y370853D01*
X467503Y370856D01*
X467561Y370873D01*
X467621Y370881D01*
X467713Y370917D01*
X467809Y370945D01*
X467861Y370975D01*
X467917Y370998D01*
X467997Y371056D01*
X468082Y371106D01*
X468158Y371172D01*
X468174Y371184D01*
X468182Y371194D01*
X468203Y371212D01*
X480704Y383713D01*
X480764Y383791D01*
X480832Y383863D01*
X480861Y383916D01*
X480898Y383964D01*
X480938Y384055D01*
X480986Y384142D01*
X481001Y384200D01*
X481025Y384256D01*
X481040Y384354D01*
X481065Y384449D01*
X481071Y384550D01*
X481075Y384570D01*
X481073Y384582D01*
X481075Y384610D01*
X481075Y413589D01*
X481063Y413687D01*
X481060Y413786D01*
X481043Y413844D01*
X481035Y413904D01*
X480999Y413996D01*
X480971Y414091D01*
X480941Y414143D01*
X480918Y414200D01*
X480860Y414280D01*
X480810Y414365D01*
X480744Y414441D01*
X480732Y414457D01*
X480722Y414465D01*
X480704Y414486D01*
X479551Y415638D01*
X479551Y419006D01*
X481932Y421387D01*
X484378Y421387D01*
X484496Y421402D01*
X484615Y421409D01*
X484653Y421422D01*
X484694Y421427D01*
X484804Y421470D01*
X484917Y421507D01*
X484952Y421529D01*
X484989Y421544D01*
X485085Y421613D01*
X485186Y421677D01*
X485214Y421707D01*
X485247Y421730D01*
X485323Y421822D01*
X485404Y421909D01*
X485424Y421944D01*
X485449Y421975D01*
X485500Y422083D01*
X485558Y422187D01*
X485568Y422227D01*
X485585Y422263D01*
X485607Y422380D01*
X485637Y422495D01*
X485641Y422555D01*
X485645Y422575D01*
X485643Y422596D01*
X485647Y422656D01*
X485647Y424848D01*
X486301Y425502D01*
X486374Y425596D01*
X486453Y425685D01*
X486471Y425721D01*
X486496Y425753D01*
X486543Y425862D01*
X486597Y425968D01*
X486606Y426007D01*
X486622Y426045D01*
X486641Y426162D01*
X486667Y426278D01*
X486666Y426319D01*
X486672Y426359D01*
X486661Y426477D01*
X486657Y426596D01*
X486646Y426635D01*
X486642Y426675D01*
X486602Y426787D01*
X486569Y426902D01*
X486549Y426937D01*
X486535Y426975D01*
X486468Y427073D01*
X486407Y427176D01*
X486368Y427221D01*
X486356Y427238D01*
X486341Y427251D01*
X486301Y427297D01*
X484885Y428712D01*
X484885Y432080D01*
X487266Y434461D01*
X490634Y434461D01*
X493015Y432080D01*
X493015Y428712D01*
X492361Y428059D01*
X492288Y427965D01*
X492209Y427875D01*
X492191Y427839D01*
X492166Y427807D01*
X492119Y427698D01*
X492065Y427592D01*
X492056Y427553D01*
X492040Y427515D01*
X492021Y427398D01*
X491995Y427282D01*
X491996Y427241D01*
X491990Y427201D01*
X492001Y427083D01*
X492005Y426964D01*
X492016Y426925D01*
X492020Y426885D01*
X492060Y426772D01*
X492093Y426658D01*
X492113Y426624D01*
X492127Y426585D01*
X492194Y426487D01*
X492254Y426384D01*
X492294Y426339D01*
X492306Y426322D01*
X492321Y426309D01*
X492361Y426264D01*
X493777Y424848D01*
X493777Y421480D01*
X491396Y419099D01*
X488950Y419099D01*
X488832Y419084D01*
X488713Y419077D01*
X488675Y419064D01*
X488634Y419059D01*
X488524Y419016D01*
X488411Y418979D01*
X488376Y418957D01*
X488339Y418942D01*
X488243Y418873D01*
X488142Y418809D01*
X488114Y418779D01*
X488081Y418756D01*
X488005Y418664D01*
X487924Y418577D01*
X487904Y418542D01*
X487879Y418511D01*
X487828Y418403D01*
X487770Y418299D01*
X487760Y418259D01*
X487743Y418223D01*
X487721Y418106D01*
X487691Y417991D01*
X487687Y417931D01*
X487683Y417911D01*
X487685Y417890D01*
X487681Y417830D01*
X487681Y415638D01*
X486528Y414486D01*
X486468Y414408D01*
X486400Y414336D01*
X486371Y414283D01*
X486334Y414235D01*
X486294Y414144D01*
X486246Y414057D01*
X486231Y413999D01*
X486207Y413943D01*
X486192Y413845D01*
X486167Y413749D01*
X486161Y413649D01*
X486157Y413629D01*
X486159Y413617D01*
X486157Y413589D01*
X486157Y381980D01*
X469936Y365759D01*
X407162Y365759D01*
X407044Y365744D01*
X406925Y365737D01*
X406887Y365724D01*
X406846Y365719D01*
X406736Y365676D01*
X406623Y365639D01*
X406588Y365617D01*
X406551Y365602D01*
X406455Y365533D01*
X406354Y365469D01*
X406326Y365439D01*
X406293Y365416D01*
X406217Y365324D01*
X406136Y365237D01*
X406116Y365202D01*
X406091Y365171D01*
X406040Y365063D01*
X405982Y364959D01*
X405972Y364919D01*
X405955Y364883D01*
X405933Y364766D01*
X405903Y364651D01*
X405899Y364591D01*
X405895Y364571D01*
X405897Y364550D01*
X405893Y364490D01*
X405893Y361028D01*
X403512Y358647D01*
X400144Y358647D01*
X397763Y361028D01*
X397763Y364490D01*
X397748Y364608D01*
X397741Y364727D01*
X397728Y364765D01*
X397723Y364806D01*
X397680Y364916D01*
X397643Y365029D01*
X397621Y365064D01*
X397606Y365101D01*
X397537Y365197D01*
X397473Y365298D01*
X397443Y365326D01*
X397420Y365359D01*
X397328Y365435D01*
X397241Y365516D01*
X397206Y365536D01*
X397175Y365561D01*
X397067Y365612D01*
X396963Y365670D01*
X396923Y365680D01*
X396887Y365697D01*
X396770Y365719D01*
X396655Y365749D01*
X396595Y365753D01*
X396575Y365757D01*
X396554Y365755D01*
X396494Y365759D01*
X390321Y365759D01*
X390184Y365742D01*
X390045Y365729D01*
X390026Y365722D01*
X390006Y365719D01*
X389877Y365668D01*
X389746Y365621D01*
X389729Y365610D01*
X389710Y365602D01*
X389598Y365521D01*
X389483Y365443D01*
X389469Y365427D01*
X389453Y365416D01*
X389364Y365308D01*
X389272Y365204D01*
X389263Y365186D01*
X389250Y365171D01*
X389191Y365045D01*
X389128Y364921D01*
X389123Y364901D01*
X389114Y364883D01*
X389088Y364746D01*
X389058Y364611D01*
X389058Y364590D01*
X389055Y364571D01*
X389063Y364432D01*
X389068Y364293D01*
X389073Y364273D01*
X389074Y364253D01*
X389117Y364121D01*
X389156Y363987D01*
X389166Y363970D01*
X389172Y363951D01*
X389247Y363833D01*
X389317Y363713D01*
X389336Y363692D01*
X389343Y363682D01*
X389358Y363668D01*
X389424Y363593D01*
X390907Y362110D01*
X390907Y358742D01*
X388526Y356361D01*
X385158Y356361D01*
X382777Y358742D01*
X382777Y362110D01*
X384260Y363593D01*
X384345Y363702D01*
X384434Y363809D01*
X384443Y363828D01*
X384455Y363844D01*
X384511Y363972D01*
X384570Y364097D01*
X384573Y364117D01*
X384581Y364136D01*
X384603Y364274D01*
X384629Y364410D01*
X384628Y364430D01*
X384631Y364450D01*
X384618Y364589D01*
X384610Y364727D01*
X384603Y364746D01*
X384601Y364766D01*
X384554Y364898D01*
X384512Y365029D01*
X384501Y365047D01*
X384494Y365066D01*
X384416Y365181D01*
X384341Y365298D01*
X384327Y365312D01*
X384315Y365329D01*
X384211Y365421D01*
X384110Y365516D01*
X384092Y365526D01*
X384077Y365539D01*
X383953Y365603D01*
X383831Y365670D01*
X383812Y365675D01*
X383794Y365684D01*
X383658Y365714D01*
X383523Y365749D01*
X383495Y365751D01*
X383483Y365754D01*
X383463Y365753D01*
X383363Y365759D01*
X383086Y365759D01*
X382988Y365747D01*
X382889Y365744D01*
X382831Y365727D01*
X382771Y365719D01*
X382678Y365683D01*
X382583Y365655D01*
X382531Y365625D01*
X382475Y365602D01*
X382395Y365544D01*
X382310Y365494D01*
X382234Y365428D01*
X382218Y365416D01*
X382210Y365406D01*
X382189Y365388D01*
X370114Y353313D01*
X347374Y353313D01*
X347304Y353305D01*
X347235Y353306D01*
X347147Y353285D01*
X347058Y353273D01*
X346993Y353248D01*
X346925Y353231D01*
X346846Y353189D01*
X346762Y353156D01*
X346706Y353115D01*
X346644Y353083D01*
X346578Y353022D01*
X346505Y352970D01*
X346461Y352916D01*
X346409Y352869D01*
X346360Y352794D01*
X346302Y352725D01*
X346273Y352661D01*
X346234Y352603D01*
X346205Y352518D01*
X346167Y352437D01*
X346154Y352368D01*
X346131Y352302D01*
X346124Y352213D01*
X346107Y352125D01*
X346111Y352055D01*
X346106Y351985D01*
X346121Y351897D01*
X346127Y351807D01*
X346148Y351741D01*
X346160Y351672D01*
X346197Y351590D01*
X346225Y351505D01*
X346262Y351446D01*
X346291Y351382D01*
X346347Y351312D01*
X346395Y351236D01*
X346446Y351188D01*
X346489Y351134D01*
X346561Y351080D01*
X346627Y351018D01*
X346688Y350984D01*
X346743Y350942D01*
X346888Y350871D01*
X347936Y350437D01*
X350437Y347936D01*
X351791Y344669D01*
X351791Y341131D01*
X350437Y337864D01*
X347936Y335363D01*
X344669Y334009D01*
X341131Y334009D01*
X337864Y335363D01*
X335363Y337864D01*
X334009Y341131D01*
X334009Y344669D01*
X335363Y347936D01*
X337864Y350437D01*
X338912Y350871D01*
X338973Y350906D01*
X339038Y350932D01*
X339110Y350984D01*
X339188Y351029D01*
X339238Y351077D01*
X339295Y351118D01*
X339352Y351188D01*
X339417Y351250D01*
X339453Y351310D01*
X339498Y351363D01*
X339536Y351445D01*
X339583Y351521D01*
X339604Y351588D01*
X339633Y351651D01*
X339650Y351739D01*
X339677Y351825D01*
X339680Y351895D01*
X339693Y351964D01*
X339687Y352053D01*
X339692Y352143D01*
X339678Y352211D01*
X339673Y352281D01*
X339646Y352366D01*
X339627Y352454D01*
X339597Y352517D01*
X339575Y352583D01*
X339527Y352659D01*
X339488Y352740D01*
X339442Y352793D01*
X339405Y352852D01*
X339340Y352914D01*
X339281Y352982D01*
X339224Y353022D01*
X339173Y353070D01*
X339095Y353114D01*
X339021Y353165D01*
X338956Y353190D01*
X338895Y353224D01*
X338808Y353246D01*
X338724Y353278D01*
X338654Y353286D01*
X338587Y353303D01*
X338426Y353313D01*
X332032Y353313D01*
X331934Y353301D01*
X331835Y353298D01*
X331777Y353281D01*
X331717Y353273D01*
X331625Y353237D01*
X331529Y353209D01*
X331477Y353179D01*
X331421Y353156D01*
X331341Y353098D01*
X331256Y353048D01*
X331180Y352982D01*
X331164Y352970D01*
X331156Y352960D01*
X331135Y352942D01*
X280452Y302259D01*
X255193Y302259D01*
X255055Y302242D01*
X254917Y302229D01*
X254898Y302222D01*
X254878Y302219D01*
X254749Y302168D01*
X254617Y302121D01*
X254601Y302110D01*
X254582Y302102D01*
X254470Y302021D01*
X254354Y301942D01*
X254341Y301927D01*
X254325Y301916D01*
X254236Y301808D01*
X254144Y301704D01*
X254135Y301686D01*
X254122Y301671D01*
X254063Y301545D01*
X253999Y301421D01*
X253995Y301401D01*
X253986Y301383D01*
X253960Y301247D01*
X253930Y301110D01*
X253930Y301090D01*
X253927Y301071D01*
X253935Y300931D01*
X253940Y300793D01*
X253945Y300773D01*
X253946Y300753D01*
X253989Y300621D01*
X254001Y300581D01*
X254001Y297020D01*
X251620Y294639D01*
X248252Y294639D01*
X245871Y297020D01*
X245871Y300567D01*
X245886Y300597D01*
X245889Y300617D01*
X245897Y300635D01*
X245919Y300773D01*
X245945Y300910D01*
X245944Y300930D01*
X245947Y300949D01*
X245934Y301087D01*
X245926Y301227D01*
X245919Y301246D01*
X245917Y301266D01*
X245870Y301397D01*
X245828Y301529D01*
X245817Y301546D01*
X245810Y301565D01*
X245732Y301681D01*
X245657Y301798D01*
X245643Y301812D01*
X245631Y301829D01*
X245527Y301920D01*
X245426Y302016D01*
X245408Y302026D01*
X245393Y302039D01*
X245269Y302102D01*
X245147Y302170D01*
X245128Y302175D01*
X245110Y302184D01*
X244974Y302214D01*
X244839Y302249D01*
X244811Y302251D01*
X244800Y302253D01*
X244779Y302253D01*
X244679Y302259D01*
X220987Y302259D01*
X220918Y302251D01*
X220848Y302252D01*
X220761Y302231D01*
X220671Y302219D01*
X220606Y302194D01*
X220539Y302177D01*
X220459Y302135D01*
X220376Y302102D01*
X220319Y302061D01*
X220257Y302029D01*
X220191Y301968D01*
X220118Y301916D01*
X220074Y301862D01*
X220022Y301815D01*
X219973Y301740D01*
X219916Y301671D01*
X219886Y301607D01*
X219847Y301549D01*
X219818Y301464D01*
X219780Y301383D01*
X219767Y301314D01*
X219744Y301248D01*
X219737Y301159D01*
X219720Y301071D01*
X219725Y301001D01*
X219719Y300931D01*
X219734Y300843D01*
X219740Y300753D01*
X219761Y300687D01*
X219773Y300618D01*
X219810Y300536D01*
X219838Y300451D01*
X219875Y300392D01*
X219904Y300328D01*
X219960Y300258D01*
X220008Y300182D01*
X220059Y300134D01*
X220103Y300080D01*
X220174Y300025D01*
X220240Y299964D01*
X220301Y299930D01*
X220357Y299888D01*
X220501Y299817D01*
X220936Y299637D01*
X223437Y297136D01*
X224791Y293869D01*
X224791Y290322D01*
X224806Y290204D01*
X224813Y290085D01*
X224826Y290047D01*
X224831Y290006D01*
X224874Y289896D01*
X224911Y289783D01*
X224933Y289748D01*
X224948Y289711D01*
X225017Y289615D01*
X225081Y289514D01*
X225111Y289486D01*
X225134Y289453D01*
X225226Y289377D01*
X225313Y289296D01*
X225348Y289276D01*
X225379Y289251D01*
X225487Y289200D01*
X225591Y289142D01*
X225631Y289132D01*
X225667Y289115D01*
X225784Y289093D01*
X225899Y289063D01*
X225959Y289059D01*
X225979Y289055D01*
X226000Y289057D01*
X226060Y289053D01*
X229268Y289053D01*
X231649Y286672D01*
X231649Y283304D01*
X229268Y280923D01*
X225900Y280923D01*
X223519Y283304D01*
X223519Y284082D01*
X223502Y284220D01*
X223489Y284358D01*
X223482Y284377D01*
X223479Y284397D01*
X223428Y284527D01*
X223381Y284657D01*
X223370Y284674D01*
X223362Y284693D01*
X223281Y284805D01*
X223203Y284920D01*
X223187Y284934D01*
X223176Y284950D01*
X223068Y285039D01*
X222964Y285131D01*
X222946Y285140D01*
X222931Y285153D01*
X222805Y285212D01*
X222681Y285276D01*
X222661Y285280D01*
X222643Y285289D01*
X222507Y285315D01*
X222371Y285345D01*
X222350Y285345D01*
X222331Y285348D01*
X222192Y285340D01*
X222053Y285335D01*
X222033Y285330D01*
X222013Y285329D01*
X221881Y285286D01*
X221747Y285247D01*
X221730Y285237D01*
X221711Y285231D01*
X221593Y285156D01*
X221473Y285086D01*
X221452Y285067D01*
X221442Y285060D01*
X221428Y285045D01*
X221352Y284979D01*
X220936Y284563D01*
X217669Y283209D01*
X214131Y283209D01*
X210864Y284563D01*
X210702Y284725D01*
X210592Y284810D01*
X210485Y284899D01*
X210466Y284908D01*
X210450Y284920D01*
X210322Y284975D01*
X210197Y285035D01*
X210177Y285038D01*
X210158Y285046D01*
X210021Y285068D01*
X209884Y285094D01*
X209864Y285093D01*
X209844Y285096D01*
X209706Y285083D01*
X209567Y285075D01*
X209548Y285068D01*
X209528Y285066D01*
X209396Y285019D01*
X209265Y284977D01*
X209247Y284966D01*
X209228Y284959D01*
X209113Y284881D01*
X208996Y284806D01*
X208982Y284792D01*
X208965Y284780D01*
X208873Y284676D01*
X208778Y284575D01*
X208768Y284557D01*
X208755Y284542D01*
X208691Y284418D01*
X208624Y284296D01*
X208619Y284277D01*
X208610Y284259D01*
X208580Y284122D01*
X208545Y283988D01*
X208543Y283960D01*
X208540Y283948D01*
X208541Y283928D01*
X208535Y283828D01*
X208535Y283050D01*
X206154Y280669D01*
X202786Y280669D01*
G37*
%LPD*%
%LPC*%
G36*
X214131Y384809D02*
X214131Y384809D01*
X210864Y386163D01*
X208363Y388664D01*
X207009Y391931D01*
X207009Y395469D01*
X208363Y398736D01*
X210864Y401237D01*
X211912Y401671D01*
X211973Y401706D01*
X212038Y401732D01*
X212110Y401784D01*
X212188Y401829D01*
X212238Y401877D01*
X212295Y401918D01*
X212352Y401988D01*
X212417Y402050D01*
X212453Y402110D01*
X212498Y402163D01*
X212536Y402245D01*
X212583Y402321D01*
X212604Y402388D01*
X212633Y402451D01*
X212650Y402539D01*
X212677Y402625D01*
X212680Y402695D01*
X212693Y402764D01*
X212687Y402853D01*
X212692Y402943D01*
X212678Y403011D01*
X212673Y403081D01*
X212646Y403166D01*
X212627Y403254D01*
X212597Y403317D01*
X212575Y403383D01*
X212527Y403459D01*
X212488Y403540D01*
X212442Y403593D01*
X212405Y403652D01*
X212340Y403714D01*
X212281Y403782D01*
X212224Y403822D01*
X212173Y403870D01*
X212095Y403914D01*
X212021Y403965D01*
X211956Y403990D01*
X211895Y404024D01*
X211808Y404046D01*
X211724Y404078D01*
X211654Y404086D01*
X211587Y404103D01*
X211426Y404113D01*
X92887Y404113D01*
X92789Y404101D01*
X92690Y404098D01*
X92632Y404081D01*
X92572Y404073D01*
X92480Y404037D01*
X92385Y404009D01*
X92333Y403979D01*
X92276Y403956D01*
X92196Y403898D01*
X92111Y403848D01*
X92035Y403782D01*
X92019Y403770D01*
X92011Y403760D01*
X91990Y403742D01*
X90584Y402335D01*
X87216Y402335D01*
X84835Y404716D01*
X84835Y408084D01*
X87216Y410465D01*
X90584Y410465D01*
X91482Y409566D01*
X91560Y409506D01*
X91632Y409438D01*
X91685Y409409D01*
X91733Y409372D01*
X91824Y409332D01*
X91911Y409284D01*
X91969Y409269D01*
X92025Y409245D01*
X92123Y409230D01*
X92219Y409205D01*
X92319Y409199D01*
X92339Y409195D01*
X92351Y409197D01*
X92379Y409195D01*
X164846Y409195D01*
X164964Y409210D01*
X165083Y409217D01*
X165121Y409230D01*
X165162Y409235D01*
X165272Y409278D01*
X165385Y409315D01*
X165420Y409337D01*
X165457Y409352D01*
X165553Y409421D01*
X165654Y409485D01*
X165682Y409515D01*
X165715Y409538D01*
X165791Y409630D01*
X165872Y409717D01*
X165892Y409752D01*
X165917Y409783D01*
X165968Y409891D01*
X166026Y409995D01*
X166036Y410035D01*
X166053Y410071D01*
X166075Y410188D01*
X166105Y410303D01*
X166109Y410363D01*
X166113Y410383D01*
X166111Y410404D01*
X166115Y410464D01*
X166115Y413784D01*
X168496Y416165D01*
X171864Y416165D01*
X174245Y413784D01*
X174245Y410464D01*
X174260Y410346D01*
X174267Y410227D01*
X174280Y410189D01*
X174285Y410148D01*
X174328Y410038D01*
X174365Y409925D01*
X174387Y409890D01*
X174402Y409853D01*
X174471Y409757D01*
X174535Y409656D01*
X174565Y409628D01*
X174588Y409595D01*
X174680Y409519D01*
X174767Y409438D01*
X174802Y409418D01*
X174833Y409393D01*
X174941Y409342D01*
X175045Y409284D01*
X175085Y409274D01*
X175121Y409257D01*
X175238Y409235D01*
X175353Y409205D01*
X175413Y409201D01*
X175433Y409197D01*
X175454Y409199D01*
X175514Y409195D01*
X210200Y409195D01*
X210269Y409204D01*
X210339Y409202D01*
X210427Y409223D01*
X210515Y409235D01*
X210580Y409260D01*
X210649Y409277D01*
X210728Y409319D01*
X210811Y409352D01*
X210868Y409393D01*
X210930Y409426D01*
X210996Y409486D01*
X211068Y409538D01*
X211113Y409592D01*
X211165Y409640D01*
X211214Y409714D01*
X211271Y409783D01*
X211301Y409847D01*
X211340Y409905D01*
X211369Y409990D01*
X211407Y410071D01*
X211420Y410140D01*
X211443Y410206D01*
X211450Y410296D01*
X211467Y410383D01*
X211462Y410453D01*
X211468Y410523D01*
X211452Y410612D01*
X211447Y410701D01*
X211425Y410767D01*
X211413Y410837D01*
X211376Y410918D01*
X211349Y411003D01*
X211311Y411063D01*
X211283Y411126D01*
X211227Y411196D01*
X211179Y411272D01*
X211128Y411320D01*
X211084Y411375D01*
X211012Y411429D01*
X210947Y411490D01*
X210924Y411503D01*
X208363Y414064D01*
X207009Y417331D01*
X207009Y420869D01*
X208363Y424136D01*
X210864Y426637D01*
X214131Y427991D01*
X217669Y427991D01*
X220936Y426637D01*
X223437Y424136D01*
X224791Y420869D01*
X224791Y417331D01*
X223437Y414064D01*
X220872Y411498D01*
X220839Y411479D01*
X220788Y411431D01*
X220732Y411390D01*
X220674Y411321D01*
X220610Y411258D01*
X220573Y411199D01*
X220529Y411145D01*
X220491Y411063D01*
X220444Y410987D01*
X220423Y410920D01*
X220393Y410857D01*
X220376Y410769D01*
X220350Y410683D01*
X220347Y410613D01*
X220333Y410544D01*
X220339Y410455D01*
X220335Y410366D01*
X220349Y410297D01*
X220353Y410227D01*
X220381Y410142D01*
X220399Y410054D01*
X220430Y409991D01*
X220451Y409925D01*
X220499Y409849D01*
X220538Y409768D01*
X220584Y409715D01*
X220621Y409656D01*
X220687Y409595D01*
X220745Y409526D01*
X220802Y409486D01*
X220853Y409438D01*
X220931Y409395D01*
X221005Y409343D01*
X221070Y409318D01*
X221131Y409284D01*
X221218Y409262D01*
X221302Y409230D01*
X221372Y409222D01*
X221439Y409205D01*
X221600Y409195D01*
X337200Y409195D01*
X337269Y409203D01*
X337339Y409202D01*
X337426Y409223D01*
X337515Y409235D01*
X337580Y409260D01*
X337648Y409277D01*
X337728Y409319D01*
X337811Y409352D01*
X337868Y409393D01*
X337929Y409425D01*
X337996Y409486D01*
X338068Y409538D01*
X338113Y409592D01*
X338165Y409639D01*
X338214Y409714D01*
X338271Y409783D01*
X338301Y409847D01*
X338339Y409905D01*
X338369Y409990D01*
X338407Y410071D01*
X338420Y410140D01*
X338443Y410206D01*
X338450Y410296D01*
X338467Y410383D01*
X338462Y410453D01*
X338468Y410523D01*
X338452Y410611D01*
X338447Y410701D01*
X338425Y410767D01*
X338413Y410836D01*
X338376Y410918D01*
X338349Y411003D01*
X338311Y411062D01*
X338283Y411126D01*
X338227Y411196D01*
X338179Y411272D01*
X338128Y411320D01*
X338084Y411375D01*
X338012Y411428D01*
X337947Y411490D01*
X337924Y411503D01*
X335363Y414064D01*
X334009Y417331D01*
X334009Y420869D01*
X335363Y424136D01*
X337864Y426637D01*
X341131Y427991D01*
X344669Y427991D01*
X347936Y426637D01*
X350437Y424136D01*
X351791Y420869D01*
X351791Y417331D01*
X350437Y414064D01*
X347872Y411498D01*
X347838Y411479D01*
X347788Y411431D01*
X347732Y411390D01*
X347674Y411320D01*
X347610Y411258D01*
X347573Y411198D01*
X347529Y411145D01*
X347491Y411063D01*
X347444Y410987D01*
X347423Y410920D01*
X347393Y410857D01*
X347376Y410769D01*
X347350Y410683D01*
X347347Y410613D01*
X347333Y410544D01*
X347339Y410455D01*
X347335Y410365D01*
X347349Y410297D01*
X347353Y410227D01*
X347381Y410142D01*
X347399Y410054D01*
X347430Y409991D01*
X347451Y409925D01*
X347499Y409849D01*
X347539Y409768D01*
X347584Y409715D01*
X347621Y409656D01*
X347687Y409594D01*
X347745Y409526D01*
X347802Y409486D01*
X347853Y409438D01*
X347932Y409395D01*
X348005Y409343D01*
X348070Y409318D01*
X348132Y409284D01*
X348218Y409262D01*
X348302Y409230D01*
X348372Y409222D01*
X348439Y409205D01*
X348600Y409195D01*
X421640Y409195D01*
X421758Y409210D01*
X421877Y409217D01*
X421915Y409230D01*
X421956Y409235D01*
X422066Y409278D01*
X422179Y409315D01*
X422214Y409337D01*
X422251Y409352D01*
X422347Y409421D01*
X422448Y409485D01*
X422476Y409515D01*
X422509Y409538D01*
X422585Y409630D01*
X422666Y409717D01*
X422686Y409752D01*
X422711Y409783D01*
X422762Y409891D01*
X422820Y409995D01*
X422830Y410035D01*
X422847Y410071D01*
X422869Y410188D01*
X422899Y410303D01*
X422903Y410363D01*
X422907Y410383D01*
X422905Y410404D01*
X422909Y410464D01*
X422909Y414180D01*
X424646Y415917D01*
X424731Y416026D01*
X424820Y416133D01*
X424829Y416152D01*
X424841Y416168D01*
X424897Y416296D01*
X424956Y416421D01*
X424959Y416441D01*
X424967Y416460D01*
X424989Y416598D01*
X425015Y416734D01*
X425014Y416754D01*
X425017Y416774D01*
X425004Y416913D01*
X424996Y417051D01*
X424989Y417070D01*
X424987Y417090D01*
X424940Y417222D01*
X424898Y417353D01*
X424887Y417371D01*
X424880Y417390D01*
X424802Y417505D01*
X424727Y417622D01*
X424713Y417636D01*
X424701Y417653D01*
X424597Y417745D01*
X424496Y417840D01*
X424478Y417850D01*
X424463Y417863D01*
X424339Y417927D01*
X424217Y417994D01*
X424198Y417999D01*
X424180Y418008D01*
X424044Y418038D01*
X423909Y418073D01*
X423881Y418075D01*
X423869Y418078D01*
X423849Y418077D01*
X423749Y418083D01*
X387314Y418083D01*
X382523Y422874D01*
X382523Y429260D01*
X382508Y429378D01*
X382501Y429497D01*
X382488Y429535D01*
X382483Y429576D01*
X382440Y429686D01*
X382403Y429799D01*
X382381Y429834D01*
X382366Y429871D01*
X382297Y429967D01*
X382233Y430068D01*
X382203Y430096D01*
X382180Y430129D01*
X382088Y430205D01*
X382001Y430286D01*
X381966Y430306D01*
X381935Y430331D01*
X381827Y430382D01*
X381723Y430440D01*
X381683Y430450D01*
X381647Y430467D01*
X381530Y430489D01*
X381415Y430519D01*
X381355Y430523D01*
X381335Y430527D01*
X381314Y430525D01*
X381254Y430529D01*
X251891Y430529D01*
X251793Y430517D01*
X251694Y430514D01*
X251636Y430497D01*
X251576Y430489D01*
X251484Y430453D01*
X251389Y430425D01*
X251337Y430395D01*
X251280Y430372D01*
X251200Y430314D01*
X251115Y430264D01*
X251039Y430198D01*
X251023Y430186D01*
X251015Y430176D01*
X250994Y430158D01*
X249842Y429005D01*
X246474Y429005D01*
X244093Y431386D01*
X244093Y434754D01*
X246474Y437135D01*
X249842Y437135D01*
X250994Y435982D01*
X251072Y435922D01*
X251144Y435854D01*
X251197Y435825D01*
X251245Y435788D01*
X251336Y435748D01*
X251423Y435700D01*
X251481Y435685D01*
X251537Y435661D01*
X251635Y435646D01*
X251731Y435621D01*
X251831Y435615D01*
X251851Y435611D01*
X251863Y435613D01*
X251891Y435611D01*
X336152Y435611D01*
X336289Y435628D01*
X336428Y435641D01*
X336447Y435648D01*
X336467Y435651D01*
X336596Y435702D01*
X336727Y435749D01*
X336744Y435760D01*
X336763Y435768D01*
X336875Y435849D01*
X336990Y435927D01*
X337004Y435943D01*
X337020Y435954D01*
X337109Y436062D01*
X337201Y436166D01*
X337210Y436184D01*
X337223Y436199D01*
X337282Y436325D01*
X337345Y436449D01*
X337350Y436469D01*
X337359Y436487D01*
X337385Y436624D01*
X337415Y436759D01*
X337415Y436780D01*
X337418Y436799D01*
X337410Y436938D01*
X337405Y437077D01*
X337400Y437097D01*
X337399Y437117D01*
X337356Y437249D01*
X337317Y437383D01*
X337307Y437400D01*
X337301Y437419D01*
X337226Y437537D01*
X337156Y437657D01*
X337137Y437678D01*
X337130Y437688D01*
X337115Y437702D01*
X337049Y437777D01*
X335363Y439464D01*
X334009Y442731D01*
X334009Y446269D01*
X335363Y449536D01*
X337864Y452037D01*
X341131Y453391D01*
X344669Y453391D01*
X347936Y452037D01*
X350437Y449536D01*
X351791Y446269D01*
X351791Y442731D01*
X350437Y439464D01*
X348751Y437777D01*
X348666Y437668D01*
X348577Y437561D01*
X348568Y437542D01*
X348556Y437526D01*
X348500Y437398D01*
X348441Y437273D01*
X348438Y437253D01*
X348430Y437234D01*
X348408Y437096D01*
X348382Y436960D01*
X348383Y436940D01*
X348380Y436920D01*
X348393Y436781D01*
X348401Y436643D01*
X348408Y436624D01*
X348410Y436604D01*
X348457Y436472D01*
X348499Y436341D01*
X348510Y436323D01*
X348517Y436304D01*
X348595Y436189D01*
X348670Y436072D01*
X348684Y436058D01*
X348696Y436041D01*
X348800Y435949D01*
X348901Y435854D01*
X348919Y435844D01*
X348934Y435831D01*
X349058Y435767D01*
X349180Y435700D01*
X349199Y435695D01*
X349217Y435686D01*
X349353Y435656D01*
X349488Y435621D01*
X349516Y435619D01*
X349528Y435616D01*
X349548Y435617D01*
X349648Y435611D01*
X384592Y435611D01*
X387605Y432598D01*
X387605Y425504D01*
X387617Y425406D01*
X387620Y425307D01*
X387637Y425249D01*
X387645Y425189D01*
X387681Y425097D01*
X387709Y425001D01*
X387739Y424949D01*
X387762Y424893D01*
X387820Y424813D01*
X387870Y424728D01*
X387936Y424652D01*
X387948Y424636D01*
X387958Y424628D01*
X387976Y424607D01*
X389047Y423536D01*
X389125Y423476D01*
X389197Y423408D01*
X389250Y423379D01*
X389298Y423342D01*
X389389Y423302D01*
X389476Y423254D01*
X389534Y423239D01*
X389590Y423215D01*
X389688Y423200D01*
X389783Y423175D01*
X389884Y423169D01*
X389904Y423165D01*
X389916Y423167D01*
X389944Y423165D01*
X435433Y423165D01*
X435531Y423177D01*
X435630Y423180D01*
X435688Y423197D01*
X435748Y423205D01*
X435840Y423241D01*
X435935Y423269D01*
X435987Y423299D01*
X436044Y423322D01*
X436124Y423380D01*
X436209Y423430D01*
X436285Y423496D01*
X436301Y423508D01*
X436309Y423518D01*
X436330Y423536D01*
X437482Y424689D01*
X440850Y424689D01*
X443231Y422308D01*
X443231Y419354D01*
X443246Y419236D01*
X443253Y419117D01*
X443266Y419079D01*
X443271Y419038D01*
X443314Y418928D01*
X443351Y418815D01*
X443373Y418780D01*
X443388Y418743D01*
X443457Y418647D01*
X443521Y418546D01*
X443551Y418518D01*
X443574Y418485D01*
X443666Y418409D01*
X443753Y418328D01*
X443788Y418308D01*
X443819Y418283D01*
X443927Y418232D01*
X444031Y418174D01*
X444071Y418164D01*
X444107Y418147D01*
X444224Y418125D01*
X444339Y418095D01*
X444399Y418091D01*
X444419Y418087D01*
X444440Y418089D01*
X444500Y418085D01*
X450419Y418085D01*
X450517Y418097D01*
X450616Y418100D01*
X450674Y418117D01*
X450734Y418125D01*
X450826Y418161D01*
X450921Y418189D01*
X450973Y418219D01*
X451030Y418242D01*
X451110Y418300D01*
X451195Y418350D01*
X451271Y418416D01*
X451287Y418428D01*
X451295Y418438D01*
X451316Y418456D01*
X452468Y419609D01*
X455836Y419609D01*
X458303Y417141D01*
X458337Y417037D01*
X458359Y417002D01*
X458374Y416965D01*
X458443Y416869D01*
X458507Y416768D01*
X458537Y416740D01*
X458560Y416707D01*
X458652Y416631D01*
X458739Y416550D01*
X458774Y416530D01*
X458805Y416505D01*
X458913Y416454D01*
X459017Y416396D01*
X459057Y416386D01*
X459093Y416369D01*
X459210Y416347D01*
X459325Y416317D01*
X459385Y416313D01*
X459405Y416309D01*
X459426Y416311D01*
X459486Y416307D01*
X462948Y416307D01*
X465329Y413926D01*
X465329Y410558D01*
X462948Y408177D01*
X459580Y408177D01*
X457113Y410645D01*
X457079Y410749D01*
X457057Y410784D01*
X457042Y410821D01*
X456973Y410917D01*
X456909Y411018D01*
X456879Y411046D01*
X456856Y411079D01*
X456764Y411155D01*
X456677Y411236D01*
X456642Y411256D01*
X456611Y411281D01*
X456503Y411332D01*
X456399Y411390D01*
X456359Y411400D01*
X456323Y411417D01*
X456206Y411439D01*
X456091Y411469D01*
X456031Y411473D01*
X456011Y411477D01*
X455990Y411475D01*
X455930Y411479D01*
X452468Y411479D01*
X451316Y412632D01*
X451238Y412692D01*
X451166Y412760D01*
X451113Y412789D01*
X451065Y412826D01*
X450974Y412866D01*
X450887Y412914D01*
X450829Y412929D01*
X450773Y412953D01*
X450675Y412968D01*
X450579Y412993D01*
X450479Y412999D01*
X450459Y413003D01*
X450447Y413001D01*
X450419Y413003D01*
X445570Y413003D01*
X445472Y412991D01*
X445373Y412988D01*
X445315Y412971D01*
X445255Y412963D01*
X445163Y412927D01*
X445067Y412899D01*
X445015Y412869D01*
X444959Y412846D01*
X444879Y412788D01*
X444794Y412738D01*
X444718Y412672D01*
X444702Y412660D01*
X444694Y412650D01*
X444673Y412632D01*
X438831Y406789D01*
X438745Y406680D01*
X438657Y406573D01*
X438648Y406554D01*
X438636Y406538D01*
X438580Y406410D01*
X438521Y406285D01*
X438517Y406265D01*
X438509Y406246D01*
X438487Y406108D01*
X438461Y405972D01*
X438463Y405952D01*
X438459Y405932D01*
X438473Y405793D01*
X438481Y405655D01*
X438487Y405636D01*
X438489Y405616D01*
X438536Y405484D01*
X438579Y405353D01*
X438590Y405335D01*
X438597Y405316D01*
X438675Y405201D01*
X438749Y405084D01*
X438764Y405070D01*
X438775Y405053D01*
X438880Y404961D01*
X438981Y404866D01*
X438999Y404856D01*
X439014Y404843D01*
X439138Y404779D01*
X439259Y404712D01*
X439279Y404707D01*
X439297Y404698D01*
X439433Y404668D01*
X439567Y404633D01*
X439595Y404631D01*
X439607Y404628D01*
X439628Y404629D01*
X439728Y404623D01*
X439834Y404623D01*
X442215Y402242D01*
X442215Y398874D01*
X439834Y396493D01*
X436466Y396493D01*
X435492Y397468D01*
X435397Y397541D01*
X435308Y397620D01*
X435272Y397638D01*
X435240Y397663D01*
X435131Y397710D01*
X435025Y397764D01*
X434986Y397773D01*
X434948Y397789D01*
X434831Y397808D01*
X434715Y397834D01*
X434674Y397833D01*
X434634Y397839D01*
X434516Y397828D01*
X434397Y397824D01*
X434358Y397813D01*
X434318Y397809D01*
X434205Y397769D01*
X434091Y397736D01*
X434057Y397716D01*
X434018Y397702D01*
X433920Y397635D01*
X433817Y397575D01*
X433772Y397535D01*
X433755Y397523D01*
X433742Y397508D01*
X433697Y397468D01*
X432214Y395985D01*
X428846Y395985D01*
X427110Y397722D01*
X427015Y397795D01*
X426926Y397874D01*
X426890Y397892D01*
X426858Y397917D01*
X426749Y397964D01*
X426643Y398018D01*
X426604Y398027D01*
X426566Y398043D01*
X426449Y398062D01*
X426333Y398088D01*
X426292Y398087D01*
X426252Y398093D01*
X426134Y398082D01*
X426015Y398078D01*
X425976Y398067D01*
X425936Y398063D01*
X425823Y398023D01*
X425709Y397990D01*
X425675Y397970D01*
X425636Y397956D01*
X425538Y397889D01*
X425435Y397829D01*
X425390Y397789D01*
X425373Y397777D01*
X425360Y397762D01*
X425315Y397722D01*
X424594Y397001D01*
X421226Y397001D01*
X418845Y399382D01*
X418845Y402844D01*
X418830Y402962D01*
X418823Y403081D01*
X418810Y403119D01*
X418805Y403160D01*
X418762Y403270D01*
X418725Y403383D01*
X418703Y403418D01*
X418688Y403455D01*
X418619Y403551D01*
X418555Y403652D01*
X418525Y403680D01*
X418502Y403713D01*
X418410Y403789D01*
X418323Y403870D01*
X418288Y403890D01*
X418257Y403915D01*
X418149Y403966D01*
X418045Y404024D01*
X418005Y404034D01*
X417969Y404051D01*
X417852Y404073D01*
X417737Y404103D01*
X417677Y404107D01*
X417657Y404111D01*
X417636Y404109D01*
X417576Y404113D01*
X397764Y404113D01*
X397646Y404098D01*
X397527Y404091D01*
X397489Y404078D01*
X397448Y404073D01*
X397338Y404030D01*
X397225Y403993D01*
X397190Y403971D01*
X397153Y403956D01*
X397057Y403887D01*
X396956Y403823D01*
X396928Y403793D01*
X396895Y403770D01*
X396819Y403678D01*
X396738Y403591D01*
X396718Y403556D01*
X396693Y403525D01*
X396642Y403417D01*
X396584Y403313D01*
X396574Y403273D01*
X396557Y403237D01*
X396535Y403120D01*
X396505Y403005D01*
X396501Y402945D01*
X396497Y402925D01*
X396499Y402904D01*
X396495Y402844D01*
X396495Y399636D01*
X394114Y397255D01*
X390746Y397255D01*
X388365Y399636D01*
X388365Y402844D01*
X388350Y402962D01*
X388343Y403081D01*
X388330Y403119D01*
X388325Y403160D01*
X388282Y403270D01*
X388245Y403383D01*
X388223Y403418D01*
X388208Y403455D01*
X388139Y403551D01*
X388075Y403652D01*
X388045Y403680D01*
X388022Y403713D01*
X387930Y403789D01*
X387843Y403870D01*
X387808Y403890D01*
X387777Y403915D01*
X387669Y403966D01*
X387565Y404024D01*
X387525Y404034D01*
X387489Y404051D01*
X387372Y404073D01*
X387257Y404103D01*
X387197Y404107D01*
X387177Y404111D01*
X387156Y404109D01*
X387096Y404113D01*
X347374Y404113D01*
X347305Y404105D01*
X347235Y404106D01*
X347147Y404085D01*
X347058Y404073D01*
X346993Y404048D01*
X346925Y404031D01*
X346846Y403989D01*
X346762Y403956D01*
X346706Y403915D01*
X346644Y403883D01*
X346578Y403822D01*
X346505Y403770D01*
X346461Y403716D01*
X346409Y403669D01*
X346360Y403594D01*
X346302Y403525D01*
X346273Y403461D01*
X346234Y403403D01*
X346205Y403318D01*
X346167Y403237D01*
X346154Y403168D01*
X346131Y403102D01*
X346124Y403013D01*
X346107Y402925D01*
X346111Y402855D01*
X346106Y402785D01*
X346121Y402697D01*
X346127Y402607D01*
X346148Y402541D01*
X346160Y402472D01*
X346197Y402390D01*
X346225Y402305D01*
X346262Y402246D01*
X346291Y402182D01*
X346347Y402112D01*
X346395Y402036D01*
X346446Y401988D01*
X346489Y401934D01*
X346561Y401879D01*
X346627Y401818D01*
X346688Y401784D01*
X346743Y401742D01*
X346888Y401671D01*
X347936Y401237D01*
X350437Y398736D01*
X351791Y395469D01*
X351791Y391931D01*
X350437Y388664D01*
X347936Y386163D01*
X344669Y384809D01*
X341131Y384809D01*
X337864Y386163D01*
X335363Y388664D01*
X334009Y391931D01*
X334009Y395469D01*
X335363Y398736D01*
X337864Y401237D01*
X338912Y401671D01*
X338973Y401706D01*
X339038Y401732D01*
X339110Y401784D01*
X339188Y401829D01*
X339238Y401877D01*
X339295Y401918D01*
X339352Y401988D01*
X339417Y402050D01*
X339453Y402110D01*
X339498Y402163D01*
X339536Y402245D01*
X339583Y402321D01*
X339603Y402388D01*
X339633Y402451D01*
X339650Y402539D01*
X339677Y402625D01*
X339680Y402695D01*
X339693Y402764D01*
X339687Y402853D01*
X339692Y402943D01*
X339678Y403011D01*
X339673Y403081D01*
X339646Y403166D01*
X339627Y403254D01*
X339597Y403317D01*
X339575Y403383D01*
X339527Y403459D01*
X339488Y403540D01*
X339442Y403593D01*
X339405Y403652D01*
X339340Y403714D01*
X339281Y403782D01*
X339224Y403822D01*
X339173Y403870D01*
X339095Y403913D01*
X339021Y403965D01*
X338956Y403990D01*
X338895Y404024D01*
X338808Y404046D01*
X338724Y404078D01*
X338654Y404086D01*
X338587Y404103D01*
X338426Y404113D01*
X220374Y404113D01*
X220304Y404105D01*
X220235Y404106D01*
X220147Y404085D01*
X220058Y404073D01*
X219993Y404048D01*
X219925Y404031D01*
X219846Y403989D01*
X219762Y403956D01*
X219706Y403915D01*
X219644Y403883D01*
X219578Y403822D01*
X219505Y403770D01*
X219461Y403716D01*
X219409Y403669D01*
X219360Y403594D01*
X219302Y403525D01*
X219273Y403461D01*
X219234Y403403D01*
X219205Y403318D01*
X219167Y403237D01*
X219154Y403168D01*
X219131Y403102D01*
X219124Y403013D01*
X219107Y402925D01*
X219111Y402855D01*
X219106Y402785D01*
X219121Y402697D01*
X219127Y402607D01*
X219148Y402541D01*
X219160Y402472D01*
X219197Y402390D01*
X219225Y402305D01*
X219262Y402246D01*
X219291Y402182D01*
X219347Y402112D01*
X219395Y402036D01*
X219446Y401988D01*
X219489Y401934D01*
X219561Y401880D01*
X219627Y401818D01*
X219688Y401784D01*
X219743Y401742D01*
X219888Y401671D01*
X220936Y401237D01*
X223437Y398736D01*
X224791Y395469D01*
X224791Y391931D01*
X223437Y388664D01*
X220936Y386163D01*
X217669Y384809D01*
X214131Y384809D01*
G37*
%LPD*%
%LPC*%
G36*
X284739Y130809D02*
X284739Y130809D01*
X282872Y131583D01*
X281443Y133012D01*
X280669Y134879D01*
X280669Y139187D01*
X281443Y141054D01*
X287190Y146801D01*
X289057Y147575D01*
X312584Y147575D01*
X312682Y147587D01*
X312781Y147590D01*
X312839Y147607D01*
X312899Y147615D01*
X312991Y147651D01*
X313086Y147679D01*
X313139Y147709D01*
X313195Y147732D01*
X313275Y147790D01*
X313360Y147840D01*
X313436Y147906D01*
X313452Y147918D01*
X313460Y147928D01*
X313481Y147946D01*
X340913Y175379D01*
X340999Y175488D01*
X341087Y175595D01*
X341096Y175614D01*
X341108Y175630D01*
X341164Y175758D01*
X341223Y175883D01*
X341226Y175903D01*
X341235Y175922D01*
X341256Y176060D01*
X341282Y176196D01*
X341281Y176216D01*
X341284Y176236D01*
X341271Y176374D01*
X341263Y176513D01*
X341257Y176532D01*
X341255Y176552D01*
X341207Y176684D01*
X341165Y176815D01*
X341154Y176833D01*
X341147Y176852D01*
X341069Y176967D01*
X340995Y177084D01*
X340980Y177098D01*
X340968Y177115D01*
X340864Y177207D01*
X340763Y177302D01*
X340745Y177312D01*
X340730Y177325D01*
X340606Y177388D01*
X340484Y177456D01*
X340465Y177461D01*
X340447Y177470D01*
X340311Y177500D01*
X340222Y177523D01*
X337819Y179926D01*
X337819Y183294D01*
X340200Y185675D01*
X343568Y185675D01*
X345973Y183270D01*
X345979Y183202D01*
X345986Y183183D01*
X345989Y183163D01*
X346040Y183034D01*
X346087Y182903D01*
X346098Y182886D01*
X346106Y182867D01*
X346187Y182755D01*
X346265Y182639D01*
X346281Y182626D01*
X346292Y182610D01*
X346400Y182521D01*
X346504Y182429D01*
X346522Y182420D01*
X346537Y182407D01*
X346663Y182348D01*
X346787Y182284D01*
X346807Y182280D01*
X346825Y182271D01*
X346961Y182245D01*
X347097Y182215D01*
X347118Y182215D01*
X347137Y182212D01*
X347276Y182220D01*
X347415Y182224D01*
X347435Y182230D01*
X347455Y182231D01*
X347587Y182274D01*
X347721Y182313D01*
X347738Y182323D01*
X347757Y182329D01*
X347875Y182404D01*
X347995Y182474D01*
X348016Y182493D01*
X348026Y182499D01*
X348040Y182514D01*
X348115Y182581D01*
X360308Y194773D01*
X360368Y194851D01*
X360436Y194923D01*
X360465Y194976D01*
X360502Y195024D01*
X360542Y195115D01*
X360590Y195202D01*
X360605Y195260D01*
X360629Y195316D01*
X360644Y195414D01*
X360669Y195510D01*
X360675Y195610D01*
X360679Y195630D01*
X360677Y195642D01*
X360679Y195670D01*
X360679Y234437D01*
X361453Y236304D01*
X363061Y237912D01*
X416315Y291166D01*
X416375Y291244D01*
X416443Y291316D01*
X416472Y291369D01*
X416509Y291417D01*
X416549Y291508D01*
X416597Y291595D01*
X416612Y291653D01*
X416636Y291709D01*
X416651Y291807D01*
X416676Y291903D01*
X416682Y292003D01*
X416686Y292023D01*
X416684Y292035D01*
X416686Y292063D01*
X416686Y316434D01*
X416669Y316571D01*
X416656Y316710D01*
X416649Y316729D01*
X416646Y316749D01*
X416595Y316879D01*
X416548Y317009D01*
X416537Y317026D01*
X416529Y317045D01*
X416448Y317158D01*
X416370Y317272D01*
X416354Y317286D01*
X416343Y317302D01*
X416235Y317391D01*
X416131Y317483D01*
X416113Y317492D01*
X416098Y317505D01*
X415972Y317564D01*
X415848Y317628D01*
X415828Y317632D01*
X415810Y317641D01*
X415673Y317667D01*
X415538Y317697D01*
X415517Y317697D01*
X415498Y317700D01*
X415359Y317692D01*
X415220Y317687D01*
X415200Y317682D01*
X415180Y317681D01*
X415048Y317638D01*
X414914Y317599D01*
X414897Y317589D01*
X414878Y317583D01*
X414760Y317508D01*
X414745Y317499D01*
X411320Y317499D01*
X408939Y319880D01*
X408939Y323248D01*
X411692Y326000D01*
X411765Y326094D01*
X411844Y326184D01*
X411853Y326202D01*
X411866Y326217D01*
X411875Y326236D01*
X411887Y326252D01*
X411934Y326360D01*
X411988Y326467D01*
X411993Y326487D01*
X412002Y326505D01*
X412005Y326525D01*
X412013Y326544D01*
X412032Y326660D01*
X412058Y326777D01*
X412058Y326798D01*
X412061Y326817D01*
X412060Y326838D01*
X412063Y326858D01*
X412052Y326975D01*
X412048Y327095D01*
X412043Y327115D01*
X412042Y327135D01*
X412035Y327154D01*
X412033Y327174D01*
X411993Y327286D01*
X411960Y327401D01*
X411950Y327418D01*
X411944Y327437D01*
X411933Y327455D01*
X411926Y327474D01*
X411859Y327572D01*
X411799Y327675D01*
X411780Y327696D01*
X411773Y327706D01*
X411758Y327720D01*
X411747Y327737D01*
X411732Y327750D01*
X411692Y327795D01*
X409701Y329786D01*
X409701Y333154D01*
X412082Y335535D01*
X415417Y335535D01*
X415535Y335550D01*
X415654Y335557D01*
X415692Y335570D01*
X415733Y335575D01*
X415843Y335618D01*
X415956Y335655D01*
X415991Y335677D01*
X416028Y335692D01*
X416124Y335761D01*
X416225Y335825D01*
X416253Y335855D01*
X416286Y335878D01*
X416362Y335970D01*
X416443Y336057D01*
X416463Y336092D01*
X416488Y336123D01*
X416539Y336231D01*
X416597Y336335D01*
X416607Y336375D01*
X416624Y336411D01*
X416646Y336528D01*
X416676Y336643D01*
X416680Y336703D01*
X416684Y336723D01*
X416682Y336744D01*
X416686Y336804D01*
X416686Y347086D01*
X417460Y348953D01*
X422318Y353811D01*
X424185Y354585D01*
X480817Y354585D01*
X482684Y353811D01*
X484367Y352128D01*
X485141Y350261D01*
X485141Y348239D01*
X484367Y346372D01*
X482938Y344943D01*
X481071Y344169D01*
X479049Y344169D01*
X478669Y344327D01*
X478660Y344329D01*
X478652Y344334D01*
X478508Y344371D01*
X478363Y344411D01*
X478353Y344411D01*
X478344Y344413D01*
X478184Y344423D01*
X463473Y344423D01*
X463336Y344406D01*
X463197Y344393D01*
X463178Y344386D01*
X463158Y344383D01*
X463029Y344332D01*
X462898Y344285D01*
X462881Y344274D01*
X462862Y344266D01*
X462750Y344185D01*
X462635Y344107D01*
X462621Y344091D01*
X462605Y344080D01*
X462516Y343972D01*
X462424Y343868D01*
X462415Y343850D01*
X462402Y343835D01*
X462343Y343709D01*
X462280Y343585D01*
X462275Y343565D01*
X462266Y343547D01*
X462240Y343410D01*
X462210Y343275D01*
X462210Y343254D01*
X462207Y343235D01*
X462215Y343096D01*
X462220Y342957D01*
X462225Y342937D01*
X462226Y342917D01*
X462269Y342785D01*
X462308Y342651D01*
X462318Y342634D01*
X462324Y342615D01*
X462399Y342497D01*
X462469Y342377D01*
X462488Y342356D01*
X462495Y342346D01*
X462510Y342332D01*
X462576Y342257D01*
X464059Y340774D01*
X464059Y337406D01*
X461678Y335025D01*
X458310Y335025D01*
X455929Y337406D01*
X455929Y340774D01*
X457412Y342257D01*
X457497Y342366D01*
X457586Y342473D01*
X457595Y342492D01*
X457607Y342508D01*
X457663Y342636D01*
X457722Y342761D01*
X457725Y342781D01*
X457733Y342800D01*
X457755Y342938D01*
X457781Y343074D01*
X457780Y343094D01*
X457783Y343114D01*
X457770Y343253D01*
X457762Y343391D01*
X457755Y343410D01*
X457753Y343430D01*
X457706Y343562D01*
X457664Y343693D01*
X457653Y343711D01*
X457646Y343730D01*
X457568Y343845D01*
X457493Y343962D01*
X457479Y343976D01*
X457467Y343993D01*
X457363Y344085D01*
X457262Y344180D01*
X457244Y344190D01*
X457229Y344203D01*
X457105Y344267D01*
X456983Y344334D01*
X456964Y344339D01*
X456946Y344348D01*
X456810Y344378D01*
X456675Y344413D01*
X456647Y344415D01*
X456635Y344418D01*
X456615Y344417D01*
X456515Y344423D01*
X428117Y344423D01*
X427999Y344408D01*
X427880Y344401D01*
X427842Y344388D01*
X427801Y344383D01*
X427691Y344340D01*
X427578Y344303D01*
X427543Y344281D01*
X427506Y344266D01*
X427410Y344197D01*
X427309Y344133D01*
X427281Y344103D01*
X427248Y344080D01*
X427172Y343988D01*
X427091Y343901D01*
X427071Y343866D01*
X427046Y343835D01*
X426995Y343727D01*
X426937Y343623D01*
X426927Y343583D01*
X426910Y343547D01*
X426888Y343430D01*
X426858Y343315D01*
X426854Y343255D01*
X426850Y343235D01*
X426852Y343214D01*
X426848Y343154D01*
X426848Y288422D01*
X426074Y286555D01*
X424467Y284947D01*
X424466Y284947D01*
X415415Y275896D01*
X415342Y275802D01*
X415264Y275713D01*
X415245Y275677D01*
X415220Y275645D01*
X415173Y275535D01*
X415119Y275430D01*
X415110Y275390D01*
X415094Y275353D01*
X415075Y275235D01*
X415049Y275119D01*
X415051Y275079D01*
X415044Y275039D01*
X415055Y274920D01*
X415059Y274801D01*
X415070Y274762D01*
X415074Y274722D01*
X415114Y274610D01*
X415147Y274496D01*
X415168Y274461D01*
X415182Y274423D01*
X415249Y274324D01*
X415309Y274222D01*
X415349Y274177D01*
X415360Y274160D01*
X415375Y274146D01*
X415415Y274101D01*
X417831Y271686D01*
X417831Y268318D01*
X415450Y265937D01*
X412082Y265937D01*
X409667Y268353D01*
X409573Y268426D01*
X409484Y268504D01*
X409448Y268523D01*
X409416Y268548D01*
X409306Y268595D01*
X409200Y268649D01*
X409161Y268658D01*
X409124Y268674D01*
X409006Y268693D01*
X408890Y268719D01*
X408850Y268717D01*
X408810Y268724D01*
X408691Y268713D01*
X408572Y268709D01*
X408533Y268698D01*
X408493Y268694D01*
X408381Y268654D01*
X408267Y268621D01*
X408232Y268600D01*
X408194Y268586D01*
X408095Y268520D01*
X407993Y268459D01*
X407947Y268419D01*
X407931Y268408D01*
X407917Y268393D01*
X407872Y268353D01*
X372319Y232799D01*
X372233Y232690D01*
X372145Y232583D01*
X372136Y232564D01*
X372124Y232548D01*
X372068Y232420D01*
X372009Y232295D01*
X372006Y232275D01*
X371997Y232256D01*
X371976Y232118D01*
X371950Y231982D01*
X371951Y231962D01*
X371948Y231942D01*
X371961Y231803D01*
X371969Y231665D01*
X371975Y231646D01*
X371977Y231626D01*
X372025Y231494D01*
X372067Y231363D01*
X372078Y231345D01*
X372085Y231326D01*
X372163Y231211D01*
X372237Y231094D01*
X372252Y231080D01*
X372264Y231063D01*
X372368Y230971D01*
X372469Y230876D01*
X372487Y230866D01*
X372502Y230853D01*
X372626Y230789D01*
X372748Y230722D01*
X372767Y230717D01*
X372785Y230708D01*
X372921Y230678D01*
X373056Y230643D01*
X373084Y230641D01*
X373096Y230638D01*
X373116Y230639D01*
X373216Y230633D01*
X376334Y230633D01*
X378715Y228252D01*
X378715Y224884D01*
X376334Y222503D01*
X372954Y222503D01*
X372898Y222547D01*
X372791Y222636D01*
X372772Y222645D01*
X372756Y222657D01*
X372628Y222712D01*
X372503Y222772D01*
X372483Y222775D01*
X372464Y222783D01*
X372327Y222805D01*
X372190Y222831D01*
X372170Y222830D01*
X372150Y222833D01*
X372012Y222820D01*
X371873Y222812D01*
X371854Y222805D01*
X371834Y222803D01*
X371703Y222756D01*
X371571Y222714D01*
X371553Y222703D01*
X371534Y222696D01*
X371419Y222618D01*
X371302Y222543D01*
X371288Y222529D01*
X371271Y222517D01*
X371179Y222413D01*
X371084Y222312D01*
X371074Y222294D01*
X371061Y222279D01*
X370997Y222155D01*
X370930Y222033D01*
X370925Y222014D01*
X370916Y221996D01*
X370886Y221859D01*
X370851Y221725D01*
X370849Y221697D01*
X370846Y221685D01*
X370847Y221665D01*
X370841Y221565D01*
X370841Y192029D01*
X370067Y190162D01*
X366223Y186317D01*
X366137Y186208D01*
X366049Y186101D01*
X366040Y186082D01*
X366028Y186066D01*
X365972Y185938D01*
X365913Y185813D01*
X365910Y185793D01*
X365901Y185774D01*
X365880Y185636D01*
X365854Y185500D01*
X365855Y185480D01*
X365852Y185460D01*
X365865Y185321D01*
X365873Y185183D01*
X365879Y185164D01*
X365881Y185144D01*
X365929Y185012D01*
X365971Y184881D01*
X365982Y184863D01*
X365989Y184844D01*
X366067Y184729D01*
X366141Y184612D01*
X366156Y184598D01*
X366168Y184581D01*
X366272Y184489D01*
X366373Y184394D01*
X366391Y184384D01*
X366406Y184371D01*
X366530Y184307D01*
X366652Y184240D01*
X366671Y184235D01*
X366689Y184226D01*
X366825Y184196D01*
X366960Y184161D01*
X366988Y184159D01*
X367000Y184156D01*
X367020Y184157D01*
X367120Y184151D01*
X367190Y184151D01*
X369571Y181770D01*
X369571Y178402D01*
X367190Y176021D01*
X363822Y176021D01*
X361441Y178402D01*
X361441Y178472D01*
X361424Y178609D01*
X361411Y178748D01*
X361404Y178767D01*
X361401Y178787D01*
X361350Y178916D01*
X361303Y179047D01*
X361292Y179064D01*
X361284Y179083D01*
X361203Y179195D01*
X361125Y179311D01*
X361109Y179324D01*
X361098Y179340D01*
X360990Y179429D01*
X360886Y179521D01*
X360868Y179530D01*
X360853Y179543D01*
X360727Y179602D01*
X360603Y179666D01*
X360583Y179670D01*
X360565Y179679D01*
X360429Y179705D01*
X360293Y179735D01*
X360272Y179735D01*
X360253Y179738D01*
X360114Y179730D01*
X359975Y179726D01*
X359955Y179720D01*
X359935Y179719D01*
X359803Y179676D01*
X359669Y179637D01*
X359652Y179627D01*
X359633Y179621D01*
X359515Y179546D01*
X359395Y179476D01*
X359374Y179457D01*
X359364Y179451D01*
X359350Y179436D01*
X359275Y179369D01*
X319700Y139795D01*
X318092Y138187D01*
X316225Y137413D01*
X292698Y137413D01*
X292600Y137401D01*
X292501Y137398D01*
X292443Y137381D01*
X292383Y137373D01*
X292291Y137337D01*
X292196Y137309D01*
X292143Y137279D01*
X292087Y137256D01*
X292007Y137198D01*
X291922Y137148D01*
X291846Y137082D01*
X291830Y137070D01*
X291822Y137060D01*
X291801Y137042D01*
X291202Y136443D01*
X291142Y136365D01*
X291074Y136293D01*
X291045Y136240D01*
X291008Y136192D01*
X290968Y136101D01*
X290920Y136014D01*
X290905Y135956D01*
X290881Y135900D01*
X290866Y135802D01*
X290841Y135706D01*
X290835Y135606D01*
X290831Y135586D01*
X290833Y135574D01*
X290831Y135546D01*
X290831Y134879D01*
X290057Y133012D01*
X288628Y131583D01*
X286761Y130809D01*
X284739Y130809D01*
G37*
%LPD*%
%LPC*%
G36*
X203040Y331215D02*
X203040Y331215D01*
X200659Y333596D01*
X200659Y336964D01*
X203040Y339345D01*
X205850Y339345D01*
X205899Y339351D01*
X205949Y339349D01*
X206056Y339371D01*
X206165Y339385D01*
X206212Y339403D01*
X206260Y339413D01*
X206359Y339461D01*
X206461Y339502D01*
X206501Y339531D01*
X206546Y339553D01*
X206629Y339624D01*
X206718Y339688D01*
X206750Y339727D01*
X206788Y339759D01*
X206851Y339849D01*
X206921Y339933D01*
X206942Y339978D01*
X206971Y340019D01*
X207010Y340122D01*
X207057Y340221D01*
X207066Y340270D01*
X207084Y340316D01*
X207096Y340426D01*
X207117Y340533D01*
X207113Y340583D01*
X207119Y340633D01*
X207104Y340741D01*
X207097Y340851D01*
X207081Y340898D01*
X207074Y340947D01*
X207022Y341100D01*
X207009Y341132D01*
X207009Y344841D01*
X207011Y344852D01*
X207009Y344884D01*
X207009Y344921D01*
X207005Y344957D01*
X207005Y344960D01*
X207006Y345070D01*
X206995Y345119D01*
X206992Y345169D01*
X206958Y345273D01*
X206932Y345379D01*
X206909Y345424D01*
X206894Y345471D01*
X206835Y345564D01*
X206784Y345660D01*
X206750Y345698D01*
X206723Y345740D01*
X206644Y345815D01*
X206570Y345896D01*
X206528Y345924D01*
X206492Y345958D01*
X206396Y346011D01*
X206305Y346071D01*
X206257Y346087D01*
X206213Y346112D01*
X206108Y346139D01*
X206004Y346174D01*
X205954Y346179D01*
X205905Y346191D01*
X205745Y346201D01*
X202786Y346201D01*
X200405Y348582D01*
X200405Y351950D01*
X202786Y354331D01*
X206154Y354331D01*
X208535Y351950D01*
X208535Y351172D01*
X208552Y351034D01*
X208565Y350896D01*
X208572Y350877D01*
X208575Y350857D01*
X208626Y350728D01*
X208673Y350597D01*
X208684Y350580D01*
X208692Y350561D01*
X208773Y350449D01*
X208851Y350334D01*
X208867Y350320D01*
X208878Y350304D01*
X208986Y350215D01*
X209090Y350123D01*
X209108Y350114D01*
X209123Y350101D01*
X209249Y350042D01*
X209373Y349978D01*
X209393Y349974D01*
X209411Y349965D01*
X209547Y349939D01*
X209683Y349909D01*
X209704Y349909D01*
X209723Y349906D01*
X209862Y349914D01*
X210001Y349919D01*
X210021Y349924D01*
X210041Y349925D01*
X210173Y349968D01*
X210307Y350007D01*
X210324Y350017D01*
X210343Y350023D01*
X210461Y350098D01*
X210581Y350169D01*
X210602Y350187D01*
X210612Y350194D01*
X210626Y350209D01*
X210702Y350275D01*
X210864Y350437D01*
X214131Y351791D01*
X217669Y351791D01*
X220936Y350437D01*
X223437Y347936D01*
X224791Y344669D01*
X224791Y341131D01*
X223437Y337864D01*
X220936Y335363D01*
X217669Y334009D01*
X214131Y334009D01*
X210812Y335384D01*
X210739Y335445D01*
X210720Y335454D01*
X210704Y335466D01*
X210576Y335521D01*
X210451Y335581D01*
X210431Y335584D01*
X210413Y335592D01*
X210275Y335614D01*
X210138Y335640D01*
X210118Y335639D01*
X210098Y335642D01*
X209960Y335629D01*
X209821Y335621D01*
X209802Y335614D01*
X209782Y335612D01*
X209651Y335565D01*
X209519Y335523D01*
X209502Y335512D01*
X209483Y335505D01*
X209368Y335427D01*
X209250Y335352D01*
X209236Y335338D01*
X209219Y335326D01*
X209127Y335222D01*
X209032Y335121D01*
X209022Y335103D01*
X209009Y335088D01*
X208946Y334964D01*
X208878Y334842D01*
X208873Y334823D01*
X208864Y334805D01*
X208834Y334669D01*
X208799Y334534D01*
X208797Y334506D01*
X208795Y334495D01*
X208795Y334474D01*
X208789Y334374D01*
X208789Y333596D01*
X206408Y331215D01*
X203040Y331215D01*
G37*
%LPD*%
%LPC*%
G36*
X253847Y43372D02*
X253847Y43372D01*
X253772Y43447D01*
X253772Y64553D01*
X254108Y64889D01*
X254193Y64998D01*
X254282Y65105D01*
X254290Y65124D01*
X254303Y65140D01*
X254358Y65268D01*
X254417Y65393D01*
X254421Y65413D01*
X254429Y65432D01*
X254451Y65570D01*
X254477Y65706D01*
X254476Y65726D01*
X254479Y65746D01*
X254466Y65885D01*
X254457Y66023D01*
X254451Y66042D01*
X254449Y66062D01*
X254402Y66193D01*
X254359Y66325D01*
X254348Y66343D01*
X254342Y66362D01*
X254264Y66476D01*
X254189Y66594D01*
X254174Y66608D01*
X254163Y66625D01*
X254059Y66717D01*
X253958Y66812D01*
X253940Y66822D01*
X253925Y66835D01*
X253801Y66898D01*
X253679Y66966D01*
X253659Y66971D01*
X253641Y66980D01*
X253505Y67010D01*
X253371Y67045D01*
X253343Y67047D01*
X253331Y67050D01*
X253311Y67049D01*
X253210Y67055D01*
X251808Y67055D01*
X249427Y69436D01*
X249427Y71705D01*
X249410Y71843D01*
X249397Y71981D01*
X249390Y72000D01*
X249387Y72020D01*
X249336Y72149D01*
X249289Y72280D01*
X249278Y72297D01*
X249270Y72316D01*
X249189Y72428D01*
X249111Y72543D01*
X249095Y72557D01*
X249084Y72573D01*
X248976Y72662D01*
X248872Y72754D01*
X248854Y72763D01*
X248839Y72776D01*
X248713Y72835D01*
X248589Y72898D01*
X248569Y72903D01*
X248551Y72912D01*
X248414Y72938D01*
X248279Y72968D01*
X248258Y72968D01*
X248239Y72971D01*
X248100Y72963D01*
X247961Y72958D01*
X247941Y72953D01*
X247921Y72952D01*
X247789Y72909D01*
X247655Y72870D01*
X247638Y72860D01*
X247619Y72854D01*
X247501Y72779D01*
X247381Y72709D01*
X247360Y72690D01*
X247350Y72683D01*
X247336Y72668D01*
X247261Y72602D01*
X246286Y71627D01*
X242918Y71627D01*
X240537Y74008D01*
X240537Y77376D01*
X242918Y79757D01*
X246286Y79757D01*
X248667Y77376D01*
X248667Y75107D01*
X248684Y74969D01*
X248687Y74942D01*
X248689Y74905D01*
X248691Y74900D01*
X248697Y74831D01*
X248704Y74812D01*
X248707Y74792D01*
X248758Y74663D01*
X248805Y74532D01*
X248816Y74515D01*
X248824Y74496D01*
X248905Y74384D01*
X248983Y74269D01*
X248999Y74255D01*
X249010Y74239D01*
X249118Y74150D01*
X249222Y74058D01*
X249240Y74049D01*
X249255Y74036D01*
X249381Y73977D01*
X249505Y73914D01*
X249525Y73909D01*
X249543Y73900D01*
X249680Y73874D01*
X249815Y73844D01*
X249836Y73844D01*
X249855Y73841D01*
X249994Y73849D01*
X250133Y73854D01*
X250153Y73859D01*
X250173Y73860D01*
X250305Y73903D01*
X250439Y73942D01*
X250456Y73952D01*
X250475Y73958D01*
X250593Y74033D01*
X250713Y74103D01*
X250734Y74122D01*
X250744Y74129D01*
X250758Y74144D01*
X250833Y74210D01*
X251808Y75185D01*
X255176Y75185D01*
X257557Y72804D01*
X257557Y69436D01*
X254915Y66794D01*
X254830Y66685D01*
X254741Y66578D01*
X254732Y66559D01*
X254720Y66543D01*
X254664Y66415D01*
X254605Y66290D01*
X254602Y66270D01*
X254594Y66251D01*
X254572Y66113D01*
X254546Y65977D01*
X254547Y65957D01*
X254544Y65937D01*
X254557Y65798D01*
X254565Y65660D01*
X254572Y65641D01*
X254574Y65621D01*
X254621Y65489D01*
X254663Y65358D01*
X254674Y65340D01*
X254681Y65321D01*
X254759Y65206D01*
X254834Y65089D01*
X254848Y65075D01*
X254860Y65058D01*
X254964Y64966D01*
X255065Y64871D01*
X255083Y64861D01*
X255098Y64848D01*
X255222Y64784D01*
X255344Y64717D01*
X255363Y64712D01*
X255381Y64703D01*
X255517Y64673D01*
X255652Y64638D01*
X255680Y64636D01*
X255692Y64633D01*
X255712Y64634D01*
X255812Y64628D01*
X263953Y64628D01*
X264028Y64553D01*
X264028Y43447D01*
X263953Y43372D01*
X253847Y43372D01*
G37*
%LPD*%
%LPC*%
G36*
X23631Y194309D02*
X23631Y194309D01*
X20364Y195663D01*
X17863Y198164D01*
X16509Y201431D01*
X16509Y204969D01*
X17863Y208236D01*
X20364Y210737D01*
X23631Y212091D01*
X27169Y212091D01*
X30436Y210737D01*
X32123Y209051D01*
X32232Y208966D01*
X32339Y208877D01*
X32358Y208868D01*
X32374Y208856D01*
X32502Y208800D01*
X32627Y208741D01*
X32647Y208738D01*
X32666Y208730D01*
X32804Y208708D01*
X32940Y208682D01*
X32960Y208683D01*
X32980Y208680D01*
X33119Y208693D01*
X33257Y208701D01*
X33276Y208708D01*
X33296Y208710D01*
X33428Y208757D01*
X33559Y208799D01*
X33577Y208810D01*
X33596Y208817D01*
X33711Y208895D01*
X33828Y208970D01*
X33842Y208984D01*
X33859Y208996D01*
X33951Y209100D01*
X34046Y209201D01*
X34056Y209219D01*
X34069Y209234D01*
X34133Y209358D01*
X34200Y209480D01*
X34205Y209499D01*
X34214Y209517D01*
X34244Y209653D01*
X34279Y209788D01*
X34281Y209816D01*
X34284Y209828D01*
X34283Y209848D01*
X34289Y209948D01*
X34289Y210980D01*
X36670Y213361D01*
X40038Y213361D01*
X42419Y210980D01*
X42419Y207612D01*
X40038Y205231D01*
X36670Y205231D01*
X36458Y205444D01*
X36348Y205529D01*
X36241Y205618D01*
X36222Y205627D01*
X36206Y205639D01*
X36078Y205694D01*
X35953Y205754D01*
X35933Y205757D01*
X35914Y205765D01*
X35776Y205787D01*
X35640Y205813D01*
X35620Y205812D01*
X35600Y205815D01*
X35461Y205802D01*
X35323Y205794D01*
X35304Y205787D01*
X35284Y205785D01*
X35153Y205738D01*
X35021Y205696D01*
X35003Y205685D01*
X34984Y205678D01*
X34870Y205600D01*
X34752Y205525D01*
X34738Y205511D01*
X34721Y205499D01*
X34629Y205395D01*
X34534Y205294D01*
X34524Y205276D01*
X34511Y205261D01*
X34448Y205137D01*
X34380Y205015D01*
X34375Y204996D01*
X34366Y204978D01*
X34336Y204842D01*
X34301Y204707D01*
X34299Y204679D01*
X34296Y204667D01*
X34297Y204647D01*
X34291Y204547D01*
X34291Y201431D01*
X32937Y198164D01*
X30436Y195663D01*
X27169Y194309D01*
X23631Y194309D01*
G37*
%LPD*%
%LPC*%
G36*
X354424Y281431D02*
X354424Y281431D01*
X352043Y283812D01*
X352043Y285606D01*
X352026Y285743D01*
X352013Y285882D01*
X352006Y285901D01*
X352003Y285921D01*
X351952Y286050D01*
X351905Y286181D01*
X351894Y286198D01*
X351886Y286217D01*
X351805Y286329D01*
X351727Y286444D01*
X351711Y286458D01*
X351700Y286474D01*
X351592Y286563D01*
X351488Y286655D01*
X351470Y286664D01*
X351455Y286677D01*
X351329Y286736D01*
X351205Y286799D01*
X351185Y286804D01*
X351167Y286813D01*
X351031Y286839D01*
X350895Y286869D01*
X350874Y286869D01*
X350855Y286872D01*
X350716Y286864D01*
X350577Y286859D01*
X350557Y286854D01*
X350537Y286853D01*
X350405Y286810D01*
X350271Y286771D01*
X350254Y286761D01*
X350235Y286755D01*
X350117Y286680D01*
X349997Y286610D01*
X349976Y286591D01*
X349966Y286584D01*
X349952Y286569D01*
X349877Y286503D01*
X347936Y284563D01*
X344669Y283209D01*
X341131Y283209D01*
X337864Y284563D01*
X335363Y287064D01*
X334009Y290331D01*
X334009Y293869D01*
X335363Y297136D01*
X337864Y299637D01*
X341131Y300991D01*
X344669Y300991D01*
X347936Y299637D01*
X350437Y297136D01*
X351791Y293869D01*
X351791Y290310D01*
X351779Y290284D01*
X351765Y290195D01*
X351741Y290109D01*
X351740Y290039D01*
X351729Y289970D01*
X351738Y289880D01*
X351736Y289791D01*
X351753Y289723D01*
X351759Y289653D01*
X351790Y289568D01*
X351810Y289481D01*
X351843Y289420D01*
X351867Y289354D01*
X351917Y289279D01*
X351959Y289200D01*
X352006Y289148D01*
X352045Y289091D01*
X352113Y289031D01*
X352173Y288965D01*
X352231Y288926D01*
X352284Y288880D01*
X352364Y288839D01*
X352439Y288790D01*
X352505Y288767D01*
X352567Y288736D01*
X352655Y288716D01*
X352739Y288687D01*
X352809Y288681D01*
X352877Y288666D01*
X352967Y288669D01*
X353056Y288661D01*
X353125Y288673D01*
X353195Y288676D01*
X353281Y288700D01*
X353370Y288716D01*
X353434Y288745D01*
X353501Y288764D01*
X353578Y288809D01*
X353660Y288846D01*
X353714Y288890D01*
X353775Y288925D01*
X353895Y289032D01*
X354424Y289561D01*
X357792Y289561D01*
X360173Y287180D01*
X360173Y283812D01*
X357792Y281431D01*
X354424Y281431D01*
G37*
%LPD*%
%LPC*%
G36*
X341131Y257809D02*
X341131Y257809D01*
X337864Y259163D01*
X335363Y261664D01*
X334009Y264931D01*
X334009Y268469D01*
X335363Y271736D01*
X337864Y274237D01*
X341131Y275591D01*
X344669Y275591D01*
X347936Y274237D01*
X350502Y271672D01*
X350521Y271639D01*
X350569Y271588D01*
X350610Y271532D01*
X350679Y271474D01*
X350742Y271410D01*
X350801Y271373D01*
X350855Y271329D01*
X350937Y271291D01*
X351013Y271244D01*
X351080Y271223D01*
X351143Y271193D01*
X351231Y271176D01*
X351317Y271150D01*
X351387Y271147D01*
X351456Y271133D01*
X351545Y271139D01*
X351634Y271135D01*
X351703Y271149D01*
X351773Y271153D01*
X351858Y271181D01*
X351946Y271199D01*
X352009Y271230D01*
X352075Y271251D01*
X352151Y271299D01*
X352232Y271338D01*
X352285Y271384D01*
X352344Y271421D01*
X352405Y271487D01*
X352474Y271545D01*
X352514Y271602D01*
X352562Y271653D01*
X352605Y271731D01*
X352657Y271805D01*
X352682Y271870D01*
X352716Y271931D01*
X352738Y272018D01*
X352770Y272102D01*
X352778Y272172D01*
X352795Y272239D01*
X352805Y272400D01*
X352805Y273718D01*
X355186Y276099D01*
X358554Y276099D01*
X360935Y273718D01*
X360935Y270350D01*
X358554Y267969D01*
X355186Y267969D01*
X353957Y269198D01*
X353848Y269283D01*
X353741Y269372D01*
X353722Y269381D01*
X353706Y269393D01*
X353578Y269449D01*
X353453Y269508D01*
X353433Y269511D01*
X353414Y269519D01*
X353276Y269541D01*
X353140Y269567D01*
X353120Y269566D01*
X353100Y269569D01*
X352961Y269556D01*
X352823Y269548D01*
X352804Y269541D01*
X352784Y269539D01*
X352652Y269492D01*
X352521Y269450D01*
X352503Y269439D01*
X352484Y269432D01*
X352369Y269354D01*
X352252Y269279D01*
X352238Y269265D01*
X352221Y269253D01*
X352129Y269149D01*
X352034Y269048D01*
X352024Y269030D01*
X352011Y269015D01*
X351947Y268891D01*
X351880Y268769D01*
X351875Y268750D01*
X351866Y268732D01*
X351836Y268596D01*
X351801Y268461D01*
X351799Y268433D01*
X351796Y268421D01*
X351797Y268401D01*
X351791Y268301D01*
X351791Y264931D01*
X350437Y261664D01*
X347936Y259163D01*
X344669Y257809D01*
X341131Y257809D01*
G37*
%LPD*%
%LPC*%
G36*
X341131Y461009D02*
X341131Y461009D01*
X337864Y462363D01*
X335363Y464864D01*
X334009Y468131D01*
X334009Y468707D01*
X333992Y468844D01*
X333979Y468983D01*
X333972Y469002D01*
X333969Y469022D01*
X333918Y469151D01*
X333871Y469282D01*
X333860Y469299D01*
X333852Y469318D01*
X333771Y469430D01*
X333693Y469545D01*
X333677Y469559D01*
X333666Y469575D01*
X333558Y469664D01*
X333454Y469756D01*
X333436Y469765D01*
X333421Y469778D01*
X333295Y469837D01*
X333171Y469900D01*
X333151Y469905D01*
X333133Y469914D01*
X332997Y469940D01*
X332861Y469970D01*
X332840Y469970D01*
X332821Y469973D01*
X332682Y469965D01*
X332543Y469960D01*
X332523Y469955D01*
X332503Y469954D01*
X332371Y469911D01*
X332237Y469872D01*
X332220Y469862D01*
X332201Y469856D01*
X332083Y469781D01*
X331963Y469711D01*
X331942Y469692D01*
X331932Y469685D01*
X331918Y469670D01*
X331843Y469604D01*
X329344Y467105D01*
X325976Y467105D01*
X323595Y469486D01*
X323595Y472854D01*
X325976Y475235D01*
X329344Y475235D01*
X331725Y472854D01*
X331725Y472534D01*
X331733Y472465D01*
X331732Y472395D01*
X331753Y472308D01*
X331765Y472219D01*
X331790Y472154D01*
X331807Y472086D01*
X331849Y472006D01*
X331882Y471923D01*
X331923Y471866D01*
X331955Y471805D01*
X332016Y471738D01*
X332068Y471665D01*
X332122Y471621D01*
X332169Y471569D01*
X332244Y471520D01*
X332313Y471463D01*
X332377Y471433D01*
X332435Y471395D01*
X332520Y471365D01*
X332601Y471327D01*
X332670Y471314D01*
X332736Y471291D01*
X332825Y471284D01*
X332913Y471267D01*
X332983Y471272D01*
X333053Y471266D01*
X333141Y471282D01*
X333231Y471287D01*
X333297Y471309D01*
X333366Y471321D01*
X333448Y471357D01*
X333533Y471385D01*
X333592Y471422D01*
X333656Y471451D01*
X333726Y471507D01*
X333802Y471555D01*
X333850Y471606D01*
X333904Y471650D01*
X333959Y471722D01*
X334020Y471787D01*
X334054Y471848D01*
X334096Y471904D01*
X334167Y472048D01*
X335363Y474936D01*
X337864Y477437D01*
X341131Y478791D01*
X344669Y478791D01*
X347936Y477437D01*
X350437Y474936D01*
X351791Y471669D01*
X351791Y468131D01*
X350437Y464864D01*
X347936Y462363D01*
X344669Y461009D01*
X341131Y461009D01*
G37*
%LPD*%
%LPC*%
G36*
X506231Y461009D02*
X506231Y461009D01*
X502964Y462363D01*
X500463Y464864D01*
X499109Y468131D01*
X499109Y471669D01*
X500463Y474936D01*
X501895Y476369D01*
X501980Y476478D01*
X502069Y476585D01*
X502078Y476604D01*
X502090Y476620D01*
X502146Y476748D01*
X502205Y476873D01*
X502208Y476893D01*
X502216Y476912D01*
X502238Y477050D01*
X502264Y477186D01*
X502263Y477206D01*
X502266Y477226D01*
X502253Y477365D01*
X502245Y477503D01*
X502238Y477522D01*
X502236Y477542D01*
X502210Y477615D01*
X502283Y477588D01*
X502363Y477547D01*
X502431Y477532D01*
X502497Y477507D01*
X502586Y477497D01*
X502673Y477477D01*
X502743Y477479D01*
X502813Y477472D01*
X502902Y477484D01*
X502991Y477487D01*
X503058Y477506D01*
X503127Y477516D01*
X503280Y477568D01*
X506231Y478791D01*
X509769Y478791D01*
X513036Y477437D01*
X515537Y474936D01*
X516891Y471669D01*
X516891Y468131D01*
X515537Y464864D01*
X513036Y462363D01*
X509769Y461009D01*
X506231Y461009D01*
G37*
%LPD*%
%LPC*%
G36*
X214131Y359409D02*
X214131Y359409D01*
X210864Y360763D01*
X208363Y363264D01*
X207009Y366531D01*
X207009Y370069D01*
X208363Y373336D01*
X210864Y375837D01*
X214131Y377191D01*
X217669Y377191D01*
X220936Y375837D01*
X223437Y373336D01*
X224125Y371675D01*
X224160Y371614D01*
X224186Y371549D01*
X224238Y371477D01*
X224283Y371398D01*
X224331Y371348D01*
X224372Y371292D01*
X224374Y371291D01*
X224382Y371230D01*
X224385Y371141D01*
X224404Y371074D01*
X224414Y371004D01*
X224466Y370852D01*
X224791Y370068D01*
X224791Y366531D01*
X223437Y363264D01*
X220936Y360763D01*
X217669Y359409D01*
X214131Y359409D01*
G37*
%LPD*%
%LPC*%
G36*
X506231Y232409D02*
X506231Y232409D01*
X502964Y233763D01*
X500463Y236264D01*
X499109Y239531D01*
X499109Y243069D01*
X500463Y246336D01*
X502964Y248837D01*
X506231Y250191D01*
X509769Y250191D01*
X513036Y248837D01*
X515537Y246336D01*
X516891Y243069D01*
X516891Y239531D01*
X515537Y236264D01*
X513036Y233763D01*
X509769Y232409D01*
X506231Y232409D01*
G37*
%LPD*%
%LPC*%
G36*
X341131Y308609D02*
X341131Y308609D01*
X337864Y309963D01*
X335363Y312464D01*
X334009Y315731D01*
X334009Y319269D01*
X335363Y322536D01*
X337864Y325037D01*
X341131Y326391D01*
X344669Y326391D01*
X347936Y325037D01*
X350437Y322536D01*
X351791Y319269D01*
X351791Y315731D01*
X350437Y312464D01*
X347936Y309963D01*
X344669Y308609D01*
X341131Y308609D01*
G37*
%LPD*%
%LPC*%
G36*
X506231Y308609D02*
X506231Y308609D01*
X502964Y309963D01*
X500463Y312464D01*
X499109Y315731D01*
X499109Y319269D01*
X500463Y322536D01*
X502964Y325037D01*
X506231Y326391D01*
X509769Y326391D01*
X513036Y325037D01*
X515537Y322536D01*
X516891Y319269D01*
X516891Y315731D01*
X515537Y312464D01*
X513036Y309963D01*
X509769Y308609D01*
X506231Y308609D01*
G37*
%LPD*%
%LPC*%
G36*
X23631Y270509D02*
X23631Y270509D01*
X20364Y271863D01*
X17863Y274364D01*
X16509Y277631D01*
X16509Y281169D01*
X17863Y284436D01*
X20364Y286937D01*
X23631Y288291D01*
X27169Y288291D01*
X30436Y286937D01*
X32937Y284436D01*
X34291Y281169D01*
X34291Y277631D01*
X32937Y274364D01*
X30436Y271863D01*
X27169Y270509D01*
X23631Y270509D01*
G37*
%LPD*%
%LPC*%
G36*
X23631Y384809D02*
X23631Y384809D01*
X20364Y386163D01*
X17863Y388664D01*
X16509Y391931D01*
X16509Y395469D01*
X17863Y398736D01*
X20364Y401237D01*
X23631Y402591D01*
X27169Y402591D01*
X30436Y401237D01*
X32937Y398736D01*
X34291Y395469D01*
X34291Y391931D01*
X32937Y388664D01*
X30436Y386163D01*
X27169Y384809D01*
X23631Y384809D01*
G37*
%LPD*%
%LPC*%
G36*
X23631Y219709D02*
X23631Y219709D01*
X20364Y221063D01*
X17863Y223564D01*
X16509Y226831D01*
X16509Y230369D01*
X17863Y233636D01*
X20364Y236137D01*
X23631Y237491D01*
X27169Y237491D01*
X30436Y236137D01*
X32937Y233636D01*
X34291Y230369D01*
X34291Y226831D01*
X32937Y223564D01*
X30436Y221063D01*
X27169Y219709D01*
X23631Y219709D01*
G37*
%LPD*%
%LPC*%
G36*
X506231Y207009D02*
X506231Y207009D01*
X502964Y208363D01*
X500463Y210864D01*
X499109Y214131D01*
X499109Y217669D01*
X500463Y220936D01*
X502964Y223437D01*
X506231Y224791D01*
X509769Y224791D01*
X513036Y223437D01*
X515537Y220936D01*
X516891Y217669D01*
X516891Y214131D01*
X515537Y210864D01*
X513036Y208363D01*
X509769Y207009D01*
X506231Y207009D01*
G37*
%LPD*%
%LPC*%
G36*
X506231Y359409D02*
X506231Y359409D01*
X502964Y360763D01*
X500463Y363264D01*
X499109Y366531D01*
X499109Y370069D01*
X500463Y373336D01*
X502964Y375837D01*
X506231Y377191D01*
X509769Y377191D01*
X513036Y375837D01*
X515537Y373336D01*
X516891Y370069D01*
X516891Y366531D01*
X515537Y363264D01*
X513036Y360763D01*
X509769Y359409D01*
X506231Y359409D01*
G37*
%LPD*%
%LPC*%
G36*
X506231Y181609D02*
X506231Y181609D01*
X502964Y182963D01*
X500463Y185464D01*
X499109Y188731D01*
X499109Y192269D01*
X500463Y195536D01*
X502964Y198037D01*
X506231Y199391D01*
X509769Y199391D01*
X513036Y198037D01*
X515537Y195536D01*
X516891Y192269D01*
X516891Y188731D01*
X515537Y185464D01*
X513036Y182963D01*
X509769Y181609D01*
X506231Y181609D01*
G37*
%LPD*%
%LPC*%
G36*
X23631Y168909D02*
X23631Y168909D01*
X20364Y170263D01*
X17863Y172764D01*
X16509Y176031D01*
X16509Y179569D01*
X17863Y182836D01*
X20364Y185337D01*
X23631Y186691D01*
X27169Y186691D01*
X30436Y185337D01*
X32937Y182836D01*
X34291Y179569D01*
X34291Y176031D01*
X32937Y172764D01*
X30436Y170263D01*
X27169Y168909D01*
X23631Y168909D01*
G37*
%LPD*%
%LPC*%
G36*
X23631Y461009D02*
X23631Y461009D01*
X20364Y462363D01*
X17863Y464864D01*
X16509Y468131D01*
X16509Y471669D01*
X17863Y474936D01*
X20364Y477437D01*
X23631Y478791D01*
X27169Y478791D01*
X30436Y477437D01*
X32937Y474936D01*
X34291Y471669D01*
X34291Y468131D01*
X32937Y464864D01*
X30436Y462363D01*
X27169Y461009D01*
X23631Y461009D01*
G37*
%LPD*%
%LPC*%
G36*
X214131Y461009D02*
X214131Y461009D01*
X210864Y462363D01*
X208363Y464864D01*
X207009Y468131D01*
X207009Y471669D01*
X208363Y474936D01*
X210864Y477437D01*
X214131Y478791D01*
X217669Y478791D01*
X220936Y477437D01*
X223437Y474936D01*
X224791Y471669D01*
X224791Y468131D01*
X223437Y464864D01*
X220936Y462363D01*
X217669Y461009D01*
X214131Y461009D01*
G37*
%LPD*%
%LPC*%
G36*
X23631Y143509D02*
X23631Y143509D01*
X20364Y144863D01*
X17863Y147364D01*
X16509Y150631D01*
X16509Y154169D01*
X17863Y157436D01*
X20364Y159937D01*
X23631Y161291D01*
X27169Y161291D01*
X30436Y159937D01*
X32937Y157436D01*
X34291Y154169D01*
X34291Y150631D01*
X32937Y147364D01*
X30436Y144863D01*
X27169Y143509D01*
X23631Y143509D01*
G37*
%LPD*%
%LPC*%
G36*
X23631Y118109D02*
X23631Y118109D01*
X20364Y119463D01*
X17863Y121964D01*
X16509Y125231D01*
X16509Y128769D01*
X17863Y132036D01*
X20364Y134537D01*
X23631Y135891D01*
X27169Y135891D01*
X30436Y134537D01*
X32937Y132036D01*
X34291Y128769D01*
X34291Y125231D01*
X32937Y121964D01*
X30436Y119463D01*
X27169Y118109D01*
X23631Y118109D01*
G37*
%LPD*%
%LPC*%
G36*
X506231Y257809D02*
X506231Y257809D01*
X502964Y259163D01*
X500463Y261664D01*
X499109Y264931D01*
X499109Y268469D01*
X500463Y271736D01*
X502964Y274237D01*
X506231Y275591D01*
X509769Y275591D01*
X513036Y274237D01*
X515537Y271736D01*
X516891Y268469D01*
X516891Y264931D01*
X515537Y261664D01*
X513036Y259163D01*
X509769Y257809D01*
X506231Y257809D01*
G37*
%LPD*%
%LPC*%
G36*
X23631Y92709D02*
X23631Y92709D01*
X20364Y94063D01*
X17863Y96564D01*
X16509Y99831D01*
X16509Y103369D01*
X17863Y106636D01*
X20364Y109137D01*
X23631Y110491D01*
X27169Y110491D01*
X30436Y109137D01*
X32937Y106636D01*
X34291Y103369D01*
X34291Y99831D01*
X32937Y96564D01*
X30436Y94063D01*
X27169Y92709D01*
X23631Y92709D01*
G37*
%LPD*%
%LPC*%
G36*
X23631Y359409D02*
X23631Y359409D01*
X20364Y360763D01*
X17863Y363264D01*
X16509Y366531D01*
X16509Y370069D01*
X17863Y373336D01*
X20364Y375837D01*
X23631Y377191D01*
X27169Y377191D01*
X30436Y375837D01*
X32937Y373336D01*
X34291Y370069D01*
X34291Y366531D01*
X32937Y363264D01*
X30436Y360763D01*
X27169Y359409D01*
X23631Y359409D01*
G37*
%LPD*%
%LPC*%
G36*
X23631Y435609D02*
X23631Y435609D01*
X20364Y436963D01*
X17863Y439464D01*
X16509Y442731D01*
X16509Y446269D01*
X17863Y449536D01*
X20364Y452037D01*
X23631Y453391D01*
X27169Y453391D01*
X30436Y452037D01*
X32937Y449536D01*
X34291Y446269D01*
X34291Y442731D01*
X32937Y439464D01*
X30436Y436963D01*
X27169Y435609D01*
X23631Y435609D01*
G37*
%LPD*%
%LPC*%
G36*
X506231Y435609D02*
X506231Y435609D01*
X502964Y436963D01*
X500463Y439464D01*
X499109Y442731D01*
X499109Y446269D01*
X500463Y449536D01*
X502964Y452037D01*
X506231Y453391D01*
X509769Y453391D01*
X513036Y452037D01*
X515537Y449536D01*
X516891Y446269D01*
X516891Y442731D01*
X515537Y439464D01*
X513036Y436963D01*
X509769Y435609D01*
X506231Y435609D01*
G37*
%LPD*%
%LPC*%
G36*
X214131Y435609D02*
X214131Y435609D01*
X210864Y436963D01*
X208363Y439464D01*
X207009Y442731D01*
X207009Y446269D01*
X208363Y449536D01*
X210864Y452037D01*
X214131Y453391D01*
X217669Y453391D01*
X220936Y452037D01*
X223437Y449536D01*
X224791Y446269D01*
X224791Y442731D01*
X223437Y439464D01*
X220936Y436963D01*
X217669Y435609D01*
X214131Y435609D01*
G37*
%LPD*%
%LPC*%
G36*
X506231Y334009D02*
X506231Y334009D01*
X502964Y335363D01*
X500463Y337864D01*
X499109Y341131D01*
X499109Y344669D01*
X500463Y347936D01*
X502964Y350437D01*
X506231Y351791D01*
X509769Y351791D01*
X513036Y350437D01*
X515537Y347936D01*
X516891Y344669D01*
X516891Y341131D01*
X515537Y337864D01*
X513036Y335363D01*
X509769Y334009D01*
X506231Y334009D01*
G37*
%LPD*%
%LPC*%
G36*
X506231Y283209D02*
X506231Y283209D01*
X502964Y284563D01*
X500463Y287064D01*
X499109Y290331D01*
X499109Y293869D01*
X500463Y297136D01*
X502964Y299637D01*
X506231Y300991D01*
X509769Y300991D01*
X513036Y299637D01*
X515537Y297136D01*
X516891Y293869D01*
X516891Y290331D01*
X515537Y287064D01*
X513036Y284563D01*
X509769Y283209D01*
X506231Y283209D01*
G37*
%LPD*%
%LPC*%
G36*
X23631Y245109D02*
X23631Y245109D01*
X20364Y246463D01*
X17863Y248964D01*
X16509Y252231D01*
X16509Y255769D01*
X17863Y259036D01*
X20364Y261537D01*
X23631Y262891D01*
X27169Y262891D01*
X30436Y261537D01*
X32937Y259036D01*
X34291Y255769D01*
X34291Y252231D01*
X32937Y248964D01*
X30436Y246463D01*
X27169Y245109D01*
X23631Y245109D01*
G37*
%LPD*%
%LPC*%
G36*
X23631Y410209D02*
X23631Y410209D01*
X20364Y411563D01*
X17863Y414064D01*
X16509Y417331D01*
X16509Y420869D01*
X17863Y424136D01*
X20364Y426637D01*
X23631Y427991D01*
X27169Y427991D01*
X30436Y426637D01*
X32937Y424136D01*
X34291Y420869D01*
X34291Y417331D01*
X32937Y414064D01*
X30436Y411563D01*
X27169Y410209D01*
X23631Y410209D01*
G37*
%LPD*%
%LPC*%
G36*
X506231Y410209D02*
X506231Y410209D01*
X502964Y411563D01*
X500463Y414064D01*
X499109Y417331D01*
X499109Y420869D01*
X500463Y424136D01*
X502964Y426637D01*
X506231Y427991D01*
X509769Y427991D01*
X513036Y426637D01*
X515537Y424136D01*
X516891Y420869D01*
X516891Y417331D01*
X515537Y414064D01*
X513036Y411563D01*
X509769Y410209D01*
X506231Y410209D01*
G37*
%LPD*%
%LPC*%
G36*
X214131Y257809D02*
X214131Y257809D01*
X210864Y259163D01*
X208363Y261664D01*
X207009Y264931D01*
X207009Y268469D01*
X208363Y271736D01*
X210864Y274237D01*
X214131Y275591D01*
X217669Y275591D01*
X220936Y274237D01*
X223437Y271736D01*
X224791Y268469D01*
X224791Y264931D01*
X223437Y261664D01*
X220936Y259163D01*
X217669Y257809D01*
X214131Y257809D01*
G37*
%LPD*%
%LPC*%
G36*
X380847Y43372D02*
X380847Y43372D01*
X380772Y43447D01*
X380772Y64553D01*
X380847Y64628D01*
X390953Y64628D01*
X391028Y64553D01*
X391028Y43447D01*
X390953Y43372D01*
X380847Y43372D01*
G37*
%LPD*%
%LPC*%
G36*
X294847Y43372D02*
X294847Y43372D01*
X294772Y43447D01*
X294772Y64553D01*
X294847Y64628D01*
X304953Y64628D01*
X305028Y64553D01*
X305028Y43447D01*
X304953Y43372D01*
X294847Y43372D01*
G37*
%LPD*%
%LPC*%
G36*
X167847Y43372D02*
X167847Y43372D01*
X167772Y43447D01*
X167772Y64553D01*
X167847Y64628D01*
X177953Y64628D01*
X178028Y64553D01*
X178028Y43447D01*
X177953Y43372D01*
X167847Y43372D01*
G37*
%LPD*%
%LPC*%
G36*
X67112Y394439D02*
X67112Y394439D01*
X65549Y396002D01*
X65549Y398212D01*
X67112Y399775D01*
X72380Y399775D01*
X72382Y399775D01*
X72385Y399775D01*
X72545Y399786D01*
X72604Y399793D01*
X72613Y399796D01*
X72622Y399796D01*
X72685Y399813D01*
X72695Y399815D01*
X72709Y399820D01*
X72765Y399836D01*
X72911Y399874D01*
X72920Y399879D01*
X72929Y399881D01*
X73073Y399952D01*
X73174Y400011D01*
X73248Y400067D01*
X73327Y400114D01*
X73374Y400163D01*
X73427Y400203D01*
X73485Y400275D01*
X73549Y400341D01*
X73614Y400439D01*
X73625Y400452D01*
X73628Y400460D01*
X73639Y400475D01*
X73697Y400577D01*
X73733Y400662D01*
X73777Y400743D01*
X73794Y400808D01*
X73820Y400870D01*
X73834Y400961D01*
X73857Y401051D01*
X73864Y401168D01*
X73867Y401184D01*
X73866Y401193D01*
X73867Y401211D01*
X73867Y401328D01*
X73856Y401420D01*
X73854Y401512D01*
X73839Y401565D01*
X73838Y401576D01*
X73834Y401589D01*
X73827Y401644D01*
X73793Y401730D01*
X73769Y401819D01*
X73743Y401869D01*
X73740Y401879D01*
X73733Y401890D01*
X73716Y401924D01*
X73710Y401939D01*
X73705Y401946D01*
X73697Y401963D01*
X73639Y402064D01*
X73583Y402138D01*
X73535Y402217D01*
X73487Y402264D01*
X73446Y402317D01*
X73374Y402375D01*
X73308Y402439D01*
X73210Y402504D01*
X73197Y402515D01*
X73189Y402518D01*
X73174Y402529D01*
X73073Y402587D01*
X73064Y402591D01*
X73057Y402596D01*
X72918Y402652D01*
X72780Y402710D01*
X72770Y402712D01*
X72762Y402715D01*
X72604Y402746D01*
X72545Y402754D01*
X72543Y402754D01*
X72540Y402755D01*
X72380Y402765D01*
X70749Y402765D01*
X68777Y402765D01*
X67214Y404328D01*
X67214Y406538D01*
X67935Y407259D01*
X68020Y407368D01*
X68109Y407475D01*
X68118Y407494D01*
X68130Y407510D01*
X68186Y407637D01*
X68245Y407763D01*
X68249Y407783D01*
X68257Y407802D01*
X68279Y407940D01*
X68305Y408076D01*
X68303Y408096D01*
X68306Y408116D01*
X68293Y408255D01*
X68285Y408393D01*
X68279Y408412D01*
X68277Y408432D01*
X68229Y408564D01*
X68187Y408695D01*
X68176Y408713D01*
X68169Y408732D01*
X68091Y408847D01*
X68017Y408964D01*
X68002Y408978D01*
X67990Y408995D01*
X67886Y409087D01*
X67785Y409182D01*
X67767Y409192D01*
X67752Y409205D01*
X67628Y409268D01*
X67506Y409336D01*
X67487Y409341D01*
X67469Y409350D01*
X67333Y409380D01*
X67199Y409415D01*
X67170Y409417D01*
X67159Y409420D01*
X67138Y409419D01*
X67117Y409420D01*
X65549Y410988D01*
X65549Y413198D01*
X67112Y414761D01*
X75161Y414761D01*
X78315Y412470D01*
X79519Y408763D01*
X78405Y405334D01*
X78380Y405205D01*
X78350Y405076D01*
X78351Y405049D01*
X78345Y405022D01*
X78354Y404890D01*
X78356Y404758D01*
X78364Y404732D01*
X78365Y404705D01*
X78406Y404579D01*
X78441Y404452D01*
X78459Y404417D01*
X78464Y404402D01*
X78475Y404384D01*
X78513Y404308D01*
X79210Y403100D01*
X79210Y399439D01*
X77380Y396269D01*
X74210Y394439D01*
X67112Y394439D01*
G37*
%LPD*%
%LPC*%
G36*
X98646Y161035D02*
X98646Y161035D01*
X96265Y163416D01*
X96265Y166784D01*
X98130Y168649D01*
X98203Y168743D01*
X98282Y168832D01*
X98300Y168868D01*
X98325Y168900D01*
X98373Y169009D01*
X98427Y169115D01*
X98436Y169155D01*
X98452Y169192D01*
X98470Y169310D01*
X98496Y169426D01*
X98495Y169466D01*
X98501Y169506D01*
X98490Y169625D01*
X98487Y169743D01*
X98475Y169782D01*
X98472Y169823D01*
X98431Y169935D01*
X98398Y170049D01*
X98378Y170084D01*
X98364Y170122D01*
X98297Y170220D01*
X98237Y170323D01*
X98197Y170368D01*
X98185Y170385D01*
X98170Y170398D01*
X98130Y170444D01*
X96489Y172085D01*
X95571Y174301D01*
X95571Y176699D01*
X96489Y178915D01*
X98185Y180611D01*
X100401Y181529D01*
X102799Y181529D01*
X105015Y180611D01*
X106711Y178915D01*
X107629Y176699D01*
X107629Y174301D01*
X106711Y172085D01*
X105015Y170389D01*
X103782Y169878D01*
X103739Y169854D01*
X103692Y169837D01*
X103601Y169775D01*
X103506Y169721D01*
X103470Y169686D01*
X103429Y169658D01*
X103356Y169576D01*
X103277Y169499D01*
X103251Y169457D01*
X103218Y169420D01*
X103168Y169322D01*
X103111Y169228D01*
X103096Y169181D01*
X103074Y169137D01*
X103050Y169029D01*
X103017Y168924D01*
X103015Y168875D01*
X103004Y168826D01*
X103008Y168716D01*
X103002Y168607D01*
X103012Y168558D01*
X103014Y168508D01*
X103044Y168403D01*
X103067Y168295D01*
X103088Y168251D01*
X103102Y168203D01*
X103158Y168108D01*
X103206Y168010D01*
X103239Y167972D01*
X103264Y167929D01*
X103370Y167808D01*
X104395Y166784D01*
X104395Y163416D01*
X102014Y161035D01*
X98646Y161035D01*
G37*
%LPD*%
%LPC*%
G36*
X393062Y279145D02*
X393062Y279145D01*
X390681Y281526D01*
X390681Y284894D01*
X392911Y287123D01*
X392984Y287218D01*
X393063Y287307D01*
X393081Y287343D01*
X393106Y287375D01*
X393153Y287484D01*
X393207Y287590D01*
X393216Y287629D01*
X393232Y287667D01*
X393251Y287784D01*
X393277Y287900D01*
X393276Y287941D01*
X393282Y287981D01*
X393271Y288099D01*
X393267Y288218D01*
X393256Y288257D01*
X393252Y288297D01*
X393212Y288410D01*
X393179Y288524D01*
X393159Y288558D01*
X393145Y288597D01*
X393078Y288695D01*
X393018Y288798D01*
X392978Y288843D01*
X392966Y288860D01*
X392951Y288873D01*
X392911Y288918D01*
X390905Y290924D01*
X390905Y294292D01*
X393658Y297044D01*
X393731Y297138D01*
X393810Y297228D01*
X393819Y297246D01*
X393832Y297261D01*
X393841Y297280D01*
X393853Y297296D01*
X393900Y297404D01*
X393955Y297511D01*
X393959Y297531D01*
X393968Y297549D01*
X393971Y297569D01*
X393979Y297588D01*
X393998Y297704D01*
X394024Y297822D01*
X394024Y297842D01*
X394027Y297861D01*
X394026Y297882D01*
X394029Y297902D01*
X394018Y298020D01*
X394014Y298139D01*
X394009Y298159D01*
X394008Y298179D01*
X394001Y298198D01*
X393999Y298218D01*
X393959Y298330D01*
X393953Y298351D01*
X393953Y301912D01*
X396334Y304293D01*
X399702Y304293D01*
X402083Y301912D01*
X402083Y298544D01*
X399330Y295792D01*
X399257Y295698D01*
X399178Y295608D01*
X399169Y295590D01*
X399156Y295575D01*
X399147Y295556D01*
X399135Y295540D01*
X399088Y295432D01*
X399033Y295325D01*
X399029Y295305D01*
X399020Y295287D01*
X399017Y295267D01*
X399009Y295248D01*
X398990Y295132D01*
X398964Y295014D01*
X398964Y294994D01*
X398961Y294975D01*
X398962Y294954D01*
X398959Y294934D01*
X398970Y294816D01*
X398974Y294697D01*
X398979Y294677D01*
X398980Y294657D01*
X398987Y294638D01*
X398989Y294618D01*
X399029Y294506D01*
X399035Y294485D01*
X399035Y290924D01*
X396805Y288694D01*
X396732Y288600D01*
X396653Y288511D01*
X396635Y288475D01*
X396610Y288443D01*
X396563Y288334D01*
X396509Y288228D01*
X396500Y288189D01*
X396484Y288151D01*
X396465Y288034D01*
X396439Y287918D01*
X396440Y287877D01*
X396434Y287837D01*
X396445Y287719D01*
X396449Y287600D01*
X396460Y287561D01*
X396464Y287521D01*
X396504Y287409D01*
X396537Y287294D01*
X396557Y287259D01*
X396571Y287221D01*
X396638Y287123D01*
X396699Y287020D01*
X396738Y286975D01*
X396750Y286958D01*
X396765Y286945D01*
X396805Y286899D01*
X398811Y284894D01*
X398811Y281526D01*
X396430Y279145D01*
X393062Y279145D01*
G37*
%LPD*%
%LPC*%
G36*
X450921Y322661D02*
X450921Y322661D01*
X448705Y323579D01*
X447009Y325275D01*
X446091Y327491D01*
X446091Y329889D01*
X447009Y332105D01*
X448705Y333801D01*
X450921Y334719D01*
X453319Y334719D01*
X455535Y333801D01*
X457231Y332105D01*
X458149Y329889D01*
X458149Y327491D01*
X457231Y325275D01*
X455535Y323579D01*
X453319Y322661D01*
X450921Y322661D01*
G37*
%LPD*%
%LPC*%
G36*
X450921Y226141D02*
X450921Y226141D01*
X448705Y227059D01*
X447009Y228755D01*
X446091Y230971D01*
X446091Y233369D01*
X447009Y235585D01*
X448705Y237281D01*
X450921Y238199D01*
X453319Y238199D01*
X455535Y237281D01*
X457231Y235585D01*
X458149Y233369D01*
X458149Y230971D01*
X457231Y228755D01*
X455535Y227059D01*
X453319Y226141D01*
X450921Y226141D01*
G37*
%LPD*%
%LPC*%
G36*
X450921Y292661D02*
X450921Y292661D01*
X448705Y293579D01*
X447009Y295275D01*
X446091Y297491D01*
X446091Y299889D01*
X447009Y302105D01*
X448705Y303801D01*
X450921Y304719D01*
X453319Y304719D01*
X455535Y303801D01*
X457231Y302105D01*
X458149Y299889D01*
X458149Y297491D01*
X457231Y295275D01*
X455535Y293579D01*
X453319Y292661D01*
X450921Y292661D01*
G37*
%LPD*%
%LPC*%
G36*
X450921Y196141D02*
X450921Y196141D01*
X448705Y197059D01*
X447009Y198755D01*
X446091Y200971D01*
X446091Y203369D01*
X447009Y205585D01*
X448705Y207281D01*
X450921Y208199D01*
X453319Y208199D01*
X455535Y207281D01*
X457231Y205585D01*
X458149Y203369D01*
X458149Y200971D01*
X457231Y198755D01*
X455535Y197059D01*
X453319Y196141D01*
X450921Y196141D01*
G37*
%LPD*%
%LPC*%
G36*
X100401Y199471D02*
X100401Y199471D01*
X98185Y200389D01*
X96489Y202085D01*
X95571Y204301D01*
X95571Y206699D01*
X96489Y208915D01*
X98185Y210611D01*
X100401Y211529D01*
X102799Y211529D01*
X105015Y210611D01*
X106711Y208915D01*
X107629Y206699D01*
X107629Y204301D01*
X106711Y202085D01*
X105015Y200389D01*
X102799Y199471D01*
X100401Y199471D01*
G37*
%LPD*%
%LPC*%
G36*
X309466Y191515D02*
X309466Y191515D01*
X307085Y193896D01*
X307085Y197264D01*
X309584Y199763D01*
X309657Y199857D01*
X309736Y199946D01*
X309754Y199982D01*
X309779Y200014D01*
X309826Y200123D01*
X309880Y200229D01*
X309889Y200268D01*
X309905Y200306D01*
X309924Y200423D01*
X309950Y200539D01*
X309949Y200580D01*
X309955Y200620D01*
X309944Y200738D01*
X309940Y200857D01*
X309929Y200896D01*
X309925Y200936D01*
X309885Y201048D01*
X309852Y201163D01*
X309832Y201198D01*
X309818Y201236D01*
X309751Y201334D01*
X309690Y201437D01*
X309651Y201482D01*
X309639Y201499D01*
X309624Y201512D01*
X309584Y201558D01*
X307085Y204056D01*
X307085Y207424D01*
X309466Y209805D01*
X312834Y209805D01*
X315215Y207424D01*
X315215Y204056D01*
X312716Y201558D01*
X312643Y201463D01*
X312564Y201374D01*
X312546Y201338D01*
X312521Y201306D01*
X312474Y201197D01*
X312420Y201091D01*
X312411Y201052D01*
X312395Y201014D01*
X312376Y200897D01*
X312350Y200781D01*
X312351Y200740D01*
X312345Y200700D01*
X312356Y200582D01*
X312360Y200463D01*
X312371Y200424D01*
X312375Y200384D01*
X312415Y200271D01*
X312448Y200157D01*
X312468Y200123D01*
X312482Y200084D01*
X312549Y199986D01*
X312609Y199883D01*
X312649Y199838D01*
X312661Y199821D01*
X312676Y199808D01*
X312716Y199763D01*
X315215Y197264D01*
X315215Y193896D01*
X312834Y191515D01*
X309466Y191515D01*
G37*
%LPD*%
%LPC*%
G36*
X327246Y191515D02*
X327246Y191515D01*
X324865Y193896D01*
X324865Y197264D01*
X327364Y199763D01*
X327437Y199857D01*
X327516Y199946D01*
X327534Y199982D01*
X327559Y200014D01*
X327606Y200123D01*
X327660Y200229D01*
X327669Y200268D01*
X327685Y200306D01*
X327704Y200423D01*
X327730Y200539D01*
X327729Y200580D01*
X327735Y200620D01*
X327724Y200738D01*
X327720Y200857D01*
X327709Y200896D01*
X327705Y200936D01*
X327665Y201048D01*
X327632Y201163D01*
X327612Y201198D01*
X327598Y201236D01*
X327531Y201334D01*
X327470Y201437D01*
X327431Y201482D01*
X327419Y201499D01*
X327404Y201512D01*
X327364Y201558D01*
X324865Y204056D01*
X324865Y207424D01*
X327246Y209805D01*
X330614Y209805D01*
X332995Y207424D01*
X332995Y204056D01*
X330496Y201558D01*
X330423Y201463D01*
X330344Y201374D01*
X330326Y201338D01*
X330301Y201306D01*
X330254Y201197D01*
X330200Y201091D01*
X330191Y201052D01*
X330175Y201014D01*
X330156Y200897D01*
X330130Y200781D01*
X330131Y200740D01*
X330125Y200700D01*
X330136Y200582D01*
X330140Y200463D01*
X330151Y200424D01*
X330155Y200384D01*
X330195Y200271D01*
X330228Y200157D01*
X330248Y200123D01*
X330262Y200084D01*
X330329Y199986D01*
X330389Y199883D01*
X330429Y199838D01*
X330441Y199821D01*
X330456Y199808D01*
X330496Y199763D01*
X332995Y197264D01*
X332995Y193896D01*
X330614Y191515D01*
X327246Y191515D01*
G37*
%LPD*%
%LPC*%
G36*
X357726Y455675D02*
X357726Y455675D01*
X355345Y458056D01*
X355345Y461424D01*
X357726Y463805D01*
X361442Y463805D01*
X361560Y463820D01*
X361679Y463827D01*
X361717Y463840D01*
X361758Y463845D01*
X361868Y463888D01*
X361981Y463925D01*
X362016Y463947D01*
X362053Y463962D01*
X362149Y464031D01*
X362250Y464095D01*
X362278Y464125D01*
X362311Y464148D01*
X362387Y464240D01*
X362468Y464327D01*
X362488Y464362D01*
X362513Y464393D01*
X362564Y464501D01*
X362622Y464605D01*
X362632Y464645D01*
X362649Y464681D01*
X362671Y464798D01*
X362701Y464913D01*
X362705Y464973D01*
X362709Y464993D01*
X362707Y465014D01*
X362711Y465074D01*
X362711Y467266D01*
X365092Y469647D01*
X368460Y469647D01*
X370841Y467266D01*
X370841Y463898D01*
X368460Y461517D01*
X364744Y461517D01*
X364626Y461502D01*
X364507Y461495D01*
X364469Y461482D01*
X364428Y461477D01*
X364318Y461434D01*
X364205Y461397D01*
X364170Y461375D01*
X364133Y461360D01*
X364037Y461291D01*
X363936Y461227D01*
X363908Y461197D01*
X363875Y461174D01*
X363799Y461082D01*
X363718Y460995D01*
X363698Y460960D01*
X363673Y460929D01*
X363622Y460821D01*
X363564Y460717D01*
X363554Y460677D01*
X363537Y460641D01*
X363515Y460524D01*
X363485Y460409D01*
X363481Y460349D01*
X363477Y460329D01*
X363479Y460308D01*
X363475Y460248D01*
X363475Y458056D01*
X361094Y455675D01*
X357726Y455675D01*
G37*
%LPD*%
%LPC*%
G36*
X305148Y67309D02*
X305148Y67309D01*
X302767Y69690D01*
X302767Y73058D01*
X305148Y75439D01*
X308528Y75439D01*
X308565Y75410D01*
X308591Y75385D01*
X308605Y75377D01*
X308691Y75306D01*
X308710Y75297D01*
X308726Y75285D01*
X308854Y75230D01*
X308979Y75170D01*
X308999Y75167D01*
X309018Y75159D01*
X309155Y75137D01*
X309292Y75111D01*
X309312Y75112D01*
X309332Y75109D01*
X309470Y75122D01*
X309609Y75130D01*
X309628Y75137D01*
X309648Y75139D01*
X309779Y75186D01*
X309911Y75228D01*
X309929Y75239D01*
X309948Y75246D01*
X310063Y75324D01*
X310180Y75399D01*
X310194Y75413D01*
X310211Y75425D01*
X310303Y75529D01*
X310398Y75630D01*
X310408Y75648D01*
X310421Y75663D01*
X310485Y75787D01*
X310552Y75909D01*
X310557Y75928D01*
X310566Y75946D01*
X310596Y76083D01*
X310631Y76217D01*
X310633Y76245D01*
X310636Y76257D01*
X310635Y76277D01*
X310638Y76328D01*
X310639Y76331D01*
X310639Y76334D01*
X310641Y76377D01*
X310641Y77884D01*
X313022Y80265D01*
X316390Y80265D01*
X318771Y77884D01*
X318771Y74516D01*
X316390Y72135D01*
X313010Y72135D01*
X312954Y72179D01*
X312847Y72268D01*
X312828Y72277D01*
X312812Y72289D01*
X312684Y72344D01*
X312559Y72404D01*
X312539Y72407D01*
X312520Y72415D01*
X312383Y72437D01*
X312246Y72463D01*
X312226Y72462D01*
X312206Y72465D01*
X312068Y72452D01*
X311929Y72444D01*
X311910Y72437D01*
X311890Y72435D01*
X311759Y72388D01*
X311627Y72346D01*
X311609Y72335D01*
X311590Y72328D01*
X311475Y72250D01*
X311358Y72175D01*
X311344Y72161D01*
X311327Y72149D01*
X311235Y72045D01*
X311140Y71944D01*
X311130Y71926D01*
X311117Y71911D01*
X311053Y71787D01*
X310986Y71665D01*
X310981Y71646D01*
X310972Y71628D01*
X310941Y71491D01*
X310907Y71357D01*
X310905Y71329D01*
X310902Y71317D01*
X310903Y71297D01*
X310897Y71197D01*
X310897Y69690D01*
X308516Y67309D01*
X305148Y67309D01*
G37*
%LPD*%
%LPC*%
G36*
X449928Y104393D02*
X449928Y104393D01*
X447547Y106774D01*
X447547Y108966D01*
X447532Y109084D01*
X447525Y109203D01*
X447512Y109241D01*
X447507Y109282D01*
X447464Y109392D01*
X447427Y109505D01*
X447405Y109540D01*
X447390Y109577D01*
X447321Y109673D01*
X447257Y109774D01*
X447227Y109802D01*
X447204Y109835D01*
X447112Y109911D01*
X447025Y109992D01*
X446990Y110012D01*
X446959Y110037D01*
X446851Y110088D01*
X446747Y110146D01*
X446707Y110156D01*
X446671Y110173D01*
X446554Y110195D01*
X446439Y110225D01*
X446379Y110229D01*
X446359Y110233D01*
X446338Y110231D01*
X446278Y110235D01*
X442816Y110235D01*
X440435Y112616D01*
X440435Y115984D01*
X442816Y118365D01*
X446184Y118365D01*
X448565Y115984D01*
X448565Y113792D01*
X448580Y113674D01*
X448587Y113555D01*
X448600Y113517D01*
X448605Y113476D01*
X448648Y113366D01*
X448685Y113253D01*
X448707Y113218D01*
X448722Y113181D01*
X448791Y113085D01*
X448855Y112984D01*
X448885Y112956D01*
X448908Y112923D01*
X449000Y112847D01*
X449087Y112766D01*
X449122Y112746D01*
X449153Y112721D01*
X449261Y112670D01*
X449365Y112612D01*
X449405Y112602D01*
X449441Y112585D01*
X449558Y112563D01*
X449673Y112533D01*
X449733Y112529D01*
X449753Y112525D01*
X449774Y112527D01*
X449834Y112523D01*
X453296Y112523D01*
X455677Y110142D01*
X455677Y106774D01*
X453296Y104393D01*
X449928Y104393D01*
G37*
%LPD*%
%LPC*%
G36*
X476598Y171195D02*
X476598Y171195D01*
X474217Y173576D01*
X474217Y175006D01*
X474202Y175124D01*
X474195Y175243D01*
X474182Y175281D01*
X474177Y175322D01*
X474134Y175432D01*
X474097Y175545D01*
X474075Y175580D01*
X474060Y175617D01*
X473991Y175713D01*
X473927Y175814D01*
X473897Y175842D01*
X473874Y175875D01*
X473782Y175951D01*
X473695Y176032D01*
X473660Y176052D01*
X473629Y176077D01*
X473521Y176128D01*
X473417Y176186D01*
X473377Y176196D01*
X473341Y176213D01*
X473224Y176235D01*
X473109Y176265D01*
X473049Y176269D01*
X473029Y176273D01*
X473008Y176271D01*
X472948Y176275D01*
X469232Y176275D01*
X466851Y178656D01*
X466851Y182024D01*
X469232Y184405D01*
X472600Y184405D01*
X474981Y182024D01*
X474981Y180594D01*
X474996Y180476D01*
X475003Y180357D01*
X475016Y180319D01*
X475021Y180278D01*
X475064Y180168D01*
X475101Y180055D01*
X475123Y180020D01*
X475138Y179983D01*
X475207Y179887D01*
X475271Y179786D01*
X475301Y179758D01*
X475324Y179725D01*
X475416Y179649D01*
X475503Y179568D01*
X475538Y179548D01*
X475569Y179523D01*
X475677Y179472D01*
X475781Y179414D01*
X475821Y179404D01*
X475857Y179387D01*
X475974Y179365D01*
X476089Y179335D01*
X476149Y179331D01*
X476169Y179327D01*
X476190Y179329D01*
X476250Y179325D01*
X479966Y179325D01*
X482347Y176944D01*
X482347Y173576D01*
X479966Y171195D01*
X476598Y171195D01*
G37*
%LPD*%
%LPC*%
G36*
X69436Y233425D02*
X69436Y233425D01*
X67055Y235806D01*
X67055Y239174D01*
X68919Y241038D01*
X68992Y241132D01*
X69071Y241221D01*
X69089Y241257D01*
X69114Y241289D01*
X69161Y241398D01*
X69215Y241504D01*
X69224Y241543D01*
X69240Y241581D01*
X69259Y241698D01*
X69285Y241814D01*
X69284Y241855D01*
X69290Y241895D01*
X69279Y242013D01*
X69275Y242132D01*
X69264Y242171D01*
X69260Y242211D01*
X69220Y242323D01*
X69187Y242438D01*
X69167Y242473D01*
X69153Y242511D01*
X69086Y242609D01*
X69025Y242712D01*
X68986Y242757D01*
X68974Y242774D01*
X68959Y242787D01*
X68919Y242833D01*
X67055Y244696D01*
X67055Y248064D01*
X69436Y250445D01*
X72804Y250445D01*
X75185Y248064D01*
X75185Y244696D01*
X73321Y242833D01*
X73248Y242738D01*
X73169Y242649D01*
X73151Y242613D01*
X73126Y242581D01*
X73079Y242472D01*
X73025Y242366D01*
X73016Y242327D01*
X73000Y242289D01*
X72981Y242172D01*
X72955Y242056D01*
X72956Y242015D01*
X72950Y241975D01*
X72961Y241857D01*
X72965Y241738D01*
X72976Y241699D01*
X72980Y241659D01*
X73020Y241546D01*
X73053Y241432D01*
X73073Y241398D01*
X73087Y241359D01*
X73154Y241261D01*
X73214Y241158D01*
X73254Y241113D01*
X73266Y241096D01*
X73281Y241083D01*
X73321Y241038D01*
X75185Y239174D01*
X75185Y235806D01*
X72804Y233425D01*
X69436Y233425D01*
G37*
%LPD*%
%LPC*%
G36*
X122522Y348995D02*
X122522Y348995D01*
X120141Y351376D01*
X120141Y354744D01*
X122522Y357125D01*
X125476Y357125D01*
X125594Y357140D01*
X125713Y357147D01*
X125751Y357160D01*
X125792Y357165D01*
X125902Y357208D01*
X126015Y357245D01*
X126050Y357267D01*
X126087Y357282D01*
X126183Y357351D01*
X126284Y357415D01*
X126312Y357445D01*
X126345Y357468D01*
X126421Y357560D01*
X126502Y357647D01*
X126522Y357682D01*
X126547Y357713D01*
X126598Y357821D01*
X126656Y357925D01*
X126666Y357965D01*
X126683Y358001D01*
X126705Y358118D01*
X126735Y358233D01*
X126739Y358293D01*
X126743Y358313D01*
X126741Y358334D01*
X126745Y358394D01*
X126745Y360078D01*
X129126Y362459D01*
X132494Y362459D01*
X134875Y360078D01*
X134875Y356710D01*
X132494Y354329D01*
X129540Y354329D01*
X129422Y354314D01*
X129303Y354307D01*
X129265Y354294D01*
X129224Y354289D01*
X129114Y354246D01*
X129001Y354209D01*
X128966Y354187D01*
X128929Y354172D01*
X128833Y354103D01*
X128732Y354039D01*
X128704Y354009D01*
X128671Y353986D01*
X128595Y353894D01*
X128514Y353807D01*
X128494Y353772D01*
X128469Y353741D01*
X128418Y353633D01*
X128360Y353529D01*
X128350Y353489D01*
X128333Y353453D01*
X128311Y353336D01*
X128281Y353221D01*
X128277Y353161D01*
X128273Y353141D01*
X128275Y353120D01*
X128271Y353060D01*
X128271Y351376D01*
X125890Y348995D01*
X122522Y348995D01*
G37*
%LPD*%
%LPC*%
G36*
X390746Y440435D02*
X390746Y440435D01*
X388365Y442816D01*
X388365Y445516D01*
X388350Y445634D01*
X388343Y445753D01*
X388330Y445791D01*
X388325Y445832D01*
X388282Y445942D01*
X388245Y446055D01*
X388223Y446090D01*
X388208Y446127D01*
X388139Y446223D01*
X388075Y446324D01*
X388045Y446352D01*
X388022Y446385D01*
X387930Y446461D01*
X387843Y446542D01*
X387808Y446562D01*
X387777Y446587D01*
X387669Y446638D01*
X387565Y446696D01*
X387525Y446706D01*
X387489Y446723D01*
X387372Y446745D01*
X387257Y446775D01*
X387197Y446779D01*
X387177Y446783D01*
X387156Y446781D01*
X387096Y446785D01*
X385666Y446785D01*
X383285Y449166D01*
X383285Y452534D01*
X385666Y454915D01*
X389034Y454915D01*
X391415Y452534D01*
X391415Y449834D01*
X391430Y449716D01*
X391437Y449597D01*
X391450Y449559D01*
X391455Y449518D01*
X391499Y449407D01*
X391535Y449295D01*
X391557Y449260D01*
X391572Y449223D01*
X391641Y449127D01*
X391705Y449026D01*
X391735Y448998D01*
X391758Y448965D01*
X391850Y448889D01*
X391937Y448808D01*
X391972Y448788D01*
X392003Y448763D01*
X392111Y448712D01*
X392215Y448654D01*
X392255Y448644D01*
X392291Y448627D01*
X392408Y448605D01*
X392523Y448575D01*
X392583Y448571D01*
X392603Y448567D01*
X392624Y448569D01*
X392684Y448565D01*
X394114Y448565D01*
X396495Y446184D01*
X396495Y442816D01*
X394114Y440435D01*
X390746Y440435D01*
G37*
%LPD*%
%LPC*%
G36*
X95598Y289813D02*
X95598Y289813D01*
X94116Y291296D01*
X94021Y291369D01*
X93932Y291448D01*
X93896Y291466D01*
X93864Y291491D01*
X93755Y291538D01*
X93649Y291592D01*
X93610Y291601D01*
X93572Y291617D01*
X93455Y291636D01*
X93339Y291662D01*
X93298Y291661D01*
X93258Y291667D01*
X93140Y291656D01*
X93021Y291652D01*
X92982Y291641D01*
X92942Y291637D01*
X92829Y291597D01*
X92715Y291564D01*
X92681Y291544D01*
X92642Y291530D01*
X92544Y291463D01*
X92441Y291403D01*
X92396Y291363D01*
X92379Y291351D01*
X92366Y291336D01*
X92321Y291296D01*
X91346Y290321D01*
X87978Y290321D01*
X85597Y292702D01*
X85597Y296070D01*
X87978Y298451D01*
X91346Y298451D01*
X92829Y296968D01*
X92923Y296895D01*
X93012Y296816D01*
X93048Y296798D01*
X93080Y296773D01*
X93189Y296726D01*
X93295Y296672D01*
X93334Y296663D01*
X93372Y296647D01*
X93489Y296628D01*
X93605Y296602D01*
X93646Y296603D01*
X93686Y296597D01*
X93804Y296608D01*
X93923Y296612D01*
X93962Y296623D01*
X94002Y296627D01*
X94114Y296667D01*
X94229Y296700D01*
X94264Y296720D01*
X94302Y296734D01*
X94400Y296801D01*
X94503Y296862D01*
X94548Y296901D01*
X94565Y296913D01*
X94578Y296928D01*
X94624Y296968D01*
X95598Y297943D01*
X98966Y297943D01*
X101347Y295562D01*
X101347Y292194D01*
X98966Y289813D01*
X95598Y289813D01*
G37*
%LPD*%
%LPC*%
G36*
X60546Y32765D02*
X60546Y32765D01*
X58165Y35146D01*
X58165Y38514D01*
X60546Y40895D01*
X63914Y40895D01*
X65015Y39793D01*
X65110Y39720D01*
X65199Y39641D01*
X65235Y39623D01*
X65267Y39598D01*
X65376Y39551D01*
X65482Y39497D01*
X65521Y39488D01*
X65559Y39472D01*
X65676Y39453D01*
X65792Y39427D01*
X65833Y39428D01*
X65873Y39422D01*
X65991Y39433D01*
X66110Y39437D01*
X66149Y39448D01*
X66189Y39452D01*
X66302Y39492D01*
X66416Y39525D01*
X66450Y39545D01*
X66489Y39559D01*
X66587Y39626D01*
X66690Y39686D01*
X66735Y39726D01*
X66752Y39738D01*
X66765Y39753D01*
X66810Y39793D01*
X68166Y41149D01*
X71534Y41149D01*
X73915Y38768D01*
X73915Y35400D01*
X71534Y33019D01*
X68166Y33019D01*
X67064Y34121D01*
X66970Y34194D01*
X66881Y34273D01*
X66845Y34291D01*
X66813Y34316D01*
X66704Y34363D01*
X66598Y34417D01*
X66559Y34426D01*
X66521Y34442D01*
X66404Y34461D01*
X66288Y34487D01*
X66247Y34486D01*
X66207Y34492D01*
X66089Y34481D01*
X65970Y34477D01*
X65931Y34466D01*
X65891Y34462D01*
X65779Y34422D01*
X65664Y34389D01*
X65629Y34369D01*
X65591Y34355D01*
X65493Y34288D01*
X65390Y34227D01*
X65345Y34188D01*
X65328Y34176D01*
X65315Y34161D01*
X65269Y34121D01*
X63914Y32765D01*
X60546Y32765D01*
G37*
%LPD*%
%LPC*%
G36*
X151732Y313943D02*
X151732Y313943D01*
X149087Y316588D01*
X149061Y316630D01*
X149031Y316658D01*
X149008Y316691D01*
X148916Y316767D01*
X148829Y316848D01*
X148794Y316868D01*
X148763Y316893D01*
X148655Y316944D01*
X148551Y317002D01*
X148511Y317012D01*
X148475Y317029D01*
X148358Y317051D01*
X148243Y317081D01*
X148183Y317085D01*
X148163Y317089D01*
X148142Y317087D01*
X148082Y317091D01*
X145274Y317091D01*
X142893Y319472D01*
X142893Y322840D01*
X145274Y325221D01*
X148642Y325221D01*
X151287Y322576D01*
X151313Y322534D01*
X151343Y322506D01*
X151366Y322473D01*
X151458Y322397D01*
X151545Y322316D01*
X151580Y322296D01*
X151611Y322271D01*
X151719Y322220D01*
X151823Y322162D01*
X151863Y322152D01*
X151899Y322135D01*
X152016Y322113D01*
X152131Y322083D01*
X152191Y322079D01*
X152211Y322075D01*
X152232Y322077D01*
X152292Y322073D01*
X155100Y322073D01*
X157481Y319692D01*
X157481Y316324D01*
X155100Y313943D01*
X151732Y313943D01*
G37*
%LPD*%
%LPC*%
G36*
X437990Y475995D02*
X437990Y475995D01*
X435609Y478376D01*
X435609Y481744D01*
X437990Y484125D01*
X441358Y484125D01*
X442445Y483038D01*
X442539Y482965D01*
X442628Y482886D01*
X442664Y482868D01*
X442696Y482843D01*
X442805Y482796D01*
X442911Y482742D01*
X442950Y482733D01*
X442988Y482717D01*
X443105Y482698D01*
X443221Y482672D01*
X443262Y482673D01*
X443302Y482667D01*
X443420Y482678D01*
X443539Y482682D01*
X443578Y482693D01*
X443618Y482697D01*
X443730Y482737D01*
X443845Y482770D01*
X443880Y482790D01*
X443918Y482804D01*
X444016Y482871D01*
X444119Y482932D01*
X444164Y482971D01*
X444181Y482983D01*
X444194Y482998D01*
X444240Y483038D01*
X445326Y484125D01*
X448694Y484125D01*
X451075Y481744D01*
X451075Y478376D01*
X448694Y475995D01*
X445326Y475995D01*
X444240Y477082D01*
X444145Y477155D01*
X444056Y477234D01*
X444020Y477252D01*
X443988Y477277D01*
X443879Y477324D01*
X443773Y477378D01*
X443734Y477387D01*
X443696Y477403D01*
X443579Y477422D01*
X443463Y477448D01*
X443422Y477447D01*
X443382Y477453D01*
X443264Y477442D01*
X443145Y477438D01*
X443106Y477427D01*
X443066Y477423D01*
X442953Y477383D01*
X442839Y477350D01*
X442805Y477330D01*
X442766Y477316D01*
X442668Y477249D01*
X442565Y477189D01*
X442520Y477149D01*
X442503Y477137D01*
X442490Y477122D01*
X442445Y477082D01*
X441358Y475995D01*
X437990Y475995D01*
G37*
%LPD*%
%LPC*%
G36*
X60546Y61975D02*
X60546Y61975D01*
X58165Y64356D01*
X58165Y67724D01*
X60546Y70105D01*
X63914Y70105D01*
X64761Y69257D01*
X64855Y69184D01*
X64945Y69105D01*
X64981Y69087D01*
X65013Y69062D01*
X65122Y69015D01*
X65228Y68961D01*
X65267Y68952D01*
X65305Y68936D01*
X65422Y68917D01*
X65538Y68891D01*
X65579Y68892D01*
X65619Y68886D01*
X65737Y68897D01*
X65856Y68901D01*
X65895Y68912D01*
X65935Y68916D01*
X66048Y68956D01*
X66162Y68989D01*
X66196Y69009D01*
X66235Y69023D01*
X66333Y69090D01*
X66436Y69150D01*
X66481Y69190D01*
X66498Y69202D01*
X66511Y69217D01*
X66556Y69257D01*
X67404Y70105D01*
X70772Y70105D01*
X73153Y67724D01*
X73153Y64356D01*
X70772Y61975D01*
X67404Y61975D01*
X66556Y62823D01*
X66462Y62896D01*
X66373Y62975D01*
X66337Y62993D01*
X66305Y63018D01*
X66196Y63065D01*
X66090Y63119D01*
X66051Y63128D01*
X66013Y63144D01*
X65896Y63163D01*
X65780Y63189D01*
X65739Y63188D01*
X65699Y63194D01*
X65581Y63183D01*
X65462Y63179D01*
X65423Y63168D01*
X65383Y63164D01*
X65271Y63124D01*
X65156Y63091D01*
X65121Y63071D01*
X65083Y63057D01*
X64985Y62990D01*
X64882Y62929D01*
X64837Y62890D01*
X64820Y62878D01*
X64807Y62863D01*
X64761Y62823D01*
X63914Y61975D01*
X60546Y61975D01*
G37*
%LPD*%
%LPC*%
G36*
X212000Y485884D02*
X212000Y485884D01*
X210575Y486610D01*
X209281Y487550D01*
X208120Y488710D01*
X208103Y488736D01*
X208028Y488802D01*
X207960Y488875D01*
X207909Y488907D01*
X207865Y488946D01*
X207776Y488992D01*
X207691Y489045D01*
X207635Y489064D01*
X207581Y489091D01*
X207484Y489113D01*
X207389Y489144D01*
X207329Y489147D01*
X207271Y489160D01*
X207171Y489157D01*
X207072Y489164D01*
X207013Y489153D01*
X206953Y489151D01*
X206857Y489123D01*
X206759Y489104D01*
X206705Y489079D01*
X206648Y489062D01*
X206562Y489012D01*
X206471Y488969D01*
X206425Y488931D01*
X206374Y488901D01*
X206253Y488794D01*
X203614Y486155D01*
X200246Y486155D01*
X197865Y488536D01*
X197865Y491904D01*
X200246Y494285D01*
X203614Y494285D01*
X204766Y493133D01*
X204844Y493072D01*
X204916Y493004D01*
X204969Y492975D01*
X205017Y492938D01*
X205108Y492898D01*
X205195Y492850D01*
X205253Y492835D01*
X205309Y492811D01*
X205407Y492796D01*
X205503Y492771D01*
X205603Y492765D01*
X205623Y492761D01*
X205635Y492763D01*
X205663Y492761D01*
X213361Y492761D01*
X213361Y485441D01*
X212000Y485884D01*
G37*
%LPD*%
%LPC*%
G36*
X370800Y44021D02*
X370800Y44021D01*
X368951Y44787D01*
X367537Y46201D01*
X366771Y48050D01*
X366771Y50050D01*
X367537Y51899D01*
X368951Y53313D01*
X370800Y54079D01*
X372800Y54079D01*
X374649Y53313D01*
X376063Y51899D01*
X376829Y50050D01*
X376829Y48050D01*
X376063Y46201D01*
X374649Y44787D01*
X372800Y44021D01*
X370800Y44021D01*
G37*
%LPD*%
%LPC*%
G36*
X313000Y44021D02*
X313000Y44021D01*
X311151Y44787D01*
X309737Y46201D01*
X308971Y48050D01*
X308971Y50050D01*
X309737Y51899D01*
X311151Y53313D01*
X313000Y54079D01*
X315000Y54079D01*
X316849Y53313D01*
X318263Y51899D01*
X319029Y50050D01*
X319029Y48050D01*
X318263Y46201D01*
X316849Y44787D01*
X315000Y44021D01*
X313000Y44021D01*
G37*
%LPD*%
%LPC*%
G36*
X243800Y44021D02*
X243800Y44021D01*
X241951Y44787D01*
X240537Y46201D01*
X239771Y48050D01*
X239771Y50050D01*
X240537Y51899D01*
X241951Y53313D01*
X243800Y54079D01*
X245800Y54079D01*
X247649Y53313D01*
X249063Y51899D01*
X249829Y50050D01*
X249829Y48050D01*
X249063Y46201D01*
X247649Y44787D01*
X245800Y44021D01*
X243800Y44021D01*
G37*
%LPD*%
%LPC*%
G36*
X186000Y44021D02*
X186000Y44021D01*
X184151Y44787D01*
X182737Y46201D01*
X181971Y48050D01*
X181971Y50050D01*
X182737Y51899D01*
X184151Y53313D01*
X186000Y54079D01*
X188000Y54079D01*
X189849Y53313D01*
X191263Y51899D01*
X192029Y50050D01*
X192029Y48050D01*
X191263Y46201D01*
X189849Y44787D01*
X188000Y44021D01*
X186000Y44021D01*
G37*
%LPD*%
%LPC*%
G36*
X501466Y478446D02*
X501466Y478446D01*
X501447Y478451D01*
X501429Y478460D01*
X501293Y478490D01*
X501158Y478525D01*
X501130Y478527D01*
X501118Y478530D01*
X501098Y478529D01*
X500998Y478535D01*
X497426Y478535D01*
X495045Y480916D01*
X495045Y484284D01*
X497426Y486665D01*
X500998Y486665D01*
X501136Y486682D01*
X501274Y486695D01*
X501293Y486702D01*
X501313Y486705D01*
X501442Y486756D01*
X501573Y486803D01*
X501582Y486809D01*
X501581Y486803D01*
X501551Y486718D01*
X501546Y486648D01*
X501531Y486580D01*
X501533Y486490D01*
X501526Y486401D01*
X501538Y486332D01*
X501540Y486262D01*
X501565Y486176D01*
X501581Y486087D01*
X501609Y486024D01*
X501629Y485957D01*
X501674Y485879D01*
X501711Y485797D01*
X501755Y485743D01*
X501790Y485683D01*
X501897Y485562D01*
X503175Y484284D01*
X503175Y480916D01*
X501897Y479638D01*
X501854Y479583D01*
X501804Y479535D01*
X501757Y479458D01*
X501753Y479453D01*
X501745Y479444D01*
X501745Y479442D01*
X501702Y479387D01*
X501674Y479323D01*
X501637Y479263D01*
X501611Y479178D01*
X501575Y479095D01*
X501564Y479026D01*
X501544Y478959D01*
X501540Y478870D01*
X501525Y478781D01*
X501532Y478711D01*
X501529Y478642D01*
X501547Y478554D01*
X501555Y478464D01*
X501579Y478399D01*
X501582Y478382D01*
X501466Y478446D01*
G37*
%LPD*%
%LPC*%
G36*
X228948Y369823D02*
X228948Y369823D01*
X226567Y372204D01*
X226567Y375572D01*
X228948Y377953D01*
X232316Y377953D01*
X234697Y375572D01*
X234697Y372204D01*
X232316Y369823D01*
X228948Y369823D01*
G37*
%LPD*%
%LPC*%
G36*
X170782Y454659D02*
X170782Y454659D01*
X168401Y457040D01*
X168401Y460408D01*
X170782Y462789D01*
X174150Y462789D01*
X176531Y460408D01*
X176531Y457040D01*
X174150Y454659D01*
X170782Y454659D01*
G37*
%LPD*%
%LPC*%
G36*
X104996Y368045D02*
X104996Y368045D01*
X102615Y370426D01*
X102615Y373794D01*
X104996Y376175D01*
X108364Y376175D01*
X110745Y373794D01*
X110745Y370426D01*
X108364Y368045D01*
X104996Y368045D01*
G37*
%LPD*%
%LPC*%
G36*
X179116Y358493D02*
X179116Y358493D01*
X176735Y360874D01*
X176735Y364242D01*
X179116Y366623D01*
X182484Y366623D01*
X184865Y364242D01*
X184865Y360874D01*
X182484Y358493D01*
X179116Y358493D01*
G37*
%LPD*%
%LPC*%
G36*
X142842Y355853D02*
X142842Y355853D01*
X140461Y358234D01*
X140461Y361602D01*
X142842Y363983D01*
X146210Y363983D01*
X148591Y361602D01*
X148591Y358234D01*
X146210Y355853D01*
X142842Y355853D01*
G37*
%LPD*%
%LPC*%
G36*
X39972Y353059D02*
X39972Y353059D01*
X37591Y355440D01*
X37591Y358808D01*
X39972Y361189D01*
X43340Y361189D01*
X45721Y358808D01*
X45721Y355440D01*
X43340Y353059D01*
X39972Y353059D01*
G37*
%LPD*%
%LPC*%
G36*
X168496Y352805D02*
X168496Y352805D01*
X166115Y355186D01*
X166115Y358554D01*
X168496Y360935D01*
X171864Y360935D01*
X174245Y358554D01*
X174245Y355186D01*
X171864Y352805D01*
X168496Y352805D01*
G37*
%LPD*%
%LPC*%
G36*
X231996Y342899D02*
X231996Y342899D01*
X229615Y345280D01*
X229615Y348648D01*
X231996Y351029D01*
X235364Y351029D01*
X237745Y348648D01*
X237745Y345280D01*
X235364Y342899D01*
X231996Y342899D01*
G37*
%LPD*%
%LPC*%
G36*
X185006Y338835D02*
X185006Y338835D01*
X182625Y341216D01*
X182625Y344584D01*
X185006Y346965D01*
X188374Y346965D01*
X190755Y344584D01*
X190755Y341216D01*
X188374Y338835D01*
X185006Y338835D01*
G37*
%LPD*%
%LPC*%
G36*
X118966Y336255D02*
X118966Y336255D01*
X116585Y338636D01*
X116585Y342004D01*
X118966Y344385D01*
X122334Y344385D01*
X124715Y342004D01*
X124715Y338636D01*
X122334Y336255D01*
X118966Y336255D01*
G37*
%LPD*%
%LPC*%
G36*
X171036Y331215D02*
X171036Y331215D01*
X168655Y333596D01*
X168655Y336964D01*
X171036Y339345D01*
X174404Y339345D01*
X176785Y336964D01*
X176785Y333596D01*
X174404Y331215D01*
X171036Y331215D01*
G37*
%LPD*%
%LPC*%
G36*
X391000Y328035D02*
X391000Y328035D01*
X388619Y330416D01*
X388619Y333784D01*
X391000Y336165D01*
X394368Y336165D01*
X396749Y333784D01*
X396749Y330416D01*
X394368Y328035D01*
X391000Y328035D01*
G37*
%LPD*%
%LPC*%
G36*
X388206Y317245D02*
X388206Y317245D01*
X385825Y319626D01*
X385825Y322994D01*
X388206Y325375D01*
X391574Y325375D01*
X393955Y322994D01*
X393955Y319626D01*
X391574Y317245D01*
X388206Y317245D01*
G37*
%LPD*%
%LPC*%
G36*
X358234Y316991D02*
X358234Y316991D01*
X355853Y319372D01*
X355853Y322740D01*
X358234Y325121D01*
X361602Y325121D01*
X363983Y322740D01*
X363983Y319372D01*
X361602Y316991D01*
X358234Y316991D01*
G37*
%LPD*%
%LPC*%
G36*
X320896Y300227D02*
X320896Y300227D01*
X318515Y302608D01*
X318515Y305976D01*
X320896Y308357D01*
X324264Y308357D01*
X326645Y305976D01*
X326645Y302608D01*
X324264Y300227D01*
X320896Y300227D01*
G37*
%LPD*%
%LPC*%
G36*
X307180Y298195D02*
X307180Y298195D01*
X304799Y300576D01*
X304799Y303944D01*
X307180Y306325D01*
X310548Y306325D01*
X312929Y303944D01*
X312929Y300576D01*
X310548Y298195D01*
X307180Y298195D01*
G37*
%LPD*%
%LPC*%
G36*
X379316Y288035D02*
X379316Y288035D01*
X376935Y290416D01*
X376935Y293784D01*
X379316Y296165D01*
X382684Y296165D01*
X385065Y293784D01*
X385065Y290416D01*
X382684Y288035D01*
X379316Y288035D01*
G37*
%LPD*%
%LPC*%
G36*
X113778Y287627D02*
X113778Y287627D01*
X111397Y290008D01*
X111397Y293376D01*
X113778Y295757D01*
X117146Y295757D01*
X119527Y293376D01*
X119527Y290008D01*
X117146Y287627D01*
X113778Y287627D01*
G37*
%LPD*%
%LPC*%
G36*
X38448Y282447D02*
X38448Y282447D01*
X36067Y284828D01*
X36067Y288196D01*
X38448Y290577D01*
X41816Y290577D01*
X44197Y288196D01*
X44197Y284828D01*
X41816Y282447D01*
X38448Y282447D01*
G37*
%LPD*%
%LPC*%
G36*
X458564Y270001D02*
X458564Y270001D01*
X456183Y272382D01*
X456183Y275750D01*
X458564Y278131D01*
X461932Y278131D01*
X464313Y275750D01*
X464313Y272382D01*
X461932Y270001D01*
X458564Y270001D01*
G37*
%LPD*%
%LPC*%
G36*
X44036Y260095D02*
X44036Y260095D01*
X41655Y262476D01*
X41655Y265844D01*
X44036Y268225D01*
X47404Y268225D01*
X49785Y265844D01*
X49785Y262476D01*
X47404Y260095D01*
X44036Y260095D01*
G37*
%LPD*%
%LPC*%
G36*
X488536Y254507D02*
X488536Y254507D01*
X486155Y256888D01*
X486155Y260256D01*
X488536Y262637D01*
X491904Y262637D01*
X494285Y260256D01*
X494285Y256888D01*
X491904Y254507D01*
X488536Y254507D01*
G37*
%LPD*%
%LPC*%
G36*
X261968Y253999D02*
X261968Y253999D01*
X259587Y256380D01*
X259587Y259748D01*
X261968Y262129D01*
X265336Y262129D01*
X267717Y259748D01*
X267717Y256380D01*
X265336Y253999D01*
X261968Y253999D01*
G37*
%LPD*%
%LPC*%
G36*
X176116Y249935D02*
X176116Y249935D01*
X173735Y252316D01*
X173735Y255684D01*
X176116Y258065D01*
X179484Y258065D01*
X181865Y255684D01*
X181865Y252316D01*
X179484Y249935D01*
X176116Y249935D01*
G37*
%LPD*%
%LPC*%
G36*
X277716Y246125D02*
X277716Y246125D01*
X275335Y248506D01*
X275335Y251874D01*
X277716Y254255D01*
X281084Y254255D01*
X283465Y251874D01*
X283465Y248506D01*
X281084Y246125D01*
X277716Y246125D01*
G37*
%LPD*%
%LPC*%
G36*
X49116Y241045D02*
X49116Y241045D01*
X46735Y243426D01*
X46735Y246794D01*
X49116Y249175D01*
X52484Y249175D01*
X54865Y246794D01*
X54865Y243426D01*
X52484Y241045D01*
X49116Y241045D01*
G37*
%LPD*%
%LPC*%
G36*
X342740Y236473D02*
X342740Y236473D01*
X340359Y238854D01*
X340359Y242222D01*
X342740Y244603D01*
X346108Y244603D01*
X348489Y242222D01*
X348489Y238854D01*
X346108Y236473D01*
X342740Y236473D01*
G37*
%LPD*%
%LPC*%
G36*
X176370Y231139D02*
X176370Y231139D01*
X173989Y233520D01*
X173989Y236888D01*
X176370Y239269D01*
X179738Y239269D01*
X182119Y236888D01*
X182119Y233520D01*
X179738Y231139D01*
X176370Y231139D01*
G37*
%LPD*%
%LPC*%
G36*
X99916Y231139D02*
X99916Y231139D01*
X97535Y233520D01*
X97535Y236888D01*
X99916Y239269D01*
X103284Y239269D01*
X105665Y236888D01*
X105665Y233520D01*
X103284Y231139D01*
X99916Y231139D01*
G37*
%LPD*%
%LPC*%
G36*
X359758Y494537D02*
X359758Y494537D01*
X357377Y496918D01*
X357377Y500286D01*
X359758Y502667D01*
X363126Y502667D01*
X365507Y500286D01*
X365507Y496918D01*
X363126Y494537D01*
X359758Y494537D01*
G37*
%LPD*%
%LPC*%
G36*
X489806Y226821D02*
X489806Y226821D01*
X487425Y229202D01*
X487425Y232570D01*
X489806Y234951D01*
X493174Y234951D01*
X495555Y232570D01*
X495555Y229202D01*
X493174Y226821D01*
X489806Y226821D01*
G37*
%LPD*%
%LPC*%
G36*
X473042Y491235D02*
X473042Y491235D01*
X470661Y493616D01*
X470661Y496984D01*
X473042Y499365D01*
X476410Y499365D01*
X478791Y496984D01*
X478791Y493616D01*
X476410Y491235D01*
X473042Y491235D01*
G37*
%LPD*%
%LPC*%
G36*
X82136Y211835D02*
X82136Y211835D01*
X79755Y214216D01*
X79755Y217584D01*
X82136Y219965D01*
X85504Y219965D01*
X87885Y217584D01*
X87885Y214216D01*
X85504Y211835D01*
X82136Y211835D01*
G37*
%LPD*%
%LPC*%
G36*
X138886Y211435D02*
X138886Y211435D01*
X136505Y213816D01*
X136505Y217184D01*
X138886Y219565D01*
X142254Y219565D01*
X144635Y217184D01*
X144635Y213816D01*
X142254Y211435D01*
X138886Y211435D01*
G37*
%LPD*%
%LPC*%
G36*
X351630Y211327D02*
X351630Y211327D01*
X349249Y213708D01*
X349249Y217076D01*
X351630Y219457D01*
X354998Y219457D01*
X357379Y217076D01*
X357379Y213708D01*
X354998Y211327D01*
X351630Y211327D01*
G37*
%LPD*%
%LPC*%
G36*
X241902Y210057D02*
X241902Y210057D01*
X239521Y212438D01*
X239521Y215806D01*
X241902Y218187D01*
X245270Y218187D01*
X247651Y215806D01*
X247651Y212438D01*
X245270Y210057D01*
X241902Y210057D01*
G37*
%LPD*%
%LPC*%
G36*
X455516Y491235D02*
X455516Y491235D01*
X453135Y493616D01*
X453135Y496984D01*
X455516Y499365D01*
X458884Y499365D01*
X461265Y496984D01*
X461265Y493616D01*
X458884Y491235D01*
X455516Y491235D01*
G37*
%LPD*%
%LPC*%
G36*
X277716Y491235D02*
X277716Y491235D01*
X275335Y493616D01*
X275335Y496984D01*
X277716Y499365D01*
X281084Y499365D01*
X283465Y496984D01*
X283465Y493616D01*
X281084Y491235D01*
X277716Y491235D01*
G37*
%LPD*%
%LPC*%
G36*
X344518Y202183D02*
X344518Y202183D01*
X342137Y204564D01*
X342137Y207932D01*
X344518Y210313D01*
X347886Y210313D01*
X350267Y207932D01*
X350267Y204564D01*
X347886Y202183D01*
X344518Y202183D01*
G37*
%LPD*%
%LPC*%
G36*
X414622Y489457D02*
X414622Y489457D01*
X412241Y491838D01*
X412241Y495206D01*
X414622Y497587D01*
X417990Y497587D01*
X420371Y495206D01*
X420371Y491838D01*
X417990Y489457D01*
X414622Y489457D01*
G37*
%LPD*%
%LPC*%
G36*
X144366Y477265D02*
X144366Y477265D01*
X141985Y479646D01*
X141985Y483014D01*
X144366Y485395D01*
X147734Y485395D01*
X150115Y483014D01*
X150115Y479646D01*
X147734Y477265D01*
X144366Y477265D01*
G37*
%LPD*%
%LPC*%
G36*
X229456Y472185D02*
X229456Y472185D01*
X227075Y474566D01*
X227075Y477934D01*
X229456Y480315D01*
X232824Y480315D01*
X235205Y477934D01*
X235205Y474566D01*
X232824Y472185D01*
X229456Y472185D01*
G37*
%LPD*%
%LPC*%
G36*
X63086Y199135D02*
X63086Y199135D01*
X60705Y201516D01*
X60705Y204884D01*
X63086Y207265D01*
X66454Y207265D01*
X68835Y204884D01*
X68835Y201516D01*
X66454Y199135D01*
X63086Y199135D01*
G37*
%LPD*%
%LPC*%
G36*
X216248Y194309D02*
X216248Y194309D01*
X213867Y196690D01*
X213867Y200058D01*
X216248Y202439D01*
X219616Y202439D01*
X221997Y200058D01*
X221997Y196690D01*
X219616Y194309D01*
X216248Y194309D01*
G37*
%LPD*%
%LPC*%
G36*
X474786Y465581D02*
X474786Y465581D01*
X472405Y467962D01*
X472405Y471330D01*
X474786Y473711D01*
X478154Y473711D01*
X480535Y471330D01*
X480535Y467962D01*
X478154Y465581D01*
X474786Y465581D01*
G37*
%LPD*%
%LPC*%
G36*
X48608Y189483D02*
X48608Y189483D01*
X46227Y191864D01*
X46227Y195232D01*
X48608Y197613D01*
X51976Y197613D01*
X54357Y195232D01*
X54357Y191864D01*
X51976Y189483D01*
X48608Y189483D01*
G37*
%LPD*%
%LPC*%
G36*
X82136Y186435D02*
X82136Y186435D01*
X79755Y188816D01*
X79755Y192184D01*
X82136Y194565D01*
X85504Y194565D01*
X87885Y192184D01*
X87885Y188816D01*
X85504Y186435D01*
X82136Y186435D01*
G37*
%LPD*%
%LPC*%
G36*
X138016Y186435D02*
X138016Y186435D01*
X135635Y188816D01*
X135635Y192184D01*
X138016Y194565D01*
X141384Y194565D01*
X143765Y192184D01*
X143765Y188816D01*
X141384Y186435D01*
X138016Y186435D01*
G37*
%LPD*%
%LPC*%
G36*
X277716Y459485D02*
X277716Y459485D01*
X275335Y461866D01*
X275335Y465234D01*
X277716Y467615D01*
X281084Y467615D01*
X283465Y465234D01*
X283465Y461866D01*
X281084Y459485D01*
X277716Y459485D01*
G37*
%LPD*%
%LPC*%
G36*
X198976Y178053D02*
X198976Y178053D01*
X196595Y180434D01*
X196595Y183802D01*
X198976Y186183D01*
X202344Y186183D01*
X204725Y183802D01*
X204725Y180434D01*
X202344Y178053D01*
X198976Y178053D01*
G37*
%LPD*%
%LPC*%
G36*
X216248Y177545D02*
X216248Y177545D01*
X213867Y179926D01*
X213867Y183294D01*
X216248Y185675D01*
X219616Y185675D01*
X221997Y183294D01*
X221997Y179926D01*
X219616Y177545D01*
X216248Y177545D01*
G37*
%LPD*%
%LPC*%
G36*
X67912Y457453D02*
X67912Y457453D01*
X65531Y459834D01*
X65531Y463202D01*
X67912Y465583D01*
X71280Y465583D01*
X73661Y463202D01*
X73661Y459834D01*
X71280Y457453D01*
X67912Y457453D01*
G37*
%LPD*%
%LPC*%
G36*
X285336Y175005D02*
X285336Y175005D01*
X282955Y177386D01*
X282955Y180754D01*
X285336Y183135D01*
X288704Y183135D01*
X291085Y180754D01*
X291085Y177386D01*
X288704Y175005D01*
X285336Y175005D01*
G37*
%LPD*%
%LPC*%
G36*
X320896Y174751D02*
X320896Y174751D01*
X318515Y177132D01*
X318515Y180500D01*
X320896Y182881D01*
X324264Y182881D01*
X326645Y180500D01*
X326645Y177132D01*
X324264Y174751D01*
X320896Y174751D01*
G37*
%LPD*%
%LPC*%
G36*
X63086Y173735D02*
X63086Y173735D01*
X60705Y176116D01*
X60705Y179484D01*
X63086Y181865D01*
X66454Y181865D01*
X68835Y179484D01*
X68835Y176116D01*
X66454Y173735D01*
X63086Y173735D01*
G37*
%LPD*%
%LPC*%
G36*
X82644Y457199D02*
X82644Y457199D01*
X80263Y459580D01*
X80263Y462948D01*
X82644Y465329D01*
X86012Y465329D01*
X88393Y462948D01*
X88393Y459580D01*
X86012Y457199D01*
X82644Y457199D01*
G37*
%LPD*%
%LPC*%
G36*
X235552Y164337D02*
X235552Y164337D01*
X233171Y166718D01*
X233171Y170086D01*
X235552Y172467D01*
X238920Y172467D01*
X241301Y170086D01*
X241301Y166718D01*
X238920Y164337D01*
X235552Y164337D01*
G37*
%LPD*%
%LPC*%
G36*
X302862Y162813D02*
X302862Y162813D01*
X300481Y165194D01*
X300481Y168562D01*
X302862Y170943D01*
X306230Y170943D01*
X308611Y168562D01*
X308611Y165194D01*
X306230Y162813D01*
X302862Y162813D01*
G37*
%LPD*%
%LPC*%
G36*
X168496Y160273D02*
X168496Y160273D01*
X166115Y162654D01*
X166115Y166022D01*
X168496Y168403D01*
X171864Y168403D01*
X174245Y166022D01*
X174245Y162654D01*
X171864Y160273D01*
X168496Y160273D01*
G37*
%LPD*%
%LPC*%
G36*
X522198Y157867D02*
X522198Y157867D01*
X519817Y160248D01*
X519817Y163616D01*
X522198Y165997D01*
X525566Y165997D01*
X527947Y163616D01*
X527947Y160248D01*
X525566Y157867D01*
X522198Y157867D01*
G37*
%LPD*%
%LPC*%
G36*
X208468Y156369D02*
X208468Y156369D01*
X206087Y158750D01*
X206087Y162118D01*
X208468Y164499D01*
X211836Y164499D01*
X214217Y162118D01*
X214217Y158750D01*
X211836Y156369D01*
X208468Y156369D01*
G37*
%LPD*%
%LPC*%
G36*
X246220Y155447D02*
X246220Y155447D01*
X243839Y157828D01*
X243839Y161196D01*
X246220Y163577D01*
X249588Y163577D01*
X251969Y161196D01*
X251969Y157828D01*
X249588Y155447D01*
X246220Y155447D01*
G37*
%LPD*%
%LPC*%
G36*
X97884Y456945D02*
X97884Y456945D01*
X95503Y459326D01*
X95503Y462694D01*
X97884Y465075D01*
X101252Y465075D01*
X103633Y462694D01*
X103633Y459326D01*
X101252Y456945D01*
X97884Y456945D01*
G37*
%LPD*%
%LPC*%
G36*
X217264Y146557D02*
X217264Y146557D01*
X214883Y148938D01*
X214883Y152306D01*
X217264Y154687D01*
X220632Y154687D01*
X223013Y152306D01*
X223013Y148938D01*
X220632Y146557D01*
X217264Y146557D01*
G37*
%LPD*%
%LPC*%
G36*
X370934Y146303D02*
X370934Y146303D01*
X368553Y148684D01*
X368553Y152052D01*
X370934Y154433D01*
X374302Y154433D01*
X376683Y152052D01*
X376683Y148684D01*
X374302Y146303D01*
X370934Y146303D01*
G37*
%LPD*%
%LPC*%
G36*
X137254Y145287D02*
X137254Y145287D01*
X134873Y147668D01*
X134873Y151036D01*
X137254Y153417D01*
X140622Y153417D01*
X143003Y151036D01*
X143003Y147668D01*
X140622Y145287D01*
X137254Y145287D01*
G37*
%LPD*%
%LPC*%
G36*
X112362Y143509D02*
X112362Y143509D01*
X109981Y145890D01*
X109981Y149258D01*
X112362Y151639D01*
X115730Y151639D01*
X118111Y149258D01*
X118111Y145890D01*
X115730Y143509D01*
X112362Y143509D01*
G37*
%LPD*%
%LPC*%
G36*
X154526Y143255D02*
X154526Y143255D01*
X152145Y145636D01*
X152145Y149004D01*
X154526Y151385D01*
X157894Y151385D01*
X160275Y149004D01*
X160275Y145636D01*
X157894Y143255D01*
X154526Y143255D01*
G37*
%LPD*%
%LPC*%
G36*
X245712Y140207D02*
X245712Y140207D01*
X243331Y142588D01*
X243331Y145956D01*
X245712Y148337D01*
X249080Y148337D01*
X251461Y145956D01*
X251461Y142588D01*
X249080Y140207D01*
X245712Y140207D01*
G37*
%LPD*%
%LPC*%
G36*
X331310Y136905D02*
X331310Y136905D01*
X328929Y139286D01*
X328929Y142654D01*
X331310Y145035D01*
X334678Y145035D01*
X337059Y142654D01*
X337059Y139286D01*
X334678Y136905D01*
X331310Y136905D01*
G37*
%LPD*%
%LPC*%
G36*
X450944Y136397D02*
X450944Y136397D01*
X448563Y138778D01*
X448563Y142146D01*
X450944Y144527D01*
X454312Y144527D01*
X456693Y142146D01*
X456693Y138778D01*
X454312Y136397D01*
X450944Y136397D01*
G37*
%LPD*%
%LPC*%
G36*
X407002Y128523D02*
X407002Y128523D01*
X404621Y130904D01*
X404621Y134272D01*
X407002Y136653D01*
X410370Y136653D01*
X412751Y134272D01*
X412751Y130904D01*
X410370Y128523D01*
X407002Y128523D01*
G37*
%LPD*%
%LPC*%
G36*
X126078Y456945D02*
X126078Y456945D01*
X123697Y459326D01*
X123697Y462694D01*
X126078Y465075D01*
X129446Y465075D01*
X131827Y462694D01*
X131827Y459326D01*
X129446Y456945D01*
X126078Y456945D01*
G37*
%LPD*%
%LPC*%
G36*
X341216Y123189D02*
X341216Y123189D01*
X338835Y125570D01*
X338835Y128938D01*
X341216Y131319D01*
X344584Y131319D01*
X346965Y128938D01*
X346965Y125570D01*
X344584Y123189D01*
X341216Y123189D01*
G37*
%LPD*%
%LPC*%
G36*
X239616Y122935D02*
X239616Y122935D01*
X237235Y125316D01*
X237235Y128684D01*
X239616Y131065D01*
X242984Y131065D01*
X245365Y128684D01*
X245365Y125316D01*
X242984Y122935D01*
X239616Y122935D01*
G37*
%LPD*%
%LPC*%
G36*
X214216Y122935D02*
X214216Y122935D01*
X211835Y125316D01*
X211835Y128684D01*
X214216Y131065D01*
X217584Y131065D01*
X219965Y128684D01*
X219965Y125316D01*
X217584Y122935D01*
X214216Y122935D01*
G37*
%LPD*%
%LPC*%
G36*
X315816Y122935D02*
X315816Y122935D01*
X313435Y125316D01*
X313435Y128684D01*
X315816Y131065D01*
X319184Y131065D01*
X321565Y128684D01*
X321565Y125316D01*
X319184Y122935D01*
X315816Y122935D01*
G37*
%LPD*%
%LPC*%
G36*
X181196Y119125D02*
X181196Y119125D01*
X178815Y121506D01*
X178815Y124874D01*
X181196Y127255D01*
X184564Y127255D01*
X186945Y124874D01*
X186945Y121506D01*
X184564Y119125D01*
X181196Y119125D01*
G37*
%LPD*%
%LPC*%
G36*
X397604Y117855D02*
X397604Y117855D01*
X395223Y120236D01*
X395223Y123604D01*
X397604Y125985D01*
X400972Y125985D01*
X403353Y123604D01*
X403353Y120236D01*
X400972Y117855D01*
X397604Y117855D01*
G37*
%LPD*%
%LPC*%
G36*
X113124Y456691D02*
X113124Y456691D01*
X110743Y459072D01*
X110743Y462440D01*
X113124Y464821D01*
X116492Y464821D01*
X118873Y462440D01*
X118873Y459072D01*
X116492Y456691D01*
X113124Y456691D01*
G37*
%LPD*%
%LPC*%
G36*
X487012Y105155D02*
X487012Y105155D01*
X484631Y107536D01*
X484631Y110904D01*
X487012Y113285D01*
X490380Y113285D01*
X492761Y110904D01*
X492761Y107536D01*
X490380Y105155D01*
X487012Y105155D01*
G37*
%LPD*%
%LPC*%
G36*
X397858Y102361D02*
X397858Y102361D01*
X395477Y104742D01*
X395477Y108110D01*
X397858Y110491D01*
X401226Y110491D01*
X403607Y108110D01*
X403607Y104742D01*
X401226Y102361D01*
X397858Y102361D01*
G37*
%LPD*%
%LPC*%
G36*
X427519Y453269D02*
X427519Y453269D01*
X425138Y455650D01*
X425138Y459018D01*
X427519Y461399D01*
X430886Y461399D01*
X433267Y459018D01*
X433267Y455650D01*
X430886Y453269D01*
X427519Y453269D01*
G37*
%LPD*%
%LPC*%
G36*
X113378Y98551D02*
X113378Y98551D01*
X110997Y100932D01*
X110997Y104300D01*
X113378Y106681D01*
X116746Y106681D01*
X119127Y104300D01*
X119127Y100932D01*
X116746Y98551D01*
X113378Y98551D01*
G37*
%LPD*%
%LPC*%
G36*
X417416Y97535D02*
X417416Y97535D01*
X415035Y99916D01*
X415035Y103284D01*
X417416Y105665D01*
X420784Y105665D01*
X423165Y103284D01*
X423165Y99916D01*
X420784Y97535D01*
X417416Y97535D01*
G37*
%LPD*%
%LPC*%
G36*
X147414Y93217D02*
X147414Y93217D01*
X145033Y95598D01*
X145033Y98966D01*
X147414Y101347D01*
X150782Y101347D01*
X153163Y98966D01*
X153163Y95598D01*
X150782Y93217D01*
X147414Y93217D01*
G37*
%LPD*%
%LPC*%
G36*
X486758Y81533D02*
X486758Y81533D01*
X484377Y83914D01*
X484377Y87282D01*
X486758Y89663D01*
X490126Y89663D01*
X492507Y87282D01*
X492507Y83914D01*
X490126Y81533D01*
X486758Y81533D01*
G37*
%LPD*%
%LPC*%
G36*
X392016Y81025D02*
X392016Y81025D01*
X389635Y83406D01*
X389635Y86774D01*
X392016Y89155D01*
X395384Y89155D01*
X397765Y86774D01*
X397765Y83406D01*
X395384Y81025D01*
X392016Y81025D01*
G37*
%LPD*%
%LPC*%
G36*
X433926Y80517D02*
X433926Y80517D01*
X431545Y82898D01*
X431545Y86266D01*
X433926Y88647D01*
X437294Y88647D01*
X439675Y86266D01*
X439675Y82898D01*
X437294Y80517D01*
X433926Y80517D01*
G37*
%LPD*%
%LPC*%
G36*
X359504Y77723D02*
X359504Y77723D01*
X357123Y80104D01*
X357123Y83472D01*
X359504Y85853D01*
X362872Y85853D01*
X365253Y83472D01*
X365253Y80104D01*
X362872Y77723D01*
X359504Y77723D01*
G37*
%LPD*%
%LPC*%
G36*
X341470Y72643D02*
X341470Y72643D01*
X339089Y75024D01*
X339089Y78392D01*
X341470Y80773D01*
X344838Y80773D01*
X347219Y78392D01*
X347219Y75024D01*
X344838Y72643D01*
X341470Y72643D01*
G37*
%LPD*%
%LPC*%
G36*
X72230Y446785D02*
X72230Y446785D01*
X69849Y449166D01*
X69849Y452534D01*
X72230Y454915D01*
X75598Y454915D01*
X77979Y452534D01*
X77979Y449166D01*
X75598Y446785D01*
X72230Y446785D01*
G37*
%LPD*%
%LPC*%
G36*
X214216Y72135D02*
X214216Y72135D01*
X211835Y74516D01*
X211835Y77884D01*
X214216Y80265D01*
X217584Y80265D01*
X219965Y77884D01*
X219965Y74516D01*
X217584Y72135D01*
X214216Y72135D01*
G37*
%LPD*%
%LPC*%
G36*
X315816Y445007D02*
X315816Y445007D01*
X313435Y447388D01*
X313435Y450756D01*
X315816Y453137D01*
X319184Y453137D01*
X321565Y450756D01*
X321565Y447388D01*
X319184Y445007D01*
X315816Y445007D01*
G37*
%LPD*%
%LPC*%
G36*
X374744Y66547D02*
X374744Y66547D01*
X372363Y68928D01*
X372363Y72296D01*
X374744Y74677D01*
X378112Y74677D01*
X380493Y72296D01*
X380493Y68928D01*
X378112Y66547D01*
X374744Y66547D01*
G37*
%LPD*%
%LPC*%
G36*
X328692Y66546D02*
X328692Y66546D01*
X326311Y68927D01*
X326311Y72294D01*
X328692Y74675D01*
X332060Y74675D01*
X334441Y72294D01*
X334441Y68927D01*
X332060Y66546D01*
X328692Y66546D01*
G37*
%LPD*%
%LPC*%
G36*
X181958Y66039D02*
X181958Y66039D01*
X179577Y68420D01*
X179577Y71788D01*
X181958Y74169D01*
X185326Y74169D01*
X187707Y71788D01*
X187707Y68420D01*
X185326Y66039D01*
X181958Y66039D01*
G37*
%LPD*%
%LPC*%
G36*
X434180Y65785D02*
X434180Y65785D01*
X431799Y68166D01*
X431799Y71534D01*
X434180Y73915D01*
X437548Y73915D01*
X439929Y71534D01*
X439929Y68166D01*
X437548Y65785D01*
X434180Y65785D01*
G37*
%LPD*%
%LPC*%
G36*
X107028Y440689D02*
X107028Y440689D01*
X104647Y443070D01*
X104647Y446438D01*
X107028Y448819D01*
X110396Y448819D01*
X112777Y446438D01*
X112777Y443070D01*
X110396Y440689D01*
X107028Y440689D01*
G37*
%LPD*%
%LPC*%
G36*
X30066Y60705D02*
X30066Y60705D01*
X27685Y63086D01*
X27685Y66454D01*
X30066Y68835D01*
X33434Y68835D01*
X35815Y66454D01*
X35815Y63086D01*
X33434Y60705D01*
X30066Y60705D01*
G37*
%LPD*%
%LPC*%
G36*
X109822Y58927D02*
X109822Y58927D01*
X107441Y61308D01*
X107441Y64676D01*
X109822Y67057D01*
X113190Y67057D01*
X115571Y64676D01*
X115571Y61308D01*
X113190Y58927D01*
X109822Y58927D01*
G37*
%LPD*%
%LPC*%
G36*
X71468Y421893D02*
X71468Y421893D01*
X69087Y424274D01*
X69087Y427642D01*
X71468Y430023D01*
X74836Y430023D01*
X77217Y427642D01*
X77217Y424274D01*
X74836Y421893D01*
X71468Y421893D01*
G37*
%LPD*%
%LPC*%
G36*
X133952Y419861D02*
X133952Y419861D01*
X131571Y422242D01*
X131571Y425610D01*
X133952Y427991D01*
X137320Y427991D01*
X139701Y425610D01*
X139701Y422242D01*
X137320Y419861D01*
X133952Y419861D01*
G37*
%LPD*%
%LPC*%
G36*
X372966Y416559D02*
X372966Y416559D01*
X370585Y418940D01*
X370585Y422308D01*
X372966Y424689D01*
X376334Y424689D01*
X378715Y422308D01*
X378715Y418940D01*
X376334Y416559D01*
X372966Y416559D01*
G37*
%LPD*%
%LPC*%
G36*
X506316Y46735D02*
X506316Y46735D01*
X503935Y49116D01*
X503935Y52484D01*
X506316Y54865D01*
X509684Y54865D01*
X512065Y52484D01*
X512065Y49116D01*
X509684Y46735D01*
X506316Y46735D01*
G37*
%LPD*%
%LPC*%
G36*
X156050Y391921D02*
X156050Y391921D01*
X153669Y394302D01*
X153669Y397670D01*
X156050Y400051D01*
X159418Y400051D01*
X161799Y397670D01*
X161799Y394302D01*
X159418Y391921D01*
X156050Y391921D01*
G37*
%LPD*%
%LPC*%
G36*
X379316Y382015D02*
X379316Y382015D01*
X376935Y384396D01*
X376935Y387764D01*
X379316Y390145D01*
X382684Y390145D01*
X385065Y387764D01*
X385065Y384396D01*
X382684Y382015D01*
X379316Y382015D01*
G37*
%LPD*%
%LPC*%
G36*
X66896Y376935D02*
X66896Y376935D01*
X64515Y379316D01*
X64515Y382684D01*
X66896Y385065D01*
X70264Y385065D01*
X72645Y382684D01*
X72645Y379316D01*
X70264Y376935D01*
X66896Y376935D01*
G37*
%LPD*%
%LPC*%
G36*
X425798Y376427D02*
X425798Y376427D01*
X423417Y378808D01*
X423417Y382176D01*
X425798Y384557D01*
X429166Y384557D01*
X431547Y382176D01*
X431547Y378808D01*
X429166Y376427D01*
X425798Y376427D01*
G37*
%LPD*%
%LPC*%
G36*
X30066Y37845D02*
X30066Y37845D01*
X27685Y40226D01*
X27685Y43594D01*
X30066Y45975D01*
X33434Y45975D01*
X35815Y43594D01*
X35815Y40226D01*
X33434Y37845D01*
X30066Y37845D01*
G37*
%LPD*%
%LPC*%
G36*
X110330Y35559D02*
X110330Y35559D01*
X107949Y37940D01*
X107949Y41308D01*
X110330Y43689D01*
X113698Y43689D01*
X116079Y41308D01*
X116079Y37940D01*
X113698Y35559D01*
X110330Y35559D01*
G37*
%LPD*%
%LPC*%
G36*
X131666Y375665D02*
X131666Y375665D01*
X129285Y378046D01*
X129285Y381414D01*
X131666Y383795D01*
X135034Y383795D01*
X137415Y381414D01*
X137415Y378046D01*
X135034Y375665D01*
X131666Y375665D01*
G37*
%LPD*%
%LPC*%
G36*
X156050Y28193D02*
X156050Y28193D01*
X153669Y30574D01*
X153669Y33942D01*
X156050Y36323D01*
X159418Y36323D01*
X161799Y33942D01*
X161799Y30574D01*
X159418Y28193D01*
X156050Y28193D01*
G37*
%LPD*%
%LPC*%
G36*
X402176Y26669D02*
X402176Y26669D01*
X399795Y29050D01*
X399795Y32418D01*
X402176Y34799D01*
X405544Y34799D01*
X407925Y32418D01*
X407925Y29050D01*
X405544Y26669D01*
X402176Y26669D01*
G37*
%LPD*%
%LPC*%
G36*
X480916Y8635D02*
X480916Y8635D01*
X478535Y11016D01*
X478535Y14384D01*
X480916Y16765D01*
X484284Y16765D01*
X486665Y14384D01*
X486665Y11016D01*
X484284Y8635D01*
X480916Y8635D01*
G37*
%LPD*%
%LPC*%
G36*
X366616Y8635D02*
X366616Y8635D01*
X364235Y11016D01*
X364235Y14384D01*
X366616Y16765D01*
X369984Y16765D01*
X372365Y14384D01*
X372365Y11016D01*
X369984Y8635D01*
X366616Y8635D01*
G37*
%LPD*%
%LPC*%
G36*
X315816Y8635D02*
X315816Y8635D01*
X313435Y11016D01*
X313435Y14384D01*
X315816Y16765D01*
X319184Y16765D01*
X321565Y14384D01*
X321565Y11016D01*
X319184Y8635D01*
X315816Y8635D01*
G37*
%LPD*%
%LPC*%
G36*
X277716Y8635D02*
X277716Y8635D01*
X275335Y11016D01*
X275335Y14384D01*
X277716Y16765D01*
X281084Y16765D01*
X283465Y14384D01*
X283465Y11016D01*
X281084Y8635D01*
X277716Y8635D01*
G37*
%LPD*%
%LPC*%
G36*
X239616Y8635D02*
X239616Y8635D01*
X237235Y11016D01*
X237235Y14384D01*
X239616Y16765D01*
X242984Y16765D01*
X245365Y14384D01*
X245365Y11016D01*
X242984Y8635D01*
X239616Y8635D01*
G37*
%LPD*%
%LPC*%
G36*
X188816Y8635D02*
X188816Y8635D01*
X186435Y11016D01*
X186435Y14384D01*
X188816Y16765D01*
X192184Y16765D01*
X194565Y14384D01*
X194565Y11016D01*
X192184Y8635D01*
X188816Y8635D01*
G37*
%LPD*%
%LPC*%
G36*
X49116Y8635D02*
X49116Y8635D01*
X46735Y11016D01*
X46735Y14384D01*
X49116Y16765D01*
X52484Y16765D01*
X54865Y14384D01*
X54865Y11016D01*
X52484Y8635D01*
X49116Y8635D01*
G37*
%LPD*%
%LPC*%
G36*
X428846Y7365D02*
X428846Y7365D01*
X426465Y9746D01*
X426465Y13114D01*
X428846Y15495D01*
X432214Y15495D01*
X434595Y13114D01*
X434595Y9746D01*
X432214Y7365D01*
X428846Y7365D01*
G37*
%LPD*%
%LPC*%
G36*
X218439Y492761D02*
X218439Y492761D01*
X225759Y492761D01*
X225316Y491400D01*
X224590Y489975D01*
X223650Y488681D01*
X222519Y487550D01*
X221225Y486610D01*
X219800Y485884D01*
X218439Y485441D01*
X218439Y492761D01*
G37*
%LPD*%
D10*
X68217Y397107D02*
X72380Y397107D01*
X72508Y397109D01*
X72636Y397115D01*
X72764Y397125D01*
X72892Y397139D01*
X73019Y397156D01*
X73145Y397178D01*
X73271Y397203D01*
X73395Y397233D01*
X73519Y397266D01*
X73642Y397303D01*
X73764Y397344D01*
X73884Y397388D01*
X74003Y397436D01*
X74120Y397488D01*
X74236Y397543D01*
X74349Y397602D01*
X74462Y397665D01*
X74572Y397731D01*
X74679Y397800D01*
X74785Y397872D01*
X74889Y397948D01*
X74990Y398027D01*
X75089Y398109D01*
X75185Y398194D01*
X75278Y398281D01*
X75369Y398372D01*
X75456Y398465D01*
X75541Y398561D01*
X75623Y398660D01*
X75702Y398761D01*
X75778Y398865D01*
X75850Y398971D01*
X75919Y399078D01*
X75985Y399189D01*
X76048Y399301D01*
X76107Y399414D01*
X76162Y399530D01*
X76214Y399647D01*
X76262Y399766D01*
X76306Y399886D01*
X76347Y400008D01*
X76384Y400131D01*
X76417Y400255D01*
X76447Y400379D01*
X76472Y400505D01*
X76494Y400631D01*
X76511Y400758D01*
X76525Y400886D01*
X76535Y401014D01*
X76541Y401142D01*
X76543Y401270D01*
X76541Y401398D01*
X76535Y401526D01*
X76525Y401654D01*
X76511Y401782D01*
X76494Y401909D01*
X76472Y402035D01*
X76447Y402161D01*
X76417Y402285D01*
X76384Y402409D01*
X76347Y402532D01*
X76306Y402654D01*
X76262Y402774D01*
X76214Y402893D01*
X76162Y403010D01*
X76107Y403126D01*
X76048Y403239D01*
X75985Y403352D01*
X75919Y403462D01*
X75850Y403569D01*
X75778Y403675D01*
X75702Y403779D01*
X75623Y403880D01*
X75541Y403979D01*
X75456Y404075D01*
X75369Y404168D01*
X75278Y404259D01*
X75185Y404346D01*
X75089Y404431D01*
X74990Y404513D01*
X74889Y404592D01*
X74785Y404668D01*
X74679Y404740D01*
X74572Y404809D01*
X74462Y404875D01*
X74349Y404938D01*
X74236Y404997D01*
X74120Y405052D01*
X74003Y405104D01*
X73884Y405152D01*
X73764Y405196D01*
X73642Y405237D01*
X73519Y405274D01*
X73395Y405307D01*
X73271Y405337D01*
X73145Y405362D01*
X73019Y405384D01*
X72892Y405401D01*
X72764Y405415D01*
X72636Y405425D01*
X72508Y405431D01*
X72380Y405433D01*
X73212Y412093D02*
X68217Y412093D01*
X73212Y412093D02*
X73326Y412091D01*
X73439Y412085D01*
X73553Y412076D01*
X73665Y412062D01*
X73778Y412045D01*
X73890Y412023D01*
X74000Y411998D01*
X74110Y411970D01*
X74219Y411937D01*
X74327Y411901D01*
X74434Y411861D01*
X74539Y411817D01*
X74642Y411770D01*
X74744Y411720D01*
X74844Y411666D01*
X74942Y411608D01*
X75038Y411547D01*
X75132Y411484D01*
X75224Y411416D01*
X75314Y411346D01*
X75400Y411273D01*
X75485Y411197D01*
X75567Y411118D01*
X75646Y411036D01*
X75722Y410951D01*
X75795Y410865D01*
X75865Y410775D01*
X75933Y410683D01*
X75996Y410589D01*
X76057Y410493D01*
X76115Y410395D01*
X76169Y410295D01*
X76219Y410193D01*
X76266Y410090D01*
X76310Y409985D01*
X76350Y409878D01*
X76386Y409770D01*
X76419Y409661D01*
X76447Y409551D01*
X76472Y409441D01*
X76494Y409329D01*
X76511Y409216D01*
X76525Y409104D01*
X76534Y408990D01*
X76540Y408877D01*
X76542Y408763D01*
X76540Y408649D01*
X76534Y408536D01*
X76525Y408422D01*
X76511Y408310D01*
X76494Y408197D01*
X76472Y408085D01*
X76447Y407975D01*
X76419Y407865D01*
X76386Y407756D01*
X76350Y407648D01*
X76310Y407541D01*
X76266Y407436D01*
X76219Y407333D01*
X76169Y407231D01*
X76115Y407131D01*
X76057Y407033D01*
X75996Y406937D01*
X75933Y406843D01*
X75865Y406751D01*
X75795Y406661D01*
X75722Y406575D01*
X75646Y406490D01*
X75567Y406408D01*
X75485Y406329D01*
X75400Y406253D01*
X75314Y406180D01*
X75224Y406110D01*
X75132Y406042D01*
X75038Y405979D01*
X74942Y405918D01*
X74844Y405860D01*
X74744Y405806D01*
X74642Y405756D01*
X74539Y405709D01*
X74434Y405665D01*
X74327Y405625D01*
X74219Y405589D01*
X74110Y405556D01*
X74000Y405528D01*
X73890Y405503D01*
X73778Y405481D01*
X73665Y405464D01*
X73553Y405450D01*
X73439Y405441D01*
X73326Y405435D01*
X73212Y405433D01*
X69882Y405433D01*
D11*
X342900Y495300D03*
X342900Y469900D03*
X342900Y444500D03*
X342900Y419100D03*
X342900Y393700D03*
X342900Y368300D03*
X342900Y342900D03*
X342900Y317500D03*
X342900Y292100D03*
X342900Y266700D03*
X215900Y495300D03*
X215900Y469900D03*
X215900Y444500D03*
X215900Y419100D03*
X215900Y393700D03*
X215900Y368300D03*
X215900Y342900D03*
X215900Y317500D03*
X215900Y292100D03*
X215900Y266700D03*
X508000Y241300D03*
X508000Y266700D03*
X508000Y292100D03*
X508000Y317500D03*
X508000Y342900D03*
X508000Y368300D03*
X508000Y419100D03*
X508000Y444500D03*
X508000Y469900D03*
X508000Y495300D03*
X508000Y520700D03*
X508000Y546100D03*
X25400Y546100D03*
X25400Y520700D03*
X25400Y495300D03*
X25400Y469900D03*
X25400Y444500D03*
X25400Y419100D03*
X25400Y393700D03*
X25400Y368300D03*
X25400Y330200D03*
X25400Y304800D03*
X25400Y279400D03*
X25400Y254000D03*
X25400Y228600D03*
X25400Y203200D03*
X25400Y177800D03*
X25400Y152400D03*
X25400Y127000D03*
X25400Y101600D03*
X508000Y215900D03*
X508000Y190500D03*
D12*
X114046Y147574D03*
X186690Y342900D03*
X210152Y160434D03*
X106680Y372110D03*
X103505Y310261D03*
X311150Y195580D03*
X328930Y195580D03*
X170180Y312420D03*
X287020Y179070D03*
X399288Y121920D03*
X84328Y461264D03*
X99568Y461010D03*
X114808Y460756D03*
X157734Y32258D03*
X112014Y39624D03*
X111506Y62992D03*
X172466Y458724D03*
X279400Y495300D03*
X482600Y12700D03*
X403860Y30734D03*
X279400Y12700D03*
X50800Y12700D03*
X247396Y144272D03*
X200660Y182118D03*
X218948Y150622D03*
X317500Y127000D03*
X241300Y127000D03*
X215900Y127000D03*
X182880Y123190D03*
X31750Y41910D03*
X183642Y70104D03*
X508000Y50800D03*
X138938Y149352D03*
X69596Y461518D03*
X311150Y205740D03*
X328930Y205740D03*
X127762Y461010D03*
X41656Y357124D03*
X180800Y362558D03*
X344424Y240538D03*
X488442Y85598D03*
X237236Y168402D03*
X243586Y214122D03*
X217932Y198374D03*
X394970Y292608D03*
X201930Y490220D03*
X457200Y495300D03*
X392430Y444500D03*
X386842Y360426D03*
X389890Y321310D03*
X392430Y401320D03*
X133350Y379730D03*
X68580Y381000D03*
X279400Y463550D03*
X525780Y384810D03*
X474726Y495300D03*
X491490Y500380D03*
X499110Y482600D03*
X231140Y476250D03*
X144526Y359918D03*
X172720Y335280D03*
X146958Y321156D03*
X71120Y237490D03*
X50800Y245110D03*
X45720Y264160D03*
X40132Y286512D03*
X50292Y193548D03*
X64770Y203200D03*
X64770Y177800D03*
X156210Y147320D03*
X146050Y481330D03*
X413766Y331470D03*
X359918Y321056D03*
X399542Y106426D03*
X361442Y498602D03*
X527050Y486918D03*
X306832Y71374D03*
X253492Y71120D03*
X100330Y165100D03*
X101600Y235204D03*
X204470Y284734D03*
X227584Y284988D03*
X204724Y335280D03*
X204470Y350266D03*
X317500Y449072D03*
X491490Y230886D03*
X356108Y285496D03*
X356870Y272034D03*
X178054Y235204D03*
X177800Y254000D03*
X97282Y293878D03*
X32512Y317754D03*
X38354Y209296D03*
X31750Y64770D03*
X62230Y66040D03*
X62230Y36830D03*
X170180Y164338D03*
X130810Y358394D03*
X115462Y291692D03*
X376428Y70612D03*
X322580Y304292D03*
X374650Y226568D03*
X342900Y127254D03*
X361188Y81788D03*
X372618Y150368D03*
X435610Y84582D03*
X435864Y69850D03*
X304546Y166878D03*
X322580Y178816D03*
X249936Y298704D03*
X489712Y423164D03*
X332994Y140970D03*
X365506Y180086D03*
X341884Y181610D03*
X452628Y140462D03*
X451612Y108458D03*
X488696Y109220D03*
X478282Y175260D03*
X490220Y258572D03*
X413766Y270002D03*
X108712Y444754D03*
X461264Y412242D03*
X439674Y480060D03*
X135636Y423926D03*
X263652Y258064D03*
X308864Y302260D03*
X233680Y346964D03*
X438150Y400558D03*
X230632Y373888D03*
X327660Y471170D03*
X366776Y465582D03*
X353314Y215392D03*
X416306Y493522D03*
X129540Y117094D03*
X122174Y39624D03*
X384810Y222504D03*
X59690Y494792D03*
X59690Y487680D03*
X129540Y261620D03*
X131318Y323342D03*
X297180Y294640D03*
X297180Y302260D03*
X297180Y309880D03*
X266700Y287020D03*
X438150Y472440D03*
X369570Y96520D03*
X406400Y43180D03*
X461010Y233680D03*
X429006Y123698D03*
X115062Y102616D03*
X149098Y97282D03*
X157734Y395986D03*
X89662Y294386D03*
X170180Y412100D03*
X69088Y66040D03*
X69850Y37084D03*
X359410Y459740D03*
X444500Y114300D03*
X429203Y457334D03*
X153416Y318008D03*
X394746Y283210D03*
X430530Y400050D03*
X120650Y340320D03*
X419100Y101600D03*
X413004Y321564D03*
X392684Y332100D03*
X426974Y412496D03*
X346202Y206248D03*
X401828Y362712D03*
X422910Y401066D03*
D13*
X354076Y379476D02*
X342900Y368300D01*
D12*
X408686Y132588D03*
X398018Y300228D03*
X374650Y420624D03*
X387350Y450850D03*
X124206Y353060D03*
X170180Y356870D03*
X470916Y180340D03*
X447010Y480060D03*
D14*
X421767Y289433D02*
X365760Y233426D01*
X365760Y193040D01*
X315214Y142494D01*
X290068Y142494D01*
D12*
X290068Y142494D03*
X480060Y349250D03*
D14*
X479806Y349504D02*
X453136Y349504D01*
X479806Y349504D02*
X480060Y349250D01*
D12*
X285750Y135890D03*
D14*
X285750Y138176D01*
X290068Y142494D01*
X421767Y289433D02*
X421767Y346075D01*
X425196Y349504D02*
X453136Y349504D01*
X425196Y349504D02*
X421767Y346075D01*
D12*
X427482Y380492D03*
X425196Y349504D03*
X523882Y161932D03*
X430530Y11430D03*
X439166Y420624D03*
D13*
X388366Y420624D01*
X385064Y423926D02*
X385064Y431546D01*
X383540Y433070D01*
X385064Y423926D02*
X388366Y420624D01*
D12*
X248158Y433070D03*
D13*
X383540Y433070D01*
D12*
X524764Y135890D03*
X343154Y76708D03*
X314706Y76200D03*
X330376Y70611D03*
X393700Y85090D03*
X317500Y12700D03*
X368300Y12700D03*
X217932Y181610D03*
X83820Y190500D03*
X139700Y190500D03*
X140570Y215500D03*
X83820Y215900D03*
X190500Y12700D03*
X241300Y12700D03*
X215900Y76200D03*
X244602Y75692D03*
X71120Y246380D03*
X476470Y469646D03*
X488950Y430396D03*
X247904Y159512D03*
X279400Y250190D03*
X73914Y450850D03*
X73152Y425958D03*
D13*
X88900Y406654D02*
X88900Y406400D01*
D12*
X88900Y406400D03*
X454152Y415544D03*
D13*
X443992Y415544D01*
X435102Y406654D01*
X88900Y406654D01*
D12*
X525780Y110744D03*
X459994Y339090D03*
X460248Y274066D03*
X381000Y292100D03*
X381000Y386080D03*
D13*
X279400Y304800D02*
X25400Y304800D01*
D12*
X483616Y417322D03*
D13*
X468884Y368300D02*
X381508Y368300D01*
X468884Y368300D02*
X483616Y383032D01*
X483616Y417322D01*
X330454Y355854D02*
X279400Y304800D01*
X330454Y355854D02*
X369062Y355854D01*
X381508Y368300D01*
M02*
