G04 EAGLE Gerber RS-274X export*
G75*
%MOMM*%
%FSLAX34Y34*%
%LPD*%
%INSoldermask Top*%
%IPPOS*%
%AMOC8*
5,1,8,0,0,1.08239X$1,22.5*%
G01*
%ADD10C,0.225588*%
%ADD11C,0.225369*%
%ADD12C,0.225400*%
%ADD13C,1.127000*%
%ADD14C,0.222250*%
%ADD15C,2.006600*%
%ADD16C,0.428259*%
%ADD17C,0.223409*%
%ADD18C,0.224509*%
%ADD19C,0.223519*%
%ADD20C,0.224709*%
%ADD21C,0.230578*%
%ADD22C,0.777000*%
%ADD23R,1.100000X0.400000*%
%ADD24C,0.977000*%
%ADD25C,0.227100*%
%ADD26C,0.228600*%
%ADD27C,0.239469*%

G36*
X260384Y42883D02*
X260384Y42883D01*
X260390Y42889D01*
X260395Y42885D01*
X261625Y43250D01*
X261630Y43257D01*
X261635Y43255D01*
X262754Y43885D01*
X262757Y43892D01*
X262763Y43891D01*
X263713Y44754D01*
X263714Y44762D01*
X263720Y44762D01*
X264454Y45815D01*
X264454Y45823D01*
X264459Y45825D01*
X264941Y47015D01*
X264939Y47020D01*
X264943Y47023D01*
X264942Y47024D01*
X264944Y47025D01*
X265149Y48292D01*
X265146Y48297D01*
X265149Y48300D01*
X265149Y60300D01*
X265146Y60304D01*
X265149Y60307D01*
X264994Y61429D01*
X264989Y61434D01*
X264992Y61438D01*
X264621Y62509D01*
X264615Y62513D01*
X264617Y62518D01*
X264044Y63495D01*
X264038Y63498D01*
X264039Y63503D01*
X263286Y64350D01*
X263279Y64352D01*
X263279Y64357D01*
X262376Y65041D01*
X262369Y65041D01*
X262368Y65046D01*
X261349Y65541D01*
X261342Y65539D01*
X261340Y65544D01*
X260243Y65831D01*
X260237Y65828D01*
X260234Y65832D01*
X259103Y65899D01*
X259097Y65899D01*
X257966Y65832D01*
X257961Y65827D01*
X257957Y65831D01*
X256860Y65544D01*
X256856Y65538D01*
X256851Y65541D01*
X255832Y65046D01*
X255829Y65040D01*
X255824Y65041D01*
X254921Y64357D01*
X254919Y64350D01*
X254914Y64350D01*
X254161Y63503D01*
X254161Y63496D01*
X254156Y63495D01*
X253583Y62518D01*
X253584Y62515D01*
X253583Y62514D01*
X253584Y62513D01*
X253584Y62511D01*
X253579Y62509D01*
X253208Y61438D01*
X253210Y61433D01*
X253207Y61431D01*
X253207Y61430D01*
X253206Y61429D01*
X253051Y60307D01*
X253054Y60302D01*
X253051Y60300D01*
X253051Y48300D01*
X253054Y48295D01*
X253051Y48292D01*
X253256Y47025D01*
X253262Y47019D01*
X253259Y47015D01*
X253741Y45825D01*
X253748Y45821D01*
X253746Y45815D01*
X254480Y44762D01*
X254488Y44760D01*
X254487Y44754D01*
X255437Y43891D01*
X255446Y43890D01*
X255446Y43885D01*
X256565Y43255D01*
X256573Y43256D01*
X256575Y43250D01*
X257805Y42885D01*
X257813Y42888D01*
X257816Y42883D01*
X259097Y42801D01*
X259101Y42804D01*
X259103Y42801D01*
X260384Y42883D01*
G37*
G36*
X300984Y42883D02*
X300984Y42883D01*
X300990Y42889D01*
X300995Y42885D01*
X302225Y43250D01*
X302230Y43257D01*
X302235Y43255D01*
X303354Y43885D01*
X303357Y43892D01*
X303363Y43891D01*
X304313Y44754D01*
X304314Y44762D01*
X304320Y44762D01*
X305054Y45815D01*
X305054Y45823D01*
X305059Y45825D01*
X305541Y47015D01*
X305539Y47020D01*
X305543Y47023D01*
X305542Y47024D01*
X305544Y47025D01*
X305749Y48292D01*
X305746Y48297D01*
X305749Y48300D01*
X305749Y60300D01*
X305746Y60304D01*
X305749Y60307D01*
X305594Y61429D01*
X305589Y61434D01*
X305592Y61438D01*
X305221Y62509D01*
X305215Y62513D01*
X305217Y62518D01*
X304644Y63495D01*
X304638Y63498D01*
X304639Y63503D01*
X303886Y64350D01*
X303879Y64352D01*
X303879Y64357D01*
X302976Y65041D01*
X302969Y65041D01*
X302968Y65046D01*
X301949Y65541D01*
X301942Y65539D01*
X301940Y65544D01*
X300843Y65831D01*
X300837Y65828D01*
X300834Y65832D01*
X299703Y65899D01*
X299697Y65899D01*
X298566Y65832D01*
X298561Y65827D01*
X298557Y65831D01*
X297460Y65544D01*
X297456Y65538D01*
X297451Y65541D01*
X296432Y65046D01*
X296429Y65040D01*
X296424Y65041D01*
X295521Y64357D01*
X295519Y64350D01*
X295514Y64350D01*
X294761Y63503D01*
X294761Y63496D01*
X294756Y63495D01*
X294183Y62518D01*
X294184Y62515D01*
X294183Y62514D01*
X294184Y62513D01*
X294184Y62511D01*
X294179Y62509D01*
X293808Y61438D01*
X293810Y61433D01*
X293807Y61431D01*
X293807Y61430D01*
X293806Y61429D01*
X293651Y60307D01*
X293654Y60302D01*
X293651Y60300D01*
X293651Y48300D01*
X293654Y48295D01*
X293651Y48292D01*
X293856Y47025D01*
X293862Y47019D01*
X293859Y47015D01*
X294341Y45825D01*
X294348Y45821D01*
X294346Y45815D01*
X295080Y44762D01*
X295088Y44760D01*
X295087Y44754D01*
X296037Y43891D01*
X296046Y43890D01*
X296046Y43885D01*
X297165Y43255D01*
X297173Y43256D01*
X297175Y43250D01*
X298405Y42885D01*
X298413Y42888D01*
X298416Y42883D01*
X299697Y42801D01*
X299701Y42804D01*
X299703Y42801D01*
X300984Y42883D01*
G37*
G36*
X387384Y42883D02*
X387384Y42883D01*
X387390Y42889D01*
X387395Y42885D01*
X388625Y43250D01*
X388630Y43257D01*
X388635Y43255D01*
X389754Y43885D01*
X389757Y43892D01*
X389763Y43891D01*
X390713Y44754D01*
X390714Y44762D01*
X390720Y44762D01*
X391454Y45815D01*
X391454Y45823D01*
X391459Y45825D01*
X391941Y47015D01*
X391939Y47020D01*
X391943Y47023D01*
X391942Y47024D01*
X391944Y47025D01*
X392149Y48292D01*
X392146Y48297D01*
X392149Y48300D01*
X392149Y60300D01*
X392146Y60304D01*
X392149Y60307D01*
X391994Y61429D01*
X391989Y61434D01*
X391992Y61438D01*
X391621Y62509D01*
X391615Y62513D01*
X391617Y62518D01*
X391044Y63495D01*
X391038Y63498D01*
X391039Y63503D01*
X390286Y64350D01*
X390279Y64352D01*
X390279Y64357D01*
X389376Y65041D01*
X389369Y65041D01*
X389368Y65046D01*
X388349Y65541D01*
X388342Y65539D01*
X388340Y65544D01*
X387243Y65831D01*
X387237Y65828D01*
X387234Y65832D01*
X386103Y65899D01*
X386097Y65899D01*
X384966Y65832D01*
X384961Y65827D01*
X384957Y65831D01*
X383860Y65544D01*
X383856Y65538D01*
X383851Y65541D01*
X382832Y65046D01*
X382829Y65040D01*
X382824Y65041D01*
X381921Y64357D01*
X381919Y64350D01*
X381914Y64350D01*
X381161Y63503D01*
X381161Y63496D01*
X381156Y63495D01*
X380583Y62518D01*
X380584Y62515D01*
X380583Y62514D01*
X380584Y62513D01*
X380584Y62511D01*
X380579Y62509D01*
X380208Y61438D01*
X380210Y61433D01*
X380207Y61431D01*
X380207Y61430D01*
X380206Y61429D01*
X380051Y60307D01*
X380054Y60302D01*
X380051Y60300D01*
X380051Y48300D01*
X380054Y48295D01*
X380051Y48292D01*
X380256Y47025D01*
X380262Y47019D01*
X380259Y47015D01*
X380741Y45825D01*
X380748Y45821D01*
X380746Y45815D01*
X381480Y44762D01*
X381488Y44760D01*
X381487Y44754D01*
X382437Y43891D01*
X382446Y43890D01*
X382446Y43885D01*
X383565Y43255D01*
X383573Y43256D01*
X383575Y43250D01*
X384805Y42885D01*
X384813Y42888D01*
X384816Y42883D01*
X386097Y42801D01*
X386101Y42804D01*
X386103Y42801D01*
X387384Y42883D01*
G37*
G36*
X173984Y42883D02*
X173984Y42883D01*
X173990Y42889D01*
X173995Y42885D01*
X175225Y43250D01*
X175230Y43257D01*
X175235Y43255D01*
X176354Y43885D01*
X176357Y43892D01*
X176363Y43891D01*
X177313Y44754D01*
X177314Y44762D01*
X177320Y44762D01*
X178054Y45815D01*
X178054Y45823D01*
X178059Y45825D01*
X178541Y47015D01*
X178539Y47020D01*
X178543Y47023D01*
X178542Y47024D01*
X178544Y47025D01*
X178749Y48292D01*
X178746Y48297D01*
X178749Y48300D01*
X178749Y60300D01*
X178746Y60304D01*
X178749Y60307D01*
X178594Y61429D01*
X178589Y61434D01*
X178592Y61438D01*
X178221Y62509D01*
X178215Y62513D01*
X178217Y62518D01*
X177644Y63495D01*
X177638Y63498D01*
X177639Y63503D01*
X176886Y64350D01*
X176879Y64352D01*
X176879Y64357D01*
X175976Y65041D01*
X175969Y65041D01*
X175968Y65046D01*
X174949Y65541D01*
X174942Y65539D01*
X174940Y65544D01*
X173843Y65831D01*
X173837Y65828D01*
X173834Y65832D01*
X172703Y65899D01*
X172697Y65899D01*
X171566Y65832D01*
X171561Y65827D01*
X171557Y65831D01*
X170460Y65544D01*
X170456Y65538D01*
X170451Y65541D01*
X169432Y65046D01*
X169429Y65040D01*
X169424Y65041D01*
X168521Y64357D01*
X168519Y64350D01*
X168514Y64350D01*
X167761Y63503D01*
X167761Y63496D01*
X167756Y63495D01*
X167183Y62518D01*
X167184Y62515D01*
X167183Y62514D01*
X167184Y62513D01*
X167184Y62511D01*
X167179Y62509D01*
X166808Y61438D01*
X166810Y61433D01*
X166807Y61431D01*
X166807Y61430D01*
X166806Y61429D01*
X166651Y60307D01*
X166654Y60302D01*
X166651Y60300D01*
X166651Y48300D01*
X166654Y48295D01*
X166651Y48292D01*
X166856Y47025D01*
X166862Y47019D01*
X166859Y47015D01*
X167341Y45825D01*
X167348Y45821D01*
X167346Y45815D01*
X168080Y44762D01*
X168088Y44760D01*
X168087Y44754D01*
X169037Y43891D01*
X169046Y43890D01*
X169046Y43885D01*
X170165Y43255D01*
X170173Y43256D01*
X170175Y43250D01*
X171405Y42885D01*
X171413Y42888D01*
X171416Y42883D01*
X172697Y42801D01*
X172701Y42804D01*
X172703Y42801D01*
X173984Y42883D01*
G37*
G36*
X300871Y3611D02*
X300871Y3611D01*
X300876Y3616D01*
X300880Y3613D01*
X302003Y3948D01*
X302007Y3954D01*
X302011Y3952D01*
X303047Y4500D01*
X303050Y4506D01*
X303055Y4505D01*
X303963Y5244D01*
X303965Y5251D01*
X303970Y5251D01*
X304717Y6153D01*
X304717Y6161D01*
X304723Y6161D01*
X305279Y7192D01*
X305278Y7199D01*
X305283Y7201D01*
X305627Y8320D01*
X305625Y8327D01*
X305629Y8330D01*
X305749Y9495D01*
X305747Y9498D01*
X305749Y9500D01*
X305749Y15500D01*
X305747Y15503D01*
X305749Y15505D01*
X305638Y16681D01*
X305633Y16686D01*
X305636Y16690D01*
X305298Y17822D01*
X305292Y17826D01*
X305294Y17831D01*
X304742Y18875D01*
X304735Y18878D01*
X304737Y18883D01*
X303991Y19799D01*
X303984Y19800D01*
X303984Y19806D01*
X303075Y20559D01*
X303067Y20559D01*
X303067Y20564D01*
X302027Y21125D01*
X302020Y21124D01*
X302018Y21129D01*
X300889Y21476D01*
X300883Y21474D01*
X300880Y21478D01*
X299705Y21599D01*
X299698Y21595D01*
X299694Y21599D01*
X298354Y21442D01*
X298348Y21437D01*
X298343Y21440D01*
X297072Y20989D01*
X297067Y20982D01*
X297062Y20984D01*
X295923Y20262D01*
X295920Y20254D01*
X295914Y20255D01*
X294964Y19297D01*
X294963Y19289D01*
X294957Y19288D01*
X294244Y18143D01*
X294245Y18135D01*
X294239Y18133D01*
X293799Y16857D01*
X293801Y16850D01*
X293797Y16847D01*
X293651Y15505D01*
X293653Y15502D01*
X293651Y15500D01*
X293651Y9500D01*
X293653Y9497D01*
X293651Y9494D01*
X293806Y8165D01*
X293812Y8159D01*
X293809Y8155D01*
X294256Y6894D01*
X294263Y6889D01*
X294261Y6884D01*
X294978Y5754D01*
X294985Y5751D01*
X294984Y5745D01*
X295935Y4803D01*
X295943Y4802D01*
X295943Y4796D01*
X297079Y4089D01*
X297087Y4090D01*
X297089Y4084D01*
X298354Y3648D01*
X298359Y3649D01*
X298360Y3649D01*
X298363Y3649D01*
X298365Y3645D01*
X299695Y3501D01*
X299701Y3505D01*
X299705Y3501D01*
X300871Y3611D01*
G37*
G36*
X173871Y3611D02*
X173871Y3611D01*
X173876Y3616D01*
X173880Y3613D01*
X175003Y3948D01*
X175007Y3954D01*
X175011Y3952D01*
X176047Y4500D01*
X176050Y4506D01*
X176055Y4505D01*
X176963Y5244D01*
X176965Y5251D01*
X176970Y5251D01*
X177717Y6153D01*
X177717Y6161D01*
X177723Y6161D01*
X178279Y7192D01*
X178278Y7199D01*
X178283Y7201D01*
X178627Y8320D01*
X178625Y8327D01*
X178629Y8330D01*
X178749Y9495D01*
X178747Y9498D01*
X178749Y9500D01*
X178749Y15500D01*
X178747Y15503D01*
X178749Y15505D01*
X178638Y16681D01*
X178633Y16686D01*
X178636Y16690D01*
X178298Y17822D01*
X178292Y17826D01*
X178294Y17831D01*
X177742Y18875D01*
X177735Y18878D01*
X177737Y18883D01*
X176991Y19799D01*
X176984Y19800D01*
X176984Y19806D01*
X176075Y20559D01*
X176067Y20559D01*
X176067Y20564D01*
X175027Y21125D01*
X175020Y21124D01*
X175018Y21129D01*
X173889Y21476D01*
X173883Y21474D01*
X173880Y21478D01*
X172705Y21599D01*
X172698Y21595D01*
X172694Y21599D01*
X171354Y21442D01*
X171348Y21437D01*
X171343Y21440D01*
X170072Y20989D01*
X170067Y20982D01*
X170062Y20984D01*
X168923Y20262D01*
X168920Y20254D01*
X168914Y20255D01*
X167964Y19297D01*
X167963Y19289D01*
X167957Y19288D01*
X167244Y18143D01*
X167245Y18135D01*
X167239Y18133D01*
X166799Y16857D01*
X166801Y16850D01*
X166797Y16847D01*
X166651Y15505D01*
X166653Y15502D01*
X166651Y15500D01*
X166651Y9500D01*
X166653Y9497D01*
X166651Y9494D01*
X166806Y8165D01*
X166812Y8159D01*
X166809Y8155D01*
X167256Y6894D01*
X167263Y6889D01*
X167261Y6884D01*
X167978Y5754D01*
X167985Y5751D01*
X167984Y5745D01*
X168935Y4803D01*
X168943Y4802D01*
X168943Y4796D01*
X170079Y4089D01*
X170087Y4090D01*
X170089Y4084D01*
X171354Y3648D01*
X171359Y3649D01*
X171360Y3649D01*
X171363Y3649D01*
X171365Y3645D01*
X172695Y3501D01*
X172701Y3505D01*
X172705Y3501D01*
X173871Y3611D01*
G37*
G36*
X260271Y3611D02*
X260271Y3611D01*
X260276Y3616D01*
X260280Y3613D01*
X261403Y3948D01*
X261407Y3954D01*
X261411Y3952D01*
X262447Y4500D01*
X262450Y4506D01*
X262455Y4505D01*
X263363Y5244D01*
X263365Y5251D01*
X263370Y5251D01*
X264117Y6153D01*
X264117Y6161D01*
X264123Y6161D01*
X264679Y7192D01*
X264678Y7199D01*
X264683Y7201D01*
X265027Y8320D01*
X265025Y8327D01*
X265029Y8330D01*
X265149Y9495D01*
X265147Y9498D01*
X265149Y9500D01*
X265149Y15500D01*
X265147Y15503D01*
X265149Y15505D01*
X265038Y16681D01*
X265033Y16686D01*
X265036Y16690D01*
X264698Y17822D01*
X264692Y17826D01*
X264694Y17831D01*
X264142Y18875D01*
X264135Y18878D01*
X264137Y18883D01*
X263391Y19799D01*
X263384Y19800D01*
X263384Y19806D01*
X262475Y20559D01*
X262467Y20559D01*
X262467Y20564D01*
X261427Y21125D01*
X261420Y21124D01*
X261418Y21129D01*
X260289Y21476D01*
X260283Y21474D01*
X260280Y21478D01*
X259105Y21599D01*
X259098Y21595D01*
X259094Y21599D01*
X257754Y21442D01*
X257748Y21437D01*
X257743Y21440D01*
X256472Y20989D01*
X256467Y20982D01*
X256462Y20984D01*
X255323Y20262D01*
X255320Y20254D01*
X255314Y20255D01*
X254364Y19297D01*
X254363Y19289D01*
X254357Y19288D01*
X253644Y18143D01*
X253645Y18135D01*
X253639Y18133D01*
X253199Y16857D01*
X253201Y16850D01*
X253197Y16847D01*
X253051Y15505D01*
X253053Y15502D01*
X253051Y15500D01*
X253051Y9500D01*
X253053Y9497D01*
X253051Y9494D01*
X253206Y8165D01*
X253212Y8159D01*
X253209Y8155D01*
X253656Y6894D01*
X253663Y6889D01*
X253661Y6884D01*
X254378Y5754D01*
X254385Y5751D01*
X254384Y5745D01*
X255335Y4803D01*
X255343Y4802D01*
X255343Y4796D01*
X256479Y4089D01*
X256487Y4090D01*
X256489Y4084D01*
X257754Y3648D01*
X257759Y3649D01*
X257760Y3649D01*
X257763Y3649D01*
X257765Y3645D01*
X259095Y3501D01*
X259101Y3505D01*
X259105Y3501D01*
X260271Y3611D01*
G37*
G36*
X387271Y3611D02*
X387271Y3611D01*
X387276Y3616D01*
X387280Y3613D01*
X388403Y3948D01*
X388407Y3954D01*
X388411Y3952D01*
X389447Y4500D01*
X389450Y4506D01*
X389455Y4505D01*
X390363Y5244D01*
X390365Y5251D01*
X390370Y5251D01*
X391117Y6153D01*
X391117Y6161D01*
X391123Y6161D01*
X391679Y7192D01*
X391678Y7199D01*
X391683Y7201D01*
X392027Y8320D01*
X392025Y8327D01*
X392029Y8330D01*
X392149Y9495D01*
X392147Y9498D01*
X392149Y9500D01*
X392149Y15500D01*
X392147Y15503D01*
X392149Y15505D01*
X392038Y16681D01*
X392033Y16686D01*
X392036Y16690D01*
X391698Y17822D01*
X391692Y17826D01*
X391694Y17831D01*
X391142Y18875D01*
X391135Y18878D01*
X391137Y18883D01*
X390391Y19799D01*
X390384Y19800D01*
X390384Y19806D01*
X389475Y20559D01*
X389467Y20559D01*
X389467Y20564D01*
X388427Y21125D01*
X388420Y21124D01*
X388418Y21129D01*
X387289Y21476D01*
X387283Y21474D01*
X387280Y21478D01*
X386105Y21599D01*
X386098Y21595D01*
X386094Y21599D01*
X384754Y21442D01*
X384748Y21437D01*
X384743Y21440D01*
X383472Y20989D01*
X383467Y20982D01*
X383462Y20984D01*
X382323Y20262D01*
X382320Y20254D01*
X382314Y20255D01*
X381364Y19297D01*
X381363Y19289D01*
X381357Y19288D01*
X380644Y18143D01*
X380645Y18135D01*
X380639Y18133D01*
X380199Y16857D01*
X380201Y16850D01*
X380197Y16847D01*
X380051Y15505D01*
X380053Y15502D01*
X380051Y15500D01*
X380051Y9500D01*
X380053Y9497D01*
X380051Y9494D01*
X380206Y8165D01*
X380212Y8159D01*
X380209Y8155D01*
X380656Y6894D01*
X380663Y6889D01*
X380661Y6884D01*
X381378Y5754D01*
X381385Y5751D01*
X381384Y5745D01*
X382335Y4803D01*
X382343Y4802D01*
X382343Y4796D01*
X383479Y4089D01*
X383487Y4090D01*
X383489Y4084D01*
X384754Y3648D01*
X384759Y3649D01*
X384760Y3649D01*
X384763Y3649D01*
X384765Y3645D01*
X386095Y3501D01*
X386101Y3505D01*
X386105Y3501D01*
X387271Y3611D01*
G37*
G36*
X74504Y323254D02*
X74504Y323254D01*
X74507Y323251D01*
X75043Y323328D01*
X75050Y323335D01*
X75056Y323332D01*
X75554Y323545D01*
X75558Y323553D01*
X75565Y323552D01*
X75990Y323887D01*
X75993Y323896D01*
X75999Y323896D01*
X76324Y324330D01*
X76324Y324339D01*
X76330Y324341D01*
X76532Y324844D01*
X76529Y324853D01*
X76535Y324856D01*
X76599Y325394D01*
X76595Y325402D01*
X76599Y325406D01*
X76535Y325944D01*
X76528Y325951D01*
X76532Y325956D01*
X76330Y326459D01*
X76322Y326464D01*
X76324Y326470D01*
X75999Y326904D01*
X75990Y326907D01*
X75990Y326913D01*
X75565Y327248D01*
X75555Y327248D01*
X75554Y327255D01*
X75056Y327468D01*
X75046Y327466D01*
X75043Y327472D01*
X74507Y327549D01*
X74502Y327546D01*
X74500Y327549D01*
X66750Y327499D01*
X66703Y327463D01*
X66708Y327456D01*
X66701Y327450D01*
X66701Y323300D01*
X66737Y323253D01*
X66744Y323258D01*
X66750Y323251D01*
X74500Y323251D01*
X74504Y323254D01*
G37*
G36*
X479350Y409101D02*
X479350Y409101D01*
X479398Y409137D01*
X479392Y409144D01*
X479399Y409150D01*
X479399Y413300D01*
X479363Y413347D01*
X479356Y413342D01*
X479350Y413349D01*
X471600Y413349D01*
X471596Y413346D01*
X471593Y413349D01*
X471057Y413272D01*
X471050Y413265D01*
X471044Y413268D01*
X470546Y413055D01*
X470542Y413047D01*
X470535Y413048D01*
X470110Y412713D01*
X470107Y412704D01*
X470101Y412704D01*
X469776Y412270D01*
X469776Y412261D01*
X469770Y412259D01*
X469569Y411756D01*
X469571Y411747D01*
X469565Y411744D01*
X469501Y411206D01*
X469505Y411198D01*
X469501Y411194D01*
X469565Y410656D01*
X469572Y410649D01*
X469569Y410644D01*
X469770Y410141D01*
X469778Y410136D01*
X469776Y410130D01*
X470101Y409696D01*
X470110Y409693D01*
X470110Y409687D01*
X470535Y409352D01*
X470545Y409352D01*
X470546Y409345D01*
X471044Y409132D01*
X471054Y409134D01*
X471057Y409128D01*
X471593Y409051D01*
X471598Y409054D01*
X471600Y409051D01*
X479350Y409101D01*
G37*
G36*
X479397Y404137D02*
X479397Y404137D01*
X479392Y404144D01*
X479399Y404150D01*
X479399Y408250D01*
X479363Y408297D01*
X479356Y408292D01*
X479350Y408299D01*
X471600Y408349D01*
X471596Y408346D01*
X471593Y408349D01*
X471057Y408272D01*
X471050Y408265D01*
X471044Y408268D01*
X470546Y408055D01*
X470542Y408047D01*
X470535Y408048D01*
X470110Y407713D01*
X470107Y407704D01*
X470101Y407704D01*
X469776Y407270D01*
X469776Y407261D01*
X469770Y407259D01*
X469569Y406756D01*
X469571Y406747D01*
X469565Y406744D01*
X469501Y406206D01*
X469506Y406198D01*
X469501Y406194D01*
X469571Y405663D01*
X469578Y405656D01*
X469574Y405651D01*
X469779Y405156D01*
X469787Y405151D01*
X469786Y405145D01*
X470111Y404720D01*
X470121Y404718D01*
X470120Y404711D01*
X470545Y404386D01*
X470555Y404386D01*
X470556Y404379D01*
X471051Y404174D01*
X471060Y404177D01*
X471063Y404171D01*
X471594Y404101D01*
X471598Y404104D01*
X471600Y404101D01*
X479350Y404101D01*
X479397Y404137D01*
G37*
G36*
X74504Y328254D02*
X74504Y328254D01*
X74507Y328251D01*
X75043Y328328D01*
X75050Y328335D01*
X75056Y328332D01*
X75554Y328545D01*
X75558Y328553D01*
X75565Y328552D01*
X75990Y328887D01*
X75993Y328896D01*
X75999Y328896D01*
X76324Y329330D01*
X76324Y329339D01*
X76330Y329341D01*
X76532Y329844D01*
X76529Y329853D01*
X76535Y329856D01*
X76599Y330394D01*
X76594Y330402D01*
X76599Y330406D01*
X76529Y330937D01*
X76522Y330944D01*
X76526Y330949D01*
X76321Y331444D01*
X76313Y331449D01*
X76314Y331455D01*
X75989Y331880D01*
X75980Y331882D01*
X75980Y331889D01*
X75555Y332214D01*
X75546Y332214D01*
X75544Y332221D01*
X75049Y332426D01*
X75040Y332423D01*
X75037Y332429D01*
X74506Y332499D01*
X74502Y332496D01*
X74500Y332499D01*
X66750Y332499D01*
X66703Y332463D01*
X66708Y332456D01*
X66701Y332450D01*
X66701Y328350D01*
X66737Y328303D01*
X66744Y328308D01*
X66750Y328301D01*
X74500Y328251D01*
X74504Y328254D01*
G37*
G36*
X442854Y399104D02*
X442854Y399104D01*
X442857Y399101D01*
X443380Y399177D01*
X443387Y399183D01*
X443393Y399180D01*
X443879Y399389D01*
X443883Y399397D01*
X443890Y399395D01*
X444305Y399722D01*
X444307Y399731D01*
X444314Y399731D01*
X444631Y400155D01*
X444631Y400164D01*
X444637Y400166D01*
X444833Y400657D01*
X444832Y400661D01*
X444835Y400663D01*
X444832Y400667D01*
X444836Y400669D01*
X444899Y401194D01*
X444894Y401202D01*
X444899Y401206D01*
X444829Y401737D01*
X444822Y401744D01*
X444826Y401749D01*
X444621Y402244D01*
X444613Y402249D01*
X444614Y402255D01*
X444289Y402680D01*
X444280Y402682D01*
X444280Y402689D01*
X443855Y403014D01*
X443846Y403014D01*
X443844Y403021D01*
X443349Y403226D01*
X443340Y403223D01*
X443337Y403229D01*
X442806Y403299D01*
X442802Y403296D01*
X442800Y403299D01*
X435050Y403299D01*
X435003Y403263D01*
X435008Y403256D01*
X435001Y403250D01*
X435001Y399150D01*
X435037Y399103D01*
X435044Y399108D01*
X435050Y399101D01*
X442850Y399101D01*
X442854Y399104D01*
G37*
G36*
X111097Y333337D02*
X111097Y333337D01*
X111092Y333344D01*
X111099Y333350D01*
X111099Y337450D01*
X111063Y337497D01*
X111056Y337492D01*
X111050Y337499D01*
X103250Y337499D01*
X103246Y337496D01*
X103243Y337499D01*
X102720Y337423D01*
X102713Y337417D01*
X102707Y337420D01*
X102221Y337211D01*
X102217Y337203D01*
X102210Y337205D01*
X101795Y336878D01*
X101793Y336869D01*
X101786Y336869D01*
X101469Y336445D01*
X101469Y336436D01*
X101463Y336434D01*
X101267Y335943D01*
X101269Y335934D01*
X101264Y335931D01*
X101201Y335406D01*
X101206Y335398D01*
X101201Y335394D01*
X101271Y334863D01*
X101278Y334856D01*
X101274Y334851D01*
X101479Y334356D01*
X101487Y334351D01*
X101486Y334345D01*
X101811Y333920D01*
X101821Y333918D01*
X101820Y333911D01*
X102245Y333586D01*
X102255Y333586D01*
X102256Y333579D01*
X102751Y333374D01*
X102760Y333377D01*
X102763Y333371D01*
X103294Y333301D01*
X103298Y333304D01*
X103300Y333301D01*
X111050Y333301D01*
X111097Y333337D01*
G37*
G36*
X451797Y366537D02*
X451797Y366537D01*
X451792Y366544D01*
X451799Y366550D01*
X451799Y374300D01*
X451796Y374304D01*
X451799Y374306D01*
X451729Y374837D01*
X451722Y374844D01*
X451726Y374849D01*
X451521Y375344D01*
X451513Y375349D01*
X451514Y375355D01*
X451189Y375780D01*
X451180Y375782D01*
X451180Y375789D01*
X450755Y376114D01*
X450746Y376114D01*
X450744Y376121D01*
X450249Y376326D01*
X450240Y376323D01*
X450237Y376329D01*
X449706Y376399D01*
X449698Y376394D01*
X449694Y376399D01*
X449163Y376329D01*
X449156Y376322D01*
X449151Y376326D01*
X448656Y376121D01*
X448651Y376113D01*
X448645Y376114D01*
X448220Y375789D01*
X448218Y375780D01*
X448211Y375780D01*
X447886Y375355D01*
X447886Y375346D01*
X447879Y375344D01*
X447674Y374849D01*
X447677Y374841D01*
X447672Y374837D01*
X447671Y374837D01*
X447601Y374306D01*
X447604Y374302D01*
X447601Y374300D01*
X447601Y366550D01*
X447637Y366503D01*
X447644Y366508D01*
X447650Y366501D01*
X451750Y366501D01*
X451797Y366537D01*
G37*
G36*
X83497Y315737D02*
X83497Y315737D01*
X83492Y315744D01*
X83499Y315750D01*
X83499Y323500D01*
X83496Y323504D01*
X83499Y323506D01*
X83429Y324037D01*
X83422Y324044D01*
X83426Y324049D01*
X83221Y324544D01*
X83213Y324549D01*
X83214Y324555D01*
X82889Y324980D01*
X82880Y324982D01*
X82880Y324989D01*
X82455Y325314D01*
X82446Y325314D01*
X82444Y325321D01*
X81949Y325526D01*
X81940Y325523D01*
X81937Y325529D01*
X81406Y325599D01*
X81398Y325594D01*
X81394Y325599D01*
X80863Y325529D01*
X80856Y325522D01*
X80851Y325526D01*
X80356Y325321D01*
X80351Y325313D01*
X80345Y325314D01*
X79920Y324989D01*
X79918Y324980D01*
X79911Y324980D01*
X79586Y324555D01*
X79586Y324546D01*
X79579Y324544D01*
X79374Y324049D01*
X79377Y324041D01*
X79372Y324037D01*
X79371Y324037D01*
X79301Y323506D01*
X79304Y323502D01*
X79301Y323500D01*
X79301Y315750D01*
X79337Y315703D01*
X79344Y315708D01*
X79350Y315701D01*
X83450Y315701D01*
X83497Y315737D01*
G37*
G36*
X466797Y366537D02*
X466797Y366537D01*
X466792Y366544D01*
X466799Y366550D01*
X466799Y374300D01*
X466796Y374304D01*
X466799Y374306D01*
X466729Y374837D01*
X466722Y374844D01*
X466726Y374849D01*
X466521Y375344D01*
X466513Y375349D01*
X466514Y375355D01*
X466189Y375780D01*
X466180Y375782D01*
X466180Y375789D01*
X465755Y376114D01*
X465746Y376114D01*
X465744Y376121D01*
X465249Y376326D01*
X465240Y376323D01*
X465237Y376329D01*
X464706Y376399D01*
X464698Y376394D01*
X464694Y376399D01*
X464163Y376329D01*
X464156Y376322D01*
X464151Y376326D01*
X463656Y376121D01*
X463651Y376113D01*
X463645Y376114D01*
X463220Y375789D01*
X463218Y375780D01*
X463211Y375780D01*
X462886Y375355D01*
X462886Y375346D01*
X462879Y375344D01*
X462674Y374849D01*
X462677Y374841D01*
X462672Y374837D01*
X462671Y374837D01*
X462601Y374306D01*
X462604Y374302D01*
X462601Y374300D01*
X462601Y366550D01*
X462637Y366503D01*
X462644Y366508D01*
X462650Y366501D01*
X466750Y366501D01*
X466797Y366537D01*
G37*
G36*
X98497Y315737D02*
X98497Y315737D01*
X98492Y315744D01*
X98499Y315750D01*
X98499Y323500D01*
X98496Y323504D01*
X98499Y323506D01*
X98429Y324037D01*
X98422Y324044D01*
X98426Y324049D01*
X98221Y324544D01*
X98213Y324549D01*
X98214Y324555D01*
X97889Y324980D01*
X97880Y324982D01*
X97880Y324989D01*
X97455Y325314D01*
X97446Y325314D01*
X97444Y325321D01*
X96949Y325526D01*
X96940Y325523D01*
X96937Y325529D01*
X96406Y325599D01*
X96398Y325594D01*
X96394Y325599D01*
X95863Y325529D01*
X95856Y325522D01*
X95851Y325526D01*
X95356Y325321D01*
X95351Y325313D01*
X95345Y325314D01*
X94920Y324989D01*
X94918Y324980D01*
X94911Y324980D01*
X94586Y324555D01*
X94586Y324546D01*
X94579Y324544D01*
X94374Y324049D01*
X94377Y324041D01*
X94372Y324037D01*
X94371Y324037D01*
X94301Y323506D01*
X94304Y323502D01*
X94301Y323500D01*
X94301Y315750D01*
X94337Y315703D01*
X94344Y315708D01*
X94350Y315701D01*
X98450Y315701D01*
X98497Y315737D01*
G37*
G36*
X442804Y384104D02*
X442804Y384104D01*
X442806Y384101D01*
X443337Y384171D01*
X443344Y384178D01*
X443349Y384174D01*
X443844Y384379D01*
X443849Y384387D01*
X443855Y384386D01*
X444280Y384711D01*
X444282Y384721D01*
X444289Y384720D01*
X444614Y385145D01*
X444614Y385155D01*
X444621Y385156D01*
X444826Y385651D01*
X444823Y385660D01*
X444825Y385660D01*
X444829Y385663D01*
X444899Y386194D01*
X444894Y386202D01*
X444899Y386206D01*
X444829Y386737D01*
X444822Y386744D01*
X444826Y386749D01*
X444621Y387244D01*
X444613Y387249D01*
X444614Y387255D01*
X444289Y387680D01*
X444280Y387682D01*
X444280Y387689D01*
X443855Y388014D01*
X443846Y388014D01*
X443844Y388021D01*
X443349Y388226D01*
X443340Y388223D01*
X443337Y388229D01*
X442806Y388299D01*
X442802Y388296D01*
X442800Y388299D01*
X435050Y388299D01*
X435003Y388263D01*
X435008Y388256D01*
X435001Y388250D01*
X435001Y384150D01*
X435037Y384103D01*
X435044Y384108D01*
X435050Y384101D01*
X442800Y384101D01*
X442804Y384104D01*
G37*
G36*
X442804Y379104D02*
X442804Y379104D01*
X442806Y379101D01*
X443337Y379171D01*
X443344Y379178D01*
X443349Y379174D01*
X443844Y379379D01*
X443849Y379387D01*
X443855Y379386D01*
X444280Y379711D01*
X444282Y379721D01*
X444289Y379720D01*
X444614Y380145D01*
X444614Y380155D01*
X444621Y380156D01*
X444826Y380651D01*
X444823Y380660D01*
X444825Y380660D01*
X444829Y380663D01*
X444899Y381194D01*
X444894Y381202D01*
X444899Y381206D01*
X444829Y381737D01*
X444822Y381744D01*
X444826Y381749D01*
X444621Y382244D01*
X444613Y382249D01*
X444614Y382255D01*
X444289Y382680D01*
X444280Y382682D01*
X444280Y382689D01*
X443855Y383014D01*
X443846Y383014D01*
X443844Y383021D01*
X443349Y383226D01*
X443340Y383223D01*
X443337Y383229D01*
X442806Y383299D01*
X442802Y383296D01*
X442800Y383299D01*
X435050Y383299D01*
X435003Y383263D01*
X435008Y383256D01*
X435001Y383250D01*
X435001Y379150D01*
X435037Y379103D01*
X435044Y379108D01*
X435050Y379101D01*
X442800Y379101D01*
X442804Y379104D01*
G37*
G36*
X442804Y374104D02*
X442804Y374104D01*
X442806Y374101D01*
X443337Y374171D01*
X443344Y374178D01*
X443349Y374174D01*
X443844Y374379D01*
X443849Y374387D01*
X443855Y374386D01*
X444280Y374711D01*
X444282Y374721D01*
X444289Y374720D01*
X444614Y375145D01*
X444614Y375155D01*
X444621Y375156D01*
X444826Y375651D01*
X444823Y375660D01*
X444825Y375660D01*
X444829Y375663D01*
X444899Y376194D01*
X444894Y376202D01*
X444899Y376206D01*
X444829Y376737D01*
X444822Y376744D01*
X444826Y376749D01*
X444621Y377244D01*
X444613Y377249D01*
X444614Y377255D01*
X444289Y377680D01*
X444280Y377682D01*
X444280Y377689D01*
X443855Y378014D01*
X443846Y378014D01*
X443844Y378021D01*
X443349Y378226D01*
X443340Y378223D01*
X443337Y378229D01*
X442806Y378299D01*
X442802Y378296D01*
X442800Y378299D01*
X435050Y378299D01*
X435003Y378263D01*
X435008Y378256D01*
X435001Y378250D01*
X435001Y374150D01*
X435037Y374103D01*
X435044Y374108D01*
X435050Y374101D01*
X442800Y374101D01*
X442804Y374104D01*
G37*
G36*
X96937Y360271D02*
X96937Y360271D01*
X96944Y360278D01*
X96949Y360274D01*
X97444Y360479D01*
X97449Y360487D01*
X97455Y360486D01*
X97880Y360811D01*
X97882Y360821D01*
X97889Y360820D01*
X98214Y361245D01*
X98214Y361255D01*
X98221Y361256D01*
X98426Y361751D01*
X98423Y361760D01*
X98425Y361760D01*
X98429Y361763D01*
X98499Y362294D01*
X98496Y362298D01*
X98499Y362300D01*
X98499Y370050D01*
X98463Y370097D01*
X98456Y370092D01*
X98450Y370099D01*
X94350Y370099D01*
X94303Y370063D01*
X94308Y370056D01*
X94301Y370050D01*
X94301Y362300D01*
X94304Y362296D01*
X94301Y362294D01*
X94371Y361763D01*
X94378Y361756D01*
X94374Y361751D01*
X94579Y361256D01*
X94587Y361251D01*
X94586Y361245D01*
X94911Y360820D01*
X94921Y360818D01*
X94920Y360811D01*
X95345Y360486D01*
X95355Y360486D01*
X95356Y360479D01*
X95851Y360274D01*
X95860Y360277D01*
X95863Y360271D01*
X96394Y360201D01*
X96402Y360206D01*
X96406Y360201D01*
X96937Y360271D01*
G37*
G36*
X81937Y360271D02*
X81937Y360271D01*
X81944Y360278D01*
X81949Y360274D01*
X82444Y360479D01*
X82449Y360487D01*
X82455Y360486D01*
X82880Y360811D01*
X82882Y360821D01*
X82889Y360820D01*
X83214Y361245D01*
X83214Y361255D01*
X83221Y361256D01*
X83426Y361751D01*
X83423Y361760D01*
X83425Y361760D01*
X83429Y361763D01*
X83499Y362294D01*
X83496Y362298D01*
X83499Y362300D01*
X83499Y370050D01*
X83463Y370097D01*
X83456Y370092D01*
X83450Y370099D01*
X79350Y370099D01*
X79303Y370063D01*
X79308Y370056D01*
X79301Y370050D01*
X79301Y362300D01*
X79304Y362296D01*
X79301Y362294D01*
X79371Y361763D01*
X79378Y361756D01*
X79374Y361751D01*
X79579Y361256D01*
X79587Y361251D01*
X79586Y361245D01*
X79911Y360820D01*
X79921Y360818D01*
X79920Y360811D01*
X80345Y360486D01*
X80355Y360486D01*
X80356Y360479D01*
X80851Y360274D01*
X80860Y360277D01*
X80863Y360271D01*
X81394Y360201D01*
X81402Y360206D01*
X81406Y360201D01*
X81937Y360271D01*
G37*
G36*
X74504Y358304D02*
X74504Y358304D01*
X74506Y358301D01*
X75037Y358371D01*
X75044Y358378D01*
X75049Y358374D01*
X75544Y358579D01*
X75549Y358587D01*
X75555Y358586D01*
X75980Y358911D01*
X75982Y358921D01*
X75989Y358920D01*
X76314Y359345D01*
X76314Y359355D01*
X76321Y359356D01*
X76526Y359851D01*
X76523Y359860D01*
X76525Y359860D01*
X76529Y359863D01*
X76599Y360394D01*
X76594Y360402D01*
X76599Y360406D01*
X76529Y360937D01*
X76522Y360944D01*
X76526Y360949D01*
X76321Y361444D01*
X76313Y361449D01*
X76314Y361455D01*
X75989Y361880D01*
X75980Y361882D01*
X75980Y361889D01*
X75555Y362214D01*
X75546Y362214D01*
X75544Y362221D01*
X75049Y362426D01*
X75040Y362423D01*
X75037Y362429D01*
X74506Y362499D01*
X74502Y362496D01*
X74500Y362499D01*
X66750Y362499D01*
X66703Y362463D01*
X66708Y362456D01*
X66701Y362450D01*
X66701Y358350D01*
X66737Y358303D01*
X66744Y358308D01*
X66750Y358301D01*
X74500Y358301D01*
X74504Y358304D01*
G37*
G36*
X465237Y411071D02*
X465237Y411071D01*
X465244Y411078D01*
X465249Y411074D01*
X465744Y411279D01*
X465749Y411287D01*
X465755Y411286D01*
X466180Y411611D01*
X466182Y411621D01*
X466189Y411620D01*
X466514Y412045D01*
X466514Y412055D01*
X466521Y412056D01*
X466726Y412551D01*
X466723Y412560D01*
X466725Y412560D01*
X466729Y412563D01*
X466799Y413094D01*
X466796Y413098D01*
X466799Y413100D01*
X466799Y420850D01*
X466763Y420897D01*
X466756Y420892D01*
X466750Y420899D01*
X462650Y420899D01*
X462603Y420863D01*
X462608Y420856D01*
X462601Y420850D01*
X462601Y413100D01*
X462604Y413096D01*
X462601Y413094D01*
X462671Y412563D01*
X462678Y412556D01*
X462674Y412551D01*
X462879Y412056D01*
X462887Y412051D01*
X462886Y412045D01*
X463211Y411620D01*
X463221Y411618D01*
X463220Y411611D01*
X463645Y411286D01*
X463655Y411286D01*
X463656Y411279D01*
X464151Y411074D01*
X464160Y411077D01*
X464163Y411071D01*
X464694Y411001D01*
X464702Y411006D01*
X464706Y411001D01*
X465237Y411071D01*
G37*
G36*
X74504Y348304D02*
X74504Y348304D01*
X74506Y348301D01*
X75037Y348371D01*
X75044Y348378D01*
X75049Y348374D01*
X75544Y348579D01*
X75549Y348587D01*
X75555Y348586D01*
X75980Y348911D01*
X75982Y348921D01*
X75989Y348920D01*
X76314Y349345D01*
X76314Y349355D01*
X76321Y349356D01*
X76526Y349851D01*
X76523Y349860D01*
X76525Y349860D01*
X76529Y349863D01*
X76599Y350394D01*
X76594Y350402D01*
X76599Y350406D01*
X76529Y350937D01*
X76522Y350944D01*
X76526Y350949D01*
X76321Y351444D01*
X76313Y351449D01*
X76314Y351455D01*
X75989Y351880D01*
X75980Y351882D01*
X75980Y351889D01*
X75555Y352214D01*
X75546Y352214D01*
X75544Y352221D01*
X75049Y352426D01*
X75040Y352423D01*
X75037Y352429D01*
X74506Y352499D01*
X74502Y352496D01*
X74500Y352499D01*
X66750Y352499D01*
X66703Y352463D01*
X66708Y352456D01*
X66701Y352450D01*
X66701Y348350D01*
X66737Y348303D01*
X66744Y348308D01*
X66750Y348301D01*
X74500Y348301D01*
X74504Y348304D01*
G37*
G36*
X74504Y343304D02*
X74504Y343304D01*
X74506Y343301D01*
X75037Y343371D01*
X75044Y343378D01*
X75049Y343374D01*
X75544Y343579D01*
X75549Y343587D01*
X75555Y343586D01*
X75980Y343911D01*
X75982Y343921D01*
X75989Y343920D01*
X76314Y344345D01*
X76314Y344355D01*
X76321Y344356D01*
X76526Y344851D01*
X76523Y344860D01*
X76525Y344860D01*
X76529Y344863D01*
X76599Y345394D01*
X76594Y345402D01*
X76599Y345406D01*
X76529Y345937D01*
X76522Y345944D01*
X76526Y345949D01*
X76321Y346444D01*
X76313Y346449D01*
X76314Y346455D01*
X75989Y346880D01*
X75980Y346882D01*
X75980Y346889D01*
X75555Y347214D01*
X75546Y347214D01*
X75544Y347221D01*
X75049Y347426D01*
X75040Y347423D01*
X75037Y347429D01*
X74506Y347499D01*
X74502Y347496D01*
X74500Y347499D01*
X66750Y347499D01*
X66703Y347463D01*
X66708Y347456D01*
X66701Y347450D01*
X66701Y343350D01*
X66737Y343303D01*
X66744Y343308D01*
X66750Y343301D01*
X74500Y343301D01*
X74504Y343304D01*
G37*
G36*
X74504Y338304D02*
X74504Y338304D01*
X74506Y338301D01*
X75037Y338371D01*
X75044Y338378D01*
X75049Y338374D01*
X75544Y338579D01*
X75549Y338587D01*
X75555Y338586D01*
X75980Y338911D01*
X75982Y338921D01*
X75989Y338920D01*
X76314Y339345D01*
X76314Y339355D01*
X76321Y339356D01*
X76526Y339851D01*
X76523Y339860D01*
X76525Y339860D01*
X76529Y339863D01*
X76599Y340394D01*
X76594Y340402D01*
X76599Y340406D01*
X76529Y340937D01*
X76522Y340944D01*
X76526Y340949D01*
X76321Y341444D01*
X76313Y341449D01*
X76314Y341455D01*
X75989Y341880D01*
X75980Y341882D01*
X75980Y341889D01*
X75555Y342214D01*
X75546Y342214D01*
X75544Y342221D01*
X75049Y342426D01*
X75040Y342423D01*
X75037Y342429D01*
X74506Y342499D01*
X74502Y342496D01*
X74500Y342499D01*
X66750Y342499D01*
X66703Y342463D01*
X66708Y342456D01*
X66701Y342450D01*
X66701Y338350D01*
X66737Y338303D01*
X66744Y338308D01*
X66750Y338301D01*
X74500Y338301D01*
X74504Y338304D01*
G37*
G36*
X74504Y333304D02*
X74504Y333304D01*
X74506Y333301D01*
X75037Y333371D01*
X75044Y333378D01*
X75049Y333374D01*
X75544Y333579D01*
X75549Y333587D01*
X75555Y333586D01*
X75980Y333911D01*
X75982Y333921D01*
X75989Y333920D01*
X76314Y334345D01*
X76314Y334355D01*
X76321Y334356D01*
X76526Y334851D01*
X76523Y334860D01*
X76525Y334860D01*
X76529Y334863D01*
X76599Y335394D01*
X76594Y335402D01*
X76599Y335406D01*
X76529Y335937D01*
X76522Y335944D01*
X76526Y335949D01*
X76321Y336444D01*
X76313Y336449D01*
X76314Y336455D01*
X75989Y336880D01*
X75980Y336882D01*
X75980Y336889D01*
X75555Y337214D01*
X75546Y337214D01*
X75544Y337221D01*
X75049Y337426D01*
X75040Y337423D01*
X75037Y337429D01*
X74506Y337499D01*
X74502Y337496D01*
X74500Y337499D01*
X66750Y337499D01*
X66703Y337463D01*
X66708Y337456D01*
X66701Y337450D01*
X66701Y333350D01*
X66737Y333303D01*
X66744Y333308D01*
X66750Y333301D01*
X74500Y333301D01*
X74504Y333304D01*
G37*
G36*
X74504Y353304D02*
X74504Y353304D01*
X74506Y353301D01*
X75037Y353371D01*
X75044Y353378D01*
X75049Y353374D01*
X75544Y353579D01*
X75549Y353587D01*
X75555Y353586D01*
X75980Y353911D01*
X75982Y353921D01*
X75989Y353920D01*
X76314Y354345D01*
X76314Y354355D01*
X76321Y354356D01*
X76526Y354851D01*
X76523Y354860D01*
X76525Y354860D01*
X76529Y354863D01*
X76599Y355394D01*
X76594Y355402D01*
X76599Y355406D01*
X76529Y355937D01*
X76522Y355944D01*
X76526Y355949D01*
X76321Y356444D01*
X76313Y356449D01*
X76314Y356455D01*
X75989Y356880D01*
X75980Y356882D01*
X75980Y356889D01*
X75555Y357214D01*
X75546Y357214D01*
X75544Y357221D01*
X75049Y357426D01*
X75040Y357423D01*
X75037Y357429D01*
X74506Y357499D01*
X74502Y357496D01*
X74500Y357499D01*
X66750Y357499D01*
X66703Y357463D01*
X66708Y357456D01*
X66701Y357450D01*
X66701Y353350D01*
X66737Y353303D01*
X66744Y353308D01*
X66750Y353301D01*
X74500Y353301D01*
X74504Y353304D01*
G37*
G36*
X450237Y411071D02*
X450237Y411071D01*
X450244Y411078D01*
X450249Y411074D01*
X450744Y411279D01*
X450749Y411287D01*
X450755Y411286D01*
X451180Y411611D01*
X451182Y411621D01*
X451189Y411620D01*
X451514Y412045D01*
X451514Y412055D01*
X451521Y412056D01*
X451726Y412551D01*
X451723Y412560D01*
X451725Y412560D01*
X451729Y412563D01*
X451799Y413094D01*
X451796Y413098D01*
X451799Y413100D01*
X451799Y420850D01*
X451763Y420897D01*
X451756Y420892D01*
X451750Y420899D01*
X447650Y420899D01*
X447603Y420863D01*
X447608Y420856D01*
X447601Y420850D01*
X447601Y413100D01*
X447604Y413096D01*
X447601Y413094D01*
X447671Y412563D01*
X447678Y412556D01*
X447674Y412551D01*
X447879Y412056D01*
X447887Y412051D01*
X447886Y412045D01*
X448211Y411620D01*
X448221Y411618D01*
X448220Y411611D01*
X448645Y411286D01*
X448655Y411286D01*
X448656Y411279D01*
X449151Y411074D01*
X449160Y411077D01*
X449163Y411071D01*
X449694Y411001D01*
X449702Y411006D01*
X449706Y411001D01*
X450237Y411071D01*
G37*
G36*
X442804Y404104D02*
X442804Y404104D01*
X442806Y404101D01*
X443337Y404171D01*
X443344Y404178D01*
X443349Y404174D01*
X443844Y404379D01*
X443849Y404387D01*
X443855Y404386D01*
X444280Y404711D01*
X444282Y404721D01*
X444289Y404720D01*
X444614Y405145D01*
X444614Y405155D01*
X444621Y405156D01*
X444826Y405651D01*
X444823Y405660D01*
X444825Y405660D01*
X444829Y405663D01*
X444899Y406194D01*
X444894Y406202D01*
X444899Y406206D01*
X444829Y406737D01*
X444822Y406744D01*
X444826Y406749D01*
X444621Y407244D01*
X444613Y407249D01*
X444614Y407255D01*
X444289Y407680D01*
X444280Y407682D01*
X444280Y407689D01*
X443855Y408014D01*
X443846Y408014D01*
X443844Y408021D01*
X443349Y408226D01*
X443340Y408223D01*
X443337Y408229D01*
X442806Y408299D01*
X442802Y408296D01*
X442800Y408299D01*
X435050Y408299D01*
X435003Y408263D01*
X435008Y408256D01*
X435001Y408250D01*
X435001Y404150D01*
X435037Y404103D01*
X435044Y404108D01*
X435050Y404101D01*
X442800Y404101D01*
X442804Y404104D01*
G37*
G36*
X442804Y394104D02*
X442804Y394104D01*
X442806Y394101D01*
X443337Y394171D01*
X443344Y394178D01*
X443349Y394174D01*
X443844Y394379D01*
X443849Y394387D01*
X443855Y394386D01*
X444280Y394711D01*
X444282Y394721D01*
X444289Y394720D01*
X444614Y395145D01*
X444614Y395155D01*
X444621Y395156D01*
X444826Y395651D01*
X444823Y395660D01*
X444825Y395660D01*
X444829Y395663D01*
X444899Y396194D01*
X444894Y396202D01*
X444899Y396206D01*
X444829Y396737D01*
X444822Y396744D01*
X444826Y396749D01*
X444621Y397244D01*
X444613Y397249D01*
X444614Y397255D01*
X444289Y397680D01*
X444280Y397682D01*
X444280Y397689D01*
X443855Y398014D01*
X443846Y398014D01*
X443844Y398021D01*
X443349Y398226D01*
X443340Y398223D01*
X443337Y398229D01*
X442806Y398299D01*
X442802Y398296D01*
X442800Y398299D01*
X435050Y398299D01*
X435003Y398263D01*
X435008Y398256D01*
X435001Y398250D01*
X435001Y394150D01*
X435037Y394103D01*
X435044Y394108D01*
X435050Y394101D01*
X442800Y394101D01*
X442804Y394104D01*
G37*
G36*
X442804Y389104D02*
X442804Y389104D01*
X442806Y389101D01*
X443337Y389171D01*
X443344Y389178D01*
X443349Y389174D01*
X443844Y389379D01*
X443849Y389387D01*
X443855Y389386D01*
X444280Y389711D01*
X444282Y389721D01*
X444289Y389720D01*
X444614Y390145D01*
X444614Y390155D01*
X444621Y390156D01*
X444826Y390651D01*
X444823Y390660D01*
X444825Y390660D01*
X444829Y390663D01*
X444899Y391194D01*
X444894Y391202D01*
X444899Y391206D01*
X444829Y391737D01*
X444822Y391744D01*
X444826Y391749D01*
X444621Y392244D01*
X444613Y392249D01*
X444614Y392255D01*
X444289Y392680D01*
X444280Y392682D01*
X444280Y392689D01*
X443855Y393014D01*
X443846Y393014D01*
X443844Y393021D01*
X443349Y393226D01*
X443340Y393223D01*
X443337Y393229D01*
X442806Y393299D01*
X442802Y393296D01*
X442800Y393299D01*
X435050Y393299D01*
X435003Y393263D01*
X435008Y393256D01*
X435001Y393250D01*
X435001Y389150D01*
X435037Y389103D01*
X435044Y389108D01*
X435050Y389101D01*
X442800Y389101D01*
X442804Y389104D01*
G37*
G36*
X111097Y328337D02*
X111097Y328337D01*
X111092Y328344D01*
X111099Y328350D01*
X111099Y332450D01*
X111063Y332497D01*
X111056Y332492D01*
X111050Y332499D01*
X103300Y332499D01*
X103296Y332496D01*
X103294Y332499D01*
X102763Y332429D01*
X102756Y332422D01*
X102751Y332426D01*
X102256Y332221D01*
X102251Y332213D01*
X102245Y332214D01*
X101820Y331889D01*
X101818Y331880D01*
X101811Y331880D01*
X101486Y331455D01*
X101486Y331446D01*
X101479Y331444D01*
X101274Y330949D01*
X101277Y330940D01*
X101271Y330937D01*
X101201Y330406D01*
X101206Y330398D01*
X101201Y330394D01*
X101271Y329863D01*
X101278Y329856D01*
X101274Y329851D01*
X101479Y329356D01*
X101487Y329351D01*
X101486Y329345D01*
X101811Y328920D01*
X101821Y328918D01*
X101820Y328911D01*
X102245Y328586D01*
X102255Y328586D01*
X102256Y328579D01*
X102751Y328374D01*
X102760Y328377D01*
X102763Y328371D01*
X103294Y328301D01*
X103298Y328304D01*
X103300Y328301D01*
X111050Y328301D01*
X111097Y328337D01*
G37*
G36*
X479397Y374137D02*
X479397Y374137D01*
X479392Y374144D01*
X479399Y374150D01*
X479399Y378250D01*
X479363Y378297D01*
X479356Y378292D01*
X479350Y378299D01*
X471600Y378299D01*
X471596Y378296D01*
X471594Y378299D01*
X471063Y378229D01*
X471056Y378222D01*
X471051Y378226D01*
X470556Y378021D01*
X470551Y378013D01*
X470545Y378014D01*
X470120Y377689D01*
X470118Y377680D01*
X470111Y377680D01*
X469786Y377255D01*
X469786Y377246D01*
X469779Y377244D01*
X469574Y376749D01*
X469577Y376740D01*
X469571Y376737D01*
X469501Y376206D01*
X469506Y376198D01*
X469501Y376194D01*
X469571Y375663D01*
X469578Y375656D01*
X469574Y375651D01*
X469779Y375156D01*
X469787Y375151D01*
X469786Y375145D01*
X470111Y374720D01*
X470121Y374718D01*
X470120Y374711D01*
X470545Y374386D01*
X470555Y374386D01*
X470556Y374379D01*
X471051Y374174D01*
X471060Y374177D01*
X471063Y374171D01*
X471594Y374101D01*
X471598Y374104D01*
X471600Y374101D01*
X479350Y374101D01*
X479397Y374137D01*
G37*
G36*
X479397Y379137D02*
X479397Y379137D01*
X479392Y379144D01*
X479399Y379150D01*
X479399Y383250D01*
X479363Y383297D01*
X479356Y383292D01*
X479350Y383299D01*
X471600Y383299D01*
X471596Y383296D01*
X471594Y383299D01*
X471063Y383229D01*
X471056Y383222D01*
X471051Y383226D01*
X470556Y383021D01*
X470551Y383013D01*
X470545Y383014D01*
X470120Y382689D01*
X470118Y382680D01*
X470111Y382680D01*
X469786Y382255D01*
X469786Y382246D01*
X469779Y382244D01*
X469574Y381749D01*
X469577Y381740D01*
X469571Y381737D01*
X469501Y381206D01*
X469506Y381198D01*
X469501Y381194D01*
X469571Y380663D01*
X469578Y380656D01*
X469574Y380651D01*
X469779Y380156D01*
X469787Y380151D01*
X469786Y380145D01*
X470111Y379720D01*
X470121Y379718D01*
X470120Y379711D01*
X470545Y379386D01*
X470555Y379386D01*
X470556Y379379D01*
X471051Y379174D01*
X471060Y379177D01*
X471063Y379171D01*
X471594Y379101D01*
X471598Y379104D01*
X471600Y379101D01*
X479350Y379101D01*
X479397Y379137D01*
G37*
G36*
X479397Y384137D02*
X479397Y384137D01*
X479392Y384144D01*
X479399Y384150D01*
X479399Y388250D01*
X479363Y388297D01*
X479356Y388292D01*
X479350Y388299D01*
X471600Y388299D01*
X471596Y388296D01*
X471594Y388299D01*
X471063Y388229D01*
X471056Y388222D01*
X471051Y388226D01*
X470556Y388021D01*
X470551Y388013D01*
X470545Y388014D01*
X470120Y387689D01*
X470118Y387680D01*
X470111Y387680D01*
X469786Y387255D01*
X469786Y387246D01*
X469779Y387244D01*
X469574Y386749D01*
X469577Y386740D01*
X469571Y386737D01*
X469501Y386206D01*
X469506Y386198D01*
X469501Y386194D01*
X469571Y385663D01*
X469578Y385656D01*
X469574Y385651D01*
X469779Y385156D01*
X469787Y385151D01*
X469786Y385145D01*
X470111Y384720D01*
X470121Y384718D01*
X470120Y384711D01*
X470545Y384386D01*
X470555Y384386D01*
X470556Y384379D01*
X471051Y384174D01*
X471060Y384177D01*
X471063Y384171D01*
X471594Y384101D01*
X471598Y384104D01*
X471600Y384101D01*
X479350Y384101D01*
X479397Y384137D01*
G37*
G36*
X479397Y389137D02*
X479397Y389137D01*
X479392Y389144D01*
X479399Y389150D01*
X479399Y393250D01*
X479363Y393297D01*
X479356Y393292D01*
X479350Y393299D01*
X471600Y393299D01*
X471596Y393296D01*
X471594Y393299D01*
X471063Y393229D01*
X471056Y393222D01*
X471051Y393226D01*
X470556Y393021D01*
X470551Y393013D01*
X470545Y393014D01*
X470120Y392689D01*
X470118Y392680D01*
X470111Y392680D01*
X469786Y392255D01*
X469786Y392246D01*
X469779Y392244D01*
X469574Y391749D01*
X469577Y391740D01*
X469571Y391737D01*
X469501Y391206D01*
X469506Y391198D01*
X469501Y391194D01*
X469571Y390663D01*
X469578Y390656D01*
X469574Y390651D01*
X469779Y390156D01*
X469787Y390151D01*
X469786Y390145D01*
X470111Y389720D01*
X470121Y389718D01*
X470120Y389711D01*
X470545Y389386D01*
X470555Y389386D01*
X470556Y389379D01*
X471051Y389174D01*
X471060Y389177D01*
X471063Y389171D01*
X471594Y389101D01*
X471598Y389104D01*
X471600Y389101D01*
X479350Y389101D01*
X479397Y389137D01*
G37*
G36*
X479397Y394137D02*
X479397Y394137D01*
X479392Y394144D01*
X479399Y394150D01*
X479399Y398250D01*
X479363Y398297D01*
X479356Y398292D01*
X479350Y398299D01*
X471600Y398299D01*
X471596Y398296D01*
X471594Y398299D01*
X471063Y398229D01*
X471056Y398222D01*
X471051Y398226D01*
X470556Y398021D01*
X470551Y398013D01*
X470545Y398014D01*
X470120Y397689D01*
X470118Y397680D01*
X470111Y397680D01*
X469786Y397255D01*
X469786Y397246D01*
X469779Y397244D01*
X469574Y396749D01*
X469577Y396740D01*
X469571Y396737D01*
X469501Y396206D01*
X469506Y396198D01*
X469501Y396194D01*
X469571Y395663D01*
X469578Y395656D01*
X469574Y395651D01*
X469779Y395156D01*
X469787Y395151D01*
X469786Y395145D01*
X470111Y394720D01*
X470121Y394718D01*
X470120Y394711D01*
X470545Y394386D01*
X470555Y394386D01*
X470556Y394379D01*
X471051Y394174D01*
X471060Y394177D01*
X471063Y394171D01*
X471594Y394101D01*
X471598Y394104D01*
X471600Y394101D01*
X479350Y394101D01*
X479397Y394137D01*
G37*
G36*
X111097Y343337D02*
X111097Y343337D01*
X111092Y343344D01*
X111099Y343350D01*
X111099Y347450D01*
X111063Y347497D01*
X111056Y347492D01*
X111050Y347499D01*
X103300Y347499D01*
X103296Y347496D01*
X103294Y347499D01*
X102763Y347429D01*
X102756Y347422D01*
X102751Y347426D01*
X102256Y347221D01*
X102251Y347213D01*
X102245Y347214D01*
X101820Y346889D01*
X101818Y346880D01*
X101811Y346880D01*
X101486Y346455D01*
X101486Y346446D01*
X101479Y346444D01*
X101274Y345949D01*
X101277Y345940D01*
X101271Y345937D01*
X101201Y345406D01*
X101206Y345398D01*
X101201Y345394D01*
X101271Y344863D01*
X101278Y344856D01*
X101274Y344851D01*
X101479Y344356D01*
X101487Y344351D01*
X101486Y344345D01*
X101811Y343920D01*
X101821Y343918D01*
X101820Y343911D01*
X102245Y343586D01*
X102255Y343586D01*
X102256Y343579D01*
X102751Y343374D01*
X102760Y343377D01*
X102763Y343371D01*
X103294Y343301D01*
X103298Y343304D01*
X103300Y343301D01*
X111050Y343301D01*
X111097Y343337D01*
G37*
G36*
X479397Y399137D02*
X479397Y399137D01*
X479392Y399144D01*
X479399Y399150D01*
X479399Y403250D01*
X479363Y403297D01*
X479356Y403292D01*
X479350Y403299D01*
X471600Y403299D01*
X471596Y403296D01*
X471594Y403299D01*
X471063Y403229D01*
X471056Y403222D01*
X471051Y403226D01*
X470556Y403021D01*
X470551Y403013D01*
X470545Y403014D01*
X470120Y402689D01*
X470118Y402680D01*
X470111Y402680D01*
X469786Y402255D01*
X469786Y402246D01*
X469779Y402244D01*
X469574Y401749D01*
X469577Y401740D01*
X469571Y401737D01*
X469501Y401206D01*
X469506Y401198D01*
X469501Y401194D01*
X469571Y400663D01*
X469578Y400656D01*
X469574Y400651D01*
X469779Y400156D01*
X469787Y400151D01*
X469786Y400145D01*
X470111Y399720D01*
X470121Y399718D01*
X470120Y399711D01*
X470545Y399386D01*
X470555Y399386D01*
X470556Y399379D01*
X471051Y399174D01*
X471060Y399177D01*
X471063Y399171D01*
X471594Y399101D01*
X471598Y399104D01*
X471600Y399101D01*
X479350Y399101D01*
X479397Y399137D01*
G37*
G36*
X111097Y353337D02*
X111097Y353337D01*
X111092Y353344D01*
X111099Y353350D01*
X111099Y357450D01*
X111063Y357497D01*
X111056Y357492D01*
X111050Y357499D01*
X103300Y357499D01*
X103296Y357496D01*
X103294Y357499D01*
X102763Y357429D01*
X102756Y357422D01*
X102751Y357426D01*
X102256Y357221D01*
X102251Y357213D01*
X102245Y357214D01*
X101820Y356889D01*
X101818Y356880D01*
X101811Y356880D01*
X101486Y356455D01*
X101486Y356446D01*
X101479Y356444D01*
X101274Y355949D01*
X101277Y355940D01*
X101271Y355937D01*
X101201Y355406D01*
X101206Y355398D01*
X101201Y355394D01*
X101271Y354863D01*
X101278Y354856D01*
X101274Y354851D01*
X101479Y354356D01*
X101487Y354351D01*
X101486Y354345D01*
X101811Y353920D01*
X101821Y353918D01*
X101820Y353911D01*
X102245Y353586D01*
X102255Y353586D01*
X102256Y353579D01*
X102751Y353374D01*
X102760Y353377D01*
X102763Y353371D01*
X103294Y353301D01*
X103298Y353304D01*
X103300Y353301D01*
X111050Y353301D01*
X111097Y353337D01*
G37*
G36*
X111097Y338337D02*
X111097Y338337D01*
X111092Y338344D01*
X111099Y338350D01*
X111099Y342450D01*
X111063Y342497D01*
X111056Y342492D01*
X111050Y342499D01*
X103300Y342499D01*
X103296Y342496D01*
X103294Y342499D01*
X102763Y342429D01*
X102756Y342422D01*
X102751Y342426D01*
X102256Y342221D01*
X102251Y342213D01*
X102245Y342214D01*
X101820Y341889D01*
X101818Y341880D01*
X101811Y341880D01*
X101486Y341455D01*
X101486Y341446D01*
X101479Y341444D01*
X101274Y340949D01*
X101277Y340940D01*
X101271Y340937D01*
X101201Y340406D01*
X101206Y340398D01*
X101201Y340394D01*
X101271Y339863D01*
X101278Y339856D01*
X101274Y339851D01*
X101479Y339356D01*
X101487Y339351D01*
X101486Y339345D01*
X101811Y338920D01*
X101821Y338918D01*
X101820Y338911D01*
X102245Y338586D01*
X102255Y338586D01*
X102256Y338579D01*
X102751Y338374D01*
X102760Y338377D01*
X102763Y338371D01*
X103294Y338301D01*
X103298Y338304D01*
X103300Y338301D01*
X111050Y338301D01*
X111097Y338337D01*
G37*
G36*
X111097Y358337D02*
X111097Y358337D01*
X111092Y358344D01*
X111099Y358350D01*
X111099Y362450D01*
X111063Y362497D01*
X111056Y362492D01*
X111050Y362499D01*
X103300Y362499D01*
X103296Y362496D01*
X103294Y362499D01*
X102763Y362429D01*
X102756Y362422D01*
X102751Y362426D01*
X102256Y362221D01*
X102251Y362213D01*
X102245Y362214D01*
X101820Y361889D01*
X101818Y361880D01*
X101811Y361880D01*
X101486Y361455D01*
X101486Y361446D01*
X101479Y361444D01*
X101274Y360949D01*
X101277Y360940D01*
X101271Y360937D01*
X101201Y360406D01*
X101206Y360398D01*
X101201Y360394D01*
X101271Y359863D01*
X101278Y359856D01*
X101274Y359851D01*
X101479Y359356D01*
X101487Y359351D01*
X101486Y359345D01*
X101811Y358920D01*
X101821Y358918D01*
X101820Y358911D01*
X102245Y358586D01*
X102255Y358586D01*
X102256Y358579D01*
X102751Y358374D01*
X102760Y358377D01*
X102763Y358371D01*
X103294Y358301D01*
X103298Y358304D01*
X103300Y358301D01*
X111050Y358301D01*
X111097Y358337D01*
G37*
G36*
X111097Y348337D02*
X111097Y348337D01*
X111092Y348344D01*
X111099Y348350D01*
X111099Y352450D01*
X111063Y352497D01*
X111056Y352492D01*
X111050Y352499D01*
X103300Y352499D01*
X103296Y352496D01*
X103294Y352499D01*
X102763Y352429D01*
X102756Y352422D01*
X102751Y352426D01*
X102256Y352221D01*
X102251Y352213D01*
X102245Y352214D01*
X101820Y351889D01*
X101818Y351880D01*
X101811Y351880D01*
X101486Y351455D01*
X101486Y351446D01*
X101479Y351444D01*
X101274Y350949D01*
X101277Y350940D01*
X101271Y350937D01*
X101201Y350406D01*
X101206Y350398D01*
X101201Y350394D01*
X101271Y349863D01*
X101278Y349856D01*
X101274Y349851D01*
X101479Y349356D01*
X101487Y349351D01*
X101486Y349345D01*
X101811Y348920D01*
X101821Y348918D01*
X101820Y348911D01*
X102245Y348586D01*
X102255Y348586D01*
X102256Y348579D01*
X102751Y348374D01*
X102760Y348377D01*
X102763Y348371D01*
X103294Y348301D01*
X103298Y348304D01*
X103300Y348301D01*
X111050Y348301D01*
X111097Y348337D01*
G37*
G36*
X442804Y409104D02*
X442804Y409104D01*
X442806Y409101D01*
X443337Y409171D01*
X443344Y409178D01*
X443349Y409174D01*
X443844Y409379D01*
X443849Y409387D01*
X443855Y409386D01*
X444280Y409711D01*
X444282Y409721D01*
X444289Y409720D01*
X444614Y410145D01*
X444614Y410155D01*
X444621Y410156D01*
X444826Y410651D01*
X444823Y410659D01*
X444825Y410661D01*
X444829Y410663D01*
X444899Y411194D01*
X444894Y411202D01*
X444899Y411206D01*
X444829Y411737D01*
X444822Y411744D01*
X444826Y411749D01*
X444621Y412244D01*
X444613Y412249D01*
X444614Y412255D01*
X444289Y412680D01*
X444280Y412682D01*
X444280Y412689D01*
X443855Y413014D01*
X443846Y413014D01*
X443844Y413021D01*
X443349Y413226D01*
X443340Y413223D01*
X443337Y413229D01*
X442806Y413299D01*
X442802Y413296D01*
X442800Y413299D01*
X435100Y413299D01*
X435053Y413263D01*
X435058Y413256D01*
X435051Y413250D01*
X435051Y409150D01*
X435087Y409103D01*
X435094Y409108D01*
X435100Y409101D01*
X442800Y409101D01*
X442804Y409104D01*
G37*
G36*
X111047Y323337D02*
X111047Y323337D01*
X111042Y323344D01*
X111049Y323350D01*
X111049Y327450D01*
X111013Y327497D01*
X111006Y327492D01*
X111000Y327499D01*
X103300Y327499D01*
X103296Y327496D01*
X103294Y327499D01*
X102763Y327429D01*
X102756Y327422D01*
X102751Y327426D01*
X102256Y327221D01*
X102251Y327213D01*
X102245Y327214D01*
X101820Y326889D01*
X101818Y326880D01*
X101811Y326880D01*
X101486Y326455D01*
X101486Y326446D01*
X101479Y326444D01*
X101274Y325949D01*
X101277Y325940D01*
X101271Y325937D01*
X101201Y325406D01*
X101206Y325398D01*
X101201Y325394D01*
X101271Y324863D01*
X101278Y324856D01*
X101274Y324851D01*
X101479Y324356D01*
X101487Y324351D01*
X101486Y324345D01*
X101811Y323920D01*
X101821Y323918D01*
X101820Y323911D01*
X102245Y323586D01*
X102255Y323586D01*
X102256Y323579D01*
X102751Y323374D01*
X102760Y323377D01*
X102763Y323371D01*
X103294Y323301D01*
X103298Y323304D01*
X103300Y323301D01*
X111000Y323301D01*
X111047Y323337D01*
G37*
D10*
X104507Y4543D02*
X93493Y4543D01*
X93493Y23557D01*
X104507Y23557D01*
X104507Y4543D01*
X104507Y6686D02*
X93493Y6686D01*
X93493Y8829D02*
X104507Y8829D01*
X104507Y10972D02*
X93493Y10972D01*
X93493Y13115D02*
X104507Y13115D01*
X104507Y15258D02*
X93493Y15258D01*
X93493Y17401D02*
X104507Y17401D01*
X104507Y19544D02*
X93493Y19544D01*
X93493Y21687D02*
X104507Y21687D01*
X149493Y4543D02*
X160507Y4543D01*
X149493Y4543D02*
X149493Y23557D01*
X160507Y23557D01*
X160507Y4543D01*
X160507Y6686D02*
X149493Y6686D01*
X149493Y8829D02*
X160507Y8829D01*
X160507Y10972D02*
X149493Y10972D01*
X149493Y13115D02*
X160507Y13115D01*
X160507Y15258D02*
X149493Y15258D01*
X149493Y17401D02*
X160507Y17401D01*
X160507Y19544D02*
X149493Y19544D01*
X149493Y21687D02*
X160507Y21687D01*
D11*
X114508Y44542D02*
X109492Y44542D01*
X109492Y57058D01*
X114508Y57058D01*
X114508Y44542D01*
X114508Y46683D02*
X109492Y46683D01*
X109492Y48824D02*
X114508Y48824D01*
X114508Y50965D02*
X109492Y50965D01*
X109492Y53106D02*
X114508Y53106D01*
X114508Y55247D02*
X109492Y55247D01*
X119492Y44542D02*
X124508Y44542D01*
X119492Y44542D02*
X119492Y57058D01*
X124508Y57058D01*
X124508Y44542D01*
X124508Y46683D02*
X119492Y46683D01*
X119492Y48824D02*
X124508Y48824D01*
X124508Y50965D02*
X119492Y50965D01*
X119492Y53106D02*
X124508Y53106D01*
X124508Y55247D02*
X119492Y55247D01*
X129492Y44542D02*
X134508Y44542D01*
X129492Y44542D02*
X129492Y57058D01*
X134508Y57058D01*
X134508Y44542D01*
X134508Y46683D02*
X129492Y46683D01*
X129492Y48824D02*
X134508Y48824D01*
X134508Y50965D02*
X129492Y50965D01*
X129492Y53106D02*
X134508Y53106D01*
X134508Y55247D02*
X129492Y55247D01*
X139492Y44542D02*
X144508Y44542D01*
X139492Y44542D02*
X139492Y57058D01*
X144508Y57058D01*
X144508Y44542D01*
X144508Y46683D02*
X139492Y46683D01*
X139492Y48824D02*
X144508Y48824D01*
X144508Y50965D02*
X139492Y50965D01*
X139492Y53106D02*
X144508Y53106D01*
X144508Y55247D02*
X139492Y55247D01*
D12*
X128968Y75392D02*
X128968Y85408D01*
X128968Y75392D02*
X119952Y75392D01*
X119952Y85408D01*
X128968Y85408D01*
X128968Y77533D02*
X119952Y77533D01*
X119952Y79674D02*
X128968Y79674D01*
X128968Y81815D02*
X119952Y81815D01*
X119952Y83956D02*
X128968Y83956D01*
X128968Y92392D02*
X128968Y102408D01*
X128968Y92392D02*
X119952Y92392D01*
X119952Y102408D01*
X128968Y102408D01*
X128968Y94533D02*
X119952Y94533D01*
X119952Y96674D02*
X128968Y96674D01*
X128968Y98815D02*
X119952Y98815D01*
X119952Y100956D02*
X128968Y100956D01*
X144208Y85408D02*
X144208Y75392D01*
X135192Y75392D01*
X135192Y85408D01*
X144208Y85408D01*
X144208Y77533D02*
X135192Y77533D01*
X135192Y79674D02*
X144208Y79674D01*
X144208Y81815D02*
X135192Y81815D01*
X135192Y83956D02*
X144208Y83956D01*
X144208Y92392D02*
X144208Y102408D01*
X144208Y92392D02*
X135192Y92392D01*
X135192Y102408D01*
X144208Y102408D01*
X144208Y94533D02*
X135192Y94533D01*
X135192Y96674D02*
X144208Y96674D01*
X144208Y98815D02*
X135192Y98815D01*
X135192Y100956D02*
X144208Y100956D01*
D13*
X50800Y558800D03*
X444500Y15240D03*
D14*
X73184Y71596D02*
X66516Y71596D01*
X66516Y85884D01*
X73184Y85884D01*
X73184Y71596D01*
X73184Y73708D02*
X66516Y73708D01*
X66516Y75820D02*
X73184Y75820D01*
X73184Y77932D02*
X66516Y77932D01*
X66516Y80044D02*
X73184Y80044D01*
X73184Y82156D02*
X66516Y82156D01*
X66516Y84268D02*
X73184Y84268D01*
X73184Y15716D02*
X66516Y15716D01*
X66516Y30004D01*
X73184Y30004D01*
X73184Y15716D01*
X73184Y17828D02*
X66516Y17828D01*
X66516Y19940D02*
X73184Y19940D01*
X73184Y22052D02*
X66516Y22052D01*
X66516Y24164D02*
X73184Y24164D01*
X73184Y26276D02*
X66516Y26276D01*
X66516Y28388D02*
X73184Y28388D01*
X35084Y71596D02*
X28416Y71596D01*
X28416Y85884D01*
X35084Y85884D01*
X35084Y71596D01*
X35084Y73708D02*
X28416Y73708D01*
X28416Y75820D02*
X35084Y75820D01*
X35084Y77932D02*
X28416Y77932D01*
X28416Y80044D02*
X35084Y80044D01*
X35084Y82156D02*
X28416Y82156D01*
X28416Y84268D02*
X35084Y84268D01*
X35084Y15716D02*
X28416Y15716D01*
X28416Y30004D01*
X35084Y30004D01*
X35084Y15716D01*
X35084Y17828D02*
X28416Y17828D01*
X28416Y19940D02*
X35084Y19940D01*
X35084Y22052D02*
X28416Y22052D01*
X28416Y24164D02*
X35084Y24164D01*
X35084Y26276D02*
X28416Y26276D01*
X28416Y28388D02*
X35084Y28388D01*
X460216Y30004D02*
X466884Y30004D01*
X466884Y15716D01*
X460216Y15716D01*
X460216Y30004D01*
X460216Y17828D02*
X466884Y17828D01*
X466884Y19940D02*
X460216Y19940D01*
X460216Y22052D02*
X466884Y22052D01*
X466884Y24164D02*
X460216Y24164D01*
X460216Y26276D02*
X466884Y26276D01*
X466884Y28388D02*
X460216Y28388D01*
X460216Y85884D02*
X466884Y85884D01*
X466884Y71596D01*
X460216Y71596D01*
X460216Y85884D01*
X460216Y73708D02*
X466884Y73708D01*
X466884Y75820D02*
X460216Y75820D01*
X460216Y77932D02*
X466884Y77932D01*
X466884Y80044D02*
X460216Y80044D01*
X460216Y82156D02*
X466884Y82156D01*
X466884Y84268D02*
X460216Y84268D01*
X498316Y30004D02*
X504984Y30004D01*
X504984Y15716D01*
X498316Y15716D01*
X498316Y30004D01*
X498316Y17828D02*
X504984Y17828D01*
X504984Y19940D02*
X498316Y19940D01*
X498316Y22052D02*
X504984Y22052D01*
X504984Y24164D02*
X498316Y24164D01*
X498316Y26276D02*
X504984Y26276D01*
X504984Y28388D02*
X498316Y28388D01*
X498316Y85884D02*
X504984Y85884D01*
X504984Y71596D01*
X498316Y71596D01*
X498316Y85884D01*
X498316Y73708D02*
X504984Y73708D01*
X504984Y75820D02*
X498316Y75820D01*
X498316Y77932D02*
X504984Y77932D01*
X504984Y80044D02*
X498316Y80044D01*
X498316Y82156D02*
X504984Y82156D01*
X504984Y84268D02*
X498316Y84268D01*
D15*
X342900Y495300D03*
X342900Y469900D03*
X342900Y444500D03*
X342900Y419100D03*
X342900Y393700D03*
X342900Y368300D03*
X342900Y342900D03*
X342900Y317500D03*
X342900Y292100D03*
X342900Y266700D03*
X215900Y495300D03*
X215900Y469900D03*
X215900Y444500D03*
X215900Y419100D03*
X215900Y393700D03*
X215900Y368300D03*
X215900Y342900D03*
X215900Y317500D03*
X215900Y292100D03*
X215900Y266700D03*
D12*
X523938Y47308D02*
X523938Y37292D01*
X514922Y37292D01*
X514922Y47308D01*
X523938Y47308D01*
X523938Y39433D02*
X514922Y39433D01*
X514922Y41574D02*
X523938Y41574D01*
X523938Y43715D02*
X514922Y43715D01*
X514922Y45856D02*
X523938Y45856D01*
X523938Y54292D02*
X523938Y64308D01*
X523938Y54292D02*
X514922Y54292D01*
X514922Y64308D01*
X523938Y64308D01*
X523938Y56433D02*
X514922Y56433D01*
X514922Y58574D02*
X523938Y58574D01*
X523938Y60715D02*
X514922Y60715D01*
X514922Y62856D02*
X523938Y62856D01*
D16*
X502724Y96836D02*
X502724Y103824D01*
X502724Y96836D02*
X495736Y96836D01*
X495736Y103824D01*
X502724Y103824D01*
X502724Y100905D02*
X495736Y100905D01*
X520264Y103824D02*
X520264Y96836D01*
X513276Y96836D01*
X513276Y103824D01*
X520264Y103824D01*
X520264Y100905D02*
X513276Y100905D01*
X502724Y148906D02*
X502724Y155894D01*
X502724Y148906D02*
X495736Y148906D01*
X495736Y155894D01*
X502724Y155894D01*
X502724Y152975D02*
X495736Y152975D01*
X520264Y155894D02*
X520264Y148906D01*
X513276Y148906D01*
X513276Y155894D01*
X520264Y155894D01*
X520264Y152975D02*
X513276Y152975D01*
D12*
X479870Y182054D02*
X479870Y192070D01*
X488886Y192070D01*
X488886Y182054D01*
X479870Y182054D01*
X479870Y184195D02*
X488886Y184195D01*
X488886Y186336D02*
X479870Y186336D01*
X479870Y188477D02*
X488886Y188477D01*
X488886Y190618D02*
X479870Y190618D01*
X479870Y175070D02*
X479870Y165054D01*
X479870Y175070D02*
X488886Y175070D01*
X488886Y165054D01*
X479870Y165054D01*
X479870Y167195D02*
X488886Y167195D01*
X488886Y169336D02*
X479870Y169336D01*
X479870Y171477D02*
X488886Y171477D01*
X488886Y173618D02*
X479870Y173618D01*
D17*
X272168Y145081D02*
X267632Y145081D01*
X267632Y157617D01*
X272168Y157617D01*
X272168Y145081D01*
X272168Y147203D02*
X267632Y147203D01*
X267632Y149325D02*
X272168Y149325D01*
X272168Y151447D02*
X267632Y151447D01*
X267632Y153569D02*
X272168Y153569D01*
X272168Y155691D02*
X267632Y155691D01*
X277132Y145081D02*
X281668Y145081D01*
X277132Y145081D02*
X277132Y157617D01*
X281668Y157617D01*
X281668Y145081D01*
X281668Y147203D02*
X277132Y147203D01*
X277132Y149325D02*
X281668Y149325D01*
X281668Y151447D02*
X277132Y151447D01*
X277132Y153569D02*
X281668Y153569D01*
X281668Y155691D02*
X277132Y155691D01*
X286632Y145081D02*
X291168Y145081D01*
X286632Y145081D02*
X286632Y157617D01*
X291168Y157617D01*
X291168Y145081D01*
X291168Y147203D02*
X286632Y147203D01*
X286632Y149325D02*
X291168Y149325D01*
X291168Y151447D02*
X286632Y151447D01*
X286632Y153569D02*
X291168Y153569D01*
X291168Y155691D02*
X286632Y155691D01*
X286632Y172583D02*
X291168Y172583D01*
X286632Y172583D02*
X286632Y185119D01*
X291168Y185119D01*
X291168Y172583D01*
X291168Y174705D02*
X286632Y174705D01*
X286632Y176827D02*
X291168Y176827D01*
X291168Y178949D02*
X286632Y178949D01*
X286632Y181071D02*
X291168Y181071D01*
X291168Y183193D02*
X286632Y183193D01*
X281668Y172583D02*
X277132Y172583D01*
X277132Y185119D01*
X281668Y185119D01*
X281668Y172583D01*
X281668Y174705D02*
X277132Y174705D01*
X277132Y176827D02*
X281668Y176827D01*
X281668Y178949D02*
X277132Y178949D01*
X277132Y181071D02*
X281668Y181071D01*
X281668Y183193D02*
X277132Y183193D01*
X272168Y172583D02*
X267632Y172583D01*
X267632Y185119D01*
X272168Y185119D01*
X272168Y172583D01*
X272168Y174705D02*
X267632Y174705D01*
X267632Y176827D02*
X272168Y176827D01*
X272168Y178949D02*
X267632Y178949D01*
X267632Y181071D02*
X272168Y181071D01*
X272168Y183193D02*
X267632Y183193D01*
D18*
X259887Y190927D02*
X298913Y190927D01*
X259887Y190927D02*
X259887Y205953D01*
X298913Y205953D01*
X298913Y190927D01*
X298913Y193060D02*
X259887Y193060D01*
X259887Y195193D02*
X298913Y195193D01*
X298913Y197326D02*
X259887Y197326D01*
X259887Y199459D02*
X298913Y199459D01*
X298913Y201592D02*
X259887Y201592D01*
X259887Y203725D02*
X298913Y203725D01*
X298913Y205858D02*
X259887Y205858D01*
X259887Y229927D02*
X298913Y229927D01*
X259887Y229927D02*
X259887Y244953D01*
X298913Y244953D01*
X298913Y229927D01*
X298913Y232060D02*
X259887Y232060D01*
X259887Y234193D02*
X298913Y234193D01*
X298913Y236326D02*
X259887Y236326D01*
X259887Y238459D02*
X298913Y238459D01*
X298913Y240592D02*
X259887Y240592D01*
X259887Y242725D02*
X298913Y242725D01*
X298913Y244858D02*
X259887Y244858D01*
D12*
X247078Y184468D02*
X247078Y174452D01*
X238062Y174452D01*
X238062Y184468D01*
X247078Y184468D01*
X247078Y176593D02*
X238062Y176593D01*
X238062Y178734D02*
X247078Y178734D01*
X247078Y180875D02*
X238062Y180875D01*
X238062Y183016D02*
X247078Y183016D01*
X247078Y191452D02*
X247078Y201468D01*
X247078Y191452D02*
X238062Y191452D01*
X238062Y201468D01*
X247078Y201468D01*
X247078Y193593D02*
X238062Y193593D01*
X238062Y195734D02*
X247078Y195734D01*
X247078Y197875D02*
X238062Y197875D01*
X238062Y200016D02*
X247078Y200016D01*
X324422Y229552D02*
X324422Y239568D01*
X333438Y239568D01*
X333438Y229552D01*
X324422Y229552D01*
X324422Y231693D02*
X333438Y231693D01*
X333438Y233834D02*
X324422Y233834D01*
X324422Y235975D02*
X333438Y235975D01*
X333438Y238116D02*
X324422Y238116D01*
X324422Y222568D02*
X324422Y212552D01*
X324422Y222568D02*
X333438Y222568D01*
X333438Y212552D01*
X324422Y212552D01*
X324422Y214693D02*
X333438Y214693D01*
X333438Y216834D02*
X324422Y216834D01*
X324422Y218975D02*
X333438Y218975D01*
X333438Y221116D02*
X324422Y221116D01*
X309182Y229552D02*
X309182Y239568D01*
X318198Y239568D01*
X318198Y229552D01*
X309182Y229552D01*
X309182Y231693D02*
X318198Y231693D01*
X318198Y233834D02*
X309182Y233834D01*
X309182Y235975D02*
X318198Y235975D01*
X318198Y238116D02*
X309182Y238116D01*
X309182Y222568D02*
X309182Y212552D01*
X309182Y222568D02*
X318198Y222568D01*
X318198Y212552D01*
X309182Y212552D01*
X309182Y214693D02*
X318198Y214693D01*
X318198Y216834D02*
X309182Y216834D01*
X309182Y218975D02*
X318198Y218975D01*
X318198Y221116D02*
X309182Y221116D01*
D19*
X327318Y150878D02*
X327318Y139142D01*
X307682Y139142D01*
X307682Y150878D01*
X327318Y150878D01*
X327318Y141265D02*
X307682Y141265D01*
X307682Y143388D02*
X327318Y143388D01*
X327318Y145511D02*
X307682Y145511D01*
X307682Y147634D02*
X327318Y147634D01*
X327318Y149757D02*
X307682Y149757D01*
X327318Y174242D02*
X327318Y185978D01*
X327318Y174242D02*
X307682Y174242D01*
X307682Y185978D01*
X327318Y185978D01*
X327318Y176365D02*
X307682Y176365D01*
X307682Y178488D02*
X327318Y178488D01*
X327318Y180611D02*
X307682Y180611D01*
X307682Y182734D02*
X327318Y182734D01*
X327318Y184857D02*
X307682Y184857D01*
D12*
X275908Y130112D02*
X265892Y130112D01*
X265892Y139128D01*
X275908Y139128D01*
X275908Y130112D01*
X275908Y132253D02*
X265892Y132253D01*
X265892Y134394D02*
X275908Y134394D01*
X275908Y136535D02*
X265892Y136535D01*
X265892Y138676D02*
X275908Y138676D01*
X282892Y130112D02*
X292908Y130112D01*
X282892Y130112D02*
X282892Y139128D01*
X292908Y139128D01*
X292908Y130112D01*
X292908Y132253D02*
X282892Y132253D01*
X282892Y134394D02*
X292908Y134394D01*
X292908Y136535D02*
X282892Y136535D01*
X282892Y138676D02*
X292908Y138676D01*
D20*
X162412Y488338D02*
X162412Y495862D01*
X162412Y488338D02*
X146388Y488338D01*
X146388Y495862D01*
X162412Y495862D01*
X162412Y490473D02*
X146388Y490473D01*
X146388Y492608D02*
X162412Y492608D01*
X162412Y494743D02*
X146388Y494743D01*
X192412Y475862D02*
X192412Y468338D01*
X176388Y468338D01*
X176388Y475862D01*
X192412Y475862D01*
X192412Y470473D02*
X176388Y470473D01*
X176388Y472608D02*
X192412Y472608D01*
X192412Y474743D02*
X176388Y474743D01*
X162412Y455862D02*
X162412Y448338D01*
X146388Y448338D01*
X146388Y455862D01*
X162412Y455862D01*
X162412Y450473D02*
X146388Y450473D01*
X146388Y452608D02*
X162412Y452608D01*
X162412Y454743D02*
X146388Y454743D01*
X192412Y435862D02*
X192412Y428338D01*
X176388Y428338D01*
X176388Y435862D01*
X192412Y435862D01*
X192412Y430473D02*
X176388Y430473D01*
X176388Y432608D02*
X192412Y432608D01*
X192412Y434743D02*
X176388Y434743D01*
X162412Y415862D02*
X162412Y408338D01*
X146388Y408338D01*
X146388Y415862D01*
X162412Y415862D01*
X162412Y410473D02*
X146388Y410473D01*
X146388Y412608D02*
X162412Y412608D01*
X162412Y414743D02*
X146388Y414743D01*
X192412Y395862D02*
X192412Y388338D01*
X176388Y388338D01*
X176388Y395862D01*
X192412Y395862D01*
X192412Y390473D02*
X176388Y390473D01*
X176388Y392608D02*
X192412Y392608D01*
X192412Y394743D02*
X176388Y394743D01*
X162412Y375862D02*
X162412Y368338D01*
X146388Y368338D01*
X146388Y375862D01*
X162412Y375862D01*
X162412Y370473D02*
X146388Y370473D01*
X146388Y372608D02*
X162412Y372608D01*
X162412Y374743D02*
X146388Y374743D01*
X192412Y355862D02*
X192412Y348338D01*
X176388Y348338D01*
X176388Y355862D01*
X192412Y355862D01*
X192412Y350473D02*
X176388Y350473D01*
X176388Y352608D02*
X192412Y352608D01*
X192412Y354743D02*
X176388Y354743D01*
X162412Y335862D02*
X162412Y328338D01*
X146388Y328338D01*
X146388Y335862D01*
X162412Y335862D01*
X162412Y330473D02*
X146388Y330473D01*
X146388Y332608D02*
X162412Y332608D01*
X162412Y334743D02*
X146388Y334743D01*
X192412Y315862D02*
X192412Y308338D01*
X176388Y308338D01*
X176388Y315862D01*
X192412Y315862D01*
X192412Y310473D02*
X176388Y310473D01*
X176388Y312608D02*
X192412Y312608D01*
X192412Y314743D02*
X176388Y314743D01*
X412412Y315862D02*
X412412Y308338D01*
X396388Y308338D01*
X396388Y315862D01*
X412412Y315862D01*
X412412Y310473D02*
X396388Y310473D01*
X396388Y312608D02*
X412412Y312608D01*
X412412Y314743D02*
X396388Y314743D01*
X382412Y328338D02*
X382412Y335862D01*
X382412Y328338D02*
X366388Y328338D01*
X366388Y335862D01*
X382412Y335862D01*
X382412Y330473D02*
X366388Y330473D01*
X366388Y332608D02*
X382412Y332608D01*
X382412Y334743D02*
X366388Y334743D01*
X412412Y348338D02*
X412412Y355862D01*
X412412Y348338D02*
X396388Y348338D01*
X396388Y355862D01*
X412412Y355862D01*
X412412Y350473D02*
X396388Y350473D01*
X396388Y352608D02*
X412412Y352608D01*
X412412Y354743D02*
X396388Y354743D01*
X382412Y368338D02*
X382412Y375862D01*
X382412Y368338D02*
X366388Y368338D01*
X366388Y375862D01*
X382412Y375862D01*
X382412Y370473D02*
X366388Y370473D01*
X366388Y372608D02*
X382412Y372608D01*
X382412Y374743D02*
X366388Y374743D01*
X412412Y388338D02*
X412412Y395862D01*
X412412Y388338D02*
X396388Y388338D01*
X396388Y395862D01*
X412412Y395862D01*
X412412Y390473D02*
X396388Y390473D01*
X396388Y392608D02*
X412412Y392608D01*
X412412Y394743D02*
X396388Y394743D01*
X382412Y408338D02*
X382412Y415862D01*
X382412Y408338D02*
X366388Y408338D01*
X366388Y415862D01*
X382412Y415862D01*
X382412Y410473D02*
X366388Y410473D01*
X366388Y412608D02*
X382412Y412608D01*
X382412Y414743D02*
X366388Y414743D01*
X412412Y428338D02*
X412412Y435862D01*
X412412Y428338D02*
X396388Y428338D01*
X396388Y435862D01*
X412412Y435862D01*
X412412Y430473D02*
X396388Y430473D01*
X396388Y432608D02*
X412412Y432608D01*
X412412Y434743D02*
X396388Y434743D01*
X382412Y448338D02*
X382412Y455862D01*
X382412Y448338D02*
X366388Y448338D01*
X366388Y455862D01*
X382412Y455862D01*
X382412Y450473D02*
X366388Y450473D01*
X366388Y452608D02*
X382412Y452608D01*
X382412Y454743D02*
X366388Y454743D01*
X412412Y468338D02*
X412412Y475862D01*
X412412Y468338D02*
X396388Y468338D01*
X396388Y475862D01*
X412412Y475862D01*
X412412Y470473D02*
X396388Y470473D01*
X396388Y472608D02*
X412412Y472608D01*
X412412Y474743D02*
X396388Y474743D01*
X382412Y488338D02*
X382412Y495862D01*
X382412Y488338D02*
X366388Y488338D01*
X366388Y495862D01*
X382412Y495862D01*
X382412Y490473D02*
X366388Y490473D01*
X366388Y492608D02*
X382412Y492608D01*
X382412Y494743D02*
X366388Y494743D01*
D12*
X131382Y417368D02*
X131382Y407352D01*
X131382Y417368D02*
X140398Y417368D01*
X140398Y407352D01*
X131382Y407352D01*
X131382Y409493D02*
X140398Y409493D01*
X140398Y411634D02*
X131382Y411634D01*
X131382Y413775D02*
X140398Y413775D01*
X140398Y415916D02*
X131382Y415916D01*
X131382Y400368D02*
X131382Y390352D01*
X131382Y400368D02*
X140398Y400368D01*
X140398Y390352D01*
X131382Y390352D01*
X131382Y392493D02*
X140398Y392493D01*
X140398Y394634D02*
X131382Y394634D01*
X131382Y396775D02*
X140398Y396775D01*
X140398Y398916D02*
X131382Y398916D01*
X95314Y486092D02*
X95314Y496108D01*
X104330Y496108D01*
X104330Y486092D01*
X95314Y486092D01*
X95314Y488233D02*
X104330Y488233D01*
X104330Y490374D02*
X95314Y490374D01*
X95314Y492515D02*
X104330Y492515D01*
X104330Y494656D02*
X95314Y494656D01*
X95314Y479108D02*
X95314Y469092D01*
X95314Y479108D02*
X104330Y479108D01*
X104330Y469092D01*
X95314Y469092D01*
X95314Y471233D02*
X104330Y471233D01*
X104330Y473374D02*
X95314Y473374D01*
X95314Y475515D02*
X104330Y475515D01*
X104330Y477656D02*
X95314Y477656D01*
X110300Y486092D02*
X110300Y496108D01*
X119316Y496108D01*
X119316Y486092D01*
X110300Y486092D01*
X110300Y488233D02*
X119316Y488233D01*
X119316Y490374D02*
X110300Y490374D01*
X110300Y492515D02*
X119316Y492515D01*
X119316Y494656D02*
X110300Y494656D01*
X110300Y479108D02*
X110300Y469092D01*
X110300Y479108D02*
X119316Y479108D01*
X119316Y469092D01*
X110300Y469092D01*
X110300Y471233D02*
X119316Y471233D01*
X119316Y473374D02*
X110300Y473374D01*
X110300Y475515D02*
X119316Y475515D01*
X119316Y477656D02*
X110300Y477656D01*
X125032Y486092D02*
X125032Y496108D01*
X134048Y496108D01*
X134048Y486092D01*
X125032Y486092D01*
X125032Y488233D02*
X134048Y488233D01*
X134048Y490374D02*
X125032Y490374D01*
X125032Y492515D02*
X134048Y492515D01*
X134048Y494656D02*
X125032Y494656D01*
X125032Y479108D02*
X125032Y469092D01*
X125032Y479108D02*
X134048Y479108D01*
X134048Y469092D01*
X125032Y469092D01*
X125032Y471233D02*
X134048Y471233D01*
X134048Y473374D02*
X125032Y473374D01*
X125032Y475515D02*
X134048Y475515D01*
X134048Y477656D02*
X125032Y477656D01*
D16*
X502724Y130494D02*
X502724Y123506D01*
X495736Y123506D01*
X495736Y130494D01*
X502724Y130494D01*
X502724Y127575D02*
X495736Y127575D01*
X520264Y130494D02*
X520264Y123506D01*
X513276Y123506D01*
X513276Y130494D01*
X520264Y130494D01*
X520264Y127575D02*
X513276Y127575D01*
D12*
X464122Y182054D02*
X464122Y192070D01*
X473138Y192070D01*
X473138Y182054D01*
X464122Y182054D01*
X464122Y184195D02*
X473138Y184195D01*
X473138Y186336D02*
X464122Y186336D01*
X464122Y188477D02*
X473138Y188477D01*
X473138Y190618D02*
X464122Y190618D01*
X464122Y175070D02*
X464122Y165054D01*
X464122Y175070D02*
X473138Y175070D01*
X473138Y165054D01*
X464122Y165054D01*
X464122Y167195D02*
X473138Y167195D01*
X473138Y169336D02*
X464122Y169336D01*
X464122Y171477D02*
X473138Y171477D01*
X473138Y173618D02*
X464122Y173618D01*
D21*
X351382Y55618D02*
X349418Y55618D01*
X349418Y64582D01*
X351382Y64582D01*
X351382Y55618D01*
X351382Y57809D02*
X349418Y57809D01*
X349418Y60000D02*
X351382Y60000D01*
X351382Y62191D02*
X349418Y62191D01*
X349418Y64382D02*
X351382Y64382D01*
X346382Y55618D02*
X344418Y55618D01*
X344418Y64582D01*
X346382Y64582D01*
X346382Y55618D01*
X346382Y57809D02*
X344418Y57809D01*
X344418Y60000D02*
X346382Y60000D01*
X346382Y62191D02*
X344418Y62191D01*
X344418Y64382D02*
X346382Y64382D01*
D11*
X372642Y55592D02*
X377658Y55592D01*
X372642Y55592D02*
X372642Y64608D01*
X377658Y64608D01*
X377658Y55592D01*
X377658Y57733D02*
X372642Y57733D01*
X372642Y59874D02*
X377658Y59874D01*
X377658Y62015D02*
X372642Y62015D01*
X372642Y64156D02*
X377658Y64156D01*
X369908Y55592D02*
X364892Y55592D01*
X364892Y64608D01*
X369908Y64608D01*
X369908Y55592D01*
X369908Y57733D02*
X364892Y57733D01*
X364892Y59874D02*
X369908Y59874D01*
X369908Y62015D02*
X364892Y62015D01*
X364892Y64156D02*
X369908Y64156D01*
D21*
X361382Y55618D02*
X359418Y55618D01*
X359418Y64582D01*
X361382Y64582D01*
X361382Y55618D01*
X361382Y57809D02*
X359418Y57809D01*
X359418Y60000D02*
X361382Y60000D01*
X361382Y62191D02*
X359418Y62191D01*
X359418Y64382D02*
X361382Y64382D01*
X356382Y55618D02*
X354418Y55618D01*
X354418Y64582D01*
X356382Y64582D01*
X356382Y55618D01*
X356382Y57809D02*
X354418Y57809D01*
X354418Y60000D02*
X356382Y60000D01*
X356382Y62191D02*
X354418Y62191D01*
X354418Y64382D02*
X356382Y64382D01*
X336382Y64582D02*
X334418Y64582D01*
X336382Y64582D02*
X336382Y55618D01*
X334418Y55618D01*
X334418Y64582D01*
X334418Y57809D02*
X336382Y57809D01*
X336382Y60000D02*
X334418Y60000D01*
X334418Y62191D02*
X336382Y62191D01*
X336382Y64382D02*
X334418Y64382D01*
X339418Y64582D02*
X341382Y64582D01*
X341382Y55618D01*
X339418Y55618D01*
X339418Y64582D01*
X339418Y57809D02*
X341382Y57809D01*
X341382Y60000D02*
X339418Y60000D01*
X339418Y62191D02*
X341382Y62191D01*
X341382Y64382D02*
X339418Y64382D01*
D11*
X313158Y64608D02*
X308142Y64608D01*
X313158Y64608D02*
X313158Y55592D01*
X308142Y55592D01*
X308142Y64608D01*
X308142Y57733D02*
X313158Y57733D01*
X313158Y59874D02*
X308142Y59874D01*
X308142Y62015D02*
X313158Y62015D01*
X313158Y64156D02*
X308142Y64156D01*
X315892Y64608D02*
X320908Y64608D01*
X320908Y55592D01*
X315892Y55592D01*
X315892Y64608D01*
X315892Y57733D02*
X320908Y57733D01*
X320908Y59874D02*
X315892Y59874D01*
X315892Y62015D02*
X320908Y62015D01*
X320908Y64156D02*
X315892Y64156D01*
D21*
X324418Y64582D02*
X326382Y64582D01*
X326382Y55618D01*
X324418Y55618D01*
X324418Y64582D01*
X324418Y57809D02*
X326382Y57809D01*
X326382Y60000D02*
X324418Y60000D01*
X324418Y62191D02*
X326382Y62191D01*
X326382Y64382D02*
X324418Y64382D01*
X329418Y64582D02*
X331382Y64582D01*
X331382Y55618D01*
X329418Y55618D01*
X329418Y64582D01*
X329418Y57809D02*
X331382Y57809D01*
X331382Y60000D02*
X329418Y60000D01*
X329418Y62191D02*
X331382Y62191D01*
X331382Y64382D02*
X329418Y64382D01*
D22*
X314000Y49050D03*
X371800Y49050D03*
D12*
X312992Y105092D02*
X312992Y115108D01*
X322008Y115108D01*
X322008Y105092D01*
X312992Y105092D01*
X312992Y107233D02*
X322008Y107233D01*
X322008Y109374D02*
X312992Y109374D01*
X312992Y111515D02*
X322008Y111515D01*
X322008Y113656D02*
X312992Y113656D01*
X312992Y98108D02*
X312992Y88092D01*
X312992Y98108D02*
X322008Y98108D01*
X322008Y88092D01*
X312992Y88092D01*
X312992Y90233D02*
X322008Y90233D01*
X322008Y92374D02*
X312992Y92374D01*
X312992Y94515D02*
X322008Y94515D01*
X322008Y96656D02*
X312992Y96656D01*
X376492Y105092D02*
X376492Y115108D01*
X385508Y115108D01*
X385508Y105092D01*
X376492Y105092D01*
X376492Y107233D02*
X385508Y107233D01*
X385508Y109374D02*
X376492Y109374D01*
X376492Y111515D02*
X385508Y111515D01*
X385508Y113656D02*
X376492Y113656D01*
X376492Y98108D02*
X376492Y88092D01*
X376492Y98108D02*
X385508Y98108D01*
X385508Y88092D01*
X376492Y88092D01*
X376492Y90233D02*
X385508Y90233D01*
X385508Y92374D02*
X376492Y92374D01*
X376492Y94515D02*
X385508Y94515D01*
X385508Y96656D02*
X376492Y96656D01*
D17*
X354668Y121619D02*
X350132Y121619D01*
X354668Y121619D02*
X354668Y109083D01*
X350132Y109083D01*
X350132Y121619D01*
X350132Y111205D02*
X354668Y111205D01*
X354668Y113327D02*
X350132Y113327D01*
X350132Y115449D02*
X354668Y115449D01*
X354668Y117571D02*
X350132Y117571D01*
X350132Y119693D02*
X354668Y119693D01*
X345168Y121619D02*
X340632Y121619D01*
X345168Y121619D02*
X345168Y109083D01*
X340632Y109083D01*
X340632Y121619D01*
X340632Y111205D02*
X345168Y111205D01*
X345168Y113327D02*
X340632Y113327D01*
X340632Y115449D02*
X345168Y115449D01*
X345168Y117571D02*
X340632Y117571D01*
X340632Y119693D02*
X345168Y119693D01*
X335668Y121619D02*
X331132Y121619D01*
X335668Y121619D02*
X335668Y109083D01*
X331132Y109083D01*
X331132Y121619D01*
X331132Y111205D02*
X335668Y111205D01*
X335668Y113327D02*
X331132Y113327D01*
X331132Y115449D02*
X335668Y115449D01*
X335668Y117571D02*
X331132Y117571D01*
X331132Y119693D02*
X335668Y119693D01*
X335668Y94117D02*
X331132Y94117D01*
X335668Y94117D02*
X335668Y81581D01*
X331132Y81581D01*
X331132Y94117D01*
X331132Y83703D02*
X335668Y83703D01*
X335668Y85825D02*
X331132Y85825D01*
X331132Y87947D02*
X335668Y87947D01*
X335668Y90069D02*
X331132Y90069D01*
X331132Y92191D02*
X335668Y92191D01*
X340632Y94117D02*
X345168Y94117D01*
X345168Y81581D01*
X340632Y81581D01*
X340632Y94117D01*
X340632Y83703D02*
X345168Y83703D01*
X345168Y85825D02*
X340632Y85825D01*
X340632Y87947D02*
X345168Y87947D01*
X345168Y90069D02*
X340632Y90069D01*
X340632Y92191D02*
X345168Y92191D01*
X350132Y94117D02*
X354668Y94117D01*
X354668Y81581D01*
X350132Y81581D01*
X350132Y94117D01*
X350132Y83703D02*
X354668Y83703D01*
X354668Y85825D02*
X350132Y85825D01*
X350132Y87947D02*
X354668Y87947D01*
X354668Y90069D02*
X350132Y90069D01*
X350132Y92191D02*
X354668Y92191D01*
D15*
X508000Y241300D03*
X508000Y266700D03*
X508000Y292100D03*
X508000Y317500D03*
X508000Y342900D03*
X508000Y368300D03*
X508000Y419100D03*
X508000Y444500D03*
X508000Y469900D03*
X508000Y495300D03*
X508000Y520700D03*
X508000Y546100D03*
X25400Y546100D03*
X25400Y520700D03*
X25400Y495300D03*
X25400Y469900D03*
X25400Y444500D03*
X25400Y419100D03*
X25400Y393700D03*
X25400Y368300D03*
X25400Y330200D03*
X25400Y304800D03*
X25400Y279400D03*
X25400Y254000D03*
X25400Y228600D03*
X25400Y203200D03*
X25400Y177800D03*
X25400Y152400D03*
X25400Y127000D03*
X25400Y101600D03*
X508000Y215900D03*
X508000Y190500D03*
D23*
X200300Y155100D03*
X200300Y160100D03*
X200300Y165100D03*
X200300Y170100D03*
X200300Y175100D03*
X155300Y175100D03*
X155300Y170100D03*
X155300Y165100D03*
X155300Y160100D03*
X155300Y155100D03*
D12*
X124592Y160992D02*
X124592Y170008D01*
X135108Y170008D01*
X135108Y160992D01*
X124592Y160992D01*
X124592Y163133D02*
X135108Y163133D01*
X135108Y165274D02*
X124592Y165274D01*
X124592Y167415D02*
X135108Y167415D01*
X135108Y169556D02*
X124592Y169556D01*
X124592Y185992D02*
X124592Y195008D01*
X135108Y195008D01*
X135108Y185992D01*
X124592Y185992D01*
X124592Y188133D02*
X135108Y188133D01*
X135108Y190274D02*
X124592Y190274D01*
X124592Y192415D02*
X135108Y192415D01*
X135108Y194556D02*
X124592Y194556D01*
X124592Y210992D02*
X124592Y220008D01*
X135108Y220008D01*
X135108Y210992D01*
X124592Y210992D01*
X124592Y213133D02*
X135108Y213133D01*
X135108Y215274D02*
X124592Y215274D01*
X124592Y217415D02*
X135108Y217415D01*
X135108Y219556D02*
X124592Y219556D01*
X68092Y170008D02*
X68092Y160992D01*
X68092Y170008D02*
X78608Y170008D01*
X78608Y160992D01*
X68092Y160992D01*
X68092Y163133D02*
X78608Y163133D01*
X78608Y165274D02*
X68092Y165274D01*
X68092Y167415D02*
X78608Y167415D01*
X78608Y169556D02*
X68092Y169556D01*
X68092Y185992D02*
X68092Y195008D01*
X78608Y195008D01*
X78608Y185992D01*
X68092Y185992D01*
X68092Y188133D02*
X78608Y188133D01*
X78608Y190274D02*
X68092Y190274D01*
X68092Y192415D02*
X78608Y192415D01*
X78608Y194556D02*
X68092Y194556D01*
X68092Y210992D02*
X68092Y220008D01*
X78608Y220008D01*
X78608Y210992D01*
X68092Y210992D01*
X68092Y213133D02*
X78608Y213133D01*
X78608Y215274D02*
X68092Y215274D01*
X68092Y217415D02*
X78608Y217415D01*
X78608Y219556D02*
X68092Y219556D01*
D24*
X101600Y175500D03*
X101600Y205500D03*
D12*
X124778Y245046D02*
X124778Y255062D01*
X133794Y255062D01*
X133794Y245046D01*
X124778Y245046D01*
X124778Y247187D02*
X133794Y247187D01*
X133794Y249328D02*
X124778Y249328D01*
X124778Y251469D02*
X133794Y251469D01*
X133794Y253610D02*
X124778Y253610D01*
X124778Y238062D02*
X124778Y228046D01*
X124778Y238062D02*
X133794Y238062D01*
X133794Y228046D01*
X124778Y228046D01*
X124778Y230187D02*
X133794Y230187D01*
X133794Y232328D02*
X124778Y232328D01*
X124778Y234469D02*
X133794Y234469D01*
X133794Y236610D02*
X124778Y236610D01*
D21*
X222418Y55618D02*
X224382Y55618D01*
X222418Y55618D02*
X222418Y64582D01*
X224382Y64582D01*
X224382Y55618D01*
X224382Y57809D02*
X222418Y57809D01*
X222418Y60000D02*
X224382Y60000D01*
X224382Y62191D02*
X222418Y62191D01*
X222418Y64382D02*
X224382Y64382D01*
X219382Y55618D02*
X217418Y55618D01*
X217418Y64582D01*
X219382Y64582D01*
X219382Y55618D01*
X219382Y57809D02*
X217418Y57809D01*
X217418Y60000D02*
X219382Y60000D01*
X219382Y62191D02*
X217418Y62191D01*
X217418Y64382D02*
X219382Y64382D01*
D11*
X245642Y55592D02*
X250658Y55592D01*
X245642Y55592D02*
X245642Y64608D01*
X250658Y64608D01*
X250658Y55592D01*
X250658Y57733D02*
X245642Y57733D01*
X245642Y59874D02*
X250658Y59874D01*
X250658Y62015D02*
X245642Y62015D01*
X245642Y64156D02*
X250658Y64156D01*
X242908Y55592D02*
X237892Y55592D01*
X237892Y64608D01*
X242908Y64608D01*
X242908Y55592D01*
X242908Y57733D02*
X237892Y57733D01*
X237892Y59874D02*
X242908Y59874D01*
X242908Y62015D02*
X237892Y62015D01*
X237892Y64156D02*
X242908Y64156D01*
D21*
X234382Y55618D02*
X232418Y55618D01*
X232418Y64582D01*
X234382Y64582D01*
X234382Y55618D01*
X234382Y57809D02*
X232418Y57809D01*
X232418Y60000D02*
X234382Y60000D01*
X234382Y62191D02*
X232418Y62191D01*
X232418Y64382D02*
X234382Y64382D01*
X229382Y55618D02*
X227418Y55618D01*
X227418Y64582D01*
X229382Y64582D01*
X229382Y55618D01*
X229382Y57809D02*
X227418Y57809D01*
X227418Y60000D02*
X229382Y60000D01*
X229382Y62191D02*
X227418Y62191D01*
X227418Y64382D02*
X229382Y64382D01*
X209382Y64582D02*
X207418Y64582D01*
X209382Y64582D02*
X209382Y55618D01*
X207418Y55618D01*
X207418Y64582D01*
X207418Y57809D02*
X209382Y57809D01*
X209382Y60000D02*
X207418Y60000D01*
X207418Y62191D02*
X209382Y62191D01*
X209382Y64382D02*
X207418Y64382D01*
X212418Y64582D02*
X214382Y64582D01*
X214382Y55618D01*
X212418Y55618D01*
X212418Y64582D01*
X212418Y57809D02*
X214382Y57809D01*
X214382Y60000D02*
X212418Y60000D01*
X212418Y62191D02*
X214382Y62191D01*
X214382Y64382D02*
X212418Y64382D01*
D11*
X186158Y64608D02*
X181142Y64608D01*
X186158Y64608D02*
X186158Y55592D01*
X181142Y55592D01*
X181142Y64608D01*
X181142Y57733D02*
X186158Y57733D01*
X186158Y59874D02*
X181142Y59874D01*
X181142Y62015D02*
X186158Y62015D01*
X186158Y64156D02*
X181142Y64156D01*
X188892Y64608D02*
X193908Y64608D01*
X193908Y55592D01*
X188892Y55592D01*
X188892Y64608D01*
X188892Y57733D02*
X193908Y57733D01*
X193908Y59874D02*
X188892Y59874D01*
X188892Y62015D02*
X193908Y62015D01*
X193908Y64156D02*
X188892Y64156D01*
D21*
X197418Y64582D02*
X199382Y64582D01*
X199382Y55618D01*
X197418Y55618D01*
X197418Y64582D01*
X197418Y57809D02*
X199382Y57809D01*
X199382Y60000D02*
X197418Y60000D01*
X197418Y62191D02*
X199382Y62191D01*
X199382Y64382D02*
X197418Y64382D01*
X202418Y64582D02*
X204382Y64582D01*
X204382Y55618D01*
X202418Y55618D01*
X202418Y64582D01*
X202418Y57809D02*
X204382Y57809D01*
X204382Y60000D02*
X202418Y60000D01*
X202418Y62191D02*
X204382Y62191D01*
X204382Y64382D02*
X202418Y64382D01*
D22*
X187000Y49050D03*
X244800Y49050D03*
D12*
X177102Y105092D02*
X177102Y115108D01*
X186118Y115108D01*
X186118Y105092D01*
X177102Y105092D01*
X177102Y107233D02*
X186118Y107233D01*
X186118Y109374D02*
X177102Y109374D01*
X177102Y111515D02*
X186118Y111515D01*
X186118Y113656D02*
X177102Y113656D01*
X177102Y98108D02*
X177102Y88092D01*
X177102Y98108D02*
X186118Y98108D01*
X186118Y88092D01*
X177102Y88092D01*
X177102Y90233D02*
X186118Y90233D01*
X186118Y92374D02*
X177102Y92374D01*
X177102Y94515D02*
X186118Y94515D01*
X186118Y96656D02*
X177102Y96656D01*
X236792Y105092D02*
X236792Y115108D01*
X245808Y115108D01*
X245808Y105092D01*
X236792Y105092D01*
X236792Y107233D02*
X245808Y107233D01*
X245808Y109374D02*
X236792Y109374D01*
X236792Y111515D02*
X245808Y111515D01*
X245808Y113656D02*
X236792Y113656D01*
X236792Y98108D02*
X236792Y88092D01*
X236792Y98108D02*
X245808Y98108D01*
X245808Y88092D01*
X236792Y88092D01*
X236792Y90233D02*
X245808Y90233D01*
X245808Y92374D02*
X236792Y92374D01*
X236792Y94515D02*
X245808Y94515D01*
X245808Y96656D02*
X236792Y96656D01*
D17*
X227668Y121619D02*
X223132Y121619D01*
X227668Y121619D02*
X227668Y109083D01*
X223132Y109083D01*
X223132Y121619D01*
X223132Y111205D02*
X227668Y111205D01*
X227668Y113327D02*
X223132Y113327D01*
X223132Y115449D02*
X227668Y115449D01*
X227668Y117571D02*
X223132Y117571D01*
X223132Y119693D02*
X227668Y119693D01*
X218168Y121619D02*
X213632Y121619D01*
X218168Y121619D02*
X218168Y109083D01*
X213632Y109083D01*
X213632Y121619D01*
X213632Y111205D02*
X218168Y111205D01*
X218168Y113327D02*
X213632Y113327D01*
X213632Y115449D02*
X218168Y115449D01*
X218168Y117571D02*
X213632Y117571D01*
X213632Y119693D02*
X218168Y119693D01*
X208668Y121619D02*
X204132Y121619D01*
X208668Y121619D02*
X208668Y109083D01*
X204132Y109083D01*
X204132Y121619D01*
X204132Y111205D02*
X208668Y111205D01*
X208668Y113327D02*
X204132Y113327D01*
X204132Y115449D02*
X208668Y115449D01*
X208668Y117571D02*
X204132Y117571D01*
X204132Y119693D02*
X208668Y119693D01*
X208668Y94117D02*
X204132Y94117D01*
X208668Y94117D02*
X208668Y81581D01*
X204132Y81581D01*
X204132Y94117D01*
X204132Y83703D02*
X208668Y83703D01*
X208668Y85825D02*
X204132Y85825D01*
X204132Y87947D02*
X208668Y87947D01*
X208668Y90069D02*
X204132Y90069D01*
X204132Y92191D02*
X208668Y92191D01*
X213632Y94117D02*
X218168Y94117D01*
X218168Y81581D01*
X213632Y81581D01*
X213632Y94117D01*
X213632Y83703D02*
X218168Y83703D01*
X218168Y85825D02*
X213632Y85825D01*
X213632Y87947D02*
X218168Y87947D01*
X218168Y90069D02*
X213632Y90069D01*
X213632Y92191D02*
X218168Y92191D01*
X223132Y94117D02*
X227668Y94117D01*
X227668Y81581D01*
X223132Y81581D01*
X223132Y94117D01*
X223132Y83703D02*
X227668Y83703D01*
X227668Y85825D02*
X223132Y85825D01*
X223132Y87947D02*
X227668Y87947D01*
X227668Y90069D02*
X223132Y90069D01*
X223132Y92191D02*
X227668Y92191D01*
D25*
X263050Y110450D02*
X263050Y115750D01*
X270350Y115750D01*
X270350Y110450D01*
X263050Y110450D01*
X263050Y112607D02*
X270350Y112607D01*
X270350Y114764D02*
X263050Y114764D01*
X263050Y92750D02*
X263050Y87450D01*
X263050Y92750D02*
X270350Y92750D01*
X270350Y87450D01*
X263050Y87450D01*
X263050Y89607D02*
X270350Y89607D01*
X270350Y91764D02*
X263050Y91764D01*
X288450Y110450D02*
X288450Y115750D01*
X295750Y115750D01*
X295750Y110450D01*
X288450Y110450D01*
X288450Y112607D02*
X295750Y112607D01*
X295750Y114764D02*
X288450Y114764D01*
X288450Y92750D02*
X288450Y87450D01*
X288450Y92750D02*
X295750Y92750D01*
X295750Y87450D01*
X288450Y87450D01*
X288450Y89607D02*
X295750Y89607D01*
X295750Y91764D02*
X288450Y91764D01*
D26*
X408178Y156210D02*
X410972Y156210D01*
X410972Y145796D01*
X408178Y145796D01*
X408178Y156210D01*
X408178Y147968D02*
X410972Y147968D01*
X410972Y150140D02*
X408178Y150140D01*
X408178Y152312D02*
X410972Y152312D01*
X410972Y154484D02*
X408178Y154484D01*
X404622Y156210D02*
X401828Y156210D01*
X404622Y156210D02*
X404622Y145796D01*
X401828Y145796D01*
X401828Y156210D01*
X401828Y147968D02*
X404622Y147968D01*
X404622Y150140D02*
X401828Y150140D01*
X401828Y152312D02*
X404622Y152312D01*
X404622Y154484D02*
X401828Y154484D01*
X398272Y156210D02*
X395478Y156210D01*
X398272Y156210D02*
X398272Y145796D01*
X395478Y145796D01*
X395478Y156210D01*
X395478Y147968D02*
X398272Y147968D01*
X398272Y150140D02*
X395478Y150140D01*
X395478Y152312D02*
X398272Y152312D01*
X398272Y154484D02*
X395478Y154484D01*
X391922Y156210D02*
X389128Y156210D01*
X391922Y156210D02*
X391922Y145796D01*
X389128Y145796D01*
X389128Y156210D01*
X389128Y147968D02*
X391922Y147968D01*
X391922Y150140D02*
X389128Y150140D01*
X389128Y152312D02*
X391922Y152312D01*
X391922Y154484D02*
X389128Y154484D01*
X385572Y156210D02*
X382778Y156210D01*
X385572Y156210D02*
X385572Y145796D01*
X382778Y145796D01*
X382778Y156210D01*
X382778Y147968D02*
X385572Y147968D01*
X385572Y150140D02*
X382778Y150140D01*
X382778Y152312D02*
X385572Y152312D01*
X385572Y154484D02*
X382778Y154484D01*
X379222Y156210D02*
X376428Y156210D01*
X379222Y156210D02*
X379222Y145796D01*
X376428Y145796D01*
X376428Y156210D01*
X376428Y147968D02*
X379222Y147968D01*
X379222Y150140D02*
X376428Y150140D01*
X376428Y152312D02*
X379222Y152312D01*
X379222Y154484D02*
X376428Y154484D01*
X414528Y156210D02*
X417322Y156210D01*
X417322Y145796D01*
X414528Y145796D01*
X414528Y156210D01*
X414528Y147968D02*
X417322Y147968D01*
X417322Y150140D02*
X414528Y150140D01*
X414528Y152312D02*
X417322Y152312D01*
X417322Y154484D02*
X414528Y154484D01*
X420878Y156210D02*
X423672Y156210D01*
X423672Y145796D01*
X420878Y145796D01*
X420878Y156210D01*
X420878Y147968D02*
X423672Y147968D01*
X423672Y150140D02*
X420878Y150140D01*
X420878Y152312D02*
X423672Y152312D01*
X423672Y154484D02*
X420878Y154484D01*
X427228Y156210D02*
X430022Y156210D01*
X430022Y145796D01*
X427228Y145796D01*
X427228Y156210D01*
X427228Y147968D02*
X430022Y147968D01*
X430022Y150140D02*
X427228Y150140D01*
X427228Y152312D02*
X430022Y152312D01*
X430022Y154484D02*
X427228Y154484D01*
X433578Y156210D02*
X436372Y156210D01*
X436372Y145796D01*
X433578Y145796D01*
X433578Y156210D01*
X433578Y147968D02*
X436372Y147968D01*
X436372Y150140D02*
X433578Y150140D01*
X433578Y152312D02*
X436372Y152312D01*
X436372Y154484D02*
X433578Y154484D01*
X404622Y199390D02*
X401828Y199390D01*
X401828Y209804D01*
X404622Y209804D01*
X404622Y199390D01*
X404622Y201562D02*
X401828Y201562D01*
X401828Y203734D02*
X404622Y203734D01*
X404622Y205906D02*
X401828Y205906D01*
X401828Y208078D02*
X404622Y208078D01*
X408178Y199390D02*
X410972Y199390D01*
X408178Y199390D02*
X408178Y209804D01*
X410972Y209804D01*
X410972Y199390D01*
X410972Y201562D02*
X408178Y201562D01*
X408178Y203734D02*
X410972Y203734D01*
X410972Y205906D02*
X408178Y205906D01*
X408178Y208078D02*
X410972Y208078D01*
X414528Y199390D02*
X417322Y199390D01*
X414528Y199390D02*
X414528Y209804D01*
X417322Y209804D01*
X417322Y199390D01*
X417322Y201562D02*
X414528Y201562D01*
X414528Y203734D02*
X417322Y203734D01*
X417322Y205906D02*
X414528Y205906D01*
X414528Y208078D02*
X417322Y208078D01*
X420878Y199390D02*
X423672Y199390D01*
X420878Y199390D02*
X420878Y209804D01*
X423672Y209804D01*
X423672Y199390D01*
X423672Y201562D02*
X420878Y201562D01*
X420878Y203734D02*
X423672Y203734D01*
X423672Y205906D02*
X420878Y205906D01*
X420878Y208078D02*
X423672Y208078D01*
X427228Y199390D02*
X430022Y199390D01*
X427228Y199390D02*
X427228Y209804D01*
X430022Y209804D01*
X430022Y199390D01*
X430022Y201562D02*
X427228Y201562D01*
X427228Y203734D02*
X430022Y203734D01*
X430022Y205906D02*
X427228Y205906D01*
X427228Y208078D02*
X430022Y208078D01*
X433578Y199390D02*
X436372Y199390D01*
X433578Y199390D02*
X433578Y209804D01*
X436372Y209804D01*
X436372Y199390D01*
X436372Y201562D02*
X433578Y201562D01*
X433578Y203734D02*
X436372Y203734D01*
X436372Y205906D02*
X433578Y205906D01*
X433578Y208078D02*
X436372Y208078D01*
X398272Y199390D02*
X395478Y199390D01*
X395478Y209804D01*
X398272Y209804D01*
X398272Y199390D01*
X398272Y201562D02*
X395478Y201562D01*
X395478Y203734D02*
X398272Y203734D01*
X398272Y205906D02*
X395478Y205906D01*
X395478Y208078D02*
X398272Y208078D01*
X391922Y199390D02*
X389128Y199390D01*
X389128Y209804D01*
X391922Y209804D01*
X391922Y199390D01*
X391922Y201562D02*
X389128Y201562D01*
X389128Y203734D02*
X391922Y203734D01*
X391922Y205906D02*
X389128Y205906D01*
X389128Y208078D02*
X391922Y208078D01*
X385572Y199390D02*
X382778Y199390D01*
X382778Y209804D01*
X385572Y209804D01*
X385572Y199390D01*
X385572Y201562D02*
X382778Y201562D01*
X382778Y203734D02*
X385572Y203734D01*
X385572Y205906D02*
X382778Y205906D01*
X382778Y208078D02*
X385572Y208078D01*
X379222Y199390D02*
X376428Y199390D01*
X376428Y209804D01*
X379222Y209804D01*
X379222Y199390D01*
X379222Y201562D02*
X376428Y201562D01*
X376428Y203734D02*
X379222Y203734D01*
X379222Y205906D02*
X376428Y205906D01*
X376428Y208078D02*
X379222Y208078D01*
D12*
X399242Y131382D02*
X409258Y131382D01*
X399242Y131382D02*
X399242Y140398D01*
X409258Y140398D01*
X409258Y131382D01*
X409258Y133523D02*
X399242Y133523D01*
X399242Y135664D02*
X409258Y135664D01*
X409258Y137805D02*
X399242Y137805D01*
X399242Y139946D02*
X409258Y139946D01*
X416242Y131382D02*
X426258Y131382D01*
X416242Y131382D02*
X416242Y140398D01*
X426258Y140398D01*
X426258Y131382D01*
X426258Y133523D02*
X416242Y133523D01*
X416242Y135664D02*
X426258Y135664D01*
X426258Y137805D02*
X416242Y137805D01*
X416242Y139946D02*
X426258Y139946D01*
X424988Y224218D02*
X414972Y224218D01*
X424988Y224218D02*
X424988Y215202D01*
X414972Y215202D01*
X414972Y224218D01*
X414972Y217343D02*
X424988Y217343D01*
X424988Y219484D02*
X414972Y219484D01*
X414972Y221625D02*
X424988Y221625D01*
X424988Y223766D02*
X414972Y223766D01*
X407988Y224218D02*
X397972Y224218D01*
X407988Y224218D02*
X407988Y215202D01*
X397972Y215202D01*
X397972Y224218D01*
X397972Y217343D02*
X407988Y217343D01*
X407988Y219484D02*
X397972Y219484D01*
X397972Y221625D02*
X407988Y221625D01*
X407988Y223766D02*
X397972Y223766D01*
X65342Y486092D02*
X65342Y496108D01*
X74358Y496108D01*
X74358Y486092D01*
X65342Y486092D01*
X65342Y488233D02*
X74358Y488233D01*
X74358Y490374D02*
X65342Y490374D01*
X65342Y492515D02*
X74358Y492515D01*
X74358Y494656D02*
X65342Y494656D01*
X65342Y479108D02*
X65342Y469092D01*
X65342Y479108D02*
X74358Y479108D01*
X74358Y469092D01*
X65342Y469092D01*
X65342Y471233D02*
X74358Y471233D01*
X74358Y473374D02*
X65342Y473374D01*
X65342Y475515D02*
X74358Y475515D01*
X74358Y477656D02*
X65342Y477656D01*
X80074Y486092D02*
X80074Y496108D01*
X89090Y496108D01*
X89090Y486092D01*
X80074Y486092D01*
X80074Y488233D02*
X89090Y488233D01*
X89090Y490374D02*
X80074Y490374D01*
X80074Y492515D02*
X89090Y492515D01*
X89090Y494656D02*
X80074Y494656D01*
X80074Y479108D02*
X80074Y469092D01*
X80074Y479108D02*
X89090Y479108D01*
X89090Y469092D01*
X80074Y469092D01*
X80074Y471233D02*
X89090Y471233D01*
X89090Y473374D02*
X80074Y473374D01*
X80074Y475515D02*
X89090Y475515D01*
X89090Y477656D02*
X80074Y477656D01*
X144208Y124778D02*
X144208Y114762D01*
X135192Y114762D01*
X135192Y124778D01*
X144208Y124778D01*
X144208Y116903D02*
X135192Y116903D01*
X135192Y119044D02*
X144208Y119044D01*
X144208Y121185D02*
X135192Y121185D01*
X135192Y123326D02*
X144208Y123326D01*
X144208Y131762D02*
X144208Y141778D01*
X144208Y131762D02*
X135192Y131762D01*
X135192Y141778D01*
X144208Y141778D01*
X144208Y133903D02*
X135192Y133903D01*
X135192Y136044D02*
X144208Y136044D01*
X144208Y138185D02*
X135192Y138185D01*
X135192Y140326D02*
X144208Y140326D01*
X150432Y141778D02*
X150432Y131762D01*
X150432Y141778D02*
X159448Y141778D01*
X159448Y131762D01*
X150432Y131762D01*
X150432Y133903D02*
X159448Y133903D01*
X159448Y136044D02*
X150432Y136044D01*
X150432Y138185D02*
X159448Y138185D01*
X159448Y140326D02*
X150432Y140326D01*
X150432Y124778D02*
X150432Y114762D01*
X150432Y124778D02*
X159448Y124778D01*
X159448Y114762D01*
X150432Y114762D01*
X150432Y116903D02*
X159448Y116903D01*
X159448Y119044D02*
X150432Y119044D01*
X150432Y121185D02*
X159448Y121185D01*
X159448Y123326D02*
X150432Y123326D01*
X399242Y116142D02*
X409258Y116142D01*
X399242Y116142D02*
X399242Y125158D01*
X409258Y125158D01*
X409258Y116142D01*
X409258Y118283D02*
X399242Y118283D01*
X399242Y120424D02*
X409258Y120424D01*
X409258Y122565D02*
X399242Y122565D01*
X399242Y124706D02*
X409258Y124706D01*
X416242Y116142D02*
X426258Y116142D01*
X416242Y116142D02*
X416242Y125158D01*
X426258Y125158D01*
X426258Y116142D01*
X426258Y118283D02*
X416242Y118283D01*
X416242Y120424D02*
X426258Y120424D01*
X426258Y122565D02*
X416242Y122565D01*
X416242Y124706D02*
X426258Y124706D01*
D27*
X98588Y328212D02*
X98588Y357588D01*
X98588Y328212D02*
X79212Y328212D01*
X79212Y357588D01*
X98588Y357588D01*
X98588Y330487D02*
X79212Y330487D01*
X79212Y332762D02*
X98588Y332762D01*
X98588Y335037D02*
X79212Y335037D01*
X79212Y337312D02*
X98588Y337312D01*
X98588Y339587D02*
X79212Y339587D01*
X79212Y341862D02*
X98588Y341862D01*
X98588Y344137D02*
X79212Y344137D01*
X79212Y346412D02*
X98588Y346412D01*
X98588Y348687D02*
X79212Y348687D01*
X79212Y350962D02*
X98588Y350962D01*
X98588Y353237D02*
X79212Y353237D01*
X79212Y355512D02*
X98588Y355512D01*
X447512Y379012D02*
X447512Y408388D01*
X466888Y408388D01*
X466888Y379012D01*
X447512Y379012D01*
X447512Y381287D02*
X466888Y381287D01*
X466888Y383562D02*
X447512Y383562D01*
X447512Y385837D02*
X466888Y385837D01*
X466888Y388112D02*
X447512Y388112D01*
X447512Y390387D02*
X466888Y390387D01*
X466888Y392662D02*
X447512Y392662D01*
X447512Y394937D02*
X466888Y394937D01*
X466888Y397212D02*
X447512Y397212D01*
X447512Y399487D02*
X466888Y399487D01*
X466888Y401762D02*
X447512Y401762D01*
X447512Y404037D02*
X466888Y404037D01*
X466888Y406312D02*
X447512Y406312D01*
D12*
X433514Y416514D02*
X433514Y426530D01*
X433514Y416514D02*
X424498Y416514D01*
X424498Y426530D01*
X433514Y426530D01*
X433514Y418655D02*
X424498Y418655D01*
X424498Y420796D02*
X433514Y420796D01*
X433514Y422937D02*
X424498Y422937D01*
X424498Y425078D02*
X433514Y425078D01*
X433514Y433514D02*
X433514Y443530D01*
X433514Y433514D02*
X424498Y433514D01*
X424498Y443530D01*
X433514Y443530D01*
X433514Y435655D02*
X424498Y435655D01*
X424498Y437796D02*
X433514Y437796D01*
X433514Y439937D02*
X424498Y439937D01*
X424498Y442078D02*
X433514Y442078D01*
X468566Y434276D02*
X478582Y434276D01*
X478582Y425260D01*
X468566Y425260D01*
X468566Y434276D01*
X468566Y427401D02*
X478582Y427401D01*
X478582Y429542D02*
X468566Y429542D01*
X468566Y431683D02*
X478582Y431683D01*
X478582Y433824D02*
X468566Y433824D01*
X461582Y434276D02*
X451566Y434276D01*
X461582Y434276D02*
X461582Y425260D01*
X451566Y425260D01*
X451566Y434276D01*
X451566Y427401D02*
X461582Y427401D01*
X461582Y429542D02*
X451566Y429542D01*
X451566Y431683D02*
X461582Y431683D01*
X461582Y433824D02*
X451566Y433824D01*
X125032Y316548D02*
X115016Y316548D01*
X115016Y325564D01*
X125032Y325564D01*
X125032Y316548D01*
X125032Y318689D02*
X115016Y318689D01*
X115016Y320830D02*
X125032Y320830D01*
X125032Y322971D02*
X115016Y322971D01*
X115016Y325112D02*
X125032Y325112D01*
X132016Y316548D02*
X142032Y316548D01*
X132016Y316548D02*
X132016Y325564D01*
X142032Y325564D01*
X142032Y316548D01*
X142032Y318689D02*
X132016Y318689D01*
X132016Y320830D02*
X142032Y320830D01*
X142032Y322971D02*
X132016Y322971D01*
X132016Y325112D02*
X142032Y325112D01*
X78042Y301308D02*
X68026Y301308D01*
X68026Y310324D01*
X78042Y310324D01*
X78042Y301308D01*
X78042Y303449D02*
X68026Y303449D01*
X68026Y305590D02*
X78042Y305590D01*
X78042Y307731D02*
X68026Y307731D01*
X68026Y309872D02*
X78042Y309872D01*
X85026Y301308D02*
X95042Y301308D01*
X85026Y301308D02*
X85026Y310324D01*
X95042Y310324D01*
X95042Y301308D01*
X95042Y303449D02*
X85026Y303449D01*
X85026Y305590D02*
X95042Y305590D01*
X95042Y307731D02*
X85026Y307731D01*
X85026Y309872D02*
X95042Y309872D01*
M02*
