G04 EAGLE Gerber RS-274X export*
G75*
%MOMM*%
%FSLAX34Y34*%
%LPD*%
%INInner Layer 15*%
%IPPOS*%
%AMOC8*
5,1,8,0,0,1.08239X$1,22.5*%
G01*
%ADD10C,0.279400*%
%ADD11C,1.524000*%
%ADD12C,0.558800*%
%ADD13C,0.254000*%
%ADD14C,0.762000*%

G36*
X166621Y2810D02*
X166621Y2810D01*
X166740Y2817D01*
X166778Y2830D01*
X166819Y2835D01*
X166929Y2878D01*
X167042Y2915D01*
X167077Y2937D01*
X167114Y2952D01*
X167210Y3021D01*
X167311Y3085D01*
X167339Y3115D01*
X167372Y3138D01*
X167448Y3230D01*
X167529Y3317D01*
X167549Y3352D01*
X167574Y3383D01*
X167625Y3491D01*
X167683Y3595D01*
X167693Y3635D01*
X167710Y3671D01*
X167732Y3788D01*
X167762Y3903D01*
X167766Y3963D01*
X167770Y3983D01*
X167768Y4004D01*
X167772Y4064D01*
X167772Y20553D01*
X167847Y20628D01*
X177953Y20628D01*
X178028Y20553D01*
X178028Y4064D01*
X178043Y3946D01*
X178050Y3827D01*
X178063Y3789D01*
X178068Y3748D01*
X178111Y3638D01*
X178148Y3525D01*
X178170Y3490D01*
X178185Y3453D01*
X178254Y3357D01*
X178318Y3256D01*
X178348Y3228D01*
X178371Y3195D01*
X178463Y3119D01*
X178550Y3038D01*
X178585Y3018D01*
X178616Y2993D01*
X178724Y2942D01*
X178828Y2884D01*
X178868Y2874D01*
X178904Y2857D01*
X179021Y2835D01*
X179136Y2805D01*
X179196Y2801D01*
X179216Y2797D01*
X179237Y2799D01*
X179297Y2795D01*
X252503Y2795D01*
X252621Y2810D01*
X252740Y2817D01*
X252778Y2830D01*
X252819Y2835D01*
X252929Y2878D01*
X253042Y2915D01*
X253077Y2937D01*
X253114Y2952D01*
X253210Y3021D01*
X253311Y3085D01*
X253339Y3115D01*
X253372Y3138D01*
X253448Y3230D01*
X253529Y3317D01*
X253549Y3352D01*
X253574Y3383D01*
X253625Y3491D01*
X253683Y3595D01*
X253693Y3635D01*
X253710Y3671D01*
X253732Y3788D01*
X253762Y3903D01*
X253766Y3963D01*
X253770Y3983D01*
X253768Y4004D01*
X253772Y4064D01*
X253772Y20553D01*
X253847Y20628D01*
X263953Y20628D01*
X264028Y20553D01*
X264028Y4064D01*
X264043Y3946D01*
X264050Y3827D01*
X264063Y3789D01*
X264068Y3748D01*
X264111Y3638D01*
X264148Y3525D01*
X264170Y3490D01*
X264185Y3453D01*
X264254Y3357D01*
X264318Y3256D01*
X264348Y3228D01*
X264371Y3195D01*
X264463Y3119D01*
X264550Y3038D01*
X264585Y3018D01*
X264616Y2993D01*
X264724Y2942D01*
X264828Y2884D01*
X264868Y2874D01*
X264904Y2857D01*
X265021Y2835D01*
X265136Y2805D01*
X265196Y2801D01*
X265216Y2797D01*
X265237Y2799D01*
X265297Y2795D01*
X293503Y2795D01*
X293621Y2810D01*
X293740Y2817D01*
X293778Y2830D01*
X293819Y2835D01*
X293929Y2878D01*
X294042Y2915D01*
X294077Y2937D01*
X294114Y2952D01*
X294210Y3021D01*
X294311Y3085D01*
X294339Y3115D01*
X294372Y3138D01*
X294448Y3230D01*
X294529Y3317D01*
X294549Y3352D01*
X294574Y3383D01*
X294625Y3491D01*
X294683Y3595D01*
X294693Y3635D01*
X294710Y3671D01*
X294732Y3788D01*
X294762Y3903D01*
X294766Y3963D01*
X294770Y3983D01*
X294768Y4004D01*
X294772Y4064D01*
X294772Y20553D01*
X294847Y20628D01*
X304953Y20628D01*
X305028Y20553D01*
X305028Y4064D01*
X305043Y3946D01*
X305050Y3827D01*
X305063Y3789D01*
X305068Y3748D01*
X305111Y3638D01*
X305148Y3525D01*
X305170Y3490D01*
X305185Y3453D01*
X305254Y3357D01*
X305318Y3256D01*
X305348Y3228D01*
X305371Y3195D01*
X305463Y3119D01*
X305550Y3038D01*
X305585Y3018D01*
X305616Y2993D01*
X305724Y2942D01*
X305828Y2884D01*
X305868Y2874D01*
X305904Y2857D01*
X306021Y2835D01*
X306136Y2805D01*
X306196Y2801D01*
X306216Y2797D01*
X306237Y2799D01*
X306297Y2795D01*
X379503Y2795D01*
X379621Y2810D01*
X379740Y2817D01*
X379778Y2830D01*
X379819Y2835D01*
X379929Y2878D01*
X380042Y2915D01*
X380077Y2937D01*
X380114Y2952D01*
X380210Y3021D01*
X380311Y3085D01*
X380339Y3115D01*
X380372Y3138D01*
X380448Y3230D01*
X380529Y3317D01*
X380549Y3352D01*
X380574Y3383D01*
X380625Y3491D01*
X380683Y3595D01*
X380693Y3635D01*
X380710Y3671D01*
X380732Y3788D01*
X380762Y3903D01*
X380766Y3963D01*
X380770Y3983D01*
X380768Y4004D01*
X380772Y4064D01*
X380772Y20553D01*
X380847Y20628D01*
X390953Y20628D01*
X391028Y20553D01*
X391028Y4064D01*
X391043Y3946D01*
X391050Y3827D01*
X391063Y3789D01*
X391068Y3748D01*
X391111Y3638D01*
X391148Y3525D01*
X391170Y3490D01*
X391185Y3453D01*
X391254Y3357D01*
X391318Y3256D01*
X391348Y3228D01*
X391371Y3195D01*
X391463Y3119D01*
X391550Y3038D01*
X391585Y3018D01*
X391616Y2993D01*
X391724Y2942D01*
X391828Y2884D01*
X391868Y2874D01*
X391904Y2857D01*
X392021Y2835D01*
X392136Y2805D01*
X392196Y2801D01*
X392216Y2797D01*
X392237Y2799D01*
X392297Y2795D01*
X506317Y2795D01*
X506415Y2807D01*
X506514Y2810D01*
X506572Y2827D01*
X506632Y2835D01*
X506724Y2871D01*
X506819Y2899D01*
X506872Y2929D01*
X506928Y2952D01*
X507008Y3010D01*
X507093Y3060D01*
X507169Y3126D01*
X507185Y3138D01*
X507193Y3148D01*
X507214Y3166D01*
X530234Y26186D01*
X530294Y26264D01*
X530362Y26336D01*
X530391Y26389D01*
X530428Y26437D01*
X530468Y26528D01*
X530516Y26615D01*
X530531Y26673D01*
X530555Y26729D01*
X530570Y26827D01*
X530595Y26923D01*
X530601Y27023D01*
X530605Y27043D01*
X530603Y27055D01*
X530605Y27083D01*
X530605Y380823D01*
X530588Y380961D01*
X530575Y381099D01*
X530568Y381118D01*
X530565Y381138D01*
X530514Y381267D01*
X530467Y381398D01*
X530456Y381415D01*
X530448Y381434D01*
X530367Y381546D01*
X530289Y381661D01*
X530273Y381675D01*
X530262Y381691D01*
X530154Y381780D01*
X530050Y381872D01*
X530032Y381881D01*
X530017Y381894D01*
X529891Y381953D01*
X529767Y382016D01*
X529747Y382021D01*
X529729Y382030D01*
X529592Y382056D01*
X529457Y382086D01*
X529436Y382086D01*
X529417Y382089D01*
X529278Y382081D01*
X529139Y382076D01*
X529119Y382071D01*
X529099Y382070D01*
X528967Y382027D01*
X528833Y381988D01*
X528816Y381978D01*
X528797Y381972D01*
X528679Y381897D01*
X528559Y381827D01*
X528538Y381808D01*
X528528Y381801D01*
X528514Y381786D01*
X528439Y381720D01*
X527464Y380745D01*
X524096Y380745D01*
X521715Y383126D01*
X521715Y386494D01*
X524096Y388875D01*
X527464Y388875D01*
X528439Y387900D01*
X528548Y387815D01*
X528655Y387726D01*
X528674Y387717D01*
X528690Y387705D01*
X528817Y387650D01*
X528943Y387590D01*
X528963Y387587D01*
X528982Y387579D01*
X529120Y387557D01*
X529256Y387531D01*
X529276Y387532D01*
X529296Y387529D01*
X529435Y387542D01*
X529573Y387550D01*
X529592Y387557D01*
X529612Y387559D01*
X529744Y387606D01*
X529875Y387648D01*
X529893Y387659D01*
X529912Y387666D01*
X530027Y387744D01*
X530144Y387819D01*
X530158Y387833D01*
X530175Y387845D01*
X530267Y387949D01*
X530362Y388050D01*
X530372Y388068D01*
X530385Y388083D01*
X530449Y388207D01*
X530516Y388329D01*
X530521Y388348D01*
X530530Y388366D01*
X530560Y388501D01*
X530595Y388637D01*
X530597Y388665D01*
X530600Y388677D01*
X530599Y388697D01*
X530605Y388797D01*
X530605Y481661D01*
X530588Y481799D01*
X530575Y481937D01*
X530568Y481956D01*
X530565Y481976D01*
X530514Y482105D01*
X530467Y482237D01*
X530456Y482253D01*
X530448Y482272D01*
X530367Y482384D01*
X530288Y482500D01*
X530273Y482513D01*
X530262Y482529D01*
X530154Y482618D01*
X530050Y482710D01*
X530032Y482719D01*
X530017Y482732D01*
X529891Y482791D01*
X529767Y482855D01*
X529747Y482859D01*
X529729Y482868D01*
X529593Y482894D01*
X529456Y482924D01*
X529436Y482924D01*
X529417Y482927D01*
X529278Y482919D01*
X529139Y482914D01*
X529119Y482909D01*
X529099Y482908D01*
X528967Y482865D01*
X528927Y482853D01*
X525366Y482853D01*
X522985Y485234D01*
X522985Y488602D01*
X525366Y490983D01*
X528913Y490983D01*
X528943Y490968D01*
X528963Y490965D01*
X528981Y490957D01*
X529119Y490935D01*
X529256Y490909D01*
X529276Y490910D01*
X529295Y490907D01*
X529434Y490920D01*
X529573Y490928D01*
X529592Y490935D01*
X529612Y490937D01*
X529743Y490984D01*
X529875Y491026D01*
X529892Y491037D01*
X529911Y491044D01*
X530027Y491122D01*
X530144Y491197D01*
X530158Y491211D01*
X530175Y491223D01*
X530266Y491327D01*
X530362Y491428D01*
X530372Y491446D01*
X530385Y491461D01*
X530448Y491585D01*
X530516Y491707D01*
X530521Y491726D01*
X530530Y491744D01*
X530560Y491880D01*
X530595Y492015D01*
X530597Y492043D01*
X530599Y492054D01*
X530599Y492075D01*
X530605Y492175D01*
X530605Y504190D01*
X530590Y504308D01*
X530583Y504427D01*
X530570Y504465D01*
X530565Y504506D01*
X530522Y504616D01*
X530485Y504729D01*
X530463Y504764D01*
X530448Y504801D01*
X530379Y504897D01*
X530315Y504998D01*
X530285Y505026D01*
X530262Y505059D01*
X530170Y505135D01*
X530083Y505216D01*
X530048Y505236D01*
X530017Y505261D01*
X529909Y505312D01*
X529805Y505370D01*
X529765Y505380D01*
X529729Y505397D01*
X529612Y505419D01*
X529497Y505449D01*
X529437Y505453D01*
X529417Y505457D01*
X529396Y505455D01*
X529336Y505459D01*
X513087Y505459D01*
X513018Y505451D01*
X512948Y505452D01*
X512861Y505431D01*
X512771Y505419D01*
X512706Y505394D01*
X512639Y505377D01*
X512559Y505335D01*
X512476Y505302D01*
X512419Y505261D01*
X512358Y505229D01*
X512291Y505168D01*
X512218Y505116D01*
X512174Y505062D01*
X512122Y505015D01*
X512073Y504940D01*
X512016Y504871D01*
X511986Y504807D01*
X511947Y504749D01*
X511918Y504664D01*
X511880Y504583D01*
X511867Y504514D01*
X511844Y504448D01*
X511837Y504359D01*
X511820Y504271D01*
X511825Y504201D01*
X511819Y504131D01*
X511834Y504043D01*
X511840Y503953D01*
X511861Y503887D01*
X511873Y503818D01*
X511910Y503736D01*
X511938Y503651D01*
X511975Y503592D01*
X512004Y503528D01*
X512060Y503458D01*
X512108Y503382D01*
X512159Y503334D01*
X512203Y503280D01*
X512274Y503225D01*
X512340Y503164D01*
X512401Y503130D01*
X512457Y503088D01*
X512601Y503017D01*
X513036Y502837D01*
X515537Y500336D01*
X516891Y497069D01*
X516891Y493531D01*
X515537Y490264D01*
X513036Y487763D01*
X509769Y486409D01*
X506231Y486409D01*
X503280Y487632D01*
X503213Y487650D01*
X503149Y487678D01*
X503060Y487692D01*
X502973Y487716D01*
X502903Y487717D01*
X502834Y487728D01*
X502745Y487719D01*
X502655Y487721D01*
X502587Y487705D01*
X502518Y487698D01*
X502433Y487668D01*
X502346Y487647D01*
X502284Y487614D01*
X502219Y487590D01*
X502213Y487587D01*
X502231Y487678D01*
X502261Y487813D01*
X502261Y487834D01*
X502264Y487853D01*
X502256Y487992D01*
X502251Y488131D01*
X502246Y488151D01*
X502245Y488171D01*
X502202Y488303D01*
X502163Y488437D01*
X502153Y488454D01*
X502147Y488473D01*
X502072Y488591D01*
X502002Y488711D01*
X501983Y488732D01*
X501976Y488742D01*
X501961Y488756D01*
X501895Y488831D01*
X500463Y490264D01*
X499109Y493531D01*
X499109Y497069D01*
X500463Y500336D01*
X502964Y502837D01*
X503399Y503017D01*
X503459Y503052D01*
X503524Y503078D01*
X503597Y503130D01*
X503675Y503175D01*
X503725Y503223D01*
X503782Y503264D01*
X503839Y503334D01*
X503903Y503396D01*
X503940Y503456D01*
X503984Y503509D01*
X504023Y503591D01*
X504070Y503667D01*
X504090Y503734D01*
X504120Y503797D01*
X504137Y503885D01*
X504163Y503971D01*
X504167Y504041D01*
X504180Y504110D01*
X504174Y504199D01*
X504178Y504289D01*
X504164Y504357D01*
X504160Y504427D01*
X504132Y504512D01*
X504114Y504600D01*
X504083Y504663D01*
X504062Y504729D01*
X504014Y504805D01*
X503974Y504886D01*
X503929Y504939D01*
X503892Y504998D01*
X503826Y505060D01*
X503768Y505128D01*
X503711Y505168D01*
X503660Y505216D01*
X503582Y505259D01*
X503508Y505311D01*
X503443Y505336D01*
X503382Y505370D01*
X503295Y505392D01*
X503211Y505424D01*
X503141Y505432D01*
X503074Y505449D01*
X502913Y505459D01*
X495223Y505459D01*
X495086Y505442D01*
X494947Y505429D01*
X494928Y505422D01*
X494908Y505419D01*
X494779Y505368D01*
X494648Y505321D01*
X494631Y505310D01*
X494612Y505302D01*
X494500Y505221D01*
X494385Y505143D01*
X494371Y505127D01*
X494355Y505116D01*
X494266Y505008D01*
X494174Y504904D01*
X494165Y504886D01*
X494152Y504871D01*
X494093Y504745D01*
X494030Y504621D01*
X494025Y504601D01*
X494016Y504583D01*
X493990Y504447D01*
X493960Y504311D01*
X493961Y504290D01*
X493957Y504271D01*
X493965Y504132D01*
X493970Y503993D01*
X493975Y503973D01*
X493976Y503953D01*
X494019Y503821D01*
X494058Y503687D01*
X494068Y503670D01*
X494074Y503651D01*
X494149Y503533D01*
X494219Y503413D01*
X494238Y503392D01*
X494245Y503382D01*
X494260Y503368D01*
X494326Y503293D01*
X495555Y502064D01*
X495555Y498696D01*
X493174Y496315D01*
X489806Y496315D01*
X487425Y498696D01*
X487425Y502064D01*
X488654Y503293D01*
X488739Y503402D01*
X488828Y503509D01*
X488837Y503528D01*
X488849Y503544D01*
X488904Y503672D01*
X488964Y503797D01*
X488967Y503817D01*
X488975Y503836D01*
X488997Y503974D01*
X489023Y504110D01*
X489022Y504130D01*
X489025Y504150D01*
X489012Y504289D01*
X489004Y504427D01*
X488997Y504446D01*
X488995Y504466D01*
X488948Y504598D01*
X488906Y504729D01*
X488895Y504747D01*
X488888Y504766D01*
X488810Y504881D01*
X488735Y504998D01*
X488721Y505012D01*
X488709Y505029D01*
X488605Y505121D01*
X488504Y505216D01*
X488486Y505226D01*
X488471Y505239D01*
X488347Y505302D01*
X488225Y505370D01*
X488206Y505375D01*
X488188Y505384D01*
X488052Y505414D01*
X487917Y505449D01*
X487889Y505451D01*
X487877Y505454D01*
X487857Y505453D01*
X487757Y505459D01*
X478713Y505459D01*
X478576Y505442D01*
X478437Y505429D01*
X478418Y505422D01*
X478398Y505419D01*
X478269Y505368D01*
X478138Y505321D01*
X478121Y505310D01*
X478102Y505302D01*
X477990Y505221D01*
X477875Y505143D01*
X477861Y505127D01*
X477845Y505116D01*
X477756Y505008D01*
X477664Y504904D01*
X477655Y504886D01*
X477642Y504871D01*
X477583Y504745D01*
X477520Y504621D01*
X477515Y504601D01*
X477506Y504583D01*
X477480Y504447D01*
X477450Y504311D01*
X477451Y504290D01*
X477447Y504271D01*
X477455Y504132D01*
X477460Y503993D01*
X477465Y503973D01*
X477466Y503953D01*
X477509Y503821D01*
X477548Y503687D01*
X477558Y503670D01*
X477564Y503651D01*
X477639Y503533D01*
X477709Y503413D01*
X477728Y503392D01*
X477735Y503382D01*
X477750Y503368D01*
X477816Y503293D01*
X479045Y502064D01*
X479045Y498696D01*
X476664Y496315D01*
X473296Y496315D01*
X470915Y498696D01*
X470915Y502064D01*
X472144Y503293D01*
X472229Y503402D01*
X472318Y503509D01*
X472327Y503528D01*
X472339Y503544D01*
X472394Y503672D01*
X472454Y503797D01*
X472457Y503817D01*
X472465Y503836D01*
X472487Y503974D01*
X472513Y504110D01*
X472512Y504130D01*
X472515Y504150D01*
X472502Y504289D01*
X472494Y504427D01*
X472487Y504446D01*
X472485Y504466D01*
X472438Y504598D01*
X472396Y504729D01*
X472385Y504747D01*
X472378Y504766D01*
X472300Y504881D01*
X472225Y504998D01*
X472211Y505012D01*
X472199Y505029D01*
X472095Y505121D01*
X471994Y505216D01*
X471976Y505226D01*
X471961Y505239D01*
X471837Y505302D01*
X471715Y505370D01*
X471696Y505375D01*
X471678Y505384D01*
X471542Y505414D01*
X471407Y505449D01*
X471379Y505451D01*
X471367Y505454D01*
X471347Y505453D01*
X471247Y505459D01*
X347987Y505459D01*
X347918Y505451D01*
X347848Y505452D01*
X347761Y505431D01*
X347671Y505419D01*
X347606Y505394D01*
X347539Y505377D01*
X347459Y505335D01*
X347376Y505302D01*
X347319Y505261D01*
X347258Y505229D01*
X347191Y505168D01*
X347118Y505116D01*
X347074Y505062D01*
X347022Y505015D01*
X346973Y504940D01*
X346916Y504871D01*
X346886Y504807D01*
X346847Y504749D01*
X346818Y504664D01*
X346780Y504583D01*
X346767Y504514D01*
X346744Y504448D01*
X346737Y504359D01*
X346720Y504271D01*
X346725Y504201D01*
X346719Y504131D01*
X346734Y504043D01*
X346740Y503953D01*
X346761Y503887D01*
X346773Y503818D01*
X346810Y503736D01*
X346838Y503651D01*
X346875Y503592D01*
X346904Y503528D01*
X346960Y503458D01*
X347008Y503382D01*
X347059Y503334D01*
X347103Y503280D01*
X347174Y503225D01*
X347240Y503164D01*
X347301Y503130D01*
X347357Y503088D01*
X347501Y503017D01*
X347936Y502837D01*
X350437Y500336D01*
X351791Y497069D01*
X351791Y493531D01*
X350437Y490264D01*
X347936Y487763D01*
X344669Y486409D01*
X341131Y486409D01*
X337864Y487763D01*
X335363Y490264D01*
X334009Y493531D01*
X334009Y497069D01*
X335363Y500336D01*
X337864Y502837D01*
X338299Y503017D01*
X338359Y503052D01*
X338424Y503078D01*
X338497Y503130D01*
X338575Y503175D01*
X338625Y503223D01*
X338682Y503264D01*
X338739Y503334D01*
X338803Y503396D01*
X338840Y503456D01*
X338884Y503509D01*
X338923Y503591D01*
X338970Y503667D01*
X338990Y503734D01*
X339020Y503797D01*
X339037Y503885D01*
X339063Y503971D01*
X339067Y504041D01*
X339080Y504110D01*
X339074Y504199D01*
X339078Y504289D01*
X339064Y504357D01*
X339060Y504427D01*
X339032Y504512D01*
X339014Y504600D01*
X338983Y504663D01*
X338962Y504729D01*
X338914Y504805D01*
X338874Y504886D01*
X338829Y504939D01*
X338792Y504998D01*
X338726Y505060D01*
X338668Y505128D01*
X338611Y505168D01*
X338560Y505216D01*
X338482Y505259D01*
X338408Y505311D01*
X338343Y505336D01*
X338282Y505370D01*
X338195Y505392D01*
X338111Y505424D01*
X338041Y505432D01*
X337974Y505449D01*
X337813Y505459D01*
X223110Y505459D01*
X223031Y505449D01*
X222951Y505449D01*
X222874Y505429D01*
X222794Y505419D01*
X222720Y505390D01*
X222643Y505370D01*
X222573Y505332D01*
X222499Y505302D01*
X222434Y505256D01*
X222364Y505217D01*
X222306Y505163D01*
X222241Y505116D01*
X222190Y505054D01*
X222132Y505000D01*
X222089Y504932D01*
X222038Y504871D01*
X222004Y504798D01*
X221962Y504731D01*
X221937Y504655D01*
X221903Y504583D01*
X221888Y504505D01*
X221863Y504429D01*
X221858Y504349D01*
X221843Y504271D01*
X221848Y504191D01*
X221843Y504111D01*
X221858Y504033D01*
X221863Y503953D01*
X221887Y503877D01*
X221902Y503799D01*
X221936Y503727D01*
X221961Y503651D01*
X222004Y503583D01*
X222037Y503511D01*
X222088Y503449D01*
X222131Y503382D01*
X222189Y503327D01*
X222240Y503266D01*
X222362Y503165D01*
X222363Y503164D01*
X222364Y503163D01*
X222519Y503050D01*
X223650Y501919D01*
X224590Y500625D01*
X225316Y499200D01*
X225759Y497839D01*
X217170Y497839D01*
X217052Y497824D01*
X216933Y497817D01*
X216895Y497804D01*
X216855Y497799D01*
X216744Y497756D01*
X216631Y497719D01*
X216597Y497697D01*
X216559Y497682D01*
X216463Y497612D01*
X216362Y497549D01*
X216334Y497519D01*
X216302Y497495D01*
X216226Y497404D01*
X216144Y497317D01*
X216125Y497282D01*
X216099Y497251D01*
X216048Y497143D01*
X215991Y497039D01*
X215980Y496999D01*
X215963Y496963D01*
X215941Y496846D01*
X215911Y496731D01*
X215907Y496670D01*
X215903Y496650D01*
X215905Y496630D01*
X215904Y496615D01*
X215903Y496613D01*
X215904Y496612D01*
X215901Y496570D01*
X215901Y495299D01*
X215899Y495299D01*
X215899Y496570D01*
X215884Y496688D01*
X215877Y496807D01*
X215864Y496845D01*
X215859Y496885D01*
X215815Y496996D01*
X215779Y497109D01*
X215757Y497144D01*
X215742Y497181D01*
X215672Y497277D01*
X215609Y497378D01*
X215579Y497406D01*
X215555Y497439D01*
X215464Y497514D01*
X215377Y497596D01*
X215342Y497616D01*
X215310Y497641D01*
X215203Y497692D01*
X215098Y497750D01*
X215059Y497760D01*
X215023Y497777D01*
X214906Y497799D01*
X214791Y497829D01*
X214730Y497833D01*
X214710Y497837D01*
X214690Y497835D01*
X214630Y497839D01*
X206041Y497839D01*
X206484Y499200D01*
X207210Y500625D01*
X208150Y501919D01*
X209281Y503050D01*
X209436Y503163D01*
X209494Y503217D01*
X209502Y503223D01*
X209559Y503264D01*
X209610Y503326D01*
X209668Y503381D01*
X209711Y503448D01*
X209762Y503509D01*
X209796Y503582D01*
X209839Y503649D01*
X209863Y503725D01*
X209897Y503797D01*
X209912Y503876D01*
X209937Y503952D01*
X209942Y504031D01*
X209957Y504110D01*
X209952Y504189D01*
X209957Y504269D01*
X209942Y504347D01*
X209937Y504427D01*
X209913Y504503D01*
X209898Y504582D01*
X209864Y504654D01*
X209839Y504729D01*
X209796Y504797D01*
X209762Y504869D01*
X209712Y504931D01*
X209669Y504998D01*
X209611Y505053D01*
X209560Y505115D01*
X209495Y505161D01*
X209437Y505216D01*
X209367Y505255D01*
X209303Y505302D01*
X209229Y505331D01*
X209159Y505370D01*
X209082Y505390D01*
X209007Y505419D01*
X208928Y505429D01*
X208851Y505449D01*
X208693Y505459D01*
X208692Y505459D01*
X208691Y505459D01*
X208690Y505459D01*
X30487Y505459D01*
X30418Y505451D01*
X30348Y505452D01*
X30261Y505431D01*
X30171Y505419D01*
X30106Y505394D01*
X30039Y505377D01*
X29959Y505335D01*
X29876Y505302D01*
X29819Y505261D01*
X29758Y505229D01*
X29691Y505168D01*
X29618Y505116D01*
X29574Y505062D01*
X29522Y505015D01*
X29473Y504940D01*
X29416Y504871D01*
X29386Y504807D01*
X29347Y504749D01*
X29318Y504664D01*
X29280Y504583D01*
X29267Y504514D01*
X29244Y504448D01*
X29237Y504359D01*
X29220Y504271D01*
X29225Y504201D01*
X29219Y504131D01*
X29234Y504043D01*
X29240Y503953D01*
X29261Y503887D01*
X29273Y503818D01*
X29310Y503736D01*
X29338Y503651D01*
X29375Y503592D01*
X29404Y503528D01*
X29460Y503458D01*
X29508Y503382D01*
X29559Y503334D01*
X29603Y503280D01*
X29674Y503225D01*
X29740Y503164D01*
X29801Y503130D01*
X29857Y503088D01*
X30001Y503017D01*
X30436Y502837D01*
X32937Y500336D01*
X34291Y497069D01*
X34291Y493531D01*
X32937Y490264D01*
X30436Y487763D01*
X27169Y486409D01*
X23631Y486409D01*
X20364Y487763D01*
X17863Y490264D01*
X16509Y493531D01*
X16509Y497069D01*
X17863Y500336D01*
X20364Y502837D01*
X20799Y503017D01*
X20859Y503052D01*
X20924Y503078D01*
X20997Y503130D01*
X21075Y503175D01*
X21125Y503223D01*
X21182Y503264D01*
X21239Y503334D01*
X21303Y503396D01*
X21340Y503456D01*
X21384Y503509D01*
X21423Y503591D01*
X21470Y503667D01*
X21490Y503734D01*
X21520Y503797D01*
X21537Y503885D01*
X21563Y503971D01*
X21567Y504041D01*
X21580Y504110D01*
X21574Y504199D01*
X21578Y504289D01*
X21564Y504357D01*
X21560Y504427D01*
X21532Y504512D01*
X21514Y504600D01*
X21483Y504663D01*
X21462Y504729D01*
X21414Y504805D01*
X21374Y504886D01*
X21329Y504939D01*
X21292Y504998D01*
X21226Y505060D01*
X21168Y505128D01*
X21111Y505168D01*
X21060Y505216D01*
X20982Y505259D01*
X20908Y505311D01*
X20843Y505336D01*
X20782Y505370D01*
X20695Y505392D01*
X20611Y505424D01*
X20541Y505432D01*
X20474Y505449D01*
X20313Y505459D01*
X4064Y505459D01*
X3946Y505444D01*
X3827Y505437D01*
X3789Y505424D01*
X3748Y505419D01*
X3638Y505376D01*
X3525Y505339D01*
X3490Y505317D01*
X3453Y505302D01*
X3357Y505233D01*
X3256Y505169D01*
X3228Y505139D01*
X3195Y505116D01*
X3119Y505024D01*
X3038Y504937D01*
X3018Y504902D01*
X2993Y504871D01*
X2942Y504763D01*
X2884Y504659D01*
X2874Y504619D01*
X2857Y504583D01*
X2835Y504466D01*
X2805Y504351D01*
X2801Y504291D01*
X2797Y504271D01*
X2799Y504250D01*
X2795Y504190D01*
X2795Y27083D01*
X2807Y26985D01*
X2810Y26886D01*
X2827Y26828D01*
X2835Y26768D01*
X2871Y26676D01*
X2899Y26581D01*
X2929Y26528D01*
X2952Y26472D01*
X3010Y26392D01*
X3060Y26307D01*
X3126Y26231D01*
X3138Y26215D01*
X3148Y26207D01*
X3166Y26186D01*
X26186Y3166D01*
X26264Y3106D01*
X26336Y3038D01*
X26389Y3009D01*
X26437Y2972D01*
X26528Y2932D01*
X26615Y2884D01*
X26673Y2869D01*
X26729Y2845D01*
X26827Y2830D01*
X26923Y2805D01*
X27023Y2799D01*
X27043Y2795D01*
X27055Y2797D01*
X27083Y2795D01*
X166503Y2795D01*
X166621Y2810D01*
G37*
%LPC*%
G36*
X298201Y148843D02*
X298201Y148843D01*
X296334Y149617D01*
X294905Y151046D01*
X294131Y152913D01*
X294131Y154935D01*
X294905Y156802D01*
X296334Y158231D01*
X298201Y159005D01*
X406477Y159005D01*
X406615Y159022D01*
X406753Y159035D01*
X406772Y159042D01*
X406792Y159045D01*
X406921Y159096D01*
X407052Y159143D01*
X407069Y159154D01*
X407088Y159162D01*
X407200Y159243D01*
X407315Y159321D01*
X407329Y159337D01*
X407345Y159348D01*
X407434Y159456D01*
X407526Y159560D01*
X407535Y159578D01*
X407548Y159593D01*
X407607Y159719D01*
X407670Y159843D01*
X407675Y159863D01*
X407684Y159881D01*
X407710Y160018D01*
X407740Y160153D01*
X407740Y160174D01*
X407743Y160193D01*
X407735Y160332D01*
X407730Y160471D01*
X407725Y160491D01*
X407724Y160511D01*
X407681Y160643D01*
X407642Y160777D01*
X407632Y160794D01*
X407626Y160813D01*
X407551Y160931D01*
X407481Y161051D01*
X407462Y161072D01*
X407455Y161082D01*
X407440Y161096D01*
X407374Y161171D01*
X406653Y161892D01*
X406653Y165260D01*
X409034Y167641D01*
X412402Y167641D01*
X414783Y165260D01*
X414783Y161892D01*
X414062Y161171D01*
X413977Y161062D01*
X413888Y160955D01*
X413879Y160936D01*
X413867Y160920D01*
X413812Y160793D01*
X413752Y160667D01*
X413749Y160647D01*
X413741Y160628D01*
X413719Y160490D01*
X413693Y160354D01*
X413694Y160334D01*
X413691Y160314D01*
X413704Y160175D01*
X413712Y160037D01*
X413719Y160018D01*
X413721Y159998D01*
X413768Y159866D01*
X413810Y159735D01*
X413821Y159717D01*
X413828Y159698D01*
X413906Y159583D01*
X413981Y159466D01*
X413995Y159452D01*
X414007Y159435D01*
X414111Y159343D01*
X414212Y159248D01*
X414230Y159238D01*
X414245Y159225D01*
X414369Y159162D01*
X414491Y159094D01*
X414510Y159089D01*
X414528Y159080D01*
X414664Y159050D01*
X414799Y159015D01*
X414827Y159013D01*
X414839Y159010D01*
X414859Y159011D01*
X414959Y159005D01*
X424257Y159005D01*
X424394Y159022D01*
X424533Y159035D01*
X424552Y159042D01*
X424572Y159045D01*
X424701Y159096D01*
X424832Y159143D01*
X424849Y159154D01*
X424868Y159162D01*
X424980Y159243D01*
X425095Y159321D01*
X425109Y159337D01*
X425125Y159348D01*
X425214Y159456D01*
X425306Y159560D01*
X425315Y159578D01*
X425328Y159593D01*
X425387Y159719D01*
X425450Y159843D01*
X425455Y159863D01*
X425464Y159881D01*
X425490Y160017D01*
X425520Y160153D01*
X425520Y160174D01*
X425523Y160193D01*
X425515Y160332D01*
X425510Y160471D01*
X425505Y160491D01*
X425504Y160511D01*
X425461Y160643D01*
X425422Y160777D01*
X425412Y160794D01*
X425406Y160813D01*
X425331Y160931D01*
X425261Y161051D01*
X425242Y161072D01*
X425235Y161082D01*
X425220Y161096D01*
X425154Y161171D01*
X423163Y163162D01*
X423163Y166530D01*
X425544Y168911D01*
X428912Y168911D01*
X431293Y166530D01*
X431293Y163162D01*
X429302Y161171D01*
X429217Y161062D01*
X429128Y160955D01*
X429119Y160936D01*
X429107Y160920D01*
X429051Y160792D01*
X428992Y160667D01*
X428989Y160647D01*
X428981Y160628D01*
X428959Y160490D01*
X428933Y160354D01*
X428934Y160334D01*
X428931Y160314D01*
X428944Y160175D01*
X428952Y160037D01*
X428959Y160018D01*
X428961Y159998D01*
X429008Y159866D01*
X429050Y159735D01*
X429061Y159717D01*
X429068Y159698D01*
X429146Y159583D01*
X429221Y159466D01*
X429235Y159452D01*
X429247Y159435D01*
X429351Y159343D01*
X429452Y159248D01*
X429470Y159238D01*
X429485Y159225D01*
X429609Y159161D01*
X429731Y159094D01*
X429750Y159089D01*
X429768Y159080D01*
X429904Y159050D01*
X430039Y159015D01*
X430067Y159013D01*
X430079Y159010D01*
X430099Y159011D01*
X430199Y159005D01*
X433996Y159005D01*
X434094Y159017D01*
X434193Y159020D01*
X434251Y159037D01*
X434311Y159045D01*
X434403Y159081D01*
X434498Y159109D01*
X434551Y159139D01*
X434607Y159162D01*
X434687Y159220D01*
X434772Y159270D01*
X434848Y159336D01*
X434864Y159348D01*
X434872Y159358D01*
X434893Y159376D01*
X439048Y163531D01*
X439108Y163609D01*
X439176Y163681D01*
X439205Y163734D01*
X439242Y163782D01*
X439282Y163873D01*
X439330Y163960D01*
X439345Y164018D01*
X439369Y164074D01*
X439384Y164172D01*
X439409Y164268D01*
X439415Y164368D01*
X439419Y164388D01*
X439417Y164400D01*
X439419Y164428D01*
X439419Y275667D01*
X439402Y275805D01*
X439389Y275943D01*
X439382Y275962D01*
X439379Y275982D01*
X439328Y276111D01*
X439281Y276242D01*
X439270Y276259D01*
X439262Y276278D01*
X439181Y276390D01*
X439103Y276505D01*
X439087Y276519D01*
X439076Y276535D01*
X438968Y276624D01*
X438864Y276716D01*
X438846Y276725D01*
X438831Y276738D01*
X438705Y276797D01*
X438581Y276861D01*
X438561Y276865D01*
X438543Y276874D01*
X438407Y276900D01*
X438271Y276930D01*
X438250Y276930D01*
X438231Y276933D01*
X438092Y276925D01*
X437953Y276920D01*
X437933Y276915D01*
X437913Y276914D01*
X437781Y276871D01*
X437647Y276832D01*
X437630Y276822D01*
X437611Y276816D01*
X437493Y276741D01*
X437373Y276670D01*
X437352Y276652D01*
X437342Y276645D01*
X437328Y276630D01*
X437299Y276605D01*
X433926Y276605D01*
X431545Y278986D01*
X431545Y282354D01*
X433926Y284735D01*
X437306Y284735D01*
X437362Y284691D01*
X437469Y284602D01*
X437488Y284593D01*
X437504Y284581D01*
X437632Y284526D01*
X437757Y284466D01*
X437777Y284463D01*
X437796Y284455D01*
X437933Y284433D01*
X438070Y284407D01*
X438090Y284408D01*
X438110Y284405D01*
X438248Y284418D01*
X438387Y284426D01*
X438406Y284433D01*
X438426Y284435D01*
X438557Y284482D01*
X438689Y284524D01*
X438707Y284535D01*
X438726Y284542D01*
X438841Y284620D01*
X438958Y284695D01*
X438972Y284709D01*
X438989Y284721D01*
X439081Y284825D01*
X439176Y284926D01*
X439186Y284944D01*
X439199Y284959D01*
X439263Y285083D01*
X439330Y285205D01*
X439335Y285224D01*
X439344Y285242D01*
X439374Y285379D01*
X439409Y285513D01*
X439411Y285541D01*
X439414Y285553D01*
X439413Y285573D01*
X439419Y285673D01*
X439419Y356611D01*
X440193Y358478D01*
X454322Y372607D01*
X456189Y373381D01*
X478733Y373381D01*
X478871Y373398D01*
X479009Y373411D01*
X479028Y373418D01*
X479048Y373421D01*
X479177Y373472D01*
X479308Y373519D01*
X479325Y373530D01*
X479344Y373538D01*
X479456Y373619D01*
X479571Y373697D01*
X479585Y373713D01*
X479601Y373724D01*
X479690Y373832D01*
X479782Y373936D01*
X479791Y373954D01*
X479804Y373969D01*
X479863Y374095D01*
X479926Y374219D01*
X479931Y374239D01*
X479940Y374257D01*
X479966Y374394D01*
X479996Y374529D01*
X479996Y374550D01*
X479999Y374569D01*
X479991Y374708D01*
X479986Y374847D01*
X479981Y374867D01*
X479980Y374887D01*
X479937Y375019D01*
X479898Y375153D01*
X479888Y375170D01*
X479882Y375189D01*
X479807Y375307D01*
X479737Y375427D01*
X479718Y375448D01*
X479711Y375458D01*
X479696Y375472D01*
X479630Y375547D01*
X478535Y376642D01*
X478535Y380010D01*
X480916Y382391D01*
X484284Y382391D01*
X486665Y380010D01*
X486665Y376642D01*
X485570Y375547D01*
X485485Y375438D01*
X485396Y375331D01*
X485387Y375312D01*
X485375Y375296D01*
X485320Y375169D01*
X485260Y375043D01*
X485257Y375023D01*
X485249Y375004D01*
X485227Y374866D01*
X485201Y374730D01*
X485202Y374710D01*
X485199Y374690D01*
X485212Y374551D01*
X485220Y374413D01*
X485227Y374394D01*
X485229Y374374D01*
X485276Y374242D01*
X485318Y374111D01*
X485329Y374093D01*
X485336Y374074D01*
X485414Y373959D01*
X485489Y373842D01*
X485503Y373828D01*
X485515Y373811D01*
X485619Y373719D01*
X485720Y373624D01*
X485738Y373614D01*
X485753Y373601D01*
X485877Y373537D01*
X485999Y373470D01*
X486018Y373465D01*
X486036Y373456D01*
X486172Y373426D01*
X486307Y373391D01*
X486335Y373389D01*
X486347Y373386D01*
X486367Y373387D01*
X486467Y373381D01*
X499982Y373381D01*
X500080Y373393D01*
X500179Y373396D01*
X500237Y373413D01*
X500297Y373421D01*
X500389Y373457D01*
X500484Y373485D01*
X500536Y373515D01*
X500593Y373538D01*
X500673Y373596D01*
X500758Y373646D01*
X500834Y373712D01*
X500850Y373724D01*
X500858Y373734D01*
X500879Y373752D01*
X502964Y375837D01*
X506231Y377191D01*
X509769Y377191D01*
X513036Y375837D01*
X515537Y373336D01*
X516891Y370069D01*
X516891Y366531D01*
X515537Y363264D01*
X513036Y360763D01*
X509769Y359409D01*
X506231Y359409D01*
X502964Y360763D01*
X500879Y362848D01*
X500801Y362908D01*
X500729Y362976D01*
X500676Y363005D01*
X500628Y363042D01*
X500537Y363082D01*
X500450Y363130D01*
X500392Y363145D01*
X500336Y363169D01*
X500238Y363184D01*
X500142Y363209D01*
X500042Y363215D01*
X500022Y363219D01*
X500010Y363217D01*
X499982Y363219D01*
X459830Y363219D01*
X459732Y363207D01*
X459633Y363204D01*
X459575Y363187D01*
X459515Y363179D01*
X459423Y363143D01*
X459328Y363115D01*
X459275Y363085D01*
X459219Y363062D01*
X459139Y363004D01*
X459054Y362954D01*
X458978Y362888D01*
X458962Y362876D01*
X458954Y362866D01*
X458933Y362848D01*
X455123Y359037D01*
X455037Y358927D01*
X454949Y358821D01*
X454940Y358802D01*
X454928Y358786D01*
X454872Y358658D01*
X454813Y358533D01*
X454810Y358513D01*
X454801Y358494D01*
X454780Y358356D01*
X454754Y358220D01*
X454755Y358200D01*
X454752Y358180D01*
X454765Y358041D01*
X454773Y357903D01*
X454779Y357884D01*
X454781Y357864D01*
X454829Y357732D01*
X454871Y357601D01*
X454882Y357583D01*
X454889Y357564D01*
X454967Y357449D01*
X455041Y357332D01*
X455056Y357318D01*
X455068Y357301D01*
X455172Y357209D01*
X455273Y357114D01*
X455291Y357104D01*
X455306Y357091D01*
X455430Y357027D01*
X455552Y356960D01*
X455571Y356955D01*
X455589Y356946D01*
X455725Y356916D01*
X455860Y356881D01*
X455888Y356879D01*
X455900Y356876D01*
X455920Y356877D01*
X456020Y356871D01*
X456090Y356871D01*
X457953Y355007D01*
X458048Y354934D01*
X458137Y354855D01*
X458173Y354837D01*
X458205Y354812D01*
X458314Y354765D01*
X458420Y354711D01*
X458459Y354702D01*
X458497Y354686D01*
X458614Y354667D01*
X458730Y354641D01*
X458771Y354642D01*
X458811Y354636D01*
X458929Y354647D01*
X459048Y354651D01*
X459087Y354662D01*
X459127Y354666D01*
X459240Y354706D01*
X459354Y354739D01*
X459388Y354759D01*
X459427Y354773D01*
X459525Y354840D01*
X459628Y354900D01*
X459673Y354940D01*
X459690Y354952D01*
X459703Y354967D01*
X459748Y355007D01*
X461866Y357125D01*
X465234Y357125D01*
X467615Y354744D01*
X467615Y352044D01*
X467630Y351926D01*
X467637Y351807D01*
X467650Y351769D01*
X467655Y351728D01*
X467698Y351618D01*
X467735Y351505D01*
X467757Y351470D01*
X467772Y351433D01*
X467841Y351337D01*
X467905Y351236D01*
X467935Y351208D01*
X467958Y351175D01*
X468050Y351099D01*
X468137Y351018D01*
X468172Y350998D01*
X468203Y350973D01*
X468311Y350922D01*
X468415Y350864D01*
X468455Y350854D01*
X468491Y350837D01*
X468608Y350815D01*
X468723Y350785D01*
X468783Y350781D01*
X468803Y350777D01*
X468824Y350779D01*
X468884Y350775D01*
X471076Y350775D01*
X473457Y348394D01*
X473457Y345026D01*
X471076Y342645D01*
X467708Y342645D01*
X465327Y345026D01*
X465327Y347726D01*
X465312Y347844D01*
X465305Y347963D01*
X465292Y348001D01*
X465287Y348042D01*
X465244Y348152D01*
X465207Y348265D01*
X465185Y348300D01*
X465170Y348337D01*
X465101Y348433D01*
X465037Y348534D01*
X465007Y348562D01*
X464984Y348595D01*
X464892Y348671D01*
X464805Y348752D01*
X464770Y348772D01*
X464739Y348797D01*
X464631Y348848D01*
X464527Y348906D01*
X464487Y348916D01*
X464451Y348933D01*
X464334Y348955D01*
X464219Y348985D01*
X464159Y348989D01*
X464139Y348993D01*
X464118Y348991D01*
X464058Y348995D01*
X461866Y348995D01*
X460002Y350859D01*
X459908Y350932D01*
X459819Y351011D01*
X459783Y351029D01*
X459751Y351054D01*
X459642Y351101D01*
X459536Y351155D01*
X459497Y351164D01*
X459459Y351180D01*
X459342Y351199D01*
X459226Y351225D01*
X459185Y351224D01*
X459145Y351230D01*
X459027Y351219D01*
X458908Y351215D01*
X458869Y351204D01*
X458829Y351200D01*
X458717Y351160D01*
X458602Y351127D01*
X458567Y351107D01*
X458529Y351093D01*
X458431Y351026D01*
X458328Y350965D01*
X458283Y350926D01*
X458266Y350914D01*
X458253Y350899D01*
X458207Y350859D01*
X456090Y348741D01*
X452722Y348741D01*
X451747Y349716D01*
X451638Y349801D01*
X451531Y349890D01*
X451512Y349899D01*
X451496Y349911D01*
X451369Y349966D01*
X451243Y350026D01*
X451223Y350029D01*
X451204Y350037D01*
X451066Y350059D01*
X450930Y350085D01*
X450910Y350084D01*
X450890Y350087D01*
X450751Y350074D01*
X450613Y350066D01*
X450594Y350059D01*
X450574Y350057D01*
X450442Y350010D01*
X450311Y349968D01*
X450293Y349957D01*
X450274Y349950D01*
X450159Y349872D01*
X450042Y349797D01*
X450028Y349783D01*
X450011Y349771D01*
X449919Y349667D01*
X449824Y349566D01*
X449814Y349548D01*
X449801Y349533D01*
X449737Y349409D01*
X449670Y349287D01*
X449665Y349268D01*
X449656Y349250D01*
X449626Y349114D01*
X449591Y348979D01*
X449589Y348951D01*
X449586Y348939D01*
X449587Y348919D01*
X449581Y348819D01*
X449581Y322580D01*
X449596Y322462D01*
X449603Y322343D01*
X449616Y322305D01*
X449621Y322264D01*
X449665Y322153D01*
X449701Y322041D01*
X449723Y322006D01*
X449738Y321969D01*
X449807Y321873D01*
X449871Y321772D01*
X449901Y321744D01*
X449924Y321711D01*
X450016Y321635D01*
X450103Y321554D01*
X450138Y321534D01*
X450169Y321509D01*
X450277Y321458D01*
X450381Y321400D01*
X450421Y321390D01*
X450457Y321373D01*
X450574Y321351D01*
X450689Y321321D01*
X450749Y321317D01*
X450769Y321313D01*
X450790Y321315D01*
X450850Y321311D01*
X454312Y321311D01*
X456693Y318930D01*
X456693Y315562D01*
X454312Y313181D01*
X450850Y313181D01*
X450732Y313166D01*
X450613Y313159D01*
X450575Y313146D01*
X450534Y313141D01*
X450424Y313098D01*
X450311Y313061D01*
X450276Y313039D01*
X450239Y313024D01*
X450143Y312955D01*
X450042Y312891D01*
X450014Y312861D01*
X449981Y312838D01*
X449905Y312746D01*
X449824Y312659D01*
X449804Y312624D01*
X449779Y312593D01*
X449728Y312485D01*
X449670Y312381D01*
X449660Y312341D01*
X449643Y312305D01*
X449621Y312188D01*
X449591Y312073D01*
X449587Y312013D01*
X449583Y311993D01*
X449585Y311972D01*
X449581Y311912D01*
X449581Y275513D01*
X449598Y275375D01*
X449611Y275237D01*
X449618Y275218D01*
X449621Y275198D01*
X449672Y275069D01*
X449719Y274938D01*
X449730Y274921D01*
X449738Y274902D01*
X449819Y274790D01*
X449897Y274675D01*
X449913Y274661D01*
X449924Y274645D01*
X450032Y274556D01*
X450136Y274464D01*
X450154Y274455D01*
X450169Y274442D01*
X450295Y274383D01*
X450419Y274319D01*
X450439Y274315D01*
X450457Y274306D01*
X450593Y274280D01*
X450729Y274250D01*
X450750Y274250D01*
X450769Y274247D01*
X450908Y274255D01*
X451047Y274260D01*
X451067Y274265D01*
X451087Y274266D01*
X451219Y274309D01*
X451353Y274348D01*
X451370Y274358D01*
X451389Y274364D01*
X451507Y274439D01*
X451627Y274510D01*
X451648Y274528D01*
X451658Y274535D01*
X451672Y274550D01*
X451701Y274575D01*
X455074Y274575D01*
X457455Y272194D01*
X457455Y268826D01*
X455074Y266445D01*
X451694Y266445D01*
X451638Y266489D01*
X451531Y266578D01*
X451512Y266587D01*
X451496Y266599D01*
X451368Y266654D01*
X451243Y266714D01*
X451223Y266717D01*
X451204Y266725D01*
X451067Y266747D01*
X450930Y266773D01*
X450910Y266772D01*
X450890Y266775D01*
X450752Y266762D01*
X450613Y266754D01*
X450594Y266747D01*
X450574Y266745D01*
X450443Y266698D01*
X450311Y266656D01*
X450293Y266645D01*
X450274Y266638D01*
X450159Y266560D01*
X450042Y266485D01*
X450028Y266471D01*
X450011Y266459D01*
X449919Y266355D01*
X449824Y266254D01*
X449814Y266236D01*
X449801Y266221D01*
X449737Y266097D01*
X449670Y265975D01*
X449665Y265956D01*
X449656Y265938D01*
X449626Y265801D01*
X449591Y265667D01*
X449589Y265639D01*
X449586Y265627D01*
X449587Y265607D01*
X449581Y265507D01*
X449581Y233603D01*
X449598Y233465D01*
X449611Y233327D01*
X449618Y233308D01*
X449621Y233288D01*
X449672Y233159D01*
X449719Y233028D01*
X449730Y233011D01*
X449738Y232992D01*
X449819Y232880D01*
X449897Y232765D01*
X449913Y232751D01*
X449924Y232735D01*
X450032Y232646D01*
X450136Y232554D01*
X450154Y232545D01*
X450169Y232532D01*
X450295Y232473D01*
X450419Y232409D01*
X450439Y232405D01*
X450457Y232396D01*
X450593Y232370D01*
X450729Y232340D01*
X450750Y232340D01*
X450769Y232337D01*
X450908Y232345D01*
X451047Y232350D01*
X451067Y232355D01*
X451087Y232356D01*
X451219Y232399D01*
X451353Y232438D01*
X451370Y232448D01*
X451389Y232454D01*
X451507Y232529D01*
X451627Y232600D01*
X451648Y232618D01*
X451658Y232625D01*
X451672Y232640D01*
X451701Y232665D01*
X455074Y232665D01*
X457455Y230284D01*
X457455Y226916D01*
X455074Y224535D01*
X451694Y224535D01*
X451638Y224579D01*
X451531Y224668D01*
X451512Y224677D01*
X451496Y224689D01*
X451368Y224744D01*
X451243Y224804D01*
X451223Y224807D01*
X451204Y224815D01*
X451067Y224837D01*
X450930Y224863D01*
X450910Y224862D01*
X450890Y224865D01*
X450752Y224852D01*
X450613Y224844D01*
X450594Y224837D01*
X450574Y224835D01*
X450443Y224788D01*
X450311Y224746D01*
X450293Y224735D01*
X450274Y224728D01*
X450159Y224650D01*
X450042Y224575D01*
X450028Y224561D01*
X450011Y224549D01*
X449919Y224445D01*
X449824Y224344D01*
X449814Y224326D01*
X449801Y224311D01*
X449737Y224187D01*
X449670Y224065D01*
X449665Y224046D01*
X449656Y224028D01*
X449626Y223891D01*
X449591Y223757D01*
X449589Y223729D01*
X449586Y223717D01*
X449587Y223697D01*
X449581Y223597D01*
X449581Y166242D01*
X449596Y166124D01*
X449603Y166005D01*
X449616Y165967D01*
X449621Y165926D01*
X449664Y165816D01*
X449701Y165703D01*
X449723Y165668D01*
X449738Y165631D01*
X449807Y165535D01*
X449871Y165434D01*
X449901Y165406D01*
X449924Y165373D01*
X450016Y165297D01*
X450103Y165216D01*
X450138Y165196D01*
X450169Y165171D01*
X450277Y165120D01*
X450381Y165062D01*
X450421Y165052D01*
X450457Y165035D01*
X450574Y165013D01*
X450689Y164983D01*
X450749Y164979D01*
X450769Y164975D01*
X450790Y164977D01*
X450850Y164973D01*
X454150Y164973D01*
X456531Y162592D01*
X456531Y159224D01*
X454150Y156843D01*
X450782Y156843D01*
X449654Y157972D01*
X449560Y158045D01*
X449471Y158123D01*
X449435Y158142D01*
X449403Y158167D01*
X449293Y158214D01*
X449187Y158268D01*
X449148Y158277D01*
X449111Y158293D01*
X448993Y158312D01*
X448877Y158338D01*
X448837Y158336D01*
X448797Y158343D01*
X448678Y158332D01*
X448559Y158328D01*
X448520Y158317D01*
X448480Y158313D01*
X448368Y158273D01*
X448254Y158240D01*
X448219Y158219D01*
X448181Y158205D01*
X448082Y158139D01*
X447980Y158078D01*
X447934Y158038D01*
X447918Y158027D01*
X447904Y158012D01*
X447859Y157972D01*
X439504Y149617D01*
X437637Y148843D01*
X298201Y148843D01*
G37*
%LPD*%
%LPC*%
G36*
X506231Y435609D02*
X506231Y435609D01*
X502964Y436963D01*
X500463Y439464D01*
X499109Y442731D01*
X499109Y446269D01*
X500463Y449536D01*
X501895Y450969D01*
X501980Y451078D01*
X502069Y451185D01*
X502078Y451204D01*
X502090Y451220D01*
X502146Y451348D01*
X502205Y451473D01*
X502208Y451493D01*
X502216Y451512D01*
X502238Y451650D01*
X502264Y451786D01*
X502263Y451806D01*
X502266Y451826D01*
X502253Y451965D01*
X502245Y452103D01*
X502238Y452122D01*
X502236Y452142D01*
X502189Y452274D01*
X502147Y452405D01*
X502136Y452423D01*
X502129Y452442D01*
X502051Y452557D01*
X501976Y452674D01*
X501962Y452688D01*
X501950Y452705D01*
X501846Y452797D01*
X501745Y452892D01*
X501727Y452902D01*
X501712Y452915D01*
X501588Y452979D01*
X501466Y453046D01*
X501447Y453051D01*
X501429Y453060D01*
X501293Y453090D01*
X501158Y453125D01*
X501130Y453127D01*
X501118Y453130D01*
X501098Y453129D01*
X500998Y453135D01*
X499966Y453135D01*
X497585Y455516D01*
X497585Y458884D01*
X499966Y461265D01*
X500998Y461265D01*
X501136Y461282D01*
X501274Y461295D01*
X501293Y461302D01*
X501313Y461305D01*
X501442Y461356D01*
X501573Y461403D01*
X501590Y461414D01*
X501609Y461422D01*
X501721Y461503D01*
X501836Y461581D01*
X501850Y461597D01*
X501866Y461608D01*
X501955Y461716D01*
X502047Y461820D01*
X502056Y461838D01*
X502069Y461853D01*
X502128Y461979D01*
X502191Y462103D01*
X502196Y462123D01*
X502205Y462141D01*
X502231Y462278D01*
X502261Y462413D01*
X502261Y462434D01*
X502264Y462453D01*
X502256Y462592D01*
X502251Y462731D01*
X502246Y462751D01*
X502245Y462771D01*
X502202Y462903D01*
X502163Y463037D01*
X502153Y463054D01*
X502147Y463073D01*
X502072Y463191D01*
X502002Y463311D01*
X501983Y463332D01*
X501976Y463342D01*
X501961Y463356D01*
X501895Y463431D01*
X500463Y464864D01*
X499109Y468131D01*
X499109Y471669D01*
X500463Y474936D01*
X501895Y476369D01*
X501980Y476478D01*
X502069Y476585D01*
X502078Y476604D01*
X502090Y476620D01*
X502146Y476748D01*
X502205Y476873D01*
X502208Y476893D01*
X502216Y476912D01*
X502238Y477050D01*
X502264Y477186D01*
X502263Y477206D01*
X502266Y477226D01*
X502253Y477365D01*
X502245Y477503D01*
X502238Y477522D01*
X502236Y477542D01*
X502210Y477615D01*
X502283Y477588D01*
X502363Y477547D01*
X502431Y477532D01*
X502497Y477507D01*
X502586Y477497D01*
X502673Y477477D01*
X502743Y477479D01*
X502813Y477472D01*
X502902Y477484D01*
X502991Y477487D01*
X503058Y477506D01*
X503128Y477516D01*
X503280Y477568D01*
X506231Y478791D01*
X509769Y478791D01*
X513036Y477437D01*
X515537Y474936D01*
X516891Y471669D01*
X516891Y468131D01*
X515537Y464864D01*
X513036Y462363D01*
X509769Y461009D01*
X506653Y461009D01*
X506515Y460992D01*
X506377Y460979D01*
X506358Y460972D01*
X506338Y460969D01*
X506209Y460918D01*
X506078Y460871D01*
X506061Y460860D01*
X506042Y460852D01*
X505930Y460771D01*
X505815Y460693D01*
X505801Y460677D01*
X505785Y460666D01*
X505696Y460558D01*
X505604Y460454D01*
X505595Y460436D01*
X505582Y460421D01*
X505523Y460295D01*
X505459Y460171D01*
X505455Y460151D01*
X505446Y460133D01*
X505420Y459997D01*
X505390Y459861D01*
X505390Y459840D01*
X505387Y459821D01*
X505395Y459682D01*
X505400Y459543D01*
X505405Y459523D01*
X505406Y459503D01*
X505449Y459371D01*
X505488Y459237D01*
X505498Y459220D01*
X505504Y459201D01*
X505579Y459083D01*
X505650Y458963D01*
X505668Y458942D01*
X505675Y458932D01*
X505689Y458919D01*
X505690Y458917D01*
X505694Y458913D01*
X505715Y458889D01*
X505715Y455504D01*
X505671Y455448D01*
X505582Y455341D01*
X505573Y455322D01*
X505561Y455306D01*
X505506Y455178D01*
X505446Y455053D01*
X505443Y455033D01*
X505435Y455014D01*
X505413Y454877D01*
X505387Y454740D01*
X505388Y454720D01*
X505385Y454700D01*
X505398Y454562D01*
X505406Y454423D01*
X505413Y454404D01*
X505415Y454384D01*
X505462Y454253D01*
X505504Y454121D01*
X505515Y454103D01*
X505522Y454084D01*
X505600Y453969D01*
X505675Y453852D01*
X505689Y453838D01*
X505701Y453821D01*
X505805Y453729D01*
X505906Y453634D01*
X505924Y453624D01*
X505939Y453611D01*
X506063Y453547D01*
X506185Y453480D01*
X506204Y453475D01*
X506222Y453466D01*
X506359Y453436D01*
X506493Y453401D01*
X506521Y453399D01*
X506533Y453396D01*
X506553Y453397D01*
X506653Y453391D01*
X509769Y453391D01*
X513036Y452037D01*
X515537Y449536D01*
X516891Y446269D01*
X516891Y442731D01*
X515537Y439464D01*
X513036Y436963D01*
X509769Y435609D01*
X506231Y435609D01*
G37*
%LPD*%
%LPC*%
G36*
X23631Y295909D02*
X23631Y295909D01*
X20364Y297263D01*
X17863Y299764D01*
X16509Y303031D01*
X16509Y306569D01*
X17863Y309836D01*
X20364Y312337D01*
X23631Y313691D01*
X27168Y313691D01*
X27519Y313546D01*
X27586Y313527D01*
X27650Y313500D01*
X27739Y313485D01*
X27825Y313462D01*
X27895Y313461D01*
X27964Y313450D01*
X28053Y313458D01*
X28143Y313457D01*
X28211Y313473D01*
X28281Y313480D01*
X28365Y313510D01*
X28453Y313531D01*
X28514Y313564D01*
X28580Y313587D01*
X28654Y313638D01*
X28734Y313680D01*
X28785Y313727D01*
X28843Y313766D01*
X28902Y313833D01*
X28969Y313894D01*
X29007Y313952D01*
X29054Y314004D01*
X29094Y314084D01*
X29144Y314159D01*
X29166Y314225D01*
X29198Y314287D01*
X29218Y314375D01*
X29247Y314460D01*
X29252Y314530D01*
X29268Y314598D01*
X29265Y314687D01*
X29272Y314777D01*
X29260Y314846D01*
X29258Y314916D01*
X29233Y315002D01*
X29218Y315090D01*
X29189Y315154D01*
X29170Y315221D01*
X29124Y315298D01*
X29087Y315380D01*
X29044Y315435D01*
X29008Y315495D01*
X28902Y315616D01*
X28447Y316070D01*
X28447Y319617D01*
X28462Y319647D01*
X28465Y319667D01*
X28473Y319685D01*
X28495Y319823D01*
X28521Y319960D01*
X28520Y319980D01*
X28523Y319999D01*
X28510Y320138D01*
X28502Y320277D01*
X28495Y320296D01*
X28493Y320316D01*
X28446Y320447D01*
X28404Y320579D01*
X28393Y320596D01*
X28386Y320615D01*
X28308Y320731D01*
X28233Y320848D01*
X28219Y320862D01*
X28207Y320879D01*
X28103Y320970D01*
X28002Y321066D01*
X27984Y321076D01*
X27969Y321089D01*
X27845Y321152D01*
X27723Y321220D01*
X27704Y321225D01*
X27686Y321234D01*
X27550Y321264D01*
X27415Y321299D01*
X27387Y321301D01*
X27376Y321303D01*
X27355Y321303D01*
X27255Y321309D01*
X23631Y321309D01*
X20364Y322663D01*
X17863Y325164D01*
X16509Y328431D01*
X16509Y331969D01*
X17863Y335236D01*
X20364Y337737D01*
X23631Y339091D01*
X27169Y339091D01*
X30436Y337737D01*
X32937Y335236D01*
X34291Y331969D01*
X34291Y328431D01*
X32937Y325164D01*
X31759Y323985D01*
X31674Y323876D01*
X31585Y323769D01*
X31576Y323750D01*
X31564Y323734D01*
X31508Y323606D01*
X31449Y323481D01*
X31446Y323461D01*
X31438Y323442D01*
X31416Y323304D01*
X31390Y323168D01*
X31391Y323148D01*
X31388Y323128D01*
X31401Y322989D01*
X31409Y322851D01*
X31416Y322832D01*
X31418Y322812D01*
X31465Y322680D01*
X31507Y322549D01*
X31518Y322531D01*
X31525Y322512D01*
X31603Y322397D01*
X31678Y322280D01*
X31692Y322266D01*
X31704Y322249D01*
X31808Y322157D01*
X31909Y322062D01*
X31927Y322052D01*
X31942Y322039D01*
X32066Y321975D01*
X32188Y321908D01*
X32207Y321903D01*
X32225Y321894D01*
X32361Y321864D01*
X32496Y321829D01*
X32524Y321827D01*
X32536Y321824D01*
X32556Y321825D01*
X32656Y321819D01*
X34196Y321819D01*
X36577Y319438D01*
X36577Y316070D01*
X34196Y313689D01*
X32148Y313689D01*
X32011Y313672D01*
X31872Y313659D01*
X31853Y313652D01*
X31833Y313649D01*
X31704Y313598D01*
X31573Y313551D01*
X31556Y313540D01*
X31537Y313532D01*
X31425Y313451D01*
X31310Y313373D01*
X31296Y313357D01*
X31280Y313346D01*
X31191Y313238D01*
X31099Y313134D01*
X31090Y313116D01*
X31077Y313101D01*
X31018Y312975D01*
X30955Y312851D01*
X30950Y312831D01*
X30941Y312813D01*
X30915Y312676D01*
X30885Y312541D01*
X30885Y312520D01*
X30882Y312501D01*
X30890Y312362D01*
X30895Y312223D01*
X30900Y312203D01*
X30901Y312183D01*
X30944Y312051D01*
X30983Y311917D01*
X30993Y311900D01*
X30999Y311881D01*
X31074Y311763D01*
X31144Y311643D01*
X31163Y311622D01*
X31170Y311612D01*
X31185Y311598D01*
X31251Y311523D01*
X32937Y309836D01*
X34291Y306569D01*
X34291Y303031D01*
X32937Y299764D01*
X30436Y297263D01*
X27169Y295909D01*
X23631Y295909D01*
G37*
%LPD*%
%LPC*%
G36*
X341131Y257809D02*
X341131Y257809D01*
X337864Y259163D01*
X335363Y261664D01*
X334009Y264931D01*
X334009Y268641D01*
X334011Y268652D01*
X334009Y268684D01*
X334009Y268721D01*
X334005Y268757D01*
X334005Y268760D01*
X334006Y268870D01*
X333995Y268919D01*
X333992Y268969D01*
X333958Y269073D01*
X333932Y269179D01*
X333909Y269224D01*
X333894Y269271D01*
X333835Y269364D01*
X333784Y269460D01*
X333750Y269498D01*
X333723Y269540D01*
X333644Y269615D01*
X333570Y269696D01*
X333528Y269724D01*
X333492Y269758D01*
X333396Y269811D01*
X333305Y269871D01*
X333257Y269887D01*
X333213Y269912D01*
X333108Y269939D01*
X333004Y269974D01*
X332954Y269979D01*
X332905Y269991D01*
X332745Y270001D01*
X329278Y270001D01*
X326897Y272382D01*
X326897Y275750D01*
X329278Y278131D01*
X332646Y278131D01*
X335027Y275750D01*
X335027Y274464D01*
X335044Y274326D01*
X335057Y274188D01*
X335064Y274169D01*
X335067Y274149D01*
X335118Y274020D01*
X335165Y273889D01*
X335176Y273872D01*
X335184Y273853D01*
X335265Y273741D01*
X335343Y273626D01*
X335359Y273612D01*
X335370Y273596D01*
X335478Y273507D01*
X335582Y273415D01*
X335600Y273406D01*
X335615Y273393D01*
X335741Y273334D01*
X335865Y273271D01*
X335885Y273266D01*
X335903Y273257D01*
X336040Y273231D01*
X336175Y273201D01*
X336196Y273201D01*
X336215Y273198D01*
X336354Y273206D01*
X336493Y273211D01*
X336513Y273216D01*
X336533Y273217D01*
X336665Y273260D01*
X336799Y273299D01*
X336816Y273309D01*
X336835Y273315D01*
X336953Y273390D01*
X337073Y273460D01*
X337094Y273479D01*
X337104Y273486D01*
X337118Y273501D01*
X337193Y273567D01*
X337864Y274237D01*
X341131Y275591D01*
X344669Y275591D01*
X347936Y274237D01*
X350502Y271672D01*
X350521Y271639D01*
X350569Y271588D01*
X350610Y271532D01*
X350679Y271474D01*
X350742Y271410D01*
X350801Y271373D01*
X350855Y271329D01*
X350937Y271291D01*
X351013Y271244D01*
X351080Y271223D01*
X351143Y271193D01*
X351231Y271176D01*
X351317Y271150D01*
X351387Y271147D01*
X351456Y271133D01*
X351545Y271139D01*
X351634Y271135D01*
X351703Y271149D01*
X351773Y271153D01*
X351858Y271181D01*
X351946Y271199D01*
X352009Y271230D01*
X352075Y271251D01*
X352151Y271299D01*
X352232Y271338D01*
X352285Y271384D01*
X352344Y271421D01*
X352405Y271487D01*
X352474Y271545D01*
X352514Y271602D01*
X352562Y271653D01*
X352605Y271731D01*
X352657Y271805D01*
X352682Y271870D01*
X352716Y271931D01*
X352738Y272018D01*
X352770Y272102D01*
X352778Y272172D01*
X352795Y272239D01*
X352805Y272400D01*
X352805Y273718D01*
X355186Y276099D01*
X358554Y276099D01*
X360935Y273718D01*
X360935Y270350D01*
X358554Y267969D01*
X355186Y267969D01*
X353957Y269198D01*
X353848Y269283D01*
X353741Y269372D01*
X353722Y269381D01*
X353706Y269393D01*
X353578Y269449D01*
X353453Y269508D01*
X353433Y269511D01*
X353414Y269519D01*
X353276Y269541D01*
X353140Y269567D01*
X353120Y269566D01*
X353100Y269569D01*
X352961Y269556D01*
X352823Y269548D01*
X352804Y269541D01*
X352784Y269539D01*
X352652Y269492D01*
X352521Y269450D01*
X352503Y269439D01*
X352484Y269432D01*
X352369Y269354D01*
X352252Y269279D01*
X352238Y269265D01*
X352221Y269253D01*
X352129Y269149D01*
X352034Y269048D01*
X352024Y269030D01*
X352011Y269015D01*
X351947Y268891D01*
X351880Y268769D01*
X351875Y268750D01*
X351866Y268732D01*
X351836Y268596D01*
X351801Y268461D01*
X351799Y268433D01*
X351796Y268421D01*
X351797Y268401D01*
X351791Y268301D01*
X351791Y264931D01*
X350437Y261664D01*
X347936Y259163D01*
X344669Y257809D01*
X341131Y257809D01*
G37*
%LPD*%
%LPC*%
G36*
X202786Y280669D02*
X202786Y280669D01*
X200405Y283050D01*
X200405Y286418D01*
X202786Y288799D01*
X205745Y288799D01*
X205794Y288805D01*
X205845Y288803D01*
X205952Y288825D01*
X206060Y288839D01*
X206107Y288857D01*
X206156Y288867D01*
X206254Y288915D01*
X206356Y288956D01*
X206396Y288985D01*
X206442Y289007D01*
X206525Y289078D01*
X206613Y289142D01*
X206645Y289181D01*
X206683Y289214D01*
X206746Y289303D01*
X206816Y289387D01*
X206837Y289433D01*
X206866Y289474D01*
X206905Y289576D01*
X206952Y289675D01*
X206961Y289724D01*
X206979Y289771D01*
X206991Y289880D01*
X206995Y289904D01*
X206999Y289918D01*
X207000Y289926D01*
X207011Y289987D01*
X207008Y290038D01*
X207014Y290088D01*
X207009Y290119D01*
X207009Y293869D01*
X208363Y297136D01*
X210864Y299637D01*
X214131Y300991D01*
X217669Y300991D01*
X220936Y299637D01*
X223437Y297136D01*
X224791Y293869D01*
X224791Y290322D01*
X224806Y290204D01*
X224813Y290085D01*
X224826Y290047D01*
X224831Y290006D01*
X224874Y289896D01*
X224911Y289783D01*
X224933Y289748D01*
X224948Y289711D01*
X225017Y289615D01*
X225081Y289514D01*
X225111Y289486D01*
X225134Y289453D01*
X225226Y289377D01*
X225313Y289296D01*
X225348Y289276D01*
X225379Y289251D01*
X225487Y289200D01*
X225591Y289142D01*
X225631Y289132D01*
X225667Y289115D01*
X225784Y289093D01*
X225899Y289063D01*
X225959Y289059D01*
X225979Y289055D01*
X226000Y289057D01*
X226060Y289053D01*
X229268Y289053D01*
X231649Y286672D01*
X231649Y283304D01*
X229268Y280923D01*
X225900Y280923D01*
X223519Y283304D01*
X223519Y284082D01*
X223502Y284220D01*
X223489Y284358D01*
X223482Y284377D01*
X223479Y284397D01*
X223428Y284527D01*
X223381Y284657D01*
X223370Y284674D01*
X223362Y284693D01*
X223281Y284805D01*
X223203Y284920D01*
X223187Y284934D01*
X223176Y284950D01*
X223068Y285039D01*
X222964Y285131D01*
X222946Y285140D01*
X222931Y285153D01*
X222805Y285212D01*
X222681Y285276D01*
X222661Y285280D01*
X222643Y285289D01*
X222507Y285315D01*
X222371Y285345D01*
X222350Y285345D01*
X222331Y285348D01*
X222192Y285340D01*
X222053Y285335D01*
X222033Y285330D01*
X222013Y285329D01*
X221881Y285286D01*
X221747Y285247D01*
X221730Y285237D01*
X221711Y285231D01*
X221593Y285156D01*
X221473Y285086D01*
X221452Y285067D01*
X221442Y285060D01*
X221428Y285045D01*
X221352Y284979D01*
X220936Y284563D01*
X217669Y283209D01*
X214131Y283209D01*
X210864Y284563D01*
X210702Y284725D01*
X210592Y284810D01*
X210485Y284899D01*
X210466Y284908D01*
X210450Y284920D01*
X210322Y284975D01*
X210197Y285035D01*
X210177Y285038D01*
X210158Y285046D01*
X210021Y285068D01*
X209884Y285094D01*
X209864Y285093D01*
X209844Y285096D01*
X209706Y285083D01*
X209567Y285075D01*
X209548Y285068D01*
X209528Y285066D01*
X209396Y285019D01*
X209265Y284977D01*
X209247Y284966D01*
X209228Y284959D01*
X209113Y284881D01*
X208996Y284806D01*
X208982Y284792D01*
X208965Y284780D01*
X208873Y284676D01*
X208778Y284575D01*
X208768Y284557D01*
X208755Y284542D01*
X208691Y284418D01*
X208624Y284296D01*
X208619Y284277D01*
X208610Y284259D01*
X208580Y284122D01*
X208545Y283988D01*
X208543Y283960D01*
X208540Y283948D01*
X208541Y283928D01*
X208535Y283828D01*
X208535Y283050D01*
X206154Y280669D01*
X202786Y280669D01*
G37*
%LPD*%
%LPC*%
G36*
X203040Y331215D02*
X203040Y331215D01*
X200659Y333596D01*
X200659Y336964D01*
X203040Y339345D01*
X205850Y339345D01*
X205899Y339351D01*
X205949Y339349D01*
X206056Y339371D01*
X206165Y339385D01*
X206212Y339403D01*
X206260Y339413D01*
X206359Y339461D01*
X206461Y339502D01*
X206501Y339531D01*
X206546Y339553D01*
X206629Y339624D01*
X206718Y339688D01*
X206750Y339727D01*
X206788Y339759D01*
X206851Y339849D01*
X206921Y339933D01*
X206942Y339978D01*
X206971Y340019D01*
X207010Y340122D01*
X207057Y340221D01*
X207066Y340270D01*
X207084Y340316D01*
X207096Y340426D01*
X207117Y340533D01*
X207113Y340583D01*
X207119Y340633D01*
X207104Y340741D01*
X207097Y340851D01*
X207081Y340898D01*
X207074Y340947D01*
X207022Y341100D01*
X207009Y341132D01*
X207009Y344678D01*
X206994Y344796D01*
X206987Y344915D01*
X206974Y344953D01*
X206969Y344994D01*
X206926Y345104D01*
X206889Y345217D01*
X206867Y345252D01*
X206852Y345289D01*
X206783Y345385D01*
X206719Y345486D01*
X206689Y345514D01*
X206666Y345547D01*
X206574Y345623D01*
X206487Y345704D01*
X206452Y345724D01*
X206421Y345749D01*
X206313Y345800D01*
X206209Y345858D01*
X206169Y345868D01*
X206133Y345885D01*
X206016Y345907D01*
X205901Y345937D01*
X205841Y345941D01*
X205821Y345945D01*
X205800Y345943D01*
X205740Y345947D01*
X202786Y345947D01*
X200405Y348328D01*
X200405Y351696D01*
X202786Y354077D01*
X206154Y354077D01*
X208535Y351696D01*
X208535Y351172D01*
X208552Y351034D01*
X208565Y350896D01*
X208572Y350877D01*
X208575Y350857D01*
X208626Y350728D01*
X208673Y350597D01*
X208684Y350580D01*
X208692Y350561D01*
X208773Y350449D01*
X208851Y350334D01*
X208867Y350320D01*
X208878Y350304D01*
X208986Y350215D01*
X209090Y350123D01*
X209108Y350114D01*
X209123Y350101D01*
X209249Y350042D01*
X209373Y349978D01*
X209393Y349974D01*
X209411Y349965D01*
X209547Y349939D01*
X209683Y349909D01*
X209704Y349909D01*
X209723Y349906D01*
X209862Y349914D01*
X210001Y349919D01*
X210021Y349924D01*
X210041Y349925D01*
X210173Y349968D01*
X210307Y350007D01*
X210324Y350017D01*
X210343Y350023D01*
X210461Y350098D01*
X210581Y350169D01*
X210602Y350187D01*
X210612Y350194D01*
X210626Y350209D01*
X210702Y350275D01*
X210864Y350437D01*
X214131Y351791D01*
X217669Y351791D01*
X220936Y350437D01*
X223437Y347936D01*
X224791Y344669D01*
X224791Y341131D01*
X223437Y337864D01*
X220936Y335363D01*
X217669Y334009D01*
X214131Y334009D01*
X210812Y335384D01*
X210739Y335445D01*
X210720Y335454D01*
X210704Y335466D01*
X210576Y335521D01*
X210451Y335581D01*
X210431Y335584D01*
X210413Y335592D01*
X210275Y335614D01*
X210138Y335640D01*
X210118Y335639D01*
X210098Y335642D01*
X209960Y335629D01*
X209821Y335621D01*
X209802Y335614D01*
X209782Y335612D01*
X209651Y335565D01*
X209519Y335523D01*
X209502Y335512D01*
X209483Y335505D01*
X209368Y335427D01*
X209250Y335352D01*
X209236Y335338D01*
X209219Y335326D01*
X209127Y335222D01*
X209032Y335121D01*
X209022Y335103D01*
X209009Y335088D01*
X208946Y334964D01*
X208878Y334842D01*
X208873Y334823D01*
X208864Y334805D01*
X208834Y334669D01*
X208799Y334534D01*
X208797Y334506D01*
X208795Y334495D01*
X208795Y334474D01*
X208789Y334374D01*
X208789Y333596D01*
X206408Y331215D01*
X203040Y331215D01*
G37*
%LPD*%
%LPC*%
G36*
X253847Y43372D02*
X253847Y43372D01*
X253772Y43447D01*
X253772Y64553D01*
X254108Y64889D01*
X254193Y64998D01*
X254282Y65105D01*
X254290Y65124D01*
X254303Y65140D01*
X254358Y65268D01*
X254417Y65393D01*
X254421Y65413D01*
X254429Y65432D01*
X254451Y65570D01*
X254477Y65706D01*
X254476Y65726D01*
X254479Y65746D01*
X254466Y65885D01*
X254457Y66023D01*
X254451Y66042D01*
X254449Y66062D01*
X254402Y66193D01*
X254359Y66325D01*
X254348Y66343D01*
X254342Y66362D01*
X254264Y66476D01*
X254189Y66594D01*
X254174Y66608D01*
X254163Y66625D01*
X254059Y66717D01*
X253958Y66812D01*
X253940Y66822D01*
X253925Y66835D01*
X253801Y66898D01*
X253679Y66966D01*
X253659Y66971D01*
X253641Y66980D01*
X253505Y67010D01*
X253371Y67045D01*
X253343Y67047D01*
X253331Y67050D01*
X253311Y67049D01*
X253210Y67055D01*
X251808Y67055D01*
X249427Y69436D01*
X249427Y71705D01*
X249410Y71843D01*
X249397Y71981D01*
X249390Y72000D01*
X249387Y72020D01*
X249336Y72149D01*
X249289Y72280D01*
X249278Y72297D01*
X249270Y72316D01*
X249189Y72428D01*
X249111Y72543D01*
X249095Y72557D01*
X249084Y72573D01*
X248976Y72662D01*
X248872Y72754D01*
X248854Y72763D01*
X248839Y72776D01*
X248713Y72835D01*
X248589Y72898D01*
X248569Y72903D01*
X248551Y72912D01*
X248414Y72938D01*
X248279Y72968D01*
X248258Y72968D01*
X248239Y72971D01*
X248100Y72963D01*
X247961Y72958D01*
X247941Y72953D01*
X247921Y72952D01*
X247789Y72909D01*
X247655Y72870D01*
X247638Y72860D01*
X247619Y72854D01*
X247501Y72779D01*
X247381Y72709D01*
X247360Y72690D01*
X247350Y72683D01*
X247336Y72668D01*
X247261Y72602D01*
X246286Y71627D01*
X242918Y71627D01*
X240537Y74008D01*
X240537Y77376D01*
X242918Y79757D01*
X246286Y79757D01*
X248667Y77376D01*
X248667Y75107D01*
X248684Y74969D01*
X248687Y74941D01*
X248689Y74905D01*
X248691Y74900D01*
X248697Y74831D01*
X248704Y74812D01*
X248707Y74792D01*
X248758Y74663D01*
X248805Y74532D01*
X248816Y74515D01*
X248824Y74496D01*
X248905Y74384D01*
X248983Y74269D01*
X248999Y74255D01*
X249010Y74239D01*
X249118Y74150D01*
X249222Y74058D01*
X249240Y74049D01*
X249255Y74036D01*
X249381Y73977D01*
X249505Y73914D01*
X249525Y73909D01*
X249543Y73900D01*
X249680Y73874D01*
X249815Y73844D01*
X249836Y73844D01*
X249855Y73841D01*
X249994Y73849D01*
X250133Y73854D01*
X250153Y73859D01*
X250173Y73860D01*
X250305Y73903D01*
X250439Y73942D01*
X250456Y73952D01*
X250475Y73958D01*
X250593Y74033D01*
X250713Y74103D01*
X250734Y74122D01*
X250744Y74129D01*
X250758Y74144D01*
X250833Y74210D01*
X251808Y75185D01*
X255176Y75185D01*
X257557Y72804D01*
X257557Y69436D01*
X254915Y66794D01*
X254830Y66685D01*
X254741Y66578D01*
X254732Y66559D01*
X254720Y66543D01*
X254664Y66415D01*
X254605Y66290D01*
X254602Y66270D01*
X254594Y66251D01*
X254572Y66113D01*
X254546Y65977D01*
X254547Y65957D01*
X254544Y65937D01*
X254557Y65798D01*
X254565Y65660D01*
X254572Y65641D01*
X254574Y65621D01*
X254621Y65489D01*
X254663Y65358D01*
X254674Y65340D01*
X254681Y65321D01*
X254759Y65206D01*
X254834Y65089D01*
X254848Y65075D01*
X254860Y65058D01*
X254964Y64966D01*
X255065Y64871D01*
X255083Y64861D01*
X255098Y64848D01*
X255222Y64784D01*
X255344Y64717D01*
X255363Y64712D01*
X255381Y64703D01*
X255517Y64673D01*
X255652Y64638D01*
X255680Y64636D01*
X255692Y64633D01*
X255712Y64634D01*
X255812Y64628D01*
X263953Y64628D01*
X264028Y64553D01*
X264028Y43447D01*
X263953Y43372D01*
X253847Y43372D01*
G37*
%LPD*%
%LPC*%
G36*
X23631Y194309D02*
X23631Y194309D01*
X20364Y195663D01*
X17863Y198164D01*
X16509Y201431D01*
X16509Y204969D01*
X17863Y208236D01*
X20364Y210737D01*
X23631Y212091D01*
X27169Y212091D01*
X30436Y210737D01*
X32123Y209051D01*
X32232Y208966D01*
X32339Y208877D01*
X32358Y208868D01*
X32374Y208856D01*
X32502Y208800D01*
X32627Y208741D01*
X32647Y208738D01*
X32666Y208730D01*
X32804Y208708D01*
X32940Y208682D01*
X32960Y208683D01*
X32980Y208680D01*
X33119Y208693D01*
X33257Y208701D01*
X33276Y208708D01*
X33296Y208710D01*
X33428Y208757D01*
X33559Y208799D01*
X33577Y208810D01*
X33596Y208817D01*
X33711Y208895D01*
X33828Y208970D01*
X33842Y208984D01*
X33859Y208996D01*
X33951Y209100D01*
X34046Y209201D01*
X34056Y209219D01*
X34069Y209234D01*
X34133Y209358D01*
X34200Y209480D01*
X34205Y209499D01*
X34214Y209517D01*
X34244Y209653D01*
X34279Y209788D01*
X34281Y209816D01*
X34284Y209828D01*
X34283Y209848D01*
X34289Y209948D01*
X34289Y210980D01*
X36670Y213361D01*
X40038Y213361D01*
X42419Y210980D01*
X42419Y207612D01*
X40038Y205231D01*
X36670Y205231D01*
X36458Y205444D01*
X36348Y205529D01*
X36241Y205618D01*
X36222Y205627D01*
X36206Y205639D01*
X36078Y205694D01*
X35953Y205754D01*
X35933Y205757D01*
X35914Y205765D01*
X35776Y205787D01*
X35640Y205813D01*
X35620Y205812D01*
X35600Y205815D01*
X35461Y205802D01*
X35323Y205794D01*
X35304Y205787D01*
X35284Y205785D01*
X35153Y205738D01*
X35021Y205696D01*
X35003Y205685D01*
X34984Y205678D01*
X34870Y205600D01*
X34752Y205525D01*
X34738Y205511D01*
X34721Y205499D01*
X34629Y205395D01*
X34534Y205294D01*
X34524Y205276D01*
X34511Y205261D01*
X34448Y205137D01*
X34380Y205015D01*
X34375Y204996D01*
X34366Y204978D01*
X34336Y204842D01*
X34301Y204707D01*
X34299Y204679D01*
X34296Y204667D01*
X34297Y204647D01*
X34291Y204547D01*
X34291Y201431D01*
X32937Y198164D01*
X30436Y195663D01*
X27169Y194309D01*
X23631Y194309D01*
G37*
%LPD*%
%LPC*%
G36*
X506231Y334009D02*
X506231Y334009D01*
X502964Y335363D01*
X500463Y337864D01*
X499109Y341131D01*
X499109Y344669D01*
X499964Y346732D01*
X499977Y346780D01*
X499998Y346825D01*
X500019Y346933D01*
X500048Y347039D01*
X500049Y347089D01*
X500058Y347138D01*
X500051Y347247D01*
X500053Y347357D01*
X500042Y347405D01*
X500038Y347455D01*
X500005Y347559D01*
X499979Y347666D01*
X499956Y347710D01*
X499940Y347757D01*
X499882Y347850D01*
X499830Y347947D01*
X499797Y347984D01*
X499770Y348026D01*
X499690Y348101D01*
X499616Y348183D01*
X499575Y348210D01*
X499539Y348244D01*
X499442Y348297D01*
X499351Y348357D01*
X499304Y348374D01*
X499260Y348398D01*
X499154Y348425D01*
X499050Y348461D01*
X499000Y348465D01*
X498952Y348477D01*
X498792Y348487D01*
X495902Y348487D01*
X493521Y350868D01*
X493521Y354236D01*
X495902Y356617D01*
X499270Y356617D01*
X501651Y354236D01*
X501651Y351793D01*
X501657Y351743D01*
X501655Y351694D01*
X501673Y351606D01*
X501673Y351602D01*
X501675Y351596D01*
X501677Y351587D01*
X501691Y351477D01*
X501709Y351431D01*
X501719Y351382D01*
X501767Y351284D01*
X501808Y351182D01*
X501837Y351142D01*
X501859Y351097D01*
X501930Y351013D01*
X501994Y350924D01*
X502033Y350893D01*
X502065Y350855D01*
X502155Y350792D01*
X502239Y350721D01*
X502284Y350700D01*
X502325Y350672D01*
X502428Y350633D01*
X502527Y350586D01*
X502576Y350577D01*
X502622Y350559D01*
X502732Y350547D01*
X502839Y350526D01*
X502889Y350529D01*
X502938Y350524D01*
X503047Y350539D01*
X503157Y350546D01*
X503204Y350561D01*
X503253Y350568D01*
X503406Y350620D01*
X506231Y351791D01*
X509769Y351791D01*
X513036Y350437D01*
X515537Y347936D01*
X516891Y344669D01*
X516891Y341131D01*
X515537Y337864D01*
X513036Y335363D01*
X509769Y334009D01*
X506231Y334009D01*
G37*
%LPD*%
%LPC*%
G36*
X354424Y281431D02*
X354424Y281431D01*
X352043Y283812D01*
X352043Y285606D01*
X352026Y285743D01*
X352013Y285882D01*
X352006Y285901D01*
X352003Y285921D01*
X351952Y286050D01*
X351905Y286181D01*
X351894Y286198D01*
X351886Y286217D01*
X351805Y286329D01*
X351727Y286444D01*
X351711Y286458D01*
X351700Y286474D01*
X351592Y286563D01*
X351488Y286655D01*
X351470Y286664D01*
X351455Y286677D01*
X351329Y286736D01*
X351205Y286799D01*
X351185Y286804D01*
X351167Y286813D01*
X351031Y286839D01*
X350895Y286869D01*
X350874Y286869D01*
X350855Y286872D01*
X350716Y286864D01*
X350577Y286859D01*
X350557Y286854D01*
X350537Y286853D01*
X350405Y286810D01*
X350271Y286771D01*
X350254Y286761D01*
X350235Y286755D01*
X350117Y286680D01*
X349997Y286610D01*
X349976Y286591D01*
X349966Y286584D01*
X349952Y286569D01*
X349877Y286503D01*
X347936Y284563D01*
X344669Y283209D01*
X341131Y283209D01*
X337864Y284563D01*
X335363Y287064D01*
X334009Y290331D01*
X334009Y293869D01*
X335363Y297136D01*
X337864Y299637D01*
X341131Y300991D01*
X344669Y300991D01*
X347936Y299637D01*
X350437Y297136D01*
X351791Y293869D01*
X351791Y290310D01*
X351779Y290284D01*
X351765Y290195D01*
X351741Y290109D01*
X351740Y290039D01*
X351729Y289970D01*
X351738Y289880D01*
X351736Y289791D01*
X351753Y289723D01*
X351759Y289653D01*
X351790Y289568D01*
X351810Y289481D01*
X351843Y289420D01*
X351867Y289354D01*
X351917Y289279D01*
X351959Y289200D01*
X352006Y289148D01*
X352045Y289091D01*
X352113Y289031D01*
X352173Y288965D01*
X352231Y288926D01*
X352284Y288880D01*
X352364Y288839D01*
X352439Y288790D01*
X352505Y288767D01*
X352567Y288736D01*
X352655Y288716D01*
X352739Y288687D01*
X352809Y288681D01*
X352877Y288666D01*
X352967Y288669D01*
X353056Y288661D01*
X353125Y288673D01*
X353195Y288676D01*
X353281Y288700D01*
X353370Y288716D01*
X353434Y288745D01*
X353501Y288764D01*
X353578Y288809D01*
X353660Y288846D01*
X353714Y288890D01*
X353775Y288925D01*
X353895Y289032D01*
X354424Y289561D01*
X357792Y289561D01*
X360173Y287180D01*
X360173Y283812D01*
X357792Y281431D01*
X354424Y281431D01*
G37*
%LPD*%
%LPC*%
G36*
X506231Y207009D02*
X506231Y207009D01*
X502964Y208363D01*
X500463Y210864D01*
X499109Y214131D01*
X499109Y217669D01*
X499793Y219319D01*
X499811Y219387D01*
X499839Y219451D01*
X499853Y219540D01*
X499877Y219626D01*
X499878Y219696D01*
X499889Y219765D01*
X499881Y219854D01*
X499882Y219944D01*
X499866Y220012D01*
X499859Y220081D01*
X499829Y220166D01*
X499808Y220253D01*
X499775Y220315D01*
X499752Y220381D01*
X499701Y220455D01*
X499659Y220534D01*
X499612Y220586D01*
X499573Y220644D01*
X499506Y220703D01*
X499445Y220770D01*
X499387Y220808D01*
X499335Y220854D01*
X499255Y220895D01*
X499180Y220945D01*
X499113Y220967D01*
X499051Y220999D01*
X498964Y221019D01*
X498879Y221048D01*
X498809Y221053D01*
X498741Y221069D01*
X498651Y221066D01*
X498562Y221073D01*
X498493Y221061D01*
X498423Y221059D01*
X498337Y221034D01*
X498248Y221019D01*
X498185Y220990D01*
X498118Y220970D01*
X498040Y220925D01*
X497958Y220888D01*
X497904Y220844D01*
X497844Y220809D01*
X497723Y220703D01*
X496222Y219201D01*
X492854Y219201D01*
X490473Y221582D01*
X490473Y224950D01*
X492854Y227331D01*
X496222Y227331D01*
X498603Y224950D01*
X498603Y222140D01*
X498620Y222003D01*
X498633Y221864D01*
X498640Y221845D01*
X498643Y221825D01*
X498694Y221696D01*
X498741Y221565D01*
X498752Y221548D01*
X498760Y221529D01*
X498841Y221417D01*
X498919Y221302D01*
X498935Y221288D01*
X498946Y221272D01*
X499054Y221183D01*
X499158Y221091D01*
X499176Y221082D01*
X499191Y221069D01*
X499317Y221010D01*
X499441Y220947D01*
X499461Y220942D01*
X499479Y220933D01*
X499615Y220907D01*
X499751Y220877D01*
X499772Y220877D01*
X499791Y220874D01*
X499930Y220882D01*
X500069Y220887D01*
X500089Y220892D01*
X500109Y220893D01*
X500241Y220936D01*
X500375Y220975D01*
X500392Y220985D01*
X500411Y220991D01*
X500529Y221066D01*
X500649Y221136D01*
X500670Y221155D01*
X500680Y221162D01*
X500694Y221177D01*
X500769Y221243D01*
X502964Y223437D01*
X506231Y224791D01*
X509769Y224791D01*
X513036Y223437D01*
X515537Y220936D01*
X516891Y217669D01*
X516891Y214131D01*
X515537Y210864D01*
X513036Y208363D01*
X509769Y207009D01*
X506231Y207009D01*
G37*
%LPD*%
%LPC*%
G36*
X23631Y435609D02*
X23631Y435609D01*
X20364Y436963D01*
X17863Y439464D01*
X16509Y442731D01*
X16509Y446269D01*
X17863Y449536D01*
X20364Y452037D01*
X23631Y453391D01*
X27169Y453391D01*
X30436Y452037D01*
X32937Y449536D01*
X34291Y446269D01*
X34291Y442731D01*
X32937Y439464D01*
X30436Y436963D01*
X27169Y435609D01*
X23631Y435609D01*
G37*
%LPD*%
%LPC*%
G36*
X23631Y92709D02*
X23631Y92709D01*
X20364Y94063D01*
X17863Y96564D01*
X16509Y99831D01*
X16509Y103369D01*
X17863Y106636D01*
X20364Y109137D01*
X23631Y110491D01*
X27169Y110491D01*
X30436Y109137D01*
X32937Y106636D01*
X34291Y103369D01*
X34291Y99831D01*
X32937Y96564D01*
X30436Y94063D01*
X27169Y92709D01*
X23631Y92709D01*
G37*
%LPD*%
%LPC*%
G36*
X341131Y359409D02*
X341131Y359409D01*
X337864Y360763D01*
X335363Y363264D01*
X334009Y366531D01*
X334009Y370069D01*
X335363Y373336D01*
X337864Y375837D01*
X341131Y377191D01*
X344669Y377191D01*
X347936Y375837D01*
X350437Y373336D01*
X351791Y370069D01*
X351791Y366531D01*
X350437Y363264D01*
X347936Y360763D01*
X344669Y359409D01*
X341131Y359409D01*
G37*
%LPD*%
%LPC*%
G36*
X214131Y359409D02*
X214131Y359409D01*
X210864Y360763D01*
X208363Y363264D01*
X207009Y366531D01*
X207009Y370069D01*
X208363Y373336D01*
X210864Y375837D01*
X214131Y377191D01*
X217669Y377191D01*
X220936Y375837D01*
X223437Y373336D01*
X224791Y370069D01*
X224791Y366531D01*
X223437Y363264D01*
X220936Y360763D01*
X217669Y359409D01*
X214131Y359409D01*
G37*
%LPD*%
%LPC*%
G36*
X23631Y359409D02*
X23631Y359409D01*
X20364Y360763D01*
X17863Y363264D01*
X16509Y366531D01*
X16509Y370069D01*
X17863Y373336D01*
X20364Y375837D01*
X23631Y377191D01*
X27169Y377191D01*
X30436Y375837D01*
X32937Y373336D01*
X34291Y370069D01*
X34291Y366531D01*
X32937Y363264D01*
X30436Y360763D01*
X27169Y359409D01*
X23631Y359409D01*
G37*
%LPD*%
%LPC*%
G36*
X341131Y461009D02*
X341131Y461009D01*
X337864Y462363D01*
X335363Y464864D01*
X334009Y468131D01*
X334009Y471669D01*
X335363Y474936D01*
X337864Y477437D01*
X341131Y478791D01*
X344669Y478791D01*
X347936Y477437D01*
X350437Y474936D01*
X351791Y471669D01*
X351791Y468131D01*
X350437Y464864D01*
X347936Y462363D01*
X344669Y461009D01*
X341131Y461009D01*
G37*
%LPD*%
%LPC*%
G36*
X23631Y461009D02*
X23631Y461009D01*
X20364Y462363D01*
X17863Y464864D01*
X16509Y468131D01*
X16509Y471669D01*
X17863Y474936D01*
X20364Y477437D01*
X23631Y478791D01*
X27169Y478791D01*
X30436Y477437D01*
X32937Y474936D01*
X34291Y471669D01*
X34291Y468131D01*
X32937Y464864D01*
X30436Y462363D01*
X27169Y461009D01*
X23631Y461009D01*
G37*
%LPD*%
%LPC*%
G36*
X214131Y461009D02*
X214131Y461009D01*
X210864Y462363D01*
X208363Y464864D01*
X207009Y468131D01*
X207009Y471669D01*
X208363Y474936D01*
X210864Y477437D01*
X214131Y478791D01*
X217669Y478791D01*
X220936Y477437D01*
X223437Y474936D01*
X224791Y471669D01*
X224791Y468131D01*
X223437Y464864D01*
X220936Y462363D01*
X217669Y461009D01*
X214131Y461009D01*
G37*
%LPD*%
%LPC*%
G36*
X506231Y283209D02*
X506231Y283209D01*
X502964Y284563D01*
X500463Y287064D01*
X499109Y290331D01*
X499109Y293869D01*
X500463Y297136D01*
X502964Y299637D01*
X506231Y300991D01*
X509769Y300991D01*
X513036Y299637D01*
X515537Y297136D01*
X516891Y293869D01*
X516891Y290331D01*
X515537Y287064D01*
X513036Y284563D01*
X509769Y283209D01*
X506231Y283209D01*
G37*
%LPD*%
%LPC*%
G36*
X23631Y118109D02*
X23631Y118109D01*
X20364Y119463D01*
X17863Y121964D01*
X16509Y125231D01*
X16509Y128769D01*
X17863Y132036D01*
X20364Y134537D01*
X23631Y135891D01*
X27169Y135891D01*
X30436Y134537D01*
X32937Y132036D01*
X34291Y128769D01*
X34291Y125231D01*
X32937Y121964D01*
X30436Y119463D01*
X27169Y118109D01*
X23631Y118109D01*
G37*
%LPD*%
%LPC*%
G36*
X23631Y143509D02*
X23631Y143509D01*
X20364Y144863D01*
X17863Y147364D01*
X16509Y150631D01*
X16509Y154169D01*
X17863Y157436D01*
X20364Y159937D01*
X23631Y161291D01*
X27169Y161291D01*
X30436Y159937D01*
X32937Y157436D01*
X34291Y154169D01*
X34291Y150631D01*
X32937Y147364D01*
X30436Y144863D01*
X27169Y143509D01*
X23631Y143509D01*
G37*
%LPD*%
%LPC*%
G36*
X23631Y245109D02*
X23631Y245109D01*
X20364Y246463D01*
X17863Y248964D01*
X16509Y252231D01*
X16509Y255769D01*
X17863Y259036D01*
X20364Y261537D01*
X23631Y262891D01*
X27169Y262891D01*
X30436Y261537D01*
X32937Y259036D01*
X34291Y255769D01*
X34291Y252231D01*
X32937Y248964D01*
X30436Y246463D01*
X27169Y245109D01*
X23631Y245109D01*
G37*
%LPD*%
%LPC*%
G36*
X23631Y168909D02*
X23631Y168909D01*
X20364Y170263D01*
X17863Y172764D01*
X16509Y176031D01*
X16509Y179569D01*
X17863Y182836D01*
X20364Y185337D01*
X23631Y186691D01*
X27169Y186691D01*
X30436Y185337D01*
X32937Y182836D01*
X34291Y179569D01*
X34291Y176031D01*
X32937Y172764D01*
X30436Y170263D01*
X27169Y168909D01*
X23631Y168909D01*
G37*
%LPD*%
%LPC*%
G36*
X23631Y270509D02*
X23631Y270509D01*
X20364Y271863D01*
X17863Y274364D01*
X16509Y277631D01*
X16509Y281169D01*
X17863Y284436D01*
X20364Y286937D01*
X23631Y288291D01*
X27169Y288291D01*
X30436Y286937D01*
X32937Y284436D01*
X34291Y281169D01*
X34291Y277631D01*
X32937Y274364D01*
X30436Y271863D01*
X27169Y270509D01*
X23631Y270509D01*
G37*
%LPD*%
%LPC*%
G36*
X341131Y435609D02*
X341131Y435609D01*
X337864Y436963D01*
X335363Y439464D01*
X334009Y442731D01*
X334009Y446269D01*
X335363Y449536D01*
X337864Y452037D01*
X341131Y453391D01*
X344669Y453391D01*
X347936Y452037D01*
X350437Y449536D01*
X351791Y446269D01*
X351791Y442731D01*
X350437Y439464D01*
X347936Y436963D01*
X344669Y435609D01*
X341131Y435609D01*
G37*
%LPD*%
%LPC*%
G36*
X341131Y334009D02*
X341131Y334009D01*
X337864Y335363D01*
X335363Y337864D01*
X334009Y341131D01*
X334009Y344669D01*
X335363Y347936D01*
X337864Y350437D01*
X341131Y351791D01*
X344669Y351791D01*
X347936Y350437D01*
X350437Y347936D01*
X351791Y344669D01*
X351791Y341131D01*
X350437Y337864D01*
X347936Y335363D01*
X344669Y334009D01*
X341131Y334009D01*
G37*
%LPD*%
%LPC*%
G36*
X214131Y384809D02*
X214131Y384809D01*
X210864Y386163D01*
X208363Y388664D01*
X207009Y391931D01*
X207009Y395469D01*
X208363Y398736D01*
X210864Y401237D01*
X214131Y402591D01*
X217669Y402591D01*
X220936Y401237D01*
X223437Y398736D01*
X224791Y395469D01*
X224791Y391931D01*
X223437Y388664D01*
X220936Y386163D01*
X217669Y384809D01*
X214131Y384809D01*
G37*
%LPD*%
%LPC*%
G36*
X23631Y219709D02*
X23631Y219709D01*
X20364Y221063D01*
X17863Y223564D01*
X16509Y226831D01*
X16509Y230369D01*
X17863Y233636D01*
X20364Y236137D01*
X23631Y237491D01*
X27169Y237491D01*
X30436Y236137D01*
X32937Y233636D01*
X34291Y230369D01*
X34291Y226831D01*
X32937Y223564D01*
X30436Y221063D01*
X27169Y219709D01*
X23631Y219709D01*
G37*
%LPD*%
%LPC*%
G36*
X214131Y257809D02*
X214131Y257809D01*
X210864Y259163D01*
X208363Y261664D01*
X207009Y264931D01*
X207009Y268469D01*
X208363Y271736D01*
X210864Y274237D01*
X214131Y275591D01*
X217669Y275591D01*
X220936Y274237D01*
X223437Y271736D01*
X224791Y268469D01*
X224791Y264931D01*
X223437Y261664D01*
X220936Y259163D01*
X217669Y257809D01*
X214131Y257809D01*
G37*
%LPD*%
%LPC*%
G36*
X506231Y410209D02*
X506231Y410209D01*
X502964Y411563D01*
X500463Y414064D01*
X499109Y417331D01*
X499109Y420869D01*
X500463Y424136D01*
X502964Y426637D01*
X506231Y427991D01*
X509769Y427991D01*
X513036Y426637D01*
X515537Y424136D01*
X516891Y420869D01*
X516891Y417331D01*
X515537Y414064D01*
X513036Y411563D01*
X509769Y410209D01*
X506231Y410209D01*
G37*
%LPD*%
%LPC*%
G36*
X341131Y410209D02*
X341131Y410209D01*
X337864Y411563D01*
X335363Y414064D01*
X334009Y417331D01*
X334009Y420869D01*
X335363Y424136D01*
X337864Y426637D01*
X341131Y427991D01*
X344669Y427991D01*
X347936Y426637D01*
X350437Y424136D01*
X351791Y420869D01*
X351791Y417331D01*
X350437Y414064D01*
X347936Y411563D01*
X344669Y410209D01*
X341131Y410209D01*
G37*
%LPD*%
%LPC*%
G36*
X214131Y410209D02*
X214131Y410209D01*
X210864Y411563D01*
X208363Y414064D01*
X207009Y417331D01*
X207009Y420869D01*
X208363Y424136D01*
X210864Y426637D01*
X214131Y427991D01*
X217669Y427991D01*
X220936Y426637D01*
X223437Y424136D01*
X224791Y420869D01*
X224791Y417331D01*
X223437Y414064D01*
X220936Y411563D01*
X217669Y410209D01*
X214131Y410209D01*
G37*
%LPD*%
%LPC*%
G36*
X23631Y410209D02*
X23631Y410209D01*
X20364Y411563D01*
X17863Y414064D01*
X16509Y417331D01*
X16509Y420869D01*
X17863Y424136D01*
X20364Y426637D01*
X23631Y427991D01*
X27169Y427991D01*
X30436Y426637D01*
X32937Y424136D01*
X34291Y420869D01*
X34291Y417331D01*
X32937Y414064D01*
X30436Y411563D01*
X27169Y410209D01*
X23631Y410209D01*
G37*
%LPD*%
%LPC*%
G36*
X214131Y435609D02*
X214131Y435609D01*
X210864Y436963D01*
X208363Y439464D01*
X207009Y442731D01*
X207009Y446269D01*
X208363Y449536D01*
X210864Y452037D01*
X214131Y453391D01*
X217669Y453391D01*
X220936Y452037D01*
X223437Y449536D01*
X224791Y446269D01*
X224791Y442731D01*
X223437Y439464D01*
X220936Y436963D01*
X217669Y435609D01*
X214131Y435609D01*
G37*
%LPD*%
%LPC*%
G36*
X214131Y308609D02*
X214131Y308609D01*
X210864Y309963D01*
X208363Y312464D01*
X207009Y315731D01*
X207009Y319269D01*
X208363Y322536D01*
X210864Y325037D01*
X214131Y326391D01*
X217669Y326391D01*
X220936Y325037D01*
X223437Y322536D01*
X224791Y319269D01*
X224791Y315731D01*
X223437Y312464D01*
X220936Y309963D01*
X217669Y308609D01*
X214131Y308609D01*
G37*
%LPD*%
%LPC*%
G36*
X506231Y308609D02*
X506231Y308609D01*
X502964Y309963D01*
X500463Y312464D01*
X499109Y315731D01*
X499109Y319269D01*
X500463Y322536D01*
X502964Y325037D01*
X506231Y326391D01*
X509769Y326391D01*
X513036Y325037D01*
X515537Y322536D01*
X516891Y319269D01*
X516891Y315731D01*
X515537Y312464D01*
X513036Y309963D01*
X509769Y308609D01*
X506231Y308609D01*
G37*
%LPD*%
%LPC*%
G36*
X341131Y308609D02*
X341131Y308609D01*
X337864Y309963D01*
X335363Y312464D01*
X334009Y315731D01*
X334009Y319269D01*
X335363Y322536D01*
X337864Y325037D01*
X341131Y326391D01*
X344669Y326391D01*
X347936Y325037D01*
X350437Y322536D01*
X351791Y319269D01*
X351791Y315731D01*
X350437Y312464D01*
X347936Y309963D01*
X344669Y308609D01*
X341131Y308609D01*
G37*
%LPD*%
%LPC*%
G36*
X23631Y384809D02*
X23631Y384809D01*
X20364Y386163D01*
X17863Y388664D01*
X16509Y391931D01*
X16509Y395469D01*
X17863Y398736D01*
X20364Y401237D01*
X23631Y402591D01*
X27169Y402591D01*
X30436Y401237D01*
X32937Y398736D01*
X34291Y395469D01*
X34291Y391931D01*
X32937Y388664D01*
X30436Y386163D01*
X27169Y384809D01*
X23631Y384809D01*
G37*
%LPD*%
%LPC*%
G36*
X341131Y384809D02*
X341131Y384809D01*
X337864Y386163D01*
X335363Y388664D01*
X334009Y391931D01*
X334009Y395469D01*
X335363Y398736D01*
X337864Y401237D01*
X341131Y402591D01*
X344669Y402591D01*
X347936Y401237D01*
X350437Y398736D01*
X351791Y395469D01*
X351791Y391931D01*
X350437Y388664D01*
X347936Y386163D01*
X344669Y384809D01*
X341131Y384809D01*
G37*
%LPD*%
%LPC*%
G36*
X506231Y181609D02*
X506231Y181609D01*
X502964Y182963D01*
X500463Y185464D01*
X499109Y188731D01*
X499109Y192269D01*
X500463Y195536D01*
X502964Y198037D01*
X506231Y199391D01*
X509769Y199391D01*
X513036Y198037D01*
X515537Y195536D01*
X516891Y192269D01*
X516891Y188731D01*
X515537Y185464D01*
X513036Y182963D01*
X509769Y181609D01*
X506231Y181609D01*
G37*
%LPD*%
%LPC*%
G36*
X506231Y232409D02*
X506231Y232409D01*
X502964Y233763D01*
X500463Y236264D01*
X499109Y239531D01*
X499109Y243069D01*
X500463Y246336D01*
X502964Y248837D01*
X506231Y250191D01*
X509769Y250191D01*
X513036Y248837D01*
X515537Y246336D01*
X516891Y243069D01*
X516891Y239531D01*
X515537Y236264D01*
X513036Y233763D01*
X509769Y232409D01*
X506231Y232409D01*
G37*
%LPD*%
%LPC*%
G36*
X167847Y43372D02*
X167847Y43372D01*
X167772Y43447D01*
X167772Y64553D01*
X167847Y64628D01*
X177953Y64628D01*
X178028Y64553D01*
X178028Y43447D01*
X177953Y43372D01*
X167847Y43372D01*
G37*
%LPD*%
%LPC*%
G36*
X294847Y43372D02*
X294847Y43372D01*
X294772Y43447D01*
X294772Y64553D01*
X294847Y64628D01*
X304953Y64628D01*
X305028Y64553D01*
X305028Y43447D01*
X304953Y43372D01*
X294847Y43372D01*
G37*
%LPD*%
%LPC*%
G36*
X380847Y43372D02*
X380847Y43372D01*
X380772Y43447D01*
X380772Y64553D01*
X380847Y64628D01*
X390953Y64628D01*
X391028Y64553D01*
X391028Y43447D01*
X390953Y43372D01*
X380847Y43372D01*
G37*
%LPD*%
%LPC*%
G36*
X89972Y424919D02*
X89972Y424919D01*
X88409Y426482D01*
X88409Y428692D01*
X89972Y430255D01*
X95240Y430255D01*
X95242Y430255D01*
X95245Y430255D01*
X95405Y430266D01*
X95464Y430273D01*
X95473Y430276D01*
X95482Y430276D01*
X95545Y430293D01*
X95555Y430295D01*
X95569Y430300D01*
X95625Y430316D01*
X95771Y430354D01*
X95780Y430359D01*
X95789Y430361D01*
X95933Y430432D01*
X96034Y430491D01*
X96108Y430547D01*
X96187Y430594D01*
X96234Y430643D01*
X96287Y430683D01*
X96345Y430755D01*
X96409Y430821D01*
X96474Y430919D01*
X96485Y430932D01*
X96488Y430940D01*
X96499Y430955D01*
X96557Y431057D01*
X96593Y431142D01*
X96637Y431223D01*
X96654Y431288D01*
X96680Y431350D01*
X96694Y431441D01*
X96717Y431531D01*
X96724Y431648D01*
X96727Y431664D01*
X96726Y431673D01*
X96727Y431691D01*
X96727Y431808D01*
X96716Y431900D01*
X96714Y431992D01*
X96706Y432020D01*
X96705Y432038D01*
X96694Y432072D01*
X96687Y432124D01*
X96653Y432210D01*
X96629Y432299D01*
X96576Y432404D01*
X96570Y432419D01*
X96565Y432426D01*
X96557Y432443D01*
X96499Y432544D01*
X96443Y432618D01*
X96395Y432697D01*
X96347Y432744D01*
X96306Y432797D01*
X96234Y432855D01*
X96168Y432919D01*
X96070Y432984D01*
X96057Y432995D01*
X96049Y432998D01*
X96034Y433009D01*
X95933Y433067D01*
X95924Y433071D01*
X95917Y433076D01*
X95778Y433132D01*
X95640Y433190D01*
X95630Y433192D01*
X95622Y433195D01*
X95464Y433226D01*
X95405Y433234D01*
X95403Y433234D01*
X95400Y433235D01*
X95240Y433245D01*
X93609Y433245D01*
X91637Y433245D01*
X90074Y434808D01*
X90074Y437018D01*
X90795Y437739D01*
X90880Y437848D01*
X90969Y437955D01*
X90978Y437974D01*
X90990Y437990D01*
X91045Y438117D01*
X91105Y438243D01*
X91109Y438263D01*
X91117Y438282D01*
X91139Y438420D01*
X91165Y438556D01*
X91163Y438576D01*
X91166Y438596D01*
X91153Y438735D01*
X91145Y438873D01*
X91139Y438892D01*
X91137Y438912D01*
X91089Y439044D01*
X91047Y439175D01*
X91036Y439193D01*
X91029Y439212D01*
X90951Y439327D01*
X90877Y439444D01*
X90862Y439458D01*
X90850Y439475D01*
X90746Y439567D01*
X90645Y439662D01*
X90627Y439672D01*
X90612Y439685D01*
X90488Y439748D01*
X90366Y439816D01*
X90347Y439821D01*
X90329Y439830D01*
X90193Y439860D01*
X90059Y439895D01*
X90030Y439897D01*
X90019Y439900D01*
X89998Y439899D01*
X89977Y439900D01*
X88409Y441468D01*
X88409Y443678D01*
X89972Y445241D01*
X98021Y445241D01*
X101175Y442950D01*
X102379Y439243D01*
X101265Y435814D01*
X101240Y435685D01*
X101210Y435556D01*
X101211Y435529D01*
X101205Y435502D01*
X101214Y435370D01*
X101216Y435238D01*
X101224Y435212D01*
X101225Y435185D01*
X101266Y435059D01*
X101301Y434932D01*
X101319Y434897D01*
X101324Y434882D01*
X101335Y434864D01*
X101373Y434788D01*
X102070Y433580D01*
X102070Y429919D01*
X100240Y426749D01*
X97070Y424919D01*
X89972Y424919D01*
G37*
%LPD*%
%LPC*%
G36*
X98646Y161035D02*
X98646Y161035D01*
X96265Y163416D01*
X96265Y166784D01*
X98130Y168649D01*
X98203Y168743D01*
X98282Y168832D01*
X98300Y168868D01*
X98325Y168900D01*
X98373Y169010D01*
X98427Y169115D01*
X98436Y169155D01*
X98452Y169192D01*
X98470Y169310D01*
X98496Y169426D01*
X98495Y169466D01*
X98501Y169506D01*
X98490Y169625D01*
X98487Y169744D01*
X98475Y169782D01*
X98472Y169823D01*
X98431Y169935D01*
X98398Y170049D01*
X98378Y170084D01*
X98364Y170122D01*
X98297Y170221D01*
X98237Y170323D01*
X98197Y170368D01*
X98185Y170385D01*
X98170Y170399D01*
X98130Y170444D01*
X96489Y172085D01*
X95571Y174301D01*
X95571Y176699D01*
X96489Y178915D01*
X98185Y180611D01*
X100401Y181529D01*
X102799Y181529D01*
X105015Y180611D01*
X106711Y178915D01*
X107629Y176699D01*
X107629Y174301D01*
X106711Y172085D01*
X105015Y170389D01*
X103782Y169878D01*
X103739Y169854D01*
X103692Y169837D01*
X103601Y169775D01*
X103506Y169721D01*
X103470Y169686D01*
X103429Y169658D01*
X103356Y169576D01*
X103277Y169500D01*
X103251Y169457D01*
X103218Y169420D01*
X103168Y169322D01*
X103111Y169228D01*
X103096Y169181D01*
X103074Y169137D01*
X103050Y169029D01*
X103017Y168925D01*
X103015Y168875D01*
X103004Y168826D01*
X103008Y168717D01*
X103002Y168607D01*
X103012Y168558D01*
X103014Y168509D01*
X103044Y168403D01*
X103067Y168295D01*
X103088Y168251D01*
X103102Y168203D01*
X103158Y168108D01*
X103206Y168010D01*
X103239Y167972D01*
X103264Y167929D01*
X103370Y167808D01*
X104395Y166784D01*
X104395Y163416D01*
X102014Y161035D01*
X98646Y161035D01*
G37*
%LPD*%
%LPC*%
G36*
X100401Y199471D02*
X100401Y199471D01*
X98185Y200389D01*
X96489Y202085D01*
X95571Y204301D01*
X95571Y206699D01*
X96489Y208915D01*
X98185Y210611D01*
X100401Y211529D01*
X102799Y211529D01*
X105015Y210611D01*
X106711Y208915D01*
X107629Y206699D01*
X107629Y204301D01*
X106711Y202085D01*
X105015Y200389D01*
X102799Y199471D01*
X100401Y199471D01*
G37*
%LPD*%
%LPC*%
G36*
X309466Y191515D02*
X309466Y191515D01*
X307085Y193896D01*
X307085Y197264D01*
X309584Y199762D01*
X309657Y199857D01*
X309736Y199946D01*
X309754Y199982D01*
X309779Y200014D01*
X309826Y200123D01*
X309880Y200229D01*
X309889Y200268D01*
X309905Y200306D01*
X309924Y200423D01*
X309950Y200539D01*
X309949Y200580D01*
X309955Y200620D01*
X309944Y200738D01*
X309940Y200857D01*
X309929Y200896D01*
X309925Y200936D01*
X309885Y201049D01*
X309852Y201163D01*
X309832Y201197D01*
X309818Y201236D01*
X309751Y201334D01*
X309691Y201437D01*
X309651Y201482D01*
X309639Y201499D01*
X309624Y201512D01*
X309584Y201557D01*
X307085Y204056D01*
X307085Y207424D01*
X309466Y209805D01*
X312834Y209805D01*
X315215Y207424D01*
X315215Y204056D01*
X312716Y201557D01*
X312643Y201463D01*
X312564Y201374D01*
X312546Y201338D01*
X312521Y201306D01*
X312474Y201197D01*
X312420Y201091D01*
X312411Y201052D01*
X312395Y201014D01*
X312376Y200897D01*
X312350Y200781D01*
X312351Y200740D01*
X312345Y200700D01*
X312356Y200582D01*
X312360Y200463D01*
X312371Y200424D01*
X312375Y200384D01*
X312415Y200272D01*
X312448Y200157D01*
X312468Y200122D01*
X312482Y200084D01*
X312549Y199986D01*
X312610Y199883D01*
X312649Y199838D01*
X312661Y199821D01*
X312676Y199808D01*
X312716Y199762D01*
X315215Y197264D01*
X315215Y193896D01*
X312834Y191515D01*
X309466Y191515D01*
G37*
%LPD*%
%LPC*%
G36*
X327246Y191515D02*
X327246Y191515D01*
X324865Y193896D01*
X324865Y197264D01*
X327364Y199762D01*
X327437Y199857D01*
X327516Y199946D01*
X327534Y199982D01*
X327559Y200014D01*
X327606Y200123D01*
X327660Y200229D01*
X327669Y200268D01*
X327685Y200306D01*
X327704Y200423D01*
X327730Y200539D01*
X327729Y200580D01*
X327735Y200620D01*
X327724Y200738D01*
X327720Y200857D01*
X327709Y200896D01*
X327705Y200936D01*
X327665Y201049D01*
X327632Y201163D01*
X327612Y201197D01*
X327598Y201236D01*
X327531Y201334D01*
X327471Y201437D01*
X327431Y201482D01*
X327419Y201499D01*
X327404Y201512D01*
X327364Y201557D01*
X324865Y204056D01*
X324865Y207424D01*
X327246Y209805D01*
X330614Y209805D01*
X332995Y207424D01*
X332995Y204056D01*
X330496Y201557D01*
X330423Y201463D01*
X330344Y201374D01*
X330326Y201338D01*
X330301Y201306D01*
X330254Y201197D01*
X330200Y201091D01*
X330191Y201052D01*
X330175Y201014D01*
X330156Y200897D01*
X330130Y200781D01*
X330131Y200740D01*
X330125Y200700D01*
X330136Y200582D01*
X330140Y200463D01*
X330151Y200424D01*
X330155Y200384D01*
X330195Y200272D01*
X330228Y200157D01*
X330248Y200122D01*
X330262Y200084D01*
X330329Y199986D01*
X330390Y199883D01*
X330429Y199838D01*
X330441Y199821D01*
X330456Y199808D01*
X330496Y199762D01*
X332995Y197264D01*
X332995Y193896D01*
X330614Y191515D01*
X327246Y191515D01*
G37*
%LPD*%
%LPC*%
G36*
X222852Y178815D02*
X222852Y178815D01*
X220471Y181196D01*
X220471Y184564D01*
X222716Y186809D01*
X222789Y186903D01*
X222868Y186992D01*
X222886Y187028D01*
X222911Y187060D01*
X222958Y187169D01*
X223012Y187275D01*
X223021Y187314D01*
X223037Y187352D01*
X223056Y187469D01*
X223082Y187585D01*
X223081Y187626D01*
X223087Y187666D01*
X223076Y187784D01*
X223072Y187903D01*
X223061Y187942D01*
X223057Y187982D01*
X223017Y188094D01*
X222984Y188209D01*
X222964Y188244D01*
X222950Y188282D01*
X222883Y188380D01*
X222822Y188483D01*
X222783Y188528D01*
X222771Y188545D01*
X222756Y188558D01*
X222716Y188604D01*
X220471Y190848D01*
X220471Y194216D01*
X222852Y196597D01*
X226220Y196597D01*
X228601Y194216D01*
X228601Y190848D01*
X226356Y188604D01*
X226283Y188509D01*
X226204Y188420D01*
X226186Y188384D01*
X226161Y188352D01*
X226114Y188243D01*
X226060Y188137D01*
X226051Y188098D01*
X226035Y188060D01*
X226016Y187943D01*
X225990Y187827D01*
X225991Y187786D01*
X225985Y187746D01*
X225996Y187628D01*
X226000Y187509D01*
X226011Y187470D01*
X226015Y187430D01*
X226055Y187317D01*
X226088Y187203D01*
X226108Y187169D01*
X226122Y187130D01*
X226189Y187032D01*
X226249Y186929D01*
X226289Y186884D01*
X226301Y186867D01*
X226316Y186854D01*
X226356Y186809D01*
X228601Y184564D01*
X228601Y181196D01*
X226220Y178815D01*
X222852Y178815D01*
G37*
%LPD*%
%LPC*%
G36*
X305148Y67309D02*
X305148Y67309D01*
X302767Y69690D01*
X302767Y73058D01*
X305148Y75439D01*
X308528Y75439D01*
X308565Y75410D01*
X308591Y75385D01*
X308605Y75377D01*
X308691Y75306D01*
X308710Y75297D01*
X308726Y75285D01*
X308854Y75230D01*
X308979Y75170D01*
X308999Y75167D01*
X309018Y75159D01*
X309155Y75137D01*
X309292Y75111D01*
X309312Y75112D01*
X309332Y75109D01*
X309470Y75122D01*
X309609Y75130D01*
X309628Y75137D01*
X309648Y75139D01*
X309779Y75186D01*
X309911Y75228D01*
X309929Y75239D01*
X309948Y75246D01*
X310063Y75324D01*
X310180Y75399D01*
X310194Y75413D01*
X310211Y75425D01*
X310303Y75529D01*
X310398Y75630D01*
X310408Y75648D01*
X310421Y75663D01*
X310485Y75787D01*
X310552Y75909D01*
X310557Y75928D01*
X310566Y75946D01*
X310596Y76083D01*
X310631Y76217D01*
X310633Y76245D01*
X310636Y76257D01*
X310635Y76277D01*
X310638Y76328D01*
X310639Y76331D01*
X310639Y76334D01*
X310641Y76377D01*
X310641Y77884D01*
X313022Y80265D01*
X316390Y80265D01*
X318771Y77884D01*
X318771Y74516D01*
X316390Y72135D01*
X313010Y72135D01*
X312954Y72179D01*
X312847Y72268D01*
X312828Y72277D01*
X312812Y72289D01*
X312684Y72344D01*
X312559Y72404D01*
X312539Y72407D01*
X312520Y72415D01*
X312383Y72437D01*
X312246Y72463D01*
X312226Y72462D01*
X312206Y72465D01*
X312068Y72452D01*
X311929Y72444D01*
X311910Y72437D01*
X311890Y72435D01*
X311759Y72388D01*
X311627Y72346D01*
X311609Y72335D01*
X311590Y72328D01*
X311475Y72250D01*
X311358Y72175D01*
X311344Y72161D01*
X311327Y72149D01*
X311235Y72045D01*
X311140Y71944D01*
X311130Y71926D01*
X311117Y71911D01*
X311053Y71787D01*
X310986Y71665D01*
X310981Y71646D01*
X310972Y71628D01*
X310941Y71491D01*
X310907Y71357D01*
X310905Y71329D01*
X310902Y71317D01*
X310903Y71297D01*
X310897Y71197D01*
X310897Y69690D01*
X308516Y67309D01*
X305148Y67309D01*
G37*
%LPD*%
%LPC*%
G36*
X69436Y233425D02*
X69436Y233425D01*
X67055Y235806D01*
X67055Y239174D01*
X68919Y241037D01*
X68992Y241132D01*
X69071Y241221D01*
X69089Y241257D01*
X69114Y241289D01*
X69161Y241398D01*
X69215Y241504D01*
X69224Y241543D01*
X69240Y241581D01*
X69259Y241698D01*
X69285Y241814D01*
X69284Y241855D01*
X69290Y241895D01*
X69279Y242013D01*
X69275Y242132D01*
X69264Y242171D01*
X69260Y242211D01*
X69220Y242324D01*
X69187Y242438D01*
X69167Y242472D01*
X69153Y242511D01*
X69086Y242609D01*
X69026Y242712D01*
X68986Y242757D01*
X68974Y242774D01*
X68959Y242787D01*
X68919Y242832D01*
X67055Y244696D01*
X67055Y248064D01*
X69436Y250445D01*
X72804Y250445D01*
X75185Y248064D01*
X75185Y244696D01*
X73321Y242832D01*
X73248Y242738D01*
X73169Y242649D01*
X73151Y242613D01*
X73126Y242581D01*
X73079Y242472D01*
X73025Y242366D01*
X73016Y242327D01*
X73000Y242289D01*
X72981Y242172D01*
X72955Y242056D01*
X72956Y242015D01*
X72950Y241975D01*
X72961Y241857D01*
X72965Y241738D01*
X72976Y241699D01*
X72980Y241659D01*
X73020Y241547D01*
X73053Y241432D01*
X73073Y241397D01*
X73087Y241359D01*
X73154Y241261D01*
X73215Y241158D01*
X73254Y241113D01*
X73266Y241096D01*
X73281Y241083D01*
X73321Y241037D01*
X75185Y239174D01*
X75185Y235806D01*
X72804Y233425D01*
X69436Y233425D01*
G37*
%LPD*%
%LPC*%
G36*
X390746Y287273D02*
X390746Y287273D01*
X389010Y289010D01*
X388915Y289083D01*
X388826Y289162D01*
X388790Y289180D01*
X388758Y289205D01*
X388649Y289252D01*
X388543Y289306D01*
X388504Y289315D01*
X388466Y289331D01*
X388349Y289350D01*
X388233Y289376D01*
X388192Y289375D01*
X388152Y289381D01*
X388034Y289370D01*
X387915Y289366D01*
X387876Y289355D01*
X387836Y289351D01*
X387723Y289311D01*
X387609Y289278D01*
X387575Y289258D01*
X387536Y289244D01*
X387438Y289177D01*
X387335Y289117D01*
X387290Y289077D01*
X387273Y289065D01*
X387260Y289050D01*
X387215Y289010D01*
X385859Y287654D01*
X382491Y287654D01*
X380110Y290035D01*
X380110Y293403D01*
X382491Y295784D01*
X385859Y295784D01*
X387596Y294047D01*
X387690Y293974D01*
X387779Y293895D01*
X387815Y293877D01*
X387847Y293852D01*
X387956Y293805D01*
X388062Y293751D01*
X388101Y293742D01*
X388139Y293726D01*
X388256Y293707D01*
X388372Y293681D01*
X388413Y293682D01*
X388453Y293676D01*
X388571Y293687D01*
X388690Y293691D01*
X388729Y293702D01*
X388769Y293706D01*
X388881Y293746D01*
X388996Y293779D01*
X389031Y293799D01*
X389069Y293813D01*
X389167Y293880D01*
X389270Y293941D01*
X389315Y293980D01*
X389332Y293992D01*
X389345Y294007D01*
X389391Y294047D01*
X390746Y295403D01*
X394114Y295403D01*
X396495Y293022D01*
X396495Y289654D01*
X394114Y287273D01*
X390746Y287273D01*
G37*
%LPD*%
%LPC*%
G36*
X168496Y352805D02*
X168496Y352805D01*
X166115Y355186D01*
X166115Y357732D01*
X166100Y357850D01*
X166093Y357969D01*
X166080Y358007D01*
X166075Y358048D01*
X166032Y358158D01*
X165995Y358271D01*
X165973Y358306D01*
X165958Y358343D01*
X165889Y358439D01*
X165825Y358540D01*
X165795Y358568D01*
X165772Y358601D01*
X165680Y358677D01*
X165593Y358758D01*
X165558Y358778D01*
X165527Y358803D01*
X165419Y358854D01*
X165315Y358912D01*
X165275Y358922D01*
X165239Y358939D01*
X165122Y358961D01*
X165007Y358991D01*
X164947Y358995D01*
X164927Y358999D01*
X164906Y358997D01*
X164846Y359001D01*
X163368Y359001D01*
X160987Y361382D01*
X160987Y364750D01*
X163368Y367131D01*
X166736Y367131D01*
X169117Y364750D01*
X169117Y362204D01*
X169132Y362086D01*
X169139Y361967D01*
X169152Y361929D01*
X169157Y361888D01*
X169201Y361777D01*
X169237Y361665D01*
X169259Y361630D01*
X169274Y361593D01*
X169343Y361497D01*
X169407Y361396D01*
X169437Y361368D01*
X169460Y361335D01*
X169552Y361259D01*
X169639Y361178D01*
X169674Y361158D01*
X169705Y361133D01*
X169813Y361082D01*
X169917Y361024D01*
X169957Y361014D01*
X169993Y360997D01*
X170110Y360975D01*
X170225Y360945D01*
X170285Y360941D01*
X170305Y360937D01*
X170326Y360939D01*
X170386Y360935D01*
X171864Y360935D01*
X174245Y358554D01*
X174245Y355186D01*
X171864Y352805D01*
X168496Y352805D01*
G37*
%LPD*%
%LPC*%
G36*
X108806Y300989D02*
X108806Y300989D01*
X106425Y303370D01*
X106425Y303822D01*
X106410Y303941D01*
X106403Y304059D01*
X106390Y304098D01*
X106385Y304138D01*
X106342Y304249D01*
X106305Y304362D01*
X106283Y304396D01*
X106268Y304434D01*
X106199Y304530D01*
X106135Y304630D01*
X106105Y304658D01*
X106082Y304691D01*
X105990Y304767D01*
X105903Y304848D01*
X105868Y304868D01*
X105837Y304894D01*
X105729Y304944D01*
X105625Y305002D01*
X105585Y305012D01*
X105549Y305029D01*
X105432Y305052D01*
X105317Y305081D01*
X105257Y305085D01*
X105237Y305089D01*
X105216Y305088D01*
X105156Y305092D01*
X102495Y305092D01*
X100114Y307473D01*
X100114Y310840D01*
X102495Y313221D01*
X105862Y313221D01*
X108243Y310840D01*
X108243Y310388D01*
X108258Y310270D01*
X108265Y310151D01*
X108278Y310113D01*
X108283Y310072D01*
X108327Y309962D01*
X108363Y309849D01*
X108385Y309814D01*
X108400Y309777D01*
X108470Y309681D01*
X108534Y309580D01*
X108563Y309552D01*
X108587Y309519D01*
X108678Y309443D01*
X108765Y309362D01*
X108801Y309342D01*
X108832Y309317D01*
X108939Y309266D01*
X109044Y309208D01*
X109083Y309198D01*
X109119Y309181D01*
X109236Y309159D01*
X109352Y309129D01*
X109412Y309125D01*
X109432Y309121D01*
X109452Y309123D01*
X109512Y309119D01*
X112174Y309119D01*
X114555Y306738D01*
X114555Y303370D01*
X112174Y300989D01*
X108806Y300989D01*
G37*
%LPD*%
%LPC*%
G36*
X60546Y32765D02*
X60546Y32765D01*
X58165Y35146D01*
X58165Y38514D01*
X60546Y40895D01*
X63914Y40895D01*
X65015Y39793D01*
X65110Y39720D01*
X65199Y39641D01*
X65235Y39623D01*
X65267Y39598D01*
X65376Y39551D01*
X65482Y39497D01*
X65521Y39488D01*
X65559Y39472D01*
X65676Y39453D01*
X65792Y39427D01*
X65833Y39428D01*
X65873Y39422D01*
X65991Y39433D01*
X66110Y39437D01*
X66149Y39448D01*
X66189Y39452D01*
X66302Y39492D01*
X66416Y39525D01*
X66450Y39545D01*
X66489Y39559D01*
X66587Y39626D01*
X66690Y39686D01*
X66735Y39726D01*
X66752Y39738D01*
X66765Y39753D01*
X66810Y39793D01*
X68166Y41149D01*
X71534Y41149D01*
X73915Y38768D01*
X73915Y35400D01*
X71534Y33019D01*
X68166Y33019D01*
X67064Y34121D01*
X66970Y34194D01*
X66881Y34273D01*
X66845Y34291D01*
X66813Y34316D01*
X66704Y34363D01*
X66598Y34417D01*
X66559Y34426D01*
X66521Y34442D01*
X66404Y34461D01*
X66288Y34487D01*
X66247Y34486D01*
X66207Y34492D01*
X66089Y34481D01*
X65970Y34477D01*
X65931Y34466D01*
X65891Y34462D01*
X65779Y34422D01*
X65664Y34389D01*
X65629Y34369D01*
X65591Y34355D01*
X65493Y34288D01*
X65390Y34227D01*
X65345Y34188D01*
X65328Y34176D01*
X65315Y34161D01*
X65269Y34121D01*
X63914Y32765D01*
X60546Y32765D01*
G37*
%LPD*%
%LPC*%
G36*
X151732Y313943D02*
X151732Y313943D01*
X149087Y316588D01*
X149061Y316630D01*
X149031Y316658D01*
X149008Y316691D01*
X148916Y316767D01*
X148829Y316848D01*
X148794Y316868D01*
X148763Y316893D01*
X148655Y316944D01*
X148551Y317002D01*
X148511Y317012D01*
X148475Y317029D01*
X148358Y317051D01*
X148243Y317081D01*
X148183Y317085D01*
X148163Y317089D01*
X148142Y317087D01*
X148082Y317091D01*
X145274Y317091D01*
X142893Y319472D01*
X142893Y322840D01*
X145274Y325221D01*
X148642Y325221D01*
X151287Y322576D01*
X151313Y322534D01*
X151343Y322506D01*
X151366Y322473D01*
X151458Y322397D01*
X151545Y322316D01*
X151580Y322296D01*
X151611Y322271D01*
X151719Y322220D01*
X151823Y322162D01*
X151863Y322152D01*
X151899Y322135D01*
X152016Y322113D01*
X152131Y322083D01*
X152191Y322079D01*
X152211Y322075D01*
X152232Y322077D01*
X152292Y322073D01*
X155100Y322073D01*
X157481Y319692D01*
X157481Y316324D01*
X155100Y313943D01*
X151732Y313943D01*
G37*
%LPD*%
%LPC*%
G36*
X480408Y114553D02*
X480408Y114553D01*
X478027Y116934D01*
X478027Y120302D01*
X480408Y122683D01*
X483823Y122683D01*
X483827Y122681D01*
X483859Y122656D01*
X483968Y122609D01*
X484074Y122555D01*
X484113Y122546D01*
X484151Y122530D01*
X484268Y122511D01*
X484384Y122485D01*
X484425Y122486D01*
X484465Y122480D01*
X484583Y122491D01*
X484702Y122495D01*
X484741Y122506D01*
X484781Y122510D01*
X484893Y122550D01*
X485008Y122583D01*
X485043Y122603D01*
X485081Y122617D01*
X485179Y122684D01*
X485282Y122745D01*
X485327Y122784D01*
X485344Y122796D01*
X485357Y122811D01*
X485403Y122851D01*
X487266Y124715D01*
X490634Y124715D01*
X493015Y122334D01*
X493015Y118966D01*
X490634Y116585D01*
X487219Y116585D01*
X487215Y116587D01*
X487183Y116612D01*
X487074Y116659D01*
X486968Y116713D01*
X486929Y116722D01*
X486891Y116738D01*
X486774Y116757D01*
X486658Y116783D01*
X486617Y116782D01*
X486577Y116788D01*
X486459Y116777D01*
X486340Y116773D01*
X486301Y116762D01*
X486261Y116758D01*
X486149Y116718D01*
X486034Y116685D01*
X485999Y116665D01*
X485961Y116651D01*
X485863Y116584D01*
X485760Y116524D01*
X485715Y116484D01*
X485698Y116472D01*
X485685Y116457D01*
X485640Y116417D01*
X483776Y114553D01*
X480408Y114553D01*
G37*
%LPD*%
%LPC*%
G36*
X167734Y400811D02*
X167734Y400811D01*
X165353Y403192D01*
X165353Y406560D01*
X166765Y407971D01*
X166838Y408066D01*
X166917Y408155D01*
X166935Y408191D01*
X166960Y408223D01*
X167007Y408332D01*
X167061Y408438D01*
X167070Y408477D01*
X167086Y408515D01*
X167105Y408632D01*
X167131Y408748D01*
X167130Y408789D01*
X167136Y408829D01*
X167125Y408947D01*
X167121Y409066D01*
X167110Y409105D01*
X167106Y409145D01*
X167066Y409258D01*
X167033Y409372D01*
X167013Y409406D01*
X166999Y409445D01*
X166932Y409543D01*
X166872Y409646D01*
X166832Y409691D01*
X166820Y409708D01*
X166805Y409721D01*
X166765Y409766D01*
X166115Y410416D01*
X166115Y413784D01*
X168496Y416165D01*
X171864Y416165D01*
X174245Y413784D01*
X174245Y410416D01*
X172833Y409004D01*
X172760Y408910D01*
X172681Y408821D01*
X172663Y408785D01*
X172638Y408753D01*
X172591Y408644D01*
X172537Y408538D01*
X172528Y408499D01*
X172512Y408461D01*
X172493Y408344D01*
X172467Y408228D01*
X172468Y408187D01*
X172462Y408147D01*
X172473Y408029D01*
X172477Y407910D01*
X172488Y407871D01*
X172492Y407831D01*
X172532Y407719D01*
X172565Y407604D01*
X172585Y407569D01*
X172599Y407531D01*
X172666Y407433D01*
X172727Y407330D01*
X172766Y407285D01*
X172778Y407268D01*
X172793Y407255D01*
X172833Y407209D01*
X173483Y406560D01*
X173483Y403192D01*
X171102Y400811D01*
X167734Y400811D01*
G37*
%LPD*%
%LPC*%
G36*
X486758Y81533D02*
X486758Y81533D01*
X484377Y83914D01*
X484377Y87282D01*
X486758Y89663D01*
X488696Y89663D01*
X488814Y89678D01*
X488933Y89685D01*
X488971Y89698D01*
X489012Y89703D01*
X489122Y89746D01*
X489235Y89783D01*
X489270Y89805D01*
X489307Y89820D01*
X489403Y89889D01*
X489504Y89953D01*
X489532Y89983D01*
X489565Y90006D01*
X489641Y90098D01*
X489722Y90185D01*
X489742Y90220D01*
X489767Y90251D01*
X489818Y90359D01*
X489876Y90463D01*
X489886Y90503D01*
X489903Y90539D01*
X489925Y90656D01*
X489955Y90771D01*
X489959Y90831D01*
X489963Y90851D01*
X489961Y90872D01*
X489965Y90932D01*
X489965Y91854D01*
X492346Y94235D01*
X495714Y94235D01*
X498095Y91854D01*
X498095Y88486D01*
X495714Y86105D01*
X493776Y86105D01*
X493658Y86090D01*
X493539Y86083D01*
X493501Y86070D01*
X493460Y86065D01*
X493350Y86022D01*
X493237Y85985D01*
X493202Y85963D01*
X493165Y85948D01*
X493069Y85879D01*
X492968Y85815D01*
X492940Y85785D01*
X492907Y85762D01*
X492831Y85670D01*
X492750Y85583D01*
X492730Y85548D01*
X492705Y85517D01*
X492654Y85409D01*
X492596Y85305D01*
X492586Y85265D01*
X492569Y85229D01*
X492547Y85112D01*
X492517Y84997D01*
X492513Y84937D01*
X492509Y84917D01*
X492511Y84896D01*
X492507Y84836D01*
X492507Y83914D01*
X490126Y81533D01*
X486758Y81533D01*
G37*
%LPD*%
%LPC*%
G36*
X60546Y61975D02*
X60546Y61975D01*
X58165Y64356D01*
X58165Y67724D01*
X60546Y70105D01*
X63914Y70105D01*
X64761Y69257D01*
X64855Y69184D01*
X64945Y69105D01*
X64981Y69087D01*
X65013Y69062D01*
X65122Y69015D01*
X65228Y68961D01*
X65267Y68952D01*
X65305Y68936D01*
X65422Y68917D01*
X65538Y68891D01*
X65579Y68892D01*
X65619Y68886D01*
X65737Y68897D01*
X65856Y68901D01*
X65895Y68912D01*
X65935Y68916D01*
X66048Y68956D01*
X66162Y68989D01*
X66196Y69009D01*
X66235Y69023D01*
X66333Y69090D01*
X66436Y69150D01*
X66481Y69190D01*
X66498Y69202D01*
X66511Y69217D01*
X66556Y69257D01*
X67404Y70105D01*
X70772Y70105D01*
X73153Y67724D01*
X73153Y64356D01*
X70772Y61975D01*
X67404Y61975D01*
X66556Y62823D01*
X66462Y62896D01*
X66373Y62975D01*
X66337Y62993D01*
X66305Y63018D01*
X66196Y63065D01*
X66090Y63119D01*
X66051Y63128D01*
X66013Y63144D01*
X65896Y63163D01*
X65780Y63189D01*
X65739Y63188D01*
X65699Y63194D01*
X65581Y63183D01*
X65462Y63179D01*
X65423Y63168D01*
X65383Y63164D01*
X65271Y63124D01*
X65156Y63091D01*
X65121Y63071D01*
X65083Y63057D01*
X64985Y62990D01*
X64882Y62929D01*
X64837Y62890D01*
X64820Y62878D01*
X64807Y62863D01*
X64761Y62823D01*
X63914Y61975D01*
X60546Y61975D01*
G37*
%LPD*%
%LPC*%
G36*
X212000Y485884D02*
X212000Y485884D01*
X210575Y486610D01*
X209281Y487550D01*
X208120Y488710D01*
X208103Y488736D01*
X208028Y488802D01*
X207960Y488874D01*
X207910Y488907D01*
X207865Y488946D01*
X207776Y488991D01*
X207692Y489045D01*
X207635Y489064D01*
X207581Y489091D01*
X207484Y489113D01*
X207389Y489144D01*
X207330Y489147D01*
X207271Y489161D01*
X207172Y489157D01*
X207072Y489164D01*
X207013Y489153D01*
X206953Y489151D01*
X206858Y489123D01*
X206760Y489105D01*
X206705Y489079D01*
X206648Y489062D01*
X206562Y489012D01*
X206472Y488970D01*
X206425Y488931D01*
X206374Y488901D01*
X206253Y488795D01*
X203614Y486155D01*
X200246Y486155D01*
X197865Y488536D01*
X197865Y491904D01*
X200246Y494285D01*
X203614Y494285D01*
X204766Y493133D01*
X204844Y493072D01*
X204916Y493004D01*
X204969Y492975D01*
X205017Y492938D01*
X205108Y492898D01*
X205195Y492850D01*
X205253Y492835D01*
X205309Y492811D01*
X205407Y492796D01*
X205503Y492771D01*
X205603Y492765D01*
X205623Y492761D01*
X205635Y492763D01*
X205663Y492761D01*
X213361Y492761D01*
X213361Y485441D01*
X212000Y485884D01*
G37*
%LPD*%
%LPC*%
G36*
X370800Y44021D02*
X370800Y44021D01*
X368951Y44787D01*
X367537Y46201D01*
X366771Y48050D01*
X366771Y50050D01*
X367537Y51899D01*
X368951Y53313D01*
X370800Y54079D01*
X372800Y54079D01*
X374649Y53313D01*
X376063Y51899D01*
X376829Y50050D01*
X376829Y48050D01*
X376063Y46201D01*
X374649Y44787D01*
X372800Y44021D01*
X370800Y44021D01*
G37*
%LPD*%
%LPC*%
G36*
X313000Y44021D02*
X313000Y44021D01*
X311151Y44787D01*
X309737Y46201D01*
X308971Y48050D01*
X308971Y50050D01*
X309737Y51899D01*
X311151Y53313D01*
X313000Y54079D01*
X315000Y54079D01*
X316849Y53313D01*
X318263Y51899D01*
X319029Y50050D01*
X319029Y48050D01*
X318263Y46201D01*
X316849Y44787D01*
X315000Y44021D01*
X313000Y44021D01*
G37*
%LPD*%
%LPC*%
G36*
X243800Y44021D02*
X243800Y44021D01*
X241951Y44787D01*
X240537Y46201D01*
X239771Y48050D01*
X239771Y50050D01*
X240537Y51899D01*
X241951Y53313D01*
X243800Y54079D01*
X245800Y54079D01*
X247649Y53313D01*
X249063Y51899D01*
X249829Y50050D01*
X249829Y48050D01*
X249063Y46201D01*
X247649Y44787D01*
X245800Y44021D01*
X243800Y44021D01*
G37*
%LPD*%
%LPC*%
G36*
X186000Y44021D02*
X186000Y44021D01*
X184151Y44787D01*
X182737Y46201D01*
X181971Y48050D01*
X181971Y50050D01*
X182737Y51899D01*
X184151Y53313D01*
X186000Y54079D01*
X188000Y54079D01*
X189849Y53313D01*
X191263Y51899D01*
X192029Y50050D01*
X192029Y48050D01*
X191263Y46201D01*
X189849Y44787D01*
X188000Y44021D01*
X186000Y44021D01*
G37*
%LPD*%
%LPC*%
G36*
X501466Y478446D02*
X501466Y478446D01*
X501447Y478451D01*
X501429Y478460D01*
X501293Y478490D01*
X501158Y478525D01*
X501130Y478527D01*
X501118Y478530D01*
X501098Y478529D01*
X500998Y478535D01*
X497426Y478535D01*
X495045Y480916D01*
X495045Y484284D01*
X497426Y486665D01*
X500998Y486665D01*
X501136Y486682D01*
X501274Y486695D01*
X501293Y486702D01*
X501313Y486705D01*
X501442Y486756D01*
X501573Y486803D01*
X501582Y486809D01*
X501581Y486803D01*
X501551Y486718D01*
X501546Y486648D01*
X501531Y486580D01*
X501533Y486490D01*
X501526Y486401D01*
X501538Y486332D01*
X501540Y486262D01*
X501565Y486176D01*
X501581Y486087D01*
X501609Y486024D01*
X501629Y485957D01*
X501674Y485879D01*
X501711Y485797D01*
X501755Y485743D01*
X501790Y485683D01*
X501897Y485562D01*
X503175Y484284D01*
X503175Y480916D01*
X501897Y479638D01*
X501854Y479583D01*
X501804Y479535D01*
X501757Y479458D01*
X501753Y479453D01*
X501746Y479444D01*
X501745Y479442D01*
X501702Y479387D01*
X501674Y479323D01*
X501638Y479263D01*
X501611Y479178D01*
X501575Y479095D01*
X501564Y479026D01*
X501544Y478959D01*
X501540Y478870D01*
X501526Y478781D01*
X501532Y478711D01*
X501529Y478642D01*
X501547Y478554D01*
X501555Y478464D01*
X501579Y478399D01*
X501583Y478382D01*
X501466Y478446D01*
G37*
%LPD*%
%LPC*%
G36*
X126078Y456945D02*
X126078Y456945D01*
X123697Y459326D01*
X123697Y462694D01*
X126078Y465075D01*
X129446Y465075D01*
X131827Y462694D01*
X131827Y459326D01*
X129446Y456945D01*
X126078Y456945D01*
G37*
%LPD*%
%LPC*%
G36*
X97884Y456945D02*
X97884Y456945D01*
X95503Y459326D01*
X95503Y462694D01*
X97884Y465075D01*
X101252Y465075D01*
X103633Y462694D01*
X103633Y459326D01*
X101252Y456945D01*
X97884Y456945D01*
G37*
%LPD*%
%LPC*%
G36*
X113124Y456691D02*
X113124Y456691D01*
X110743Y459072D01*
X110743Y462440D01*
X113124Y464821D01*
X116492Y464821D01*
X118873Y462440D01*
X118873Y459072D01*
X116492Y456691D01*
X113124Y456691D01*
G37*
%LPD*%
%LPC*%
G36*
X357726Y455675D02*
X357726Y455675D01*
X355345Y458056D01*
X355345Y461424D01*
X357726Y463805D01*
X361094Y463805D01*
X363475Y461424D01*
X363475Y458056D01*
X361094Y455675D01*
X357726Y455675D01*
G37*
%LPD*%
%LPC*%
G36*
X277716Y453135D02*
X277716Y453135D01*
X275335Y455516D01*
X275335Y458884D01*
X277716Y461265D01*
X281084Y461265D01*
X283465Y458884D01*
X283465Y455516D01*
X281084Y453135D01*
X277716Y453135D01*
G37*
%LPD*%
%LPC*%
G36*
X426306Y451865D02*
X426306Y451865D01*
X423925Y454246D01*
X423925Y457614D01*
X426306Y459995D01*
X429674Y459995D01*
X432055Y457614D01*
X432055Y454246D01*
X429674Y451865D01*
X426306Y451865D01*
G37*
%LPD*%
%LPC*%
G36*
X315816Y445007D02*
X315816Y445007D01*
X313435Y447388D01*
X313435Y450756D01*
X315816Y453137D01*
X319184Y453137D01*
X321565Y450756D01*
X321565Y447388D01*
X319184Y445007D01*
X315816Y445007D01*
G37*
%LPD*%
%LPC*%
G36*
X390746Y440435D02*
X390746Y440435D01*
X388365Y442816D01*
X388365Y446184D01*
X390746Y448565D01*
X394114Y448565D01*
X396495Y446184D01*
X396495Y442816D01*
X394114Y440435D01*
X390746Y440435D01*
G37*
%LPD*%
%LPC*%
G36*
X453230Y437387D02*
X453230Y437387D01*
X450849Y439768D01*
X450849Y443136D01*
X453230Y445517D01*
X456598Y445517D01*
X458979Y443136D01*
X458979Y439768D01*
X456598Y437387D01*
X453230Y437387D01*
G37*
%LPD*%
%LPC*%
G36*
X473042Y435101D02*
X473042Y435101D01*
X470661Y437482D01*
X470661Y440850D01*
X473042Y443231D01*
X476410Y443231D01*
X478791Y440850D01*
X478791Y437482D01*
X476410Y435101D01*
X473042Y435101D01*
G37*
%LPD*%
%LPC*%
G36*
X443451Y424560D02*
X443451Y424560D01*
X441070Y426941D01*
X441070Y430309D01*
X443451Y432690D01*
X446819Y432690D01*
X449200Y430309D01*
X449200Y426941D01*
X446819Y424560D01*
X443451Y424560D01*
G37*
%LPD*%
%LPC*%
G36*
X390746Y415035D02*
X390746Y415035D01*
X388365Y417416D01*
X388365Y420784D01*
X390746Y423165D01*
X394114Y423165D01*
X396495Y420784D01*
X396495Y417416D01*
X394114Y415035D01*
X390746Y415035D01*
G37*
%LPD*%
%LPC*%
G36*
X390746Y397255D02*
X390746Y397255D01*
X388365Y399636D01*
X388365Y403004D01*
X390746Y405385D01*
X394114Y405385D01*
X396495Y403004D01*
X396495Y399636D01*
X394114Y397255D01*
X390746Y397255D01*
G37*
%LPD*%
%LPC*%
G36*
X516222Y396747D02*
X516222Y396747D01*
X513841Y399128D01*
X513841Y402496D01*
X516222Y404877D01*
X519590Y404877D01*
X521971Y402496D01*
X521971Y399128D01*
X519590Y396747D01*
X516222Y396747D01*
G37*
%LPD*%
%LPC*%
G36*
X156050Y391921D02*
X156050Y391921D01*
X153669Y394302D01*
X153669Y397670D01*
X156050Y400051D01*
X159418Y400051D01*
X161799Y397670D01*
X161799Y394302D01*
X159418Y391921D01*
X156050Y391921D01*
G37*
%LPD*%
%LPC*%
G36*
X492346Y389889D02*
X492346Y389889D01*
X489965Y392270D01*
X489965Y395638D01*
X492346Y398019D01*
X495714Y398019D01*
X498095Y395638D01*
X498095Y392270D01*
X495714Y389889D01*
X492346Y389889D01*
G37*
%LPD*%
%LPC*%
G36*
X277716Y389635D02*
X277716Y389635D01*
X275335Y392016D01*
X275335Y395384D01*
X277716Y397765D01*
X281084Y397765D01*
X283465Y395384D01*
X283465Y392016D01*
X281084Y389635D01*
X277716Y389635D01*
G37*
%LPD*%
%LPC*%
G36*
X98646Y378205D02*
X98646Y378205D01*
X96265Y380586D01*
X96265Y383954D01*
X98646Y386335D01*
X102014Y386335D01*
X104395Y383954D01*
X104395Y380586D01*
X102014Y378205D01*
X98646Y378205D01*
G37*
%LPD*%
%LPC*%
G36*
X131666Y375665D02*
X131666Y375665D01*
X129285Y378046D01*
X129285Y381414D01*
X131666Y383795D01*
X135034Y383795D01*
X137415Y381414D01*
X137415Y378046D01*
X135034Y375665D01*
X131666Y375665D01*
G37*
%LPD*%
%LPC*%
G36*
X232758Y374649D02*
X232758Y374649D01*
X230377Y377030D01*
X230377Y380398D01*
X232758Y382779D01*
X236126Y382779D01*
X238507Y380398D01*
X238507Y377030D01*
X236126Y374649D01*
X232758Y374649D01*
G37*
%LPD*%
%LPC*%
G36*
X77056Y371855D02*
X77056Y371855D01*
X74675Y374236D01*
X74675Y377604D01*
X77056Y379985D01*
X80424Y379985D01*
X82805Y377604D01*
X82805Y374236D01*
X80424Y371855D01*
X77056Y371855D01*
G37*
%LPD*%
%LPC*%
G36*
X104996Y368045D02*
X104996Y368045D01*
X102615Y370426D01*
X102615Y373794D01*
X104996Y376175D01*
X108364Y376175D01*
X110745Y373794D01*
X110745Y370426D01*
X108364Y368045D01*
X104996Y368045D01*
G37*
%LPD*%
%LPC*%
G36*
X388206Y359155D02*
X388206Y359155D01*
X385825Y361536D01*
X385825Y364904D01*
X388206Y367285D01*
X391574Y367285D01*
X393955Y364904D01*
X393955Y361536D01*
X391574Y359155D01*
X388206Y359155D01*
G37*
%LPD*%
%LPC*%
G36*
X142842Y355853D02*
X142842Y355853D01*
X140461Y358234D01*
X140461Y361602D01*
X142842Y363983D01*
X146210Y363983D01*
X148591Y361602D01*
X148591Y358234D01*
X146210Y355853D01*
X142842Y355853D01*
G37*
%LPD*%
%LPC*%
G36*
X425290Y355345D02*
X425290Y355345D01*
X422909Y357726D01*
X422909Y361094D01*
X425290Y363475D01*
X428658Y363475D01*
X431039Y361094D01*
X431039Y357726D01*
X428658Y355345D01*
X425290Y355345D01*
G37*
%LPD*%
%LPC*%
G36*
X39972Y353059D02*
X39972Y353059D01*
X37591Y355440D01*
X37591Y358808D01*
X39972Y361189D01*
X43340Y361189D01*
X45721Y358808D01*
X45721Y355440D01*
X43340Y353059D01*
X39972Y353059D01*
G37*
%LPD*%
%LPC*%
G36*
X277716Y351535D02*
X277716Y351535D01*
X275335Y353916D01*
X275335Y357284D01*
X277716Y359665D01*
X281084Y359665D01*
X283465Y357284D01*
X283465Y353916D01*
X281084Y351535D01*
X277716Y351535D01*
G37*
%LPD*%
%LPC*%
G36*
X228694Y349503D02*
X228694Y349503D01*
X226313Y351884D01*
X226313Y355252D01*
X228694Y357633D01*
X232062Y357633D01*
X234443Y355252D01*
X234443Y351884D01*
X232062Y349503D01*
X228694Y349503D01*
G37*
%LPD*%
%LPC*%
G36*
X122522Y348995D02*
X122522Y348995D01*
X120141Y351376D01*
X120141Y354744D01*
X122522Y357125D01*
X125890Y357125D01*
X128271Y354744D01*
X128271Y351376D01*
X125890Y348995D01*
X122522Y348995D01*
G37*
%LPD*%
%LPC*%
G36*
X480408Y348741D02*
X480408Y348741D01*
X478027Y351122D01*
X478027Y354490D01*
X480408Y356871D01*
X483776Y356871D01*
X486157Y354490D01*
X486157Y351122D01*
X483776Y348741D01*
X480408Y348741D01*
G37*
%LPD*%
%LPC*%
G36*
X185006Y338835D02*
X185006Y338835D01*
X182625Y341216D01*
X182625Y344584D01*
X185006Y346965D01*
X188374Y346965D01*
X190755Y344584D01*
X190755Y341216D01*
X188374Y338835D01*
X185006Y338835D01*
G37*
%LPD*%
%LPC*%
G36*
X405224Y338581D02*
X405224Y338581D01*
X402843Y340962D01*
X402843Y344330D01*
X405224Y346711D01*
X408592Y346711D01*
X410973Y344330D01*
X410973Y340962D01*
X408592Y338581D01*
X405224Y338581D01*
G37*
%LPD*%
%LPC*%
G36*
X118966Y336255D02*
X118966Y336255D01*
X116585Y338636D01*
X116585Y342004D01*
X118966Y344385D01*
X122334Y344385D01*
X124715Y342004D01*
X124715Y338636D01*
X122334Y336255D01*
X118966Y336255D01*
G37*
%LPD*%
%LPC*%
G36*
X171036Y331215D02*
X171036Y331215D01*
X168655Y333596D01*
X168655Y336964D01*
X171036Y339345D01*
X174404Y339345D01*
X176785Y336964D01*
X176785Y333596D01*
X174404Y331215D01*
X171036Y331215D01*
G37*
%LPD*%
%LPC*%
G36*
X388206Y317245D02*
X388206Y317245D01*
X385825Y319626D01*
X385825Y322994D01*
X388206Y325375D01*
X391574Y325375D01*
X393955Y322994D01*
X393955Y319626D01*
X391574Y317245D01*
X388206Y317245D01*
G37*
%LPD*%
%LPC*%
G36*
X283558Y257555D02*
X283558Y257555D01*
X281177Y259936D01*
X281177Y263304D01*
X283558Y265685D01*
X286926Y265685D01*
X289307Y263304D01*
X289307Y259936D01*
X286926Y257555D01*
X283558Y257555D01*
G37*
%LPD*%
%LPC*%
G36*
X392016Y262635D02*
X392016Y262635D01*
X389635Y265016D01*
X389635Y268384D01*
X392016Y270765D01*
X395384Y270765D01*
X397765Y268384D01*
X397765Y265016D01*
X395384Y262635D01*
X392016Y262635D01*
G37*
%LPD*%
%LPC*%
G36*
X176116Y249935D02*
X176116Y249935D01*
X173735Y252316D01*
X173735Y255684D01*
X176116Y258065D01*
X179484Y258065D01*
X181865Y255684D01*
X181865Y252316D01*
X179484Y249935D01*
X176116Y249935D01*
G37*
%LPD*%
%LPC*%
G36*
X99662Y249935D02*
X99662Y249935D01*
X97281Y252316D01*
X97281Y255684D01*
X99662Y258065D01*
X103030Y258065D01*
X105411Y255684D01*
X105411Y252316D01*
X103030Y249935D01*
X99662Y249935D01*
G37*
%LPD*%
%LPC*%
G36*
X417416Y262635D02*
X417416Y262635D01*
X415035Y265016D01*
X415035Y268384D01*
X417416Y270765D01*
X420784Y270765D01*
X423165Y268384D01*
X423165Y265016D01*
X420784Y262635D01*
X417416Y262635D01*
G37*
%LPD*%
%LPC*%
G36*
X49116Y241045D02*
X49116Y241045D01*
X46735Y243426D01*
X46735Y246794D01*
X49116Y249175D01*
X52484Y249175D01*
X54865Y246794D01*
X54865Y243426D01*
X52484Y241045D01*
X49116Y241045D01*
G37*
%LPD*%
%LPC*%
G36*
X228186Y238505D02*
X228186Y238505D01*
X225805Y240886D01*
X225805Y244254D01*
X228186Y246635D01*
X231554Y246635D01*
X233935Y244254D01*
X233935Y240886D01*
X231554Y238505D01*
X228186Y238505D01*
G37*
%LPD*%
%LPC*%
G36*
X417416Y237235D02*
X417416Y237235D01*
X415035Y239616D01*
X415035Y242984D01*
X417416Y245365D01*
X420784Y245365D01*
X423165Y242984D01*
X423165Y239616D01*
X420784Y237235D01*
X417416Y237235D01*
G37*
%LPD*%
%LPC*%
G36*
X392016Y237235D02*
X392016Y237235D01*
X389635Y239616D01*
X389635Y242984D01*
X392016Y245365D01*
X395384Y245365D01*
X397765Y242984D01*
X397765Y239616D01*
X395384Y237235D01*
X392016Y237235D01*
G37*
%LPD*%
%LPC*%
G36*
X176370Y231139D02*
X176370Y231139D01*
X173989Y233520D01*
X173989Y236888D01*
X176370Y239269D01*
X179738Y239269D01*
X182119Y236888D01*
X182119Y233520D01*
X179738Y231139D01*
X176370Y231139D01*
G37*
%LPD*%
%LPC*%
G36*
X99916Y231139D02*
X99916Y231139D01*
X97535Y233520D01*
X97535Y236888D01*
X99916Y239269D01*
X103284Y239269D01*
X105665Y236888D01*
X105665Y233520D01*
X103284Y231139D01*
X99916Y231139D01*
G37*
%LPD*%
%LPC*%
G36*
X351376Y221995D02*
X351376Y221995D01*
X348995Y224376D01*
X348995Y227744D01*
X351376Y230125D01*
X354744Y230125D01*
X357125Y227744D01*
X357125Y224376D01*
X354744Y221995D01*
X351376Y221995D01*
G37*
%LPD*%
%LPC*%
G36*
X389476Y215645D02*
X389476Y215645D01*
X387095Y218026D01*
X387095Y221394D01*
X389476Y223775D01*
X392844Y223775D01*
X395225Y221394D01*
X395225Y218026D01*
X392844Y215645D01*
X389476Y215645D01*
G37*
%LPD*%
%LPC*%
G36*
X82136Y211835D02*
X82136Y211835D01*
X79755Y214216D01*
X79755Y217584D01*
X82136Y219965D01*
X85504Y219965D01*
X87885Y217584D01*
X87885Y214216D01*
X85504Y211835D01*
X82136Y211835D01*
G37*
%LPD*%
%LPC*%
G36*
X138886Y211435D02*
X138886Y211435D01*
X136505Y213816D01*
X136505Y217184D01*
X138886Y219565D01*
X142254Y219565D01*
X144635Y217184D01*
X144635Y213816D01*
X142254Y211435D01*
X138886Y211435D01*
G37*
%LPD*%
%LPC*%
G36*
X241902Y210057D02*
X241902Y210057D01*
X239521Y212438D01*
X239521Y215806D01*
X241902Y218187D01*
X245270Y218187D01*
X247651Y215806D01*
X247651Y212438D01*
X245270Y210057D01*
X241902Y210057D01*
G37*
%LPD*%
%LPC*%
G36*
X317594Y269239D02*
X317594Y269239D01*
X315213Y271620D01*
X315213Y274988D01*
X317594Y277369D01*
X320962Y277369D01*
X323343Y274988D01*
X323343Y271620D01*
X320962Y269239D01*
X317594Y269239D01*
G37*
%LPD*%
%LPC*%
G36*
X44036Y260095D02*
X44036Y260095D01*
X41655Y262476D01*
X41655Y265844D01*
X44036Y268225D01*
X47404Y268225D01*
X49785Y265844D01*
X49785Y262476D01*
X47404Y260095D01*
X44036Y260095D01*
G37*
%LPD*%
%LPC*%
G36*
X49116Y201675D02*
X49116Y201675D01*
X46735Y204056D01*
X46735Y207424D01*
X49116Y209805D01*
X52484Y209805D01*
X54865Y207424D01*
X54865Y204056D01*
X52484Y201675D01*
X49116Y201675D01*
G37*
%LPD*%
%LPC*%
G36*
X63086Y199135D02*
X63086Y199135D01*
X60705Y201516D01*
X60705Y204884D01*
X63086Y207265D01*
X66454Y207265D01*
X68835Y204884D01*
X68835Y201516D01*
X66454Y199135D01*
X63086Y199135D01*
G37*
%LPD*%
%LPC*%
G36*
X469232Y279145D02*
X469232Y279145D01*
X466851Y281526D01*
X466851Y284894D01*
X469232Y287275D01*
X472600Y287275D01*
X474981Y284894D01*
X474981Y281526D01*
X472600Y279145D01*
X469232Y279145D01*
G37*
%LPD*%
%LPC*%
G36*
X401414Y189229D02*
X401414Y189229D01*
X399033Y191610D01*
X399033Y194978D01*
X401414Y197359D01*
X404782Y197359D01*
X407163Y194978D01*
X407163Y191610D01*
X404782Y189229D01*
X401414Y189229D01*
G37*
%LPD*%
%LPC*%
G36*
X209898Y188213D02*
X209898Y188213D01*
X207517Y190594D01*
X207517Y193962D01*
X209898Y196343D01*
X213266Y196343D01*
X215647Y193962D01*
X215647Y190594D01*
X213266Y188213D01*
X209898Y188213D01*
G37*
%LPD*%
%LPC*%
G36*
X138016Y186435D02*
X138016Y186435D01*
X135635Y188816D01*
X135635Y192184D01*
X138016Y194565D01*
X141384Y194565D01*
X143765Y192184D01*
X143765Y188816D01*
X141384Y186435D01*
X138016Y186435D01*
G37*
%LPD*%
%LPC*%
G36*
X82136Y186435D02*
X82136Y186435D01*
X79755Y188816D01*
X79755Y192184D01*
X82136Y194565D01*
X85504Y194565D01*
X87885Y192184D01*
X87885Y188816D01*
X85504Y186435D01*
X82136Y186435D01*
G37*
%LPD*%
%LPC*%
G36*
X38448Y282447D02*
X38448Y282447D01*
X36067Y284828D01*
X36067Y288196D01*
X38448Y290577D01*
X41816Y290577D01*
X44197Y288196D01*
X44197Y284828D01*
X41816Y282447D01*
X38448Y282447D01*
G37*
%LPD*%
%LPC*%
G36*
X298036Y175005D02*
X298036Y175005D01*
X295655Y177386D01*
X295655Y180754D01*
X298036Y183135D01*
X301404Y183135D01*
X303785Y180754D01*
X303785Y177386D01*
X301404Y175005D01*
X298036Y175005D01*
G37*
%LPD*%
%LPC*%
G36*
X63086Y173735D02*
X63086Y173735D01*
X60705Y176116D01*
X60705Y179484D01*
X63086Y181865D01*
X66454Y181865D01*
X68835Y179484D01*
X68835Y176116D01*
X66454Y173735D01*
X63086Y173735D01*
G37*
%LPD*%
%LPC*%
G36*
X208882Y170941D02*
X208882Y170941D01*
X206501Y173322D01*
X206501Y176690D01*
X208882Y179071D01*
X212250Y179071D01*
X214631Y176690D01*
X214631Y173322D01*
X212250Y170941D01*
X208882Y170941D01*
G37*
%LPD*%
%LPC*%
G36*
X235552Y164337D02*
X235552Y164337D01*
X233171Y166718D01*
X233171Y170086D01*
X235552Y172467D01*
X238920Y172467D01*
X241301Y170086D01*
X241301Y166718D01*
X238920Y164337D01*
X235552Y164337D01*
G37*
%LPD*%
%LPC*%
G36*
X168496Y160273D02*
X168496Y160273D01*
X166115Y162654D01*
X166115Y166022D01*
X168496Y168403D01*
X171864Y168403D01*
X174245Y166022D01*
X174245Y162654D01*
X171864Y160273D01*
X168496Y160273D01*
G37*
%LPD*%
%LPC*%
G36*
X474820Y157479D02*
X474820Y157479D01*
X472439Y159860D01*
X472439Y163228D01*
X474820Y165609D01*
X478188Y165609D01*
X480569Y163228D01*
X480569Y159860D01*
X478188Y157479D01*
X474820Y157479D01*
G37*
%LPD*%
%LPC*%
G36*
X208468Y156369D02*
X208468Y156369D01*
X206087Y158750D01*
X206087Y162118D01*
X208468Y164499D01*
X211836Y164499D01*
X214217Y162118D01*
X214217Y158750D01*
X211836Y156369D01*
X208468Y156369D01*
G37*
%LPD*%
%LPC*%
G36*
X290416Y288035D02*
X290416Y288035D01*
X288035Y290416D01*
X288035Y293784D01*
X290416Y296165D01*
X293784Y296165D01*
X296165Y293784D01*
X296165Y290416D01*
X293784Y288035D01*
X290416Y288035D01*
G37*
%LPD*%
%LPC*%
G36*
X485996Y148335D02*
X485996Y148335D01*
X483615Y150716D01*
X483615Y154084D01*
X485996Y156465D01*
X489364Y156465D01*
X491745Y154084D01*
X491745Y150716D01*
X489364Y148335D01*
X485996Y148335D01*
G37*
%LPD*%
%LPC*%
G36*
X137254Y145287D02*
X137254Y145287D01*
X134873Y147668D01*
X134873Y151036D01*
X137254Y153417D01*
X140622Y153417D01*
X143003Y151036D01*
X143003Y147668D01*
X140622Y145287D01*
X137254Y145287D01*
G37*
%LPD*%
%LPC*%
G36*
X111346Y144525D02*
X111346Y144525D01*
X108965Y146906D01*
X108965Y150274D01*
X111346Y152655D01*
X114714Y152655D01*
X117095Y150274D01*
X117095Y146906D01*
X114714Y144525D01*
X111346Y144525D01*
G37*
%LPD*%
%LPC*%
G36*
X154526Y143255D02*
X154526Y143255D01*
X152145Y145636D01*
X152145Y149004D01*
X154526Y151385D01*
X157894Y151385D01*
X160275Y149004D01*
X160275Y145636D01*
X157894Y143255D01*
X154526Y143255D01*
G37*
%LPD*%
%LPC*%
G36*
X209136Y141731D02*
X209136Y141731D01*
X206755Y144112D01*
X206755Y147480D01*
X209136Y149861D01*
X212504Y149861D01*
X214885Y147480D01*
X214885Y144112D01*
X212504Y141731D01*
X209136Y141731D01*
G37*
%LPD*%
%LPC*%
G36*
X258412Y140207D02*
X258412Y140207D01*
X256031Y142588D01*
X256031Y145956D01*
X258412Y148337D01*
X261780Y148337D01*
X264161Y145956D01*
X264161Y142588D01*
X261780Y140207D01*
X258412Y140207D01*
G37*
%LPD*%
%LPC*%
G36*
X432402Y132079D02*
X432402Y132079D01*
X430021Y134460D01*
X430021Y137828D01*
X432402Y140209D01*
X435770Y140209D01*
X438151Y137828D01*
X438151Y134460D01*
X435770Y132079D01*
X432402Y132079D01*
G37*
%LPD*%
%LPC*%
G36*
X87978Y290321D02*
X87978Y290321D01*
X85597Y292702D01*
X85597Y296070D01*
X87978Y298451D01*
X91346Y298451D01*
X93727Y296070D01*
X93727Y292702D01*
X91346Y290321D01*
X87978Y290321D01*
G37*
%LPD*%
%LPC*%
G36*
X341216Y122935D02*
X341216Y122935D01*
X338835Y125316D01*
X338835Y128684D01*
X341216Y131065D01*
X344584Y131065D01*
X346965Y128684D01*
X346965Y125316D01*
X344584Y122935D01*
X341216Y122935D01*
G37*
%LPD*%
%LPC*%
G36*
X315816Y122935D02*
X315816Y122935D01*
X313435Y125316D01*
X313435Y128684D01*
X315816Y131065D01*
X319184Y131065D01*
X321565Y128684D01*
X321565Y125316D01*
X319184Y122935D01*
X315816Y122935D01*
G37*
%LPD*%
%LPC*%
G36*
X239616Y122935D02*
X239616Y122935D01*
X237235Y125316D01*
X237235Y128684D01*
X239616Y131065D01*
X242984Y131065D01*
X245365Y128684D01*
X245365Y125316D01*
X242984Y122935D01*
X239616Y122935D01*
G37*
%LPD*%
%LPC*%
G36*
X214216Y122935D02*
X214216Y122935D01*
X211835Y125316D01*
X211835Y128684D01*
X214216Y131065D01*
X217584Y131065D01*
X219965Y128684D01*
X219965Y125316D01*
X217584Y122935D01*
X214216Y122935D01*
G37*
%LPD*%
%LPC*%
G36*
X379062Y119125D02*
X379062Y119125D01*
X376681Y121506D01*
X376681Y124874D01*
X379062Y127255D01*
X382430Y127255D01*
X384811Y124874D01*
X384811Y121506D01*
X382430Y119125D01*
X379062Y119125D01*
G37*
%LPD*%
%LPC*%
G36*
X181196Y119125D02*
X181196Y119125D01*
X178815Y121506D01*
X178815Y124874D01*
X181196Y127255D01*
X184564Y127255D01*
X186945Y124874D01*
X186945Y121506D01*
X184564Y119125D01*
X181196Y119125D01*
G37*
%LPD*%
%LPC*%
G36*
X432656Y116585D02*
X432656Y116585D01*
X430275Y118966D01*
X430275Y122334D01*
X432656Y124715D01*
X436024Y124715D01*
X438405Y122334D01*
X438405Y118966D01*
X436024Y116585D01*
X432656Y116585D01*
G37*
%LPD*%
%LPC*%
G36*
X391762Y105155D02*
X391762Y105155D01*
X389381Y107536D01*
X389381Y110904D01*
X391762Y113285D01*
X395130Y113285D01*
X397511Y110904D01*
X397511Y107536D01*
X395130Y105155D01*
X391762Y105155D01*
G37*
%LPD*%
%LPC*%
G36*
X239616Y300735D02*
X239616Y300735D01*
X237235Y303116D01*
X237235Y306484D01*
X239616Y308865D01*
X242984Y308865D01*
X245365Y306484D01*
X245365Y303116D01*
X242984Y300735D01*
X239616Y300735D01*
G37*
%LPD*%
%LPC*%
G36*
X332716Y98635D02*
X332716Y98635D01*
X330335Y101016D01*
X330335Y104384D01*
X332716Y106765D01*
X336084Y106765D01*
X338465Y104384D01*
X338465Y101016D01*
X336084Y98635D01*
X332716Y98635D01*
G37*
%LPD*%
%LPC*%
G36*
X113378Y98551D02*
X113378Y98551D01*
X110997Y100932D01*
X110997Y104300D01*
X113378Y106681D01*
X116746Y106681D01*
X119127Y104300D01*
X119127Y100932D01*
X116746Y98551D01*
X113378Y98551D01*
G37*
%LPD*%
%LPC*%
G36*
X147414Y93217D02*
X147414Y93217D01*
X145033Y95598D01*
X145033Y98966D01*
X147414Y101347D01*
X150782Y101347D01*
X153163Y98966D01*
X153163Y95598D01*
X150782Y93217D01*
X147414Y93217D01*
G37*
%LPD*%
%LPC*%
G36*
X341470Y72643D02*
X341470Y72643D01*
X339089Y75024D01*
X339089Y78392D01*
X341470Y80773D01*
X344838Y80773D01*
X347219Y78392D01*
X347219Y75024D01*
X344838Y72643D01*
X341470Y72643D01*
G37*
%LPD*%
%LPC*%
G36*
X359758Y494537D02*
X359758Y494537D01*
X357377Y496918D01*
X357377Y500286D01*
X359758Y502667D01*
X363126Y502667D01*
X365507Y500286D01*
X365507Y496918D01*
X363126Y494537D01*
X359758Y494537D01*
G37*
%LPD*%
%LPC*%
G36*
X214216Y72135D02*
X214216Y72135D01*
X211835Y74516D01*
X211835Y77884D01*
X214216Y80265D01*
X217584Y80265D01*
X219965Y77884D01*
X219965Y74516D01*
X217584Y72135D01*
X214216Y72135D01*
G37*
%LPD*%
%LPC*%
G36*
X455516Y491235D02*
X455516Y491235D01*
X453135Y493616D01*
X453135Y496984D01*
X455516Y499365D01*
X458884Y499365D01*
X461265Y496984D01*
X461265Y493616D01*
X458884Y491235D01*
X455516Y491235D01*
G37*
%LPD*%
%LPC*%
G36*
X373474Y66801D02*
X373474Y66801D01*
X371093Y69182D01*
X371093Y72550D01*
X373474Y74931D01*
X376842Y74931D01*
X379223Y72550D01*
X379223Y69182D01*
X376842Y66801D01*
X373474Y66801D01*
G37*
%LPD*%
%LPC*%
G36*
X181958Y66039D02*
X181958Y66039D01*
X179577Y68420D01*
X179577Y71788D01*
X181958Y74169D01*
X185326Y74169D01*
X187707Y71788D01*
X187707Y68420D01*
X185326Y66039D01*
X181958Y66039D01*
G37*
%LPD*%
%LPC*%
G36*
X277716Y491235D02*
X277716Y491235D01*
X275335Y493616D01*
X275335Y496984D01*
X277716Y499365D01*
X281084Y499365D01*
X283465Y496984D01*
X283465Y493616D01*
X281084Y491235D01*
X277716Y491235D01*
G37*
%LPD*%
%LPC*%
G36*
X30066Y60705D02*
X30066Y60705D01*
X27685Y63086D01*
X27685Y66454D01*
X30066Y68835D01*
X33434Y68835D01*
X35815Y66454D01*
X35815Y63086D01*
X33434Y60705D01*
X30066Y60705D01*
G37*
%LPD*%
%LPC*%
G36*
X109822Y58927D02*
X109822Y58927D01*
X107441Y61308D01*
X107441Y64676D01*
X109822Y67057D01*
X113190Y67057D01*
X115571Y64676D01*
X115571Y61308D01*
X113190Y58927D01*
X109822Y58927D01*
G37*
%LPD*%
%LPC*%
G36*
X168496Y308355D02*
X168496Y308355D01*
X166115Y310736D01*
X166115Y314104D01*
X168496Y316485D01*
X171864Y316485D01*
X174245Y314104D01*
X174245Y310736D01*
X171864Y308355D01*
X168496Y308355D01*
G37*
%LPD*%
%LPC*%
G36*
X277716Y313435D02*
X277716Y313435D01*
X275335Y315816D01*
X275335Y319184D01*
X277716Y321565D01*
X281084Y321565D01*
X283465Y319184D01*
X283465Y315816D01*
X281084Y313435D01*
X277716Y313435D01*
G37*
%LPD*%
%LPC*%
G36*
X358234Y316991D02*
X358234Y316991D01*
X355853Y319372D01*
X355853Y322740D01*
X358234Y325121D01*
X361602Y325121D01*
X363983Y322740D01*
X363983Y319372D01*
X361602Y316991D01*
X358234Y316991D01*
G37*
%LPD*%
%LPC*%
G36*
X506316Y46735D02*
X506316Y46735D01*
X503935Y49116D01*
X503935Y52484D01*
X506316Y54865D01*
X509684Y54865D01*
X512065Y52484D01*
X512065Y49116D01*
X509684Y46735D01*
X506316Y46735D01*
G37*
%LPD*%
%LPC*%
G36*
X144366Y477265D02*
X144366Y477265D01*
X141985Y479646D01*
X141985Y483014D01*
X144366Y485395D01*
X147734Y485395D01*
X150115Y483014D01*
X150115Y479646D01*
X147734Y477265D01*
X144366Y477265D01*
G37*
%LPD*%
%LPC*%
G36*
X229456Y472185D02*
X229456Y472185D01*
X227075Y474566D01*
X227075Y477934D01*
X229456Y480315D01*
X232824Y480315D01*
X235205Y477934D01*
X235205Y474566D01*
X232824Y472185D01*
X229456Y472185D01*
G37*
%LPD*%
%LPC*%
G36*
X160368Y459485D02*
X160368Y459485D01*
X157987Y461866D01*
X157987Y465234D01*
X160368Y467615D01*
X163736Y467615D01*
X166117Y465234D01*
X166117Y461866D01*
X163736Y459485D01*
X160368Y459485D01*
G37*
%LPD*%
%LPC*%
G36*
X67912Y457453D02*
X67912Y457453D01*
X65531Y459834D01*
X65531Y463202D01*
X67912Y465583D01*
X71280Y465583D01*
X73661Y463202D01*
X73661Y459834D01*
X71280Y457453D01*
X67912Y457453D01*
G37*
%LPD*%
%LPC*%
G36*
X30066Y37845D02*
X30066Y37845D01*
X27685Y40226D01*
X27685Y43594D01*
X30066Y45975D01*
X33434Y45975D01*
X35815Y43594D01*
X35815Y40226D01*
X33434Y37845D01*
X30066Y37845D01*
G37*
%LPD*%
%LPC*%
G36*
X110330Y35559D02*
X110330Y35559D01*
X107949Y37940D01*
X107949Y41308D01*
X110330Y43689D01*
X113698Y43689D01*
X116079Y41308D01*
X116079Y37940D01*
X113698Y35559D01*
X110330Y35559D01*
G37*
%LPD*%
%LPC*%
G36*
X82644Y457199D02*
X82644Y457199D01*
X80263Y459580D01*
X80263Y462948D01*
X82644Y465329D01*
X86012Y465329D01*
X88393Y462948D01*
X88393Y459580D01*
X86012Y457199D01*
X82644Y457199D01*
G37*
%LPD*%
%LPC*%
G36*
X156050Y28193D02*
X156050Y28193D01*
X153669Y30574D01*
X153669Y33942D01*
X156050Y36323D01*
X159418Y36323D01*
X161799Y33942D01*
X161799Y30574D01*
X159418Y28193D01*
X156050Y28193D01*
G37*
%LPD*%
%LPC*%
G36*
X398874Y25907D02*
X398874Y25907D01*
X396493Y28288D01*
X396493Y31656D01*
X398874Y34037D01*
X402242Y34037D01*
X404623Y31656D01*
X404623Y28288D01*
X402242Y25907D01*
X398874Y25907D01*
G37*
%LPD*%
%LPC*%
G36*
X480916Y8635D02*
X480916Y8635D01*
X478535Y11016D01*
X478535Y14384D01*
X480916Y16765D01*
X484284Y16765D01*
X486665Y14384D01*
X486665Y11016D01*
X484284Y8635D01*
X480916Y8635D01*
G37*
%LPD*%
%LPC*%
G36*
X404716Y8635D02*
X404716Y8635D01*
X402335Y11016D01*
X402335Y14384D01*
X404716Y16765D01*
X408084Y16765D01*
X410465Y14384D01*
X410465Y11016D01*
X408084Y8635D01*
X404716Y8635D01*
G37*
%LPD*%
%LPC*%
G36*
X366616Y8635D02*
X366616Y8635D01*
X364235Y11016D01*
X364235Y14384D01*
X366616Y16765D01*
X369984Y16765D01*
X372365Y14384D01*
X372365Y11016D01*
X369984Y8635D01*
X366616Y8635D01*
G37*
%LPD*%
%LPC*%
G36*
X315816Y8635D02*
X315816Y8635D01*
X313435Y11016D01*
X313435Y14384D01*
X315816Y16765D01*
X319184Y16765D01*
X321565Y14384D01*
X321565Y11016D01*
X319184Y8635D01*
X315816Y8635D01*
G37*
%LPD*%
%LPC*%
G36*
X277716Y8635D02*
X277716Y8635D01*
X275335Y11016D01*
X275335Y14384D01*
X277716Y16765D01*
X281084Y16765D01*
X283465Y14384D01*
X283465Y11016D01*
X281084Y8635D01*
X277716Y8635D01*
G37*
%LPD*%
%LPC*%
G36*
X239616Y8635D02*
X239616Y8635D01*
X237235Y11016D01*
X237235Y14384D01*
X239616Y16765D01*
X242984Y16765D01*
X245365Y14384D01*
X245365Y11016D01*
X242984Y8635D01*
X239616Y8635D01*
G37*
%LPD*%
%LPC*%
G36*
X188816Y8635D02*
X188816Y8635D01*
X186435Y11016D01*
X186435Y14384D01*
X188816Y16765D01*
X192184Y16765D01*
X194565Y14384D01*
X194565Y11016D01*
X192184Y8635D01*
X188816Y8635D01*
G37*
%LPD*%
%LPC*%
G36*
X49116Y8635D02*
X49116Y8635D01*
X46735Y11016D01*
X46735Y14384D01*
X49116Y16765D01*
X52484Y16765D01*
X54865Y14384D01*
X54865Y11016D01*
X52484Y8635D01*
X49116Y8635D01*
G37*
%LPD*%
%LPC*%
G36*
X510539Y269239D02*
X510539Y269239D01*
X510539Y276559D01*
X511900Y276116D01*
X513325Y275390D01*
X514334Y274657D01*
X514619Y274450D01*
X515750Y273319D01*
X516690Y272025D01*
X517416Y270600D01*
X517859Y269239D01*
X510539Y269239D01*
G37*
%LPD*%
%LPC*%
G36*
X498141Y269239D02*
X498141Y269239D01*
X498584Y270600D01*
X499310Y272025D01*
X500250Y273319D01*
X501381Y274450D01*
X502675Y275390D01*
X504100Y276116D01*
X505461Y276559D01*
X505461Y269239D01*
X498141Y269239D01*
G37*
%LPD*%
%LPC*%
G36*
X510539Y264161D02*
X510539Y264161D01*
X517859Y264161D01*
X517416Y262800D01*
X516690Y261375D01*
X515750Y260081D01*
X514619Y258950D01*
X513325Y258010D01*
X511900Y257284D01*
X510539Y256841D01*
X510539Y264161D01*
G37*
%LPD*%
%LPC*%
G36*
X218439Y492761D02*
X218439Y492761D01*
X225759Y492761D01*
X225316Y491400D01*
X224590Y489975D01*
X223650Y488681D01*
X222519Y487550D01*
X221225Y486610D01*
X219800Y485884D01*
X218439Y485441D01*
X218439Y492761D01*
G37*
%LPD*%
%LPC*%
G36*
X504100Y257284D02*
X504100Y257284D01*
X502675Y258010D01*
X501381Y258950D01*
X500250Y260081D01*
X499310Y261375D01*
X498584Y262800D01*
X498141Y264161D01*
X505461Y264161D01*
X505461Y256841D01*
X504100Y257284D01*
G37*
%LPD*%
%LPC*%
G36*
X507999Y266699D02*
X507999Y266699D01*
X507999Y266701D01*
X508001Y266701D01*
X508001Y266699D01*
X507999Y266699D01*
G37*
%LPD*%
D10*
X91077Y427587D02*
X95240Y427587D01*
X95368Y427589D01*
X95496Y427595D01*
X95624Y427605D01*
X95752Y427619D01*
X95879Y427636D01*
X96005Y427658D01*
X96131Y427683D01*
X96255Y427713D01*
X96379Y427746D01*
X96502Y427783D01*
X96624Y427824D01*
X96744Y427868D01*
X96863Y427916D01*
X96980Y427968D01*
X97096Y428023D01*
X97209Y428082D01*
X97322Y428145D01*
X97432Y428211D01*
X97539Y428280D01*
X97645Y428352D01*
X97749Y428428D01*
X97850Y428507D01*
X97949Y428589D01*
X98045Y428674D01*
X98138Y428761D01*
X98229Y428852D01*
X98316Y428945D01*
X98401Y429041D01*
X98483Y429140D01*
X98562Y429241D01*
X98638Y429345D01*
X98710Y429451D01*
X98779Y429558D01*
X98845Y429669D01*
X98908Y429781D01*
X98967Y429894D01*
X99022Y430010D01*
X99074Y430127D01*
X99122Y430246D01*
X99166Y430366D01*
X99207Y430488D01*
X99244Y430611D01*
X99277Y430735D01*
X99307Y430859D01*
X99332Y430985D01*
X99354Y431111D01*
X99371Y431238D01*
X99385Y431366D01*
X99395Y431494D01*
X99401Y431622D01*
X99403Y431750D01*
X99401Y431878D01*
X99395Y432006D01*
X99385Y432134D01*
X99371Y432262D01*
X99354Y432389D01*
X99332Y432515D01*
X99307Y432641D01*
X99277Y432765D01*
X99244Y432889D01*
X99207Y433012D01*
X99166Y433134D01*
X99122Y433254D01*
X99074Y433373D01*
X99022Y433490D01*
X98967Y433606D01*
X98908Y433719D01*
X98845Y433832D01*
X98779Y433942D01*
X98710Y434049D01*
X98638Y434155D01*
X98562Y434259D01*
X98483Y434360D01*
X98401Y434459D01*
X98316Y434555D01*
X98229Y434648D01*
X98138Y434739D01*
X98045Y434826D01*
X97949Y434911D01*
X97850Y434993D01*
X97749Y435072D01*
X97645Y435148D01*
X97539Y435220D01*
X97432Y435289D01*
X97322Y435355D01*
X97209Y435418D01*
X97096Y435477D01*
X96980Y435532D01*
X96863Y435584D01*
X96744Y435632D01*
X96624Y435676D01*
X96502Y435717D01*
X96379Y435754D01*
X96255Y435787D01*
X96131Y435817D01*
X96005Y435842D01*
X95879Y435864D01*
X95752Y435881D01*
X95624Y435895D01*
X95496Y435905D01*
X95368Y435911D01*
X95240Y435913D01*
X96072Y442573D02*
X91077Y442573D01*
X96072Y442573D02*
X96186Y442571D01*
X96299Y442565D01*
X96413Y442556D01*
X96525Y442542D01*
X96638Y442525D01*
X96750Y442503D01*
X96860Y442478D01*
X96970Y442450D01*
X97079Y442417D01*
X97187Y442381D01*
X97294Y442341D01*
X97399Y442297D01*
X97502Y442250D01*
X97604Y442200D01*
X97704Y442146D01*
X97802Y442088D01*
X97898Y442027D01*
X97992Y441964D01*
X98084Y441896D01*
X98174Y441826D01*
X98260Y441753D01*
X98345Y441677D01*
X98427Y441598D01*
X98506Y441516D01*
X98582Y441431D01*
X98655Y441345D01*
X98725Y441255D01*
X98793Y441163D01*
X98856Y441069D01*
X98917Y440973D01*
X98975Y440875D01*
X99029Y440775D01*
X99079Y440673D01*
X99126Y440570D01*
X99170Y440465D01*
X99210Y440358D01*
X99246Y440250D01*
X99279Y440141D01*
X99307Y440031D01*
X99332Y439921D01*
X99354Y439809D01*
X99371Y439696D01*
X99385Y439584D01*
X99394Y439470D01*
X99400Y439357D01*
X99402Y439243D01*
X99400Y439129D01*
X99394Y439016D01*
X99385Y438902D01*
X99371Y438790D01*
X99354Y438677D01*
X99332Y438565D01*
X99307Y438455D01*
X99279Y438345D01*
X99246Y438236D01*
X99210Y438128D01*
X99170Y438021D01*
X99126Y437916D01*
X99079Y437813D01*
X99029Y437711D01*
X98975Y437611D01*
X98917Y437513D01*
X98856Y437417D01*
X98793Y437323D01*
X98725Y437231D01*
X98655Y437141D01*
X98582Y437055D01*
X98506Y436970D01*
X98427Y436888D01*
X98345Y436809D01*
X98260Y436733D01*
X98174Y436660D01*
X98084Y436590D01*
X97992Y436522D01*
X97898Y436459D01*
X97802Y436398D01*
X97704Y436340D01*
X97604Y436286D01*
X97502Y436236D01*
X97399Y436189D01*
X97294Y436145D01*
X97187Y436105D01*
X97079Y436069D01*
X96970Y436036D01*
X96860Y436008D01*
X96750Y435983D01*
X96638Y435961D01*
X96525Y435944D01*
X96413Y435930D01*
X96299Y435921D01*
X96186Y435915D01*
X96072Y435913D01*
X92742Y435913D01*
D11*
X342900Y495300D03*
X342900Y469900D03*
X342900Y444500D03*
X342900Y419100D03*
X342900Y393700D03*
X342900Y368300D03*
X342900Y342900D03*
X342900Y317500D03*
X342900Y292100D03*
X342900Y266700D03*
X215900Y495300D03*
X215900Y469900D03*
X215900Y444500D03*
X215900Y419100D03*
X215900Y393700D03*
X215900Y368300D03*
X215900Y342900D03*
X215900Y317500D03*
X215900Y292100D03*
X215900Y266700D03*
X508000Y241300D03*
X508000Y266700D03*
X508000Y292100D03*
X508000Y317500D03*
X508000Y342900D03*
X508000Y368300D03*
X508000Y419100D03*
X508000Y444500D03*
X508000Y469900D03*
X508000Y495300D03*
X508000Y520700D03*
X508000Y546100D03*
X25400Y546100D03*
X25400Y520700D03*
X25400Y495300D03*
X25400Y469900D03*
X25400Y444500D03*
X25400Y419100D03*
X25400Y393700D03*
X25400Y368300D03*
X25400Y330200D03*
X25400Y304800D03*
X25400Y279400D03*
X25400Y254000D03*
X25400Y228600D03*
X25400Y203200D03*
X25400Y177800D03*
X25400Y152400D03*
X25400Y127000D03*
X25400Y101600D03*
X508000Y215900D03*
X508000Y190500D03*
D12*
X113030Y148590D03*
X186690Y342900D03*
X210152Y160434D03*
X106680Y372110D03*
X104178Y309156D03*
X311150Y195580D03*
X328930Y195580D03*
X170180Y312420D03*
X299720Y179070D03*
X210566Y175006D03*
X434086Y136144D03*
X452466Y160908D03*
X84328Y461264D03*
X99568Y461010D03*
X114808Y460756D03*
X157734Y32258D03*
X400558Y29972D03*
X112014Y39624D03*
X111506Y62992D03*
X393446Y109220D03*
X469392Y346710D03*
X452628Y317246D03*
X162052Y463550D03*
X453390Y228600D03*
X279400Y495300D03*
X482600Y12700D03*
X406400Y12700D03*
X279400Y12700D03*
X50800Y12700D03*
X260096Y144272D03*
X211582Y192278D03*
X210820Y145796D03*
X482092Y118618D03*
X317500Y127000D03*
X241300Y127000D03*
X215900Y127000D03*
X342900Y127000D03*
X182880Y123190D03*
X31750Y41910D03*
X183642Y70104D03*
X375158Y70866D03*
X508000Y50800D03*
X476504Y161544D03*
X138938Y149352D03*
X69596Y461518D03*
X391160Y219710D03*
X311150Y205740D03*
X328930Y205740D03*
X127762Y461010D03*
X410718Y163576D03*
X403098Y193294D03*
X41656Y357124D03*
X165052Y363066D03*
X353060Y226060D03*
X380746Y123190D03*
X427228Y164846D03*
X488442Y85598D03*
X237236Y168402D03*
X243586Y214122D03*
X224536Y192532D03*
X392430Y291338D03*
X201930Y490220D03*
X457200Y495300D03*
X454914Y441452D03*
X427990Y455930D03*
X392430Y444500D03*
X392430Y419100D03*
X389890Y363220D03*
X389890Y321310D03*
X392430Y401320D03*
X169418Y404876D03*
X133350Y379730D03*
X78740Y375920D03*
X279400Y457200D03*
X279400Y393700D03*
X279400Y355600D03*
X279400Y317500D03*
X525780Y384810D03*
X482092Y352806D03*
X474980Y500380D03*
X491490Y500380D03*
X499110Y482600D03*
X501650Y457200D03*
X231140Y476250D03*
X144526Y359918D03*
X172720Y335280D03*
X146958Y321156D03*
X100330Y382270D03*
X110490Y305054D03*
X71120Y237490D03*
X50800Y245110D03*
X45720Y264160D03*
X40132Y286512D03*
X50800Y205740D03*
X64770Y203200D03*
X64770Y177800D03*
X156210Y147320D03*
X146050Y481330D03*
X454406Y352806D03*
X453390Y270510D03*
X406908Y342646D03*
X359918Y321056D03*
X434340Y120650D03*
X319278Y273304D03*
X330962Y274066D03*
X361442Y498602D03*
X527050Y486918D03*
X306832Y71374D03*
X253492Y71120D03*
X100330Y165100D03*
X101600Y235204D03*
X204470Y284734D03*
X227584Y284988D03*
X230378Y353568D03*
X204724Y335280D03*
X204470Y350012D03*
X234442Y378714D03*
X317500Y449072D03*
X470916Y283210D03*
X494538Y223266D03*
X356108Y285496D03*
X356870Y272034D03*
X285242Y261620D03*
X178054Y235204D03*
X177800Y254000D03*
X101346Y254000D03*
X419100Y266700D03*
X393700Y266700D03*
X393700Y241300D03*
X419100Y241300D03*
X241300Y304800D03*
X32512Y317754D03*
X38354Y209296D03*
X292100Y292100D03*
X31750Y64770D03*
X62230Y66040D03*
X62230Y36830D03*
X497586Y352552D03*
X170180Y164338D03*
X334400Y102700D03*
X279400Y250190D03*
X292100Y250190D03*
X304800Y250190D03*
X129540Y117094D03*
X260604Y159512D03*
X122174Y39624D03*
X420370Y228854D03*
X403606Y111506D03*
X316230Y250190D03*
X59690Y494792D03*
X59690Y487680D03*
X129540Y261620D03*
X95758Y374396D03*
X443230Y365760D03*
D13*
X279400Y178308D02*
X260604Y159512D01*
X279400Y178308D02*
X279400Y250190D01*
D12*
X454152Y245618D03*
X437134Y430276D03*
X115570Y310642D03*
X519684Y31750D03*
X115062Y102616D03*
X149098Y97282D03*
X157734Y395986D03*
X89662Y294386D03*
X170180Y412100D03*
X69088Y66040D03*
X69850Y37084D03*
X359410Y459740D03*
X435610Y280670D03*
X153416Y318008D03*
X120650Y340320D03*
X384175Y291719D03*
X426974Y359410D03*
X124206Y353060D03*
X170180Y356870D03*
X463550Y353060D03*
X445135Y428625D03*
D14*
X457200Y368300D02*
X508000Y368300D01*
X457200Y368300D02*
X444500Y355600D01*
X444500Y161798D02*
X436626Y153924D01*
X444500Y161798D02*
X444500Y355600D01*
X436626Y153924D02*
X299212Y153924D01*
D12*
X299212Y153924D03*
X487680Y152400D03*
X494030Y90170D03*
X229870Y242570D03*
X488950Y120650D03*
X343154Y76708D03*
X314706Y76200D03*
X317500Y12700D03*
X368300Y12700D03*
X224536Y182880D03*
X83820Y190500D03*
X139700Y190500D03*
X140570Y215500D03*
X83820Y215900D03*
X190500Y12700D03*
X241300Y12700D03*
X215900Y76200D03*
X244602Y75692D03*
X71120Y246380D03*
X474726Y439166D03*
X494030Y393954D03*
X517906Y400812D03*
X482600Y378326D03*
M02*
