M48
;GenerationSoftware,Autodesk,EAGLE,9.6.2*%
;CreationDate,2023-03-16T21:16:01Z*%
FMAT,2
ICI,OFF
METRIC,TZ,000.000
T4C0.305
T3C0.650
T2C0.850
T1C1.016
%
G90
M71
T1
X50800Y19050
X21590Y26670
X2540Y20320
X2540Y17780
X2540Y15240
X2540Y12700
X2540Y10160
X34290Y34290
X34290Y49530
X34290Y46990
X34290Y44450
X34290Y41910
X34290Y39370
X34290Y36830
X50800Y21590
X34290Y31750
X34290Y29210
X34290Y26670
X21590Y49530
X21590Y46990
X21590Y44450
X21590Y41910
X21590Y39370
X21590Y36830
X21590Y34290
X21590Y31750
X21590Y29210
X50800Y24130
X50800Y26670
X50800Y29210
X50800Y31750
X50800Y34290
X50800Y36830
X50800Y41910
X50800Y44450
X50800Y46990
X50800Y49530
X50800Y52070
X50800Y54610
X2540Y54610
X2540Y52070
X2540Y49530
X2540Y46990
X2540Y44450
X2540Y41910
X2540Y39370
X2540Y36830
X2540Y33020
X2540Y30480
X2540Y27940
X2540Y25400
X2540Y22860
T2
X10160Y17550
X10160Y20550
T3
X31400Y4905
X37180Y4905
X18700Y4905
X24480Y4905
T4
X24359Y21412
X22454Y19253
X39243Y29134
X20193Y49022
X45720Y49530
X45491Y44145
X42799Y45593
X39243Y44450
X39243Y41910
X38989Y36322
X38989Y32131
X39243Y40132
X16942Y40488
X13335Y37973
X7874Y37592
X27940Y45720
X27940Y39370
X27940Y35560
X27940Y31750
X52578Y38481
X48209Y35281
X47498Y50038
X49149Y50038
X49911Y48260
X50165Y45720
X23114Y47625
X14453Y35992
X17272Y33528
X14696Y32116
X10033Y38227
X11049Y30505
X7112Y23749
X5080Y24511
X4572Y26416
X4013Y28651
X5080Y20574
X6477Y20320
X6477Y17780
X15621Y14732
X14605Y48133
X45441Y35281
X45339Y27051
X40691Y34265
X35992Y32106
X43434Y12065
X31928Y27330
X33096Y27407
X36144Y49860
X52705Y48692
X30683Y7137
X25349Y7112
X10033Y16510
X10160Y23520
X20447Y28473
X22758Y28499
X23038Y35357
X20472Y33528
X20447Y35001
X23444Y37871
X31750Y44907
X47092Y28321
X49454Y22327
X35611Y28550
X35687Y27203
X28524Y26162
X17805Y23520
X17780Y25400
X10135Y25400
X41910Y26670
X39370Y26670
X48209Y11862
X41910Y24130
X24130Y30480
X3251Y31775
X3835Y20930
X29210Y29210
X3175Y6477
X6223Y6604
X6223Y3683
X49759Y35255
X17018Y16434
X33440Y10270
X27940Y25019
X29210Y25019
X30480Y25019
X12954Y11709
X26060Y15951
X12217Y3962
X42037Y22885
X40361Y11151
X31623Y25019
X5969Y49479
X5969Y48768
X12954Y26162
X9576Y37440
X44323Y36576
X45415Y24562
X43713Y43028
X11557Y31064
X51968Y3175
X11506Y10262
X14910Y9728
X15773Y39599
X8966Y29439
X17018Y41210
X6909Y6604
X6985Y3708
X35941Y45974
X43561Y28067
X15342Y31801
X12065Y34032
X38418Y29172
X42697Y35941
X12421Y35306
X17018Y35687
X46355Y35306
X44513Y42863
X29921Y15392
X48768Y15240
X49403Y9017
X22987Y24257
X48895Y12065
X34315Y7671
X31471Y7620
X31750Y1270
X36830Y1270
X22454Y18288
X8382Y19050
X13970Y19050
X14057Y21550
X8382Y21590
X19050Y1270
X24130Y1270
X11303Y14859
X24460Y7569
X7112Y24638
X47473Y43917
X49403Y39395
X51791Y40081
X48260Y37833
X18669Y34290
X21015Y16043
X10668Y37211
X10418Y30916
X31115Y19558
X32893Y19558
X17018Y31242
X29972Y17907
X21057Y17501
X43409Y13614
X45247Y16091
X8433Y46126
X9957Y46101
X11481Y46076
X15773Y3226
X40056Y2997
X11201Y3962
X11151Y6299
X39345Y10922
X46939Y34671
X45263Y31725
X16205Y46355
X45339Y22860
X27940Y49530
X48260Y1270
X39370Y24130
X40640Y1270
X27940Y1270
X5080Y1270
X26010Y14427
X21158Y19228
X21082Y14580
X31750Y12700
X24130Y12700
X21590Y12700
X34290Y12700
X18288Y12319
X3175Y4191
X18364Y7010
X37516Y7087
X50800Y5080
X47650Y16154
X13894Y14935
X6960Y46152
X39116Y21971
X31115Y20574
X32893Y20574
X12776Y46101
X41072Y16358
X40310Y19329
X4166Y35712
X16505Y36307
X35306Y22606
X38075Y12319
X42723Y16485
X48844Y8560
X23724Y16840
X21590Y7620
M30