G04 EAGLE Gerber RS-274X export*
G75*
%MOMM*%
%FSLAX34Y34*%
%LPD*%
%INInner Layer 2*%
%IPPOS*%
%AMOC8*
5,1,8,0,0,1.08239X$1,22.5*%
G01*
%ADD10C,0.279400*%
%ADD11C,1.524000*%
%ADD12C,0.558800*%

G36*
X166621Y2810D02*
X166621Y2810D01*
X166740Y2817D01*
X166778Y2830D01*
X166819Y2835D01*
X166929Y2878D01*
X167042Y2915D01*
X167077Y2937D01*
X167114Y2952D01*
X167210Y3021D01*
X167311Y3085D01*
X167339Y3115D01*
X167372Y3138D01*
X167448Y3230D01*
X167529Y3317D01*
X167549Y3352D01*
X167574Y3383D01*
X167625Y3491D01*
X167683Y3595D01*
X167693Y3635D01*
X167710Y3671D01*
X167732Y3788D01*
X167762Y3903D01*
X167766Y3963D01*
X167770Y3983D01*
X167768Y4004D01*
X167772Y4064D01*
X167772Y20553D01*
X167847Y20628D01*
X177953Y20628D01*
X178028Y20553D01*
X178028Y4064D01*
X178043Y3946D01*
X178050Y3827D01*
X178063Y3789D01*
X178068Y3748D01*
X178111Y3638D01*
X178148Y3525D01*
X178170Y3490D01*
X178185Y3453D01*
X178254Y3357D01*
X178318Y3256D01*
X178348Y3228D01*
X178371Y3195D01*
X178463Y3119D01*
X178550Y3038D01*
X178585Y3018D01*
X178616Y2993D01*
X178724Y2942D01*
X178828Y2884D01*
X178868Y2874D01*
X178904Y2857D01*
X179021Y2835D01*
X179136Y2805D01*
X179196Y2801D01*
X179216Y2797D01*
X179237Y2799D01*
X179297Y2795D01*
X252503Y2795D01*
X252621Y2810D01*
X252740Y2817D01*
X252778Y2830D01*
X252819Y2835D01*
X252929Y2878D01*
X253042Y2915D01*
X253077Y2937D01*
X253114Y2952D01*
X253210Y3021D01*
X253311Y3085D01*
X253339Y3115D01*
X253372Y3138D01*
X253448Y3230D01*
X253529Y3317D01*
X253549Y3352D01*
X253574Y3383D01*
X253625Y3491D01*
X253683Y3595D01*
X253693Y3635D01*
X253710Y3671D01*
X253732Y3788D01*
X253762Y3903D01*
X253766Y3963D01*
X253770Y3983D01*
X253768Y4004D01*
X253772Y4064D01*
X253772Y20553D01*
X253847Y20628D01*
X263953Y20628D01*
X264028Y20553D01*
X264028Y4064D01*
X264043Y3946D01*
X264050Y3827D01*
X264063Y3789D01*
X264068Y3748D01*
X264111Y3638D01*
X264148Y3525D01*
X264170Y3490D01*
X264185Y3453D01*
X264254Y3357D01*
X264318Y3256D01*
X264348Y3228D01*
X264371Y3195D01*
X264463Y3119D01*
X264550Y3038D01*
X264585Y3018D01*
X264616Y2993D01*
X264724Y2942D01*
X264828Y2884D01*
X264868Y2874D01*
X264904Y2857D01*
X265021Y2835D01*
X265136Y2805D01*
X265196Y2801D01*
X265216Y2797D01*
X265237Y2799D01*
X265297Y2795D01*
X293503Y2795D01*
X293621Y2810D01*
X293740Y2817D01*
X293778Y2830D01*
X293819Y2835D01*
X293929Y2878D01*
X294042Y2915D01*
X294077Y2937D01*
X294114Y2952D01*
X294210Y3021D01*
X294311Y3085D01*
X294339Y3115D01*
X294372Y3138D01*
X294448Y3230D01*
X294529Y3317D01*
X294549Y3352D01*
X294574Y3383D01*
X294625Y3491D01*
X294683Y3595D01*
X294693Y3635D01*
X294710Y3671D01*
X294732Y3788D01*
X294762Y3903D01*
X294766Y3963D01*
X294770Y3983D01*
X294768Y4004D01*
X294772Y4064D01*
X294772Y20553D01*
X294847Y20628D01*
X304953Y20628D01*
X305028Y20553D01*
X305028Y4064D01*
X305043Y3946D01*
X305050Y3827D01*
X305063Y3789D01*
X305068Y3748D01*
X305111Y3638D01*
X305148Y3525D01*
X305170Y3490D01*
X305185Y3453D01*
X305254Y3357D01*
X305318Y3256D01*
X305348Y3228D01*
X305371Y3195D01*
X305463Y3119D01*
X305550Y3038D01*
X305585Y3018D01*
X305616Y2993D01*
X305724Y2942D01*
X305828Y2884D01*
X305868Y2874D01*
X305904Y2857D01*
X306021Y2835D01*
X306136Y2805D01*
X306196Y2801D01*
X306216Y2797D01*
X306237Y2799D01*
X306297Y2795D01*
X379503Y2795D01*
X379621Y2810D01*
X379740Y2817D01*
X379778Y2830D01*
X379819Y2835D01*
X379929Y2878D01*
X380042Y2915D01*
X380077Y2937D01*
X380114Y2952D01*
X380210Y3021D01*
X380311Y3085D01*
X380339Y3115D01*
X380372Y3138D01*
X380448Y3230D01*
X380529Y3317D01*
X380549Y3352D01*
X380574Y3383D01*
X380625Y3491D01*
X380683Y3595D01*
X380693Y3635D01*
X380710Y3671D01*
X380732Y3788D01*
X380762Y3903D01*
X380766Y3963D01*
X380770Y3983D01*
X380768Y4004D01*
X380772Y4064D01*
X380772Y20553D01*
X380847Y20628D01*
X390953Y20628D01*
X391028Y20553D01*
X391028Y4064D01*
X391043Y3946D01*
X391050Y3827D01*
X391063Y3789D01*
X391068Y3748D01*
X391111Y3638D01*
X391148Y3525D01*
X391170Y3490D01*
X391185Y3453D01*
X391254Y3357D01*
X391318Y3256D01*
X391348Y3228D01*
X391371Y3195D01*
X391463Y3119D01*
X391550Y3038D01*
X391585Y3018D01*
X391616Y2993D01*
X391724Y2942D01*
X391828Y2884D01*
X391868Y2874D01*
X391904Y2857D01*
X392021Y2835D01*
X392136Y2805D01*
X392196Y2801D01*
X392216Y2797D01*
X392237Y2799D01*
X392297Y2795D01*
X506317Y2795D01*
X506415Y2807D01*
X506514Y2810D01*
X506572Y2827D01*
X506632Y2835D01*
X506724Y2871D01*
X506819Y2899D01*
X506872Y2929D01*
X506928Y2952D01*
X507008Y3010D01*
X507093Y3060D01*
X507169Y3126D01*
X507185Y3138D01*
X507193Y3148D01*
X507214Y3166D01*
X530234Y26186D01*
X530294Y26264D01*
X530362Y26336D01*
X530391Y26389D01*
X530428Y26437D01*
X530468Y26528D01*
X530516Y26615D01*
X530531Y26673D01*
X530555Y26729D01*
X530570Y26827D01*
X530595Y26923D01*
X530601Y27023D01*
X530605Y27043D01*
X530603Y27055D01*
X530605Y27083D01*
X530605Y504190D01*
X530590Y504308D01*
X530583Y504427D01*
X530570Y504465D01*
X530565Y504506D01*
X530522Y504616D01*
X530485Y504729D01*
X530463Y504764D01*
X530448Y504801D01*
X530379Y504897D01*
X530315Y504998D01*
X530285Y505026D01*
X530262Y505059D01*
X530170Y505135D01*
X530083Y505216D01*
X530048Y505236D01*
X530017Y505261D01*
X529909Y505312D01*
X529805Y505370D01*
X529765Y505380D01*
X529729Y505397D01*
X529612Y505419D01*
X529497Y505449D01*
X529437Y505453D01*
X529417Y505457D01*
X529396Y505455D01*
X529336Y505459D01*
X513087Y505459D01*
X513018Y505451D01*
X512948Y505452D01*
X512861Y505431D01*
X512771Y505419D01*
X512706Y505394D01*
X512639Y505377D01*
X512559Y505335D01*
X512476Y505302D01*
X512419Y505261D01*
X512358Y505229D01*
X512291Y505168D01*
X512218Y505116D01*
X512174Y505062D01*
X512122Y505015D01*
X512073Y504940D01*
X512016Y504871D01*
X511986Y504807D01*
X511947Y504749D01*
X511918Y504664D01*
X511880Y504583D01*
X511867Y504514D01*
X511844Y504448D01*
X511837Y504359D01*
X511820Y504271D01*
X511825Y504201D01*
X511819Y504131D01*
X511834Y504043D01*
X511840Y503953D01*
X511861Y503887D01*
X511873Y503818D01*
X511910Y503736D01*
X511938Y503651D01*
X511975Y503592D01*
X512004Y503528D01*
X512060Y503458D01*
X512108Y503382D01*
X512159Y503334D01*
X512203Y503280D01*
X512274Y503225D01*
X512340Y503164D01*
X512401Y503130D01*
X512457Y503088D01*
X512601Y503017D01*
X513036Y502837D01*
X515537Y500336D01*
X516891Y497069D01*
X516891Y493531D01*
X515537Y490264D01*
X513036Y487763D01*
X509769Y486409D01*
X506231Y486409D01*
X502964Y487763D01*
X500463Y490264D01*
X499109Y493531D01*
X499109Y497069D01*
X500463Y500336D01*
X502964Y502837D01*
X503399Y503017D01*
X503459Y503052D01*
X503524Y503078D01*
X503597Y503130D01*
X503675Y503175D01*
X503725Y503223D01*
X503782Y503264D01*
X503839Y503334D01*
X503903Y503396D01*
X503940Y503456D01*
X503984Y503509D01*
X504023Y503591D01*
X504070Y503667D01*
X504090Y503734D01*
X504120Y503797D01*
X504137Y503885D01*
X504163Y503971D01*
X504167Y504041D01*
X504180Y504110D01*
X504174Y504199D01*
X504178Y504289D01*
X504164Y504357D01*
X504160Y504427D01*
X504132Y504512D01*
X504114Y504600D01*
X504083Y504663D01*
X504062Y504729D01*
X504014Y504805D01*
X503974Y504886D01*
X503929Y504939D01*
X503892Y504998D01*
X503826Y505060D01*
X503768Y505128D01*
X503711Y505168D01*
X503660Y505216D01*
X503582Y505259D01*
X503508Y505311D01*
X503443Y505336D01*
X503382Y505370D01*
X503295Y505392D01*
X503211Y505424D01*
X503141Y505432D01*
X503074Y505449D01*
X502913Y505459D01*
X347987Y505459D01*
X347918Y505451D01*
X347848Y505452D01*
X347761Y505431D01*
X347671Y505419D01*
X347606Y505394D01*
X347539Y505377D01*
X347459Y505335D01*
X347376Y505302D01*
X347319Y505261D01*
X347258Y505229D01*
X347191Y505168D01*
X347118Y505116D01*
X347074Y505062D01*
X347022Y505015D01*
X346973Y504940D01*
X346916Y504871D01*
X346886Y504807D01*
X346847Y504749D01*
X346818Y504664D01*
X346780Y504583D01*
X346767Y504514D01*
X346744Y504448D01*
X346737Y504359D01*
X346720Y504271D01*
X346725Y504201D01*
X346719Y504131D01*
X346734Y504043D01*
X346740Y503953D01*
X346761Y503887D01*
X346773Y503818D01*
X346810Y503736D01*
X346838Y503651D01*
X346875Y503592D01*
X346904Y503528D01*
X346960Y503458D01*
X347008Y503382D01*
X347059Y503334D01*
X347103Y503280D01*
X347174Y503225D01*
X347240Y503164D01*
X347301Y503130D01*
X347357Y503088D01*
X347501Y503017D01*
X347936Y502837D01*
X350437Y500336D01*
X351791Y497069D01*
X351791Y493531D01*
X350437Y490264D01*
X347936Y487763D01*
X344669Y486409D01*
X341131Y486409D01*
X337864Y487763D01*
X335363Y490264D01*
X334009Y493531D01*
X334009Y497069D01*
X335363Y500336D01*
X337864Y502837D01*
X338299Y503017D01*
X338359Y503052D01*
X338424Y503078D01*
X338497Y503130D01*
X338575Y503175D01*
X338625Y503223D01*
X338682Y503264D01*
X338739Y503334D01*
X338803Y503396D01*
X338840Y503456D01*
X338884Y503509D01*
X338923Y503591D01*
X338970Y503667D01*
X338990Y503734D01*
X339020Y503797D01*
X339037Y503885D01*
X339063Y503971D01*
X339067Y504041D01*
X339080Y504110D01*
X339074Y504199D01*
X339078Y504289D01*
X339064Y504357D01*
X339060Y504427D01*
X339032Y504512D01*
X339014Y504600D01*
X338983Y504663D01*
X338962Y504729D01*
X338914Y504805D01*
X338874Y504886D01*
X338829Y504939D01*
X338792Y504998D01*
X338726Y505060D01*
X338668Y505128D01*
X338611Y505168D01*
X338560Y505216D01*
X338482Y505259D01*
X338408Y505311D01*
X338343Y505336D01*
X338282Y505370D01*
X338195Y505392D01*
X338111Y505424D01*
X338041Y505432D01*
X337974Y505449D01*
X337813Y505459D01*
X220987Y505459D01*
X220918Y505451D01*
X220848Y505452D01*
X220761Y505431D01*
X220671Y505419D01*
X220606Y505394D01*
X220539Y505377D01*
X220459Y505335D01*
X220376Y505302D01*
X220319Y505261D01*
X220258Y505229D01*
X220191Y505168D01*
X220118Y505116D01*
X220074Y505062D01*
X220022Y505015D01*
X219973Y504940D01*
X219916Y504871D01*
X219886Y504807D01*
X219847Y504749D01*
X219818Y504664D01*
X219780Y504583D01*
X219767Y504514D01*
X219744Y504448D01*
X219737Y504359D01*
X219720Y504271D01*
X219725Y504201D01*
X219719Y504131D01*
X219734Y504043D01*
X219740Y503953D01*
X219761Y503887D01*
X219773Y503818D01*
X219810Y503736D01*
X219838Y503651D01*
X219875Y503592D01*
X219904Y503528D01*
X219960Y503458D01*
X220008Y503382D01*
X220059Y503334D01*
X220103Y503280D01*
X220174Y503225D01*
X220240Y503164D01*
X220301Y503130D01*
X220357Y503088D01*
X220501Y503017D01*
X220936Y502837D01*
X223437Y500336D01*
X224791Y497069D01*
X224791Y493531D01*
X223437Y490264D01*
X220936Y487763D01*
X217669Y486409D01*
X214131Y486409D01*
X210864Y487763D01*
X208363Y490264D01*
X207009Y493531D01*
X207009Y497069D01*
X208363Y500336D01*
X210864Y502837D01*
X211299Y503017D01*
X211359Y503052D01*
X211424Y503078D01*
X211497Y503130D01*
X211575Y503175D01*
X211625Y503223D01*
X211682Y503264D01*
X211739Y503334D01*
X211803Y503396D01*
X211840Y503456D01*
X211884Y503509D01*
X211923Y503591D01*
X211970Y503667D01*
X211990Y503734D01*
X212020Y503797D01*
X212037Y503885D01*
X212063Y503971D01*
X212067Y504041D01*
X212080Y504110D01*
X212074Y504199D01*
X212078Y504289D01*
X212064Y504357D01*
X212060Y504427D01*
X212032Y504512D01*
X212014Y504600D01*
X211983Y504663D01*
X211962Y504729D01*
X211914Y504805D01*
X211874Y504886D01*
X211829Y504939D01*
X211792Y504998D01*
X211726Y505060D01*
X211668Y505128D01*
X211611Y505168D01*
X211560Y505216D01*
X211482Y505259D01*
X211408Y505311D01*
X211343Y505336D01*
X211282Y505370D01*
X211195Y505392D01*
X211111Y505424D01*
X211041Y505432D01*
X210974Y505449D01*
X210813Y505459D01*
X30487Y505459D01*
X30418Y505451D01*
X30348Y505452D01*
X30261Y505431D01*
X30171Y505419D01*
X30106Y505394D01*
X30039Y505377D01*
X29959Y505335D01*
X29876Y505302D01*
X29819Y505261D01*
X29758Y505229D01*
X29691Y505168D01*
X29618Y505116D01*
X29574Y505062D01*
X29522Y505015D01*
X29473Y504940D01*
X29416Y504871D01*
X29386Y504807D01*
X29347Y504749D01*
X29318Y504664D01*
X29280Y504583D01*
X29267Y504514D01*
X29244Y504448D01*
X29237Y504359D01*
X29220Y504271D01*
X29225Y504201D01*
X29219Y504131D01*
X29234Y504043D01*
X29240Y503953D01*
X29261Y503887D01*
X29273Y503818D01*
X29310Y503736D01*
X29338Y503651D01*
X29375Y503592D01*
X29404Y503528D01*
X29460Y503458D01*
X29508Y503382D01*
X29559Y503334D01*
X29603Y503280D01*
X29674Y503225D01*
X29740Y503164D01*
X29801Y503130D01*
X29857Y503088D01*
X30001Y503017D01*
X30436Y502837D01*
X32937Y500336D01*
X34291Y497069D01*
X34291Y493531D01*
X32937Y490264D01*
X30436Y487763D01*
X27169Y486409D01*
X23631Y486409D01*
X20364Y487763D01*
X17863Y490264D01*
X16509Y493531D01*
X16509Y497069D01*
X17863Y500336D01*
X20364Y502837D01*
X20799Y503017D01*
X20859Y503052D01*
X20924Y503078D01*
X20997Y503130D01*
X21075Y503175D01*
X21125Y503223D01*
X21182Y503264D01*
X21239Y503334D01*
X21303Y503396D01*
X21340Y503456D01*
X21384Y503509D01*
X21423Y503591D01*
X21470Y503667D01*
X21490Y503734D01*
X21520Y503797D01*
X21537Y503885D01*
X21563Y503971D01*
X21567Y504041D01*
X21580Y504110D01*
X21574Y504199D01*
X21578Y504289D01*
X21564Y504357D01*
X21560Y504427D01*
X21532Y504512D01*
X21514Y504600D01*
X21483Y504663D01*
X21462Y504729D01*
X21414Y504805D01*
X21374Y504886D01*
X21329Y504939D01*
X21292Y504998D01*
X21226Y505060D01*
X21168Y505128D01*
X21111Y505168D01*
X21060Y505216D01*
X20982Y505259D01*
X20908Y505311D01*
X20843Y505336D01*
X20782Y505370D01*
X20695Y505392D01*
X20611Y505424D01*
X20541Y505432D01*
X20474Y505449D01*
X20313Y505459D01*
X4064Y505459D01*
X3946Y505444D01*
X3827Y505437D01*
X3789Y505424D01*
X3748Y505419D01*
X3638Y505376D01*
X3525Y505339D01*
X3490Y505317D01*
X3453Y505302D01*
X3357Y505233D01*
X3256Y505169D01*
X3228Y505139D01*
X3195Y505116D01*
X3119Y505024D01*
X3038Y504937D01*
X3018Y504902D01*
X2993Y504871D01*
X2942Y504763D01*
X2884Y504659D01*
X2874Y504619D01*
X2857Y504583D01*
X2835Y504466D01*
X2805Y504351D01*
X2801Y504291D01*
X2797Y504271D01*
X2799Y504250D01*
X2795Y504190D01*
X2795Y27083D01*
X2807Y26985D01*
X2810Y26886D01*
X2827Y26828D01*
X2835Y26768D01*
X2871Y26676D01*
X2899Y26581D01*
X2929Y26528D01*
X2952Y26472D01*
X3010Y26392D01*
X3060Y26307D01*
X3126Y26231D01*
X3138Y26215D01*
X3148Y26207D01*
X3166Y26186D01*
X26186Y3166D01*
X26264Y3106D01*
X26336Y3038D01*
X26389Y3009D01*
X26437Y2972D01*
X26528Y2932D01*
X26615Y2884D01*
X26673Y2869D01*
X26729Y2845D01*
X26827Y2830D01*
X26923Y2805D01*
X27023Y2799D01*
X27043Y2795D01*
X27055Y2797D01*
X27083Y2795D01*
X166503Y2795D01*
X166621Y2810D01*
G37*
%LPC*%
G36*
X214131Y283209D02*
X214131Y283209D01*
X210864Y284563D01*
X208363Y287064D01*
X207009Y290331D01*
X207009Y293869D01*
X208363Y297136D01*
X210864Y299637D01*
X214131Y300991D01*
X217669Y300991D01*
X220936Y299637D01*
X223437Y297136D01*
X224791Y293869D01*
X224791Y290331D01*
X223437Y287064D01*
X220936Y284563D01*
X217669Y283209D01*
X214131Y283209D01*
G37*
%LPD*%
%LPC*%
G36*
X506231Y461009D02*
X506231Y461009D01*
X502964Y462363D01*
X500463Y464864D01*
X499109Y468131D01*
X499109Y471669D01*
X500463Y474936D01*
X502964Y477437D01*
X506231Y478791D01*
X509769Y478791D01*
X513036Y477437D01*
X515537Y474936D01*
X516891Y471669D01*
X516891Y468131D01*
X515537Y464864D01*
X513036Y462363D01*
X509769Y461009D01*
X506231Y461009D01*
G37*
%LPD*%
%LPC*%
G36*
X341131Y461009D02*
X341131Y461009D01*
X337864Y462363D01*
X335363Y464864D01*
X334009Y468131D01*
X334009Y471669D01*
X335363Y474936D01*
X337864Y477437D01*
X341131Y478791D01*
X344669Y478791D01*
X347936Y477437D01*
X350437Y474936D01*
X351791Y471669D01*
X351791Y468131D01*
X350437Y464864D01*
X347936Y462363D01*
X344669Y461009D01*
X341131Y461009D01*
G37*
%LPD*%
%LPC*%
G36*
X214131Y461009D02*
X214131Y461009D01*
X210864Y462363D01*
X208363Y464864D01*
X207009Y468131D01*
X207009Y471669D01*
X208363Y474936D01*
X210864Y477437D01*
X214131Y478791D01*
X217669Y478791D01*
X220936Y477437D01*
X223437Y474936D01*
X224791Y471669D01*
X224791Y468131D01*
X223437Y464864D01*
X220936Y462363D01*
X217669Y461009D01*
X214131Y461009D01*
G37*
%LPD*%
%LPC*%
G36*
X23631Y461009D02*
X23631Y461009D01*
X20364Y462363D01*
X17863Y464864D01*
X16509Y468131D01*
X16509Y471669D01*
X17863Y474936D01*
X20364Y477437D01*
X23631Y478791D01*
X27169Y478791D01*
X30436Y477437D01*
X32937Y474936D01*
X34291Y471669D01*
X34291Y468131D01*
X32937Y464864D01*
X30436Y462363D01*
X27169Y461009D01*
X23631Y461009D01*
G37*
%LPD*%
%LPC*%
G36*
X506231Y181609D02*
X506231Y181609D01*
X502964Y182963D01*
X500463Y185464D01*
X499109Y188731D01*
X499109Y192269D01*
X500463Y195536D01*
X502964Y198037D01*
X506231Y199391D01*
X509769Y199391D01*
X513036Y198037D01*
X515537Y195536D01*
X516891Y192269D01*
X516891Y188731D01*
X515537Y185464D01*
X513036Y182963D01*
X509769Y181609D01*
X506231Y181609D01*
G37*
%LPD*%
%LPC*%
G36*
X214131Y435609D02*
X214131Y435609D01*
X210864Y436963D01*
X208363Y439464D01*
X207009Y442731D01*
X207009Y446269D01*
X208363Y449536D01*
X210864Y452037D01*
X214131Y453391D01*
X217669Y453391D01*
X220936Y452037D01*
X223437Y449536D01*
X224791Y446269D01*
X224791Y442731D01*
X223437Y439464D01*
X220936Y436963D01*
X217669Y435609D01*
X214131Y435609D01*
G37*
%LPD*%
%LPC*%
G36*
X23631Y435609D02*
X23631Y435609D01*
X20364Y436963D01*
X17863Y439464D01*
X16509Y442731D01*
X16509Y446269D01*
X17863Y449536D01*
X20364Y452037D01*
X23631Y453391D01*
X27169Y453391D01*
X30436Y452037D01*
X32937Y449536D01*
X34291Y446269D01*
X34291Y442731D01*
X32937Y439464D01*
X30436Y436963D01*
X27169Y435609D01*
X23631Y435609D01*
G37*
%LPD*%
%LPC*%
G36*
X506231Y435609D02*
X506231Y435609D01*
X502964Y436963D01*
X500463Y439464D01*
X499109Y442731D01*
X499109Y446269D01*
X500463Y449536D01*
X502964Y452037D01*
X506231Y453391D01*
X509769Y453391D01*
X513036Y452037D01*
X515537Y449536D01*
X516891Y446269D01*
X516891Y442731D01*
X515537Y439464D01*
X513036Y436963D01*
X509769Y435609D01*
X506231Y435609D01*
G37*
%LPD*%
%LPC*%
G36*
X341131Y435609D02*
X341131Y435609D01*
X337864Y436963D01*
X335363Y439464D01*
X334009Y442731D01*
X334009Y446269D01*
X335363Y449536D01*
X337864Y452037D01*
X341131Y453391D01*
X344669Y453391D01*
X347936Y452037D01*
X350437Y449536D01*
X351791Y446269D01*
X351791Y442731D01*
X350437Y439464D01*
X347936Y436963D01*
X344669Y435609D01*
X341131Y435609D01*
G37*
%LPD*%
%LPC*%
G36*
X23631Y143509D02*
X23631Y143509D01*
X20364Y144863D01*
X17863Y147364D01*
X16509Y150631D01*
X16509Y154169D01*
X17863Y157436D01*
X20364Y159937D01*
X23631Y161291D01*
X27169Y161291D01*
X30436Y159937D01*
X32937Y157436D01*
X34291Y154169D01*
X34291Y150631D01*
X32937Y147364D01*
X30436Y144863D01*
X27169Y143509D01*
X23631Y143509D01*
G37*
%LPD*%
%LPC*%
G36*
X23631Y270509D02*
X23631Y270509D01*
X20364Y271863D01*
X17863Y274364D01*
X16509Y277631D01*
X16509Y281169D01*
X17863Y284436D01*
X20364Y286937D01*
X23631Y288291D01*
X27169Y288291D01*
X30436Y286937D01*
X32937Y284436D01*
X34291Y281169D01*
X34291Y277631D01*
X32937Y274364D01*
X30436Y271863D01*
X27169Y270509D01*
X23631Y270509D01*
G37*
%LPD*%
%LPC*%
G36*
X23631Y118109D02*
X23631Y118109D01*
X20364Y119463D01*
X17863Y121964D01*
X16509Y125231D01*
X16509Y128769D01*
X17863Y132036D01*
X20364Y134537D01*
X23631Y135891D01*
X27169Y135891D01*
X30436Y134537D01*
X32937Y132036D01*
X34291Y128769D01*
X34291Y125231D01*
X32937Y121964D01*
X30436Y119463D01*
X27169Y118109D01*
X23631Y118109D01*
G37*
%LPD*%
%LPC*%
G36*
X214131Y410209D02*
X214131Y410209D01*
X210864Y411563D01*
X208363Y414064D01*
X207009Y417331D01*
X207009Y420869D01*
X208363Y424136D01*
X210864Y426637D01*
X214131Y427991D01*
X217669Y427991D01*
X220936Y426637D01*
X223437Y424136D01*
X224791Y420869D01*
X224791Y417331D01*
X223437Y414064D01*
X220936Y411563D01*
X217669Y410209D01*
X214131Y410209D01*
G37*
%LPD*%
%LPC*%
G36*
X23631Y410209D02*
X23631Y410209D01*
X20364Y411563D01*
X17863Y414064D01*
X16509Y417331D01*
X16509Y420869D01*
X17863Y424136D01*
X20364Y426637D01*
X23631Y427991D01*
X27169Y427991D01*
X30436Y426637D01*
X32937Y424136D01*
X34291Y420869D01*
X34291Y417331D01*
X32937Y414064D01*
X30436Y411563D01*
X27169Y410209D01*
X23631Y410209D01*
G37*
%LPD*%
%LPC*%
G36*
X506231Y410209D02*
X506231Y410209D01*
X502964Y411563D01*
X500463Y414064D01*
X499109Y417331D01*
X499109Y420869D01*
X500463Y424136D01*
X502964Y426637D01*
X506231Y427991D01*
X509769Y427991D01*
X513036Y426637D01*
X515537Y424136D01*
X516891Y420869D01*
X516891Y417331D01*
X515537Y414064D01*
X513036Y411563D01*
X509769Y410209D01*
X506231Y410209D01*
G37*
%LPD*%
%LPC*%
G36*
X341131Y410209D02*
X341131Y410209D01*
X337864Y411563D01*
X335363Y414064D01*
X334009Y417331D01*
X334009Y420869D01*
X335363Y424136D01*
X337864Y426637D01*
X341131Y427991D01*
X344669Y427991D01*
X347936Y426637D01*
X350437Y424136D01*
X351791Y420869D01*
X351791Y417331D01*
X350437Y414064D01*
X347936Y411563D01*
X344669Y410209D01*
X341131Y410209D01*
G37*
%LPD*%
%LPC*%
G36*
X23631Y321309D02*
X23631Y321309D01*
X20364Y322663D01*
X17863Y325164D01*
X16509Y328431D01*
X16509Y331969D01*
X17863Y335236D01*
X20364Y337737D01*
X23631Y339091D01*
X27169Y339091D01*
X30436Y337737D01*
X32937Y335236D01*
X34291Y331969D01*
X34291Y328431D01*
X32937Y325164D01*
X30436Y322663D01*
X27169Y321309D01*
X23631Y321309D01*
G37*
%LPD*%
%LPC*%
G36*
X23631Y92709D02*
X23631Y92709D01*
X20364Y94063D01*
X17863Y96564D01*
X16509Y99831D01*
X16509Y103369D01*
X17863Y106636D01*
X20364Y109137D01*
X23631Y110491D01*
X27169Y110491D01*
X30436Y109137D01*
X32937Y106636D01*
X34291Y103369D01*
X34291Y99831D01*
X32937Y96564D01*
X30436Y94063D01*
X27169Y92709D01*
X23631Y92709D01*
G37*
%LPD*%
%LPC*%
G36*
X341131Y384809D02*
X341131Y384809D01*
X337864Y386163D01*
X335363Y388664D01*
X334009Y391931D01*
X334009Y395469D01*
X335363Y398736D01*
X337864Y401237D01*
X341131Y402591D01*
X344669Y402591D01*
X347936Y401237D01*
X350437Y398736D01*
X351791Y395469D01*
X351791Y391931D01*
X350437Y388664D01*
X347936Y386163D01*
X344669Y384809D01*
X341131Y384809D01*
G37*
%LPD*%
%LPC*%
G36*
X214131Y384809D02*
X214131Y384809D01*
X210864Y386163D01*
X208363Y388664D01*
X207009Y391931D01*
X207009Y395469D01*
X208363Y398736D01*
X210864Y401237D01*
X214131Y402591D01*
X217669Y402591D01*
X220936Y401237D01*
X223437Y398736D01*
X224791Y395469D01*
X224791Y391931D01*
X223437Y388664D01*
X220936Y386163D01*
X217669Y384809D01*
X214131Y384809D01*
G37*
%LPD*%
%LPC*%
G36*
X23631Y384809D02*
X23631Y384809D01*
X20364Y386163D01*
X17863Y388664D01*
X16509Y391931D01*
X16509Y395469D01*
X17863Y398736D01*
X20364Y401237D01*
X23631Y402591D01*
X27169Y402591D01*
X30436Y401237D01*
X32937Y398736D01*
X34291Y395469D01*
X34291Y391931D01*
X32937Y388664D01*
X30436Y386163D01*
X27169Y384809D01*
X23631Y384809D01*
G37*
%LPD*%
%LPC*%
G36*
X23631Y219709D02*
X23631Y219709D01*
X20364Y221063D01*
X17863Y223564D01*
X16509Y226831D01*
X16509Y230369D01*
X17863Y233636D01*
X20364Y236137D01*
X23631Y237491D01*
X27169Y237491D01*
X30436Y236137D01*
X32937Y233636D01*
X34291Y230369D01*
X34291Y226831D01*
X32937Y223564D01*
X30436Y221063D01*
X27169Y219709D01*
X23631Y219709D01*
G37*
%LPD*%
%LPC*%
G36*
X341131Y308609D02*
X341131Y308609D01*
X337864Y309963D01*
X335363Y312464D01*
X334009Y315731D01*
X334009Y319269D01*
X335363Y322536D01*
X337864Y325037D01*
X341131Y326391D01*
X344669Y326391D01*
X347936Y325037D01*
X350437Y322536D01*
X351791Y319269D01*
X351791Y315731D01*
X350437Y312464D01*
X347936Y309963D01*
X344669Y308609D01*
X341131Y308609D01*
G37*
%LPD*%
%LPC*%
G36*
X214131Y308609D02*
X214131Y308609D01*
X210864Y309963D01*
X208363Y312464D01*
X207009Y315731D01*
X207009Y319269D01*
X208363Y322536D01*
X210864Y325037D01*
X214131Y326391D01*
X217669Y326391D01*
X220936Y325037D01*
X223437Y322536D01*
X224791Y319269D01*
X224791Y315731D01*
X223437Y312464D01*
X220936Y309963D01*
X217669Y308609D01*
X214131Y308609D01*
G37*
%LPD*%
%LPC*%
G36*
X506231Y257809D02*
X506231Y257809D01*
X502964Y259163D01*
X500463Y261664D01*
X499109Y264931D01*
X499109Y268469D01*
X500463Y271736D01*
X502964Y274237D01*
X506231Y275591D01*
X509769Y275591D01*
X513036Y274237D01*
X515537Y271736D01*
X516891Y268469D01*
X516891Y264931D01*
X515537Y261664D01*
X513036Y259163D01*
X509769Y257809D01*
X506231Y257809D01*
G37*
%LPD*%
%LPC*%
G36*
X506231Y359409D02*
X506231Y359409D01*
X502964Y360763D01*
X500463Y363264D01*
X499109Y366531D01*
X499109Y370069D01*
X500463Y373336D01*
X502964Y375837D01*
X506231Y377191D01*
X509769Y377191D01*
X513036Y375837D01*
X515537Y373336D01*
X516891Y370069D01*
X516891Y366531D01*
X515537Y363264D01*
X513036Y360763D01*
X509769Y359409D01*
X506231Y359409D01*
G37*
%LPD*%
%LPC*%
G36*
X341131Y359409D02*
X341131Y359409D01*
X337864Y360763D01*
X335363Y363264D01*
X334009Y366531D01*
X334009Y370069D01*
X335363Y373336D01*
X337864Y375837D01*
X341131Y377191D01*
X344669Y377191D01*
X347936Y375837D01*
X350437Y373336D01*
X351791Y370069D01*
X351791Y366531D01*
X350437Y363264D01*
X347936Y360763D01*
X344669Y359409D01*
X341131Y359409D01*
G37*
%LPD*%
%LPC*%
G36*
X214131Y359409D02*
X214131Y359409D01*
X210864Y360763D01*
X208363Y363264D01*
X207009Y366531D01*
X207009Y370069D01*
X208363Y373336D01*
X210864Y375837D01*
X214131Y377191D01*
X217669Y377191D01*
X220936Y375837D01*
X223437Y373336D01*
X224791Y370069D01*
X224791Y366531D01*
X223437Y363264D01*
X220936Y360763D01*
X217669Y359409D01*
X214131Y359409D01*
G37*
%LPD*%
%LPC*%
G36*
X23631Y359409D02*
X23631Y359409D01*
X20364Y360763D01*
X17863Y363264D01*
X16509Y366531D01*
X16509Y370069D01*
X17863Y373336D01*
X20364Y375837D01*
X23631Y377191D01*
X27169Y377191D01*
X30436Y375837D01*
X32937Y373336D01*
X34291Y370069D01*
X34291Y366531D01*
X32937Y363264D01*
X30436Y360763D01*
X27169Y359409D01*
X23631Y359409D01*
G37*
%LPD*%
%LPC*%
G36*
X341131Y257809D02*
X341131Y257809D01*
X337864Y259163D01*
X335363Y261664D01*
X334009Y264931D01*
X334009Y268469D01*
X335363Y271736D01*
X337864Y274237D01*
X341131Y275591D01*
X344669Y275591D01*
X347936Y274237D01*
X350437Y271736D01*
X351791Y268469D01*
X351791Y264931D01*
X350437Y261664D01*
X347936Y259163D01*
X344669Y257809D01*
X341131Y257809D01*
G37*
%LPD*%
%LPC*%
G36*
X23631Y245109D02*
X23631Y245109D01*
X20364Y246463D01*
X17863Y248964D01*
X16509Y252231D01*
X16509Y255769D01*
X17863Y259036D01*
X20364Y261537D01*
X23631Y262891D01*
X27169Y262891D01*
X30436Y261537D01*
X32937Y259036D01*
X34291Y255769D01*
X34291Y252231D01*
X32937Y248964D01*
X30436Y246463D01*
X27169Y245109D01*
X23631Y245109D01*
G37*
%LPD*%
%LPC*%
G36*
X506231Y232409D02*
X506231Y232409D01*
X502964Y233763D01*
X500463Y236264D01*
X499109Y239531D01*
X499109Y243069D01*
X500463Y246336D01*
X502964Y248837D01*
X506231Y250191D01*
X509769Y250191D01*
X513036Y248837D01*
X515537Y246336D01*
X516891Y243069D01*
X516891Y239531D01*
X515537Y236264D01*
X513036Y233763D01*
X509769Y232409D01*
X506231Y232409D01*
G37*
%LPD*%
%LPC*%
G36*
X506231Y207009D02*
X506231Y207009D01*
X502964Y208363D01*
X500463Y210864D01*
X499109Y214131D01*
X499109Y217669D01*
X500463Y220936D01*
X502964Y223437D01*
X506231Y224791D01*
X509769Y224791D01*
X513036Y223437D01*
X515537Y220936D01*
X516891Y217669D01*
X516891Y214131D01*
X515537Y210864D01*
X513036Y208363D01*
X509769Y207009D01*
X506231Y207009D01*
G37*
%LPD*%
%LPC*%
G36*
X23631Y295909D02*
X23631Y295909D01*
X20364Y297263D01*
X17863Y299764D01*
X16509Y303031D01*
X16509Y306569D01*
X17863Y309836D01*
X20364Y312337D01*
X23631Y313691D01*
X27169Y313691D01*
X30436Y312337D01*
X32937Y309836D01*
X34291Y306569D01*
X34291Y303031D01*
X32937Y299764D01*
X30436Y297263D01*
X27169Y295909D01*
X23631Y295909D01*
G37*
%LPD*%
%LPC*%
G36*
X23631Y194309D02*
X23631Y194309D01*
X20364Y195663D01*
X17863Y198164D01*
X16509Y201431D01*
X16509Y204969D01*
X17863Y208236D01*
X20364Y210737D01*
X23631Y212091D01*
X27169Y212091D01*
X30436Y210737D01*
X32937Y208236D01*
X34291Y204969D01*
X34291Y201431D01*
X32937Y198164D01*
X30436Y195663D01*
X27169Y194309D01*
X23631Y194309D01*
G37*
%LPD*%
%LPC*%
G36*
X506231Y283209D02*
X506231Y283209D01*
X502964Y284563D01*
X500463Y287064D01*
X499109Y290331D01*
X499109Y293869D01*
X500463Y297136D01*
X502964Y299637D01*
X506231Y300991D01*
X509769Y300991D01*
X513036Y299637D01*
X515537Y297136D01*
X516891Y293869D01*
X516891Y290331D01*
X515537Y287064D01*
X513036Y284563D01*
X509769Y283209D01*
X506231Y283209D01*
G37*
%LPD*%
%LPC*%
G36*
X341131Y283209D02*
X341131Y283209D01*
X337864Y284563D01*
X335363Y287064D01*
X334009Y290331D01*
X334009Y293869D01*
X335363Y297136D01*
X337864Y299637D01*
X341131Y300991D01*
X344669Y300991D01*
X347936Y299637D01*
X350437Y297136D01*
X351791Y293869D01*
X351791Y290331D01*
X350437Y287064D01*
X347936Y284563D01*
X344669Y283209D01*
X341131Y283209D01*
G37*
%LPD*%
%LPC*%
G36*
X341131Y334009D02*
X341131Y334009D01*
X337864Y335363D01*
X335363Y337864D01*
X334009Y341131D01*
X334009Y344669D01*
X335363Y347936D01*
X337864Y350437D01*
X341131Y351791D01*
X344669Y351791D01*
X347936Y350437D01*
X350437Y347936D01*
X351791Y344669D01*
X351791Y341131D01*
X350437Y337864D01*
X347936Y335363D01*
X344669Y334009D01*
X341131Y334009D01*
G37*
%LPD*%
%LPC*%
G36*
X214131Y334009D02*
X214131Y334009D01*
X210864Y335363D01*
X208363Y337864D01*
X207009Y341131D01*
X207009Y344669D01*
X208363Y347936D01*
X210864Y350437D01*
X214131Y351791D01*
X217669Y351791D01*
X220936Y350437D01*
X223437Y347936D01*
X224791Y344669D01*
X224791Y341131D01*
X223437Y337864D01*
X220936Y335363D01*
X217669Y334009D01*
X214131Y334009D01*
G37*
%LPD*%
%LPC*%
G36*
X167847Y43372D02*
X167847Y43372D01*
X167772Y43447D01*
X167772Y64553D01*
X167847Y64628D01*
X177953Y64628D01*
X178028Y64553D01*
X178028Y43447D01*
X177953Y43372D01*
X167847Y43372D01*
G37*
%LPD*%
%LPC*%
G36*
X253847Y43372D02*
X253847Y43372D01*
X253772Y43447D01*
X253772Y64553D01*
X253847Y64628D01*
X263953Y64628D01*
X264028Y64553D01*
X264028Y43447D01*
X263953Y43372D01*
X253847Y43372D01*
G37*
%LPD*%
%LPC*%
G36*
X294847Y43372D02*
X294847Y43372D01*
X294772Y43447D01*
X294772Y64553D01*
X294847Y64628D01*
X304953Y64628D01*
X305028Y64553D01*
X305028Y43447D01*
X304953Y43372D01*
X294847Y43372D01*
G37*
%LPD*%
%LPC*%
G36*
X380847Y43372D02*
X380847Y43372D01*
X380772Y43447D01*
X380772Y64553D01*
X380847Y64628D01*
X390953Y64628D01*
X391028Y64553D01*
X391028Y43447D01*
X390953Y43372D01*
X380847Y43372D01*
G37*
%LPD*%
%LPC*%
G36*
X77349Y424842D02*
X77349Y424842D01*
X76603Y425588D01*
X76586Y425601D01*
X76528Y425658D01*
X75733Y426333D01*
X75709Y426373D01*
X75709Y427428D01*
X75707Y427449D01*
X75705Y427530D01*
X75621Y428570D01*
X75632Y428615D01*
X76378Y429361D01*
X76391Y429378D01*
X76448Y429436D01*
X81081Y434887D01*
X81118Y434945D01*
X81164Y434996D01*
X81205Y435077D01*
X81255Y435153D01*
X81277Y435218D01*
X81308Y435280D01*
X81328Y435368D01*
X81357Y435454D01*
X81362Y435523D01*
X81377Y435590D01*
X81374Y435681D01*
X81381Y435771D01*
X81369Y435839D01*
X81367Y435908D01*
X81342Y435995D01*
X81326Y436085D01*
X81298Y436147D01*
X81278Y436213D01*
X81232Y436292D01*
X81195Y436374D01*
X81152Y436428D01*
X81116Y436487D01*
X81052Y436551D01*
X80995Y436622D01*
X80940Y436663D01*
X80891Y436712D01*
X80813Y436758D01*
X80741Y436813D01*
X80677Y436839D01*
X80618Y436874D01*
X80531Y436899D01*
X80447Y436934D01*
X80378Y436943D01*
X80312Y436963D01*
X80222Y436965D01*
X80132Y436978D01*
X80063Y436970D01*
X79994Y436973D01*
X79906Y436953D01*
X79816Y436943D01*
X79751Y436918D01*
X79684Y436903D01*
X79536Y436839D01*
X78606Y436364D01*
X76504Y437045D01*
X75499Y439013D01*
X75502Y439024D01*
X75839Y440065D01*
X76329Y441579D01*
X78457Y443945D01*
X81365Y445241D01*
X84675Y445241D01*
X87652Y443522D01*
X89370Y440545D01*
X89370Y437453D01*
X88288Y434928D01*
X87444Y434124D01*
X87433Y434110D01*
X87352Y434027D01*
X85923Y432346D01*
X85875Y432272D01*
X85819Y432205D01*
X85789Y432140D01*
X85749Y432080D01*
X85721Y431996D01*
X85684Y431917D01*
X85670Y431847D01*
X85647Y431779D01*
X85640Y431691D01*
X85624Y431604D01*
X85628Y431533D01*
X85623Y431462D01*
X85638Y431375D01*
X85644Y431287D01*
X85666Y431219D01*
X85678Y431148D01*
X85714Y431068D01*
X85742Y430985D01*
X85780Y430924D01*
X85809Y430859D01*
X85865Y430790D01*
X85912Y430716D01*
X85964Y430667D01*
X86009Y430611D01*
X86079Y430558D01*
X86143Y430498D01*
X86206Y430463D01*
X86263Y430420D01*
X86345Y430387D01*
X86422Y430344D01*
X86491Y430327D01*
X86557Y430299D01*
X86645Y430287D01*
X86730Y430265D01*
X86859Y430257D01*
X86872Y430255D01*
X86878Y430256D01*
X86890Y430255D01*
X87808Y430255D01*
X89370Y428692D01*
X89370Y426482D01*
X87808Y424919D01*
X78536Y424919D01*
X78515Y424917D01*
X78434Y424915D01*
X77394Y424831D01*
X77349Y424842D01*
G37*
%LPD*%
%LPC*%
G36*
X100401Y199471D02*
X100401Y199471D01*
X98185Y200389D01*
X96489Y202085D01*
X95571Y204301D01*
X95571Y206699D01*
X96489Y208915D01*
X98185Y210611D01*
X100401Y211529D01*
X102799Y211529D01*
X105015Y210611D01*
X106711Y208915D01*
X107629Y206699D01*
X107629Y204301D01*
X106711Y202085D01*
X105015Y200389D01*
X102799Y199471D01*
X100401Y199471D01*
G37*
%LPD*%
%LPC*%
G36*
X100401Y169471D02*
X100401Y169471D01*
X98185Y170389D01*
X96489Y172085D01*
X95571Y174301D01*
X95571Y176699D01*
X96489Y178915D01*
X98185Y180611D01*
X100401Y181529D01*
X102799Y181529D01*
X105015Y180611D01*
X106711Y178915D01*
X107629Y176699D01*
X107629Y174301D01*
X106711Y172085D01*
X105015Y170389D01*
X102799Y169471D01*
X100401Y169471D01*
G37*
%LPD*%
%LPC*%
G36*
X443451Y424560D02*
X443451Y424560D01*
X441206Y426805D01*
X441112Y426878D01*
X441023Y426957D01*
X440987Y426975D01*
X440955Y427000D01*
X440846Y427047D01*
X440740Y427101D01*
X440701Y427110D01*
X440663Y427126D01*
X440546Y427145D01*
X440430Y427171D01*
X440389Y427170D01*
X440349Y427176D01*
X440231Y427165D01*
X440112Y427161D01*
X440073Y427150D01*
X440033Y427146D01*
X439921Y427106D01*
X439806Y427073D01*
X439771Y427053D01*
X439733Y427039D01*
X439635Y426972D01*
X439532Y426911D01*
X439487Y426872D01*
X439470Y426860D01*
X439457Y426845D01*
X439411Y426805D01*
X438818Y426211D01*
X435450Y426211D01*
X433069Y428592D01*
X433069Y431960D01*
X435450Y434341D01*
X438818Y434341D01*
X441062Y432096D01*
X441157Y432023D01*
X441246Y431944D01*
X441282Y431926D01*
X441314Y431901D01*
X441423Y431854D01*
X441529Y431800D01*
X441568Y431791D01*
X441606Y431775D01*
X441723Y431756D01*
X441839Y431730D01*
X441880Y431731D01*
X441920Y431725D01*
X442038Y431736D01*
X442157Y431740D01*
X442196Y431751D01*
X442236Y431755D01*
X442349Y431795D01*
X442463Y431828D01*
X442497Y431848D01*
X442536Y431862D01*
X442634Y431929D01*
X442737Y431989D01*
X442782Y432029D01*
X442799Y432041D01*
X442812Y432056D01*
X442857Y432096D01*
X443451Y432690D01*
X446819Y432690D01*
X449200Y430309D01*
X449200Y426941D01*
X446819Y424560D01*
X443451Y424560D01*
G37*
%LPD*%
%LPC*%
G36*
X58006Y483615D02*
X58006Y483615D01*
X55625Y485996D01*
X55625Y489364D01*
X56600Y490339D01*
X56673Y490433D01*
X56752Y490522D01*
X56770Y490558D01*
X56795Y490590D01*
X56842Y490699D01*
X56896Y490805D01*
X56905Y490844D01*
X56921Y490882D01*
X56940Y490999D01*
X56966Y491115D01*
X56965Y491156D01*
X56971Y491196D01*
X56960Y491314D01*
X56956Y491433D01*
X56945Y491472D01*
X56941Y491512D01*
X56901Y491624D01*
X56868Y491739D01*
X56848Y491774D01*
X56834Y491812D01*
X56767Y491910D01*
X56706Y492013D01*
X56667Y492058D01*
X56655Y492075D01*
X56640Y492088D01*
X56600Y492134D01*
X55625Y493108D01*
X55625Y496476D01*
X58006Y498857D01*
X61374Y498857D01*
X63755Y496476D01*
X63755Y493108D01*
X62780Y492134D01*
X62707Y492039D01*
X62628Y491950D01*
X62610Y491914D01*
X62585Y491882D01*
X62538Y491773D01*
X62484Y491667D01*
X62475Y491628D01*
X62459Y491590D01*
X62440Y491473D01*
X62414Y491357D01*
X62415Y491316D01*
X62409Y491276D01*
X62420Y491158D01*
X62424Y491039D01*
X62435Y491000D01*
X62439Y490960D01*
X62479Y490847D01*
X62512Y490733D01*
X62532Y490699D01*
X62546Y490660D01*
X62613Y490562D01*
X62673Y490459D01*
X62713Y490414D01*
X62725Y490397D01*
X62740Y490384D01*
X62780Y490339D01*
X63755Y489364D01*
X63755Y485996D01*
X61374Y483615D01*
X58006Y483615D01*
G37*
%LPD*%
%LPC*%
G36*
X243800Y44021D02*
X243800Y44021D01*
X241951Y44787D01*
X240537Y46201D01*
X239771Y48050D01*
X239771Y50050D01*
X240537Y51899D01*
X241951Y53313D01*
X243800Y54079D01*
X245800Y54079D01*
X247649Y53313D01*
X249063Y51899D01*
X249829Y50050D01*
X249829Y48050D01*
X249063Y46201D01*
X247649Y44787D01*
X245800Y44021D01*
X243800Y44021D01*
G37*
%LPD*%
%LPC*%
G36*
X313000Y44021D02*
X313000Y44021D01*
X311151Y44787D01*
X309737Y46201D01*
X308971Y48050D01*
X308971Y50050D01*
X309737Y51899D01*
X311151Y53313D01*
X313000Y54079D01*
X315000Y54079D01*
X316849Y53313D01*
X318263Y51899D01*
X319029Y50050D01*
X319029Y48050D01*
X318263Y46201D01*
X316849Y44787D01*
X315000Y44021D01*
X313000Y44021D01*
G37*
%LPD*%
%LPC*%
G36*
X370800Y44021D02*
X370800Y44021D01*
X368951Y44787D01*
X367537Y46201D01*
X366771Y48050D01*
X366771Y50050D01*
X367537Y51899D01*
X368951Y53313D01*
X370800Y54079D01*
X372800Y54079D01*
X374649Y53313D01*
X376063Y51899D01*
X376829Y50050D01*
X376829Y48050D01*
X376063Y46201D01*
X374649Y44787D01*
X372800Y44021D01*
X370800Y44021D01*
G37*
%LPD*%
%LPC*%
G36*
X186000Y44021D02*
X186000Y44021D01*
X184151Y44787D01*
X182737Y46201D01*
X181971Y48050D01*
X181971Y50050D01*
X182737Y51899D01*
X184151Y53313D01*
X186000Y54079D01*
X188000Y54079D01*
X189849Y53313D01*
X191263Y51899D01*
X192029Y50050D01*
X192029Y48050D01*
X191263Y46201D01*
X189849Y44787D01*
X188000Y44021D01*
X186000Y44021D01*
G37*
%LPD*%
%LPC*%
G36*
X357726Y455675D02*
X357726Y455675D01*
X355345Y458056D01*
X355345Y461424D01*
X357726Y463805D01*
X361094Y463805D01*
X363475Y461424D01*
X363475Y458056D01*
X361094Y455675D01*
X357726Y455675D01*
G37*
%LPD*%
%LPC*%
G36*
X473042Y435101D02*
X473042Y435101D01*
X470661Y437482D01*
X470661Y440850D01*
X473042Y443231D01*
X476410Y443231D01*
X478791Y440850D01*
X478791Y437482D01*
X476410Y435101D01*
X473042Y435101D01*
G37*
%LPD*%
%LPC*%
G36*
X168496Y408035D02*
X168496Y408035D01*
X166115Y410416D01*
X166115Y413784D01*
X168496Y416165D01*
X171864Y416165D01*
X174245Y413784D01*
X174245Y410416D01*
X171864Y408035D01*
X168496Y408035D01*
G37*
%LPD*%
%LPC*%
G36*
X516222Y396747D02*
X516222Y396747D01*
X513841Y399128D01*
X513841Y402496D01*
X516222Y404877D01*
X519590Y404877D01*
X521971Y402496D01*
X521971Y399128D01*
X519590Y396747D01*
X516222Y396747D01*
G37*
%LPD*%
%LPC*%
G36*
X156050Y391921D02*
X156050Y391921D01*
X153669Y394302D01*
X153669Y397670D01*
X156050Y400051D01*
X159418Y400051D01*
X161799Y397670D01*
X161799Y394302D01*
X159418Y391921D01*
X156050Y391921D01*
G37*
%LPD*%
%LPC*%
G36*
X492346Y389889D02*
X492346Y389889D01*
X489965Y392270D01*
X489965Y395638D01*
X492346Y398019D01*
X495714Y398019D01*
X498095Y395638D01*
X498095Y392270D01*
X495714Y389889D01*
X492346Y389889D01*
G37*
%LPD*%
%LPC*%
G36*
X480916Y374261D02*
X480916Y374261D01*
X478535Y376642D01*
X478535Y380010D01*
X480916Y382391D01*
X484284Y382391D01*
X486665Y380010D01*
X486665Y376642D01*
X484284Y374261D01*
X480916Y374261D01*
G37*
%LPD*%
%LPC*%
G36*
X94074Y370331D02*
X94074Y370331D01*
X91693Y372712D01*
X91693Y376080D01*
X94074Y378461D01*
X97442Y378461D01*
X99823Y376080D01*
X99823Y372712D01*
X97442Y370331D01*
X94074Y370331D01*
G37*
%LPD*%
%LPC*%
G36*
X104996Y368045D02*
X104996Y368045D01*
X102615Y370426D01*
X102615Y373794D01*
X104996Y376175D01*
X108364Y376175D01*
X110745Y373794D01*
X110745Y370426D01*
X108364Y368045D01*
X104996Y368045D01*
G37*
%LPD*%
%LPC*%
G36*
X441546Y361695D02*
X441546Y361695D01*
X439165Y364076D01*
X439165Y367444D01*
X441546Y369825D01*
X444914Y369825D01*
X447295Y367444D01*
X447295Y364076D01*
X444914Y361695D01*
X441546Y361695D01*
G37*
%LPD*%
%LPC*%
G36*
X425290Y355345D02*
X425290Y355345D01*
X422909Y357726D01*
X422909Y361094D01*
X425290Y363475D01*
X428658Y363475D01*
X431039Y361094D01*
X431039Y357726D01*
X428658Y355345D01*
X425290Y355345D01*
G37*
%LPD*%
%LPC*%
G36*
X168496Y352805D02*
X168496Y352805D01*
X166115Y355186D01*
X166115Y358554D01*
X168496Y360935D01*
X171864Y360935D01*
X174245Y358554D01*
X174245Y355186D01*
X171864Y352805D01*
X168496Y352805D01*
G37*
%LPD*%
%LPC*%
G36*
X461866Y348995D02*
X461866Y348995D01*
X459485Y351376D01*
X459485Y354744D01*
X461866Y357125D01*
X465234Y357125D01*
X467615Y354744D01*
X467615Y351376D01*
X465234Y348995D01*
X461866Y348995D01*
G37*
%LPD*%
%LPC*%
G36*
X122522Y348995D02*
X122522Y348995D01*
X120141Y351376D01*
X120141Y354744D01*
X122522Y357125D01*
X125890Y357125D01*
X128271Y354744D01*
X128271Y351376D01*
X125890Y348995D01*
X122522Y348995D01*
G37*
%LPD*%
%LPC*%
G36*
X315816Y8635D02*
X315816Y8635D01*
X313435Y11016D01*
X313435Y14384D01*
X315816Y16765D01*
X319184Y16765D01*
X321565Y14384D01*
X321565Y11016D01*
X319184Y8635D01*
X315816Y8635D01*
G37*
%LPD*%
%LPC*%
G36*
X239616Y8635D02*
X239616Y8635D01*
X237235Y11016D01*
X237235Y14384D01*
X239616Y16765D01*
X242984Y16765D01*
X245365Y14384D01*
X245365Y11016D01*
X242984Y8635D01*
X239616Y8635D01*
G37*
%LPD*%
%LPC*%
G36*
X185006Y338835D02*
X185006Y338835D01*
X182625Y341216D01*
X182625Y344584D01*
X185006Y346965D01*
X188374Y346965D01*
X190755Y344584D01*
X190755Y341216D01*
X188374Y338835D01*
X185006Y338835D01*
G37*
%LPD*%
%LPC*%
G36*
X118966Y336255D02*
X118966Y336255D01*
X116585Y338636D01*
X116585Y342004D01*
X118966Y344385D01*
X122334Y344385D01*
X124715Y342004D01*
X124715Y338636D01*
X122334Y336255D01*
X118966Y336255D01*
G37*
%LPD*%
%LPC*%
G36*
X188816Y8635D02*
X188816Y8635D01*
X186435Y11016D01*
X186435Y14384D01*
X188816Y16765D01*
X192184Y16765D01*
X194565Y14384D01*
X194565Y11016D01*
X192184Y8635D01*
X188816Y8635D01*
G37*
%LPD*%
%LPC*%
G36*
X151732Y313943D02*
X151732Y313943D01*
X149351Y316324D01*
X149351Y319692D01*
X151732Y322073D01*
X155100Y322073D01*
X157481Y319692D01*
X157481Y316324D01*
X155100Y313943D01*
X151732Y313943D01*
G37*
%LPD*%
%LPC*%
G36*
X113886Y306577D02*
X113886Y306577D01*
X111505Y308958D01*
X111505Y312326D01*
X113886Y314707D01*
X117254Y314707D01*
X119635Y312326D01*
X119635Y308958D01*
X117254Y306577D01*
X113886Y306577D01*
G37*
%LPD*%
%LPC*%
G36*
X102495Y305092D02*
X102495Y305092D01*
X100114Y307473D01*
X100114Y310840D01*
X102495Y313221D01*
X105862Y313221D01*
X108243Y310840D01*
X108243Y307473D01*
X105862Y305092D01*
X102495Y305092D01*
G37*
%LPD*%
%LPC*%
G36*
X87978Y290321D02*
X87978Y290321D01*
X85597Y292702D01*
X85597Y296070D01*
X87978Y298451D01*
X91346Y298451D01*
X93727Y296070D01*
X93727Y292702D01*
X91346Y290321D01*
X87978Y290321D01*
G37*
%LPD*%
%LPC*%
G36*
X382491Y287654D02*
X382491Y287654D01*
X380110Y290035D01*
X380110Y293403D01*
X382491Y295784D01*
X385859Y295784D01*
X388240Y293403D01*
X388240Y290035D01*
X385859Y287654D01*
X382491Y287654D01*
G37*
%LPD*%
%LPC*%
G36*
X433926Y276605D02*
X433926Y276605D01*
X431545Y278986D01*
X431545Y282354D01*
X433926Y284735D01*
X437294Y284735D01*
X439675Y282354D01*
X439675Y278986D01*
X437294Y276605D01*
X433926Y276605D01*
G37*
%LPD*%
%LPC*%
G36*
X277716Y246125D02*
X277716Y246125D01*
X275335Y248506D01*
X275335Y251874D01*
X277716Y254255D01*
X281084Y254255D01*
X283465Y251874D01*
X283465Y248506D01*
X281084Y246125D01*
X277716Y246125D01*
G37*
%LPD*%
%LPC*%
G36*
X69436Y242315D02*
X69436Y242315D01*
X67055Y244696D01*
X67055Y248064D01*
X69436Y250445D01*
X72804Y250445D01*
X75185Y248064D01*
X75185Y244696D01*
X72804Y242315D01*
X69436Y242315D01*
G37*
%LPD*%
%LPC*%
G36*
X127856Y257555D02*
X127856Y257555D01*
X125475Y259936D01*
X125475Y263304D01*
X127856Y265685D01*
X131224Y265685D01*
X133605Y263304D01*
X133605Y259936D01*
X131224Y257555D01*
X127856Y257555D01*
G37*
%LPD*%
%LPC*%
G36*
X452468Y241553D02*
X452468Y241553D01*
X450087Y243934D01*
X450087Y247302D01*
X452468Y249683D01*
X455836Y249683D01*
X458217Y247302D01*
X458217Y243934D01*
X455836Y241553D01*
X452468Y241553D01*
G37*
%LPD*%
%LPC*%
G36*
X228186Y238505D02*
X228186Y238505D01*
X225805Y240886D01*
X225805Y244254D01*
X228186Y246635D01*
X231554Y246635D01*
X233935Y244254D01*
X233935Y240886D01*
X231554Y238505D01*
X228186Y238505D01*
G37*
%LPD*%
%LPC*%
G36*
X418686Y224789D02*
X418686Y224789D01*
X416305Y227170D01*
X416305Y230538D01*
X418686Y232919D01*
X422054Y232919D01*
X424435Y230538D01*
X424435Y227170D01*
X422054Y224789D01*
X418686Y224789D01*
G37*
%LPD*%
%LPC*%
G36*
X82136Y211835D02*
X82136Y211835D01*
X79755Y214216D01*
X79755Y217584D01*
X82136Y219965D01*
X85504Y219965D01*
X87885Y217584D01*
X87885Y214216D01*
X85504Y211835D01*
X82136Y211835D01*
G37*
%LPD*%
%LPC*%
G36*
X138886Y211435D02*
X138886Y211435D01*
X136505Y213816D01*
X136505Y217184D01*
X138886Y219565D01*
X142254Y219565D01*
X144635Y217184D01*
X144635Y213816D01*
X142254Y211435D01*
X138886Y211435D01*
G37*
%LPD*%
%LPC*%
G36*
X113378Y98551D02*
X113378Y98551D01*
X110997Y100932D01*
X110997Y104300D01*
X113378Y106681D01*
X116746Y106681D01*
X119127Y104300D01*
X119127Y100932D01*
X116746Y98551D01*
X113378Y98551D01*
G37*
%LPD*%
%LPC*%
G36*
X138016Y186435D02*
X138016Y186435D01*
X135635Y188816D01*
X135635Y192184D01*
X138016Y194565D01*
X141384Y194565D01*
X143765Y192184D01*
X143765Y188816D01*
X141384Y186435D01*
X138016Y186435D01*
G37*
%LPD*%
%LPC*%
G36*
X82136Y186435D02*
X82136Y186435D01*
X79755Y188816D01*
X79755Y192184D01*
X82136Y194565D01*
X85504Y194565D01*
X87885Y192184D01*
X87885Y188816D01*
X85504Y186435D01*
X82136Y186435D01*
G37*
%LPD*%
%LPC*%
G36*
X222852Y178815D02*
X222852Y178815D01*
X220471Y181196D01*
X220471Y184564D01*
X222852Y186945D01*
X226220Y186945D01*
X228601Y184564D01*
X228601Y181196D01*
X226220Y178815D01*
X222852Y178815D01*
G37*
%LPD*%
%LPC*%
G36*
X208468Y156369D02*
X208468Y156369D01*
X206087Y158750D01*
X206087Y162118D01*
X208468Y164499D01*
X211836Y164499D01*
X214217Y162118D01*
X214217Y158750D01*
X211836Y156369D01*
X208468Y156369D01*
G37*
%LPD*%
%LPC*%
G36*
X258920Y155447D02*
X258920Y155447D01*
X256539Y157828D01*
X256539Y161196D01*
X258920Y163577D01*
X262288Y163577D01*
X264669Y161196D01*
X264669Y157828D01*
X262288Y155447D01*
X258920Y155447D01*
G37*
%LPD*%
%LPC*%
G36*
X314546Y246125D02*
X314546Y246125D01*
X312165Y248506D01*
X312165Y251874D01*
X314546Y254255D01*
X317914Y254255D01*
X320295Y251874D01*
X320295Y248506D01*
X317914Y246125D01*
X314546Y246125D01*
G37*
%LPD*%
%LPC*%
G36*
X297528Y149859D02*
X297528Y149859D01*
X295147Y152240D01*
X295147Y155608D01*
X297528Y157989D01*
X300896Y157989D01*
X303277Y155608D01*
X303277Y152240D01*
X300896Y149859D01*
X297528Y149859D01*
G37*
%LPD*%
%LPC*%
G36*
X485996Y148335D02*
X485996Y148335D01*
X483615Y150716D01*
X483615Y154084D01*
X485996Y156465D01*
X489364Y156465D01*
X491745Y154084D01*
X491745Y150716D01*
X489364Y148335D01*
X485996Y148335D01*
G37*
%LPD*%
%LPC*%
G36*
X111346Y144525D02*
X111346Y144525D01*
X108965Y146906D01*
X108965Y150274D01*
X111346Y152655D01*
X114714Y152655D01*
X117095Y150274D01*
X117095Y146906D01*
X114714Y144525D01*
X111346Y144525D01*
G37*
%LPD*%
%LPC*%
G36*
X303116Y246125D02*
X303116Y246125D01*
X300735Y248506D01*
X300735Y251874D01*
X303116Y254255D01*
X306484Y254255D01*
X308865Y251874D01*
X308865Y248506D01*
X306484Y246125D01*
X303116Y246125D01*
G37*
%LPD*%
%LPC*%
G36*
X487266Y116585D02*
X487266Y116585D01*
X484885Y118966D01*
X484885Y122334D01*
X487266Y124715D01*
X490634Y124715D01*
X493015Y122334D01*
X493015Y118966D01*
X490634Y116585D01*
X487266Y116585D01*
G37*
%LPD*%
%LPC*%
G36*
X127856Y113029D02*
X127856Y113029D01*
X125475Y115410D01*
X125475Y118778D01*
X127856Y121159D01*
X131224Y121159D01*
X133605Y118778D01*
X133605Y115410D01*
X131224Y113029D01*
X127856Y113029D01*
G37*
%LPD*%
%LPC*%
G36*
X401922Y107441D02*
X401922Y107441D01*
X399541Y109822D01*
X399541Y113190D01*
X401922Y115571D01*
X405290Y115571D01*
X407671Y113190D01*
X407671Y109822D01*
X405290Y107441D01*
X401922Y107441D01*
G37*
%LPD*%
%LPC*%
G36*
X290416Y246125D02*
X290416Y246125D01*
X288035Y248506D01*
X288035Y251874D01*
X290416Y254255D01*
X293784Y254255D01*
X296165Y251874D01*
X296165Y248506D01*
X293784Y246125D01*
X290416Y246125D01*
G37*
%LPD*%
%LPC*%
G36*
X147414Y93217D02*
X147414Y93217D01*
X145033Y95598D01*
X145033Y98966D01*
X147414Y101347D01*
X150782Y101347D01*
X153163Y98966D01*
X153163Y95598D01*
X150782Y93217D01*
X147414Y93217D01*
G37*
%LPD*%
%LPC*%
G36*
X492346Y86105D02*
X492346Y86105D01*
X489965Y88486D01*
X489965Y91854D01*
X492346Y94235D01*
X495714Y94235D01*
X498095Y91854D01*
X498095Y88486D01*
X495714Y86105D01*
X492346Y86105D01*
G37*
%LPD*%
%LPC*%
G36*
X341470Y72643D02*
X341470Y72643D01*
X339089Y75024D01*
X339089Y78392D01*
X341470Y80773D01*
X344838Y80773D01*
X347219Y78392D01*
X347219Y75024D01*
X344838Y72643D01*
X341470Y72643D01*
G37*
%LPD*%
%LPC*%
G36*
X313022Y72135D02*
X313022Y72135D01*
X310641Y74516D01*
X310641Y77884D01*
X313022Y80265D01*
X316390Y80265D01*
X318771Y77884D01*
X318771Y74516D01*
X316390Y72135D01*
X313022Y72135D01*
G37*
%LPD*%
%LPC*%
G36*
X214216Y72135D02*
X214216Y72135D01*
X211835Y74516D01*
X211835Y77884D01*
X214216Y80265D01*
X217584Y80265D01*
X219965Y77884D01*
X219965Y74516D01*
X217584Y72135D01*
X214216Y72135D01*
G37*
%LPD*%
%LPC*%
G36*
X242918Y71627D02*
X242918Y71627D01*
X240537Y74008D01*
X240537Y77376D01*
X242918Y79757D01*
X246286Y79757D01*
X248667Y77376D01*
X248667Y74008D01*
X246286Y71627D01*
X242918Y71627D01*
G37*
%LPD*%
%LPC*%
G36*
X67404Y61975D02*
X67404Y61975D01*
X65023Y64356D01*
X65023Y67724D01*
X67404Y70105D01*
X70772Y70105D01*
X73153Y67724D01*
X73153Y64356D01*
X70772Y61975D01*
X67404Y61975D01*
G37*
%LPD*%
%LPC*%
G36*
X120490Y35559D02*
X120490Y35559D01*
X118109Y37940D01*
X118109Y41308D01*
X120490Y43689D01*
X123858Y43689D01*
X126239Y41308D01*
X126239Y37940D01*
X123858Y35559D01*
X120490Y35559D01*
G37*
%LPD*%
%LPC*%
G36*
X68166Y33019D02*
X68166Y33019D01*
X65785Y35400D01*
X65785Y38768D01*
X68166Y41149D01*
X71534Y41149D01*
X73915Y38768D01*
X73915Y35400D01*
X71534Y33019D01*
X68166Y33019D01*
G37*
%LPD*%
%LPC*%
G36*
X518000Y27685D02*
X518000Y27685D01*
X515619Y30066D01*
X515619Y33434D01*
X518000Y35815D01*
X521368Y35815D01*
X523749Y33434D01*
X523749Y30066D01*
X521368Y27685D01*
X518000Y27685D01*
G37*
%LPD*%
%LPC*%
G36*
X366616Y8635D02*
X366616Y8635D01*
X364235Y11016D01*
X364235Y14384D01*
X366616Y16765D01*
X369984Y16765D01*
X372365Y14384D01*
X372365Y11016D01*
X369984Y8635D01*
X366616Y8635D01*
G37*
%LPD*%
%LPC*%
G36*
X218439Y269239D02*
X218439Y269239D01*
X218439Y276559D01*
X219800Y276116D01*
X221225Y275390D01*
X222234Y274657D01*
X222519Y274450D01*
X223650Y273319D01*
X224590Y272025D01*
X225316Y270600D01*
X225759Y269239D01*
X218439Y269239D01*
G37*
%LPD*%
%LPC*%
G36*
X510539Y345439D02*
X510539Y345439D01*
X510539Y352759D01*
X511900Y352316D01*
X513325Y351590D01*
X514396Y350812D01*
X514619Y350650D01*
X515750Y349519D01*
X516690Y348225D01*
X517416Y346800D01*
X517859Y345439D01*
X510539Y345439D01*
G37*
%LPD*%
%LPC*%
G36*
X510539Y320039D02*
X510539Y320039D01*
X510539Y327359D01*
X511900Y326916D01*
X513325Y326190D01*
X514619Y325250D01*
X515750Y324119D01*
X516690Y322825D01*
X517416Y321400D01*
X517859Y320039D01*
X510539Y320039D01*
G37*
%LPD*%
%LPC*%
G36*
X27939Y180339D02*
X27939Y180339D01*
X27939Y187659D01*
X29300Y187216D01*
X30725Y186490D01*
X32019Y185550D01*
X33150Y184419D01*
X34090Y183125D01*
X34816Y181700D01*
X35259Y180339D01*
X27939Y180339D01*
G37*
%LPD*%
%LPC*%
G36*
X498141Y345439D02*
X498141Y345439D01*
X498584Y346800D01*
X499310Y348225D01*
X500250Y349519D01*
X501381Y350650D01*
X502675Y351590D01*
X504100Y352316D01*
X505461Y352759D01*
X505461Y345439D01*
X498141Y345439D01*
G37*
%LPD*%
%LPC*%
G36*
X15541Y180339D02*
X15541Y180339D01*
X15984Y181700D01*
X16710Y183125D01*
X17650Y184419D01*
X18781Y185550D01*
X20075Y186490D01*
X21500Y187216D01*
X22861Y187659D01*
X22861Y180339D01*
X15541Y180339D01*
G37*
%LPD*%
%LPC*%
G36*
X498141Y320039D02*
X498141Y320039D01*
X498584Y321400D01*
X499310Y322825D01*
X500250Y324119D01*
X501381Y325250D01*
X502675Y326190D01*
X504100Y326916D01*
X505461Y327359D01*
X505461Y320039D01*
X498141Y320039D01*
G37*
%LPD*%
%LPC*%
G36*
X510539Y340361D02*
X510539Y340361D01*
X517859Y340361D01*
X517416Y339000D01*
X516690Y337575D01*
X515750Y336281D01*
X514619Y335150D01*
X513325Y334210D01*
X511900Y333484D01*
X510539Y333041D01*
X510539Y340361D01*
G37*
%LPD*%
%LPC*%
G36*
X206041Y269239D02*
X206041Y269239D01*
X206484Y270600D01*
X207210Y272025D01*
X208150Y273319D01*
X209281Y274450D01*
X210575Y275390D01*
X212000Y276116D01*
X213361Y276559D01*
X213361Y269239D01*
X206041Y269239D01*
G37*
%LPD*%
%LPC*%
G36*
X218439Y264161D02*
X218439Y264161D01*
X225759Y264161D01*
X225316Y262800D01*
X224590Y261375D01*
X223650Y260081D01*
X222519Y258950D01*
X221225Y258010D01*
X219800Y257284D01*
X218439Y256841D01*
X218439Y264161D01*
G37*
%LPD*%
%LPC*%
G36*
X27939Y175261D02*
X27939Y175261D01*
X35259Y175261D01*
X34816Y173900D01*
X34090Y172475D01*
X33150Y171181D01*
X32019Y170050D01*
X30725Y169110D01*
X29300Y168384D01*
X27939Y167941D01*
X27939Y175261D01*
G37*
%LPD*%
%LPC*%
G36*
X510539Y314961D02*
X510539Y314961D01*
X517859Y314961D01*
X517416Y313600D01*
X516690Y312175D01*
X515750Y310881D01*
X514619Y309750D01*
X513325Y308810D01*
X511900Y308084D01*
X510539Y307641D01*
X510539Y314961D01*
G37*
%LPD*%
%LPC*%
G36*
X212000Y257284D02*
X212000Y257284D01*
X210575Y258010D01*
X209281Y258950D01*
X208150Y260081D01*
X207210Y261375D01*
X206484Y262800D01*
X206041Y264161D01*
X213361Y264161D01*
X213361Y256841D01*
X212000Y257284D01*
G37*
%LPD*%
%LPC*%
G36*
X504100Y333484D02*
X504100Y333484D01*
X502675Y334210D01*
X501381Y335150D01*
X500250Y336281D01*
X499310Y337575D01*
X498584Y339000D01*
X498141Y340361D01*
X505461Y340361D01*
X505461Y333041D01*
X504100Y333484D01*
G37*
%LPD*%
%LPC*%
G36*
X21500Y168384D02*
X21500Y168384D01*
X20075Y169110D01*
X18781Y170050D01*
X17650Y171181D01*
X16710Y172475D01*
X15984Y173900D01*
X15541Y175261D01*
X22861Y175261D01*
X22861Y167941D01*
X21500Y168384D01*
G37*
%LPD*%
%LPC*%
G36*
X504100Y308084D02*
X504100Y308084D01*
X502675Y308810D01*
X501381Y309750D01*
X500250Y310881D01*
X499310Y312175D01*
X498584Y313600D01*
X498141Y314961D01*
X505461Y314961D01*
X505461Y307641D01*
X504100Y308084D01*
G37*
%LPD*%
%LPC*%
G36*
X507999Y342899D02*
X507999Y342899D01*
X507999Y342901D01*
X508001Y342901D01*
X508001Y342899D01*
X507999Y342899D01*
G37*
%LPD*%
%LPC*%
G36*
X215899Y266699D02*
X215899Y266699D01*
X215899Y266701D01*
X215901Y266701D01*
X215901Y266699D01*
X215899Y266699D01*
G37*
%LPD*%
%LPC*%
G36*
X507999Y317499D02*
X507999Y317499D01*
X507999Y317501D01*
X508001Y317501D01*
X508001Y317499D01*
X507999Y317499D01*
G37*
%LPD*%
%LPC*%
G36*
X25399Y177799D02*
X25399Y177799D01*
X25399Y177801D01*
X25401Y177801D01*
X25401Y177799D01*
X25399Y177799D01*
G37*
%LPD*%
D10*
X86703Y438827D02*
X86701Y438947D01*
X86695Y439067D01*
X86686Y439187D01*
X86672Y439306D01*
X86655Y439425D01*
X86634Y439543D01*
X86609Y439661D01*
X86580Y439777D01*
X86548Y439893D01*
X86512Y440008D01*
X86472Y440121D01*
X86429Y440233D01*
X86382Y440344D01*
X86332Y440453D01*
X86278Y440560D01*
X86221Y440666D01*
X86160Y440769D01*
X86096Y440871D01*
X86029Y440971D01*
X85959Y441068D01*
X85886Y441163D01*
X85809Y441256D01*
X85730Y441346D01*
X85648Y441434D01*
X85563Y441519D01*
X85475Y441601D01*
X85385Y441680D01*
X85292Y441757D01*
X85197Y441830D01*
X85100Y441900D01*
X85000Y441967D01*
X84898Y442031D01*
X84795Y442092D01*
X84689Y442149D01*
X84582Y442203D01*
X84473Y442253D01*
X84362Y442300D01*
X84250Y442343D01*
X84137Y442383D01*
X84022Y442419D01*
X83906Y442451D01*
X83790Y442480D01*
X83672Y442505D01*
X83554Y442526D01*
X83435Y442543D01*
X83316Y442557D01*
X83196Y442566D01*
X83076Y442572D01*
X82956Y442574D01*
X82956Y442573D02*
X82818Y442571D01*
X82681Y442565D01*
X82544Y442555D01*
X82407Y442542D01*
X82271Y442524D01*
X82135Y442502D01*
X81999Y442477D01*
X81865Y442448D01*
X81732Y442415D01*
X81599Y442378D01*
X81468Y442337D01*
X81337Y442293D01*
X81209Y442245D01*
X81081Y442193D01*
X80955Y442137D01*
X80831Y442078D01*
X80708Y442016D01*
X80588Y441950D01*
X80469Y441881D01*
X80352Y441808D01*
X80238Y441732D01*
X80125Y441652D01*
X80015Y441570D01*
X79907Y441484D01*
X79802Y441396D01*
X79700Y441304D01*
X79600Y441210D01*
X79502Y441112D01*
X79408Y441012D01*
X79317Y440909D01*
X79228Y440804D01*
X79143Y440696D01*
X79060Y440586D01*
X78981Y440474D01*
X78905Y440359D01*
X78832Y440242D01*
X78763Y440123D01*
X78697Y440003D01*
X78635Y439880D01*
X78576Y439756D01*
X78521Y439630D01*
X78469Y439502D01*
X78421Y439373D01*
X78377Y439243D01*
X85453Y435913D02*
X85543Y436001D01*
X85629Y436092D01*
X85713Y436185D01*
X85794Y436281D01*
X85872Y436379D01*
X85946Y436479D01*
X86018Y436582D01*
X86086Y436687D01*
X86151Y436795D01*
X86213Y436904D01*
X86271Y437015D01*
X86326Y437128D01*
X86377Y437242D01*
X86424Y437358D01*
X86468Y437475D01*
X86508Y437594D01*
X86545Y437714D01*
X86578Y437835D01*
X86607Y437957D01*
X86632Y438079D01*
X86653Y438203D01*
X86671Y438327D01*
X86684Y438452D01*
X86694Y438577D01*
X86700Y438702D01*
X86702Y438827D01*
X85454Y435913D02*
X78377Y427587D01*
X86703Y427587D01*
D11*
X342900Y495300D03*
X342900Y469900D03*
X342900Y444500D03*
X342900Y419100D03*
X342900Y393700D03*
X342900Y368300D03*
X342900Y342900D03*
X342900Y317500D03*
X342900Y292100D03*
X342900Y266700D03*
X215900Y495300D03*
X215900Y469900D03*
X215900Y444500D03*
X215900Y419100D03*
X215900Y393700D03*
X215900Y368300D03*
X215900Y342900D03*
X215900Y317500D03*
X215900Y292100D03*
X215900Y266700D03*
X508000Y241300D03*
X508000Y266700D03*
X508000Y292100D03*
X508000Y317500D03*
X508000Y342900D03*
X508000Y368300D03*
X508000Y419100D03*
X508000Y444500D03*
X508000Y469900D03*
X508000Y495300D03*
X508000Y520700D03*
X508000Y546100D03*
X25400Y546100D03*
X25400Y520700D03*
X25400Y495300D03*
X25400Y469900D03*
X25400Y444500D03*
X25400Y419100D03*
X25400Y393700D03*
X25400Y368300D03*
X25400Y330200D03*
X25400Y304800D03*
X25400Y279400D03*
X25400Y254000D03*
X25400Y228600D03*
X25400Y203200D03*
X25400Y177800D03*
X25400Y152400D03*
X25400Y127000D03*
X25400Y101600D03*
X508000Y215900D03*
X508000Y190500D03*
D12*
X113030Y148590D03*
X186690Y342900D03*
X210152Y160434D03*
X106680Y372110D03*
X104178Y309156D03*
X311150Y195580D03*
X328930Y195580D03*
X170180Y312420D03*
X299720Y179070D03*
X210566Y175006D03*
X434086Y136144D03*
X452466Y160908D03*
X84328Y461264D03*
X99568Y461010D03*
X114808Y460756D03*
X157734Y32258D03*
X400558Y29972D03*
X112014Y39624D03*
X111506Y62992D03*
X393446Y109220D03*
X469392Y346710D03*
X452628Y317246D03*
X162052Y463550D03*
X453390Y228600D03*
X279400Y495300D03*
X482600Y12700D03*
X406400Y12700D03*
X279400Y12700D03*
X50800Y12700D03*
X260096Y144272D03*
X211582Y192278D03*
X210820Y145796D03*
X482092Y118618D03*
X317500Y127000D03*
X241300Y127000D03*
X215900Y127000D03*
X342900Y127000D03*
X182880Y123190D03*
X31750Y41910D03*
X183642Y70104D03*
X375158Y70866D03*
X508000Y50800D03*
X476504Y161544D03*
X138938Y149352D03*
X69596Y461518D03*
X391160Y219710D03*
X311150Y205740D03*
X328930Y205740D03*
X127762Y461010D03*
X410718Y163576D03*
X403098Y193294D03*
X41656Y357124D03*
X165052Y363066D03*
X353060Y226060D03*
X380746Y123190D03*
X427228Y164846D03*
X488442Y85598D03*
X237236Y168402D03*
X243586Y214122D03*
X224536Y192532D03*
X392430Y291338D03*
X201930Y490220D03*
X457200Y495300D03*
X454914Y441452D03*
X427990Y455930D03*
X392430Y444500D03*
X392430Y419100D03*
X389890Y363220D03*
X389890Y321310D03*
X392430Y401320D03*
X169418Y404876D03*
X133350Y379730D03*
X78740Y375920D03*
X279400Y457200D03*
X279400Y393700D03*
X279400Y355600D03*
X279400Y317500D03*
X525780Y384810D03*
X482092Y352806D03*
X474980Y500380D03*
X491490Y500380D03*
X499110Y482600D03*
X501650Y457200D03*
X231140Y476250D03*
X144526Y359918D03*
X172720Y335280D03*
X146958Y321156D03*
X100330Y382270D03*
X110490Y305054D03*
X71120Y237490D03*
X50800Y245110D03*
X45720Y264160D03*
X40132Y286512D03*
X50800Y205740D03*
X64770Y203200D03*
X64770Y177800D03*
X156210Y147320D03*
X146050Y481330D03*
X454406Y352806D03*
X453390Y270510D03*
X406908Y342646D03*
X359918Y321056D03*
X434340Y120650D03*
X319278Y273304D03*
X330962Y274066D03*
X361442Y498602D03*
X527050Y486918D03*
X306832Y71374D03*
X253492Y71120D03*
X100330Y165100D03*
X101600Y235204D03*
X204470Y284734D03*
X227584Y284988D03*
X230378Y353568D03*
X204724Y335280D03*
X204470Y350012D03*
X234442Y378714D03*
X317500Y449072D03*
X470916Y283210D03*
X494538Y223266D03*
X356108Y285496D03*
X356870Y272034D03*
X285242Y261620D03*
X178054Y235204D03*
X177800Y254000D03*
X101346Y254000D03*
X419100Y266700D03*
X393700Y266700D03*
X393700Y241300D03*
X419100Y241300D03*
X241300Y304800D03*
X32512Y317754D03*
X38354Y209296D03*
X292100Y292100D03*
X31750Y64770D03*
X62230Y66040D03*
X62230Y36830D03*
X497586Y352552D03*
X170180Y164338D03*
X334400Y102700D03*
X279400Y250190D03*
X292100Y250190D03*
X304800Y250190D03*
X129540Y117094D03*
X260604Y159512D03*
X122174Y39624D03*
X420370Y228854D03*
X403606Y111506D03*
X316230Y250190D03*
X59690Y494792D03*
X59690Y487680D03*
X129540Y261620D03*
X95758Y374396D03*
X443230Y365760D03*
X454152Y245618D03*
X437134Y430276D03*
X115570Y310642D03*
X519684Y31750D03*
X115062Y102616D03*
X149098Y97282D03*
X157734Y395986D03*
X89662Y294386D03*
X170180Y412100D03*
X69088Y66040D03*
X69850Y37084D03*
X359410Y459740D03*
X435610Y280670D03*
X153416Y318008D03*
X120650Y340320D03*
X384175Y291719D03*
X426974Y359410D03*
X124206Y353060D03*
X170180Y356870D03*
X463550Y353060D03*
X445135Y428625D03*
X299212Y153924D03*
X487680Y152400D03*
X494030Y90170D03*
X229870Y242570D03*
X488950Y120650D03*
X343154Y76708D03*
X314706Y76200D03*
X317500Y12700D03*
X368300Y12700D03*
X224536Y182880D03*
X83820Y190500D03*
X139700Y190500D03*
X140570Y215500D03*
X83820Y215900D03*
X190500Y12700D03*
X241300Y12700D03*
X215900Y76200D03*
X244602Y75692D03*
X71120Y246380D03*
X474726Y439166D03*
X494030Y393954D03*
X517906Y400812D03*
X482600Y378326D03*
M02*
