M48
;GenerationSoftware,Autodesk,EAGLE,9.6.2*%
;CreationDate,2023-10-13T20:36:03Z*%
FMAT,2
ICI,OFF
METRIC,TZ,000.000
T4C0.305
T3C0.650
T2C0.850
T1C1.016
%
G90
M71
T1
X75438Y109728
X75438Y159766
X75438Y157226
X75438Y154686
X75438Y152146
X104648Y149606
X104648Y152146
X104648Y154686
X104648Y157226
X104648Y159766
X104648Y162306
X104648Y167386
X104648Y169926
X104648Y172466
X104648Y175006
X104648Y177546
X104648Y180086
X56388Y180086
X56388Y177546
X56388Y175006
X56388Y172466
X56388Y169926
X56388Y167386
X56388Y164846
X56388Y162306
X56388Y158496
X56388Y155956
X56388Y153416
X56388Y150876
X56388Y148336
X56388Y145796
X56388Y143256
X56388Y140716
X56388Y138176
X56388Y135636
X104648Y147066
X104648Y144526
X34290Y49530
X34290Y46990
X34290Y44450
X34290Y41910
X34290Y39370
X34290Y36830
X34290Y34290
X34290Y31750
X34290Y29210
X34290Y26670
X21590Y49530
X21590Y46990
X21590Y44450
X21590Y41910
X21590Y39370
X21590Y36830
X21590Y34290
X21590Y31750
X21590Y29210
X21590Y26670
X50800Y24130
X50800Y26670
X50800Y29210
X50800Y31750
X50800Y34290
X50800Y36830
X50800Y41910
X50800Y44450
X50800Y46990
X50800Y49530
X50800Y52070
X50800Y54610
X2540Y54610
X2540Y52070
X2540Y49530
X2540Y46990
X2540Y44450
X2540Y41910
X2540Y39370
X2540Y36830
X2540Y33020
X2540Y30480
X2540Y27940
X2540Y25400
X2540Y22860
X2540Y20320
X2540Y17780
X2540Y15240
X2540Y12700
X2540Y10160
X50800Y21590
X50800Y19050
X88138Y49530
X88138Y46990
X88138Y44450
X88138Y41910
X88138Y39370
X88138Y36830
X88138Y34290
X88138Y31750
X88138Y29210
X88138Y26670
X75438Y49530
X75438Y46990
X75438Y44450
X75438Y41910
X75438Y39370
X75438Y36830
X75438Y34290
X75438Y31750
X75438Y29210
X75438Y26670
X104648Y24130
X104648Y26670
X104648Y29210
X104648Y31750
X104648Y34290
X104648Y36830
X104648Y41910
X104648Y44450
X104648Y46990
X104648Y49530
X104648Y52070
X104648Y54610
X56388Y54610
X56388Y52070
X56388Y49530
X56388Y46990
X56388Y44450
X56388Y41910
X56388Y39370
X56388Y36830
X56388Y33020
X56388Y30480
X56388Y27940
X56388Y25400
X56388Y22860
X56388Y20320
X56388Y17780
X56388Y15240
X56388Y12700
X56388Y10160
X104648Y21590
X104648Y19050
X34290Y112268
X34290Y109728
X34290Y107188
X34290Y104648
X34290Y102108
X34290Y99568
X34290Y97028
X34290Y94488
X34290Y91948
X34290Y89408
X21590Y112268
X21590Y109728
X21590Y107188
X21590Y104648
X21590Y102108
X21590Y99568
X21590Y97028
X21590Y94488
X21590Y91948
X21590Y89408
X50800Y86868
X50800Y89408
X50800Y91948
X50800Y94488
X50800Y97028
X50800Y99568
X50800Y104648
X50800Y107188
X50800Y109728
X50800Y112268
X50800Y114808
X50800Y117348
X2540Y117348
X2540Y114808
X2540Y112268
X2540Y109728
X2540Y107188
X2540Y104648
X2540Y102108
X2540Y99568
X2540Y95758
X2540Y93218
X2540Y90678
X2540Y88138
X2540Y85598
X2540Y83058
X2540Y80518
X2540Y77978
X2540Y75438
X2540Y72898
X50800Y84328
X50800Y81788
X88138Y112268
X88138Y109728
X88138Y107188
X88138Y104648
X88138Y102108
X88138Y99568
X88138Y97028
X88138Y94488
X88138Y91948
X88138Y89408
X75438Y112268
X75438Y107188
X75438Y104648
X75438Y102108
X75438Y99568
X75438Y97028
X75438Y94488
X75438Y91948
X75438Y89408
X104648Y86868
X104648Y89408
X104648Y91948
X104648Y94488
X104648Y97028
X104648Y99568
X104648Y104648
X104648Y107188
X104648Y109728
X104648Y112268
X104648Y114808
X104648Y117348
X56388Y117348
X56388Y114808
X56388Y112268
X56388Y109728
X56388Y107188
X56388Y104648
X56388Y102108
X56388Y99568
X56388Y95758
X56388Y93218
X56388Y90678
X56388Y88138
X56388Y85598
X56388Y83058
X56388Y80518
X56388Y77978
X56388Y75438
X56388Y72898
X104648Y84328
X104648Y81788
X34290Y175006
X34290Y172466
X34290Y169926
X34290Y167386
X34290Y164846
X34290Y162306
X34290Y159766
X34290Y157226
X34290Y154686
X34290Y152146
X21590Y175006
X21590Y172466
X21590Y169926
X21590Y167386
X21590Y164846
X21590Y162306
X21590Y159766
X21590Y157226
X21590Y154686
X21590Y152146
X50800Y149606
X50800Y152146
X50800Y154686
X50800Y157226
X50800Y159766
X50800Y162306
X50800Y167386
X50800Y169926
X50800Y172466
X50800Y175006
X50800Y177546
X50800Y180086
X2540Y180086
X2540Y177546
X2540Y175006
X2540Y172466
X2540Y169926
X2540Y167386
X2540Y164846
X2540Y162306
X2540Y158496
X2540Y155956
X2540Y153416
X2540Y150876
X2540Y148336
X2540Y145796
X2540Y143256
X2540Y140716
X2540Y138176
X2540Y135636
X50800Y147066
X50800Y144526
X88138Y175006
X88138Y172466
X88138Y169926
X88138Y167386
X88138Y164846
X88138Y162306
X88138Y159766
X88138Y157226
X88138Y154686
X88138Y152146
X75438Y175006
X75438Y172466
X75438Y169926
X75438Y167386
X75438Y164846
X75438Y162306
T2
X62738Y164616
X8890Y101878
X45720Y25630
X45720Y22630
X8890Y42140
X8890Y39140
X45720Y88368
X45720Y85368
X99568Y25630
X99568Y22630
X62738Y42140
X62738Y39140
X8890Y104878
X99568Y88368
X99568Y85368
X62738Y104878
X62738Y101878
X45720Y151106
X45720Y148106
X8890Y167616
X8890Y164616
X99568Y151106
X99568Y148106
X62738Y167616
T3
X25050Y130381
X30830Y130381
X30830Y67643
X25050Y4905
X84678Y67643
X30830Y4905
X78898Y130381
X84678Y130381
X78898Y4905
X84678Y4905
X25050Y67643
X78898Y67643
T4
X8001Y95758
X5588Y82423
X9652Y81661
X10795Y75819
X12573Y75819
X19812Y75184
X19812Y80391
X26035Y75184
X12217Y66700
X5969Y112217
X5969Y111506
X29210Y92304
X29210Y93066
X29210Y93828
X26162Y91542
X33680Y67818
X43205Y75641
X12700Y70358
X12827Y74295
X17018Y103948
X6909Y69342
X6985Y66446
X7061Y90551
X30480Y100838
X44450Y75438
X15342Y94539
X41910Y72898
X41808Y93929
X16662Y98146
X3048Y98044
X40767Y77343
X46990Y79045
X19355Y102921
X44701Y112014
X52261Y78931
X36703Y64389
X52349Y76327
X25400Y64008
X30480Y64008
X25044Y78791
X27940Y87757
X52324Y73812
X43180Y93828
X43180Y94539
X30505Y75921
X29235Y75921
X42815Y81518
X19050Y74549
X10160Y80010
X10160Y75184
X19050Y80899
X5080Y81788
X10160Y105918
X12700Y78994
X65532Y75946
X64643Y81661
X85217Y82296
X86741Y82296
X70866Y93980
X82550Y80645
X62281Y108864
X63805Y108839
X65329Y108814
X69621Y65964
X64084Y67767
X69774Y109017
X81788Y112268
X102108Y64008
X58928Y64008
X57023Y66294
X104648Y67818
X60808Y108890
X85217Y83312
X86741Y83312
X66624Y108839
X71928Y98994
X104851Y70790
X78207Y84150
X74041Y111760
X90043Y105918
X91211Y98831
X92685Y95936
X61976Y100330
X81788Y109093
X104648Y102108
X76962Y110363
X71120Y96266
X68544Y94854
X68453Y110871
X89967Y95225
X89992Y112598
X78181Y69875
X76606Y91237
X89459Y91288
X57023Y69215
X60071Y69342
X60071Y66421
X85141Y69799
X83617Y70917
X97765Y71603
X97790Y69723
X86106Y80620
X78334Y92710
X102514Y88189
X79705Y88646
X86614Y109855
X90018Y108661
X67412Y101168
X78207Y86258
X61951Y90145
X69952Y101321
X102514Y85649
X97434Y85649
X80620Y71247
X55753Y84328
X54712Y111862
X54712Y105512
X106426Y110490
X81788Y104648
X81661Y95250
X102514Y90729
X103149Y80061
X98857Y76327
X106248Y74600
X106375Y79680
X98323Y110922
X98323Y104572
X102133Y104572
X102133Y109652
X65278Y93218
X65532Y99822
X64008Y100584
X59817Y99949
X60198Y97028
X61849Y95758
X59436Y82423
X63500Y81661
X64643Y75819
X66421Y75819
X73660Y75184
X73660Y80391
X79883Y75184
X66065Y66700
X59817Y112217
X59817Y111506
X83058Y92304
X83058Y93066
X83058Y93828
X80010Y91542
X87528Y67818
X97053Y75641
X66548Y70358
X66675Y74295
X70866Y103948
X60757Y69342
X60833Y66446
X60909Y90551
X84328Y100838
X98298Y75438
X69190Y94539
X95758Y72898
X95656Y93929
X70510Y98146
X56896Y98044
X94615Y77343
X100838Y79045
X73203Y102921
X98549Y112014
X106109Y78931
X90551Y64389
X106197Y76327
X79248Y64008
X84328Y64008
X78892Y78791
X81788Y87757
X106172Y73812
X97028Y93828
X97028Y94539
X84353Y75921
X83083Y75921
X96663Y81518
X72898Y74549
X64008Y80010
X64008Y75184
X72898Y80899
X58928Y81788
X64008Y105918
X66548Y78994
X11684Y138684
X10795Y144399
X31369Y145034
X32893Y145034
X17018Y156718
X28702Y143383
X8433Y171602
X9957Y171577
X11481Y171552
X15773Y128702
X10236Y130505
X15926Y171755
X27940Y175006
X48260Y126746
X5080Y126746
X3175Y129032
X50800Y130556
X6960Y171628
X31369Y146050
X32893Y146050
X12776Y171577
X18080Y161732
X51003Y133528
X24359Y146888
X20193Y174498
X36195Y168656
X37363Y161569
X38837Y158674
X8128Y163068
X27940Y171831
X50800Y164846
X23114Y173101
X17272Y159004
X14696Y157592
X14605Y173609
X36119Y157963
X36144Y175336
X24333Y132613
X22758Y153975
X35611Y154026
X64084Y5029
X6223Y132080
X6223Y129159
X31293Y132537
X29769Y133655
X43917Y134341
X43942Y132461
X32258Y143358
X24486Y155448
X48666Y150927
X25857Y151384
X32766Y172593
X36170Y171399
X13564Y163906
X24359Y148996
X8103Y152883
X16104Y164059
X48666Y148387
X43586Y148387
X26772Y133985
X1905Y147066
X864Y174600
X864Y168250
X52578Y173228
X27940Y167386
X27813Y157988
X48666Y153467
X49301Y142799
X45009Y139065
X52400Y137338
X52527Y142418
X44475Y173660
X44475Y167310
X48285Y167310
X48285Y172390
X11430Y155956
X11684Y162560
X10160Y163322
X5969Y162687
X6350Y159766
X8001Y158496
X5588Y145161
X9652Y144399
X10795Y138557
X12573Y138557
X19812Y137922
X19812Y143129
X26035Y137922
X12217Y129438
X5969Y174955
X5969Y174244
X29210Y155042
X29210Y155804
X29210Y156566
X26162Y154280
X33680Y130556
X43205Y138379
X12700Y133096
X12827Y137033
X17018Y166686
X6909Y132080
X6985Y129184
X7061Y153289
X30480Y163576
X44450Y138176
X15342Y157277
X41910Y135636
X41808Y156667
X16662Y160884
X3048Y160782
X40767Y140081
X46990Y141783
X19355Y165659
X44701Y174752
X52261Y141669
X36703Y127127
X52349Y139065
X25400Y126746
X30480Y126746
X25044Y141529
X27940Y150495
X52324Y136550
X43180Y156566
X43180Y157277
X30505Y138659
X29235Y138659
X42815Y144256
X19050Y137287
X10160Y142748
X10160Y137922
X19050Y143637
X5080Y144526
X10160Y168656
X12700Y141732
X65532Y138684
X64643Y144399
X85217Y145034
X86741Y145034
X70866Y156718
X82550Y143383
X62281Y171602
X63805Y171577
X65329Y171552
X69621Y128702
X64084Y130505
X69774Y171755
X81788Y175006
X102108Y126746
X58928Y126746
X57023Y129032
X104648Y130556
X60808Y171628
X85217Y146050
X86741Y146050
X66624Y171577
X71928Y161732
X104851Y133528
X78207Y146888
X74041Y174498
X90043Y168656
X91211Y161569
X92685Y158674
X61976Y163068
X81788Y171831
X104648Y164846
X76962Y173101
X71120Y159004
X68544Y157592
X68453Y173609
X89967Y157963
X89992Y175336
X78181Y132613
X76606Y153975
X89459Y154026
X57023Y131953
X60071Y132080
X60071Y129159
X85141Y132537
X83617Y133655
X97765Y134341
X97790Y132461
X86106Y143358
X78334Y155448
X102514Y150927
X79705Y151384
X86614Y172593
X90018Y171399
X67412Y163906
X78207Y148996
X61951Y152883
X69952Y164059
X102514Y148387
X97434Y148387
X80620Y133985
X55753Y147066
X54712Y174600
X54712Y168250
X106426Y173228
X81788Y167386
X81661Y157988
X102514Y153467
X103149Y142799
X98857Y139065
X106248Y137338
X106375Y142418
X98323Y173660
X98323Y167310
X102133Y167310
X102133Y172390
X65278Y155956
X65532Y162560
X64008Y163322
X59817Y162687
X60198Y159766
X61849Y158496
X59436Y145161
X63500Y144399
X64643Y138557
X66421Y138557
X73660Y137922
X73660Y143129
X79883Y137922
X66065Y129438
X59817Y174955
X59817Y174244
X83058Y155042
X83058Y155804
X83058Y156566
X80010Y154280
X87528Y130556
X97053Y138379
X66548Y133096
X66675Y137033
X70866Y166686
X60757Y132080
X60833Y129184
X60909Y153289
X84328Y163576
X98298Y138176
X69190Y157277
X95758Y135636
X95656Y156667
X70510Y160884
X56896Y160782
X94615Y140081
X100838Y141783
X73203Y165659
X98549Y174752
X106109Y141669
X90551Y127127
X106197Y139065
X79248Y126746
X84328Y126746
X78892Y141529
X81788Y150495
X106172Y136550
X97028Y156566
X97028Y157277
X84353Y138659
X83083Y138659
X96663Y144256
X72898Y137287
X64008Y142748
X64008Y137922
X72898Y143637
X58928Y144526
X64008Y168656
X66548Y141732
X11684Y13208
X10795Y18923
X31369Y19558
X32893Y19558
X17018Y31242
X28702Y17907
X8433Y46126
X9957Y46101
X11481Y46076
X15773Y3226
X10236Y5029
X15926Y46279
X27940Y49530
X48260Y1270
X5080Y1270
X3175Y3556
X50800Y5080
X6960Y46152
X31369Y20574
X32893Y20574
X12776Y46101
X18080Y36256
X51003Y8052
X24359Y21412
X20193Y49022
X36195Y43180
X37363Y36093
X38837Y33198
X8128Y37592
X27940Y46355
X50800Y39370
X23114Y47625
X17272Y33528
X14696Y32116
X14605Y48133
X36119Y32487
X36144Y49860
X24333Y7137
X22758Y28499
X35611Y28550
X3175Y6477
X6223Y6604
X6223Y3683
X31293Y7061
X29769Y8179
X43917Y8865
X43942Y6985
X32258Y17882
X24486Y29972
X48666Y25451
X25857Y25908
X32766Y47117
X36170Y45923
X13564Y38430
X24359Y23520
X8103Y27407
X16104Y38583
X48666Y22911
X43586Y22911
X26772Y8509
X1905Y21590
X864Y49124
X864Y42774
X52578Y47752
X27940Y41910
X27813Y32512
X48666Y27991
X49301Y17323
X45009Y13589
X52400Y11862
X52527Y16942
X44475Y48184
X44475Y41834
X48285Y41834
X48285Y46914
X11430Y30480
X11684Y37084
X10160Y37846
X5969Y37211
X6350Y34290
X8001Y33020
X5588Y19685
X9652Y18923
X10795Y13081
X12573Y13081
X19812Y12446
X19812Y17653
X26035Y12446
X12217Y3962
X5969Y49479
X5969Y48768
X29210Y29566
X29210Y30328
X29210Y31090
X26162Y28804
X33680Y5080
X43205Y12903
X12700Y7620
X12827Y11557
X17018Y41210
X6909Y6604
X6985Y3708
X7061Y27813
X30480Y38100
X44450Y12700
X15342Y31801
X41910Y10160
X41808Y31191
X16662Y35408
X3048Y35306
X40767Y14605
X46990Y16307
X19355Y40183
X44701Y49276
X52261Y16193
X36703Y1651
X52349Y13589
X25400Y1270
X30480Y1270
X25044Y16053
X27940Y25019
X52324Y11074
X43180Y31090
X43180Y31801
X30505Y13183
X29235Y13183
X42815Y18780
X19050Y11811
X10160Y17272
X10160Y12446
X19050Y18161
X5080Y19050
X10160Y43180
X12700Y16256
X65532Y13208
X64643Y18923
X85217Y19558
X86741Y19558
X70866Y31242
X82550Y17907
X62281Y46126
X63805Y46101
X65329Y46076
X69621Y3226
X69774Y46279
X81788Y49530
X102108Y1270
X58928Y1270
X57023Y3556
X104648Y5080
X60808Y46152
X85217Y20574
X86741Y20574
X66624Y46101
X71928Y36256
X104851Y8052
X78207Y21412
X74041Y49022
X90043Y43180
X91211Y36093
X92685Y33198
X61976Y37592
X81788Y46355
X104648Y39370
X76962Y47625
X71120Y33528
X68544Y32116
X68453Y48133
X89967Y32487
X89992Y49860
X78181Y7137
X76606Y28499
X89459Y28550
X57023Y6477
X60071Y6604
X60071Y3683
X85141Y7061
X83617Y8179
X97765Y8865
X97790Y6985
X86106Y17882
X78334Y29972
X102514Y25451
X79705Y25908
X86614Y47117
X90018Y45923
X67412Y38430
X78207Y23520
X61951Y27407
X69952Y38583
X102514Y22911
X97434Y22911
X80620Y8509
X55753Y21590
X54712Y49124
X54712Y42774
X106426Y47752
X81788Y41910
X81661Y32512
X102514Y27991
X103149Y17323
X98857Y13589
X106248Y11862
X3175Y131953
X106375Y16942
X98323Y48184
X98323Y41834
X102133Y41834
X102133Y46914
X65278Y30480
X65532Y37084
X64008Y37846
X59817Y37211
X60198Y34290
X61849Y33020
X59436Y19685
X63500Y18923
X64643Y13081
X66421Y13081
X73660Y12446
X73660Y17653
X79883Y12446
X66065Y3962
X59817Y49479
X59817Y48768
X83058Y29566
X83058Y30328
X83058Y31090
X80010Y28804
X87528Y5080
X97053Y12903
X66548Y7620
X66675Y11557
X70866Y41210
X60757Y6604
X60833Y3708
X60909Y27813
X84328Y38100
X98298Y12700
X69190Y31801
X95758Y10160
X95656Y31191
X70510Y35408
X56896Y35306
X94615Y14605
X100838Y16307
X73203Y40183
X98549Y49276
X106109Y16193
X90551Y1651
X106197Y13589
X79248Y1270
X84328Y1270
X78892Y16053
X81788Y25019
X106172Y11074
X97028Y31090
X97028Y31801
X84353Y13183
X83083Y13183
X96663Y18780
X72898Y11811
X64008Y17272
X64008Y12446
X72898Y18161
X58928Y19050
X64008Y43180
X66548Y16256
X11684Y75946
X10795Y81661
X31369Y82296
X32893Y82296
X17018Y93980
X28702Y80645
X8433Y108864
X9957Y108839
X11481Y108814
X15773Y65964
X10236Y67767
X15926Y109017
X27940Y112268
X48260Y64008
X5080Y64008
X3175Y66294
X50800Y67818
X6960Y108890
X31369Y83312
X32893Y83312
X12776Y108839
X18080Y98994
X51003Y70790
X24359Y84150
X20193Y111760
X36195Y105918
X37363Y98831
X38837Y95936
X8128Y100330
X27940Y109093
X50800Y102108
X23114Y110363
X17272Y96266
X14696Y94854
X14605Y110871
X36119Y95225
X36144Y112598
X24333Y69875
X22758Y91237
X35611Y91288
X3175Y69215
X6223Y69342
X6223Y66421
X31293Y69799
X29769Y70917
X43917Y71603
X43942Y69723
X32258Y80620
X24486Y92710
X48666Y88189
X25857Y88646
X32766Y109855
X36170Y108661
X13564Y101168
X24359Y86258
X8103Y90145
X16104Y101321
X48666Y85649
X43586Y85649
X26772Y71247
X1905Y84328
X864Y111862
X864Y105512
X52578Y110490
X27940Y104648
X27813Y95250
X48666Y90729
X49301Y80061
X45009Y76327
X52400Y74600
X52527Y79680
X44475Y110922
X44475Y104572
X48285Y104572
X48285Y109652
X11430Y93218
X11684Y99822
X10160Y100584
X5969Y99949
X6350Y97028
M30