G04 EAGLE Gerber RS-274X export*
G75*
%MOMM*%
%FSLAX34Y34*%
%LPD*%
%INSoldermask Bottom*%
%IPPOS*%
%AMOC8*
5,1,8,0,0,1.08239X$1,22.5*%
G01*
%ADD10C,0.228344*%
%ADD11C,1.127000*%
%ADD12C,2.006600*%
%ADD13C,0.777000*%
%ADD14C,0.977000*%
%ADD15C,1.270000*%
%ADD16C,1.627000*%

G36*
X1048450Y1405267D02*
X1048450Y1405267D01*
X1048516Y1405269D01*
X1048559Y1405287D01*
X1048606Y1405295D01*
X1048663Y1405329D01*
X1048723Y1405354D01*
X1048758Y1405385D01*
X1048799Y1405410D01*
X1048841Y1405461D01*
X1048889Y1405505D01*
X1048911Y1405547D01*
X1048940Y1405584D01*
X1048961Y1405646D01*
X1048992Y1405705D01*
X1049000Y1405759D01*
X1049012Y1405796D01*
X1049011Y1405836D01*
X1049019Y1405890D01*
X1049019Y1408430D01*
X1049008Y1408495D01*
X1049006Y1408561D01*
X1048988Y1408604D01*
X1048980Y1408651D01*
X1048946Y1408708D01*
X1048921Y1408768D01*
X1048890Y1408803D01*
X1048865Y1408844D01*
X1048814Y1408886D01*
X1048770Y1408934D01*
X1048728Y1408956D01*
X1048691Y1408985D01*
X1048629Y1409006D01*
X1048570Y1409037D01*
X1048516Y1409045D01*
X1048479Y1409057D01*
X1048439Y1409056D01*
X1048385Y1409064D01*
X1044575Y1409064D01*
X1044510Y1409053D01*
X1044444Y1409051D01*
X1044401Y1409033D01*
X1044354Y1409025D01*
X1044297Y1408991D01*
X1044237Y1408966D01*
X1044202Y1408935D01*
X1044161Y1408910D01*
X1044120Y1408859D01*
X1044071Y1408815D01*
X1044049Y1408773D01*
X1044020Y1408736D01*
X1043999Y1408674D01*
X1043968Y1408615D01*
X1043960Y1408561D01*
X1043948Y1408524D01*
X1043948Y1408521D01*
X1043949Y1408484D01*
X1043941Y1408430D01*
X1043941Y1405890D01*
X1043952Y1405825D01*
X1043954Y1405759D01*
X1043972Y1405716D01*
X1043980Y1405669D01*
X1044014Y1405612D01*
X1044039Y1405552D01*
X1044070Y1405517D01*
X1044095Y1405476D01*
X1044146Y1405435D01*
X1044190Y1405386D01*
X1044232Y1405364D01*
X1044269Y1405335D01*
X1044331Y1405314D01*
X1044390Y1405283D01*
X1044444Y1405275D01*
X1044481Y1405263D01*
X1044521Y1405264D01*
X1044575Y1405256D01*
X1048385Y1405256D01*
X1048450Y1405267D01*
G37*
G36*
X509970Y1405267D02*
X509970Y1405267D01*
X510036Y1405269D01*
X510079Y1405287D01*
X510126Y1405295D01*
X510183Y1405329D01*
X510243Y1405354D01*
X510278Y1405385D01*
X510319Y1405410D01*
X510361Y1405461D01*
X510409Y1405505D01*
X510431Y1405547D01*
X510460Y1405584D01*
X510481Y1405646D01*
X510512Y1405705D01*
X510520Y1405759D01*
X510532Y1405796D01*
X510531Y1405836D01*
X510539Y1405890D01*
X510539Y1408430D01*
X510528Y1408495D01*
X510526Y1408561D01*
X510508Y1408604D01*
X510500Y1408651D01*
X510466Y1408708D01*
X510441Y1408768D01*
X510410Y1408803D01*
X510385Y1408844D01*
X510334Y1408886D01*
X510290Y1408934D01*
X510248Y1408956D01*
X510211Y1408985D01*
X510149Y1409006D01*
X510090Y1409037D01*
X510036Y1409045D01*
X509999Y1409057D01*
X509959Y1409056D01*
X509905Y1409064D01*
X506095Y1409064D01*
X506030Y1409053D01*
X505964Y1409051D01*
X505921Y1409033D01*
X505874Y1409025D01*
X505817Y1408991D01*
X505757Y1408966D01*
X505722Y1408935D01*
X505681Y1408910D01*
X505640Y1408859D01*
X505591Y1408815D01*
X505569Y1408773D01*
X505540Y1408736D01*
X505519Y1408674D01*
X505488Y1408615D01*
X505480Y1408561D01*
X505468Y1408524D01*
X505468Y1408521D01*
X505469Y1408484D01*
X505461Y1408430D01*
X505461Y1405890D01*
X505472Y1405825D01*
X505474Y1405759D01*
X505492Y1405716D01*
X505500Y1405669D01*
X505534Y1405612D01*
X505559Y1405552D01*
X505590Y1405517D01*
X505615Y1405476D01*
X505666Y1405435D01*
X505710Y1405386D01*
X505752Y1405364D01*
X505789Y1405335D01*
X505851Y1405314D01*
X505910Y1405283D01*
X505964Y1405275D01*
X506001Y1405263D01*
X506041Y1405264D01*
X506095Y1405256D01*
X509905Y1405256D01*
X509970Y1405267D01*
G37*
G36*
X1048450Y1379867D02*
X1048450Y1379867D01*
X1048516Y1379869D01*
X1048559Y1379887D01*
X1048606Y1379895D01*
X1048663Y1379929D01*
X1048723Y1379954D01*
X1048758Y1379985D01*
X1048799Y1380010D01*
X1048841Y1380061D01*
X1048889Y1380105D01*
X1048911Y1380147D01*
X1048940Y1380184D01*
X1048961Y1380246D01*
X1048992Y1380305D01*
X1049000Y1380359D01*
X1049012Y1380396D01*
X1049011Y1380436D01*
X1049019Y1380490D01*
X1049019Y1383030D01*
X1049008Y1383095D01*
X1049006Y1383161D01*
X1048988Y1383204D01*
X1048980Y1383251D01*
X1048946Y1383308D01*
X1048921Y1383368D01*
X1048890Y1383403D01*
X1048865Y1383444D01*
X1048814Y1383486D01*
X1048770Y1383534D01*
X1048728Y1383556D01*
X1048691Y1383585D01*
X1048629Y1383606D01*
X1048570Y1383637D01*
X1048516Y1383645D01*
X1048479Y1383657D01*
X1048439Y1383656D01*
X1048385Y1383664D01*
X1044575Y1383664D01*
X1044510Y1383653D01*
X1044444Y1383651D01*
X1044401Y1383633D01*
X1044354Y1383625D01*
X1044297Y1383591D01*
X1044237Y1383566D01*
X1044202Y1383535D01*
X1044161Y1383510D01*
X1044120Y1383459D01*
X1044071Y1383415D01*
X1044049Y1383373D01*
X1044020Y1383336D01*
X1043999Y1383274D01*
X1043968Y1383215D01*
X1043960Y1383161D01*
X1043948Y1383124D01*
X1043948Y1383121D01*
X1043949Y1383084D01*
X1043941Y1383030D01*
X1043941Y1380490D01*
X1043952Y1380425D01*
X1043954Y1380359D01*
X1043972Y1380316D01*
X1043980Y1380269D01*
X1044014Y1380212D01*
X1044039Y1380152D01*
X1044070Y1380117D01*
X1044095Y1380076D01*
X1044146Y1380035D01*
X1044190Y1379986D01*
X1044232Y1379964D01*
X1044269Y1379935D01*
X1044331Y1379914D01*
X1044390Y1379883D01*
X1044444Y1379875D01*
X1044481Y1379863D01*
X1044521Y1379864D01*
X1044575Y1379856D01*
X1048385Y1379856D01*
X1048450Y1379867D01*
G37*
G36*
X509970Y1379867D02*
X509970Y1379867D01*
X510036Y1379869D01*
X510079Y1379887D01*
X510126Y1379895D01*
X510183Y1379929D01*
X510243Y1379954D01*
X510278Y1379985D01*
X510319Y1380010D01*
X510361Y1380061D01*
X510409Y1380105D01*
X510431Y1380147D01*
X510460Y1380184D01*
X510481Y1380246D01*
X510512Y1380305D01*
X510520Y1380359D01*
X510532Y1380396D01*
X510531Y1380436D01*
X510539Y1380490D01*
X510539Y1383030D01*
X510528Y1383095D01*
X510526Y1383161D01*
X510508Y1383204D01*
X510500Y1383251D01*
X510466Y1383308D01*
X510441Y1383368D01*
X510410Y1383403D01*
X510385Y1383444D01*
X510334Y1383486D01*
X510290Y1383534D01*
X510248Y1383556D01*
X510211Y1383585D01*
X510149Y1383606D01*
X510090Y1383637D01*
X510036Y1383645D01*
X509999Y1383657D01*
X509959Y1383656D01*
X509905Y1383664D01*
X506095Y1383664D01*
X506030Y1383653D01*
X505964Y1383651D01*
X505921Y1383633D01*
X505874Y1383625D01*
X505817Y1383591D01*
X505757Y1383566D01*
X505722Y1383535D01*
X505681Y1383510D01*
X505640Y1383459D01*
X505591Y1383415D01*
X505569Y1383373D01*
X505540Y1383336D01*
X505519Y1383274D01*
X505488Y1383215D01*
X505480Y1383161D01*
X505468Y1383124D01*
X505468Y1383121D01*
X505469Y1383084D01*
X505461Y1383030D01*
X505461Y1380490D01*
X505472Y1380425D01*
X505474Y1380359D01*
X505492Y1380316D01*
X505500Y1380269D01*
X505534Y1380212D01*
X505559Y1380152D01*
X505590Y1380117D01*
X505615Y1380076D01*
X505666Y1380035D01*
X505710Y1379986D01*
X505752Y1379964D01*
X505789Y1379935D01*
X505851Y1379914D01*
X505910Y1379883D01*
X505964Y1379875D01*
X506001Y1379863D01*
X506041Y1379864D01*
X506095Y1379856D01*
X509905Y1379856D01*
X509970Y1379867D01*
G37*
G36*
X1048450Y1354467D02*
X1048450Y1354467D01*
X1048516Y1354469D01*
X1048559Y1354487D01*
X1048606Y1354495D01*
X1048663Y1354529D01*
X1048723Y1354554D01*
X1048758Y1354585D01*
X1048799Y1354610D01*
X1048841Y1354661D01*
X1048889Y1354705D01*
X1048911Y1354747D01*
X1048940Y1354784D01*
X1048961Y1354846D01*
X1048992Y1354905D01*
X1049000Y1354959D01*
X1049012Y1354996D01*
X1049011Y1355036D01*
X1049019Y1355090D01*
X1049019Y1357630D01*
X1049008Y1357695D01*
X1049006Y1357761D01*
X1048988Y1357804D01*
X1048980Y1357851D01*
X1048946Y1357908D01*
X1048921Y1357968D01*
X1048890Y1358003D01*
X1048865Y1358044D01*
X1048814Y1358086D01*
X1048770Y1358134D01*
X1048728Y1358156D01*
X1048691Y1358185D01*
X1048629Y1358206D01*
X1048570Y1358237D01*
X1048516Y1358245D01*
X1048479Y1358257D01*
X1048439Y1358256D01*
X1048385Y1358264D01*
X1044575Y1358264D01*
X1044510Y1358253D01*
X1044444Y1358251D01*
X1044401Y1358233D01*
X1044354Y1358225D01*
X1044297Y1358191D01*
X1044237Y1358166D01*
X1044202Y1358135D01*
X1044161Y1358110D01*
X1044120Y1358059D01*
X1044071Y1358015D01*
X1044049Y1357973D01*
X1044020Y1357936D01*
X1043999Y1357874D01*
X1043968Y1357815D01*
X1043960Y1357761D01*
X1043948Y1357724D01*
X1043948Y1357721D01*
X1043949Y1357684D01*
X1043941Y1357630D01*
X1043941Y1355090D01*
X1043952Y1355025D01*
X1043954Y1354959D01*
X1043972Y1354916D01*
X1043980Y1354869D01*
X1044014Y1354812D01*
X1044039Y1354752D01*
X1044070Y1354717D01*
X1044095Y1354676D01*
X1044146Y1354635D01*
X1044190Y1354586D01*
X1044232Y1354564D01*
X1044269Y1354535D01*
X1044331Y1354514D01*
X1044390Y1354483D01*
X1044444Y1354475D01*
X1044481Y1354463D01*
X1044521Y1354464D01*
X1044575Y1354456D01*
X1048385Y1354456D01*
X1048450Y1354467D01*
G37*
G36*
X509970Y1354467D02*
X509970Y1354467D01*
X510036Y1354469D01*
X510079Y1354487D01*
X510126Y1354495D01*
X510183Y1354529D01*
X510243Y1354554D01*
X510278Y1354585D01*
X510319Y1354610D01*
X510361Y1354661D01*
X510409Y1354705D01*
X510431Y1354747D01*
X510460Y1354784D01*
X510481Y1354846D01*
X510512Y1354905D01*
X510520Y1354959D01*
X510532Y1354996D01*
X510531Y1355036D01*
X510539Y1355090D01*
X510539Y1357630D01*
X510528Y1357695D01*
X510526Y1357761D01*
X510508Y1357804D01*
X510500Y1357851D01*
X510466Y1357908D01*
X510441Y1357968D01*
X510410Y1358003D01*
X510385Y1358044D01*
X510334Y1358086D01*
X510290Y1358134D01*
X510248Y1358156D01*
X510211Y1358185D01*
X510149Y1358206D01*
X510090Y1358237D01*
X510036Y1358245D01*
X509999Y1358257D01*
X509959Y1358256D01*
X509905Y1358264D01*
X506095Y1358264D01*
X506030Y1358253D01*
X505964Y1358251D01*
X505921Y1358233D01*
X505874Y1358225D01*
X505817Y1358191D01*
X505757Y1358166D01*
X505722Y1358135D01*
X505681Y1358110D01*
X505640Y1358059D01*
X505591Y1358015D01*
X505569Y1357973D01*
X505540Y1357936D01*
X505519Y1357874D01*
X505488Y1357815D01*
X505480Y1357761D01*
X505468Y1357724D01*
X505468Y1357721D01*
X505469Y1357684D01*
X505461Y1357630D01*
X505461Y1355090D01*
X505472Y1355025D01*
X505474Y1354959D01*
X505492Y1354916D01*
X505500Y1354869D01*
X505534Y1354812D01*
X505559Y1354752D01*
X505590Y1354717D01*
X505615Y1354676D01*
X505666Y1354635D01*
X505710Y1354586D01*
X505752Y1354564D01*
X505789Y1354535D01*
X505851Y1354514D01*
X505910Y1354483D01*
X505964Y1354475D01*
X506001Y1354463D01*
X506041Y1354464D01*
X506095Y1354456D01*
X509905Y1354456D01*
X509970Y1354467D01*
G37*
G36*
X672530Y1341767D02*
X672530Y1341767D01*
X672596Y1341769D01*
X672639Y1341787D01*
X672686Y1341795D01*
X672743Y1341829D01*
X672803Y1341854D01*
X672838Y1341885D01*
X672879Y1341910D01*
X672921Y1341961D01*
X672969Y1342005D01*
X672991Y1342047D01*
X673020Y1342084D01*
X673041Y1342146D01*
X673072Y1342205D01*
X673080Y1342259D01*
X673092Y1342296D01*
X673091Y1342336D01*
X673099Y1342390D01*
X673099Y1344930D01*
X673088Y1344995D01*
X673086Y1345061D01*
X673068Y1345104D01*
X673060Y1345151D01*
X673026Y1345208D01*
X673001Y1345268D01*
X672970Y1345303D01*
X672945Y1345344D01*
X672894Y1345386D01*
X672850Y1345434D01*
X672808Y1345456D01*
X672771Y1345485D01*
X672709Y1345506D01*
X672650Y1345537D01*
X672596Y1345545D01*
X672559Y1345557D01*
X672519Y1345556D01*
X672465Y1345564D01*
X668655Y1345564D01*
X668590Y1345553D01*
X668524Y1345551D01*
X668481Y1345533D01*
X668434Y1345525D01*
X668377Y1345491D01*
X668317Y1345466D01*
X668282Y1345435D01*
X668241Y1345410D01*
X668200Y1345359D01*
X668151Y1345315D01*
X668129Y1345273D01*
X668100Y1345236D01*
X668079Y1345174D01*
X668048Y1345115D01*
X668040Y1345061D01*
X668028Y1345024D01*
X668028Y1345021D01*
X668029Y1344984D01*
X668021Y1344930D01*
X668021Y1342390D01*
X668032Y1342325D01*
X668034Y1342259D01*
X668052Y1342216D01*
X668060Y1342169D01*
X668094Y1342112D01*
X668119Y1342052D01*
X668150Y1342017D01*
X668175Y1341976D01*
X668226Y1341935D01*
X668270Y1341886D01*
X668312Y1341864D01*
X668349Y1341835D01*
X668411Y1341814D01*
X668470Y1341783D01*
X668524Y1341775D01*
X668561Y1341763D01*
X668601Y1341764D01*
X668655Y1341756D01*
X672465Y1341756D01*
X672530Y1341767D01*
G37*
G36*
X134050Y1341767D02*
X134050Y1341767D01*
X134116Y1341769D01*
X134159Y1341787D01*
X134206Y1341795D01*
X134263Y1341829D01*
X134323Y1341854D01*
X134358Y1341885D01*
X134399Y1341910D01*
X134441Y1341961D01*
X134489Y1342005D01*
X134511Y1342047D01*
X134540Y1342084D01*
X134561Y1342146D01*
X134592Y1342205D01*
X134600Y1342259D01*
X134612Y1342296D01*
X134611Y1342336D01*
X134619Y1342390D01*
X134619Y1344930D01*
X134608Y1344995D01*
X134606Y1345061D01*
X134588Y1345104D01*
X134580Y1345151D01*
X134546Y1345208D01*
X134521Y1345268D01*
X134490Y1345303D01*
X134465Y1345344D01*
X134414Y1345386D01*
X134370Y1345434D01*
X134328Y1345456D01*
X134291Y1345485D01*
X134229Y1345506D01*
X134170Y1345537D01*
X134116Y1345545D01*
X134079Y1345557D01*
X134039Y1345556D01*
X133985Y1345564D01*
X130175Y1345564D01*
X130110Y1345553D01*
X130044Y1345551D01*
X130001Y1345533D01*
X129954Y1345525D01*
X129897Y1345491D01*
X129837Y1345466D01*
X129802Y1345435D01*
X129761Y1345410D01*
X129720Y1345359D01*
X129671Y1345315D01*
X129649Y1345273D01*
X129620Y1345236D01*
X129599Y1345174D01*
X129568Y1345115D01*
X129560Y1345061D01*
X129548Y1345024D01*
X129548Y1345021D01*
X129549Y1344984D01*
X129541Y1344930D01*
X129541Y1342390D01*
X129552Y1342325D01*
X129554Y1342259D01*
X129572Y1342216D01*
X129580Y1342169D01*
X129614Y1342112D01*
X129639Y1342052D01*
X129670Y1342017D01*
X129695Y1341976D01*
X129746Y1341935D01*
X129790Y1341886D01*
X129832Y1341864D01*
X129869Y1341835D01*
X129931Y1341814D01*
X129990Y1341783D01*
X130044Y1341775D01*
X130081Y1341763D01*
X130121Y1341764D01*
X130175Y1341756D01*
X133985Y1341756D01*
X134050Y1341767D01*
G37*
G36*
X123890Y1341767D02*
X123890Y1341767D01*
X123956Y1341769D01*
X123999Y1341787D01*
X124046Y1341795D01*
X124103Y1341829D01*
X124163Y1341854D01*
X124198Y1341885D01*
X124239Y1341910D01*
X124281Y1341961D01*
X124329Y1342005D01*
X124351Y1342047D01*
X124380Y1342084D01*
X124401Y1342146D01*
X124432Y1342205D01*
X124440Y1342259D01*
X124452Y1342296D01*
X124451Y1342336D01*
X124459Y1342390D01*
X124459Y1344930D01*
X124448Y1344995D01*
X124446Y1345061D01*
X124428Y1345104D01*
X124420Y1345151D01*
X124386Y1345208D01*
X124361Y1345268D01*
X124330Y1345303D01*
X124305Y1345344D01*
X124254Y1345386D01*
X124210Y1345434D01*
X124168Y1345456D01*
X124131Y1345485D01*
X124069Y1345506D01*
X124010Y1345537D01*
X123956Y1345545D01*
X123919Y1345557D01*
X123879Y1345556D01*
X123825Y1345564D01*
X120015Y1345564D01*
X119950Y1345553D01*
X119884Y1345551D01*
X119841Y1345533D01*
X119794Y1345525D01*
X119737Y1345491D01*
X119677Y1345466D01*
X119642Y1345435D01*
X119601Y1345410D01*
X119560Y1345359D01*
X119511Y1345315D01*
X119489Y1345273D01*
X119460Y1345236D01*
X119439Y1345174D01*
X119408Y1345115D01*
X119400Y1345061D01*
X119388Y1345024D01*
X119388Y1345021D01*
X119389Y1344984D01*
X119381Y1344930D01*
X119381Y1342390D01*
X119392Y1342325D01*
X119394Y1342259D01*
X119412Y1342216D01*
X119420Y1342169D01*
X119454Y1342112D01*
X119479Y1342052D01*
X119510Y1342017D01*
X119535Y1341976D01*
X119586Y1341935D01*
X119630Y1341886D01*
X119672Y1341864D01*
X119709Y1341835D01*
X119771Y1341814D01*
X119830Y1341783D01*
X119884Y1341775D01*
X119921Y1341763D01*
X119961Y1341764D01*
X120015Y1341756D01*
X123825Y1341756D01*
X123890Y1341767D01*
G37*
G36*
X662370Y1341767D02*
X662370Y1341767D01*
X662436Y1341769D01*
X662479Y1341787D01*
X662526Y1341795D01*
X662583Y1341829D01*
X662643Y1341854D01*
X662678Y1341885D01*
X662719Y1341910D01*
X662761Y1341961D01*
X662809Y1342005D01*
X662831Y1342047D01*
X662860Y1342084D01*
X662881Y1342146D01*
X662912Y1342205D01*
X662920Y1342259D01*
X662932Y1342296D01*
X662931Y1342336D01*
X662939Y1342390D01*
X662939Y1344930D01*
X662928Y1344995D01*
X662926Y1345061D01*
X662908Y1345104D01*
X662900Y1345151D01*
X662866Y1345208D01*
X662841Y1345268D01*
X662810Y1345303D01*
X662785Y1345344D01*
X662734Y1345386D01*
X662690Y1345434D01*
X662648Y1345456D01*
X662611Y1345485D01*
X662549Y1345506D01*
X662490Y1345537D01*
X662436Y1345545D01*
X662399Y1345557D01*
X662359Y1345556D01*
X662305Y1345564D01*
X658495Y1345564D01*
X658430Y1345553D01*
X658364Y1345551D01*
X658321Y1345533D01*
X658274Y1345525D01*
X658217Y1345491D01*
X658157Y1345466D01*
X658122Y1345435D01*
X658081Y1345410D01*
X658040Y1345359D01*
X657991Y1345315D01*
X657969Y1345273D01*
X657940Y1345236D01*
X657919Y1345174D01*
X657888Y1345115D01*
X657880Y1345061D01*
X657868Y1345024D01*
X657868Y1345021D01*
X657869Y1344984D01*
X657861Y1344930D01*
X657861Y1342390D01*
X657872Y1342325D01*
X657874Y1342259D01*
X657892Y1342216D01*
X657900Y1342169D01*
X657934Y1342112D01*
X657959Y1342052D01*
X657990Y1342017D01*
X658015Y1341976D01*
X658066Y1341935D01*
X658110Y1341886D01*
X658152Y1341864D01*
X658189Y1341835D01*
X658251Y1341814D01*
X658310Y1341783D01*
X658364Y1341775D01*
X658401Y1341763D01*
X658441Y1341764D01*
X658495Y1341756D01*
X662305Y1341756D01*
X662370Y1341767D01*
G37*
G36*
X712916Y1285379D02*
X712916Y1285379D01*
X712982Y1285381D01*
X713025Y1285399D01*
X713072Y1285407D01*
X713129Y1285441D01*
X713189Y1285466D01*
X713224Y1285497D01*
X713265Y1285522D01*
X713307Y1285573D01*
X713355Y1285617D01*
X713377Y1285659D01*
X713406Y1285696D01*
X713427Y1285758D01*
X713458Y1285817D01*
X713466Y1285871D01*
X713478Y1285908D01*
X713477Y1285948D01*
X713485Y1286002D01*
X713485Y1288542D01*
X713474Y1288607D01*
X713472Y1288673D01*
X713454Y1288716D01*
X713446Y1288763D01*
X713412Y1288820D01*
X713387Y1288880D01*
X713356Y1288915D01*
X713331Y1288956D01*
X713280Y1288998D01*
X713236Y1289046D01*
X713194Y1289068D01*
X713157Y1289097D01*
X713095Y1289118D01*
X713036Y1289149D01*
X712982Y1289157D01*
X712945Y1289169D01*
X712905Y1289168D01*
X712851Y1289176D01*
X709041Y1289176D01*
X708976Y1289165D01*
X708910Y1289163D01*
X708867Y1289145D01*
X708820Y1289137D01*
X708763Y1289103D01*
X708703Y1289078D01*
X708668Y1289047D01*
X708627Y1289022D01*
X708586Y1288971D01*
X708537Y1288927D01*
X708515Y1288885D01*
X708486Y1288848D01*
X708465Y1288786D01*
X708434Y1288727D01*
X708426Y1288673D01*
X708414Y1288636D01*
X708414Y1288633D01*
X708415Y1288596D01*
X708407Y1288542D01*
X708407Y1286002D01*
X708418Y1285937D01*
X708420Y1285871D01*
X708438Y1285828D01*
X708446Y1285781D01*
X708480Y1285724D01*
X708505Y1285664D01*
X708536Y1285629D01*
X708561Y1285588D01*
X708612Y1285547D01*
X708656Y1285498D01*
X708698Y1285476D01*
X708735Y1285447D01*
X708797Y1285426D01*
X708856Y1285395D01*
X708910Y1285387D01*
X708947Y1285375D01*
X708987Y1285376D01*
X709041Y1285368D01*
X712851Y1285368D01*
X712916Y1285379D01*
G37*
G36*
X174436Y1285379D02*
X174436Y1285379D01*
X174502Y1285381D01*
X174545Y1285399D01*
X174592Y1285407D01*
X174649Y1285441D01*
X174709Y1285466D01*
X174744Y1285497D01*
X174785Y1285522D01*
X174827Y1285573D01*
X174875Y1285617D01*
X174897Y1285659D01*
X174926Y1285696D01*
X174947Y1285758D01*
X174978Y1285817D01*
X174986Y1285871D01*
X174998Y1285908D01*
X174997Y1285948D01*
X175005Y1286002D01*
X175005Y1288542D01*
X174994Y1288607D01*
X174992Y1288673D01*
X174974Y1288716D01*
X174966Y1288763D01*
X174932Y1288820D01*
X174907Y1288880D01*
X174876Y1288915D01*
X174851Y1288956D01*
X174800Y1288998D01*
X174756Y1289046D01*
X174714Y1289068D01*
X174677Y1289097D01*
X174615Y1289118D01*
X174556Y1289149D01*
X174502Y1289157D01*
X174465Y1289169D01*
X174425Y1289168D01*
X174371Y1289176D01*
X170561Y1289176D01*
X170496Y1289165D01*
X170430Y1289163D01*
X170387Y1289145D01*
X170340Y1289137D01*
X170283Y1289103D01*
X170223Y1289078D01*
X170188Y1289047D01*
X170147Y1289022D01*
X170106Y1288971D01*
X170057Y1288927D01*
X170035Y1288885D01*
X170006Y1288848D01*
X169985Y1288786D01*
X169954Y1288727D01*
X169946Y1288673D01*
X169934Y1288636D01*
X169934Y1288633D01*
X169935Y1288596D01*
X169927Y1288542D01*
X169927Y1286002D01*
X169938Y1285937D01*
X169940Y1285871D01*
X169958Y1285828D01*
X169966Y1285781D01*
X170000Y1285724D01*
X170025Y1285664D01*
X170056Y1285629D01*
X170081Y1285588D01*
X170132Y1285547D01*
X170176Y1285498D01*
X170218Y1285476D01*
X170255Y1285447D01*
X170317Y1285426D01*
X170376Y1285395D01*
X170430Y1285387D01*
X170467Y1285375D01*
X170507Y1285376D01*
X170561Y1285368D01*
X174371Y1285368D01*
X174436Y1285379D01*
G37*
G36*
X928054Y1283601D02*
X928054Y1283601D01*
X928120Y1283603D01*
X928163Y1283621D01*
X928210Y1283629D01*
X928267Y1283663D01*
X928327Y1283688D01*
X928362Y1283719D01*
X928403Y1283744D01*
X928445Y1283795D01*
X928493Y1283839D01*
X928515Y1283881D01*
X928544Y1283918D01*
X928565Y1283980D01*
X928596Y1284039D01*
X928604Y1284093D01*
X928616Y1284130D01*
X928615Y1284170D01*
X928623Y1284224D01*
X928623Y1286764D01*
X928612Y1286829D01*
X928610Y1286895D01*
X928592Y1286938D01*
X928584Y1286985D01*
X928550Y1287042D01*
X928525Y1287102D01*
X928494Y1287137D01*
X928469Y1287178D01*
X928418Y1287220D01*
X928374Y1287268D01*
X928332Y1287290D01*
X928295Y1287319D01*
X928233Y1287340D01*
X928174Y1287371D01*
X928120Y1287379D01*
X928083Y1287391D01*
X928043Y1287390D01*
X927989Y1287398D01*
X924179Y1287398D01*
X924114Y1287387D01*
X924048Y1287385D01*
X924005Y1287367D01*
X923958Y1287359D01*
X923901Y1287325D01*
X923841Y1287300D01*
X923806Y1287269D01*
X923765Y1287244D01*
X923724Y1287193D01*
X923675Y1287149D01*
X923653Y1287107D01*
X923624Y1287070D01*
X923603Y1287008D01*
X923572Y1286949D01*
X923564Y1286895D01*
X923552Y1286858D01*
X923552Y1286855D01*
X923553Y1286818D01*
X923545Y1286764D01*
X923545Y1284224D01*
X923556Y1284159D01*
X923558Y1284093D01*
X923576Y1284050D01*
X923584Y1284003D01*
X923618Y1283946D01*
X923643Y1283886D01*
X923674Y1283851D01*
X923699Y1283810D01*
X923750Y1283769D01*
X923794Y1283720D01*
X923836Y1283698D01*
X923873Y1283669D01*
X923935Y1283648D01*
X923994Y1283617D01*
X924048Y1283609D01*
X924085Y1283597D01*
X924125Y1283598D01*
X924179Y1283590D01*
X927989Y1283590D01*
X928054Y1283601D01*
G37*
G36*
X389574Y1283601D02*
X389574Y1283601D01*
X389640Y1283603D01*
X389683Y1283621D01*
X389730Y1283629D01*
X389787Y1283663D01*
X389847Y1283688D01*
X389882Y1283719D01*
X389923Y1283744D01*
X389965Y1283795D01*
X390013Y1283839D01*
X390035Y1283881D01*
X390064Y1283918D01*
X390085Y1283980D01*
X390116Y1284039D01*
X390124Y1284093D01*
X390136Y1284130D01*
X390135Y1284170D01*
X390143Y1284224D01*
X390143Y1286764D01*
X390132Y1286829D01*
X390130Y1286895D01*
X390112Y1286938D01*
X390104Y1286985D01*
X390070Y1287042D01*
X390045Y1287102D01*
X390014Y1287137D01*
X389989Y1287178D01*
X389938Y1287220D01*
X389894Y1287268D01*
X389852Y1287290D01*
X389815Y1287319D01*
X389753Y1287340D01*
X389694Y1287371D01*
X389640Y1287379D01*
X389603Y1287391D01*
X389563Y1287390D01*
X389509Y1287398D01*
X385699Y1287398D01*
X385634Y1287387D01*
X385568Y1287385D01*
X385525Y1287367D01*
X385478Y1287359D01*
X385421Y1287325D01*
X385361Y1287300D01*
X385326Y1287269D01*
X385285Y1287244D01*
X385244Y1287193D01*
X385195Y1287149D01*
X385173Y1287107D01*
X385144Y1287070D01*
X385123Y1287008D01*
X385092Y1286949D01*
X385084Y1286895D01*
X385072Y1286858D01*
X385072Y1286855D01*
X385073Y1286818D01*
X385065Y1286764D01*
X385065Y1284224D01*
X385076Y1284159D01*
X385078Y1284093D01*
X385096Y1284050D01*
X385104Y1284003D01*
X385138Y1283946D01*
X385163Y1283886D01*
X385194Y1283851D01*
X385219Y1283810D01*
X385270Y1283769D01*
X385314Y1283720D01*
X385356Y1283698D01*
X385393Y1283669D01*
X385455Y1283648D01*
X385514Y1283617D01*
X385568Y1283609D01*
X385605Y1283597D01*
X385645Y1283598D01*
X385699Y1283590D01*
X389509Y1283590D01*
X389574Y1283601D01*
G37*
G36*
X422594Y1283347D02*
X422594Y1283347D01*
X422660Y1283349D01*
X422703Y1283367D01*
X422750Y1283375D01*
X422807Y1283409D01*
X422867Y1283434D01*
X422902Y1283465D01*
X422943Y1283490D01*
X422985Y1283541D01*
X423033Y1283585D01*
X423055Y1283627D01*
X423084Y1283664D01*
X423105Y1283726D01*
X423136Y1283785D01*
X423144Y1283839D01*
X423156Y1283876D01*
X423155Y1283916D01*
X423163Y1283970D01*
X423163Y1286510D01*
X423152Y1286575D01*
X423150Y1286641D01*
X423132Y1286684D01*
X423124Y1286731D01*
X423090Y1286788D01*
X423065Y1286848D01*
X423034Y1286883D01*
X423009Y1286924D01*
X422958Y1286966D01*
X422914Y1287014D01*
X422872Y1287036D01*
X422835Y1287065D01*
X422773Y1287086D01*
X422714Y1287117D01*
X422660Y1287125D01*
X422623Y1287137D01*
X422583Y1287136D01*
X422529Y1287144D01*
X418719Y1287144D01*
X418654Y1287133D01*
X418588Y1287131D01*
X418545Y1287113D01*
X418498Y1287105D01*
X418441Y1287071D01*
X418381Y1287046D01*
X418346Y1287015D01*
X418305Y1286990D01*
X418264Y1286939D01*
X418215Y1286895D01*
X418193Y1286853D01*
X418164Y1286816D01*
X418143Y1286754D01*
X418112Y1286695D01*
X418104Y1286641D01*
X418092Y1286604D01*
X418092Y1286601D01*
X418093Y1286564D01*
X418085Y1286510D01*
X418085Y1283970D01*
X418096Y1283905D01*
X418098Y1283839D01*
X418116Y1283796D01*
X418124Y1283749D01*
X418158Y1283692D01*
X418183Y1283632D01*
X418214Y1283597D01*
X418239Y1283556D01*
X418290Y1283515D01*
X418334Y1283466D01*
X418376Y1283444D01*
X418413Y1283415D01*
X418475Y1283394D01*
X418534Y1283363D01*
X418588Y1283355D01*
X418625Y1283343D01*
X418665Y1283344D01*
X418719Y1283336D01*
X422529Y1283336D01*
X422594Y1283347D01*
G37*
G36*
X961074Y1283347D02*
X961074Y1283347D01*
X961140Y1283349D01*
X961183Y1283367D01*
X961230Y1283375D01*
X961287Y1283409D01*
X961347Y1283434D01*
X961382Y1283465D01*
X961423Y1283490D01*
X961465Y1283541D01*
X961513Y1283585D01*
X961535Y1283627D01*
X961564Y1283664D01*
X961585Y1283726D01*
X961616Y1283785D01*
X961624Y1283839D01*
X961636Y1283876D01*
X961635Y1283916D01*
X961643Y1283970D01*
X961643Y1286510D01*
X961632Y1286575D01*
X961630Y1286641D01*
X961612Y1286684D01*
X961604Y1286731D01*
X961570Y1286788D01*
X961545Y1286848D01*
X961514Y1286883D01*
X961489Y1286924D01*
X961438Y1286966D01*
X961394Y1287014D01*
X961352Y1287036D01*
X961315Y1287065D01*
X961253Y1287086D01*
X961194Y1287117D01*
X961140Y1287125D01*
X961103Y1287137D01*
X961063Y1287136D01*
X961009Y1287144D01*
X957199Y1287144D01*
X957134Y1287133D01*
X957068Y1287131D01*
X957025Y1287113D01*
X956978Y1287105D01*
X956921Y1287071D01*
X956861Y1287046D01*
X956826Y1287015D01*
X956785Y1286990D01*
X956744Y1286939D01*
X956695Y1286895D01*
X956673Y1286853D01*
X956644Y1286816D01*
X956623Y1286754D01*
X956592Y1286695D01*
X956584Y1286641D01*
X956572Y1286604D01*
X956572Y1286601D01*
X956573Y1286564D01*
X956565Y1286510D01*
X956565Y1283970D01*
X956576Y1283905D01*
X956578Y1283839D01*
X956596Y1283796D01*
X956604Y1283749D01*
X956638Y1283692D01*
X956663Y1283632D01*
X956694Y1283597D01*
X956719Y1283556D01*
X956770Y1283515D01*
X956814Y1283466D01*
X956856Y1283444D01*
X956893Y1283415D01*
X956955Y1283394D01*
X957014Y1283363D01*
X957068Y1283355D01*
X957105Y1283343D01*
X957145Y1283344D01*
X957199Y1283336D01*
X961009Y1283336D01*
X961074Y1283347D01*
G37*
G36*
X509970Y777887D02*
X509970Y777887D01*
X510036Y777889D01*
X510079Y777907D01*
X510126Y777915D01*
X510183Y777949D01*
X510243Y777974D01*
X510278Y778005D01*
X510319Y778030D01*
X510361Y778081D01*
X510409Y778125D01*
X510431Y778167D01*
X510460Y778204D01*
X510481Y778266D01*
X510512Y778325D01*
X510520Y778379D01*
X510532Y778416D01*
X510531Y778456D01*
X510539Y778510D01*
X510539Y781050D01*
X510528Y781115D01*
X510526Y781181D01*
X510508Y781224D01*
X510500Y781271D01*
X510466Y781328D01*
X510441Y781388D01*
X510410Y781423D01*
X510385Y781464D01*
X510334Y781506D01*
X510290Y781554D01*
X510248Y781576D01*
X510211Y781605D01*
X510149Y781626D01*
X510090Y781657D01*
X510036Y781665D01*
X509999Y781677D01*
X509959Y781676D01*
X509905Y781684D01*
X506095Y781684D01*
X506030Y781673D01*
X505964Y781671D01*
X505921Y781653D01*
X505874Y781645D01*
X505817Y781611D01*
X505757Y781586D01*
X505722Y781555D01*
X505681Y781530D01*
X505640Y781479D01*
X505591Y781435D01*
X505569Y781393D01*
X505540Y781356D01*
X505519Y781294D01*
X505488Y781235D01*
X505480Y781181D01*
X505468Y781144D01*
X505468Y781141D01*
X505469Y781104D01*
X505461Y781050D01*
X505461Y778510D01*
X505472Y778445D01*
X505474Y778379D01*
X505492Y778336D01*
X505500Y778289D01*
X505534Y778232D01*
X505559Y778172D01*
X505590Y778137D01*
X505615Y778096D01*
X505666Y778055D01*
X505710Y778006D01*
X505752Y777984D01*
X505789Y777955D01*
X505851Y777934D01*
X505910Y777903D01*
X505964Y777895D01*
X506001Y777883D01*
X506041Y777884D01*
X506095Y777876D01*
X509905Y777876D01*
X509970Y777887D01*
G37*
G36*
X1048450Y777887D02*
X1048450Y777887D01*
X1048516Y777889D01*
X1048559Y777907D01*
X1048606Y777915D01*
X1048663Y777949D01*
X1048723Y777974D01*
X1048758Y778005D01*
X1048799Y778030D01*
X1048841Y778081D01*
X1048889Y778125D01*
X1048911Y778167D01*
X1048940Y778204D01*
X1048961Y778266D01*
X1048992Y778325D01*
X1049000Y778379D01*
X1049012Y778416D01*
X1049011Y778456D01*
X1049019Y778510D01*
X1049019Y781050D01*
X1049008Y781115D01*
X1049006Y781181D01*
X1048988Y781224D01*
X1048980Y781271D01*
X1048946Y781328D01*
X1048921Y781388D01*
X1048890Y781423D01*
X1048865Y781464D01*
X1048814Y781506D01*
X1048770Y781554D01*
X1048728Y781576D01*
X1048691Y781605D01*
X1048629Y781626D01*
X1048570Y781657D01*
X1048516Y781665D01*
X1048479Y781677D01*
X1048439Y781676D01*
X1048385Y781684D01*
X1044575Y781684D01*
X1044510Y781673D01*
X1044444Y781671D01*
X1044401Y781653D01*
X1044354Y781645D01*
X1044297Y781611D01*
X1044237Y781586D01*
X1044202Y781555D01*
X1044161Y781530D01*
X1044120Y781479D01*
X1044071Y781435D01*
X1044049Y781393D01*
X1044020Y781356D01*
X1043999Y781294D01*
X1043968Y781235D01*
X1043960Y781181D01*
X1043948Y781144D01*
X1043948Y781141D01*
X1043949Y781104D01*
X1043941Y781050D01*
X1043941Y778510D01*
X1043952Y778445D01*
X1043954Y778379D01*
X1043972Y778336D01*
X1043980Y778289D01*
X1044014Y778232D01*
X1044039Y778172D01*
X1044070Y778137D01*
X1044095Y778096D01*
X1044146Y778055D01*
X1044190Y778006D01*
X1044232Y777984D01*
X1044269Y777955D01*
X1044331Y777934D01*
X1044390Y777903D01*
X1044444Y777895D01*
X1044481Y777883D01*
X1044521Y777884D01*
X1044575Y777876D01*
X1048385Y777876D01*
X1048450Y777887D01*
G37*
G36*
X509970Y752487D02*
X509970Y752487D01*
X510036Y752489D01*
X510079Y752507D01*
X510126Y752515D01*
X510183Y752549D01*
X510243Y752574D01*
X510278Y752605D01*
X510319Y752630D01*
X510361Y752681D01*
X510409Y752725D01*
X510431Y752767D01*
X510460Y752804D01*
X510481Y752866D01*
X510512Y752925D01*
X510520Y752979D01*
X510532Y753016D01*
X510531Y753056D01*
X510539Y753110D01*
X510539Y755650D01*
X510528Y755715D01*
X510526Y755781D01*
X510508Y755824D01*
X510500Y755871D01*
X510466Y755928D01*
X510441Y755988D01*
X510410Y756023D01*
X510385Y756064D01*
X510334Y756106D01*
X510290Y756154D01*
X510248Y756176D01*
X510211Y756205D01*
X510149Y756226D01*
X510090Y756257D01*
X510036Y756265D01*
X509999Y756277D01*
X509959Y756276D01*
X509905Y756284D01*
X506095Y756284D01*
X506030Y756273D01*
X505964Y756271D01*
X505921Y756253D01*
X505874Y756245D01*
X505817Y756211D01*
X505757Y756186D01*
X505722Y756155D01*
X505681Y756130D01*
X505640Y756079D01*
X505591Y756035D01*
X505569Y755993D01*
X505540Y755956D01*
X505519Y755894D01*
X505488Y755835D01*
X505480Y755781D01*
X505468Y755744D01*
X505468Y755741D01*
X505469Y755704D01*
X505461Y755650D01*
X505461Y753110D01*
X505472Y753045D01*
X505474Y752979D01*
X505492Y752936D01*
X505500Y752889D01*
X505534Y752832D01*
X505559Y752772D01*
X505590Y752737D01*
X505615Y752696D01*
X505666Y752655D01*
X505710Y752606D01*
X505752Y752584D01*
X505789Y752555D01*
X505851Y752534D01*
X505910Y752503D01*
X505964Y752495D01*
X506001Y752483D01*
X506041Y752484D01*
X506095Y752476D01*
X509905Y752476D01*
X509970Y752487D01*
G37*
G36*
X1048450Y752487D02*
X1048450Y752487D01*
X1048516Y752489D01*
X1048559Y752507D01*
X1048606Y752515D01*
X1048663Y752549D01*
X1048723Y752574D01*
X1048758Y752605D01*
X1048799Y752630D01*
X1048841Y752681D01*
X1048889Y752725D01*
X1048911Y752767D01*
X1048940Y752804D01*
X1048961Y752866D01*
X1048992Y752925D01*
X1049000Y752979D01*
X1049012Y753016D01*
X1049011Y753056D01*
X1049019Y753110D01*
X1049019Y755650D01*
X1049008Y755715D01*
X1049006Y755781D01*
X1048988Y755824D01*
X1048980Y755871D01*
X1048946Y755928D01*
X1048921Y755988D01*
X1048890Y756023D01*
X1048865Y756064D01*
X1048814Y756106D01*
X1048770Y756154D01*
X1048728Y756176D01*
X1048691Y756205D01*
X1048629Y756226D01*
X1048570Y756257D01*
X1048516Y756265D01*
X1048479Y756277D01*
X1048439Y756276D01*
X1048385Y756284D01*
X1044575Y756284D01*
X1044510Y756273D01*
X1044444Y756271D01*
X1044401Y756253D01*
X1044354Y756245D01*
X1044297Y756211D01*
X1044237Y756186D01*
X1044202Y756155D01*
X1044161Y756130D01*
X1044120Y756079D01*
X1044071Y756035D01*
X1044049Y755993D01*
X1044020Y755956D01*
X1043999Y755894D01*
X1043968Y755835D01*
X1043960Y755781D01*
X1043948Y755744D01*
X1043948Y755741D01*
X1043949Y755704D01*
X1043941Y755650D01*
X1043941Y753110D01*
X1043952Y753045D01*
X1043954Y752979D01*
X1043972Y752936D01*
X1043980Y752889D01*
X1044014Y752832D01*
X1044039Y752772D01*
X1044070Y752737D01*
X1044095Y752696D01*
X1044146Y752655D01*
X1044190Y752606D01*
X1044232Y752584D01*
X1044269Y752555D01*
X1044331Y752534D01*
X1044390Y752503D01*
X1044444Y752495D01*
X1044481Y752483D01*
X1044521Y752484D01*
X1044575Y752476D01*
X1048385Y752476D01*
X1048450Y752487D01*
G37*
G36*
X1048450Y727087D02*
X1048450Y727087D01*
X1048516Y727089D01*
X1048559Y727107D01*
X1048606Y727115D01*
X1048663Y727149D01*
X1048723Y727174D01*
X1048758Y727205D01*
X1048799Y727230D01*
X1048841Y727281D01*
X1048889Y727325D01*
X1048911Y727367D01*
X1048940Y727404D01*
X1048961Y727466D01*
X1048992Y727525D01*
X1049000Y727579D01*
X1049012Y727616D01*
X1049011Y727656D01*
X1049019Y727710D01*
X1049019Y730250D01*
X1049008Y730315D01*
X1049006Y730381D01*
X1048988Y730424D01*
X1048980Y730471D01*
X1048946Y730528D01*
X1048921Y730588D01*
X1048890Y730623D01*
X1048865Y730664D01*
X1048814Y730706D01*
X1048770Y730754D01*
X1048728Y730776D01*
X1048691Y730805D01*
X1048629Y730826D01*
X1048570Y730857D01*
X1048516Y730865D01*
X1048479Y730877D01*
X1048439Y730876D01*
X1048385Y730884D01*
X1044575Y730884D01*
X1044510Y730873D01*
X1044444Y730871D01*
X1044401Y730853D01*
X1044354Y730845D01*
X1044297Y730811D01*
X1044237Y730786D01*
X1044202Y730755D01*
X1044161Y730730D01*
X1044120Y730679D01*
X1044071Y730635D01*
X1044049Y730593D01*
X1044020Y730556D01*
X1043999Y730494D01*
X1043968Y730435D01*
X1043960Y730381D01*
X1043948Y730344D01*
X1043948Y730341D01*
X1043949Y730304D01*
X1043941Y730250D01*
X1043941Y727710D01*
X1043952Y727645D01*
X1043954Y727579D01*
X1043972Y727536D01*
X1043980Y727489D01*
X1044014Y727432D01*
X1044039Y727372D01*
X1044070Y727337D01*
X1044095Y727296D01*
X1044146Y727255D01*
X1044190Y727206D01*
X1044232Y727184D01*
X1044269Y727155D01*
X1044331Y727134D01*
X1044390Y727103D01*
X1044444Y727095D01*
X1044481Y727083D01*
X1044521Y727084D01*
X1044575Y727076D01*
X1048385Y727076D01*
X1048450Y727087D01*
G37*
G36*
X509970Y727087D02*
X509970Y727087D01*
X510036Y727089D01*
X510079Y727107D01*
X510126Y727115D01*
X510183Y727149D01*
X510243Y727174D01*
X510278Y727205D01*
X510319Y727230D01*
X510361Y727281D01*
X510409Y727325D01*
X510431Y727367D01*
X510460Y727404D01*
X510481Y727466D01*
X510512Y727525D01*
X510520Y727579D01*
X510532Y727616D01*
X510531Y727656D01*
X510539Y727710D01*
X510539Y730250D01*
X510528Y730315D01*
X510526Y730381D01*
X510508Y730424D01*
X510500Y730471D01*
X510466Y730528D01*
X510441Y730588D01*
X510410Y730623D01*
X510385Y730664D01*
X510334Y730706D01*
X510290Y730754D01*
X510248Y730776D01*
X510211Y730805D01*
X510149Y730826D01*
X510090Y730857D01*
X510036Y730865D01*
X509999Y730877D01*
X509959Y730876D01*
X509905Y730884D01*
X506095Y730884D01*
X506030Y730873D01*
X505964Y730871D01*
X505921Y730853D01*
X505874Y730845D01*
X505817Y730811D01*
X505757Y730786D01*
X505722Y730755D01*
X505681Y730730D01*
X505640Y730679D01*
X505591Y730635D01*
X505569Y730593D01*
X505540Y730556D01*
X505519Y730494D01*
X505488Y730435D01*
X505480Y730381D01*
X505468Y730344D01*
X505468Y730341D01*
X505469Y730304D01*
X505461Y730250D01*
X505461Y727710D01*
X505472Y727645D01*
X505474Y727579D01*
X505492Y727536D01*
X505500Y727489D01*
X505534Y727432D01*
X505559Y727372D01*
X505590Y727337D01*
X505615Y727296D01*
X505666Y727255D01*
X505710Y727206D01*
X505752Y727184D01*
X505789Y727155D01*
X505851Y727134D01*
X505910Y727103D01*
X505964Y727095D01*
X506001Y727083D01*
X506041Y727084D01*
X506095Y727076D01*
X509905Y727076D01*
X509970Y727087D01*
G37*
G36*
X134050Y714387D02*
X134050Y714387D01*
X134116Y714389D01*
X134159Y714407D01*
X134206Y714415D01*
X134263Y714449D01*
X134323Y714474D01*
X134358Y714505D01*
X134399Y714530D01*
X134441Y714581D01*
X134489Y714625D01*
X134511Y714667D01*
X134540Y714704D01*
X134561Y714766D01*
X134592Y714825D01*
X134600Y714879D01*
X134612Y714916D01*
X134611Y714956D01*
X134619Y715010D01*
X134619Y717550D01*
X134608Y717615D01*
X134606Y717681D01*
X134588Y717724D01*
X134580Y717771D01*
X134546Y717828D01*
X134521Y717888D01*
X134490Y717923D01*
X134465Y717964D01*
X134414Y718006D01*
X134370Y718054D01*
X134328Y718076D01*
X134291Y718105D01*
X134229Y718126D01*
X134170Y718157D01*
X134116Y718165D01*
X134079Y718177D01*
X134039Y718176D01*
X133985Y718184D01*
X130175Y718184D01*
X130110Y718173D01*
X130044Y718171D01*
X130001Y718153D01*
X129954Y718145D01*
X129897Y718111D01*
X129837Y718086D01*
X129802Y718055D01*
X129761Y718030D01*
X129720Y717979D01*
X129671Y717935D01*
X129649Y717893D01*
X129620Y717856D01*
X129599Y717794D01*
X129568Y717735D01*
X129560Y717681D01*
X129548Y717644D01*
X129548Y717641D01*
X129549Y717604D01*
X129541Y717550D01*
X129541Y715010D01*
X129552Y714945D01*
X129554Y714879D01*
X129572Y714836D01*
X129580Y714789D01*
X129614Y714732D01*
X129639Y714672D01*
X129670Y714637D01*
X129695Y714596D01*
X129746Y714555D01*
X129790Y714506D01*
X129832Y714484D01*
X129869Y714455D01*
X129931Y714434D01*
X129990Y714403D01*
X130044Y714395D01*
X130081Y714383D01*
X130121Y714384D01*
X130175Y714376D01*
X133985Y714376D01*
X134050Y714387D01*
G37*
G36*
X123890Y714387D02*
X123890Y714387D01*
X123956Y714389D01*
X123999Y714407D01*
X124046Y714415D01*
X124103Y714449D01*
X124163Y714474D01*
X124198Y714505D01*
X124239Y714530D01*
X124281Y714581D01*
X124329Y714625D01*
X124351Y714667D01*
X124380Y714704D01*
X124401Y714766D01*
X124432Y714825D01*
X124440Y714879D01*
X124452Y714916D01*
X124451Y714956D01*
X124459Y715010D01*
X124459Y717550D01*
X124448Y717615D01*
X124446Y717681D01*
X124428Y717724D01*
X124420Y717771D01*
X124386Y717828D01*
X124361Y717888D01*
X124330Y717923D01*
X124305Y717964D01*
X124254Y718006D01*
X124210Y718054D01*
X124168Y718076D01*
X124131Y718105D01*
X124069Y718126D01*
X124010Y718157D01*
X123956Y718165D01*
X123919Y718177D01*
X123879Y718176D01*
X123825Y718184D01*
X120015Y718184D01*
X119950Y718173D01*
X119884Y718171D01*
X119841Y718153D01*
X119794Y718145D01*
X119737Y718111D01*
X119677Y718086D01*
X119642Y718055D01*
X119601Y718030D01*
X119560Y717979D01*
X119511Y717935D01*
X119489Y717893D01*
X119460Y717856D01*
X119439Y717794D01*
X119408Y717735D01*
X119400Y717681D01*
X119388Y717644D01*
X119388Y717641D01*
X119389Y717604D01*
X119381Y717550D01*
X119381Y715010D01*
X119392Y714945D01*
X119394Y714879D01*
X119412Y714836D01*
X119420Y714789D01*
X119454Y714732D01*
X119479Y714672D01*
X119510Y714637D01*
X119535Y714596D01*
X119586Y714555D01*
X119630Y714506D01*
X119672Y714484D01*
X119709Y714455D01*
X119771Y714434D01*
X119830Y714403D01*
X119884Y714395D01*
X119921Y714383D01*
X119961Y714384D01*
X120015Y714376D01*
X123825Y714376D01*
X123890Y714387D01*
G37*
G36*
X672530Y714387D02*
X672530Y714387D01*
X672596Y714389D01*
X672639Y714407D01*
X672686Y714415D01*
X672743Y714449D01*
X672803Y714474D01*
X672838Y714505D01*
X672879Y714530D01*
X672921Y714581D01*
X672969Y714625D01*
X672991Y714667D01*
X673020Y714704D01*
X673041Y714766D01*
X673072Y714825D01*
X673080Y714879D01*
X673092Y714916D01*
X673091Y714956D01*
X673099Y715010D01*
X673099Y717550D01*
X673088Y717615D01*
X673086Y717681D01*
X673068Y717724D01*
X673060Y717771D01*
X673026Y717828D01*
X673001Y717888D01*
X672970Y717923D01*
X672945Y717964D01*
X672894Y718006D01*
X672850Y718054D01*
X672808Y718076D01*
X672771Y718105D01*
X672709Y718126D01*
X672650Y718157D01*
X672596Y718165D01*
X672559Y718177D01*
X672519Y718176D01*
X672465Y718184D01*
X668655Y718184D01*
X668590Y718173D01*
X668524Y718171D01*
X668481Y718153D01*
X668434Y718145D01*
X668377Y718111D01*
X668317Y718086D01*
X668282Y718055D01*
X668241Y718030D01*
X668200Y717979D01*
X668151Y717935D01*
X668129Y717893D01*
X668100Y717856D01*
X668079Y717794D01*
X668048Y717735D01*
X668040Y717681D01*
X668028Y717644D01*
X668028Y717641D01*
X668029Y717604D01*
X668021Y717550D01*
X668021Y715010D01*
X668032Y714945D01*
X668034Y714879D01*
X668052Y714836D01*
X668060Y714789D01*
X668094Y714732D01*
X668119Y714672D01*
X668150Y714637D01*
X668175Y714596D01*
X668226Y714555D01*
X668270Y714506D01*
X668312Y714484D01*
X668349Y714455D01*
X668411Y714434D01*
X668470Y714403D01*
X668524Y714395D01*
X668561Y714383D01*
X668601Y714384D01*
X668655Y714376D01*
X672465Y714376D01*
X672530Y714387D01*
G37*
G36*
X662370Y714387D02*
X662370Y714387D01*
X662436Y714389D01*
X662479Y714407D01*
X662526Y714415D01*
X662583Y714449D01*
X662643Y714474D01*
X662678Y714505D01*
X662719Y714530D01*
X662761Y714581D01*
X662809Y714625D01*
X662831Y714667D01*
X662860Y714704D01*
X662881Y714766D01*
X662912Y714825D01*
X662920Y714879D01*
X662932Y714916D01*
X662931Y714956D01*
X662939Y715010D01*
X662939Y717550D01*
X662928Y717615D01*
X662926Y717681D01*
X662908Y717724D01*
X662900Y717771D01*
X662866Y717828D01*
X662841Y717888D01*
X662810Y717923D01*
X662785Y717964D01*
X662734Y718006D01*
X662690Y718054D01*
X662648Y718076D01*
X662611Y718105D01*
X662549Y718126D01*
X662490Y718157D01*
X662436Y718165D01*
X662399Y718177D01*
X662359Y718176D01*
X662305Y718184D01*
X658495Y718184D01*
X658430Y718173D01*
X658364Y718171D01*
X658321Y718153D01*
X658274Y718145D01*
X658217Y718111D01*
X658157Y718086D01*
X658122Y718055D01*
X658081Y718030D01*
X658040Y717979D01*
X657991Y717935D01*
X657969Y717893D01*
X657940Y717856D01*
X657919Y717794D01*
X657888Y717735D01*
X657880Y717681D01*
X657868Y717644D01*
X657868Y717641D01*
X657869Y717604D01*
X657861Y717550D01*
X657861Y715010D01*
X657872Y714945D01*
X657874Y714879D01*
X657892Y714836D01*
X657900Y714789D01*
X657934Y714732D01*
X657959Y714672D01*
X657990Y714637D01*
X658015Y714596D01*
X658066Y714555D01*
X658110Y714506D01*
X658152Y714484D01*
X658189Y714455D01*
X658251Y714434D01*
X658310Y714403D01*
X658364Y714395D01*
X658401Y714383D01*
X658441Y714384D01*
X658495Y714376D01*
X662305Y714376D01*
X662370Y714387D01*
G37*
G36*
X712916Y657999D02*
X712916Y657999D01*
X712982Y658001D01*
X713025Y658019D01*
X713072Y658027D01*
X713129Y658061D01*
X713189Y658086D01*
X713224Y658117D01*
X713265Y658142D01*
X713307Y658193D01*
X713355Y658237D01*
X713377Y658279D01*
X713406Y658316D01*
X713427Y658378D01*
X713458Y658437D01*
X713466Y658491D01*
X713478Y658528D01*
X713477Y658568D01*
X713485Y658622D01*
X713485Y661162D01*
X713474Y661227D01*
X713472Y661293D01*
X713454Y661336D01*
X713446Y661383D01*
X713412Y661440D01*
X713387Y661500D01*
X713356Y661535D01*
X713331Y661576D01*
X713280Y661618D01*
X713236Y661666D01*
X713194Y661688D01*
X713157Y661717D01*
X713095Y661738D01*
X713036Y661769D01*
X712982Y661777D01*
X712945Y661789D01*
X712905Y661788D01*
X712851Y661796D01*
X709041Y661796D01*
X708976Y661785D01*
X708910Y661783D01*
X708867Y661765D01*
X708820Y661757D01*
X708763Y661723D01*
X708703Y661698D01*
X708668Y661667D01*
X708627Y661642D01*
X708586Y661591D01*
X708537Y661547D01*
X708515Y661505D01*
X708486Y661468D01*
X708465Y661406D01*
X708434Y661347D01*
X708426Y661293D01*
X708414Y661256D01*
X708414Y661253D01*
X708415Y661216D01*
X708407Y661162D01*
X708407Y658622D01*
X708418Y658557D01*
X708420Y658491D01*
X708438Y658448D01*
X708446Y658401D01*
X708480Y658344D01*
X708505Y658284D01*
X708536Y658249D01*
X708561Y658208D01*
X708612Y658167D01*
X708656Y658118D01*
X708698Y658096D01*
X708735Y658067D01*
X708797Y658046D01*
X708856Y658015D01*
X708910Y658007D01*
X708947Y657995D01*
X708987Y657996D01*
X709041Y657988D01*
X712851Y657988D01*
X712916Y657999D01*
G37*
G36*
X174436Y657999D02*
X174436Y657999D01*
X174502Y658001D01*
X174545Y658019D01*
X174592Y658027D01*
X174649Y658061D01*
X174709Y658086D01*
X174744Y658117D01*
X174785Y658142D01*
X174827Y658193D01*
X174875Y658237D01*
X174897Y658279D01*
X174926Y658316D01*
X174947Y658378D01*
X174978Y658437D01*
X174986Y658491D01*
X174998Y658528D01*
X174997Y658568D01*
X175005Y658622D01*
X175005Y661162D01*
X174994Y661227D01*
X174992Y661293D01*
X174974Y661336D01*
X174966Y661383D01*
X174932Y661440D01*
X174907Y661500D01*
X174876Y661535D01*
X174851Y661576D01*
X174800Y661618D01*
X174756Y661666D01*
X174714Y661688D01*
X174677Y661717D01*
X174615Y661738D01*
X174556Y661769D01*
X174502Y661777D01*
X174465Y661789D01*
X174425Y661788D01*
X174371Y661796D01*
X170561Y661796D01*
X170496Y661785D01*
X170430Y661783D01*
X170387Y661765D01*
X170340Y661757D01*
X170283Y661723D01*
X170223Y661698D01*
X170188Y661667D01*
X170147Y661642D01*
X170106Y661591D01*
X170057Y661547D01*
X170035Y661505D01*
X170006Y661468D01*
X169985Y661406D01*
X169954Y661347D01*
X169946Y661293D01*
X169934Y661256D01*
X169934Y661253D01*
X169935Y661216D01*
X169927Y661162D01*
X169927Y658622D01*
X169938Y658557D01*
X169940Y658491D01*
X169958Y658448D01*
X169966Y658401D01*
X170000Y658344D01*
X170025Y658284D01*
X170056Y658249D01*
X170081Y658208D01*
X170132Y658167D01*
X170176Y658118D01*
X170218Y658096D01*
X170255Y658067D01*
X170317Y658046D01*
X170376Y658015D01*
X170430Y658007D01*
X170467Y657995D01*
X170507Y657996D01*
X170561Y657988D01*
X174371Y657988D01*
X174436Y657999D01*
G37*
G36*
X928054Y656221D02*
X928054Y656221D01*
X928120Y656223D01*
X928163Y656241D01*
X928210Y656249D01*
X928267Y656283D01*
X928327Y656308D01*
X928362Y656339D01*
X928403Y656364D01*
X928445Y656415D01*
X928493Y656459D01*
X928515Y656501D01*
X928544Y656538D01*
X928565Y656600D01*
X928596Y656659D01*
X928604Y656713D01*
X928616Y656750D01*
X928615Y656790D01*
X928623Y656844D01*
X928623Y659384D01*
X928612Y659449D01*
X928610Y659515D01*
X928592Y659558D01*
X928584Y659605D01*
X928550Y659662D01*
X928525Y659722D01*
X928494Y659757D01*
X928469Y659798D01*
X928418Y659840D01*
X928374Y659888D01*
X928332Y659910D01*
X928295Y659939D01*
X928233Y659960D01*
X928174Y659991D01*
X928120Y659999D01*
X928083Y660011D01*
X928043Y660010D01*
X927989Y660018D01*
X924179Y660018D01*
X924114Y660007D01*
X924048Y660005D01*
X924005Y659987D01*
X923958Y659979D01*
X923901Y659945D01*
X923841Y659920D01*
X923806Y659889D01*
X923765Y659864D01*
X923724Y659813D01*
X923675Y659769D01*
X923653Y659727D01*
X923624Y659690D01*
X923603Y659628D01*
X923572Y659569D01*
X923564Y659515D01*
X923552Y659478D01*
X923552Y659475D01*
X923553Y659438D01*
X923545Y659384D01*
X923545Y656844D01*
X923556Y656779D01*
X923558Y656713D01*
X923576Y656670D01*
X923584Y656623D01*
X923618Y656566D01*
X923643Y656506D01*
X923674Y656471D01*
X923699Y656430D01*
X923750Y656389D01*
X923794Y656340D01*
X923836Y656318D01*
X923873Y656289D01*
X923935Y656268D01*
X923994Y656237D01*
X924048Y656229D01*
X924085Y656217D01*
X924125Y656218D01*
X924179Y656210D01*
X927989Y656210D01*
X928054Y656221D01*
G37*
G36*
X389574Y656221D02*
X389574Y656221D01*
X389640Y656223D01*
X389683Y656241D01*
X389730Y656249D01*
X389787Y656283D01*
X389847Y656308D01*
X389882Y656339D01*
X389923Y656364D01*
X389965Y656415D01*
X390013Y656459D01*
X390035Y656501D01*
X390064Y656538D01*
X390085Y656600D01*
X390116Y656659D01*
X390124Y656713D01*
X390136Y656750D01*
X390135Y656790D01*
X390143Y656844D01*
X390143Y659384D01*
X390132Y659449D01*
X390130Y659515D01*
X390112Y659558D01*
X390104Y659605D01*
X390070Y659662D01*
X390045Y659722D01*
X390014Y659757D01*
X389989Y659798D01*
X389938Y659840D01*
X389894Y659888D01*
X389852Y659910D01*
X389815Y659939D01*
X389753Y659960D01*
X389694Y659991D01*
X389640Y659999D01*
X389603Y660011D01*
X389563Y660010D01*
X389509Y660018D01*
X385699Y660018D01*
X385634Y660007D01*
X385568Y660005D01*
X385525Y659987D01*
X385478Y659979D01*
X385421Y659945D01*
X385361Y659920D01*
X385326Y659889D01*
X385285Y659864D01*
X385244Y659813D01*
X385195Y659769D01*
X385173Y659727D01*
X385144Y659690D01*
X385123Y659628D01*
X385092Y659569D01*
X385084Y659515D01*
X385072Y659478D01*
X385072Y659475D01*
X385073Y659438D01*
X385065Y659384D01*
X385065Y656844D01*
X385076Y656779D01*
X385078Y656713D01*
X385096Y656670D01*
X385104Y656623D01*
X385138Y656566D01*
X385163Y656506D01*
X385194Y656471D01*
X385219Y656430D01*
X385270Y656389D01*
X385314Y656340D01*
X385356Y656318D01*
X385393Y656289D01*
X385455Y656268D01*
X385514Y656237D01*
X385568Y656229D01*
X385605Y656217D01*
X385645Y656218D01*
X385699Y656210D01*
X389509Y656210D01*
X389574Y656221D01*
G37*
G36*
X422594Y655967D02*
X422594Y655967D01*
X422660Y655969D01*
X422703Y655987D01*
X422750Y655995D01*
X422807Y656029D01*
X422867Y656054D01*
X422902Y656085D01*
X422943Y656110D01*
X422985Y656161D01*
X423033Y656205D01*
X423055Y656247D01*
X423084Y656284D01*
X423105Y656346D01*
X423136Y656405D01*
X423144Y656459D01*
X423156Y656496D01*
X423155Y656536D01*
X423163Y656590D01*
X423163Y659130D01*
X423152Y659195D01*
X423150Y659261D01*
X423132Y659304D01*
X423124Y659351D01*
X423090Y659408D01*
X423065Y659468D01*
X423034Y659503D01*
X423009Y659544D01*
X422958Y659586D01*
X422914Y659634D01*
X422872Y659656D01*
X422835Y659685D01*
X422773Y659706D01*
X422714Y659737D01*
X422660Y659745D01*
X422623Y659757D01*
X422583Y659756D01*
X422529Y659764D01*
X418719Y659764D01*
X418654Y659753D01*
X418588Y659751D01*
X418545Y659733D01*
X418498Y659725D01*
X418441Y659691D01*
X418381Y659666D01*
X418346Y659635D01*
X418305Y659610D01*
X418264Y659559D01*
X418215Y659515D01*
X418193Y659473D01*
X418164Y659436D01*
X418143Y659374D01*
X418112Y659315D01*
X418104Y659261D01*
X418092Y659224D01*
X418092Y659221D01*
X418093Y659184D01*
X418085Y659130D01*
X418085Y656590D01*
X418096Y656525D01*
X418098Y656459D01*
X418116Y656416D01*
X418124Y656369D01*
X418158Y656312D01*
X418183Y656252D01*
X418214Y656217D01*
X418239Y656176D01*
X418290Y656135D01*
X418334Y656086D01*
X418376Y656064D01*
X418413Y656035D01*
X418475Y656014D01*
X418534Y655983D01*
X418588Y655975D01*
X418625Y655963D01*
X418665Y655964D01*
X418719Y655956D01*
X422529Y655956D01*
X422594Y655967D01*
G37*
G36*
X961074Y655967D02*
X961074Y655967D01*
X961140Y655969D01*
X961183Y655987D01*
X961230Y655995D01*
X961287Y656029D01*
X961347Y656054D01*
X961382Y656085D01*
X961423Y656110D01*
X961465Y656161D01*
X961513Y656205D01*
X961535Y656247D01*
X961564Y656284D01*
X961585Y656346D01*
X961616Y656405D01*
X961624Y656459D01*
X961636Y656496D01*
X961635Y656536D01*
X961643Y656590D01*
X961643Y659130D01*
X961632Y659195D01*
X961630Y659261D01*
X961612Y659304D01*
X961604Y659351D01*
X961570Y659408D01*
X961545Y659468D01*
X961514Y659503D01*
X961489Y659544D01*
X961438Y659586D01*
X961394Y659634D01*
X961352Y659656D01*
X961315Y659685D01*
X961253Y659706D01*
X961194Y659737D01*
X961140Y659745D01*
X961103Y659757D01*
X961063Y659756D01*
X961009Y659764D01*
X957199Y659764D01*
X957134Y659753D01*
X957068Y659751D01*
X957025Y659733D01*
X956978Y659725D01*
X956921Y659691D01*
X956861Y659666D01*
X956826Y659635D01*
X956785Y659610D01*
X956744Y659559D01*
X956695Y659515D01*
X956673Y659473D01*
X956644Y659436D01*
X956623Y659374D01*
X956592Y659315D01*
X956584Y659261D01*
X956572Y659224D01*
X956572Y659221D01*
X956573Y659184D01*
X956565Y659130D01*
X956565Y656590D01*
X956576Y656525D01*
X956578Y656459D01*
X956596Y656416D01*
X956604Y656369D01*
X956638Y656312D01*
X956663Y656252D01*
X956694Y656217D01*
X956719Y656176D01*
X956770Y656135D01*
X956814Y656086D01*
X956856Y656064D01*
X956893Y656035D01*
X956955Y656014D01*
X957014Y655983D01*
X957068Y655975D01*
X957105Y655963D01*
X957145Y655964D01*
X957199Y655956D01*
X961009Y655956D01*
X961074Y655967D01*
G37*
G36*
X1048450Y150507D02*
X1048450Y150507D01*
X1048516Y150509D01*
X1048559Y150527D01*
X1048606Y150535D01*
X1048663Y150569D01*
X1048723Y150594D01*
X1048758Y150625D01*
X1048799Y150650D01*
X1048841Y150701D01*
X1048889Y150745D01*
X1048911Y150787D01*
X1048940Y150824D01*
X1048961Y150886D01*
X1048992Y150945D01*
X1049000Y150999D01*
X1049012Y151036D01*
X1049011Y151076D01*
X1049019Y151130D01*
X1049019Y153670D01*
X1049008Y153735D01*
X1049006Y153801D01*
X1048988Y153844D01*
X1048980Y153891D01*
X1048946Y153948D01*
X1048921Y154008D01*
X1048890Y154043D01*
X1048865Y154084D01*
X1048814Y154126D01*
X1048770Y154174D01*
X1048728Y154196D01*
X1048691Y154225D01*
X1048629Y154246D01*
X1048570Y154277D01*
X1048516Y154285D01*
X1048479Y154297D01*
X1048439Y154296D01*
X1048385Y154304D01*
X1044575Y154304D01*
X1044510Y154293D01*
X1044444Y154291D01*
X1044401Y154273D01*
X1044354Y154265D01*
X1044297Y154231D01*
X1044237Y154206D01*
X1044202Y154175D01*
X1044161Y154150D01*
X1044120Y154099D01*
X1044071Y154055D01*
X1044049Y154013D01*
X1044020Y153976D01*
X1043999Y153914D01*
X1043968Y153855D01*
X1043960Y153801D01*
X1043948Y153764D01*
X1043948Y153761D01*
X1043949Y153724D01*
X1043941Y153670D01*
X1043941Y151130D01*
X1043952Y151065D01*
X1043954Y150999D01*
X1043972Y150956D01*
X1043980Y150909D01*
X1044014Y150852D01*
X1044039Y150792D01*
X1044070Y150757D01*
X1044095Y150716D01*
X1044146Y150675D01*
X1044190Y150626D01*
X1044232Y150604D01*
X1044269Y150575D01*
X1044331Y150554D01*
X1044390Y150523D01*
X1044444Y150515D01*
X1044481Y150503D01*
X1044521Y150504D01*
X1044575Y150496D01*
X1048385Y150496D01*
X1048450Y150507D01*
G37*
G36*
X509970Y150507D02*
X509970Y150507D01*
X510036Y150509D01*
X510079Y150527D01*
X510126Y150535D01*
X510183Y150569D01*
X510243Y150594D01*
X510278Y150625D01*
X510319Y150650D01*
X510361Y150701D01*
X510409Y150745D01*
X510431Y150787D01*
X510460Y150824D01*
X510481Y150886D01*
X510512Y150945D01*
X510520Y150999D01*
X510532Y151036D01*
X510531Y151076D01*
X510539Y151130D01*
X510539Y153670D01*
X510528Y153735D01*
X510526Y153801D01*
X510508Y153844D01*
X510500Y153891D01*
X510466Y153948D01*
X510441Y154008D01*
X510410Y154043D01*
X510385Y154084D01*
X510334Y154126D01*
X510290Y154174D01*
X510248Y154196D01*
X510211Y154225D01*
X510149Y154246D01*
X510090Y154277D01*
X510036Y154285D01*
X509999Y154297D01*
X509959Y154296D01*
X509905Y154304D01*
X506095Y154304D01*
X506030Y154293D01*
X505964Y154291D01*
X505921Y154273D01*
X505874Y154265D01*
X505817Y154231D01*
X505757Y154206D01*
X505722Y154175D01*
X505681Y154150D01*
X505640Y154099D01*
X505591Y154055D01*
X505569Y154013D01*
X505540Y153976D01*
X505519Y153914D01*
X505488Y153855D01*
X505480Y153801D01*
X505468Y153764D01*
X505468Y153761D01*
X505469Y153724D01*
X505461Y153670D01*
X505461Y151130D01*
X505472Y151065D01*
X505474Y150999D01*
X505492Y150956D01*
X505500Y150909D01*
X505534Y150852D01*
X505559Y150792D01*
X505590Y150757D01*
X505615Y150716D01*
X505666Y150675D01*
X505710Y150626D01*
X505752Y150604D01*
X505789Y150575D01*
X505851Y150554D01*
X505910Y150523D01*
X505964Y150515D01*
X506001Y150503D01*
X506041Y150504D01*
X506095Y150496D01*
X509905Y150496D01*
X509970Y150507D01*
G37*
G36*
X1048450Y125107D02*
X1048450Y125107D01*
X1048516Y125109D01*
X1048559Y125127D01*
X1048606Y125135D01*
X1048663Y125169D01*
X1048723Y125194D01*
X1048758Y125225D01*
X1048799Y125250D01*
X1048841Y125301D01*
X1048889Y125345D01*
X1048911Y125387D01*
X1048940Y125424D01*
X1048961Y125486D01*
X1048992Y125545D01*
X1049000Y125599D01*
X1049012Y125636D01*
X1049011Y125676D01*
X1049019Y125730D01*
X1049019Y128270D01*
X1049008Y128335D01*
X1049006Y128401D01*
X1048988Y128444D01*
X1048980Y128491D01*
X1048946Y128548D01*
X1048921Y128608D01*
X1048890Y128643D01*
X1048865Y128684D01*
X1048814Y128726D01*
X1048770Y128774D01*
X1048728Y128796D01*
X1048691Y128825D01*
X1048629Y128846D01*
X1048570Y128877D01*
X1048516Y128885D01*
X1048479Y128897D01*
X1048439Y128896D01*
X1048385Y128904D01*
X1044575Y128904D01*
X1044510Y128893D01*
X1044444Y128891D01*
X1044401Y128873D01*
X1044354Y128865D01*
X1044297Y128831D01*
X1044237Y128806D01*
X1044202Y128775D01*
X1044161Y128750D01*
X1044120Y128699D01*
X1044071Y128655D01*
X1044049Y128613D01*
X1044020Y128576D01*
X1043999Y128514D01*
X1043968Y128455D01*
X1043960Y128401D01*
X1043948Y128364D01*
X1043948Y128361D01*
X1043949Y128324D01*
X1043941Y128270D01*
X1043941Y125730D01*
X1043952Y125665D01*
X1043954Y125599D01*
X1043972Y125556D01*
X1043980Y125509D01*
X1044014Y125452D01*
X1044039Y125392D01*
X1044070Y125357D01*
X1044095Y125316D01*
X1044146Y125275D01*
X1044190Y125226D01*
X1044232Y125204D01*
X1044269Y125175D01*
X1044331Y125154D01*
X1044390Y125123D01*
X1044444Y125115D01*
X1044481Y125103D01*
X1044521Y125104D01*
X1044575Y125096D01*
X1048385Y125096D01*
X1048450Y125107D01*
G37*
G36*
X509970Y125107D02*
X509970Y125107D01*
X510036Y125109D01*
X510079Y125127D01*
X510126Y125135D01*
X510183Y125169D01*
X510243Y125194D01*
X510278Y125225D01*
X510319Y125250D01*
X510361Y125301D01*
X510409Y125345D01*
X510431Y125387D01*
X510460Y125424D01*
X510481Y125486D01*
X510512Y125545D01*
X510520Y125599D01*
X510532Y125636D01*
X510531Y125676D01*
X510539Y125730D01*
X510539Y128270D01*
X510528Y128335D01*
X510526Y128401D01*
X510508Y128444D01*
X510500Y128491D01*
X510466Y128548D01*
X510441Y128608D01*
X510410Y128643D01*
X510385Y128684D01*
X510334Y128726D01*
X510290Y128774D01*
X510248Y128796D01*
X510211Y128825D01*
X510149Y128846D01*
X510090Y128877D01*
X510036Y128885D01*
X509999Y128897D01*
X509959Y128896D01*
X509905Y128904D01*
X506095Y128904D01*
X506030Y128893D01*
X505964Y128891D01*
X505921Y128873D01*
X505874Y128865D01*
X505817Y128831D01*
X505757Y128806D01*
X505722Y128775D01*
X505681Y128750D01*
X505640Y128699D01*
X505591Y128655D01*
X505569Y128613D01*
X505540Y128576D01*
X505519Y128514D01*
X505488Y128455D01*
X505480Y128401D01*
X505468Y128364D01*
X505468Y128361D01*
X505469Y128324D01*
X505461Y128270D01*
X505461Y125730D01*
X505472Y125665D01*
X505474Y125599D01*
X505492Y125556D01*
X505500Y125509D01*
X505534Y125452D01*
X505559Y125392D01*
X505590Y125357D01*
X505615Y125316D01*
X505666Y125275D01*
X505710Y125226D01*
X505752Y125204D01*
X505789Y125175D01*
X505851Y125154D01*
X505910Y125123D01*
X505964Y125115D01*
X506001Y125103D01*
X506041Y125104D01*
X506095Y125096D01*
X509905Y125096D01*
X509970Y125107D01*
G37*
G36*
X509970Y99707D02*
X509970Y99707D01*
X510036Y99709D01*
X510079Y99727D01*
X510126Y99735D01*
X510183Y99769D01*
X510243Y99794D01*
X510278Y99825D01*
X510319Y99850D01*
X510361Y99901D01*
X510409Y99945D01*
X510431Y99987D01*
X510460Y100024D01*
X510481Y100086D01*
X510512Y100145D01*
X510520Y100199D01*
X510532Y100236D01*
X510531Y100276D01*
X510539Y100330D01*
X510539Y102870D01*
X510528Y102935D01*
X510526Y103001D01*
X510508Y103044D01*
X510500Y103091D01*
X510466Y103148D01*
X510441Y103208D01*
X510410Y103243D01*
X510385Y103284D01*
X510334Y103326D01*
X510290Y103374D01*
X510248Y103396D01*
X510211Y103425D01*
X510149Y103446D01*
X510090Y103477D01*
X510036Y103485D01*
X509999Y103497D01*
X509959Y103496D01*
X509905Y103504D01*
X506095Y103504D01*
X506030Y103493D01*
X505964Y103491D01*
X505921Y103473D01*
X505874Y103465D01*
X505817Y103431D01*
X505757Y103406D01*
X505722Y103375D01*
X505681Y103350D01*
X505640Y103299D01*
X505591Y103255D01*
X505569Y103213D01*
X505540Y103176D01*
X505519Y103114D01*
X505488Y103055D01*
X505480Y103001D01*
X505468Y102964D01*
X505468Y102961D01*
X505469Y102924D01*
X505461Y102870D01*
X505461Y100330D01*
X505472Y100265D01*
X505474Y100199D01*
X505492Y100156D01*
X505500Y100109D01*
X505534Y100052D01*
X505559Y99992D01*
X505590Y99957D01*
X505615Y99916D01*
X505666Y99875D01*
X505710Y99826D01*
X505752Y99804D01*
X505789Y99775D01*
X505851Y99754D01*
X505910Y99723D01*
X505964Y99715D01*
X506001Y99703D01*
X506041Y99704D01*
X506095Y99696D01*
X509905Y99696D01*
X509970Y99707D01*
G37*
G36*
X1048450Y99707D02*
X1048450Y99707D01*
X1048516Y99709D01*
X1048559Y99727D01*
X1048606Y99735D01*
X1048663Y99769D01*
X1048723Y99794D01*
X1048758Y99825D01*
X1048799Y99850D01*
X1048841Y99901D01*
X1048889Y99945D01*
X1048911Y99987D01*
X1048940Y100024D01*
X1048961Y100086D01*
X1048992Y100145D01*
X1049000Y100199D01*
X1049012Y100236D01*
X1049011Y100276D01*
X1049019Y100330D01*
X1049019Y102870D01*
X1049008Y102935D01*
X1049006Y103001D01*
X1048988Y103044D01*
X1048980Y103091D01*
X1048946Y103148D01*
X1048921Y103208D01*
X1048890Y103243D01*
X1048865Y103284D01*
X1048814Y103326D01*
X1048770Y103374D01*
X1048728Y103396D01*
X1048691Y103425D01*
X1048629Y103446D01*
X1048570Y103477D01*
X1048516Y103485D01*
X1048479Y103497D01*
X1048439Y103496D01*
X1048385Y103504D01*
X1044575Y103504D01*
X1044510Y103493D01*
X1044444Y103491D01*
X1044401Y103473D01*
X1044354Y103465D01*
X1044297Y103431D01*
X1044237Y103406D01*
X1044202Y103375D01*
X1044161Y103350D01*
X1044120Y103299D01*
X1044071Y103255D01*
X1044049Y103213D01*
X1044020Y103176D01*
X1043999Y103114D01*
X1043968Y103055D01*
X1043960Y103001D01*
X1043948Y102964D01*
X1043948Y102961D01*
X1043949Y102924D01*
X1043941Y102870D01*
X1043941Y100330D01*
X1043952Y100265D01*
X1043954Y100199D01*
X1043972Y100156D01*
X1043980Y100109D01*
X1044014Y100052D01*
X1044039Y99992D01*
X1044070Y99957D01*
X1044095Y99916D01*
X1044146Y99875D01*
X1044190Y99826D01*
X1044232Y99804D01*
X1044269Y99775D01*
X1044331Y99754D01*
X1044390Y99723D01*
X1044444Y99715D01*
X1044481Y99703D01*
X1044521Y99704D01*
X1044575Y99696D01*
X1048385Y99696D01*
X1048450Y99707D01*
G37*
G36*
X662370Y87007D02*
X662370Y87007D01*
X662436Y87009D01*
X662479Y87027D01*
X662526Y87035D01*
X662583Y87069D01*
X662643Y87094D01*
X662678Y87125D01*
X662719Y87150D01*
X662761Y87201D01*
X662809Y87245D01*
X662831Y87287D01*
X662860Y87324D01*
X662881Y87386D01*
X662912Y87445D01*
X662920Y87499D01*
X662932Y87536D01*
X662931Y87576D01*
X662939Y87630D01*
X662939Y90170D01*
X662928Y90235D01*
X662926Y90301D01*
X662908Y90344D01*
X662900Y90391D01*
X662866Y90448D01*
X662841Y90508D01*
X662810Y90543D01*
X662785Y90584D01*
X662734Y90626D01*
X662690Y90674D01*
X662648Y90696D01*
X662611Y90725D01*
X662549Y90746D01*
X662490Y90777D01*
X662436Y90785D01*
X662399Y90797D01*
X662359Y90796D01*
X662305Y90804D01*
X658495Y90804D01*
X658430Y90793D01*
X658364Y90791D01*
X658321Y90773D01*
X658274Y90765D01*
X658217Y90731D01*
X658157Y90706D01*
X658122Y90675D01*
X658081Y90650D01*
X658040Y90599D01*
X657991Y90555D01*
X657969Y90513D01*
X657940Y90476D01*
X657919Y90414D01*
X657888Y90355D01*
X657880Y90301D01*
X657868Y90264D01*
X657868Y90261D01*
X657869Y90224D01*
X657861Y90170D01*
X657861Y87630D01*
X657872Y87565D01*
X657874Y87499D01*
X657892Y87456D01*
X657900Y87409D01*
X657934Y87352D01*
X657959Y87292D01*
X657990Y87257D01*
X658015Y87216D01*
X658066Y87175D01*
X658110Y87126D01*
X658152Y87104D01*
X658189Y87075D01*
X658251Y87054D01*
X658310Y87023D01*
X658364Y87015D01*
X658401Y87003D01*
X658441Y87004D01*
X658495Y86996D01*
X662305Y86996D01*
X662370Y87007D01*
G37*
G36*
X672530Y87007D02*
X672530Y87007D01*
X672596Y87009D01*
X672639Y87027D01*
X672686Y87035D01*
X672743Y87069D01*
X672803Y87094D01*
X672838Y87125D01*
X672879Y87150D01*
X672921Y87201D01*
X672969Y87245D01*
X672991Y87287D01*
X673020Y87324D01*
X673041Y87386D01*
X673072Y87445D01*
X673080Y87499D01*
X673092Y87536D01*
X673091Y87576D01*
X673099Y87630D01*
X673099Y90170D01*
X673088Y90235D01*
X673086Y90301D01*
X673068Y90344D01*
X673060Y90391D01*
X673026Y90448D01*
X673001Y90508D01*
X672970Y90543D01*
X672945Y90584D01*
X672894Y90626D01*
X672850Y90674D01*
X672808Y90696D01*
X672771Y90725D01*
X672709Y90746D01*
X672650Y90777D01*
X672596Y90785D01*
X672559Y90797D01*
X672519Y90796D01*
X672465Y90804D01*
X668655Y90804D01*
X668590Y90793D01*
X668524Y90791D01*
X668481Y90773D01*
X668434Y90765D01*
X668377Y90731D01*
X668317Y90706D01*
X668282Y90675D01*
X668241Y90650D01*
X668200Y90599D01*
X668151Y90555D01*
X668129Y90513D01*
X668100Y90476D01*
X668079Y90414D01*
X668048Y90355D01*
X668040Y90301D01*
X668028Y90264D01*
X668028Y90261D01*
X668029Y90224D01*
X668021Y90170D01*
X668021Y87630D01*
X668032Y87565D01*
X668034Y87499D01*
X668052Y87456D01*
X668060Y87409D01*
X668094Y87352D01*
X668119Y87292D01*
X668150Y87257D01*
X668175Y87216D01*
X668226Y87175D01*
X668270Y87126D01*
X668312Y87104D01*
X668349Y87075D01*
X668411Y87054D01*
X668470Y87023D01*
X668524Y87015D01*
X668561Y87003D01*
X668601Y87004D01*
X668655Y86996D01*
X672465Y86996D01*
X672530Y87007D01*
G37*
G36*
X134050Y87007D02*
X134050Y87007D01*
X134116Y87009D01*
X134159Y87027D01*
X134206Y87035D01*
X134263Y87069D01*
X134323Y87094D01*
X134358Y87125D01*
X134399Y87150D01*
X134441Y87201D01*
X134489Y87245D01*
X134511Y87287D01*
X134540Y87324D01*
X134561Y87386D01*
X134592Y87445D01*
X134600Y87499D01*
X134612Y87536D01*
X134611Y87576D01*
X134619Y87630D01*
X134619Y90170D01*
X134608Y90235D01*
X134606Y90301D01*
X134588Y90344D01*
X134580Y90391D01*
X134546Y90448D01*
X134521Y90508D01*
X134490Y90543D01*
X134465Y90584D01*
X134414Y90626D01*
X134370Y90674D01*
X134328Y90696D01*
X134291Y90725D01*
X134229Y90746D01*
X134170Y90777D01*
X134116Y90785D01*
X134079Y90797D01*
X134039Y90796D01*
X133985Y90804D01*
X130175Y90804D01*
X130110Y90793D01*
X130044Y90791D01*
X130001Y90773D01*
X129954Y90765D01*
X129897Y90731D01*
X129837Y90706D01*
X129802Y90675D01*
X129761Y90650D01*
X129720Y90599D01*
X129671Y90555D01*
X129649Y90513D01*
X129620Y90476D01*
X129599Y90414D01*
X129568Y90355D01*
X129560Y90301D01*
X129548Y90264D01*
X129548Y90261D01*
X129549Y90224D01*
X129541Y90170D01*
X129541Y87630D01*
X129552Y87565D01*
X129554Y87499D01*
X129572Y87456D01*
X129580Y87409D01*
X129614Y87352D01*
X129639Y87292D01*
X129670Y87257D01*
X129695Y87216D01*
X129746Y87175D01*
X129790Y87126D01*
X129832Y87104D01*
X129869Y87075D01*
X129931Y87054D01*
X129990Y87023D01*
X130044Y87015D01*
X130081Y87003D01*
X130121Y87004D01*
X130175Y86996D01*
X133985Y86996D01*
X134050Y87007D01*
G37*
G36*
X123890Y87007D02*
X123890Y87007D01*
X123956Y87009D01*
X123999Y87027D01*
X124046Y87035D01*
X124103Y87069D01*
X124163Y87094D01*
X124198Y87125D01*
X124239Y87150D01*
X124281Y87201D01*
X124329Y87245D01*
X124351Y87287D01*
X124380Y87324D01*
X124401Y87386D01*
X124432Y87445D01*
X124440Y87499D01*
X124452Y87536D01*
X124451Y87576D01*
X124459Y87630D01*
X124459Y90170D01*
X124448Y90235D01*
X124446Y90301D01*
X124428Y90344D01*
X124420Y90391D01*
X124386Y90448D01*
X124361Y90508D01*
X124330Y90543D01*
X124305Y90584D01*
X124254Y90626D01*
X124210Y90674D01*
X124168Y90696D01*
X124131Y90725D01*
X124069Y90746D01*
X124010Y90777D01*
X123956Y90785D01*
X123919Y90797D01*
X123879Y90796D01*
X123825Y90804D01*
X120015Y90804D01*
X119950Y90793D01*
X119884Y90791D01*
X119841Y90773D01*
X119794Y90765D01*
X119737Y90731D01*
X119677Y90706D01*
X119642Y90675D01*
X119601Y90650D01*
X119560Y90599D01*
X119511Y90555D01*
X119489Y90513D01*
X119460Y90476D01*
X119439Y90414D01*
X119408Y90355D01*
X119400Y90301D01*
X119388Y90264D01*
X119388Y90261D01*
X119389Y90224D01*
X119381Y90170D01*
X119381Y87630D01*
X119392Y87565D01*
X119394Y87499D01*
X119412Y87456D01*
X119420Y87409D01*
X119454Y87352D01*
X119479Y87292D01*
X119510Y87257D01*
X119535Y87216D01*
X119586Y87175D01*
X119630Y87126D01*
X119672Y87104D01*
X119709Y87075D01*
X119771Y87054D01*
X119830Y87023D01*
X119884Y87015D01*
X119921Y87003D01*
X119961Y87004D01*
X120015Y86996D01*
X123825Y86996D01*
X123890Y87007D01*
G37*
G36*
X174436Y30619D02*
X174436Y30619D01*
X174502Y30621D01*
X174545Y30639D01*
X174592Y30647D01*
X174649Y30681D01*
X174709Y30706D01*
X174744Y30737D01*
X174785Y30762D01*
X174827Y30813D01*
X174875Y30857D01*
X174897Y30899D01*
X174926Y30936D01*
X174947Y30998D01*
X174978Y31057D01*
X174986Y31111D01*
X174998Y31148D01*
X174997Y31188D01*
X175005Y31242D01*
X175005Y33782D01*
X174994Y33847D01*
X174992Y33913D01*
X174974Y33956D01*
X174966Y34003D01*
X174932Y34060D01*
X174907Y34120D01*
X174876Y34155D01*
X174851Y34196D01*
X174800Y34238D01*
X174756Y34286D01*
X174714Y34308D01*
X174677Y34337D01*
X174615Y34358D01*
X174556Y34389D01*
X174502Y34397D01*
X174465Y34409D01*
X174425Y34408D01*
X174371Y34416D01*
X170561Y34416D01*
X170496Y34405D01*
X170430Y34403D01*
X170387Y34385D01*
X170340Y34377D01*
X170283Y34343D01*
X170223Y34318D01*
X170188Y34287D01*
X170147Y34262D01*
X170106Y34211D01*
X170057Y34167D01*
X170035Y34125D01*
X170006Y34088D01*
X169985Y34026D01*
X169954Y33967D01*
X169946Y33913D01*
X169934Y33876D01*
X169934Y33873D01*
X169935Y33836D01*
X169927Y33782D01*
X169927Y31242D01*
X169938Y31177D01*
X169940Y31111D01*
X169958Y31068D01*
X169966Y31021D01*
X170000Y30964D01*
X170025Y30904D01*
X170056Y30869D01*
X170081Y30828D01*
X170132Y30787D01*
X170176Y30738D01*
X170218Y30716D01*
X170255Y30687D01*
X170317Y30666D01*
X170376Y30635D01*
X170430Y30627D01*
X170467Y30615D01*
X170507Y30616D01*
X170561Y30608D01*
X174371Y30608D01*
X174436Y30619D01*
G37*
G36*
X712916Y30619D02*
X712916Y30619D01*
X712982Y30621D01*
X713025Y30639D01*
X713072Y30647D01*
X713129Y30681D01*
X713189Y30706D01*
X713224Y30737D01*
X713265Y30762D01*
X713307Y30813D01*
X713355Y30857D01*
X713377Y30899D01*
X713406Y30936D01*
X713427Y30998D01*
X713458Y31057D01*
X713466Y31111D01*
X713478Y31148D01*
X713477Y31188D01*
X713485Y31242D01*
X713485Y33782D01*
X713474Y33847D01*
X713472Y33913D01*
X713454Y33956D01*
X713446Y34003D01*
X713412Y34060D01*
X713387Y34120D01*
X713356Y34155D01*
X713331Y34196D01*
X713280Y34238D01*
X713236Y34286D01*
X713194Y34308D01*
X713157Y34337D01*
X713095Y34358D01*
X713036Y34389D01*
X712982Y34397D01*
X712945Y34409D01*
X712905Y34408D01*
X712851Y34416D01*
X709041Y34416D01*
X708976Y34405D01*
X708910Y34403D01*
X708867Y34385D01*
X708820Y34377D01*
X708763Y34343D01*
X708703Y34318D01*
X708668Y34287D01*
X708627Y34262D01*
X708586Y34211D01*
X708537Y34167D01*
X708515Y34125D01*
X708486Y34088D01*
X708465Y34026D01*
X708434Y33967D01*
X708426Y33913D01*
X708414Y33876D01*
X708414Y33873D01*
X708415Y33836D01*
X708407Y33782D01*
X708407Y31242D01*
X708418Y31177D01*
X708420Y31111D01*
X708438Y31068D01*
X708446Y31021D01*
X708480Y30964D01*
X708505Y30904D01*
X708536Y30869D01*
X708561Y30828D01*
X708612Y30787D01*
X708656Y30738D01*
X708698Y30716D01*
X708735Y30687D01*
X708797Y30666D01*
X708856Y30635D01*
X708910Y30627D01*
X708947Y30615D01*
X708987Y30616D01*
X709041Y30608D01*
X712851Y30608D01*
X712916Y30619D01*
G37*
G36*
X928054Y28841D02*
X928054Y28841D01*
X928120Y28843D01*
X928163Y28861D01*
X928210Y28869D01*
X928267Y28903D01*
X928327Y28928D01*
X928362Y28959D01*
X928403Y28984D01*
X928445Y29035D01*
X928493Y29079D01*
X928515Y29121D01*
X928544Y29158D01*
X928565Y29220D01*
X928596Y29279D01*
X928604Y29333D01*
X928616Y29370D01*
X928615Y29410D01*
X928623Y29464D01*
X928623Y32004D01*
X928612Y32069D01*
X928610Y32135D01*
X928592Y32178D01*
X928584Y32225D01*
X928550Y32282D01*
X928525Y32342D01*
X928494Y32377D01*
X928469Y32418D01*
X928418Y32460D01*
X928374Y32508D01*
X928332Y32530D01*
X928295Y32559D01*
X928233Y32580D01*
X928174Y32611D01*
X928120Y32619D01*
X928083Y32631D01*
X928043Y32630D01*
X927989Y32638D01*
X924179Y32638D01*
X924114Y32627D01*
X924048Y32625D01*
X924005Y32607D01*
X923958Y32599D01*
X923901Y32565D01*
X923841Y32540D01*
X923806Y32509D01*
X923765Y32484D01*
X923724Y32433D01*
X923675Y32389D01*
X923653Y32347D01*
X923624Y32310D01*
X923603Y32248D01*
X923572Y32189D01*
X923564Y32135D01*
X923552Y32098D01*
X923552Y32095D01*
X923553Y32058D01*
X923545Y32004D01*
X923545Y29464D01*
X923556Y29399D01*
X923558Y29333D01*
X923576Y29290D01*
X923584Y29243D01*
X923618Y29186D01*
X923643Y29126D01*
X923674Y29091D01*
X923699Y29050D01*
X923750Y29009D01*
X923794Y28960D01*
X923836Y28938D01*
X923873Y28909D01*
X923935Y28888D01*
X923994Y28857D01*
X924048Y28849D01*
X924085Y28837D01*
X924125Y28838D01*
X924179Y28830D01*
X927989Y28830D01*
X928054Y28841D01*
G37*
G36*
X389574Y28841D02*
X389574Y28841D01*
X389640Y28843D01*
X389683Y28861D01*
X389730Y28869D01*
X389787Y28903D01*
X389847Y28928D01*
X389882Y28959D01*
X389923Y28984D01*
X389965Y29035D01*
X390013Y29079D01*
X390035Y29121D01*
X390064Y29158D01*
X390085Y29220D01*
X390116Y29279D01*
X390124Y29333D01*
X390136Y29370D01*
X390135Y29410D01*
X390143Y29464D01*
X390143Y32004D01*
X390132Y32069D01*
X390130Y32135D01*
X390112Y32178D01*
X390104Y32225D01*
X390070Y32282D01*
X390045Y32342D01*
X390014Y32377D01*
X389989Y32418D01*
X389938Y32460D01*
X389894Y32508D01*
X389852Y32530D01*
X389815Y32559D01*
X389753Y32580D01*
X389694Y32611D01*
X389640Y32619D01*
X389603Y32631D01*
X389563Y32630D01*
X389509Y32638D01*
X385699Y32638D01*
X385634Y32627D01*
X385568Y32625D01*
X385525Y32607D01*
X385478Y32599D01*
X385421Y32565D01*
X385361Y32540D01*
X385326Y32509D01*
X385285Y32484D01*
X385244Y32433D01*
X385195Y32389D01*
X385173Y32347D01*
X385144Y32310D01*
X385123Y32248D01*
X385092Y32189D01*
X385084Y32135D01*
X385072Y32098D01*
X385072Y32095D01*
X385073Y32058D01*
X385065Y32004D01*
X385065Y29464D01*
X385076Y29399D01*
X385078Y29333D01*
X385096Y29290D01*
X385104Y29243D01*
X385138Y29186D01*
X385163Y29126D01*
X385194Y29091D01*
X385219Y29050D01*
X385270Y29009D01*
X385314Y28960D01*
X385356Y28938D01*
X385393Y28909D01*
X385455Y28888D01*
X385514Y28857D01*
X385568Y28849D01*
X385605Y28837D01*
X385645Y28838D01*
X385699Y28830D01*
X389509Y28830D01*
X389574Y28841D01*
G37*
G36*
X961074Y28587D02*
X961074Y28587D01*
X961140Y28589D01*
X961183Y28607D01*
X961230Y28615D01*
X961287Y28649D01*
X961347Y28674D01*
X961382Y28705D01*
X961423Y28730D01*
X961465Y28781D01*
X961513Y28825D01*
X961535Y28867D01*
X961564Y28904D01*
X961585Y28966D01*
X961616Y29025D01*
X961624Y29079D01*
X961636Y29116D01*
X961635Y29156D01*
X961643Y29210D01*
X961643Y31750D01*
X961632Y31815D01*
X961630Y31881D01*
X961612Y31924D01*
X961604Y31971D01*
X961570Y32028D01*
X961545Y32088D01*
X961514Y32123D01*
X961489Y32164D01*
X961438Y32206D01*
X961394Y32254D01*
X961352Y32276D01*
X961315Y32305D01*
X961253Y32326D01*
X961194Y32357D01*
X961140Y32365D01*
X961103Y32377D01*
X961063Y32376D01*
X961009Y32384D01*
X957199Y32384D01*
X957134Y32373D01*
X957068Y32371D01*
X957025Y32353D01*
X956978Y32345D01*
X956921Y32311D01*
X956861Y32286D01*
X956826Y32255D01*
X956785Y32230D01*
X956744Y32179D01*
X956695Y32135D01*
X956673Y32093D01*
X956644Y32056D01*
X956623Y31994D01*
X956592Y31935D01*
X956584Y31881D01*
X956572Y31844D01*
X956572Y31841D01*
X956573Y31804D01*
X956565Y31750D01*
X956565Y29210D01*
X956576Y29145D01*
X956578Y29079D01*
X956596Y29036D01*
X956604Y28989D01*
X956638Y28932D01*
X956663Y28872D01*
X956694Y28837D01*
X956719Y28796D01*
X956770Y28755D01*
X956814Y28706D01*
X956856Y28684D01*
X956893Y28655D01*
X956955Y28634D01*
X957014Y28603D01*
X957068Y28595D01*
X957105Y28583D01*
X957145Y28584D01*
X957199Y28576D01*
X961009Y28576D01*
X961074Y28587D01*
G37*
G36*
X422594Y28587D02*
X422594Y28587D01*
X422660Y28589D01*
X422703Y28607D01*
X422750Y28615D01*
X422807Y28649D01*
X422867Y28674D01*
X422902Y28705D01*
X422943Y28730D01*
X422985Y28781D01*
X423033Y28825D01*
X423055Y28867D01*
X423084Y28904D01*
X423105Y28966D01*
X423136Y29025D01*
X423144Y29079D01*
X423156Y29116D01*
X423155Y29156D01*
X423163Y29210D01*
X423163Y31750D01*
X423152Y31815D01*
X423150Y31881D01*
X423132Y31924D01*
X423124Y31971D01*
X423090Y32028D01*
X423065Y32088D01*
X423034Y32123D01*
X423009Y32164D01*
X422958Y32206D01*
X422914Y32254D01*
X422872Y32276D01*
X422835Y32305D01*
X422773Y32326D01*
X422714Y32357D01*
X422660Y32365D01*
X422623Y32377D01*
X422583Y32376D01*
X422529Y32384D01*
X418719Y32384D01*
X418654Y32373D01*
X418588Y32371D01*
X418545Y32353D01*
X418498Y32345D01*
X418441Y32311D01*
X418381Y32286D01*
X418346Y32255D01*
X418305Y32230D01*
X418264Y32179D01*
X418215Y32135D01*
X418193Y32093D01*
X418164Y32056D01*
X418143Y31994D01*
X418112Y31935D01*
X418104Y31881D01*
X418092Y31844D01*
X418092Y31841D01*
X418093Y31804D01*
X418085Y31750D01*
X418085Y29210D01*
X418096Y29145D01*
X418098Y29079D01*
X418116Y29036D01*
X418124Y28989D01*
X418158Y28932D01*
X418183Y28872D01*
X418214Y28837D01*
X418239Y28796D01*
X418290Y28755D01*
X418334Y28706D01*
X418376Y28684D01*
X418413Y28655D01*
X418475Y28634D01*
X418534Y28603D01*
X418588Y28595D01*
X418625Y28583D01*
X418665Y28584D01*
X418719Y28576D01*
X422529Y28576D01*
X422594Y28587D01*
G37*
D10*
X134618Y94744D02*
X140210Y94744D01*
X140210Y83056D01*
X134618Y83056D01*
X134618Y94744D01*
X134618Y85225D02*
X140210Y85225D01*
X140210Y87394D02*
X134618Y87394D01*
X134618Y89563D02*
X140210Y89563D01*
X140210Y91732D02*
X134618Y91732D01*
X134618Y93901D02*
X140210Y93901D01*
X129796Y94744D02*
X124204Y94744D01*
X129796Y94744D02*
X129796Y83056D01*
X124204Y83056D01*
X124204Y94744D01*
X124204Y85225D02*
X129796Y85225D01*
X129796Y87394D02*
X124204Y87394D01*
X124204Y89563D02*
X129796Y89563D01*
X129796Y91732D02*
X124204Y91732D01*
X124204Y93901D02*
X129796Y93901D01*
X119382Y94744D02*
X113790Y94744D01*
X119382Y94744D02*
X119382Y83056D01*
X113790Y83056D01*
X113790Y94744D01*
X113790Y85225D02*
X119382Y85225D01*
X119382Y87394D02*
X113790Y87394D01*
X113790Y89563D02*
X119382Y89563D01*
X119382Y91732D02*
X113790Y91732D01*
X113790Y93901D02*
X119382Y93901D01*
D11*
X50800Y558800D03*
X444500Y15240D03*
D12*
X342900Y495300D03*
X342900Y469900D03*
X342900Y444500D03*
X342900Y419100D03*
X342900Y393700D03*
X342900Y368300D03*
X342900Y342900D03*
X342900Y317500D03*
X342900Y292100D03*
X342900Y266700D03*
X215900Y495300D03*
X215900Y469900D03*
X215900Y444500D03*
X215900Y419100D03*
X215900Y393700D03*
X215900Y368300D03*
X215900Y342900D03*
X215900Y317500D03*
X215900Y292100D03*
X215900Y266700D03*
D10*
X412621Y24636D02*
X418213Y24636D01*
X412621Y24636D02*
X412621Y36324D01*
X418213Y36324D01*
X418213Y24636D01*
X418213Y26805D02*
X412621Y26805D01*
X412621Y28974D02*
X418213Y28974D01*
X418213Y31143D02*
X412621Y31143D01*
X412621Y33312D02*
X418213Y33312D01*
X418213Y35481D02*
X412621Y35481D01*
X423035Y24636D02*
X428627Y24636D01*
X423035Y24636D02*
X423035Y36324D01*
X428627Y36324D01*
X428627Y24636D01*
X428627Y26805D02*
X423035Y26805D01*
X423035Y28974D02*
X428627Y28974D01*
X428627Y31143D02*
X423035Y31143D01*
X423035Y33312D02*
X428627Y33312D01*
X428627Y35481D02*
X423035Y35481D01*
X499997Y146556D02*
X505589Y146556D01*
X499997Y146556D02*
X499997Y158244D01*
X505589Y158244D01*
X505589Y146556D01*
X505589Y148725D02*
X499997Y148725D01*
X499997Y150894D02*
X505589Y150894D01*
X505589Y153063D02*
X499997Y153063D01*
X499997Y155232D02*
X505589Y155232D01*
X505589Y157401D02*
X499997Y157401D01*
X510411Y146556D02*
X516003Y146556D01*
X510411Y146556D02*
X510411Y158244D01*
X516003Y158244D01*
X516003Y146556D01*
X516003Y148725D02*
X510411Y148725D01*
X510411Y150894D02*
X516003Y150894D01*
X516003Y153063D02*
X510411Y153063D01*
X510411Y155232D02*
X516003Y155232D01*
X516003Y157401D02*
X510411Y157401D01*
X505589Y121156D02*
X499997Y121156D01*
X499997Y132844D01*
X505589Y132844D01*
X505589Y121156D01*
X505589Y123325D02*
X499997Y123325D01*
X499997Y125494D02*
X505589Y125494D01*
X505589Y127663D02*
X499997Y127663D01*
X499997Y129832D02*
X505589Y129832D01*
X505589Y132001D02*
X499997Y132001D01*
X510411Y121156D02*
X516003Y121156D01*
X510411Y121156D02*
X510411Y132844D01*
X516003Y132844D01*
X516003Y121156D01*
X516003Y123325D02*
X510411Y123325D01*
X510411Y125494D02*
X516003Y125494D01*
X516003Y127663D02*
X510411Y127663D01*
X510411Y129832D02*
X516003Y129832D01*
X516003Y132001D02*
X510411Y132001D01*
D13*
X314000Y49050D03*
X371800Y49050D03*
D10*
X390015Y36578D02*
X395607Y36578D01*
X395607Y24890D01*
X390015Y24890D01*
X390015Y36578D01*
X390015Y27059D02*
X395607Y27059D01*
X395607Y29228D02*
X390015Y29228D01*
X390015Y31397D02*
X395607Y31397D01*
X395607Y33566D02*
X390015Y33566D01*
X390015Y35735D02*
X395607Y35735D01*
X385193Y36578D02*
X379601Y36578D01*
X385193Y36578D02*
X385193Y24890D01*
X379601Y24890D01*
X379601Y36578D01*
X379601Y27059D02*
X385193Y27059D01*
X385193Y29228D02*
X379601Y29228D01*
X379601Y31397D02*
X385193Y31397D01*
X385193Y33566D02*
X379601Y33566D01*
X379601Y35735D02*
X385193Y35735D01*
D12*
X508000Y241300D03*
X508000Y266700D03*
X508000Y292100D03*
X508000Y317500D03*
X508000Y342900D03*
X508000Y368300D03*
X508000Y419100D03*
X508000Y444500D03*
X508000Y469900D03*
X508000Y495300D03*
X508000Y520700D03*
X508000Y546100D03*
X25400Y546100D03*
X25400Y520700D03*
X25400Y495300D03*
X25400Y469900D03*
X25400Y444500D03*
X25400Y419100D03*
X25400Y393700D03*
X25400Y368300D03*
X25400Y330200D03*
X25400Y304800D03*
X25400Y279400D03*
X25400Y254000D03*
X25400Y228600D03*
X25400Y203200D03*
X25400Y177800D03*
X25400Y152400D03*
X25400Y127000D03*
X25400Y101600D03*
X508000Y215900D03*
X508000Y190500D03*
D14*
X101600Y175500D03*
X101600Y205500D03*
D13*
X187000Y49050D03*
X244800Y49050D03*
D10*
X170055Y26668D02*
X164463Y26668D01*
X164463Y38356D01*
X170055Y38356D01*
X170055Y26668D01*
X170055Y28837D02*
X164463Y28837D01*
X164463Y31006D02*
X170055Y31006D01*
X170055Y33175D02*
X164463Y33175D01*
X164463Y35344D02*
X170055Y35344D01*
X170055Y37513D02*
X164463Y37513D01*
X174877Y26668D02*
X180469Y26668D01*
X174877Y26668D02*
X174877Y38356D01*
X180469Y38356D01*
X180469Y26668D01*
X180469Y28837D02*
X174877Y28837D01*
X174877Y31006D02*
X180469Y31006D01*
X180469Y33175D02*
X174877Y33175D01*
X174877Y35344D02*
X180469Y35344D01*
X180469Y37513D02*
X174877Y37513D01*
X499997Y95756D02*
X505589Y95756D01*
X499997Y95756D02*
X499997Y107444D01*
X505589Y107444D01*
X505589Y95756D01*
X505589Y97925D02*
X499997Y97925D01*
X499997Y100094D02*
X505589Y100094D01*
X505589Y102263D02*
X499997Y102263D01*
X499997Y104432D02*
X505589Y104432D01*
X505589Y106601D02*
X499997Y106601D01*
X510411Y95756D02*
X516003Y95756D01*
X510411Y95756D02*
X510411Y107444D01*
X516003Y107444D01*
X516003Y95756D01*
X516003Y97925D02*
X510411Y97925D01*
X510411Y100094D02*
X516003Y100094D01*
X516003Y102263D02*
X510411Y102263D01*
X510411Y104432D02*
X516003Y104432D01*
X516003Y106601D02*
X510411Y106601D01*
D14*
X457200Y256300D03*
X457200Y226300D03*
X88900Y421400D03*
X88900Y391400D03*
D10*
X673098Y94744D02*
X678690Y94744D01*
X678690Y83056D01*
X673098Y83056D01*
X673098Y94744D01*
X673098Y85225D02*
X678690Y85225D01*
X678690Y87394D02*
X673098Y87394D01*
X673098Y89563D02*
X678690Y89563D01*
X678690Y91732D02*
X673098Y91732D01*
X673098Y93901D02*
X678690Y93901D01*
X668276Y94744D02*
X662684Y94744D01*
X668276Y94744D02*
X668276Y83056D01*
X662684Y83056D01*
X662684Y94744D01*
X662684Y85225D02*
X668276Y85225D01*
X668276Y87394D02*
X662684Y87394D01*
X662684Y89563D02*
X668276Y89563D01*
X668276Y91732D02*
X662684Y91732D01*
X662684Y93901D02*
X668276Y93901D01*
X657862Y94744D02*
X652270Y94744D01*
X657862Y94744D02*
X657862Y83056D01*
X652270Y83056D01*
X652270Y94744D01*
X652270Y85225D02*
X657862Y85225D01*
X657862Y87394D02*
X652270Y87394D01*
X652270Y89563D02*
X657862Y89563D01*
X657862Y91732D02*
X652270Y91732D01*
X652270Y93901D02*
X657862Y93901D01*
D11*
X589280Y558800D03*
X982980Y15240D03*
D12*
X881380Y495300D03*
X881380Y469900D03*
X881380Y444500D03*
X881380Y419100D03*
X881380Y393700D03*
X881380Y368300D03*
X881380Y342900D03*
X881380Y317500D03*
X881380Y292100D03*
X881380Y266700D03*
X754380Y495300D03*
X754380Y469900D03*
X754380Y444500D03*
X754380Y419100D03*
X754380Y393700D03*
X754380Y368300D03*
X754380Y342900D03*
X754380Y317500D03*
X754380Y292100D03*
X754380Y266700D03*
D10*
X951101Y24636D02*
X956693Y24636D01*
X951101Y24636D02*
X951101Y36324D01*
X956693Y36324D01*
X956693Y24636D01*
X956693Y26805D02*
X951101Y26805D01*
X951101Y28974D02*
X956693Y28974D01*
X956693Y31143D02*
X951101Y31143D01*
X951101Y33312D02*
X956693Y33312D01*
X956693Y35481D02*
X951101Y35481D01*
X961515Y24636D02*
X967107Y24636D01*
X961515Y24636D02*
X961515Y36324D01*
X967107Y36324D01*
X967107Y24636D01*
X967107Y26805D02*
X961515Y26805D01*
X961515Y28974D02*
X967107Y28974D01*
X967107Y31143D02*
X961515Y31143D01*
X961515Y33312D02*
X967107Y33312D01*
X967107Y35481D02*
X961515Y35481D01*
X1038477Y146556D02*
X1044069Y146556D01*
X1038477Y146556D02*
X1038477Y158244D01*
X1044069Y158244D01*
X1044069Y146556D01*
X1044069Y148725D02*
X1038477Y148725D01*
X1038477Y150894D02*
X1044069Y150894D01*
X1044069Y153063D02*
X1038477Y153063D01*
X1038477Y155232D02*
X1044069Y155232D01*
X1044069Y157401D02*
X1038477Y157401D01*
X1048891Y146556D02*
X1054483Y146556D01*
X1048891Y146556D02*
X1048891Y158244D01*
X1054483Y158244D01*
X1054483Y146556D01*
X1054483Y148725D02*
X1048891Y148725D01*
X1048891Y150894D02*
X1054483Y150894D01*
X1054483Y153063D02*
X1048891Y153063D01*
X1048891Y155232D02*
X1054483Y155232D01*
X1054483Y157401D02*
X1048891Y157401D01*
X1044069Y121156D02*
X1038477Y121156D01*
X1038477Y132844D01*
X1044069Y132844D01*
X1044069Y121156D01*
X1044069Y123325D02*
X1038477Y123325D01*
X1038477Y125494D02*
X1044069Y125494D01*
X1044069Y127663D02*
X1038477Y127663D01*
X1038477Y129832D02*
X1044069Y129832D01*
X1044069Y132001D02*
X1038477Y132001D01*
X1048891Y121156D02*
X1054483Y121156D01*
X1048891Y121156D02*
X1048891Y132844D01*
X1054483Y132844D01*
X1054483Y121156D01*
X1054483Y123325D02*
X1048891Y123325D01*
X1048891Y125494D02*
X1054483Y125494D01*
X1054483Y127663D02*
X1048891Y127663D01*
X1048891Y129832D02*
X1054483Y129832D01*
X1054483Y132001D02*
X1048891Y132001D01*
D13*
X852480Y49050D03*
X910280Y49050D03*
D10*
X928495Y36578D02*
X934087Y36578D01*
X934087Y24890D01*
X928495Y24890D01*
X928495Y36578D01*
X928495Y27059D02*
X934087Y27059D01*
X934087Y29228D02*
X928495Y29228D01*
X928495Y31397D02*
X934087Y31397D01*
X934087Y33566D02*
X928495Y33566D01*
X928495Y35735D02*
X934087Y35735D01*
X923673Y36578D02*
X918081Y36578D01*
X923673Y36578D02*
X923673Y24890D01*
X918081Y24890D01*
X918081Y36578D01*
X918081Y27059D02*
X923673Y27059D01*
X923673Y29228D02*
X918081Y29228D01*
X918081Y31397D02*
X923673Y31397D01*
X923673Y33566D02*
X918081Y33566D01*
X918081Y35735D02*
X923673Y35735D01*
D12*
X1046480Y241300D03*
X1046480Y266700D03*
X1046480Y292100D03*
X1046480Y317500D03*
X1046480Y342900D03*
X1046480Y368300D03*
X1046480Y419100D03*
X1046480Y444500D03*
X1046480Y469900D03*
X1046480Y495300D03*
X1046480Y520700D03*
X1046480Y546100D03*
X563880Y546100D03*
X563880Y520700D03*
X563880Y495300D03*
X563880Y469900D03*
X563880Y444500D03*
X563880Y419100D03*
X563880Y393700D03*
X563880Y368300D03*
X563880Y330200D03*
X563880Y304800D03*
X563880Y279400D03*
X563880Y254000D03*
X563880Y228600D03*
X563880Y203200D03*
X563880Y177800D03*
X563880Y152400D03*
X563880Y127000D03*
X563880Y101600D03*
X1046480Y215900D03*
X1046480Y190500D03*
D14*
X640080Y175500D03*
X640080Y205500D03*
D13*
X725480Y49050D03*
X783280Y49050D03*
D10*
X708535Y26668D02*
X702943Y26668D01*
X702943Y38356D01*
X708535Y38356D01*
X708535Y26668D01*
X708535Y28837D02*
X702943Y28837D01*
X702943Y31006D02*
X708535Y31006D01*
X708535Y33175D02*
X702943Y33175D01*
X702943Y35344D02*
X708535Y35344D01*
X708535Y37513D02*
X702943Y37513D01*
X713357Y26668D02*
X718949Y26668D01*
X713357Y26668D02*
X713357Y38356D01*
X718949Y38356D01*
X718949Y26668D01*
X718949Y28837D02*
X713357Y28837D01*
X713357Y31006D02*
X718949Y31006D01*
X718949Y33175D02*
X713357Y33175D01*
X713357Y35344D02*
X718949Y35344D01*
X718949Y37513D02*
X713357Y37513D01*
X1038477Y95756D02*
X1044069Y95756D01*
X1038477Y95756D02*
X1038477Y107444D01*
X1044069Y107444D01*
X1044069Y95756D01*
X1044069Y97925D02*
X1038477Y97925D01*
X1038477Y100094D02*
X1044069Y100094D01*
X1044069Y102263D02*
X1038477Y102263D01*
X1038477Y104432D02*
X1044069Y104432D01*
X1044069Y106601D02*
X1038477Y106601D01*
X1048891Y95756D02*
X1054483Y95756D01*
X1048891Y95756D02*
X1048891Y107444D01*
X1054483Y107444D01*
X1054483Y95756D01*
X1054483Y97925D02*
X1048891Y97925D01*
X1048891Y100094D02*
X1054483Y100094D01*
X1054483Y102263D02*
X1048891Y102263D01*
X1048891Y104432D02*
X1054483Y104432D01*
X1054483Y106601D02*
X1048891Y106601D01*
D14*
X995680Y256300D03*
X995680Y226300D03*
X627380Y421400D03*
X627380Y391400D03*
D10*
X140210Y722124D02*
X134618Y722124D01*
X140210Y722124D02*
X140210Y710436D01*
X134618Y710436D01*
X134618Y722124D01*
X134618Y712605D02*
X140210Y712605D01*
X140210Y714774D02*
X134618Y714774D01*
X134618Y716943D02*
X140210Y716943D01*
X140210Y719112D02*
X134618Y719112D01*
X134618Y721281D02*
X140210Y721281D01*
X129796Y722124D02*
X124204Y722124D01*
X129796Y722124D02*
X129796Y710436D01*
X124204Y710436D01*
X124204Y722124D01*
X124204Y712605D02*
X129796Y712605D01*
X129796Y714774D02*
X124204Y714774D01*
X124204Y716943D02*
X129796Y716943D01*
X129796Y719112D02*
X124204Y719112D01*
X124204Y721281D02*
X129796Y721281D01*
X119382Y722124D02*
X113790Y722124D01*
X119382Y722124D02*
X119382Y710436D01*
X113790Y710436D01*
X113790Y722124D01*
X113790Y712605D02*
X119382Y712605D01*
X119382Y714774D02*
X113790Y714774D01*
X113790Y716943D02*
X119382Y716943D01*
X119382Y719112D02*
X113790Y719112D01*
X113790Y721281D02*
X119382Y721281D01*
D11*
X50800Y1186180D03*
X444500Y642620D03*
D12*
X342900Y1122680D03*
X342900Y1097280D03*
X342900Y1071880D03*
X342900Y1046480D03*
X342900Y1021080D03*
X342900Y995680D03*
X342900Y970280D03*
X342900Y944880D03*
X342900Y919480D03*
X342900Y894080D03*
X215900Y1122680D03*
X215900Y1097280D03*
X215900Y1071880D03*
X215900Y1046480D03*
X215900Y1021080D03*
X215900Y995680D03*
X215900Y970280D03*
X215900Y944880D03*
X215900Y919480D03*
X215900Y894080D03*
D10*
X412621Y652016D02*
X418213Y652016D01*
X412621Y652016D02*
X412621Y663704D01*
X418213Y663704D01*
X418213Y652016D01*
X418213Y654185D02*
X412621Y654185D01*
X412621Y656354D02*
X418213Y656354D01*
X418213Y658523D02*
X412621Y658523D01*
X412621Y660692D02*
X418213Y660692D01*
X418213Y662861D02*
X412621Y662861D01*
X423035Y652016D02*
X428627Y652016D01*
X423035Y652016D02*
X423035Y663704D01*
X428627Y663704D01*
X428627Y652016D01*
X428627Y654185D02*
X423035Y654185D01*
X423035Y656354D02*
X428627Y656354D01*
X428627Y658523D02*
X423035Y658523D01*
X423035Y660692D02*
X428627Y660692D01*
X428627Y662861D02*
X423035Y662861D01*
X499997Y773936D02*
X505589Y773936D01*
X499997Y773936D02*
X499997Y785624D01*
X505589Y785624D01*
X505589Y773936D01*
X505589Y776105D02*
X499997Y776105D01*
X499997Y778274D02*
X505589Y778274D01*
X505589Y780443D02*
X499997Y780443D01*
X499997Y782612D02*
X505589Y782612D01*
X505589Y784781D02*
X499997Y784781D01*
X510411Y773936D02*
X516003Y773936D01*
X510411Y773936D02*
X510411Y785624D01*
X516003Y785624D01*
X516003Y773936D01*
X516003Y776105D02*
X510411Y776105D01*
X510411Y778274D02*
X516003Y778274D01*
X516003Y780443D02*
X510411Y780443D01*
X510411Y782612D02*
X516003Y782612D01*
X516003Y784781D02*
X510411Y784781D01*
X505589Y748536D02*
X499997Y748536D01*
X499997Y760224D01*
X505589Y760224D01*
X505589Y748536D01*
X505589Y750705D02*
X499997Y750705D01*
X499997Y752874D02*
X505589Y752874D01*
X505589Y755043D02*
X499997Y755043D01*
X499997Y757212D02*
X505589Y757212D01*
X505589Y759381D02*
X499997Y759381D01*
X510411Y748536D02*
X516003Y748536D01*
X510411Y748536D02*
X510411Y760224D01*
X516003Y760224D01*
X516003Y748536D01*
X516003Y750705D02*
X510411Y750705D01*
X510411Y752874D02*
X516003Y752874D01*
X516003Y755043D02*
X510411Y755043D01*
X510411Y757212D02*
X516003Y757212D01*
X516003Y759381D02*
X510411Y759381D01*
D13*
X314000Y676430D03*
X371800Y676430D03*
D10*
X390015Y663958D02*
X395607Y663958D01*
X395607Y652270D01*
X390015Y652270D01*
X390015Y663958D01*
X390015Y654439D02*
X395607Y654439D01*
X395607Y656608D02*
X390015Y656608D01*
X390015Y658777D02*
X395607Y658777D01*
X395607Y660946D02*
X390015Y660946D01*
X390015Y663115D02*
X395607Y663115D01*
X385193Y663958D02*
X379601Y663958D01*
X385193Y663958D02*
X385193Y652270D01*
X379601Y652270D01*
X379601Y663958D01*
X379601Y654439D02*
X385193Y654439D01*
X385193Y656608D02*
X379601Y656608D01*
X379601Y658777D02*
X385193Y658777D01*
X385193Y660946D02*
X379601Y660946D01*
X379601Y663115D02*
X385193Y663115D01*
D12*
X508000Y868680D03*
X508000Y894080D03*
X508000Y919480D03*
X508000Y944880D03*
X508000Y970280D03*
X508000Y995680D03*
X508000Y1046480D03*
X508000Y1071880D03*
X508000Y1097280D03*
X508000Y1122680D03*
X508000Y1148080D03*
X508000Y1173480D03*
X25400Y1173480D03*
X25400Y1148080D03*
X25400Y1122680D03*
X25400Y1097280D03*
X25400Y1071880D03*
X25400Y1046480D03*
X25400Y1021080D03*
X25400Y995680D03*
X25400Y957580D03*
X25400Y932180D03*
X25400Y906780D03*
X25400Y881380D03*
X25400Y855980D03*
X25400Y830580D03*
X25400Y805180D03*
X25400Y779780D03*
X25400Y754380D03*
X25400Y728980D03*
X508000Y843280D03*
X508000Y817880D03*
D14*
X101600Y802880D03*
X101600Y832880D03*
D13*
X187000Y676430D03*
X244800Y676430D03*
D10*
X170055Y654048D02*
X164463Y654048D01*
X164463Y665736D01*
X170055Y665736D01*
X170055Y654048D01*
X170055Y656217D02*
X164463Y656217D01*
X164463Y658386D02*
X170055Y658386D01*
X170055Y660555D02*
X164463Y660555D01*
X164463Y662724D02*
X170055Y662724D01*
X170055Y664893D02*
X164463Y664893D01*
X174877Y654048D02*
X180469Y654048D01*
X174877Y654048D02*
X174877Y665736D01*
X180469Y665736D01*
X180469Y654048D01*
X180469Y656217D02*
X174877Y656217D01*
X174877Y658386D02*
X180469Y658386D01*
X180469Y660555D02*
X174877Y660555D01*
X174877Y662724D02*
X180469Y662724D01*
X180469Y664893D02*
X174877Y664893D01*
X499997Y723136D02*
X505589Y723136D01*
X499997Y723136D02*
X499997Y734824D01*
X505589Y734824D01*
X505589Y723136D01*
X505589Y725305D02*
X499997Y725305D01*
X499997Y727474D02*
X505589Y727474D01*
X505589Y729643D02*
X499997Y729643D01*
X499997Y731812D02*
X505589Y731812D01*
X505589Y733981D02*
X499997Y733981D01*
X510411Y723136D02*
X516003Y723136D01*
X510411Y723136D02*
X510411Y734824D01*
X516003Y734824D01*
X516003Y723136D01*
X516003Y725305D02*
X510411Y725305D01*
X510411Y727474D02*
X516003Y727474D01*
X516003Y729643D02*
X510411Y729643D01*
X510411Y731812D02*
X516003Y731812D01*
X516003Y733981D02*
X510411Y733981D01*
D14*
X457200Y883680D03*
X457200Y853680D03*
X88900Y1048780D03*
X88900Y1018780D03*
D10*
X673098Y722124D02*
X678690Y722124D01*
X678690Y710436D01*
X673098Y710436D01*
X673098Y722124D01*
X673098Y712605D02*
X678690Y712605D01*
X678690Y714774D02*
X673098Y714774D01*
X673098Y716943D02*
X678690Y716943D01*
X678690Y719112D02*
X673098Y719112D01*
X673098Y721281D02*
X678690Y721281D01*
X668276Y722124D02*
X662684Y722124D01*
X668276Y722124D02*
X668276Y710436D01*
X662684Y710436D01*
X662684Y722124D01*
X662684Y712605D02*
X668276Y712605D01*
X668276Y714774D02*
X662684Y714774D01*
X662684Y716943D02*
X668276Y716943D01*
X668276Y719112D02*
X662684Y719112D01*
X662684Y721281D02*
X668276Y721281D01*
X657862Y722124D02*
X652270Y722124D01*
X657862Y722124D02*
X657862Y710436D01*
X652270Y710436D01*
X652270Y722124D01*
X652270Y712605D02*
X657862Y712605D01*
X657862Y714774D02*
X652270Y714774D01*
X652270Y716943D02*
X657862Y716943D01*
X657862Y719112D02*
X652270Y719112D01*
X652270Y721281D02*
X657862Y721281D01*
D11*
X589280Y1186180D03*
X982980Y642620D03*
D12*
X881380Y1122680D03*
X881380Y1097280D03*
X881380Y1071880D03*
X881380Y1046480D03*
X881380Y1021080D03*
X881380Y995680D03*
X881380Y970280D03*
X881380Y944880D03*
X881380Y919480D03*
X881380Y894080D03*
X754380Y1122680D03*
X754380Y1097280D03*
X754380Y1071880D03*
X754380Y1046480D03*
X754380Y1021080D03*
X754380Y995680D03*
X754380Y970280D03*
X754380Y944880D03*
X754380Y919480D03*
X754380Y894080D03*
D10*
X951101Y652016D02*
X956693Y652016D01*
X951101Y652016D02*
X951101Y663704D01*
X956693Y663704D01*
X956693Y652016D01*
X956693Y654185D02*
X951101Y654185D01*
X951101Y656354D02*
X956693Y656354D01*
X956693Y658523D02*
X951101Y658523D01*
X951101Y660692D02*
X956693Y660692D01*
X956693Y662861D02*
X951101Y662861D01*
X961515Y652016D02*
X967107Y652016D01*
X961515Y652016D02*
X961515Y663704D01*
X967107Y663704D01*
X967107Y652016D01*
X967107Y654185D02*
X961515Y654185D01*
X961515Y656354D02*
X967107Y656354D01*
X967107Y658523D02*
X961515Y658523D01*
X961515Y660692D02*
X967107Y660692D01*
X967107Y662861D02*
X961515Y662861D01*
X1038477Y773936D02*
X1044069Y773936D01*
X1038477Y773936D02*
X1038477Y785624D01*
X1044069Y785624D01*
X1044069Y773936D01*
X1044069Y776105D02*
X1038477Y776105D01*
X1038477Y778274D02*
X1044069Y778274D01*
X1044069Y780443D02*
X1038477Y780443D01*
X1038477Y782612D02*
X1044069Y782612D01*
X1044069Y784781D02*
X1038477Y784781D01*
X1048891Y773936D02*
X1054483Y773936D01*
X1048891Y773936D02*
X1048891Y785624D01*
X1054483Y785624D01*
X1054483Y773936D01*
X1054483Y776105D02*
X1048891Y776105D01*
X1048891Y778274D02*
X1054483Y778274D01*
X1054483Y780443D02*
X1048891Y780443D01*
X1048891Y782612D02*
X1054483Y782612D01*
X1054483Y784781D02*
X1048891Y784781D01*
X1044069Y748536D02*
X1038477Y748536D01*
X1038477Y760224D01*
X1044069Y760224D01*
X1044069Y748536D01*
X1044069Y750705D02*
X1038477Y750705D01*
X1038477Y752874D02*
X1044069Y752874D01*
X1044069Y755043D02*
X1038477Y755043D01*
X1038477Y757212D02*
X1044069Y757212D01*
X1044069Y759381D02*
X1038477Y759381D01*
X1048891Y748536D02*
X1054483Y748536D01*
X1048891Y748536D02*
X1048891Y760224D01*
X1054483Y760224D01*
X1054483Y748536D01*
X1054483Y750705D02*
X1048891Y750705D01*
X1048891Y752874D02*
X1054483Y752874D01*
X1054483Y755043D02*
X1048891Y755043D01*
X1048891Y757212D02*
X1054483Y757212D01*
X1054483Y759381D02*
X1048891Y759381D01*
D13*
X852480Y676430D03*
X910280Y676430D03*
D10*
X928495Y663958D02*
X934087Y663958D01*
X934087Y652270D01*
X928495Y652270D01*
X928495Y663958D01*
X928495Y654439D02*
X934087Y654439D01*
X934087Y656608D02*
X928495Y656608D01*
X928495Y658777D02*
X934087Y658777D01*
X934087Y660946D02*
X928495Y660946D01*
X928495Y663115D02*
X934087Y663115D01*
X923673Y663958D02*
X918081Y663958D01*
X923673Y663958D02*
X923673Y652270D01*
X918081Y652270D01*
X918081Y663958D01*
X918081Y654439D02*
X923673Y654439D01*
X923673Y656608D02*
X918081Y656608D01*
X918081Y658777D02*
X923673Y658777D01*
X923673Y660946D02*
X918081Y660946D01*
X918081Y663115D02*
X923673Y663115D01*
D12*
X1046480Y868680D03*
X1046480Y894080D03*
X1046480Y919480D03*
X1046480Y944880D03*
X1046480Y970280D03*
X1046480Y995680D03*
X1046480Y1046480D03*
X1046480Y1071880D03*
X1046480Y1097280D03*
X1046480Y1122680D03*
X1046480Y1148080D03*
X1046480Y1173480D03*
X563880Y1173480D03*
X563880Y1148080D03*
X563880Y1122680D03*
X563880Y1097280D03*
X563880Y1071880D03*
X563880Y1046480D03*
X563880Y1021080D03*
X563880Y995680D03*
X563880Y957580D03*
X563880Y932180D03*
X563880Y906780D03*
X563880Y881380D03*
X563880Y855980D03*
X563880Y830580D03*
X563880Y805180D03*
X563880Y779780D03*
X563880Y754380D03*
X563880Y728980D03*
X1046480Y843280D03*
X1046480Y817880D03*
D14*
X640080Y802880D03*
X640080Y832880D03*
D13*
X725480Y676430D03*
X783280Y676430D03*
D10*
X708535Y654048D02*
X702943Y654048D01*
X702943Y665736D01*
X708535Y665736D01*
X708535Y654048D01*
X708535Y656217D02*
X702943Y656217D01*
X702943Y658386D02*
X708535Y658386D01*
X708535Y660555D02*
X702943Y660555D01*
X702943Y662724D02*
X708535Y662724D01*
X708535Y664893D02*
X702943Y664893D01*
X713357Y654048D02*
X718949Y654048D01*
X713357Y654048D02*
X713357Y665736D01*
X718949Y665736D01*
X718949Y654048D01*
X718949Y656217D02*
X713357Y656217D01*
X713357Y658386D02*
X718949Y658386D01*
X718949Y660555D02*
X713357Y660555D01*
X713357Y662724D02*
X718949Y662724D01*
X718949Y664893D02*
X713357Y664893D01*
X1038477Y723136D02*
X1044069Y723136D01*
X1038477Y723136D02*
X1038477Y734824D01*
X1044069Y734824D01*
X1044069Y723136D01*
X1044069Y725305D02*
X1038477Y725305D01*
X1038477Y727474D02*
X1044069Y727474D01*
X1044069Y729643D02*
X1038477Y729643D01*
X1038477Y731812D02*
X1044069Y731812D01*
X1044069Y733981D02*
X1038477Y733981D01*
X1048891Y723136D02*
X1054483Y723136D01*
X1048891Y723136D02*
X1048891Y734824D01*
X1054483Y734824D01*
X1054483Y723136D01*
X1054483Y725305D02*
X1048891Y725305D01*
X1048891Y727474D02*
X1054483Y727474D01*
X1054483Y729643D02*
X1048891Y729643D01*
X1048891Y731812D02*
X1054483Y731812D01*
X1054483Y733981D02*
X1048891Y733981D01*
D14*
X995680Y883680D03*
X995680Y853680D03*
X627380Y1048780D03*
X627380Y1018780D03*
D10*
X140210Y1349504D02*
X134618Y1349504D01*
X140210Y1349504D02*
X140210Y1337816D01*
X134618Y1337816D01*
X134618Y1349504D01*
X134618Y1339985D02*
X140210Y1339985D01*
X140210Y1342154D02*
X134618Y1342154D01*
X134618Y1344323D02*
X140210Y1344323D01*
X140210Y1346492D02*
X134618Y1346492D01*
X134618Y1348661D02*
X140210Y1348661D01*
X129796Y1349504D02*
X124204Y1349504D01*
X129796Y1349504D02*
X129796Y1337816D01*
X124204Y1337816D01*
X124204Y1349504D01*
X124204Y1339985D02*
X129796Y1339985D01*
X129796Y1342154D02*
X124204Y1342154D01*
X124204Y1344323D02*
X129796Y1344323D01*
X129796Y1346492D02*
X124204Y1346492D01*
X124204Y1348661D02*
X129796Y1348661D01*
X119382Y1349504D02*
X113790Y1349504D01*
X119382Y1349504D02*
X119382Y1337816D01*
X113790Y1337816D01*
X113790Y1349504D01*
X113790Y1339985D02*
X119382Y1339985D01*
X119382Y1342154D02*
X113790Y1342154D01*
X113790Y1344323D02*
X119382Y1344323D01*
X119382Y1346492D02*
X113790Y1346492D01*
X113790Y1348661D02*
X119382Y1348661D01*
D11*
X50800Y1813560D03*
X444500Y1270000D03*
D12*
X342900Y1750060D03*
X342900Y1724660D03*
X342900Y1699260D03*
X342900Y1673860D03*
X342900Y1648460D03*
X342900Y1623060D03*
X342900Y1597660D03*
X342900Y1572260D03*
X342900Y1546860D03*
X342900Y1521460D03*
X215900Y1750060D03*
X215900Y1724660D03*
X215900Y1699260D03*
X215900Y1673860D03*
X215900Y1648460D03*
X215900Y1623060D03*
X215900Y1597660D03*
X215900Y1572260D03*
X215900Y1546860D03*
X215900Y1521460D03*
D10*
X412621Y1279396D02*
X418213Y1279396D01*
X412621Y1279396D02*
X412621Y1291084D01*
X418213Y1291084D01*
X418213Y1279396D01*
X418213Y1281565D02*
X412621Y1281565D01*
X412621Y1283734D02*
X418213Y1283734D01*
X418213Y1285903D02*
X412621Y1285903D01*
X412621Y1288072D02*
X418213Y1288072D01*
X418213Y1290241D02*
X412621Y1290241D01*
X423035Y1279396D02*
X428627Y1279396D01*
X423035Y1279396D02*
X423035Y1291084D01*
X428627Y1291084D01*
X428627Y1279396D01*
X428627Y1281565D02*
X423035Y1281565D01*
X423035Y1283734D02*
X428627Y1283734D01*
X428627Y1285903D02*
X423035Y1285903D01*
X423035Y1288072D02*
X428627Y1288072D01*
X428627Y1290241D02*
X423035Y1290241D01*
X499997Y1401316D02*
X505589Y1401316D01*
X499997Y1401316D02*
X499997Y1413004D01*
X505589Y1413004D01*
X505589Y1401316D01*
X505589Y1403485D02*
X499997Y1403485D01*
X499997Y1405654D02*
X505589Y1405654D01*
X505589Y1407823D02*
X499997Y1407823D01*
X499997Y1409992D02*
X505589Y1409992D01*
X505589Y1412161D02*
X499997Y1412161D01*
X510411Y1401316D02*
X516003Y1401316D01*
X510411Y1401316D02*
X510411Y1413004D01*
X516003Y1413004D01*
X516003Y1401316D01*
X516003Y1403485D02*
X510411Y1403485D01*
X510411Y1405654D02*
X516003Y1405654D01*
X516003Y1407823D02*
X510411Y1407823D01*
X510411Y1409992D02*
X516003Y1409992D01*
X516003Y1412161D02*
X510411Y1412161D01*
X505589Y1375916D02*
X499997Y1375916D01*
X499997Y1387604D01*
X505589Y1387604D01*
X505589Y1375916D01*
X505589Y1378085D02*
X499997Y1378085D01*
X499997Y1380254D02*
X505589Y1380254D01*
X505589Y1382423D02*
X499997Y1382423D01*
X499997Y1384592D02*
X505589Y1384592D01*
X505589Y1386761D02*
X499997Y1386761D01*
X510411Y1375916D02*
X516003Y1375916D01*
X510411Y1375916D02*
X510411Y1387604D01*
X516003Y1387604D01*
X516003Y1375916D01*
X516003Y1378085D02*
X510411Y1378085D01*
X510411Y1380254D02*
X516003Y1380254D01*
X516003Y1382423D02*
X510411Y1382423D01*
X510411Y1384592D02*
X516003Y1384592D01*
X516003Y1386761D02*
X510411Y1386761D01*
D13*
X314000Y1303810D03*
X371800Y1303810D03*
D10*
X390015Y1291338D02*
X395607Y1291338D01*
X395607Y1279650D01*
X390015Y1279650D01*
X390015Y1291338D01*
X390015Y1281819D02*
X395607Y1281819D01*
X395607Y1283988D02*
X390015Y1283988D01*
X390015Y1286157D02*
X395607Y1286157D01*
X395607Y1288326D02*
X390015Y1288326D01*
X390015Y1290495D02*
X395607Y1290495D01*
X385193Y1291338D02*
X379601Y1291338D01*
X385193Y1291338D02*
X385193Y1279650D01*
X379601Y1279650D01*
X379601Y1291338D01*
X379601Y1281819D02*
X385193Y1281819D01*
X385193Y1283988D02*
X379601Y1283988D01*
X379601Y1286157D02*
X385193Y1286157D01*
X385193Y1288326D02*
X379601Y1288326D01*
X379601Y1290495D02*
X385193Y1290495D01*
D12*
X508000Y1496060D03*
X508000Y1521460D03*
X508000Y1546860D03*
X508000Y1572260D03*
X508000Y1597660D03*
X508000Y1623060D03*
X508000Y1673860D03*
X508000Y1699260D03*
X508000Y1724660D03*
X508000Y1750060D03*
X508000Y1775460D03*
X508000Y1800860D03*
X25400Y1800860D03*
X25400Y1775460D03*
X25400Y1750060D03*
X25400Y1724660D03*
X25400Y1699260D03*
X25400Y1673860D03*
X25400Y1648460D03*
X25400Y1623060D03*
X25400Y1584960D03*
X25400Y1559560D03*
X25400Y1534160D03*
X25400Y1508760D03*
X25400Y1483360D03*
X25400Y1457960D03*
X25400Y1432560D03*
X25400Y1407160D03*
X25400Y1381760D03*
X25400Y1356360D03*
X508000Y1470660D03*
X508000Y1445260D03*
D14*
X101600Y1430260D03*
X101600Y1460260D03*
D13*
X187000Y1303810D03*
X244800Y1303810D03*
D10*
X170055Y1281428D02*
X164463Y1281428D01*
X164463Y1293116D01*
X170055Y1293116D01*
X170055Y1281428D01*
X170055Y1283597D02*
X164463Y1283597D01*
X164463Y1285766D02*
X170055Y1285766D01*
X170055Y1287935D02*
X164463Y1287935D01*
X164463Y1290104D02*
X170055Y1290104D01*
X170055Y1292273D02*
X164463Y1292273D01*
X174877Y1281428D02*
X180469Y1281428D01*
X174877Y1281428D02*
X174877Y1293116D01*
X180469Y1293116D01*
X180469Y1281428D01*
X180469Y1283597D02*
X174877Y1283597D01*
X174877Y1285766D02*
X180469Y1285766D01*
X180469Y1287935D02*
X174877Y1287935D01*
X174877Y1290104D02*
X180469Y1290104D01*
X180469Y1292273D02*
X174877Y1292273D01*
X499997Y1350516D02*
X505589Y1350516D01*
X499997Y1350516D02*
X499997Y1362204D01*
X505589Y1362204D01*
X505589Y1350516D01*
X505589Y1352685D02*
X499997Y1352685D01*
X499997Y1354854D02*
X505589Y1354854D01*
X505589Y1357023D02*
X499997Y1357023D01*
X499997Y1359192D02*
X505589Y1359192D01*
X505589Y1361361D02*
X499997Y1361361D01*
X510411Y1350516D02*
X516003Y1350516D01*
X510411Y1350516D02*
X510411Y1362204D01*
X516003Y1362204D01*
X516003Y1350516D01*
X516003Y1352685D02*
X510411Y1352685D01*
X510411Y1354854D02*
X516003Y1354854D01*
X516003Y1357023D02*
X510411Y1357023D01*
X510411Y1359192D02*
X516003Y1359192D01*
X516003Y1361361D02*
X510411Y1361361D01*
D14*
X457200Y1511060D03*
X457200Y1481060D03*
X88900Y1676160D03*
X88900Y1646160D03*
D10*
X673098Y1349504D02*
X678690Y1349504D01*
X678690Y1337816D01*
X673098Y1337816D01*
X673098Y1349504D01*
X673098Y1339985D02*
X678690Y1339985D01*
X678690Y1342154D02*
X673098Y1342154D01*
X673098Y1344323D02*
X678690Y1344323D01*
X678690Y1346492D02*
X673098Y1346492D01*
X673098Y1348661D02*
X678690Y1348661D01*
X668276Y1349504D02*
X662684Y1349504D01*
X668276Y1349504D02*
X668276Y1337816D01*
X662684Y1337816D01*
X662684Y1349504D01*
X662684Y1339985D02*
X668276Y1339985D01*
X668276Y1342154D02*
X662684Y1342154D01*
X662684Y1344323D02*
X668276Y1344323D01*
X668276Y1346492D02*
X662684Y1346492D01*
X662684Y1348661D02*
X668276Y1348661D01*
X657862Y1349504D02*
X652270Y1349504D01*
X657862Y1349504D02*
X657862Y1337816D01*
X652270Y1337816D01*
X652270Y1349504D01*
X652270Y1339985D02*
X657862Y1339985D01*
X657862Y1342154D02*
X652270Y1342154D01*
X652270Y1344323D02*
X657862Y1344323D01*
X657862Y1346492D02*
X652270Y1346492D01*
X652270Y1348661D02*
X657862Y1348661D01*
D11*
X589280Y1813560D03*
X982980Y1270000D03*
D12*
X881380Y1750060D03*
X881380Y1724660D03*
X881380Y1699260D03*
X881380Y1673860D03*
X881380Y1648460D03*
X881380Y1623060D03*
X881380Y1597660D03*
X881380Y1572260D03*
X881380Y1546860D03*
X881380Y1521460D03*
X754380Y1750060D03*
X754380Y1724660D03*
X754380Y1699260D03*
X754380Y1673860D03*
X754380Y1648460D03*
X754380Y1623060D03*
X754380Y1597660D03*
X754380Y1572260D03*
X754380Y1546860D03*
X754380Y1521460D03*
D10*
X951101Y1279396D02*
X956693Y1279396D01*
X951101Y1279396D02*
X951101Y1291084D01*
X956693Y1291084D01*
X956693Y1279396D01*
X956693Y1281565D02*
X951101Y1281565D01*
X951101Y1283734D02*
X956693Y1283734D01*
X956693Y1285903D02*
X951101Y1285903D01*
X951101Y1288072D02*
X956693Y1288072D01*
X956693Y1290241D02*
X951101Y1290241D01*
X961515Y1279396D02*
X967107Y1279396D01*
X961515Y1279396D02*
X961515Y1291084D01*
X967107Y1291084D01*
X967107Y1279396D01*
X967107Y1281565D02*
X961515Y1281565D01*
X961515Y1283734D02*
X967107Y1283734D01*
X967107Y1285903D02*
X961515Y1285903D01*
X961515Y1288072D02*
X967107Y1288072D01*
X967107Y1290241D02*
X961515Y1290241D01*
X1038477Y1401316D02*
X1044069Y1401316D01*
X1038477Y1401316D02*
X1038477Y1413004D01*
X1044069Y1413004D01*
X1044069Y1401316D01*
X1044069Y1403485D02*
X1038477Y1403485D01*
X1038477Y1405654D02*
X1044069Y1405654D01*
X1044069Y1407823D02*
X1038477Y1407823D01*
X1038477Y1409992D02*
X1044069Y1409992D01*
X1044069Y1412161D02*
X1038477Y1412161D01*
X1048891Y1401316D02*
X1054483Y1401316D01*
X1048891Y1401316D02*
X1048891Y1413004D01*
X1054483Y1413004D01*
X1054483Y1401316D01*
X1054483Y1403485D02*
X1048891Y1403485D01*
X1048891Y1405654D02*
X1054483Y1405654D01*
X1054483Y1407823D02*
X1048891Y1407823D01*
X1048891Y1409992D02*
X1054483Y1409992D01*
X1054483Y1412161D02*
X1048891Y1412161D01*
X1044069Y1375916D02*
X1038477Y1375916D01*
X1038477Y1387604D01*
X1044069Y1387604D01*
X1044069Y1375916D01*
X1044069Y1378085D02*
X1038477Y1378085D01*
X1038477Y1380254D02*
X1044069Y1380254D01*
X1044069Y1382423D02*
X1038477Y1382423D01*
X1038477Y1384592D02*
X1044069Y1384592D01*
X1044069Y1386761D02*
X1038477Y1386761D01*
X1048891Y1375916D02*
X1054483Y1375916D01*
X1048891Y1375916D02*
X1048891Y1387604D01*
X1054483Y1387604D01*
X1054483Y1375916D01*
X1054483Y1378085D02*
X1048891Y1378085D01*
X1048891Y1380254D02*
X1054483Y1380254D01*
X1054483Y1382423D02*
X1048891Y1382423D01*
X1048891Y1384592D02*
X1054483Y1384592D01*
X1054483Y1386761D02*
X1048891Y1386761D01*
D13*
X852480Y1303810D03*
X910280Y1303810D03*
D10*
X928495Y1291338D02*
X934087Y1291338D01*
X934087Y1279650D01*
X928495Y1279650D01*
X928495Y1291338D01*
X928495Y1281819D02*
X934087Y1281819D01*
X934087Y1283988D02*
X928495Y1283988D01*
X928495Y1286157D02*
X934087Y1286157D01*
X934087Y1288326D02*
X928495Y1288326D01*
X928495Y1290495D02*
X934087Y1290495D01*
X923673Y1291338D02*
X918081Y1291338D01*
X923673Y1291338D02*
X923673Y1279650D01*
X918081Y1279650D01*
X918081Y1291338D01*
X918081Y1281819D02*
X923673Y1281819D01*
X923673Y1283988D02*
X918081Y1283988D01*
X918081Y1286157D02*
X923673Y1286157D01*
X923673Y1288326D02*
X918081Y1288326D01*
X918081Y1290495D02*
X923673Y1290495D01*
D12*
X1046480Y1496060D03*
X1046480Y1521460D03*
X1046480Y1546860D03*
X1046480Y1572260D03*
X1046480Y1597660D03*
X1046480Y1623060D03*
X1046480Y1673860D03*
X1046480Y1699260D03*
X1046480Y1724660D03*
X1046480Y1750060D03*
X1046480Y1775460D03*
X1046480Y1800860D03*
X563880Y1800860D03*
X563880Y1775460D03*
X563880Y1750060D03*
X563880Y1724660D03*
X563880Y1699260D03*
X563880Y1673860D03*
X563880Y1648460D03*
X563880Y1623060D03*
X563880Y1584960D03*
X563880Y1559560D03*
X563880Y1534160D03*
X563880Y1508760D03*
X563880Y1483360D03*
X563880Y1457960D03*
X563880Y1432560D03*
X563880Y1407160D03*
X563880Y1381760D03*
X563880Y1356360D03*
X1046480Y1470660D03*
X1046480Y1445260D03*
D14*
X640080Y1430260D03*
X640080Y1460260D03*
D13*
X725480Y1303810D03*
X783280Y1303810D03*
D10*
X708535Y1281428D02*
X702943Y1281428D01*
X702943Y1293116D01*
X708535Y1293116D01*
X708535Y1281428D01*
X708535Y1283597D02*
X702943Y1283597D01*
X702943Y1285766D02*
X708535Y1285766D01*
X708535Y1287935D02*
X702943Y1287935D01*
X702943Y1290104D02*
X708535Y1290104D01*
X708535Y1292273D02*
X702943Y1292273D01*
X713357Y1281428D02*
X718949Y1281428D01*
X713357Y1281428D02*
X713357Y1293116D01*
X718949Y1293116D01*
X718949Y1281428D01*
X718949Y1283597D02*
X713357Y1283597D01*
X713357Y1285766D02*
X718949Y1285766D01*
X718949Y1287935D02*
X713357Y1287935D01*
X713357Y1290104D02*
X718949Y1290104D01*
X718949Y1292273D02*
X713357Y1292273D01*
X1038477Y1350516D02*
X1044069Y1350516D01*
X1038477Y1350516D02*
X1038477Y1362204D01*
X1044069Y1362204D01*
X1044069Y1350516D01*
X1044069Y1352685D02*
X1038477Y1352685D01*
X1038477Y1354854D02*
X1044069Y1354854D01*
X1044069Y1357023D02*
X1038477Y1357023D01*
X1038477Y1359192D02*
X1044069Y1359192D01*
X1044069Y1361361D02*
X1038477Y1361361D01*
X1048891Y1350516D02*
X1054483Y1350516D01*
X1048891Y1350516D02*
X1048891Y1362204D01*
X1054483Y1362204D01*
X1054483Y1350516D01*
X1054483Y1352685D02*
X1048891Y1352685D01*
X1048891Y1354854D02*
X1054483Y1354854D01*
X1054483Y1357023D02*
X1048891Y1357023D01*
X1048891Y1359192D02*
X1054483Y1359192D01*
X1054483Y1361361D02*
X1048891Y1361361D01*
D14*
X995680Y1511060D03*
X995680Y1481060D03*
X627380Y1676160D03*
X627380Y1646160D03*
D11*
X-26238Y1850390D03*
X1093038Y1850390D03*
D15*
X-35293Y63500D02*
X-35290Y63722D01*
X-35282Y63944D01*
X-35268Y64166D01*
X-35249Y64388D01*
X-35225Y64608D01*
X-35195Y64829D01*
X-35160Y65048D01*
X-35119Y65267D01*
X-35073Y65484D01*
X-35022Y65700D01*
X-34965Y65915D01*
X-34903Y66129D01*
X-34836Y66340D01*
X-34764Y66551D01*
X-34686Y66759D01*
X-34604Y66965D01*
X-34516Y67169D01*
X-34424Y67372D01*
X-34326Y67571D01*
X-34224Y67768D01*
X-34117Y67963D01*
X-34005Y68155D01*
X-33888Y68344D01*
X-33767Y68531D01*
X-33641Y68714D01*
X-33511Y68894D01*
X-33376Y69071D01*
X-33238Y69244D01*
X-33095Y69414D01*
X-32947Y69581D01*
X-32796Y69744D01*
X-32641Y69903D01*
X-32482Y70058D01*
X-32319Y70209D01*
X-32152Y70357D01*
X-31982Y70500D01*
X-31809Y70638D01*
X-31632Y70773D01*
X-31452Y70903D01*
X-31269Y71029D01*
X-31082Y71150D01*
X-30893Y71267D01*
X-30701Y71379D01*
X-30506Y71486D01*
X-30309Y71588D01*
X-30110Y71686D01*
X-29907Y71778D01*
X-29703Y71866D01*
X-29497Y71948D01*
X-29289Y72026D01*
X-29078Y72098D01*
X-28867Y72165D01*
X-28653Y72227D01*
X-28438Y72284D01*
X-28222Y72335D01*
X-28005Y72381D01*
X-27786Y72422D01*
X-27567Y72457D01*
X-27346Y72487D01*
X-27126Y72511D01*
X-26904Y72530D01*
X-26682Y72544D01*
X-26460Y72552D01*
X-26238Y72555D01*
X-26016Y72552D01*
X-25794Y72544D01*
X-25572Y72530D01*
X-25350Y72511D01*
X-25130Y72487D01*
X-24909Y72457D01*
X-24690Y72422D01*
X-24471Y72381D01*
X-24254Y72335D01*
X-24038Y72284D01*
X-23823Y72227D01*
X-23609Y72165D01*
X-23398Y72098D01*
X-23187Y72026D01*
X-22979Y71948D01*
X-22773Y71866D01*
X-22569Y71778D01*
X-22366Y71686D01*
X-22167Y71588D01*
X-21970Y71486D01*
X-21775Y71379D01*
X-21583Y71267D01*
X-21394Y71150D01*
X-21207Y71029D01*
X-21024Y70903D01*
X-20844Y70773D01*
X-20667Y70638D01*
X-20494Y70500D01*
X-20324Y70357D01*
X-20157Y70209D01*
X-19994Y70058D01*
X-19835Y69903D01*
X-19680Y69744D01*
X-19529Y69581D01*
X-19381Y69414D01*
X-19238Y69244D01*
X-19100Y69071D01*
X-18965Y68894D01*
X-18835Y68714D01*
X-18709Y68531D01*
X-18588Y68344D01*
X-18471Y68155D01*
X-18359Y67963D01*
X-18252Y67768D01*
X-18150Y67571D01*
X-18052Y67372D01*
X-17960Y67169D01*
X-17872Y66965D01*
X-17790Y66759D01*
X-17712Y66551D01*
X-17640Y66340D01*
X-17573Y66129D01*
X-17511Y65915D01*
X-17454Y65700D01*
X-17403Y65484D01*
X-17357Y65267D01*
X-17316Y65048D01*
X-17281Y64829D01*
X-17251Y64608D01*
X-17227Y64388D01*
X-17208Y64166D01*
X-17194Y63944D01*
X-17186Y63722D01*
X-17183Y63500D01*
X-17186Y63278D01*
X-17194Y63056D01*
X-17208Y62834D01*
X-17227Y62612D01*
X-17251Y62392D01*
X-17281Y62171D01*
X-17316Y61952D01*
X-17357Y61733D01*
X-17403Y61516D01*
X-17454Y61300D01*
X-17511Y61085D01*
X-17573Y60871D01*
X-17640Y60660D01*
X-17712Y60449D01*
X-17790Y60241D01*
X-17872Y60035D01*
X-17960Y59831D01*
X-18052Y59628D01*
X-18150Y59429D01*
X-18252Y59232D01*
X-18359Y59037D01*
X-18471Y58845D01*
X-18588Y58656D01*
X-18709Y58469D01*
X-18835Y58286D01*
X-18965Y58106D01*
X-19100Y57929D01*
X-19238Y57756D01*
X-19381Y57586D01*
X-19529Y57419D01*
X-19680Y57256D01*
X-19835Y57097D01*
X-19994Y56942D01*
X-20157Y56791D01*
X-20324Y56643D01*
X-20494Y56500D01*
X-20667Y56362D01*
X-20844Y56227D01*
X-21024Y56097D01*
X-21207Y55971D01*
X-21394Y55850D01*
X-21583Y55733D01*
X-21775Y55621D01*
X-21970Y55514D01*
X-22167Y55412D01*
X-22366Y55314D01*
X-22569Y55222D01*
X-22773Y55134D01*
X-22979Y55052D01*
X-23187Y54974D01*
X-23398Y54902D01*
X-23609Y54835D01*
X-23823Y54773D01*
X-24038Y54716D01*
X-24254Y54665D01*
X-24471Y54619D01*
X-24690Y54578D01*
X-24909Y54543D01*
X-25130Y54513D01*
X-25350Y54489D01*
X-25572Y54470D01*
X-25794Y54456D01*
X-26016Y54448D01*
X-26238Y54445D01*
X-26460Y54448D01*
X-26682Y54456D01*
X-26904Y54470D01*
X-27126Y54489D01*
X-27346Y54513D01*
X-27567Y54543D01*
X-27786Y54578D01*
X-28005Y54619D01*
X-28222Y54665D01*
X-28438Y54716D01*
X-28653Y54773D01*
X-28867Y54835D01*
X-29078Y54902D01*
X-29289Y54974D01*
X-29497Y55052D01*
X-29703Y55134D01*
X-29907Y55222D01*
X-30110Y55314D01*
X-30309Y55412D01*
X-30506Y55514D01*
X-30701Y55621D01*
X-30893Y55733D01*
X-31082Y55850D01*
X-31269Y55971D01*
X-31452Y56097D01*
X-31632Y56227D01*
X-31809Y56362D01*
X-31982Y56500D01*
X-32152Y56643D01*
X-32319Y56791D01*
X-32482Y56942D01*
X-32641Y57097D01*
X-32796Y57256D01*
X-32947Y57419D01*
X-33095Y57586D01*
X-33238Y57756D01*
X-33376Y57929D01*
X-33511Y58106D01*
X-33641Y58286D01*
X-33767Y58469D01*
X-33888Y58656D01*
X-34005Y58845D01*
X-34117Y59037D01*
X-34224Y59232D01*
X-34326Y59429D01*
X-34424Y59628D01*
X-34516Y59831D01*
X-34604Y60035D01*
X-34686Y60241D01*
X-34764Y60449D01*
X-34836Y60660D01*
X-34903Y60871D01*
X-34965Y61085D01*
X-35022Y61300D01*
X-35073Y61516D01*
X-35119Y61733D01*
X-35160Y61952D01*
X-35195Y62171D01*
X-35225Y62392D01*
X-35249Y62612D01*
X-35268Y62834D01*
X-35282Y63056D01*
X-35290Y63278D01*
X-35293Y63500D01*
D16*
X-26238Y63500D03*
M02*
