M48
;GenerationSoftware,Autodesk,EAGLE,9.6.2*%
;CreationDate,2023-07-14T17:56:44Z*%
FMAT,2
ICI,OFF
METRIC,TZ,000.000
T4C0.305
T3C0.650
T2C0.850
T1C1.016
%
G90
M71
T1
X104648Y144526
X21590Y91948
X2540Y150876
X2540Y148336
X2540Y145796
X2540Y143256
X2540Y140716
X2540Y138176
X2540Y135636
X50800Y147066
X50800Y144526
X88138Y175006
X88138Y172466
X88138Y169926
X88138Y167386
X88138Y164846
X88138Y162306
X88138Y159766
X88138Y157226
X88138Y154686
X88138Y152146
X75438Y175006
X75438Y172466
X75438Y169926
X75438Y167386
X75438Y164846
X75438Y162306
X75438Y159766
X75438Y157226
X75438Y154686
X75438Y152146
X104648Y149606
X104648Y152146
X104648Y154686
X104648Y157226
X104648Y159766
X104648Y162306
X104648Y167386
X104648Y169926
X104648Y172466
X104648Y175006
X104648Y177546
X104648Y180086
X56388Y180086
X56388Y177546
X56388Y175006
X50800Y52070
X56388Y172466
X56388Y169926
X56388Y167386
X56388Y164846
X56388Y162306
X56388Y158496
X56388Y155956
X56388Y153416
X56388Y150876
X56388Y148336
X56388Y145796
X56388Y143256
X56388Y140716
X56388Y138176
X56388Y135636
X34290Y49530
X34290Y46990
X34290Y44450
X34290Y41910
X34290Y39370
X34290Y36830
X34290Y34290
X34290Y31750
X34290Y29210
X34290Y26670
X21590Y49530
X21590Y46990
X21590Y44450
X21590Y41910
X21590Y39370
X21590Y36830
X21590Y34290
X21590Y31750
X21590Y29210
X21590Y26670
X50800Y24130
X50800Y26670
X50800Y29210
X50800Y31750
X50800Y34290
X50800Y36830
X50800Y41910
X50800Y44450
X50800Y46990
X50800Y49530
X104648Y147066
X50800Y54610
X2540Y54610
X2540Y52070
X2540Y49530
X2540Y46990
X2540Y44450
X2540Y41910
X2540Y39370
X2540Y36830
X2540Y33020
X2540Y30480
X2540Y27940
X2540Y25400
X2540Y22860
X2540Y20320
X2540Y17780
X2540Y15240
X2540Y12700
X2540Y10160
X50800Y21590
X50800Y19050
X88138Y49530
X88138Y46990
X88138Y44450
X88138Y41910
X88138Y39370
X88138Y36830
X88138Y34290
X88138Y31750
X88138Y29210
X88138Y26670
X75438Y49530
X75438Y46990
X75438Y44450
X75438Y41910
X75438Y39370
X75438Y36830
X75438Y34290
X75438Y31750
X75438Y29210
X75438Y26670
X104648Y24130
X104648Y26670
X104648Y29210
X104648Y31750
X104648Y34290
X104648Y36830
X104648Y41910
X104648Y44450
X104648Y46990
X104648Y49530
X104648Y52070
X104648Y54610
X56388Y54610
X56388Y52070
X56388Y49530
X56388Y46990
X56388Y44450
X56388Y41910
X56388Y39370
X56388Y36830
X56388Y33020
X56388Y30480
X56388Y27940
X56388Y25400
X56388Y22860
X56388Y20320
X56388Y17780
X56388Y15240
X56388Y12700
X56388Y10160
X104648Y21590
X104648Y19050
X34290Y112268
X34290Y109728
X34290Y107188
X34290Y104648
X34290Y102108
X34290Y99568
X34290Y97028
X34290Y94488
X34290Y91948
X34290Y89408
X21590Y112268
X21590Y109728
X21590Y107188
X21590Y104648
X21590Y102108
X21590Y99568
X21590Y97028
X21590Y94488
X21590Y89408
X50800Y86868
X50800Y89408
X50800Y91948
X50800Y94488
X50800Y97028
X50800Y99568
X50800Y104648
X50800Y107188
X50800Y109728
X50800Y112268
X50800Y114808
X50800Y117348
X2540Y117348
X2540Y114808
X2540Y112268
X2540Y109728
X2540Y107188
X2540Y104648
X2540Y102108
X2540Y99568
X2540Y95758
X2540Y93218
X2540Y90678
X2540Y88138
X2540Y85598
X2540Y83058
X2540Y80518
X2540Y77978
X2540Y75438
X2540Y72898
X50800Y84328
X50800Y81788
X88138Y112268
X88138Y109728
X88138Y107188
X88138Y104648
X88138Y102108
X88138Y99568
X88138Y97028
X88138Y94488
X88138Y91948
X88138Y89408
X75438Y112268
X75438Y109728
X75438Y107188
X75438Y104648
X75438Y102108
X75438Y99568
X75438Y97028
X75438Y94488
X75438Y91948
X75438Y89408
X104648Y86868
X104648Y89408
X104648Y91948
X104648Y94488
X104648Y97028
X104648Y99568
X104648Y104648
X104648Y107188
X104648Y109728
X104648Y112268
X104648Y114808
X104648Y117348
X56388Y117348
X56388Y114808
X56388Y112268
X56388Y109728
X56388Y107188
X56388Y104648
X56388Y102108
X56388Y99568
X56388Y95758
X56388Y93218
X56388Y90678
X56388Y88138
X56388Y85598
X56388Y83058
X56388Y80518
X56388Y77978
X56388Y75438
X56388Y72898
X104648Y84328
X104648Y81788
X34290Y175006
X34290Y172466
X34290Y169926
X34290Y167386
X34290Y164846
X34290Y162306
X34290Y159766
X34290Y157226
X34290Y154686
X34290Y152146
X21590Y175006
X21590Y172466
X21590Y169926
X21590Y167386
X21590Y164846
X21590Y162306
X21590Y159766
X21590Y157226
X21590Y154686
X21590Y152146
X50800Y149606
X50800Y152146
X50800Y154686
X50800Y157226
X50800Y159766
X50800Y162306
X50800Y167386
X50800Y169926
X50800Y172466
X50800Y175006
X50800Y177546
X50800Y180086
X2540Y180086
X2540Y177546
X2540Y175006
X2540Y172466
X2540Y169926
X2540Y167386
X2540Y164846
X2540Y162306
X2540Y158496
X2540Y155956
X2540Y153416
T2
X45720Y22630
X10160Y143026
X10160Y17550
X10160Y20550
X10160Y146026
X45720Y151106
X45720Y25630
X99568Y85368
X8890Y42140
X8890Y39140
X45720Y148106
X8890Y167616
X64008Y17550
X64008Y20550
X8890Y164616
X64008Y143026
X99568Y25630
X99568Y22630
X62738Y42140
X62738Y39140
X99568Y151106
X99568Y148106
X10160Y80288
X10160Y83288
X62738Y167616
X62738Y164616
X45720Y88368
X45720Y85368
X8890Y104878
X8890Y101878
X64008Y146026
X64008Y80288
X64008Y83288
X99568Y88368
X62738Y104878
X62738Y101878
T3
X37180Y4905
X18700Y4905
X24480Y4905
X85248Y4905
X91028Y4905
X72548Y4905
X78328Y4905
X31400Y67643
X37180Y67643
X18700Y67643
X24480Y67643
X31400Y130381
X37180Y130381
X85248Y130381
X91028Y130381
X91028Y67643
X31400Y4905
X72548Y130381
X78328Y130381
X85248Y67643
X24480Y130381
X72548Y67643
X78328Y67643
X18700Y130381
T4
X75438Y7671
X78867Y8128
X78892Y16053
X81788Y25019
X106172Y11074
X97028Y31090
X97028Y31801
X82702Y13818
X82702Y14580
X61468Y27280
X18669Y97028
X21523Y79442
X14707Y78918
X30531Y106020
X31369Y82296
X32893Y82296
X17018Y93980
X28702Y80645
X39929Y74930
X8433Y108864
X9957Y108839
X11481Y108814
X15773Y65964
X11201Y66700
X15926Y109017
X27940Y112268
X48260Y64008
X27940Y64008
X5080Y64008
X24740Y77165
X31750Y75438
X24130Y75438
X17729Y75057
X3175Y66294
X17247Y69952
X50800Y67818
X13894Y77673
X6960Y108890
X31369Y83312
X32893Y83312
X12776Y108839
X18080Y98994
X34442Y86792
X51003Y70790
X24359Y84150
X20625Y85623
X20193Y111760
X36195Y105918
X37363Y98831
X38837Y95936
X8128Y100330
X27940Y109093
X50800Y102108
X23114Y110363
X17272Y96266
X14696Y94854
X8052Y83058
X7391Y80518
X14605Y110871
X36119Y95225
X39954Y73381
X36144Y112598
X30683Y69875
X25654Y69850
X10033Y79248
X22758Y91237
X22555Y95707
X35611Y91288
X34976Y88113
X3175Y69215
X6223Y69342
X6223Y66421
X11430Y86868
X37643Y69799
X32156Y93218
X37465Y85395
X34290Y75463
X36119Y70917
X38989Y77724
X43917Y71603
X43942Y69723
X32258Y80620
X24486Y92710
X33299Y76835
X34823Y80747
X48666Y88189
X25857Y88646
X30378Y93066
X32766Y109855
X36170Y108661
X35331Y84277
X13564Y101168
X24359Y86258
X7468Y90780
X16104Y101321
X48666Y85649
X43586Y85649
X32360Y71120
X23266Y71171
X1905Y84328
X3302Y97180
X864Y111862
X864Y105512
X864Y99162
X52578Y110490
X27940Y104648
X27940Y95758
X48666Y90729
X48666Y81839
X14910Y84328
X45009Y76327
X52400Y74600
X52527Y79680
X44475Y110922
X44475Y104572
X48285Y104572
X48285Y109652
X4826Y100838
X11430Y94488
X8890Y75438
X8890Y69088
X18567Y79908
X19533Y77953
X22454Y72949
X19101Y72415
X22225Y79070
X17221Y81077
X13970Y79375
X11887Y73787
X15138Y70917
X10160Y105918
X11684Y99822
X4724Y104546
X4064Y102133
X12217Y66700
X38633Y84938
X5969Y112217
X5969Y111506
X29210Y92304
X29210Y93066
X29210Y93828
X26162Y91542
X36957Y72390
X40030Y67818
X43205Y75641
X11125Y90114
X7620Y86106
X12700Y73558
X22504Y77572
X11506Y73000
X14859Y71603
X17018Y103948
X6909Y69342
X6985Y66446
X6680Y90551
X30480Y100838
X44450Y75438
X15342Y94539
X39675Y79756
X20066Y84988
X41910Y72898
X41808Y93929
X34620Y83363
X16662Y98146
X40767Y77343
X39497Y92862
X46990Y79553
X19355Y102921
X44701Y112014
X52261Y78931
X43053Y64389
X22682Y86157
X10668Y86157
X52349Y76327
X34315Y70409
X31471Y70358
X33038Y69697
X39878Y71552
X31750Y64008
X36830Y64008
X19075Y81051
X17984Y81204
X17731Y80063
X16635Y79985
X8382Y81788
X13970Y81788
X20955Y80035
X14057Y84288
X8382Y84328
X19050Y64008
X24130Y64008
X21590Y70409
X25019Y70866
X25044Y78791
X27940Y87757
X52324Y73812
X43180Y93828
X43180Y94539
X28854Y76556
X28854Y77318
X7620Y90018
X72517Y97028
X75371Y79442
X68555Y78918
X84379Y106020
X85217Y82296
X86741Y82296
X70866Y93980
X82550Y80645
X93777Y74930
X62281Y108864
X63805Y108839
X65329Y108814
X69621Y65964
X65049Y66700
X69774Y109017
X81788Y112268
X102108Y64008
X81788Y64008
X58928Y64008
X78588Y77165
X85598Y75438
X77978Y75438
X71577Y75057
X57023Y66294
X71095Y69952
X104648Y67818
X67742Y77673
X60808Y108890
X85217Y83312
X86741Y83312
X66624Y108839
X71928Y98994
X88290Y86792
X104851Y70790
X78207Y84150
X74473Y85623
X74041Y111760
X90043Y105918
X91211Y98831
X92685Y95936
X61976Y100330
X81788Y109093
X104648Y102108
X76962Y110363
X71120Y96266
X68544Y94854
X61900Y83058
X61239Y80518
X68453Y110871
X89967Y95225
X93802Y73381
X89992Y112598
X84531Y69875
X79502Y69850
X63881Y79248
X76606Y91237
X76403Y95707
X89459Y91288
X88824Y88113
X57023Y69215
X60071Y69342
X60071Y66421
X65278Y86868
X91491Y69799
X86004Y93218
X91313Y85395
X88138Y75463
X89967Y70917
X92837Y77724
X97765Y71603
X97790Y69723
X86106Y80620
X78334Y92710
X87147Y76835
X88671Y80747
X102514Y88189
X79705Y88646
X84226Y93066
X86614Y109855
X90018Y108661
X89179Y84277
X67412Y101168
X78207Y86258
X61316Y90780
X69952Y101321
X102514Y85649
X97434Y85649
X86208Y71120
X77114Y71171
X55753Y84328
X57150Y97180
X54712Y111862
X54712Y105512
X54712Y99162
X106426Y110490
X81788Y104648
X81788Y95758
X102514Y90729
X102514Y81839
X68758Y84328
X98857Y76327
X106248Y74600
X106375Y79680
X98323Y110922
X98323Y104572
X102133Y104572
X102133Y109652
X58674Y100838
X65278Y94488
X62738Y75438
X62738Y69088
X72415Y79908
X73381Y77953
X76302Y72949
X72949Y72415
X76073Y79070
X71069Y81077
X67818Y79375
X65735Y73787
X68986Y70917
X64008Y105918
X65532Y99822
X58572Y104546
X57912Y102133
X66065Y66700
X92481Y84938
X59817Y112217
X59817Y111506
X83058Y92304
X83058Y93066
X83058Y93828
X80010Y91542
X90805Y72390
X93878Y67818
X97053Y75641
X64973Y90114
X61468Y86106
X66548Y73558
X76352Y77572
X65354Y73000
X68707Y71603
X70866Y103948
X60757Y69342
X60833Y66446
X60528Y90551
X84328Y100838
X98298Y75438
X69190Y94539
X93523Y79756
X73914Y84988
X95758Y72898
X95656Y93929
X88468Y83363
X70510Y98146
X94615Y77343
X93345Y92862
X100838Y79553
X73203Y102921
X98549Y112014
X106109Y78931
X96901Y64389
X76530Y86157
X64516Y86157
X106197Y76327
X88163Y70409
X85319Y70358
X86886Y69697
X93726Y71552
X85598Y64008
X90678Y64008
X72923Y81051
X71832Y81204
X71579Y80063
X70483Y79985
X62230Y81788
X67818Y81788
X74803Y80035
X67905Y84288
X62230Y84328
X72898Y64008
X77978Y64008
X75438Y70409
X78867Y70866
X78892Y78791
X81788Y87757
X106172Y73812
X28854Y14580
X97028Y94539
X82702Y76556
X82702Y77318
X61468Y90018
X18669Y159766
X21523Y142180
X14707Y141656
X30531Y168758
X31369Y145034
X32893Y145034
X17018Y156718
X28702Y143383
X39929Y137668
X8433Y171602
X9957Y171577
X11481Y171552
X15773Y128702
X11201Y129438
X15926Y171755
X27940Y175006
X48260Y126746
X27940Y126746
X5080Y126746
X24740Y139903
X31750Y138176
X24130Y138176
X17729Y137795
X3175Y129032
X17247Y132690
X50800Y130556
X13894Y140411
X6960Y171628
X31369Y146050
X32893Y146050
X12776Y171577
X18080Y161732
X34442Y149530
X51003Y133528
X24359Y146888
X20625Y148361
X20193Y174498
X36195Y168656
X37363Y161569
X38837Y158674
X8128Y163068
X27940Y171831
X50800Y164846
X23114Y173101
X17272Y159004
X14696Y157592
X8052Y145796
X7391Y143256
X14605Y173609
X36119Y157963
X39954Y136119
X36144Y175336
X30683Y132613
X25654Y132588
X10033Y141986
X22758Y153975
X22555Y158445
X35611Y154026
X34976Y150851
X3175Y131953
X6223Y132080
X6223Y129159
X11430Y149606
X37643Y132537
X32156Y155956
X37465Y148133
X34290Y138201
X36119Y133655
X38989Y140462
X43917Y134341
X43942Y132461
X32258Y143358
X24486Y155448
X33299Y139573
X34823Y143485
X48666Y150927
X25857Y151384
X30378Y155804
X32766Y172593
X36170Y171399
X35331Y147015
X13564Y163906
X24359Y148996
X7468Y153518
X16104Y164059
X48666Y148387
X43586Y148387
X32360Y133858
X23266Y133909
X1905Y147066
X3302Y159918
X864Y174600
X864Y168250
X864Y161900
X52578Y173228
X27940Y167386
X27940Y158496
X48666Y153467
X48666Y144577
X14910Y147066
X45009Y139065
X52400Y137338
X52527Y142418
X44475Y173660
X44475Y167310
X48285Y167310
X48285Y172390
X4826Y163576
X11430Y157226
X8890Y138176
X8890Y131826
X18567Y142646
X19533Y140691
X22454Y135687
X19101Y135153
X22225Y141808
X17221Y143815
X13970Y142113
X11887Y136525
X15138Y133655
X10160Y168656
X11684Y162560
X4724Y167284
X4064Y164871
X12217Y129438
X38633Y147676
X5969Y174955
X5969Y174244
X29210Y155042
X29210Y155804
X29210Y156566
X26162Y154280
X36957Y135128
X40030Y130556
X43205Y138379
X11125Y152852
X7620Y148844
X12700Y136296
X22504Y140310
X11506Y135738
X14859Y134341
X17018Y166686
X6909Y132080
X6985Y129184
X6680Y153289
X30480Y163576
X44450Y138176
X15342Y157277
X39675Y142494
X20066Y147726
X41910Y135636
X41808Y156667
X34620Y146101
X16662Y160884
X40767Y140081
X39497Y155600
X46990Y142291
X19355Y165659
X44701Y174752
X52261Y141669
X43053Y127127
X22682Y148895
X10668Y148895
X52349Y139065
X34315Y133147
X31471Y133096
X33038Y132435
X39878Y134290
X31750Y126746
X36830Y126746
X19075Y143789
X17984Y143942
X17731Y142801
X16635Y142723
X8382Y144526
X13970Y144526
X20955Y142773
X14057Y147026
X8382Y147066
X19050Y126746
X24130Y126746
X21590Y133147
X25019Y133604
X25044Y141529
X27940Y150495
X52324Y136550
X43180Y156566
X43180Y157277
X28854Y139294
X28854Y140056
X7620Y152756
X72517Y159766
X75371Y142180
X68555Y141656
X84379Y168758
X85217Y145034
X86741Y145034
X70866Y156718
X82550Y143383
X93777Y137668
X62281Y171602
X63805Y171577
X65329Y171552
X69621Y128702
X65049Y129438
X69774Y171755
X81788Y175006
X102108Y126746
X81788Y126746
X58928Y126746
X78588Y139903
X85598Y138176
X77978Y138176
X71577Y137795
X57023Y129032
X71095Y132690
X104648Y130556
X67742Y140411
X60808Y171628
X85217Y146050
X86741Y146050
X66624Y171577
X71928Y161732
X88290Y149530
X104851Y133528
X78207Y146888
X74473Y148361
X74041Y174498
X90043Y168656
X91211Y161569
X92685Y158674
X61976Y163068
X81788Y171831
X104648Y164846
X76962Y173101
X71120Y159004
X68544Y157592
X61900Y145796
X61239Y143256
X68453Y173609
X89967Y157963
X93802Y136119
X89992Y175336
X84531Y132613
X79502Y132588
X63881Y141986
X76606Y153975
X76403Y158445
X89459Y154026
X88824Y150851
X57023Y131953
X60071Y132080
X60071Y129159
X65278Y149606
X91491Y132537
X86004Y155956
X91313Y148133
X88138Y138201
X89967Y133655
X92837Y140462
X97765Y134341
X97790Y132461
X86106Y143358
X78334Y155448
X87147Y139573
X88671Y143485
X102514Y150927
X79705Y151384
X84226Y155804
X86614Y172593
X90018Y171399
X89179Y147015
X67412Y163906
X78207Y148996
X61316Y153518
X69952Y164059
X102514Y148387
X97434Y148387
X86208Y133858
X77114Y133909
X55753Y147066
X57150Y159918
X54712Y174600
X54712Y168250
X54712Y161900
X106426Y173228
X81788Y167386
X81788Y158496
X102514Y153467
X102514Y144577
X68758Y147066
X98857Y139065
X106248Y137338
X106375Y142418
X98323Y173660
X98323Y167310
X102133Y167310
X102133Y172390
X58674Y163576
X65278Y157226
X62738Y138176
X62738Y131826
X72415Y142646
X73381Y140691
X76302Y135687
X72949Y135153
X76073Y141808
X71069Y143815
X67818Y142113
X65735Y136525
X68986Y133655
X64008Y168656
X65532Y162560
X58572Y167284
X57912Y164871
X66065Y129438
X92481Y147676
X59817Y174955
X59817Y174244
X83058Y155042
X83058Y155804
X83058Y156566
X80010Y154280
X90805Y135128
X93878Y130556
X97053Y138379
X64973Y152852
X61468Y148844
X66548Y136296
X76352Y140310
X65354Y135738
X68707Y134341
X70866Y166686
X60757Y132080
X60833Y129184
X60528Y153289
X84328Y163576
X98298Y138176
X69190Y157277
X93523Y142494
X73914Y147726
X95758Y135636
X95656Y156667
X88468Y146101
X70510Y160884
X94615Y140081
X93345Y155600
X100838Y142291
X73203Y165659
X98549Y174752
X106109Y141669
X96901Y127127
X76530Y148895
X64516Y148895
X106197Y139065
X88163Y133147
X85319Y133096
X86886Y132435
X93726Y134290
X85598Y126746
X90678Y126746
X72923Y143789
X71832Y143942
X71579Y142801
X70483Y142723
X62230Y144526
X67818Y144526
X74803Y142773
X67905Y147026
X62230Y147066
X72898Y126746
X77978Y126746
X75438Y133147
X78867Y133604
X78892Y141529
X18669Y34290
X106172Y136550
X97028Y156566
X97028Y157277
X82702Y139294
X82702Y140056
X61468Y152756
X21523Y16704
X14707Y16180
X30531Y43282
X31369Y19558
X32893Y19558
X17018Y31242
X28702Y17907
X39929Y12192
X8433Y46126
X9957Y46101
X11481Y46076
X15773Y3226
X11201Y3962
X15926Y46279
X27940Y49530
X48260Y1270
X27940Y1270
X5080Y1270
X24740Y14427
X31750Y12700
X24130Y12700
X17729Y12319
X3175Y3556
X17247Y7214
X50800Y5080
X13894Y14935
X6960Y46152
X31369Y20574
X32893Y20574
X12776Y46101
X18080Y36256
X34442Y24054
X51003Y8052
X24359Y21412
X20625Y22885
X20193Y49022
X36195Y43180
X37363Y36093
X38837Y33198
X8128Y37592
X27940Y46355
X50800Y39370
X23114Y47625
X17272Y33528
X14696Y32116
X8052Y20320
X7391Y17780
X14605Y48133
X36119Y32487
X39954Y10643
X36144Y49860
X30683Y7137
X25654Y7112
X10033Y16510
X22758Y28499
X22555Y32969
X35611Y28550
X34976Y25375
X3175Y6477
X6223Y6604
X6223Y3683
X11430Y24130
X37643Y7061
X32156Y30480
X37465Y22657
X34290Y12725
X36119Y8179
X38989Y14986
X43917Y8865
X43942Y6985
X32258Y17882
X24486Y29972
X33299Y14097
X34823Y18009
X48666Y25451
X25857Y25908
X30378Y30328
X32766Y47117
X36170Y45923
X35331Y21539
X13564Y38430
X24359Y23520
X7468Y28042
X16104Y38583
X48666Y22911
X43586Y22911
X32360Y8382
X23266Y8433
X1905Y21590
X3302Y34442
X864Y49124
X864Y42774
X864Y36424
X52578Y47752
X27940Y41910
X27940Y33020
X48666Y27991
X48666Y19101
X14910Y21590
X45009Y13589
X52400Y11862
X52527Y16942
X44475Y48184
X44475Y41834
X48285Y41834
X48285Y46914
X4826Y38100
X11430Y31750
X8890Y12700
X8890Y6350
X18567Y17170
X19533Y15215
X22454Y10211
X19101Y9677
X22225Y16332
X17221Y18339
X13970Y16637
X11887Y11049
X15138Y8179
X10160Y43180
X11684Y37084
X4724Y41808
X4064Y39395
X12217Y3962
X38633Y22200
X5969Y49479
X5969Y48768
X29210Y29566
X29210Y30328
X29210Y31090
X26162Y28804
X36957Y9652
X40030Y5080
X43205Y12903
X11125Y27376
X7620Y23368
X12700Y10820
X22504Y14834
X11506Y10262
X14859Y8865
X17018Y41210
X6909Y6604
X6985Y3708
X6680Y27813
X30480Y38100
X44450Y12700
X15342Y31801
X39675Y17018
X20066Y22250
X41910Y10160
X41808Y31191
X34620Y20625
X16662Y35408
X40767Y14605
X39497Y30124
X46990Y16815
X19355Y40183
X44701Y49276
X52261Y16193
X43053Y1651
X22682Y23419
X10668Y23419
X52349Y13589
X34315Y7671
X31471Y7620
X33038Y6959
X39878Y8814
X31750Y1270
X36830Y1270
X19075Y18313
X17984Y18466
X17731Y17325
X16635Y17247
X8382Y19050
X13970Y19050
X20955Y17297
X14057Y21550
X8382Y21590
X19050Y1270
X24130Y1270
X21590Y7671
X25019Y8128
X97028Y93828
X25044Y16053
X27940Y25019
X52324Y11074
X43180Y31090
X43180Y31801
X28854Y13818
X7620Y27280
X72517Y34290
X75371Y16704
X68555Y16180
X84379Y43282
X85217Y19558
X86741Y19558
X70866Y31242
X82550Y17907
X93777Y12192
X62281Y46126
X63805Y46101
X65329Y46076
X69621Y3226
X65049Y3962
X69774Y46279
X81788Y49530
X102108Y1270
X81788Y1270
X58928Y1270
X78588Y14427
X85598Y12700
X77978Y12700
X71577Y12319
X57023Y3556
X71095Y7214
X104648Y5080
X67742Y14935
X60808Y46152
X85217Y20574
X86741Y20574
X66624Y46101
X71928Y36256
X88290Y24054
X104851Y8052
X78207Y21412
X74473Y22885
X74041Y49022
X90043Y43180
X91211Y36093
X92685Y33198
X61976Y37592
X81788Y46355
X104648Y39370
X76962Y47625
X71120Y33528
X68544Y32116
X61900Y20320
X61239Y17780
X68453Y48133
X89967Y32487
X93802Y10643
X89992Y49860
X84531Y7137
X79502Y7112
X63881Y16510
X76606Y28499
X76403Y32969
X89459Y28550
X88824Y25375
X57023Y6477
X60071Y6604
X60071Y3683
X65278Y24130
X91491Y7061
X86004Y30480
X91313Y22657
X88138Y12725
X89967Y8179
X92837Y14986
X97765Y8865
X97790Y6985
X86106Y17882
X78334Y29972
X87147Y14097
X88671Y18009
X102514Y25451
X79705Y25908
X84226Y30328
X86614Y47117
X90018Y45923
X89179Y21539
X67412Y38430
X78207Y23520
X61316Y28042
X69952Y38583
X102514Y22911
X97434Y22911
X86208Y8382
X77114Y8433
X55753Y21590
X57150Y34442
X54712Y49124
X54712Y42774
X54712Y36424
X106426Y47752
X81788Y41910
X81788Y33020
X102514Y27991
X102514Y19101
X68758Y21590
X98857Y13589
X106248Y11862
X106375Y16942
X98323Y48184
X98323Y41834
X102133Y41834
X102133Y46914
X58674Y38100
X65278Y31750
X62738Y12700
X62738Y6350
X72415Y17170
X73381Y15215
X76302Y10211
X72949Y9677
X76073Y16332
X71069Y18339
X67818Y16637
X65735Y11049
X68986Y8179
X64008Y43180
X65532Y37084
X58572Y41808
X57912Y39395
X66065Y3962
X92481Y22200
X59817Y49479
X59817Y48768
X83058Y29566
X83058Y30328
X83058Y31090
X80010Y28804
X90805Y9652
X93878Y5080
X97053Y12903
X64973Y27376
X61468Y23368
X66548Y10820
X76352Y14834
X65354Y10262
X68707Y8865
X70866Y41210
X60757Y6604
X60833Y3708
X60528Y27813
X84328Y38100
X98298Y12700
X69190Y31801
X93523Y17018
X73914Y22250
X95758Y10160
X95656Y31191
X88468Y20625
X70510Y35408
X94615Y14605
X93345Y30124
X100838Y16815
X73203Y40183
X98549Y49276
X106109Y16193
X96901Y1651
X76530Y23419
X64516Y23419
X106197Y13589
X88163Y7671
X85319Y7620
X86886Y6959
X93726Y8814
X85598Y1270
X90678Y1270
X72923Y18313
X71832Y18466
X71579Y17325
X70483Y17247
X62230Y19050
X67818Y19050
X74803Y17297
X67905Y21550
X62230Y21590
X72898Y1270
X77978Y1270
X81788Y150495
M30